<svg width="40" height="40" viewBox="0 0 40 40" fill="none" xmlns="http://www.w3.org/2000/svg">
<path d="M19.9661 1.94077C11.1716 1.76128 2.96511 8.9905 2.0503 17.7453C1.08356 25.1496 5.14854 32.9593 11.9301 36.1862C18.3337 39.404 26.6374 38.435 31.9483 33.5516C37.3114 28.8479 39.5521 20.8441 37.0709 14.1029C34.7897 7.45853 28.4093 2.39808 21.3522 1.99331C20.891 1.95929 20.4286 1.94038 19.9661 1.94038L19.9661 1.94077ZM19.7613 3.88925C27.8256 3.58558 35.4049 10.3101 36.0369 18.3625C36.813 25.4642 32.3447 32.8214 25.5449 35.1618C18.9349 37.6059 10.8211 35.2298 6.82893 29.3506C2.73151 23.6112 2.89425 15.1392 7.54339 9.7547C10.519 6.17052 15.0847 3.90665 19.7613 3.88927V3.88925ZM20.0816 5.64554C12.6216 5.40819 5.75833 11.9577 5.62356 19.4181C5.29472 26.1596 10.2911 32.7755 16.9658 34.0595C23.1502 35.4133 30.0604 32.2361 32.8196 26.4837C35.6733 20.8656 34.397 13.3892 29.5281 9.2853C26.9482 7.00009 23.5358 5.64933 20.0816 5.64554ZM19.9938 7.56058C26.5701 7.38671 32.5596 13.3049 32.4541 19.8877C32.5703 25.9731 27.6725 31.7567 21.5623 32.3703C15.8257 33.1235 9.77726 29.445 8.12796 23.833C6.39917 18.4861 8.6705 12.046 13.6527 9.29286C15.5629 8.16755 17.7757 7.55698 19.9938 7.56058ZM11.8044 13.7492V26.2511H28.196V13.7492H11.8044ZM15.4458 15.7024H24.5534C22.9402 16.6952 21.3269 18.8742 19.7139 19.1121C18.2912 17.9755 16.8685 16.839 15.4458 15.7024V15.7024ZM26.2453 16.8523V24.2977H13.7552V16.8528C15.8363 18.5159 17.9172 20.1791 19.9984 21.842C22.0808 20.1789 24.163 18.5156 26.2453 16.8523H26.2453Z" fill="black"/>
</svg>
