<svg width="42" height="42" viewBox="0 0 42 42" fill="none" xmlns="http://www.w3.org/2000/svg">
<path d="M33.7313 12.2063L24.5438 3.01875C24.2813 2.75625 24.0187 2.625 23.625 2.625H10.5C9.05625 2.625 7.875 3.80625 7.875 5.25V36.75C7.875 38.1937 9.05625 39.375 10.5 39.375H31.5C32.9438 39.375 34.125 38.1937 34.125 36.75V13.125C34.125 12.7312 33.9938 12.4688 33.7313 12.2063ZM23.625 5.775L30.975 13.125H23.625V5.775ZM31.5 36.75H10.5V5.25H21V13.125C21 14.5688 22.1812 15.75 23.625 15.75H31.5V36.75Z" fill="black"/>
<path d="M13.125 28.875H28.875V31.5H13.125V28.875Z" fill="black"/>
<path d="M13.125 21H28.875V23.625H13.125V21Z" fill="black"/>
</svg>
