<svg width="40" height="40" viewBox="0 0 40 40" fill="none" xmlns="http://www.w3.org/2000/svg">
<path d="M10.0001 9C10.0001 8.20435 10.3161 7.44129 10.8787 6.87868C11.4413 6.31607 12.2044 6 13.0001 6H27.0001C27.7957 6 28.5588 6.31607 29.1214 6.87868C29.684 7.44129 30.0001 8.20435 30.0001 9V10H31.0001C32.3261 10 33.5979 10.5268 34.5356 11.4645C35.4733 12.4021 36.0001 13.6739 36.0001 15V25C36.0001 25.7956 35.684 26.5587 35.1214 27.1213C34.5588 27.6839 33.7957 28 33.0001 28H30.0001V31C30.0001 31.7956 29.684 32.5587 29.1214 33.1213C28.5588 33.6839 27.7957 34 27.0001 34H13.0001C12.2044 34 11.4413 33.6839 10.8787 33.1213C10.3161 32.5587 10.0001 31.7956 10.0001 31V28H7.00006C6.20441 28 5.44135 27.6839 4.87874 27.1213C4.31613 26.5587 4.00006 25.7956 4.00006 25V15C4.00006 13.6739 4.52685 12.4021 5.46453 11.4645C6.40221 10.5268 7.67398 10 9.00006 10H10.0001V9ZM12.0001 10H28.0001V9C28.0001 8.73478 27.8947 8.48043 27.7072 8.29289C27.5196 8.10536 27.2653 8 27.0001 8H13.0001C12.7348 8 12.4805 8.10536 12.293 8.29289C12.1054 8.48043 12.0001 8.73478 12.0001 9V10ZM10.0001 26V23C10.0001 22.2044 10.3161 21.4413 10.8787 20.8787C11.4413 20.3161 12.2044 20 13.0001 20H27.0001C27.7957 20 28.5588 20.3161 29.1214 20.8787C29.684 21.4413 30.0001 22.2044 30.0001 23V26H33.0001C33.2653 26 33.5196 25.8946 33.7072 25.7071C33.8947 25.5196 34.0001 25.2652 34.0001 25V15C34.0001 14.2044 33.684 13.4413 33.1214 12.8787C32.5588 12.3161 31.7957 12 31.0001 12H9.00006C8.20441 12 7.44135 12.3161 6.87874 12.8787C6.31613 13.4413 6.00006 14.2044 6.00006 15V25C6.00006 25.2652 6.10542 25.5196 6.29295 25.7071C6.48049 25.8946 6.73484 26 7.00006 26H10.0001ZM13.0001 22C12.7348 22 12.4805 22.1054 12.293 22.2929C12.1054 22.4804 12.0001 22.7348 12.0001 23V31C12.0001 31.2652 12.1054 31.5196 12.293 31.7071C12.4805 31.8946 12.7348 32 13.0001 32H27.0001C27.2653 32 27.5196 31.8946 27.7072 31.7071C27.8947 31.5196 28.0001 31.2652 28.0001 31V23C28.0001 22.7348 27.8947 22.4804 27.7072 22.2929C27.5196 22.1054 27.2653 22 27.0001 22H13.0001Z" fill="black"/>
</svg>
