<svg width="52" height="52" viewBox="0 0 52 52" fill="none" xmlns="http://www.w3.org/2000/svg">
<path d="M26 4.33337C14.0335 4.33337 4.33338 14.0335 4.33338 26C4.33338 37.9665 14.0335 47.6667 26 47.6667C37.9665 47.6667 47.6667 37.9665 47.6667 26C47.6667 14.0335 37.9665 4.33337 26 4.33337Z" stroke="#CC7F31" stroke-width="1.5" stroke-linecap="round" stroke-linejoin="round"/>
<path d="M9.25384 39.7497C9.25384 39.7497 14.0833 33.5834 26 33.5834C37.9167 33.5834 42.7483 39.7497 42.7483 39.7497" stroke="#CC7F31" stroke-width="1.5" stroke-linecap="round" stroke-linejoin="round"/>
<path d="M26 26C27.7239 26 29.3772 25.3152 30.5962 24.0962C31.8152 22.8772 32.5 21.2239 32.5 19.5C32.5 17.7761 31.8152 16.1228 30.5962 14.9038C29.3772 13.6848 27.7239 13 26 13C24.2761 13 22.6228 13.6848 21.4038 14.9038C20.1848 16.1228 19.5 17.7761 19.5 19.5C19.5 21.2239 20.1848 22.8772 21.4038 24.0962C22.6228 25.3152 24.2761 26 26 26V26Z" stroke="#CC7F31" stroke-width="1.5" stroke-linecap="round" stroke-linejoin="round"/>
</svg>
