<svg width="606" height="354" viewBox="0 0 606 354" fill="none" xmlns="http://www.w3.org/2000/svg">
<path d="M105.536 156.999C97.0668 143.466 95.0619 127.132 100.025 112.103C100.498 110.264 101.503 108.589 102.926 107.269C104.439 105.958 106.739 105.925 108.292 107.193C116.157 99.5509 126.141 94.1972 137.079 91.7562C139.226 91.1521 141.477 90.9591 143.702 91.1882C145.964 91.4363 147.949 92.7365 149.001 94.6592C149.977 96.6641 149.14 99.0462 147.094 100.087C151.156 98.3493 155.421 97.0782 159.798 96.3001C161.382 95.9147 163.063 96.1901 164.421 97.0574C166.051 98.3953 165.746 101.046 164.421 102.624C162.863 104.114 160.922 105.188 158.791 105.741C160.072 105.336 161.416 105.144 162.766 105.173C164.169 105.219 165.444 105.968 166.117 107.142C167.203 109.389 164.912 111.8 162.673 113.062C156.99 116.268 150.273 117.379 143.676 117.871C137.079 118.363 130.428 118.287 123.924 119.386C121.718 119.601 119.623 120.411 117.883 121.721C115.141 124.119 115.074 128.158 115.233 131.705C115.538 136.753 115.989 141.802 114.876 146.699C113.763 151.597 110.796 156.418 105.987 158.488" fill="#A6613B"/>
<path d="M270.07 218.657C270.07 218.657 274.217 199.901 277.436 197.97C280.655 196.038 293.24 185.777 293.611 187.96C293.982 190.144 287.57 195.95 288.498 198.424C289.425 200.898 296.208 201.365 296.208 201.365C296.208 201.365 303.838 201.781 305.892 200.608C307.945 199.434 321.139 187.153 320.106 190.245C319.073 193.337 311.323 208.925 306.62 211.172C301.917 213.419 289.398 216.347 288.749 216.435C288.1 216.524 283.98 226.18 283.98 226.18L270.07 218.657Z" fill="#F0BFAC"/>
<path d="M75.332 273.701C78.2465 286.613 80.3926 297.291 80.1409 299.677C79.717 303.463 77.3457 319.506 75.332 332.923V352.424L189.5 349.5L178.663 203.75C177.553 191.56 168.06 181.566 155.44 179.301C143.517 177.206 125.739 175.868 100.648 177.673C90.973 178.399 81.9371 182.561 75.332 189.336L75.332 273.701Z" fill="#2A2A59"/>
<path d="M162.765 248.445C162.765 248.445 211.78 308.02 237.348 298.68C262.916 289.34 287.821 221.888 287.821 221.888L267.42 208.963L225.227 254.314L171.495 187.885L162.765 248.445Z" fill="#2A2A59"/>
<path d="M96.6351 178.191C94.9527 178.961 131.715 255.311 131.715 255.311L147.837 178.191C147.837 178.191 107.856 173.003 96.6351 178.191Z" fill="white"/>
<path d="M104.475 180.968L106.303 150.751C106.303 150.751 100.077 151.458 98.2487 146.965C96.4205 142.471 101.905 131.957 111.072 139.29L110.185 114.047H154.272C154.272 114.047 162.3 172.41 135.183 172.41V184.628C135.183 184.628 117.232 197.919 104.475 180.968Z" fill="#F0BFAC"/>
<path d="M134.177 147.292C134.388 147.578 134.659 147.819 134.972 147.999C135.858 148.429 136.934 148.255 137.621 147.57C138.096 147.108 138.43 146.533 138.589 145.904C138.765 145.168 138.819 144.41 138.748 143.657C138.642 142.004 138.509 140.212 138.377 138.318C138.125 134.532 137.926 131.099 137.807 128.612C137.807 127.35 137.714 126.353 137.701 125.658C137.65 125.298 137.65 124.933 137.701 124.573C137.795 124.924 137.853 125.284 137.873 125.646C137.953 126.34 138.045 127.35 138.165 128.587C138.377 131.111 138.642 134.494 138.893 138.293C139.012 140.174 139.118 141.979 139.224 143.632C139.275 144.434 139.195 145.239 138.986 146.018C138.788 146.715 138.394 147.348 137.847 147.848C137.385 148.261 136.784 148.503 136.151 148.529C135.683 148.536 135.223 148.413 134.826 148.176C134.204 147.696 134.151 147.292 134.177 147.292Z" fill="#1B1A51"/>
<path d="M137.131 153.97C136.574 154.375 135.908 154.625 135.21 154.689C133.522 154.966 131.785 154.676 130.295 153.869C128.826 153.033 127.71 151.734 127.142 150.196C126.859 149.581 126.758 148.905 126.851 148.239C126.944 148.239 127.01 148.984 127.5 150.057C128.757 152.955 131.891 154.696 135.157 154.31C136.376 154.197 137.105 153.881 137.131 153.97Z" fill="#1B1A51"/>
<path d="M128.097 147.822C128.097 147.961 127.156 147.822 126.242 148.289C125.328 148.756 125.01 149.552 124.917 149.552C124.824 149.552 124.824 149.299 124.917 148.933C125.132 148.464 125.505 148.078 125.977 147.835C126.436 147.577 126.973 147.475 127.5 147.545C127.911 147.608 128.11 147.759 128.097 147.822Z" fill="#1B1A51"/>
<path d="M106.278 147.533C106.787 147.152 107.177 146.645 107.404 146.068C107.642 145.458 107.642 144.786 107.404 144.175C107.159 143.447 106.415 142.98 105.616 143.052C105.277 143.089 104.977 143.276 104.807 143.558C104.638 143.839 104.618 144.181 104.755 144.478L104.291 144.642C103.971 143.282 103.789 141.896 103.748 140.502C104.227 141.819 104.578 143.175 104.795 144.554L105.073 145.892L104.318 144.718C104.086 144.277 104.093 143.757 104.334 143.321C104.576 142.886 105.024 142.588 105.536 142.522C106.072 142.455 106.615 142.591 107.047 142.9C107.428 143.184 107.718 143.565 107.881 143.998C108.164 144.71 108.164 145.496 107.881 146.207C107.68 146.67 107.344 147.068 106.914 147.356C106.49 147.533 106.292 147.57 106.278 147.533Z" fill="#1B1A51"/>
<path d="M128.321 122.705C128.467 123.412 126.851 124.308 124.705 124.699C122.559 125.09 120.731 124.838 120.558 124.131C120.386 123.424 122.029 122.516 124.175 122.124C126.321 121.733 128.149 122.049 128.321 122.705Z" fill="#A6613B"/>
<path d="M150.91 122.389C150.91 123.109 149.439 123.652 147.743 123.488C146.048 123.323 144.723 122.68 144.776 121.96C144.829 121.241 146.246 120.698 147.942 120.862C149.638 121.026 150.963 121.67 150.91 122.389Z" fill="#A6613B"/>
<path d="M139.146 172.145C137.728 172.414 136.285 172.545 134.84 172.537C133.269 172.542 131.701 172.424 130.151 172.183C128.254 171.866 126.391 171.385 124.587 170.744C122.792 170.084 121.067 169.264 119.433 168.296C118.103 167.496 116.844 166.593 115.671 165.595C114.585 164.684 113.595 163.674 112.717 162.578C112.717 162.578 112.81 162.578 112.942 162.767L113.525 163.373C114.242 164.108 115.003 164.804 115.803 165.456C116.983 166.428 118.241 167.31 119.566 168.094C121.191 169.042 122.902 169.849 124.679 170.504C126.47 171.131 128.314 171.612 130.19 171.943C131.727 172.192 133.282 172.327 134.84 172.347C135.893 172.365 136.945 172.327 137.993 172.234L138.854 172.158L139.146 172.145Z" fill="#1B1A51"/>
<path d="M136.272 346.34C136.113 346.34 134.947 325.981 133.741 300.901C132.536 275.821 131.622 255.386 131.781 255.374C131.94 255.361 133.105 275.746 134.311 300.813C135.516 325.88 136.364 346.327 136.272 346.34Z" fill="#1B1A51"/>
<path d="M130.414 255.311C129.305 254.796 128.233 254.21 127.208 253.556C124.389 251.77 121.858 249.602 119.697 247.119C116.438 243.443 113.967 239.193 112.424 234.611C110.5 228.974 110.099 222.966 111.258 217.142L111.457 217.458L110.304 217.117C104.243 215.154 99.02 211.361 95.4273 206.312C92.523 202.191 90.864 197.388 90.6317 192.428C90.4484 189.11 90.8972 185.787 91.9565 182.621C92.3374 181.465 92.8296 180.346 93.427 179.276C93.3498 179.581 93.2388 179.877 93.0958 180.16C92.737 180.984 92.4274 181.827 92.1684 182.684C91.1927 185.831 90.7983 189.115 91.0027 192.391C91.2946 197.259 92.9655 201.961 95.838 205.997C99.3759 210.923 104.486 214.632 110.41 216.574L111.55 216.915L111.801 216.991V217.23C110.654 222.963 111.037 228.879 112.914 234.434C114.399 238.969 116.792 243.187 119.962 246.854C122.079 249.334 124.544 251.526 127.288 253.367C128.228 254.049 129.063 254.44 129.579 254.781C129.872 254.936 130.151 255.113 130.414 255.311Z" fill="#1B1A51"/>
<path d="M131.713 255.311C131.925 255.1 132.156 254.906 132.402 254.73C132.852 254.364 133.568 253.859 134.389 253.102C136.783 251.066 138.877 248.731 140.615 246.16C143.174 242.338 144.925 238.076 145.769 233.614C146.286 230.986 146.574 228.322 146.63 225.65V223.554C146.562 222.868 146.383 222.195 146.1 221.56C145.492 220.225 144.737 218.956 143.848 217.773C142.937 216.556 141.955 215.389 140.907 214.277L140.734 214.088L140.92 213.899C142.907 211.98 144.775 210.049 146.497 208.13C148.169 206.361 149.627 204.417 150.842 202.337C152.335 198.553 152.923 194.5 152.564 190.472C152.342 187.791 151.727 185.153 150.736 182.634C150.365 181.751 150.074 181.069 149.835 180.615C149.715 180.387 149.613 180.151 149.531 179.908C150.072 180.754 150.541 181.641 150.935 182.558C152.024 185.086 152.716 187.752 152.988 190.472C153.419 194.574 152.857 198.715 151.346 202.577C150.099 204.716 148.596 206.711 146.868 208.522C145.146 210.453 143.278 212.397 141.278 214.328V213.962C142.339 215.091 143.334 216.275 144.258 217.508C145.175 218.708 145.952 219.999 146.577 221.358C146.883 222.049 147.07 222.782 147.133 223.529V225.662C147.071 228.362 146.77 231.051 146.232 233.702C145.356 238.201 143.555 242.491 140.933 246.324C139.16 248.933 137.006 251.288 134.535 253.317C133.645 254.044 132.702 254.711 131.713 255.311Z" fill="#1B1A51"/>
<path d="M140.788 288.021C140.629 288.021 140.417 287.276 140.298 286.317C140.179 285.357 140.218 284.575 140.377 284.562C140.536 284.55 140.762 285.307 140.867 286.254C140.973 287.2 140.947 288.008 140.788 288.021Z" fill="#1B1A51"/>
<path d="M144.087 321.494C143.928 321.494 143.716 320.75 143.61 319.79C143.504 318.831 143.531 318.048 143.69 318.023C143.849 317.998 144.061 318.768 144.167 319.727C144.273 320.686 144.22 321.469 144.087 321.494Z" fill="#1B1A51"/>
<path d="M183.591 276.56C183.432 276.56 182.266 264.519 180.941 249.65C179.616 234.782 178.716 222.703 178.875 222.69C179.033 222.677 180.199 234.731 181.524 249.613C182.849 264.494 183.75 276.56 183.591 276.56Z" fill="#1B1A51"/>
<path d="M286.802 227.814C286.405 227.728 286.018 227.601 285.65 227.436L282.589 226.249C280.006 225.239 276.443 223.851 272.468 222.463C268.494 221.074 264.864 219.749 262.241 218.853L259.128 217.78C258.74 217.671 258.366 217.518 258.015 217.326C258.419 217.358 258.815 217.443 259.194 217.578L262.374 218.487C265.023 219.295 268.693 220.494 272.667 221.945C276.641 223.397 280.205 224.861 282.748 225.959L285.742 227.309C286.119 227.429 286.476 227.599 286.802 227.814Z" fill="#1B1A51"/>
<path d="M266.362 212.075C266.481 212.176 265.978 212.921 265.236 213.741C264.494 214.562 263.805 215.142 263.686 215.003C263.567 214.865 264.07 214.158 264.799 213.337C265.527 212.517 266.243 211.987 266.362 212.075Z" fill="#1B1A51"/>
<path d="M224.526 262.966C224.237 261.07 224.139 259.151 224.234 257.236C224.139 255.326 224.237 253.411 224.526 251.518C224.806 253.412 224.899 255.326 224.804 257.236C224.9 259.15 224.806 261.069 224.526 262.966Z" fill="#1B1A51"/>
<path d="M231.651 264.658C231.492 264.658 230.406 262.007 228.684 258.864C226.962 255.721 225.292 253.298 225.425 253.21C228.355 256.545 230.481 260.453 231.651 264.658Z" fill="#1B1A51"/>
<path d="M103.667 179.869C103.375 178.809 103.667 170.933 103.667 170.933C103.667 170.933 124.558 172.536 126.81 189.576C126.81 189.576 130.625 175.401 136.203 174.556L137.13 183.908L134.162 193.905L122.24 196.253L109.429 192.214L103.667 179.869Z" fill="white"/>
<path d="M126.613 192.87L124.229 199.85L127.964 204.987L129.501 197.995L126.613 192.87Z" fill="#1B1A51"/>
<path d="M126.945 203.586L122.838 236.744L132.217 256.371L139.146 224.539L128.495 202.589L126.945 203.586Z" fill="#1B1A51"/>
<ellipse cx="125.672" cy="131.402" rx="1.32475" ry="2.52438" fill="#0D224C"/>
<ellipse cx="146.869" cy="131.402" rx="1.32475" ry="2.52438" fill="#0D224C"/>
<path d="M565.16 235.073L550.918 265.012L545.341 322C545.341 322 480.998 335.429 455.152 312.192L464.425 256.555C467.247 240.55 465.578 209.753 479.157 198.822C480.728 197.565 482.465 196.509 484.323 195.68C493.901 191.527 510.818 189.192 527.086 189.192C541.658 189.192 556.655 196.55 565.504 207.342L565.16 235.073Z" fill="#BD462B"/>
<path d="M545.695 243.648C545.695 243.648 563.201 271.311 553.504 273.254C521.408 279.67 477.715 295.762 477.715 295.762L476.796 307.246C477.263 309.095 574.778 297.363 582.442 288.872C587.846 282.864 590.71 270.248 580.146 240.182L571.418 225.483L545.695 243.648Z" fill="#F6AEA6"/>
<path d="M484.852 201.044L413.011 226.073L410.759 192.12L395.551 186.743C395.551 186.743 373.282 241.257 401.154 251.405C429.027 261.553 460.424 242.759 460.424 242.759L484.852 201.044Z" fill="#F6AEA6"/>
<path d="M493.729 192.713C468.678 199.92 453.735 208.402 418.444 221.63L436.54 258.032L467.671 248.982L493.729 192.713Z" fill="#BD462B"/>
<path d="M534.65 219.876L550.748 259.474L585.198 236.048L576.471 223.186L565.447 207.109L533.511 219.876" fill="#BD462B"/>
<path d="M513.176 245.902C521.919 245.447 530.557 245.902 539.274 245.902C539.574 245.902 539.817 245.67 539.817 245.384C539.817 245.099 539.574 244.867 539.274 244.867C530.595 244.059 521.855 244.059 513.176 244.867C512.984 244.837 512.792 244.917 512.685 245.072C512.579 245.227 512.579 245.428 512.685 245.583C512.792 245.738 512.984 245.819 513.176 245.788V245.902Z" fill="#1A3066"/>
<path d="M552.323 201.586C522.808 203.985 542.984 243.239 550.574 255.166C550.77 255.442 551.152 255.534 551.462 255.381C551.612 255.309 551.723 255.181 551.768 255.027C551.814 254.873 551.789 254.709 551.7 254.573C544.189 242.544 524.053 205.991 552.429 202.23C552.826 202.23 552.76 201.548 552.429 201.586H552.323Z" fill="#1A3066"/>
<path d="M470.453 224.104C466.782 237.226 464.449 250.655 463.485 264.204C463.485 264.746 464.492 264.898 464.598 264.342C466.704 250.951 468.824 237.584 471.221 224.217C471.221 223.801 470.599 223.612 470.48 224.041L470.453 224.104Z" fill="#1A3066"/>
<path d="M539.605 151.604L540.929 134.69C543.219 133.993 545.109 132.432 546.157 130.371C547.206 128.31 547.323 125.93 546.48 123.785C546.48 123.785 546.414 123.646 546.387 123.57C543.976 119.223 538.946 116.799 533.842 117.525C537.021 115.568 536.783 110.898 534.173 108.348C531.224 105.959 527.445 104.703 523.575 104.827C519.734 104.979 515.887 104.865 512.063 104.486C508.711 103.918 505.439 102.542 502.021 102.934C498.603 103.325 495.398 106.72 497.239 109.409C492.443 108.765 487.078 108.147 482.865 110.292C478.653 112.438 476.348 118.459 480.07 121.374C478.933 122.009 478.113 123.055 477.796 124.274C477.479 125.493 477.693 126.782 478.388 127.849C480.007 129.988 482.589 131.274 485.356 131.32C488.094 131.369 490.823 131.02 493.45 130.285" fill="#251A51"/>
<path d="M538.798 140.61L537.817 152.311C537.817 152.311 548.813 153.649 545.766 162.724C542.719 171.799 535.062 167.773 535.062 167.773C535.062 167.773 533.194 191.009 506.792 183.651C485.781 177.794 487.079 153.245 489.742 132.444C490.656 124.77 498.313 119.216 506.831 120.049C507.282 120.049 507.719 120.15 508.156 120.226L524.053 123.015C533.141 124.643 539.526 132.204 538.798 140.61Z" fill="#F6AEA6"/>
<path d="M537.817 162.004L530.637 196.21C529.073 203.657 521.125 208.554 512.872 207.153C512.633 207.153 512.382 207.064 512.143 207.001C504.493 205.56 499.426 198.592 500.697 191.262L504.552 171.66L537.817 162.004Z" fill="#F6AEA6"/>
<path d="M508.618 162.395C508.572 162.756 508.331 163.068 507.982 163.216C507.333 163.557 505.876 162.825 505.584 161.663C505.239 160.43 505.14 159.145 505.293 157.877L505.558 153.32C505.601 149.391 506.085 145.477 507.002 141.645C507.333 145.555 507.267 149.486 506.803 153.383L506.419 157.94C506.233 159.124 506.233 160.328 506.419 161.512C506.618 162.459 507.373 162.938 507.876 162.85C508.379 162.761 508.525 162.332 508.618 162.395Z" fill="#251A51"/>
<path d="M500.046 181.29C501.259 181.731 502.444 182.236 503.597 182.805C506.436 183.942 509.473 184.563 512.552 184.635C515.631 184.688 518.693 184.183 521.574 183.146C522.749 182.619 523.957 182.16 525.19 181.77C524.277 182.69 523.177 183.425 521.958 183.928C516.004 186.529 509.125 186.376 503.305 183.512C502.045 183.035 500.927 182.272 500.046 181.29Z" fill="#251A51"/>
<path d="M505.228 167.192C505.373 167.192 505.943 167.583 507.042 168.025C509.922 169.311 513.355 168.313 514.991 165.715C515.614 164.768 515.759 164.062 515.958 164.074C516.157 164.087 516.289 164.882 515.812 166.068C514.486 168.987 510.994 170.407 507.864 169.3C507.428 169.15 507.01 168.955 506.619 168.719C505.466 168.012 505.108 167.28 505.228 167.192Z" fill="#251A51"/>
<path d="M538.651 163.847C538.651 163.67 539.3 163.582 539.975 163.19C540.359 162.99 540.651 162.662 540.797 162.269C540.797 161.827 540.797 161.449 540.413 161.335C540.207 161.208 539.943 161.208 539.737 161.335L538.69 160.843C539.671 158.987 540.572 157.712 540.81 157.813C541.048 157.914 540.625 159.366 539.79 161.272L538.704 160.78C539.187 160.138 540.067 159.893 540.836 160.186C541.359 160.353 541.767 160.747 541.936 161.247C542.084 161.655 542.084 162.1 541.936 162.509C541.673 163.143 541.122 163.63 540.439 163.834C539.234 164.225 538.651 163.973 538.651 163.847Z" fill="#251A51"/>
<path d="M518.329 140.799C518.329 140.522 519.575 139.878 521.31 140.282C523.045 140.686 523.96 141.885 523.708 142.049C523.456 142.213 522.383 141.683 521.058 141.367C519.734 141.052 518.449 141.127 518.329 140.799Z" fill="#251A51"/>
<path d="M495.504 137.543C495.358 137.278 496.723 136.458 498.644 136.609C500.565 136.76 501.757 137.783 501.532 138.01C501.306 138.237 500.101 137.846 498.524 137.732C496.948 137.619 495.65 137.846 495.504 137.543Z" fill="#251A51"/>
<path d="M537.816 152.311C530.463 145.836 528.238 135.031 526.29 125.918C519.189 130.45 510.25 131.5 502.207 128.746C499.744 131.385 496.887 133.665 493.728 135.511C492.872 136.145 491.781 136.419 490.708 136.268C489.462 135.94 488.919 134.665 488.628 133.529C487.578 129.901 487.73 126.053 489.065 122.51C490.469 118.863 493.451 115.966 497.252 114.559C501.52 113.413 506.047 113.483 510.274 114.76C516.675 116.291 522.835 118.621 528.596 121.69C534.226 124.669 539.657 128.619 542.029 134.11C544.4 139.6 544.426 150.241 538.65 153.043" fill="#251A51"/>
<path d="M520.317 150.342C519.973 150.342 519.761 149.496 519.827 148.499C519.893 147.502 520.264 146.732 520.595 146.757C520.927 146.782 521.178 147.59 521.072 148.587C520.966 149.584 520.675 150.342 520.317 150.342Z" fill="#251A51"/>
<path d="M499.121 147.88C498.79 147.88 498.565 147.047 498.644 146.05C498.724 145.053 499.068 144.283 499.413 144.296C499.757 144.308 499.956 145.141 499.89 146.138C499.823 147.135 499.479 147.905 499.121 147.88Z" fill="#251A51"/>
<path d="M394.69 187.917C394.69 187.917 397.869 170.246 401.684 170.448C405.5 170.65 413.104 170.448 413.104 170.448C413.104 170.448 413.753 153.674 415.859 156.324C417.966 158.975 418.641 181.568 410.468 192.436L394.69 187.917Z" fill="#F6AEA6"/>
<path d="M479.076 295.494C479.076 295.494 444.924 300.896 445.547 304.897C446.133 307.699 447.17 310.398 448.62 312.899L479.089 312.281L479.076 295.494Z" fill="#F6AEA6"/>
<path d="M516.143 313.871L515.878 309.618L445.547 305.73L421.966 248.83L344.76 252.655L371.096 314.199L516.143 313.871Z" fill="#383838"/>
<path opacity="0.41" d="M387.312 279.754C387.586 282.68 390.279 284.852 393.353 284.626C394.826 284.59 396.224 283.995 397.236 282.974C398.248 281.953 398.791 280.59 398.744 279.186C398.477 276.267 395.797 274.096 392.73 274.314C391.255 274.347 389.855 274.938 388.839 275.956C387.822 276.975 387.273 278.337 387.312 279.741V279.754Z" fill="white"/>
<path opacity="0.41" d="M385.045 279.867C385.418 283.954 389.179 286.991 393.471 286.671C395.527 286.624 397.478 285.799 398.893 284.378C400.308 282.956 401.069 281.056 401.009 279.097C400.643 275.018 396.895 271.981 392.61 272.294C390.548 272.334 388.589 273.156 387.166 274.578C385.743 275.999 384.975 277.904 385.032 279.867H385.045Z" fill="white"/>
<path d="M565.491 336.338C490.311 346.864 385.947 352.519 333.288 315.146L565.491 312.508V336.338Z" fill="#CD8032"/>
<path d="M308.065 61.3193L293.797 43.838C293.797 43.838 294.128 40.6699 303.335 40.9728C312.542 41.2757 325.856 38.9154 334.52 38.7261C341.18 38.6698 347.831 39.1936 354.391 40.2912L339.475 61.3193H308.065Z" fill="#BBBDBF"/>
<path d="M354.138 18.2281C345.13 32.9957 336.374 47.9274 331.459 63.6669C323.51 61.4076 315.495 59.1483 307.441 56.889C311.574 40.9475 312.846 24.7915 316.41 7.82764C329.374 9.85613 342.04 13.3475 354.138 18.2281Z" fill="#8BC543" stroke="#006738" stroke-width="9.57"/>
<path d="M330.055 27.1389C337.196 29.0953 340.825 34.9014 338.375 39.7608C335.665 44.7636 329.638 47.263 323.948 45.7436C318.305 44.1659 314.291 38.7384 315.152 33.513C316.013 28.2875 322.902 25.233 330.055 27.1389Z" fill="#006738"/>
<path d="M307.441 56.9394L313.853 58.7443C314.303 57.0721 314.036 55.2981 313.111 53.8135C312.187 52.3289 310.681 51.2556 308.925 50.8304C308.488 52.8751 307.984 54.9073 307.441 56.9394Z" fill="#006738"/>
<path d="M324.384 33.69C323.47 33.5133 322.834 34.056 322.49 35.3182C322.146 36.5804 322.371 37.3125 323.192 37.527C323.662 37.6981 324.194 37.5663 324.517 37.1989C325.103 36.5098 325.613 35.7654 326.04 34.9774C326.537 33.9964 327.349 33.1917 328.359 32.6802C329.334 32.3003 330.421 32.2689 331.419 32.5919C332.613 32.8437 333.574 33.687 333.936 34.8007C334.268 35.9188 334.193 37.1109 333.724 38.1834C332.571 40.9602 330.664 42.1719 327.988 41.8564C328.186 41.0612 328.372 40.266 328.571 39.4582C329.947 39.7065 331.279 38.8588 331.565 37.5523C332.108 36.1639 331.777 35.293 330.558 34.9522C330.111 34.8114 329.622 34.8767 329.233 35.1289C328.562 35.7709 327.999 36.5074 327.564 37.3125C327.049 38.2778 326.271 39.0932 325.312 39.6728C324.537 40.0616 323.634 40.1476 322.795 39.9126C321.835 39.6555 321.038 39.0159 320.609 38.1581C320.095 37.0747 320.011 35.8507 320.37 34.7124C321.059 31.9482 322.636 30.7743 325.06 31.254L324.384 33.69Z" fill="#8BC543"/>
<path d="M320.901 33.5509C320.703 34.3082 320.504 35.0655 320.319 35.8102L317.762 35.1665C317.934 34.4092 318.106 33.6518 318.265 32.8945L320.901 33.5509Z" fill="#8BC543"/>
<path d="M336.202 37.7161L335.248 39.8997L332.758 39.1802C333.049 38.4481 333.34 37.7161 333.645 36.984L336.202 37.7161Z" fill="#8BC543"/>
<path d="M331.089 63.6035C331.742 61.5924 332.435 59.5898 333.168 57.5955C329.613 56.5418 325.833 58.4272 324.716 61.8112L331.089 63.6035Z" fill="#006738"/>
<path d="M353.531 18.0008C350.285 16.7386 347.026 15.5522 343.754 14.4667C342.178 17.8872 345.079 21.8884 350.153 23.7059C351.305 21.8 352.444 19.9067 353.531 18.0008Z" fill="#006738"/>
<path d="M316.437 7.87781C316.004 10.0488 315.593 12.2071 315.205 14.3528C320.636 15.2869 325.657 13.3936 326.783 9.79634C323.352 9.05164 319.895 8.40793 316.437 7.87781Z" fill="#006738"/>
<path d="M322.715 49.7192C323.915 50.0678 324.591 51.2771 324.225 52.4203C323.859 53.5635 322.59 54.2078 321.39 53.8592C320.164 53.5334 319.439 52.3313 319.761 51.1581C319.939 50.5856 320.356 50.1078 320.914 49.8359C321.472 49.564 322.123 49.5219 322.715 49.7192Z" fill="#006738"/>
<path d="M333.076 18.7578C334.825 19.2374 335.832 20.6006 335.368 21.7618C334.571 23.0214 332.94 23.5537 331.5 23.024C329.844 22.5696 328.85 21.2695 329.181 20.0704C329.513 18.8714 331.314 18.2781 333.076 18.7578Z" fill="#006738"/>
<path d="M348.376 10.0866C341.686 25.9271 335.261 41.9065 332.771 58.2013C324.531 57.0527 316.291 55.9041 307.985 54.7682C309.68 38.3597 308.501 22.2668 309.482 5C322.613 5.21046 335.671 6.91815 348.376 10.0866Z" fill="#8BC543" stroke="#006738" stroke-width="9.57"/>
<path d="M325.883 22.191C333.249 23.1502 337.713 28.4009 336.018 33.5507C334.087 38.8719 328.497 42.1676 322.638 41.4394C316.809 40.6442 312.04 35.8226 312.04 30.534C312.04 25.2455 318.518 21.2822 325.883 22.191Z" fill="#006738"/>
<path d="M307.985 54.768L314.608 55.6768C314.801 53.953 314.262 52.2275 313.113 50.8836C311.964 49.5397 310.299 48.6889 308.488 48.5202C308.395 50.6281 308.223 52.6854 307.985 54.768Z" fill="#006738"/>
<path d="M321.258 29.4484C320.317 29.4484 319.774 30.029 319.628 31.3164C319.483 32.6039 319.814 33.2981 320.649 33.399C321.118 33.4792 321.592 33.2856 321.854 32.9068C322.333 32.146 322.724 31.3376 323.02 30.496C323.384 29.4576 324.078 28.5531 325.007 27.9085C325.917 27.3993 326.99 27.2201 328.027 27.4036C329.248 27.4878 330.326 28.1921 330.849 29.2464C331.35 30.3045 331.453 31.4946 331.141 32.6165C330.425 35.5195 328.73 36.9837 326.027 37.0468C326.027 36.2263 326.173 35.4059 326.239 34.5855C327.629 34.629 328.803 33.611 328.888 32.2883C329.206 30.8368 328.756 30.0164 327.497 29.8523C327.02 29.7616 326.526 29.8982 326.173 30.2183C325.597 30.9392 325.15 31.7451 324.848 32.6039C324.479 33.6309 323.83 34.5459 322.967 35.2545C322.261 35.7456 321.38 35.9499 320.516 35.8224C319.529 35.7043 318.645 35.1839 318.092 34.3962C317.419 33.3927 317.151 32.191 317.337 31.0135C317.602 28.1862 318.993 26.8104 321.457 26.9492C321.404 27.7823 321.324 28.6153 321.258 29.4484Z" fill="#8BC543"/>
<path d="M317.762 29.7768L317.523 32.0993L314.874 31.8216L315.033 29.4991L317.762 29.7768Z" fill="#8BC543"/>
<path d="M333.566 31.8214C333.354 32.5787 333.142 33.3487 332.944 34.106L330.294 33.7399L330.85 31.4427L333.566 31.8214Z" fill="#8BC543"/>
<path d="M332.332 58.2016C332.677 56.1189 333.061 54.0489 333.498 51.979C329.823 51.4177 326.364 53.7936 325.762 57.2928L332.332 58.2016Z" fill="#006738"/>
<path d="M347.767 9.9477C344.363 9.12728 340.971 8.40783 337.567 7.77673C336.507 11.3866 339.925 14.946 345.29 16.0441C346.112 14.0246 346.906 11.9672 347.767 9.9477Z" fill="#006738"/>
<path d="M309.481 5C309.375 7.20883 309.295 9.39242 309.229 11.5634C314.753 11.7527 319.443 9.20309 320.012 5.46701C316.528 5.18933 313.018 5.03787 309.481 5Z" fill="#006738"/>
<path d="M322.027 45.5794C322.636 45.6454 323.192 45.9423 323.568 46.403C323.944 46.8637 324.11 47.4495 324.028 48.0281C323.845 49.2515 322.656 50.1019 321.372 49.9277C320.088 49.7534 319.195 48.6204 319.378 47.397C319.472 46.8192 319.806 46.3016 320.304 45.9599C320.802 45.6183 321.423 45.4812 322.027 45.5794Z" fill="#006738"/>
<path d="M327.604 13.4818C329.419 13.7216 330.625 14.9207 330.333 16.145C329.749 17.5101 328.211 18.2695 326.704 17.9373C324.995 17.7227 323.763 16.5741 323.948 15.3372C324.134 14.1002 325.803 13.2546 327.604 13.4818Z" fill="#006738"/>
<path opacity="0.3" d="M365.453 131.661C365.453 134.387 344.707 136.584 321.828 136.584C298.95 136.584 282.603 134.387 282.603 131.661C282.603 128.935 298.95 126.751 321.828 126.751C344.707 126.751 365.453 128.947 365.453 131.661Z" fill="#221F1F"/>
<path d="M366.074 93.6187C365.518 93.6187 364.962 93.6187 364.419 93.6187C363.061 86.1382 357.713 79.8713 350.303 77.0799C342.894 74.2885 334.493 75.3757 328.134 79.9491C322.739 70.8717 311.597 66.4034 301.013 69.0727C290.429 71.742 283.067 80.8774 283.092 91.3088C283.092 92.104 283.092 92.8992 283.225 93.6818C282.681 93.6818 282.125 93.6818 281.569 93.6818C268.491 93.9741 258.049 104.159 258.049 116.622C258.049 129.085 268.491 139.27 281.569 139.562H366.088C374.824 139.758 382.987 135.428 387.415 128.25C391.844 121.072 391.844 112.172 387.415 104.994C382.987 97.8157 374.824 93.4865 366.088 93.6818L366.074 93.6187Z" fill="#AAD0E2"/>
<path d="M293.201 139.499H366.062C373.891 139.503 381.233 135.878 385.745 129.781C390.257 123.685 391.374 115.878 388.742 108.853C372.924 138.565 319.364 135.927 293.201 139.499Z" fill="#A5C7DD"/>
<path d="M350.88 155.201V135.927C334.135 149.42 309.998 154.494 296.326 156.349C296.708 156.867 297.332 157.173 297.995 157.17H348.813C349.954 157.17 350.88 156.288 350.88 155.201Z" fill="#EAB531"/>
<path d="M308.065 61.3187L293.797 43.8374C293.797 43.8374 294.128 38.4352 303.335 38.7886C312.542 39.1421 322.372 42.8655 330.996 43.2568C338.909 43.4934 346.809 42.5088 354.391 40.3411L339.475 61.3187H308.065Z" fill="#E6E6E7"/>
<path d="M357.609 93.4548C353.026 82.7135 345.978 71.48 339.473 61.3194H308.064C301.454 71.7094 295.448 82.4374 290.073 93.4548C279.237 116.073 285.424 123.52 298.128 128.859C307.56 132.822 340.123 132.822 349.555 128.859C362.272 123.52 365.452 111.883 357.609 93.4548Z" fill="#E6E6E7"/>
<path d="M329.512 91.0184C329.313 88.8601 327.234 87.7872 323.246 87.7746C319.259 87.762 317.245 88.7717 317.232 90.8039C317.182 92.0169 317.957 93.1227 319.153 93.5428C321.67 94.4376 324.275 95.0888 326.929 95.4866C330.083 95.8827 333.053 97.131 335.487 99.0838C337.328 100.785 338.316 103.156 338.203 105.597C338.267 108.597 336.564 111.38 333.791 112.804C330.754 114.526 327.27 115.401 323.736 115.328C314.613 115.328 309.424 111.962 308.17 105.231L315.735 104.675C316.273 108.167 318.963 109.922 323.802 109.939C328.333 109.939 330.603 108.483 330.612 105.572C330.684 104.386 330.048 103.263 328.969 102.668C326.509 101.629 323.91 100.919 321.246 100.561C317.192 99.7907 314.251 98.6295 312.463 97.0643C310.725 95.6005 309.755 93.48 309.813 91.2709C309.837 88.7516 311.14 86.3995 313.31 84.9599C315.642 83.2433 319.007 82.4355 323.432 82.4355C332.201 82.4355 336.785 85.2124 337.182 90.766L329.512 91.0184Z" fill="#E2A540"/>
<rect width="6.23523" height="7.1934" transform="matrix(0.00403003 -0.999992 0.999993 0.00365839 320.12 83.1522)" fill="#E2A540"/>
<rect width="6.23523" height="7.1934" transform="matrix(0.00403003 -0.999992 0.999993 0.00365839 319.997 120.353)" fill="#E2A540"/>
<path d="M342.376 61.9882C342.281 62.6403 341.675 63.1129 340.985 63.0736H306.118C305.423 63.1198 304.809 62.6454 304.714 61.9882V61.1046C304.809 60.4474 305.423 59.973 306.118 60.0191H340.985C341.675 59.9799 342.281 60.4525 342.376 61.1046V61.9882Z" fill="#744C29"/>
<path d="M332.705 127.041C338.508 131.03 348.854 127.647 352.696 125.047C357.995 121.45 360.472 114.268 359.863 109.131C359.417 104.5 358.173 99.971 356.18 95.7261C357.353 100.575 356.822 105.657 354.67 110.191C351.57 117.12 342.601 118.887 336.653 119.518C332.533 119.973 326.93 123.09 332.705 127.041Z" fill="#D0D2D3"/>
<path d="M329.169 59.0722C329.169 59.0722 340.151 55.2856 345.583 49.9592C351.703 43.9511 339.555 59.0722 339.555 59.0722H329.169Z" fill="#D0D2D3"/>
<path d="M298.008 45.1124C298.008 45.1124 298.22 45.2638 298.552 45.5541C298.883 45.8444 299.36 46.2483 299.876 46.8163C301.171 48.0917 302.383 49.4405 303.506 50.8553C304.634 52.2609 305.67 53.7321 306.606 55.2604C306.99 55.8915 307.282 56.4342 307.48 56.8255C307.679 57.2168 307.772 57.444 307.772 57.444L307.229 57.0022C306.897 56.7245 306.421 56.308 305.904 55.74C304.601 54.4719 303.389 53.1226 302.274 51.701C301.16 50.2939 300.138 48.8228 299.214 47.296C298.843 46.6649 298.538 46.1221 298.34 45.7308C298.141 45.3396 298.008 45.1124 298.008 45.1124Z" fill="#F7F7F7"/>
<path d="M308.979 65.2318C308.979 65.2318 308.807 65.7493 308.462 66.6202C308.118 67.4911 307.615 68.7281 306.965 70.2048C305.641 73.1457 303.826 76.9954 301.825 80.7694C299.825 84.5433 297.666 88.2668 295.93 90.9805C295.069 92.3437 294.314 93.5049 293.784 94.2496C293.254 94.9943 292.91 95.5118 292.91 95.5118C292.91 95.5118 293.082 95.0069 293.427 94.136C293.771 93.2651 294.274 92.0155 294.924 90.5514C296.248 87.5978 298.063 83.7608 300.077 79.9742C302.09 76.1876 304.237 72.4894 305.972 69.7631C306.833 68.3999 307.588 67.2387 308.118 66.5066L308.979 65.2318Z" fill="#F7F7F7"/>
<path d="M307.443 121.74C305.713 127.306 300.634 131.33 294.575 131.937C288.515 132.543 282.669 129.612 279.763 124.511C276.856 119.409 277.462 113.141 281.297 108.631C285.132 104.12 291.441 102.255 297.282 103.905C305.256 106.157 309.805 114.142 307.443 121.74Z" fill="#E8AF2E"/>
<path d="M304.832 120.996C303.408 125.554 299.241 128.846 294.275 129.333C289.31 129.821 284.525 127.409 282.155 123.222C279.786 119.036 280.298 113.902 283.454 110.216C286.609 106.531 291.785 105.021 296.566 106.392C303.074 108.258 306.77 114.789 304.832 120.996Z" fill="#F9CA35"/>
<path d="M296.565 115.29C296.759 114.39 296.044 113.708 294.419 113.245C292.789 112.778 291.849 112.968 291.584 113.788C291.445 114.255 291.619 114.754 292.021 115.05C292.935 115.707 293.915 116.274 294.949 116.742C296.187 117.266 297.244 118.116 297.996 119.19C298.528 120.101 298.629 121.184 298.274 122.169C297.916 123.397 296.868 124.332 295.558 124.593C294.1 124.947 292.567 124.903 291.134 124.466C287.411 123.406 285.729 121.437 286.06 118.585L289.213 119.216C288.987 120.705 289.862 121.74 291.862 122.295C293.863 122.851 294.816 122.497 295.201 121.298C295.31 120.851 295.175 120.381 294.843 120.049C293.965 119.349 292.994 118.764 291.955 118.307C290.703 117.771 289.62 116.931 288.815 115.871C288.285 115.074 288.154 114.093 288.458 113.195C288.787 112.171 289.616 111.362 290.683 111.024C292.142 110.602 293.705 110.646 295.134 111.15C298.711 112.173 300.221 113.839 299.691 116.136L296.565 115.29Z" fill="#C38728"/>
<rect width="2.66941" height="3.05703" transform="matrix(0.302229 -0.953235 0.960988 0.276589 294.522 110.803)" fill="#C38728"/>
<rect width="2.66171" height="3.04849" transform="matrix(0.30052 -0.953776 0.961444 0.275 288.928 126.131)" fill="#C38728"/>
<path d="M281.371 114.596C281.379 113.466 281.694 112.358 282.285 111.378C283.31 110.818 284.469 110.519 285.65 110.507C284.466 110.516 283.302 110.215 282.285 109.636C281.67 108.671 281.353 107.559 281.371 106.43C281.385 107.587 281.044 108.724 280.391 109.699C279.395 110.274 278.242 110.555 277.079 110.507C278.266 110.503 279.433 110.804 280.457 111.378C281.064 112.351 281.381 113.464 281.371 114.596Z" fill="white"/>
<path d="M284.232 115.227C284.24 114.826 284.349 114.432 284.55 114.078C284.919 113.884 285.333 113.78 285.755 113.776C285.331 113.777 284.914 113.668 284.55 113.46C284.334 113.117 284.224 112.724 284.232 112.324C284.234 112.736 284.11 113.14 283.874 113.485C283.519 113.69 283.109 113.791 282.695 113.776C283.126 113.661 283.588 113.776 283.906 114.076C284.224 114.376 284.348 114.815 284.232 115.227Z" fill="white"/>
<path d="M278.642 118.295C278.65 117.741 278.805 117.198 279.093 116.717C279.599 116.433 280.174 116.28 280.762 116.275C280.175 116.28 279.598 116.131 279.093 115.846C278.793 115.369 278.637 114.824 278.642 114.268C278.648 114.839 278.483 115.4 278.165 115.884C277.669 116.162 277.098 116.298 276.523 116.275C277.118 116.134 277.748 116.3 278.182 116.714C278.616 117.127 278.791 117.727 278.642 118.295Z" fill="white"/>
<path d="M350.88 132.09H343.395V108.5C343.395 98.1897 334.623 89.8318 323.802 89.8318C312.981 89.8318 304.209 98.1897 304.209 108.5V132.09H296.724V108.5C296.724 94.2511 308.847 82.7004 323.802 82.7004C338.756 82.7004 350.88 94.2511 350.88 108.5V132.09Z" fill="#72716F"/>
<rect x="285.278" y="120.894" width="77.0741" height="49.6546" rx="2.19" fill="#F2CB30"/>
<path d="M330.189 140.016C330.193 137.155 328.101 134.679 325.165 134.074C322.23 133.468 319.25 134.897 318.012 137.504C316.773 140.111 317.613 143.187 320.028 144.889L318.001 158.609H329.685L327.659 144.889C329.261 143.735 330.198 141.93 330.189 140.016Z" fill="#72716F"/>
<path d="M317.999 158.608C317.999 158.608 327.086 155.289 327.749 145.911L329.683 158.608H317.999Z" fill="#5C5A5A"/>
<path d="M54.2021 334.912C54.2021 334.912 55.7052 344.195 60.7382 344.195C65.3103 344.041 69.8712 343.656 74.4023 343.04C74.4023 343.04 81.9859 351.924 82.4869 349.104C82.9879 346.283 80.6195 339.864 80.6195 339.864C80.6195 339.864 84.491 348.748 85.9712 344.484C87.4515 340.22 80.9155 333.201 80.9155 333.201C80.9155 333.201 92.4845 338.709 92.7805 336.4C93.0766 334.09 82.6008 328.004 82.4869 328.004H70.5536L67.3653 322.096L54.2021 334.912Z" fill="#F0BFAC"/>
<path d="M70.2793 328.527C70.2793 328.527 72.3077 313.083 73.672 314.908C75.0364 316.732 75.332 328.527 75.332 328.527L70.2793 328.527Z" fill="#F0BFAC"/>
<path d="M77.7521 187.061C77.7521 187.061 -2.37332 255.292 0.0540592 269.407C2.48143 283.523 51.5806 338.643 51.5806 338.643L67.9544 322.094L33.3974 271.239C33.3974 271.239 81.3049 235.035 82.5186 229.519C83.7323 224.002 77.7521 187.061 77.7521 187.061Z" fill="#2A2A59"/>
<line x1="33.981" y1="352.858" x2="605.878" y2="342" stroke="#C74A2E" stroke-width="2"/>
</svg>
