<svg width="203" height="147" viewBox="0 0 203 147" fill="none" xmlns="http://www.w3.org/2000/svg">
<path d="M103.469 73.8086C103.469 99.069 99.237 117.591 90.7734 129.375C82.3099 141.094 69.3542 146.953 51.9062 146.953C34.849 146.953 21.9909 140.833 13.332 128.594C4.67318 116.289 0.34375 98.0273 0.34375 73.8086C0.34375 48.418 4.57552 29.7982 13.0391 17.9492C21.5026 6.10026 34.4583 0.175781 51.9062 0.175781C68.8984 0.175781 81.724 6.36068 90.3828 18.7305C99.1068 31.0352 103.469 49.3945 103.469 73.8086ZM38.7227 73.8086C38.7227 89.9544 39.7318 101.055 41.75 107.109C43.7682 113.164 47.1536 116.191 51.9062 116.191C56.724 116.191 60.1094 113.066 62.0625 106.816C64.0807 100.566 65.0898 89.5638 65.0898 73.8086C65.0898 57.9883 64.0807 46.9206 62.0625 40.6055C60.0443 34.2253 56.6589 31.0352 51.9062 31.0352C47.1536 31.0352 43.7682 34.0951 41.75 40.2148C39.7318 46.3346 38.7227 57.5326 38.7227 73.8086Z" fill="white"/>
<path d="M202.492 145H163.332V69.4141C163.332 60.2344 163.527 51.8359 163.918 44.2188C161.509 47.1484 158.514 50.2083 154.934 53.3984L138.723 66.7773L118.703 42.168L167.727 2.22656H202.492V145Z" fill="white"/>
<path d="M103.469 73.8086C103.469 99.069 99.237 117.591 90.7734 129.375C82.3099 141.094 69.3542 146.953 51.9062 146.953C34.849 146.953 21.9909 140.833 13.332 128.594C4.67318 116.289 0.34375 98.0273 0.34375 73.8086C0.34375 48.418 4.57552 29.7982 13.0391 17.9492C21.5026 6.10026 34.4583 0.175781 51.9062 0.175781C68.8984 0.175781 81.724 6.36068 90.3828 18.7305C99.1068 31.0352 103.469 49.3945 103.469 73.8086ZM38.7227 73.8086C38.7227 89.9544 39.7318 101.055 41.75 107.109C43.7682 113.164 47.1536 116.191 51.9062 116.191C56.724 116.191 60.1094 113.066 62.0625 106.816C64.0807 100.566 65.0898 89.5638 65.0898 73.8086C65.0898 57.9883 64.0807 46.9206 62.0625 40.6055C60.0443 34.2253 56.6589 31.0352 51.9062 31.0352C47.1536 31.0352 43.7682 34.0951 41.75 40.2148C39.7318 46.3346 38.7227 57.5326 38.7227 73.8086Z" fill="url(#paint0_linear_1_34725)"/>
<path d="M202.492 145H163.332V69.4141C163.332 60.2344 163.527 51.8359 163.918 44.2188C161.509 47.1484 158.514 50.2083 154.934 53.3984L138.723 66.7773L118.703 42.168L167.727 2.22656H202.492V145Z" fill="url(#paint1_linear_1_34725)"/>
<defs>
<linearGradient id="paint0_linear_1_34725" x1="110" y1="-33.5" x2="110" y2="180.5" gradientUnits="userSpaceOnUse">
<stop stop-color="#CC7F31"/>
<stop offset="1" stop-color="white" stop-opacity="0"/>
</linearGradient>
<linearGradient id="paint1_linear_1_34725" x1="110" y1="-33.5" x2="110" y2="180.5" gradientUnits="userSpaceOnUse">
<stop stop-color="#CC7F31"/>
<stop offset="1" stop-color="white" stop-opacity="0"/>
</linearGradient>
</defs>
</svg>
