<svg width="220" height="147" viewBox="0 0 220 147" fill="none" xmlns="http://www.w3.org/2000/svg">
<path d="M103.125 73.6328C103.125 98.8932 98.8932 117.415 90.4297 129.199C81.9661 140.918 69.0104 146.777 51.5625 146.777C34.5052 146.777 21.6471 140.658 12.9883 128.418C4.32943 116.113 0 97.8516 0 73.6328C0 48.2422 4.23177 29.6224 12.6953 17.7734C21.1589 5.92448 34.1146 0 51.5625 0C68.5547 0 81.3802 6.1849 90.0391 18.5547C98.763 30.8594 103.125 49.2188 103.125 73.6328ZM38.3789 73.6328C38.3789 89.7786 39.388 100.879 41.4062 106.934C43.4245 112.988 46.8099 116.016 51.5625 116.016C56.3802 116.016 59.7656 112.891 61.7188 106.641C63.737 100.391 64.7461 89.388 64.7461 73.6328C64.7461 57.8125 63.737 46.7448 61.7188 40.4297C59.7005 34.0495 56.3151 30.8594 51.5625 30.8594C46.8099 30.8594 43.4245 33.9193 41.4062 40.0391C39.388 46.1589 38.3789 57.3568 38.3789 73.6328Z" fill="url(#paint0_linear_1_34733)"/>
<path d="M219.727 144.824H116.113V119.434L150.977 84.1797C160.938 73.763 167.448 66.6667 170.508 62.8906C173.568 59.0495 175.684 55.7617 176.855 53.0273C178.092 50.293 178.711 47.4284 178.711 44.4336C178.711 40.7227 177.507 37.793 175.098 35.6445C172.689 33.4961 169.303 32.4219 164.941 32.4219C160.449 32.4219 155.892 33.724 151.27 36.3281C146.712 38.8672 141.536 42.6432 135.742 47.6562L114.551 22.8516C121.908 16.276 128.092 11.5885 133.105 8.78906C138.118 5.92448 143.555 3.74349 149.414 2.24609C155.339 0.748698 161.979 0 169.336 0C178.581 0 186.816 1.6276 194.043 4.88281C201.335 8.13802 206.966 12.793 210.938 18.8477C214.974 24.8372 216.992 31.5755 216.992 39.0625C216.992 44.6615 216.276 49.8372 214.844 54.5898C213.477 59.3424 211.328 64.0299 208.398 68.6523C205.469 73.2096 201.562 78.0273 196.68 83.1055C191.862 88.1836 181.543 97.819 165.723 112.012V112.988H219.727V144.824Z" fill="url(#paint1_linear_1_34733)"/>
<defs>
<linearGradient id="paint0_linear_1_34733" x1="109.656" y1="-33.6758" x2="109.656" y2="180.324" gradientUnits="userSpaceOnUse">
<stop stop-color="#CC7F31"/>
<stop offset="1" stop-color="white" stop-opacity="0"/>
</linearGradient>
<linearGradient id="paint1_linear_1_34733" x1="109.656" y1="-33.6758" x2="109.656" y2="180.324" gradientUnits="userSpaceOnUse">
<stop stop-color="#CC7F31"/>
<stop offset="1" stop-color="white" stop-opacity="0"/>
</linearGradient>
</defs>
</svg>
