<svg width="174" height="174" viewBox="0 0 174 174" fill="none" xmlns="http://www.w3.org/2000/svg">
<path d="M90.0001 6.16675C90.0001 4.50989 88.6569 3.16675 87.0001 3.16675C85.3432 3.16675 84.0001 4.50989 84.0001 6.16675V22.3334C84.0001 23.9903 85.3432 25.3334 87.0001 25.3334C88.6569 25.3334 90.0001 23.9903 90.0001 22.3334V6.16675ZM130.015 18.4984C130.843 17.0636 130.352 15.2288 128.917 14.4004C127.482 13.5719 125.647 14.0635 124.819 15.4984L116.735 29.4987C115.907 30.9336 116.399 32.7684 117.833 33.5968C119.268 34.4252 121.103 33.9336 121.931 32.4988L130.015 18.4984ZM158.502 49.1815C159.937 48.353 160.428 46.5182 159.6 45.0834C158.771 43.6485 156.937 43.1569 155.502 43.9854L141.501 52.0687C140.066 52.8971 139.575 54.7319 140.403 56.1668C141.232 57.6017 143.067 58.0933 144.501 57.2648L158.502 49.1815ZM167.833 90.0001C169.49 90.0001 170.833 88.6569 170.833 87.0001C170.833 85.3432 169.49 84.0001 167.833 84.0001H151.667C150.01 84.0001 148.667 85.3432 148.667 87.0001C148.667 88.6569 150.01 90.0001 151.667 90.0001H167.833ZM155.502 130.015C156.937 130.843 158.771 130.352 159.6 128.917C160.428 127.482 159.937 125.647 158.502 124.819L144.501 116.735C143.067 115.907 141.232 116.399 140.403 117.833C139.575 119.268 140.066 121.103 141.501 121.931L155.502 130.015ZM124.819 158.502C125.647 159.937 127.482 160.428 128.917 159.6C130.352 158.771 130.843 156.937 130.015 155.502L121.931 141.501C121.103 140.066 119.268 139.575 117.833 140.403C116.399 141.232 115.907 143.067 116.735 144.501L124.819 158.502ZM84.0001 167.833C84.0001 169.49 85.3432 170.833 87.0001 170.833C88.6569 170.833 90.0001 169.49 90.0001 167.833V151.667C90.0001 150.01 88.6569 148.667 87.0001 148.667C85.3432 148.667 84.0001 150.01 84.0001 151.667V167.833ZM43.9854 155.502C43.1569 156.937 43.6485 158.771 45.0834 159.6C46.5182 160.428 48.353 159.937 49.1815 158.502L57.2648 144.501C58.0933 143.067 57.6017 141.232 56.1668 140.403C54.7319 139.575 52.8971 140.066 52.0687 141.501L43.9854 155.502ZM15.4984 124.819C14.0635 125.647 13.5719 127.482 14.4004 128.917C15.2288 130.352 17.0636 130.843 18.4984 130.015L32.4988 121.931C33.9336 121.103 34.4252 119.268 33.5968 117.833C32.7684 116.399 30.9336 115.907 29.4987 116.735L15.4984 124.819ZM6.16675 84.0001C4.50989 84.0001 3.16675 85.3432 3.16675 87.0001C3.16675 88.6569 4.50989 90.0001 6.16675 90.0001H22.3334C23.9903 90.0001 25.3334 88.6569 25.3334 87.0001C25.3334 85.3432 23.9903 84.0001 22.3334 84.0001H6.16675ZM18.4984 43.9854C17.0636 43.1569 15.2288 43.6485 14.4004 45.0834C13.5719 46.5182 14.0635 48.353 15.4984 49.1815L29.4987 57.2648C30.9336 58.0933 32.7684 57.6017 33.5968 56.1668C34.4252 54.7319 33.9336 52.8971 32.4988 52.0687L18.4984 43.9854ZM49.1815 15.4984C48.353 14.0635 46.5182 13.5719 45.0834 14.4004C43.6485 15.2288 43.1569 17.0636 43.9854 18.4984L52.0687 32.4988C52.8971 33.9336 54.7319 34.4252 56.1668 33.5968C57.6017 32.7684 58.0933 30.9336 57.2648 29.4987L49.1815 15.4984Z" stroke="url(#paint0_linear_1422_30002)" stroke-width="6" stroke-linecap="round" stroke-linejoin="round"/>
<defs>
<linearGradient id="paint0_linear_1422_30002" x1="87.0001" y1="6.16675" x2="87.0001" y2="167.833" gradientUnits="userSpaceOnUse">
<stop stop-color="#E58E13"/>
<stop offset="1" stop-color="#C74A2E"/>
</linearGradient>
</defs>
</svg>
