<svg width="36" height="42" viewBox="0 0 36 42" fill="none" xmlns="http://www.w3.org/2000/svg">
<path fill-rule="evenodd" clip-rule="evenodd" d="M35.8746 0.659172C35.9424 0.762192 36.0209 0.881702 35.9949 1.13962C35.7691 1.2968 35.4939 1.31797 35.2108 1.33974C34.8053 1.37094 34.3836 1.40338 34.0682 1.83902C33.6569 2.39501 33.1931 3.50448 33.4167 4.18627C33.8087 5.22819 33.6503 6.22036 33.4911 7.21805C33.3946 7.82235 33.2979 8.42868 33.3229 9.04932C33.3083 9.95588 32.9132 10.8229 32.2187 11.472C32.0156 11.6484 31.6664 11.8172 31.3141 11.9874C30.8573 12.2082 30.3954 12.4314 30.2395 12.6771C29.9916 13.0476 29.62 13.3486 29.2512 13.6472C29.0165 13.8373 28.783 14.0264 28.5833 14.2319C28.4106 14.4022 28.329 14.6637 28.2517 14.9118C28.2079 15.0522 28.1654 15.1883 28.1085 15.3011C27.8087 15.8003 27.425 16.2536 26.9713 16.6445C27.2142 16.8512 27.4969 17.0078 27.774 17.1612C28.3909 17.5029 28.9797 17.8291 29.0388 18.6572C29.0769 19.1677 29.408 19.475 29.6995 19.7457C30.1465 20.1607 30.5005 20.4894 29.5633 21.3315C29.1658 21.7389 28.6601 22.0465 28.0947 22.2246C27.8312 22.286 27.6306 22.4089 27.4386 22.5266C27.2684 22.6308 27.105 22.731 26.9105 22.7806C26.6035 22.8571 26.3651 22.8696 26.1817 22.8792C25.7435 22.9022 25.6187 22.9087 25.6187 23.7316C25.5547 24.4849 25.5418 25.2411 25.5801 25.9958C25.7607 27.3039 26.09 28.5914 26.5627 29.8374C26.6521 30.0438 26.7181 30.2641 26.7841 30.4844C26.867 30.7608 26.9499 31.0373 27.0789 31.2866C27.2068 31.5504 27.3836 31.8087 27.5619 32.0693C27.8648 32.5119 28.1722 32.9611 28.2521 33.4552C28.3224 33.9037 28.0961 34.2738 27.869 34.6451C27.7394 34.8569 27.6096 35.0692 27.5344 35.2967C27.3053 35.9049 27.1869 36.5431 27.1838 37.1861C27.2225 37.9031 27.2501 38.4843 26.3944 38.7711C25.9052 38.6527 25.5853 38.2521 25.2828 37.8732C25.1483 37.7048 25.0172 37.5407 24.8762 37.4075C24.5863 38.8063 21.6797 37.5736 21.2132 36.7635C20.9829 36.3247 21.1481 35.9141 21.3186 35.4903C21.4404 35.1877 21.5649 34.8783 21.5499 34.547C21.4947 33.2464 21.3263 32.2048 20.4458 31.1306C19.8643 30.4227 19.6343 30.7538 19.313 31.2163C19.1752 31.4147 19.0207 31.6372 18.8144 31.8124C18.1967 32.4146 17.469 32.7757 16.7202 33.1472C16.415 33.2986 16.1063 33.4518 15.8001 33.6237C15.0576 33.9506 14.4737 34.516 14.1604 35.2112C14.0654 35.481 14.0917 35.7388 14.1183 35.999C14.1388 36.1998 14.1594 36.4021 14.1246 36.6125C14.0402 36.9586 13.9287 37.299 13.8172 37.6394C13.6953 38.0115 13.5734 38.3838 13.4869 38.7635C13.2661 39.7522 13.255 39.9988 13.7326 40.9095C14.2856 41.9488 13.3701 41.9541 12.4474 41.9594C12.3293 41.9601 12.211 41.9608 12.0957 41.9636C11.9859 41.9665 11.8707 41.9699 11.7511 41.9734C10.5185 42.0094 8.82135 42.059 7.73433 41.7448C6.83381 41.5315 6.13423 40.8852 5.91249 40.0617C5.81607 39.5588 6.2302 39.0896 6.62361 38.6439C6.83837 38.4006 7.04694 38.1643 7.16293 37.9333C7.50294 37.3197 7.4801 36.5911 7.10221 35.9961C6.82576 35.5002 6.66632 34.977 6.51193 34.4704C6.17918 33.3784 5.86991 32.3635 4.4633 31.8652C3.93464 31.6779 3.42285 31.8047 2.90756 31.9324C2.46771 32.0414 2.02531 32.151 1.56769 32.0665C0.695923 31.8639 0.0801347 31.1554 0.0632902 30.3356C0.0609953 30.3064 0.0583112 30.2737 0.0553677 30.2378C0.00874292 29.6689 -0.102941 28.3061 0.237193 27.9607C1.00181 27.1782 1.20332 29.2035 1.17571 29.5255C1.0377 30.401 1.0791 31.7067 2.45928 31.0702C3.2889 30.6485 3.60367 29.9093 3.92915 29.145C3.94155 29.1159 3.95397 29.0867 3.96644 29.0575C4.08188 28.7869 4.19316 28.5198 4.30296 28.2563C5.07794 26.3965 5.77941 24.7131 7.3534 23.1706C8.52534 21.8656 10.2923 21.407 12.0295 20.9561C12.3586 20.8707 12.6866 20.7856 13.0094 20.695C14.1269 20.4227 15.1972 20.0095 16.1893 19.4673C17.0928 18.9426 17.0295 18.7629 16.8716 18.3148C16.7956 18.0989 16.6976 17.8208 16.6751 17.4119C16.6607 17.1525 16.8579 16.7445 17.0568 16.3332C17.1992 16.0385 17.3426 15.742 17.4094 15.4973C17.622 14.7063 18.59 14.5338 19.3943 14.3905C19.6029 14.3534 19.8005 14.3182 19.971 14.2747C20.2957 13.9687 20.5376 13.5577 20.7779 13.1495C20.9584 12.8428 21.138 12.5376 21.3512 12.2796C22.0496 11.4041 23.4187 10.7877 24.5504 10.4984C25.2474 10.3206 25.9999 10.2267 26.7516 10.1328C28.7865 9.87867 30.8163 9.6252 31.7274 7.71091C32.0995 6.93143 32.0947 5.89373 32.0899 4.83948C32.0804 2.77352 32.0707 0.643951 34.8963 0.269154C35.0691 0.251986 35.2019 0.184956 35.3265 0.122089C35.5123 0.0283428 35.6797 -0.0561458 35.9342 0.0477629C35.7135 0.414105 35.7844 0.522027 35.8746 0.659172ZM24.2111 34.229C24.0564 34.8091 24.0687 35.4157 24.247 35.9901C26.1627 35.1045 25.9529 33.0617 24.3105 32.0201C24.3313 32.233 24.3588 32.4157 24.3837 32.5821C24.4676 33.1412 24.5238 33.5155 24.2111 34.229Z" fill="#CC7F31"/>
</svg>
