<svg width="40" height="40" viewBox="0 0 40 40" fill="none" xmlns="http://www.w3.org/2000/svg">
<path d="M19.9659 1.94071C11.1714 1.76122 2.96492 8.99044 2.05012 17.7453C1.08338 25.1495 5.14836 32.9593 11.9299 36.1861C18.3336 39.4039 26.6372 38.4349 31.9481 33.5515C37.3112 28.8478 39.5519 20.844 37.0707 14.1029C34.7895 7.45846 28.4091 2.39802 21.352 1.99325C20.8909 1.95923 20.4284 1.94032 19.9659 1.94032L19.9659 1.94071ZM19.7612 3.88919C27.8255 3.58552 35.4047 10.31 36.0367 18.3624C36.8128 25.4641 32.3445 32.8213 25.5447 35.1617C18.9347 37.6059 10.8209 35.2298 6.82875 29.3505C2.73133 23.6111 2.89406 15.1392 7.5432 9.75464C10.5188 6.17046 15.0845 3.90659 19.7612 3.88921V3.88919ZM20.0814 5.64548C12.6214 5.40813 5.75815 11.9577 5.62338 19.418C5.29453 26.1596 10.291 32.7754 16.9656 34.0595C23.15 35.4132 30.0602 32.2361 32.8194 26.4836C35.6731 20.8655 34.3968 13.3891 29.5279 9.28524C26.948 7.00003 23.5356 5.64927 20.0814 5.64548ZM19.9936 7.56052C26.5699 7.38665 32.5594 13.3048 32.4539 19.8876C32.5702 25.973 27.6723 31.7567 21.5621 32.3702C15.8255 33.1235 9.77707 29.445 8.12778 23.8329C6.39899 18.486 8.67031 12.0459 13.6525 9.2928C15.5627 8.16749 17.7755 7.55692 19.9936 7.56052ZM11.8043 13.7491V26.251H28.1959V13.7491H11.8043ZM15.4456 15.7023H24.5533C22.9401 16.6951 21.3267 18.8742 19.7137 19.1121C18.291 17.9754 16.8683 16.839 15.4456 15.7023V15.7023ZM26.2451 16.8522V24.2976H13.755V16.8528C15.8361 18.5159 17.9171 20.179 19.9982 21.842C22.0806 20.1788 24.1628 18.5155 26.2451 16.8522H26.2451Z" fill="black"/>
</svg>
