<svg width="40" height="40" viewBox="0 0 40 40" fill="none" xmlns="http://www.w3.org/2000/svg">
<path d="M10 8.99994C10 8.20429 10.3161 7.44123 10.8787 6.87862C11.4413 6.31601 12.2044 5.99994 13 5.99994H27C27.7956 5.99994 28.5587 6.31601 29.1213 6.87862C29.6839 7.44123 30 8.20429 30 8.99994V9.99994H31C32.3261 9.99994 33.5979 10.5267 34.5355 11.4644C35.4732 12.4021 36 13.6739 36 14.9999V24.9999C36 25.7956 35.6839 26.5587 35.1213 27.1213C34.5587 27.6839 33.7956 27.9999 33 27.9999H30V30.9999C30 31.7956 29.6839 32.5586 29.1213 33.1213C28.5587 33.6839 27.7956 33.9999 27 33.9999H13C12.2044 33.9999 11.4413 33.6839 10.8787 33.1213C10.3161 32.5586 10 31.7956 10 30.9999V27.9999H7C6.20435 27.9999 5.44129 27.6839 4.87868 27.1213C4.31607 26.5587 4 25.7956 4 24.9999V14.9999C4 13.6739 4.52678 12.4021 5.46447 11.4644C6.40215 10.5267 7.67392 9.99994 9 9.99994H10V8.99994ZM12 9.99994H28V8.99994C28 8.73472 27.8946 8.48037 27.7071 8.29283C27.5196 8.1053 27.2652 7.99994 27 7.99994H13C12.7348 7.99994 12.4804 8.1053 12.2929 8.29283C12.1054 8.48037 12 8.73472 12 8.99994V9.99994ZM10 25.9999V22.9999C10 22.2043 10.3161 21.4412 10.8787 20.8786C11.4413 20.316 12.2044 19.9999 13 19.9999H27C27.7956 19.9999 28.5587 20.316 29.1213 20.8786C29.6839 21.4412 30 22.2043 30 22.9999V25.9999H33C33.2652 25.9999 33.5196 25.8946 33.7071 25.707C33.8946 25.5195 34 25.2652 34 24.9999V14.9999C34 14.2043 33.6839 13.4412 33.1213 12.8786C32.5587 12.316 31.7956 11.9999 31 11.9999H9C8.20435 11.9999 7.44129 12.316 6.87868 12.8786C6.31607 13.4412 6 14.2043 6 14.9999V24.9999C6 25.2652 6.10536 25.5195 6.29289 25.707C6.48043 25.8946 6.73478 25.9999 7 25.9999H10ZM13 21.9999C12.7348 21.9999 12.4804 22.1053 12.2929 22.2928C12.1054 22.4804 12 22.7347 12 22.9999V30.9999C12 31.2652 12.1054 31.5195 12.2929 31.707C12.4804 31.8946 12.7348 31.9999 13 31.9999H27C27.2652 31.9999 27.5196 31.8946 27.7071 31.707C27.8946 31.5195 28 31.2652 28 30.9999V22.9999C28 22.7347 27.8946 22.4804 27.7071 22.2928C27.5196 22.1053 27.2652 21.9999 27 21.9999H13Z" fill="black"/>
</svg>
