<svg width="40" height="40" viewBox="0 0 40 40" fill="none" xmlns="http://www.w3.org/2000/svg">
<path d="M2.5 11.875C2.5 9.46 4.46 7.5 6.875 7.5H33.125C35.54 7.5 37.5 9.46 37.5 11.875V17.3425C37.049 17.0226 36.5515 16.7738 36.025 16.605L35 16.28V11.875C35 11.3777 34.8025 10.9008 34.4508 10.5492C34.0992 10.1975 33.6223 10 33.125 10H6.875C6.37772 10 5.90081 10.1975 5.54917 10.5492C5.19754 10.9008 5 11.3777 5 11.875V28.125C5 29.16 5.84 30 6.875 30H12.5V27.5C12.5 26.837 12.7634 26.2011 13.2322 25.7322C13.7011 25.2634 14.337 25 15 25H25C25.663 25 26.2989 25.2634 26.7678 25.7322C27.2366 26.2011 27.5 26.837 27.5 27.5V28.0125C26.7566 27.9994 26.0217 28.1725 25.3623 28.5162C24.7029 28.8598 24.1401 29.3631 23.725 29.98L22.5225 31.745L22.3425 32.045L22.31 32.1C22.2403 32.2302 22.1769 32.3637 22.12 32.5H6.875C5.71468 32.5 4.60188 32.0391 3.78141 31.2186C2.96094 30.3981 2.5 29.2853 2.5 28.125V11.875Z" fill="#C74A2E"/>
<path d="M37.3003 21.2619C37.4303 21.8369 37.4978 22.4419 37.5003 23.0744V23.1444C37.4928 25.3294 36.7128 27.8469 35.1603 30.6944C34.8353 31.2944 34.5053 31.8544 34.1678 32.3744C32.4253 35.0769 30.5478 36.7419 28.5328 37.3719C28.074 37.5137 27.5868 37.5372 27.1165 37.4401C26.6462 37.3431 26.208 37.1287 25.8428 36.8169L25.6428 36.6344L24.8703 35.8594C24.5445 35.5241 24.334 35.0937 24.2692 34.6307C24.2045 34.1677 24.289 33.6961 24.5103 33.2844L24.6253 33.0994L25.7928 31.3844C25.9854 31.097 26.2506 30.8656 26.5614 30.7137C26.8723 30.5618 27.2177 30.4947 27.5628 30.5194C27.6378 30.5244 27.7153 30.5369 27.7928 30.5519L27.9978 30.6094L30.1503 31.3269C31.0103 30.6769 31.7253 29.8569 32.3003 28.8719C32.7928 28.0269 33.1128 27.1694 33.2653 26.2994L33.3278 25.8644L31.5353 24.1644C31.2452 23.8827 31.0387 23.5261 30.939 23.1342C30.8393 22.7423 30.8501 22.3305 30.9703 21.9444L31.0453 21.7319L31.8603 19.8144C32.0281 19.3895 32.339 19.0366 32.7393 18.8166C33.1396 18.5965 33.6042 18.5233 34.0528 18.6094L34.2453 18.6594L35.2628 18.9844C36.2753 19.3094 37.0478 20.1744 37.2978 21.2594L37.3003 21.2619Z" fill="#C74A2E"/>
<path d="M25 17.5C25 18.8261 24.4732 20.0979 23.5355 21.0355C22.5979 21.9732 21.3261 22.5 20 22.5C18.6739 22.5 17.4021 21.9732 16.4645 21.0355C15.5268 20.0979 15 18.8261 15 17.5C15 16.1739 15.5268 14.9021 16.4645 13.9645C17.4021 13.0268 18.6739 12.5 20 12.5C21.3261 12.5 22.5979 13.0268 23.5355 13.9645C24.4732 14.9021 25 16.1739 25 17.5V17.5Z" fill="#C74A2E"/>
</svg>
