<svg width="58" height="58" viewBox="0 0 58 58" fill="none" xmlns="http://www.w3.org/2000/svg">
<circle cx="29" cy="29" r="23.5" fill="white" stroke="#34C85A"/>
<circle cx="29" cy="29" r="28.5" stroke="white"/>
<path d="M41.6665 27.4148H44.8332C44.8332 19.2923 38.701 13.1664 30.5674 13.1664V16.333C36.9989 16.333 41.6665 20.9928 41.6665 27.4148Z" fill="#34C85A"/>
<path d="M30.5833 22.6664C33.913 22.6664 35.3333 24.0866 35.3333 27.4164H38.5C38.5 22.3101 35.6895 19.4997 30.5833 19.4997V22.6664ZM36.0015 31.2844C35.6972 31.0079 35.2974 30.8604 34.8865 30.8731C34.4755 30.8858 34.0856 31.0577 33.799 31.3525L30.0101 35.2491C29.0981 35.0749 27.2646 34.5034 25.3773 32.6208C23.49 30.7319 22.9184 28.8936 22.749 27.9879L26.6424 24.1974C26.9375 23.9111 27.1097 23.5211 27.1224 23.11C27.1351 22.699 26.9874 22.2991 26.7105 21.995L20.86 15.5619C20.583 15.2569 20.198 15.0719 19.7868 15.0462C19.3756 15.0205 18.9705 15.1561 18.6576 15.4242L15.2218 18.3708C14.9481 18.6455 14.7847 19.0111 14.7626 19.3984C14.7389 19.7942 14.286 29.1707 21.5567 36.4445C27.8995 42.7858 35.8447 43.2497 38.0329 43.2497C38.3527 43.2497 38.549 43.2402 38.6013 43.237C38.9884 43.2153 39.3539 43.0512 39.6273 42.7763L42.5723 39.3389C42.8406 39.0262 42.9765 38.6212 42.9511 38.21C42.9256 37.7988 42.7409 37.4137 42.4361 37.1364L36.0015 31.2844V31.2844Z" fill="#34C85A"/>
</svg>
