<svg width="20" height="20" viewBox="0 0 20 20" fill="none" xmlns="http://www.w3.org/2000/svg">
<path fill-rule="evenodd" clip-rule="evenodd" d="M2.66669 9.99996C2.66669 5.94987 5.94993 2.66663 10 2.66663C14.0501 2.66663 17.3334 5.94987 17.3334 9.99996C17.3334 14.05 14.0501 17.3333 10 17.3333C5.94993 17.3333 2.66669 14.05 2.66669 9.99996ZM10 0.666626C4.84536 0.666626 0.666687 4.8453 0.666687 9.99996C0.666687 15.1546 4.84536 19.3333 10 19.3333C15.1547 19.3333 19.3334 15.1546 19.3334 9.99996C19.3334 4.8453 15.1547 0.666626 10 0.666626ZM11 5C11 4.44772 10.5523 4 10 4C9.44771 4 9 4.44772 9 5V10.1433V10.1435C9.00015 10.8507 9.28116 11.5288 9.78123 12.0288L9.78133 12.0289L11.7929 14.0404C12.1834 14.431 12.8166 14.431 13.2071 14.0404C13.5976 13.6499 13.5976 13.0168 13.2071 12.6262L11.1954 10.6146L11.1953 10.6145C11.0704 10.4895 11.0001 10.3201 11 10.1433V10.1431V5Z" fill="black"/>
</svg>
