<svg width="34" height="34" viewBox="0 0 34 34" fill="none" xmlns="http://www.w3.org/2000/svg">
<path d="M7.84615 31.1667H26.1538V25.5H7.84615V31.1667ZM7.84615 17H26.1538V8.5H22.8846C22.3397 8.5 21.8766 8.2934 21.4952 7.88021C21.1138 7.46701 20.9231 6.96528 20.9231 6.375V2.83333H7.84615V17ZM31.3846 18.4167C31.3846 18.033 31.2552 17.701 30.9964 17.4206C30.7376 17.1402 30.4311 17 30.0769 17C29.7228 17 29.4163 17.1402 29.1575 17.4206C28.8986 17.701 28.7692 18.033 28.7692 18.4167C28.7692 18.8003 28.8986 19.1324 29.1575 19.4128C29.4163 19.6931 29.7228 19.8333 30.0769 19.8333C30.4311 19.8333 30.7376 19.6931 30.9964 19.4128C31.2552 19.1324 31.3846 18.8003 31.3846 18.4167ZM34 18.4167V27.625C34 27.8168 33.9353 27.9829 33.8059 28.123C33.6765 28.2632 33.5232 28.3333 33.3462 28.3333H28.7692V31.875C28.7692 32.4653 28.5785 32.967 28.1971 33.3802C27.8157 33.7934 27.3526 34 26.8077 34H7.19231C6.64744 34 6.18429 33.7934 5.80288 33.3802C5.42147 32.967 5.23077 32.4653 5.23077 31.875V28.3333H0.653846C0.476763 28.3333 0.323518 28.2632 0.194111 28.123C0.0647035 27.9829 0 27.8168 0 27.625V18.4167C0 17.2509 0.384816 16.2511 1.15445 15.4173C1.92408 14.5835 2.84696 14.1667 3.92308 14.1667H5.23077V2.125C5.23077 1.53472 5.42147 1.03299 5.80288 0.619792C6.18429 0.206597 6.64744 0 7.19231 0H20.9231C21.4679 0 22.0673 0.147569 22.7212 0.442708C23.375 0.737847 23.8926 1.09201 24.274 1.50521L27.3798 4.86979C27.7612 5.28299 28.0881 5.84375 28.3606 6.55208C28.633 7.26042 28.7692 7.90972 28.7692 8.5V14.1667H30.0769C31.153 14.1667 32.0759 14.5835 32.8456 15.4173C33.6152 16.2511 34 17.2509 34 18.4167Z" fill="#C74A2E"/>
</svg>
