<svg width="40" height="52" viewBox="0 0 40 52" fill="none" xmlns="http://www.w3.org/2000/svg">
<path fill-rule="evenodd" clip-rule="evenodd" d="M39.8607 0.816117C39.936 0.943666 40.0233 1.09163 39.9943 1.41096C39.7435 1.60556 39.4377 1.63177 39.1232 1.65873C38.6725 1.69736 38.204 1.73752 37.8535 2.27688C37.3965 2.96525 36.8812 4.33888 37.1297 5.183C37.5652 6.473 37.3892 7.7014 37.2123 8.93664C37.1052 9.68482 36.9976 10.4355 37.0254 11.2039C37.0092 12.3263 36.5702 13.3998 35.7986 14.2035C35.5729 14.4219 35.1849 14.6308 34.7934 14.8416C34.2859 15.1149 33.7726 15.3913 33.5995 15.6955C33.324 16.1542 32.9111 16.5268 32.5014 16.8965C32.2406 17.1319 31.9811 17.366 31.7592 17.6204C31.5673 17.8312 31.4767 18.1551 31.3907 18.4622C31.3421 18.6361 31.2949 18.8046 31.2317 18.9442C30.8986 19.5623 30.4722 20.1235 29.9681 20.6075C30.238 20.8633 30.5522 21.0572 30.86 21.2472C31.5455 21.6703 32.1997 22.0741 32.2653 23.0994C32.3077 23.7314 32.6755 24.112 32.9995 24.4471C33.4961 24.9609 33.8895 25.3679 32.8481 26.4104C32.4064 26.9149 31.8446 27.2956 31.2164 27.5162C30.9236 27.5922 30.7007 27.7444 30.4873 27.8901C30.2983 28.0191 30.1167 28.1431 29.9006 28.2046C29.5594 28.2992 29.2946 28.3147 29.0908 28.3266C28.6039 28.3551 28.4652 28.3632 28.4652 29.382C28.3941 30.3146 28.3798 31.2508 28.4223 32.1853C28.6229 33.8049 28.9889 35.3989 29.5142 36.9416C29.6134 37.1971 29.6868 37.4698 29.7602 37.7426C29.8522 38.0849 29.9443 38.4272 30.0877 38.7357C30.2298 39.0624 30.4262 39.3822 30.6243 39.7048C30.9608 40.2528 31.3024 40.809 31.3912 41.4207C31.4693 41.9761 31.2179 42.4342 30.9655 42.894C30.8216 43.1562 30.6773 43.419 30.5938 43.7007C30.3393 44.4537 30.2077 45.2439 30.2042 46.04C30.2472 46.9277 30.2779 47.6472 29.3271 48.0023C28.7835 47.8557 28.4281 47.3598 28.092 46.8907C27.9425 46.6822 27.7969 46.4789 27.6402 46.3141C27.3181 48.0459 24.0885 46.5196 23.5702 45.5167C23.3143 44.9734 23.4979 44.4651 23.6873 43.9404C23.8227 43.5657 23.961 43.1826 23.9444 42.7725C23.883 41.1622 23.6959 39.8726 22.7175 38.5426C22.0714 37.6662 21.8159 38.0761 21.4589 38.6488C21.3058 38.8944 21.1341 39.1699 20.9049 39.3867C20.2186 40.1324 19.41 40.5795 18.578 41.0394C18.2389 41.2269 17.8959 41.4165 17.5557 41.6294C16.7306 42.0341 16.0818 42.7341 15.7338 43.5948C15.6282 43.9289 15.6575 44.248 15.687 44.5702C15.7098 44.8188 15.7327 45.0693 15.694 45.3298C15.6002 45.7583 15.4763 46.1797 15.3525 46.6011C15.217 47.0619 15.0816 47.5228 14.9855 47.993C14.7401 49.2171 14.7278 49.5223 15.2584 50.6499C15.8729 51.9366 14.8556 51.9432 13.8305 51.9498C13.6992 51.9506 13.5678 51.9514 13.4397 51.955C13.3176 51.9586 13.1896 51.9627 13.0567 51.9671C11.6872 52.0116 9.80149 52.073 8.5937 51.684C7.59312 51.42 6.81581 50.6198 6.56943 49.6002C6.4623 48.9776 6.92244 48.3967 7.35957 47.8448C7.59818 47.5436 7.82994 47.251 7.95882 46.9651C8.3366 46.2053 8.31122 45.3032 7.89134 44.5667C7.58418 43.9526 7.40702 43.3049 7.23548 42.6776C6.86575 41.3257 6.52213 40.0692 4.95923 39.4521C4.37182 39.2202 3.80317 39.3773 3.23062 39.5354C2.7419 39.6703 2.25034 39.806 1.74187 39.7013C0.773248 39.4505 0.0890386 38.5733 0.0703224 37.5583C0.0677726 37.5223 0.0647902 37.4817 0.0615196 37.4372C0.00971429 36.7329 -0.114379 35.0457 0.263548 34.618C1.11312 33.6492 1.33702 36.1567 1.30635 36.5554C1.153 37.6393 1.199 39.2559 2.73254 38.4679C3.65433 37.9458 4.00408 37.0306 4.36572 36.0843C4.37951 36.0482 4.3933 36.0121 4.40715 35.976C4.53542 35.6409 4.65906 35.3102 4.78106 34.984C5.64215 32.6814 6.42157 30.5971 8.17044 28.6874C9.4726 27.0716 11.4359 26.5039 13.3661 25.9457C13.7318 25.8399 14.0963 25.7345 14.4549 25.6224C15.6966 25.2853 16.8858 24.7736 17.9881 24.1024C18.992 23.4528 18.9217 23.2303 18.7462 22.6755C18.6617 22.4082 18.5529 22.0639 18.5279 21.5576C18.5118 21.2364 18.731 20.7313 18.9519 20.222C19.1103 19.8572 19.2695 19.4901 19.3438 19.1872C19.58 18.2077 20.6555 17.9942 21.5492 17.8169C21.781 17.7709 22.0005 17.7273 22.19 17.6734C22.5508 17.2946 22.8195 16.7858 23.0865 16.2803C23.2871 15.9006 23.4867 15.5227 23.7235 15.2033C24.4995 14.1194 26.0208 13.3563 27.2783 12.9981C28.0527 12.7779 28.8887 12.6616 29.724 12.5453C31.985 12.2307 34.2403 11.9169 35.2526 9.54685C35.6661 8.58177 35.6608 7.297 35.6555 5.99173C35.6449 3.43388 35.6341 0.797273 38.7736 0.333238C38.9657 0.311983 39.1133 0.228993 39.2517 0.151157C39.4581 0.0350909 39.6441 -0.0695137 39.9268 0.0591351C39.6816 0.512702 39.7605 0.646319 39.8607 0.816117ZM26.901 42.3787C26.7291 43.0969 26.7428 43.8479 26.9409 44.5591C29.0694 43.4627 28.8363 40.9335 27.0114 39.6439C27.0346 39.9075 27.0651 40.1337 27.0928 40.3397C27.1861 41.0319 27.2485 41.4953 26.901 42.3787Z" fill="#CC7F31"/>
</svg>
