<svg width="59" height="59" viewBox="0 0 59 59" fill="none" xmlns="http://www.w3.org/2000/svg">
<g clip-path="url(#clip0_99_26568)">
<path d="M39.4918 42.2156C39.7843 41.9862 39.9286 41.6408 39.9183 41.2955L39.9298 41.2939L39.2917 36.8173L43.7549 36.1812L43.7539 36.1724C43.9244 36.1291 44.0824 36.0462 44.2149 35.9305C44.3475 35.8147 44.4509 35.6694 44.5167 35.5062C44.5821 35.3426 44.6079 35.1659 44.5922 34.9905C44.5764 34.815 44.5195 34.6457 44.426 34.4964L44.4346 34.4897L41.6433 30.9313L45.1914 28.148L45.1857 28.1407C45.3118 28.018 45.4071 27.8672 45.464 27.7007C45.5209 27.5342 45.5378 27.3566 45.5133 27.1824C45.4883 27.0079 45.4223 26.8418 45.3208 26.6976C45.2193 26.5534 45.0852 26.4353 44.9294 26.3529L44.9336 26.3426L40.667 24.6285L42.3113 20.5363L42.3027 20.5328C42.3504 20.3635 42.3576 20.1852 42.3236 20.0126C42.2896 19.84 42.2155 19.6777 42.1072 19.5391C41.8777 19.2466 41.5321 19.102 41.1871 19.1126L41.1855 19.1011L36.7472 19.7337L36.1184 15.3213L36.1093 15.3226C36.066 15.152 35.9831 14.9941 35.8673 14.8615C35.7516 14.729 35.6062 14.6256 35.4431 14.5598C35.2795 14.4943 35.1027 14.4683 34.9272 14.484C34.7517 14.4997 34.5824 14.5567 34.433 14.6501L34.426 14.6412L30.8987 17.4081L28.1478 13.9013L28.1409 13.9068C28.0181 13.7807 27.8673 13.6854 27.7008 13.6285C27.5343 13.5716 27.3568 13.5547 27.1825 13.5792C27.0082 13.6044 26.8423 13.6703 26.6983 13.7716C26.5542 13.8729 26.4361 14.0067 26.3534 14.1623L26.3429 14.1583L24.6998 18.2474L20.4723 16.5491L20.4689 16.5577C20.2995 16.51 20.1213 16.5028 19.9486 16.5368C19.776 16.5708 19.6138 16.6449 19.4751 16.7532C19.1827 16.9826 19.038 17.3283 19.0487 17.6733L19.0371 17.6749L19.6752 22.1515L15.212 22.7877L15.2134 22.7962C15.0428 22.8395 14.8849 22.9224 14.7524 23.0381C14.6198 23.1539 14.5164 23.2992 14.4506 23.4624C14.3852 23.626 14.3594 23.8027 14.3751 23.9782C14.3909 24.1536 14.4478 24.3229 14.5413 24.4722L14.5323 24.4792L17.3234 28.0373L13.7756 30.8203L13.7813 30.8275C13.5355 31.0695 13.4015 31.4185 13.4537 31.7859C13.4789 31.9604 13.5448 32.1265 13.6463 32.2706C13.7478 32.4147 13.8819 32.5329 14.0376 32.6154L14.0334 32.6256L18.3 34.3398L16.6558 38.432L16.6643 38.4355C16.6166 38.6048 16.6094 38.783 16.6434 38.9557C16.6774 39.1283 16.7515 39.2906 16.8599 39.4292C17.0893 39.7217 17.435 39.8663 17.7796 39.8559L17.7813 39.8669L22.2195 39.2343L22.8486 43.647L22.8578 43.6457C22.9011 43.8163 22.9839 43.9742 23.0997 44.1067C23.2154 44.2393 23.3608 44.3427 23.5239 44.4085C23.6875 44.474 23.8643 44.4999 24.0398 44.4842C24.2153 44.4685 24.3846 44.4116 24.534 44.3182L24.541 44.3271L28.068 41.5604L30.8191 45.0676L30.8261 45.0621C30.9489 45.1882 31.0996 45.2835 31.2661 45.3404C31.4326 45.3973 31.6102 45.4142 31.7844 45.3897C31.9588 45.3644 32.1247 45.2985 32.2688 45.1971C32.4129 45.0958 32.5311 44.9619 32.6138 44.8064L32.6241 44.8106L34.2671 40.7214L38.4947 42.4198L38.4981 42.4112C38.6674 42.459 38.8457 42.4662 39.0183 42.4322C39.191 42.3982 39.3532 42.324 39.4918 42.2156V42.2156ZM24.1019 30.3507L22.9871 25.9694L21.6267 29.3558L20.5215 28.9118L22.6071 23.7196L23.7437 24.1758L24.8388 28.404L26.1491 25.1422L27.2546 25.5866L25.1685 30.7781L24.1019 30.3507V30.3507ZM26.1954 31.1917L28.2816 25.9996L31.9556 27.4761L31.5647 28.4489L28.9959 27.4165L28.5579 28.5063L31.0719 29.5166L30.6817 30.4889L28.167 29.4792L27.6917 30.6623L30.2605 31.6947L29.8695 32.6676L26.1954 31.1917V31.1917ZM34.7033 34.61L35.2249 30.6788L32.8897 33.8808L31.7145 33.4089L32.3134 27.6198L33.551 28.1169L32.9548 32.2347L35.4505 28.8801L36.3144 29.2274L35.7878 33.3733L38.2059 29.9871L39.4435 30.4843L35.8784 35.0825L34.7033 34.61Z" fill="#34C85A"/>
</g>
<defs>
<clipPath id="clip0_99_26568">
<rect width="42" height="42" fill="white" transform="translate(33.0454) rotate(51.8883)"/>
</clipPath>
</defs>
</svg>
