<svg width="48" height="48" viewBox="0 0 48 48" fill="none" xmlns="http://www.w3.org/2000/svg">
<path d="M40 21.998H44C44 11.738 36.254 4 25.98 4V8C34.104 8 40 13.886 40 21.998Z" fill="#34C85A"/>
<path d="M26.0001 16.0005C30.2061 16.0005 32.0001 17.7945 32.0001 22.0005H36.0001C36.0001 15.5505 32.4501 12.0005 26.0001 12.0005V16.0005ZM32.8441 26.8865C32.4598 26.5372 31.9548 26.3509 31.4357 26.3669C30.9166 26.383 30.4241 26.6001 30.0621 26.9725L25.2761 31.8945C24.1241 31.6745 21.8081 30.9525 19.4241 28.5745C17.0401 26.1885 16.3181 23.8665 16.1041 22.7225L21.0221 17.9345C21.3949 17.5727 21.6123 17.0801 21.6284 16.5609C21.6445 16.0417 21.4578 15.5366 21.1081 15.1525L13.7181 7.02648C13.3682 6.64119 12.8818 6.40749 12.3624 6.375C11.8429 6.34251 11.3313 6.51379 10.9361 6.85248L6.59608 10.5745C6.2503 10.9215 6.04391 11.3834 6.01608 11.8725C5.98608 12.3725 5.41408 24.2165 14.5981 33.4045C22.6101 41.4145 32.6461 42.0005 35.4101 42.0005C35.8141 42.0005 36.0621 41.9885 36.1281 41.9845C36.6171 41.9571 37.0787 41.7498 37.4241 41.4025L41.1441 37.0605C41.483 36.6655 41.6546 36.154 41.6225 35.6346C41.5904 35.1151 41.3571 34.6287 40.9721 34.2785L32.8441 26.8865Z" fill="#34C85A"/>
</svg>
