<svg width="44" height="44" viewBox="0 0 44 44" fill="none" xmlns="http://www.w3.org/2000/svg">
<path d="M11.0001 9.89994C11.0001 9.02473 11.3477 8.18536 11.9666 7.56649C12.5855 6.94762 13.4248 6.59995 14.3001 6.59995H29.7001C30.5753 6.59995 31.4146 6.94762 32.0335 7.56649C32.6524 8.18536 33.0001 9.02473 33.0001 9.89994V10.9999H34.1001C35.5587 10.9999 36.9577 11.5794 37.9891 12.6109C39.0206 13.6423 39.6001 15.0413 39.6001 16.4999V27.4999C39.6001 28.3752 39.2524 29.2145 38.6335 29.8334C38.0146 30.4523 37.1753 30.7999 36.3001 30.7999H33.0001V34.0999C33.0001 34.9752 32.6524 35.8145 32.0335 36.4334C31.4146 37.0523 30.5753 37.3999 29.7001 37.3999H14.3001C13.4248 37.3999 12.5855 37.0523 11.9666 36.4334C11.3477 35.8145 11.0001 34.9752 11.0001 34.0999V30.7999H7.70006C6.82484 30.7999 5.98547 30.4523 5.3666 29.8334C4.74773 29.2145 4.40005 28.3752 4.40005 27.4999V16.4999C4.40005 15.0413 4.97952 13.6423 6.01097 12.6109C7.04242 11.5794 8.44136 10.9999 9.90005 10.9999H11.0001V9.89994ZM13.2001 10.9999H30.8001V9.89994C30.8001 9.60821 30.6842 9.32842 30.4779 9.12213C30.2716 8.91584 29.9918 8.79994 29.7001 8.79994H14.3001C14.0083 8.79994 13.7285 8.91584 13.5222 9.12213C13.3159 9.32842 13.2001 9.60821 13.2001 9.89994V10.9999ZM11.0001 28.5999V25.2999C11.0001 24.4247 11.3477 23.5854 11.9666 22.9665C12.5855 22.3476 13.4248 21.9999 14.3001 21.9999H29.7001C30.5753 21.9999 31.4146 22.3476 32.0335 22.9665C32.6524 23.5854 33.0001 24.4247 33.0001 25.2999V28.5999H36.3001C36.5918 28.5999 36.8716 28.4841 37.0779 28.2778C37.2842 28.0715 37.4001 27.7917 37.4001 27.4999V16.4999C37.4001 15.6247 37.0524 14.7854 36.4335 14.1665C35.8146 13.5476 34.9753 13.1999 34.1001 13.1999H9.90005C9.02484 13.1999 8.18547 13.5476 7.5666 14.1665C6.94773 14.7854 6.60005 15.6247 6.60005 16.4999V27.4999C6.60005 27.7917 6.71595 28.0715 6.92224 28.2778C7.12853 28.4841 7.40832 28.5999 7.70006 28.5999H11.0001ZM14.3001 24.1999C14.0083 24.1999 13.7285 24.3158 13.5222 24.5221C13.3159 24.7284 13.2001 25.0082 13.2001 25.2999V34.0999C13.2001 34.3917 13.3159 34.6715 13.5222 34.8778C13.7285 35.0841 14.0083 35.1999 14.3001 35.1999H29.7001C29.9918 35.1999 30.2716 35.0841 30.4779 34.8778C30.6842 34.6715 30.8001 34.3917 30.8001 34.0999V25.2999C30.8001 25.0082 30.6842 24.7284 30.4779 24.5221C30.2716 24.3158 29.9918 24.1999 29.7001 24.1999H14.3001Z" fill="#C74A2E"/>
</svg>
