<svg width="40" height="40" viewBox="0 0 40 40" fill="none" xmlns="http://www.w3.org/2000/svg">
<g clip-path="url(#clip0_302_2699)">
<path fill-rule="evenodd" clip-rule="evenodd" d="M35.5162 0.627783C35.575 0.725897 35.6432 0.839716 35.6206 1.08536C35.4246 1.23505 35.1857 1.25521 34.94 1.27595C34.5879 1.30566 34.2218 1.33655 33.948 1.75145C33.591 2.28096 33.1885 3.3376 33.3826 3.98692C33.7228 4.97923 33.5853 5.92415 33.4471 6.87434C33.3634 7.44986 33.2794 8.02731 33.3011 8.6184C33.2885 9.48179 32.9454 10.3075 32.3426 10.9258C32.1663 11.0937 31.8632 11.2545 31.5573 11.4166C31.1609 11.6268 30.7599 11.8394 30.6246 12.0734C30.4094 12.4263 30.0868 12.7129 29.7667 12.9973C29.563 13.1784 29.3603 13.3585 29.1869 13.5542C29.037 13.7163 28.9662 13.9654 28.899 14.2017C28.861 14.3354 28.8241 14.4651 28.7748 14.5725C28.5145 15.0479 28.1814 15.4796 27.7876 15.852C27.9985 16.0487 28.2439 16.1979 28.4844 16.344C29.0199 16.6695 29.531 16.9801 29.5823 17.7688C29.6154 18.2549 29.9028 18.5477 30.1558 18.8055C30.5438 19.2007 30.8511 19.5138 30.0375 20.3157C29.6925 20.7037 29.2535 20.9966 28.7628 21.1663C28.5341 21.2247 28.3599 21.3418 28.1932 21.4539C28.0455 21.5532 27.9037 21.6486 27.7348 21.6958C27.4683 21.7686 27.2614 21.7805 27.1022 21.7897C26.7218 21.8116 26.6134 21.8178 26.6134 22.6015C26.5579 23.3189 26.5467 24.0391 26.5799 24.7579C26.7367 26.0037 27.0226 27.2299 27.4329 28.4166C27.5105 28.6132 27.5678 28.823 27.6251 29.0327C27.6971 29.296 27.769 29.5594 27.881 29.7967C27.992 30.048 28.1454 30.294 28.3002 30.5422C28.5632 30.9637 28.83 31.3915 28.8994 31.8621C28.9604 32.2893 28.764 32.6417 28.5668 32.9953C28.4543 33.1971 28.3416 33.3993 28.2764 33.616C28.0775 34.1952 27.9748 34.803 27.9721 35.4154C28.0056 36.0982 28.0296 36.6517 27.2868 36.9248C26.8621 36.8121 26.5845 36.4306 26.3218 36.0698C26.2051 35.9094 26.0913 35.753 25.9689 35.6262C25.7173 36.9584 23.1941 35.7843 22.7892 35.0128C22.5893 34.5949 22.7327 34.2039 22.8807 33.8003C22.9864 33.5121 23.0945 33.2174 23.0815 32.9019C23.0336 31.6632 22.8874 30.6713 22.1231 29.6482C21.6183 28.974 21.4187 29.2893 21.1398 29.7299C21.0202 29.9187 20.886 30.1307 20.7069 30.2975C20.1708 30.8711 19.539 31.215 18.8891 31.5688C18.6241 31.713 18.3561 31.8589 18.0904 32.0226C17.4458 32.3339 16.9389 32.8723 16.667 33.5345C16.5846 33.7914 16.6074 34.0369 16.6304 34.2848C16.6482 34.476 16.6662 34.6687 16.6359 34.8691C16.5626 35.1987 16.4659 35.5228 16.3691 35.847C16.2633 36.2015 16.1575 36.556 16.0824 36.9177C15.8907 37.8593 15.8811 38.0941 16.2956 38.9614C16.7757 39.9512 15.981 39.9563 15.1801 39.9613C15.0775 39.962 14.9748 39.9627 14.8747 39.9654C14.7794 39.9681 14.6794 39.9713 14.5755 39.9747C13.5056 40.0089 12.0324 40.0561 11.0888 39.7569C10.3071 39.5539 9.69985 38.9383 9.50737 38.154C9.42367 37.6751 9.78316 37.2282 10.1247 36.8037C10.3111 36.572 10.4921 36.347 10.5928 36.127C10.888 35.5426 10.8681 34.8487 10.5401 34.282C10.3001 33.8097 10.1617 33.3114 10.0277 32.8289C9.73887 31.789 9.47041 30.8224 8.24939 30.3478C7.79049 30.1694 7.34622 30.2902 6.89892 30.4118C6.51711 30.5156 6.13308 30.62 5.73584 30.5395C4.9791 30.3465 4.44456 29.6718 4.42994 28.891C4.42795 28.8633 4.42562 28.8321 4.42306 28.7979C4.38259 28.2561 4.28564 26.9582 4.5809 26.6292C5.24463 25.884 5.41955 27.8128 5.39559 28.1195C5.27578 28.9533 5.31172 30.1968 6.50979 29.5907C7.22994 29.1891 7.50318 28.4851 7.78572 27.7572C7.79649 27.7294 7.80727 27.7017 7.81809 27.6739C7.9183 27.4161 8.01489 27.1617 8.1102 26.9108C8.78293 25.1395 9.39185 23.5363 10.7582 22.0672C11.7755 20.8243 13.3093 20.3876 14.8172 19.9582C15.1029 19.8769 15.3877 19.7958 15.6679 19.7095C16.6379 19.4502 17.567 19.0566 18.4282 18.5403C19.2125 18.0406 19.1576 17.8694 19.0205 17.4427C18.9545 17.2371 18.8694 16.9722 18.8499 16.5827C18.8374 16.3357 19.0086 15.9471 19.1812 15.5554C19.3049 15.2747 19.4293 14.9924 19.4873 14.7594C19.6719 14.006 20.5121 13.8417 21.2103 13.7053C21.3914 13.6699 21.5629 13.6364 21.7109 13.5949C21.9928 13.3035 22.2027 12.9121 22.4113 12.5233C22.568 12.2312 22.724 11.9406 22.909 11.6949C23.5152 10.8611 24.7037 10.274 25.6861 9.9985C26.2912 9.82916 26.9443 9.73967 27.5969 9.65027C29.3633 9.40826 31.1252 9.16686 31.9161 7.34373C32.2391 6.60136 32.235 5.61308 32.2308 4.60902C32.2226 2.64145 32.2141 0.613287 34.6669 0.256337C34.8169 0.239987 34.9322 0.176148 35.0404 0.116275C35.2016 0.0269931 35.347 -0.0534722 35.5678 0.0454885C35.3763 0.394386 35.4379 0.497169 35.5162 0.627783ZM25.3863 32.6002C25.252 33.1526 25.2628 33.7304 25.4175 34.2774C27.0804 33.434 26.8983 31.4885 25.4726 30.4965C25.4907 30.6993 25.5145 30.8733 25.5362 31.0317C25.609 31.5642 25.6578 31.9207 25.3863 32.6002Z" fill="#B44F45"/>
</g>
<defs>
<clipPath id="clip0_302_2699">
<rect width="40" height="40" fill="white"/>
</clipPath>
</defs>
</svg>
