<svg width="52" height="52" viewBox="0 0 52 52" fill="none" xmlns="http://www.w3.org/2000/svg">
<path d="M11.375 26.0013C11.3751 23.0394 12.2744 20.1474 13.9541 17.7078C15.6338 15.2683 18.0145 13.3962 20.7814 12.3394C23.5483 11.2825 26.5709 11.0906 29.4492 11.7892C32.3275 12.4877 34.9259 14.0437 36.9005 16.2513H33.3125C32.666 16.2513 32.046 16.5081 31.5889 16.9652C31.1318 17.4223 30.875 18.0423 30.875 18.6888C30.875 19.3352 31.1318 19.9552 31.5889 20.4123C32.046 20.8694 32.666 21.1263 33.3125 21.1263H43.0625C43.709 21.1263 44.329 20.8694 44.7861 20.4123C45.2432 19.9552 45.5 19.3352 45.5 18.6888V8.93875C45.5 8.29229 45.2432 7.6723 44.7861 7.21518C44.329 6.75806 43.709 6.50125 43.0625 6.50125C42.416 6.50125 41.796 6.75806 41.3389 7.21518C40.8818 7.6723 40.625 8.29229 40.625 8.93875V13.102C37.6063 9.67912 33.4827 7.42348 28.9721 6.72787C24.4616 6.03227 19.85 6.94076 15.9403 9.29516C12.0307 11.6496 9.07066 15.3007 7.57576 19.6128C6.08086 23.9248 6.14578 28.6246 7.75921 32.8938C9.37264 37.1629 12.4324 40.7309 16.4056 42.9764C20.3788 45.2219 25.0137 46.0027 29.5033 45.1828C33.9929 44.3628 38.0527 41.9942 40.9757 38.4892C43.8987 34.9843 45.4997 30.5651 45.5 26.0013C45.5 25.3548 45.2432 24.7348 44.7861 24.2777C44.329 23.8206 43.709 23.5638 43.0625 23.5638C42.416 23.5638 41.796 23.8206 41.3389 24.2777C40.8818 24.7348 40.625 25.3548 40.625 26.0013C40.625 29.88 39.0842 33.6 36.3414 36.3427C33.5987 39.0854 29.8788 40.6263 26 40.6263C22.1212 40.6263 18.4013 39.0854 15.6586 36.3427C12.9158 33.6 11.375 29.88 11.375 26.0013V26.0013Z" fill="#C74A2E"/>
</svg>
