<svg width="44" height="44" viewBox="0 0 44 44" fill="none" xmlns="http://www.w3.org/2000/svg">
<path d="M6.60001 11C6.60001 9.83305 7.06358 8.7139 7.88874 7.88874C8.7139 7.06358 9.83305 6.60001 11 6.60001H29.4338C30.6007 6.60026 31.7196 7.06399 32.5446 7.88921L36.1108 11.4554C36.936 12.2804 37.3998 13.3993 37.4 14.5662V33C37.4 34.167 36.9364 35.2861 36.1113 36.1113C35.2861 36.9364 34.167 37.4 33 37.4H11C9.83305 37.4 8.7139 36.9364 7.88874 36.1113C7.06358 35.2861 6.60001 34.167 6.60001 33V11ZM11 8.80001C10.4165 8.80001 9.85695 9.03179 9.44437 9.44437C9.03179 9.85695 8.80001 10.4165 8.80001 11V33C8.80001 33.5835 9.03179 34.1431 9.44437 34.5556C9.85695 34.9682 10.4165 35.2 11 35.2V25.3C11 24.4248 11.3477 23.5854 11.9666 22.9666C12.5854 22.3477 13.4248 22 14.3 22H29.7C30.5752 22 31.4146 22.3477 32.0335 22.9666C32.6523 23.5854 33 24.4248 33 25.3V35.2C33.5835 35.2 34.1431 34.9682 34.5556 34.5556C34.9682 34.1431 35.2 33.5835 35.2 33V14.5662C35.1999 13.9828 34.968 13.4233 34.5554 13.0108L30.9892 9.44461C30.5767 9.032 30.0172 8.80013 29.4338 8.80001H28.6V14.3C28.6 15.1752 28.2523 16.0146 27.6335 16.6335C27.0146 17.2523 26.1752 17.6 25.3 17.6H16.5C15.6248 17.6 14.7854 17.2523 14.1666 16.6335C13.5477 16.0146 13.2 15.1752 13.2 14.3V8.80001H11ZM15.4 8.80001V14.3C15.4 14.5917 15.5159 14.8715 15.7222 15.0778C15.9285 15.2841 16.2083 15.4 16.5 15.4H25.3C25.5917 15.4 25.8715 15.2841 26.0778 15.0778C26.2841 14.8715 26.4 14.5917 26.4 14.3V8.80001H15.4ZM30.8 35.2V25.3C30.8 25.0083 30.6841 24.7285 30.4778 24.5222C30.2715 24.3159 29.9917 24.2 29.7 24.2H14.3C14.0083 24.2 13.7285 24.3159 13.5222 24.5222C13.3159 24.7285 13.2 25.0083 13.2 25.3V35.2H30.8Z" fill="#C74A2E"/>
</svg>
