<svg width="40" height="40" viewBox="0 0 40 40" fill="none" xmlns="http://www.w3.org/2000/svg">
<path d="M10.417 5.83203C10.0855 5.83203 9.76753 5.96373 9.53311 6.19815C9.29869 6.43257 9.16699 6.75051 9.16699 7.08203V32.9154C9.16699 33.6054 9.72699 34.1654 10.417 34.1654H16.717C16.5448 35.0256 16.7056 35.9192 17.167 36.6654H10.417C9.42243 36.6654 8.4686 36.2703 7.76534 35.567C7.06208 34.8638 6.66699 33.9099 6.66699 32.9154V7.08203C6.66699 6.08747 7.06208 5.13364 7.76534 4.43038C8.4686 3.72712 9.42243 3.33203 10.417 3.33203H20.5603C21.3337 3.33203 22.0753 3.6387 22.622 4.18703L32.4787 14.0437C33.027 14.5904 33.3337 15.332 33.3337 16.1054V16.6654H33.117C32.9327 16.6561 32.748 16.6561 32.5637 16.6654H23.3337C22.4496 16.6654 21.6018 16.3142 20.9766 15.6891C20.3515 15.0639 20.0003 14.2161 20.0003 13.332V5.83203H10.417ZM22.5003 7.5987V13.332C22.5003 13.553 22.5881 13.765 22.7444 13.9213C22.9007 14.0776 23.1126 14.1654 23.3337 14.1654H29.067L22.5003 7.5987Z" fill="#C74A2E"/>
<path d="M32.8553 18.332H32.8587C33.6119 18.3327 34.348 18.5565 34.974 18.9753C35.6 19.3941 36.0879 19.989 36.3759 20.685C36.6639 21.3809 36.7392 22.1466 36.5923 22.8853C36.4454 23.624 36.0828 24.3026 35.5503 24.8354L25.7137 34.672C25.1405 35.246 24.4221 35.6533 23.6353 35.8504L20.5837 36.612C20.2802 36.6878 19.9623 36.6838 19.6609 36.6002C19.3595 36.5167 19.0848 36.3566 18.8636 36.1354C18.6425 35.9142 18.4823 35.6396 18.3988 35.3382C18.3153 35.0367 18.3112 34.7188 18.387 34.4154L19.1487 31.3654C19.3453 30.577 19.752 29.8587 20.327 29.2854L30.1637 19.4487C30.5167 19.0945 30.9362 18.8135 31.3981 18.6218C31.86 18.4302 32.3552 18.3317 32.8553 18.332Z" fill="#C74A2E"/>
</svg>
