<svg width="14" height="8" viewBox="0 0 14 8" fill="none" xmlns="http://www.w3.org/2000/svg">
<path d="M6.98902 7.9973C6.75578 7.99782 6.52974 7.90487 6.35014 7.73458L0.360621 2.02324C0.156761 1.82936 0.0285612 1.55074 0.00422411 1.2487C-0.020113 0.946653 0.0614062 0.645916 0.230848 0.412646C0.40029 0.179376 0.643776 0.0326817 0.90774 0.00483352C1.1717 -0.0230146 1.43452 0.0702645 1.63838 0.264151L6.98902 5.38151L12.3397 0.446915C12.4418 0.352031 12.5593 0.281174 12.6854 0.238417C12.8115 0.19566 12.9438 0.181846 13.0746 0.197768C13.2054 0.213691 13.3321 0.259035 13.4475 0.331196C13.563 0.403358 13.6648 0.500913 13.7472 0.618254C13.8386 0.735704 13.9079 0.873491 13.9506 1.02298C13.9933 1.17248 14.0086 1.33045 13.9954 1.48702C13.9823 1.64358 13.9411 1.79535 13.8743 1.93283C13.8076 2.07031 13.7167 2.19053 13.6074 2.28596L7.61792 7.80311C7.43316 7.94648 7.21173 8.01486 6.98902 7.9973Z" fill="#C74A2E"/>
</svg>
