<svg width="32" height="32" viewBox="0 0 32 32" fill="none" xmlns="http://www.w3.org/2000/svg">
<path d="M9.33325 22.6845L15.2173 22.6645L28.0599 9.94452C28.5639 9.44052 28.8413 8.77119 28.8413 8.05919C28.8413 7.34719 28.5639 6.67785 28.0599 6.17385L25.9452 4.05919C24.9373 3.05119 23.1786 3.05652 22.1786 4.05519L9.33325 16.7779V22.6845ZM24.0599 5.94452L26.1786 8.05519L24.0493 10.1645L21.9346 8.05119L24.0599 5.94452ZM11.9999 17.8899L20.0399 9.92585L22.1546 12.0405L14.1159 20.0019L11.9999 20.0085V17.8899Z" fill="#828282"/>
<path d="M6.66667 28H25.3333C26.804 28 28 26.804 28 25.3333V13.776L25.3333 16.4427V25.3333H10.8773C10.8427 25.3333 10.8067 25.3467 10.772 25.3467C10.728 25.3467 10.684 25.3347 10.6387 25.3333H6.66667V6.66667H15.796L18.4627 4H6.66667C5.196 4 4 5.196 4 6.66667V25.3333C4 26.804 5.196 28 6.66667 28Z" fill="#828282"/>
</svg>
