<svg width="17" height="13" viewBox="0 0 17 13" fill="none" xmlns="http://www.w3.org/2000/svg">
<path d="M5.19244 10.2449L1.69244 6.72685C1.60092 6.63374 1.49192 6.55981 1.37176 6.50935C1.25159 6.45889 1.12266 6.43291 0.99244 6.43291C0.862215 6.43291 0.733284 6.45889 0.613124 6.50935C0.492963 6.55981 0.383962 6.63374 0.292439 6.72685C0.1998 6.81885 0.126248 6.92841 0.0760486 7.04919C0.025849 7.16997 0 7.29956 0 7.43045C0 7.56135 0.025849 7.69094 0.0760486 7.81172C0.126248 7.9325 0.1998 8.04206 0.292439 8.13405L4.48244 12.3456C4.87244 12.7376 5.50244 12.7376 5.89244 12.3456L16.4924 1.70114C16.5851 1.60915 16.6586 1.49959 16.7088 1.37881C16.759 1.25803 16.7849 1.12844 16.7849 0.997543C16.7849 0.866648 16.759 0.737055 16.7088 0.616277C16.6586 0.495498 16.5851 0.385937 16.4924 0.293943C16.4009 0.200827 16.2919 0.126897 16.1718 0.0764394C16.0516 0.0259817 15.9227 0 15.7924 0C15.6622 0 15.5333 0.0259817 15.4131 0.0764394C15.293 0.126897 15.184 0.200827 15.0924 0.293943L5.19244 10.2449Z" fill="#CC7F31"/>
</svg>
