<svg width="38" height="46" viewBox="0 0 38 46" fill="none" xmlns="http://www.w3.org/2000/svg">
<path d="M19.0001 0.714844C20.906 0.714842 22.739 1.44737 24.1199 2.7609C25.5009 4.07444 26.3241 5.86849 26.4194 7.77199L26.4287 8.14342H35.7144C36.1878 8.14394 36.6431 8.32519 36.9873 8.65013C37.3314 8.97508 37.5386 9.41919 37.5663 9.89172C37.5941 10.3643 37.4403 10.8295 37.1365 11.1925C36.8327 11.5555 36.4017 11.7888 35.9317 11.8447L35.7144 11.8577H34.1377L31.9463 38.8847C31.8049 40.6287 31.0122 42.2556 29.7259 43.4417C28.4397 44.6279 26.754 45.2864 25.0043 45.2863H12.996C11.2463 45.2864 9.56063 44.6279 8.27434 43.4417C6.98804 42.2556 6.19537 40.6287 6.054 38.8847L3.86071 11.8577H2.28585C1.83098 11.8576 1.39194 11.6906 1.05202 11.3884C0.712098 11.0861 0.494931 10.6696 0.441711 10.2178L0.428711 10.0006C0.428771 9.54568 0.595772 9.10665 0.898039 8.76672C1.20031 8.4268 1.61682 8.20964 2.06857 8.15642L2.28585 8.14342H11.5716C11.5716 6.17324 12.3542 4.28375 13.7473 2.89062C15.1405 1.49749 17.03 0.714844 19.0001 0.714844ZM14.8216 17.8934C14.485 17.8934 14.1598 18.0153 13.9061 18.2366C13.6525 18.4578 13.4875 18.7634 13.4417 19.0968L13.4287 19.2863V34.1434L13.4417 34.3328C13.4876 34.6662 13.6526 34.9717 13.9063 35.1929C14.1599 35.414 14.485 35.5358 14.8216 35.5358C15.1581 35.5358 15.4832 35.414 15.7369 35.1929C15.9905 34.9717 16.1556 34.6662 16.2014 34.3328L16.2144 34.1434V19.2863L16.2014 19.0968C16.1557 18.7634 15.9907 18.4578 15.737 18.2366C15.4833 18.0153 15.1582 17.8934 14.8216 17.8934ZM23.1787 17.8934C22.8421 17.8934 22.5169 18.0153 22.2633 18.2366C22.0096 18.4578 21.8446 18.7634 21.7989 19.0968L21.7859 19.2863V34.1434L21.7989 34.3328C21.8447 34.6662 22.0097 34.9717 22.2634 35.1929C22.517 35.414 22.8422 35.5358 23.1787 35.5358C23.5152 35.5358 23.8404 35.414 24.094 35.1929C24.3477 34.9717 24.5127 34.6662 24.5586 34.3328L24.5716 34.1434V19.2863L24.5586 19.0968C24.5128 18.7634 24.3478 18.4578 24.0942 18.2366C23.8405 18.0153 23.5153 17.8934 23.1787 17.8934ZM19.0001 4.42913C18.0631 4.42883 17.1605 4.78274 16.4734 5.41991C15.7863 6.05708 15.3654 6.93041 15.2951 7.86484L15.2859 8.14342H22.7144L22.7051 7.86484C22.6349 6.93041 22.214 6.05708 21.5269 5.41991C20.8398 4.78274 19.9372 4.42883 19.0001 4.42913Z" fill="white"/>
</svg>
