<svg width="26" height="26" viewBox="0 0 26 26" fill="none" xmlns="http://www.w3.org/2000/svg">
<path d="M23.2917 6.5C23.2917 6.76534 23.1943 7.02145 23.0179 7.21974C22.8416 7.41802 22.5986 7.54471 22.3351 7.57575L22.2084 7.58333H21.293L19.9594 21.1467C19.8868 21.8826 19.543 22.5653 18.995 23.0619C18.447 23.5584 17.7338 23.8334 16.9943 23.8333H9.00579C8.26625 23.8334 7.55312 23.5584 7.00509 23.0619C6.45706 22.5653 6.11332 21.8826 6.04071 21.1467L4.70712 7.58333H3.79171C3.50439 7.58333 3.22884 7.4692 3.02567 7.26603C2.82251 7.06287 2.70837 6.78732 2.70837 6.5C2.70837 6.21268 2.82251 5.93713 3.02567 5.73397C3.22884 5.5308 3.50439 5.41667 3.79171 5.41667H9.20837C9.20837 4.91874 9.30645 4.42569 9.497 3.96566C9.68755 3.50563 9.96684 3.08764 10.3189 2.73555C10.671 2.38346 11.089 2.10417 11.549 1.91362C12.0091 1.72307 12.5021 1.625 13 1.625C13.498 1.625 13.991 1.72307 14.451 1.91362C14.9111 2.10417 15.3291 2.38346 15.6812 2.73555C16.0332 3.08764 16.3125 3.50563 16.5031 3.96566C16.6936 4.42569 16.7917 4.91874 16.7917 5.41667H22.2084C22.4957 5.41667 22.7712 5.5308 22.9744 5.73397C23.1776 5.93713 23.2917 6.21268 23.2917 6.5ZM15.4375 10.0208C15.2412 10.0208 15.0515 10.0919 14.9035 10.221C14.7556 10.35 14.6593 10.5283 14.6326 10.7228L14.625 10.8333V18.4167L14.6326 18.5272C14.6594 18.7216 14.7556 18.8998 14.9036 19.0288C15.0516 19.1578 15.2412 19.2289 15.4375 19.2289C15.6338 19.2289 15.8235 19.1578 15.9715 19.0288C16.1194 18.8998 16.2157 18.7216 16.2425 18.5272L16.25 18.4167V10.8333L16.2425 10.7228C16.2158 10.5283 16.1195 10.35 15.9715 10.221C15.8236 10.0919 15.6339 10.0208 15.4375 10.0208ZM10.5625 10.0208C10.3662 10.0208 10.1765 10.0919 10.0285 10.221C9.88056 10.35 9.78433 10.5283 9.75762 10.7228L9.75004 10.8333V18.4167L9.75762 18.5272C9.78438 18.7216 9.88064 18.8998 10.0286 19.0288C10.1766 19.1578 10.3662 19.2289 10.5625 19.2289C10.7588 19.2289 10.9485 19.1578 11.0965 19.0288C11.2444 18.8998 11.3407 18.7216 11.3675 18.5272L11.375 18.4167V10.8333L11.3675 10.7228C11.3408 10.5283 11.2445 10.35 11.0965 10.221C10.9486 10.0919 10.7589 10.0208 10.5625 10.0208ZM13 3.79167C12.5691 3.79167 12.1557 3.96287 11.851 4.26762C11.5462 4.57237 11.375 4.98569 11.375 5.41667H14.625C14.625 4.98569 14.4538 4.57237 14.1491 4.26762C13.8443 3.96287 13.431 3.79167 13 3.79167Z" fill="#C74A2E"/>
</svg>
