<svg width="20" height="20" viewBox="0 0 20 20" fill="none" xmlns="http://www.w3.org/2000/svg">
<rect width="20" height="20" rx="4" fill="#34C85A"/>
<g clip-path="url(#clip0_940_27322)">
<path d="M16.9836 3.27016C14.8744 5.09566 13.0899 6.83341 11.4561 9.10066C10.7356 10.1007 9.93436 11.2777 9.41061 12.3889C9.11161 12.9782 8.57261 13.8989 8.38886 14.7842C7.38386 13.8492 6.30436 12.7879 5.19986 11.9567C4.41261 11.3644 2.14511 12.5719 3.06811 13.2664C4.72236 14.5107 6.09811 16.0604 7.70711 17.3602C8.38011 17.9032 9.87161 16.7239 10.2221 16.2292C11.3726 14.5992 11.5299 12.6067 12.3684 10.8287C13.6486 8.10941 15.9191 5.87566 18.1609 3.93591C19.6461 2.55066 18.1121 2.29516 16.9859 3.27016" fill="white"/>
</g>
<defs>
<clipPath id="clip0_940_27322">
<rect width="16" height="16" fill="white" transform="translate(2 2)"/>
</clipPath>
</defs>
</svg>
