<svg width="52" height="52" viewBox="0 0 52 52" fill="none" xmlns="http://www.w3.org/2000/svg">
<path d="M11.375 25.9999C11.3751 23.0381 12.2744 20.146 13.9541 17.7065C15.6338 15.267 18.0145 13.3949 20.7814 12.338C23.5483 11.2812 26.5709 11.0893 29.4492 11.7878C32.3275 12.4864 34.9259 14.0423 36.9005 16.2499H33.3125C32.666 16.2499 32.046 16.5067 31.5889 16.9638C31.1318 17.421 30.875 18.0409 30.875 18.6874C30.875 19.3339 31.1318 19.9539 31.5889 20.411C32.046 20.8681 32.666 21.1249 33.3125 21.1249H43.0625C43.709 21.1249 44.329 20.8681 44.7861 20.411C45.2432 19.9539 45.5 19.3339 45.5 18.6874V8.93741C45.5 8.29094 45.2432 7.67096 44.7861 7.21384C44.329 6.75672 43.709 6.49991 43.0625 6.49991C42.416 6.49991 41.796 6.75672 41.3389 7.21384C40.8818 7.67096 40.625 8.29094 40.625 8.93741V13.1007C37.6063 9.67778 33.4827 7.42214 28.9721 6.72653C24.4616 6.03092 19.85 6.93942 15.9403 9.29382C12.0307 11.6482 9.07066 15.2993 7.57576 19.6114C6.08086 23.9235 6.14578 28.6233 7.75921 32.8924C9.37264 37.1616 12.4324 40.7295 16.4056 42.9751C20.3788 45.2206 25.0137 46.0013 29.5033 45.1814C33.9929 44.3615 38.0527 41.9928 40.9757 38.4879C43.8987 34.9829 45.4997 30.5638 45.5 25.9999C45.5 25.3534 45.2432 24.7335 44.7861 24.2763C44.329 23.8192 43.709 23.5624 43.0625 23.5624C42.416 23.5624 41.796 23.8192 41.3389 24.2763C40.8818 24.7335 40.625 25.3534 40.625 25.9999C40.625 29.8787 39.0842 33.5986 36.3414 36.3413C33.5987 39.0841 29.8788 40.6249 26 40.6249C22.1212 40.6249 18.4013 39.0841 15.6586 36.3413C12.9158 33.5986 11.375 29.8787 11.375 25.9999Z" fill="#C74A2E"/>
</svg>
