<svg width="24" height="24" viewBox="0 0 24 24" fill="none" xmlns="http://www.w3.org/2000/svg">
<path d="M10.2 3.6001C11.4544 3.59988 12.6829 3.95715 13.7415 4.63004C14.8001 5.30293 15.6451 6.26358 16.1774 7.39945C16.7097 8.53531 16.9073 9.79934 16.747 11.0435C16.5867 12.2876 16.0752 13.4602 15.2724 14.4241L20.2248 19.3753C20.3311 19.4811 20.3939 19.6229 20.4008 19.7728C20.4077 19.9226 20.3583 20.0696 20.2622 20.1848C20.1662 20.3 20.0304 20.375 19.8818 20.3951C19.7331 20.4152 19.5824 20.3789 19.4592 20.2933L19.3752 20.2249L14.424 15.2725C13.6094 15.9506 12.6435 16.4226 11.608 16.6485C10.5725 16.8743 9.49777 16.8475 8.4748 16.5703C7.45183 16.293 6.51068 15.7735 5.73095 15.0556C4.95122 14.3377 4.35585 13.4426 3.99519 12.446C3.63453 11.4493 3.5192 10.3805 3.65894 9.32989C3.79868 8.27927 4.18939 7.27775 4.79803 6.41005C5.40666 5.54235 6.21531 4.83399 7.15558 4.34489C8.09586 3.85578 9.14009 3.60031 10.2 3.6001ZM10.2 4.8001C8.7678 4.8001 7.39429 5.36902 6.38159 6.38172C5.36889 7.39442 4.79997 8.76793 4.79997 10.2001C4.79997 11.6323 5.36889 13.0058 6.38159 14.0185C7.39429 15.0312 8.7678 15.6001 10.2 15.6001C11.6321 15.6001 13.0056 15.0312 14.0183 14.0185C15.031 13.0058 15.6 11.6323 15.6 10.2001C15.6 8.76793 15.031 7.39442 14.0183 6.38172C13.0056 5.36902 11.6321 4.8001 10.2 4.8001Z" fill="#E58E13"/>
</svg>
