<?xml version="1.0" standalone="no"?>
<!DOCTYPE svg PUBLIC "-//W3C//DTD SVG 1.1//EN" "http://www.w3.org/Graphics/SVG/1.1/DTD/svg11.dtd" >
<svg xmlns="http://www.w3.org/2000/svg">
<metadata>Generated by IcoMoon</metadata>
<defs>
<font id="icon" horiz-adv-x="1024">
<font-face units-per-em="1024" ascent="960" descent="-64" />
<missing-glyph horiz-adv-x="1024" />
<glyph unicode="&#x20;" horiz-adv-x="512" d="" />
<glyph unicode="&#xe900;" glyph-name="star" d="M626.949 599.026h371.989l-300.944-208.712 114.951-337.704-300.947 208.712-300.946-208.712 114.95 337.704-300.945 208.712h371.99l114.951 337.701 114.951-337.701zM593.452 552.727l-81.455 239.709-81.455-239.709h-256l207.127-144.291-81.455-237.382 211.782 146.618 211.782-146.618-81.455 237.382 207.127 144.291h-256z" />
<glyph unicode="&#xe901;" d="M1003.52 436.384c0 36.305-3.26 71.215-9.307 104.727h-482.213v-198.048h275.547c-11.867-64-47.94-118.226-102.167-154.533v-128.466h165.473c96.814 89.134 152.667 220.393 152.667 376.321z" />
<glyph unicode="&#xe902;" d="M512-64.051c138.24 0 254.14 45.847 338.853 124.041l-165.473 128.466c-45.847-30.72-104.494-48.873-173.38-48.873-133.353 0-246.225 90.066-286.487 211.086h-171.054v-132.659c84.247-167.327 257.396-282.061 457.542-282.061z" />
<glyph unicode="&#xe903;" d="M225.513 350.788c-10.24 30.72-16.058 63.532-16.058 97.277s5.818 66.56 16.058 97.28v132.655h-171.054c-34.676-69.12-54.458-147.317-54.458-229.935s19.782-160.816 54.458-229.936l171.054 132.659z" />
<glyph unicode="&#xe904;" d="M512 756.363c75.173 0 142.66-25.833 195.726-76.567l146.847 146.851c-88.667 82.618-204.567 133.353-342.574 133.353-200.145 0-373.295-114.735-457.542-282.065l171.054-132.655c40.262 121.018 153.135 211.083 286.487 211.083z" />
<glyph unicode="&#xe905;" glyph-name="arrow" d="M576 768l-45.76-44.576 242.56-243.424h-644.8v-64h644.8l-242.56-242.338 45.76-45.662 320 320-320 320z" />
<glyph unicode="&#xe906;" glyph-name="calendar" d="M290.458 960c9.506 0 18.621-3.776 25.343-10.497s10.497-15.837 10.497-25.343v-67.021h384.87v66.56c0 9.505 3.777 18.621 10.496 25.343 6.724 6.721 15.838 10.497 25.344 10.497s18.62-3.776 25.344-10.497c6.719-6.721 10.496-15.837 10.496-25.343v-66.56h138.752c27.147 0 53.185-10.782 72.391-29.974 19.2-19.193 29.998-45.226 30.009-72.375v-716.442c-0.011-27.147-10.809-53.18-30.009-72.374-19.206-19.194-45.244-29.975-72.391-29.975h-819.2c-27.149 0-53.187 10.78-72.39 29.975s-29.997 45.227-30.010 72.374v716.442c0.014 27.149 10.808 53.182 30.010 72.375s45.241 29.974 72.39 29.974h152.218v67.072c0.014 9.496 3.796 18.599 10.515 25.31s15.828 10.479 25.325 10.479v0zM71.68 563.61v-525.261c0-4.033 0.795-8.027 2.339-11.753 1.543-3.732 3.806-7.117 6.659-9.967 2.853-2.856 6.24-5.12 9.966-6.662s7.722-2.338 11.756-2.338h819.2c4.033 0 8.027 0.796 11.753 2.338 3.732 1.542 7.117 3.806 9.967 6.662 2.856 2.85 5.12 6.235 6.662 9.967 1.542 3.726 2.338 7.72 2.338 11.753v524.544l-880.64 0.717zM341.35 211.507v-85.299h-85.35v85.299h85.35zM554.65 211.507v-85.299h-85.299v85.299h85.299zM768 211.507v-85.299h-85.35v85.299h85.35zM341.35 415.13v-85.299h-85.35v85.299h85.35zM554.65 415.13v-85.299h-85.299v85.299h85.299zM768 415.13v-85.299h-85.35v85.299h85.35zM254.618 785.51h-152.218c-4.034 0-8.029-0.795-11.756-2.338s-7.113-3.807-9.966-6.659c-2.852-2.853-5.115-6.24-6.659-9.966s-2.339-7.722-2.339-11.756v-119.552l880.64-0.717v120.269c0 4.034-0.796 8.029-2.338 11.756s-3.806 7.113-6.662 9.966c-2.85 2.852-6.235 5.115-9.967 6.659-3.726 1.543-7.72 2.338-11.753 2.338h-138.752v-47.565c0-9.506-3.777-18.621-10.496-25.343-6.724-6.721-15.838-10.497-25.344-10.497s-18.62 3.776-25.344 10.497c-6.719 6.721-10.496 15.837-10.496 25.343v47.565h-384.87v-47.104c0-9.506-3.776-18.621-10.497-25.343s-15.837-10.497-25.343-10.497c-9.506 0-18.621 3.776-25.343 10.497s-10.497 15.837-10.497 25.343v47.104z" />
<glyph unicode="&#xe907;" glyph-name="calls" d="M64 656c0 61.824 50.176 112 112 112h672c61.824 0 112-50.176 112-112v-139.968c-11.546 8.189-24.282 14.559-37.76 18.88l-26.24 8.32v112.768c0 12.731-5.056 24.94-14.060 33.94-9.001 9.004-21.21 14.060-33.94 14.060h-672c-12.73 0-24.939-5.056-33.941-14.060-9.002-9.001-14.059-21.21-14.059-33.94v-416c0-26.496 21.504-48 48-48h144v64c0 16.973 6.743 33.252 18.744 45.256 12.004 12.001 28.283 18.744 45.256 18.744h256c16.973 0 33.252-6.743 45.256-18.744 12.001-12.004 18.744-28.283 18.744-45.256v-13.12c-19.031 0.335-37.844-4.096-54.725-12.895-16.881-8.796-31.288-21.681-41.915-37.473l-30.784-45.184-4.608-7.68-0.832-1.408c-1.784-3.333-3.407-6.751-4.864-10.24h-390.272c-29.704 0-58.192 11.799-79.196 32.804s-32.804 49.492-32.804 79.196v416zM954.888 415.695c3.328-14.72 5.056-30.208 5.12-46.4v-1.792c-0.192-55.936-20.16-120.384-59.904-193.28-8.32-15.36-16.768-29.696-25.408-43.008-44.608-69.184-92.672-111.808-144.256-127.936-11.745-3.63-24.218-4.232-36.257-1.746-12.040 2.483-23.258 7.972-32.607 15.954l-5.12 4.672-19.776 19.84c-8.34 8.584-13.729 19.602-15.388 31.455-1.656 11.853 0.507 23.926 6.172 34.465l2.944 4.736 29.888 43.904c4.931 7.357 11.72 13.281 19.676 17.17 7.959 3.889 16.801 5.606 25.636 4.974 1.92-0.128 3.904-0.448 5.888-0.832l5.248-1.472 55.104-18.368c22.016 16.64 40.32 37.632 55.040 62.848 12.608 21.632 20.8 43.584 24.704 65.856l1.6 11.136-45.888 43.52c-7.427 7.212-12.713 16.34-15.265 26.373s-2.276 20.575 0.801 30.459l1.92 5.44 20.864 49.088c4.296 10.877 12.255 19.912 22.502 25.544 10.248 5.635 22.141 7.508 33.626 5.304l4.928-1.28 26.048-8.32c25.92-8.32 45.696-30.464 52.096-58.24l0.064-0.064zM640 512c0-33.948-13.486-66.506-37.491-90.509-24.003-24.005-56.561-37.491-90.509-37.491s-66.506 13.486-90.509 37.491c-24.005 24.003-37.491 56.561-37.491 90.509s13.486 66.506 37.491 90.509c24.003 24.005 56.561 37.491 90.509 37.491s66.506-13.486 90.509-37.491c24.005-24.003 37.491-56.561 37.491-90.509v0z" />
<glyph unicode="&#xe908;" glyph-name="clock" d="M136.535 448.002c0 207.365 168.102 375.466 375.465 375.466 207.365 0 375.47-168.102 375.47-375.466 0-207.362-168.105-375.467-375.47-375.467s-375.465 168.105-375.465 375.467zM512 925.869c-263.918 0-477.866-213.948-477.866-477.867 0-263.918 213.948-477.867 477.866-477.867 263.921 0 477.87 213.949 477.87 477.867 0 263.919-213.949 477.867-477.87 477.867zM563.2 704c0 28.277-22.922 51.2-51.2 51.2s-51.2-22.923-51.2-51.2v-263.347c0.008-36.209 14.395-70.927 39.999-96.527l102.998-102.994c19.994-19.999 52.413-19.999 72.407 0 19.994 19.994 19.994 52.408 0 72.407l-103.004 102.999c-6.395 6.4-9.994 15.073-9.999 24.125v263.337z" />
<glyph unicode="&#xe909;" glyph-name="close" d="M768 659.2l-44.8 44.8-211.2-211.2-211.2 211.2-44.8-44.8 211.2-211.2-211.2-211.2 44.8-44.8 211.2 211.2 211.2-211.2 44.8 44.8-211.2 211.2 211.2 211.2z" />
<glyph unicode="&#xe90a;" glyph-name="consultations" d="M102.4 704c0 27.158 10.789 53.204 29.992 72.408s45.25 29.992 72.408 29.992h358.4c27.159 0 53.204-10.789 72.407-29.992 19.205-19.204 29.993-45.25 29.993-72.408v-204.8c0-27.159-10.788-53.204-29.993-72.407-19.203-19.205-45.248-29.993-72.407-29.993h-102.4l-153.6-153.6v153.6h-102.4c-27.158 0-53.204 10.788-72.408 29.993-19.204 19.203-29.992 45.248-29.992 72.407v204.8zM768 601.6v-102.4c0-54.316-21.576-106.409-59.983-144.817-38.408-38.405-90.499-59.983-144.817-59.983h-60.006l-90.419-90.47c14.336-7.629 30.669-11.93 48.026-11.93h102.4l153.6-153.6v153.6h102.4c27.159 0 53.204 10.788 72.407 29.993 19.205 19.203 29.993 45.248 29.993 72.407v204.8c0 27.159-10.788 53.204-29.993 72.407-19.203 19.205-45.248 29.993-72.407 29.993h-51.2z" />
<glyph unicode="&#xe90b;" glyph-name="elephant" horiz-adv-x="788" d="M784.949 943.929c1.483-2.512 3.202-5.425 2.631-11.714-4.939-3.832-10.961-4.348-17.154-4.879-8.875-0.761-18.101-1.552-25.003-12.173-8.999-13.556-19.147-40.606-14.253-57.228 8.576-25.403 5.11-49.593 1.627-73.918-2.109-14.733-4.228-29.516-3.68-44.648-0.319-22.103-8.964-43.242-24.159-59.069-4.445-4.301-12.085-8.415-19.795-12.566-9.994-5.382-20.102-10.825-23.511-16.815-5.425-9.033-13.556-16.37-21.624-23.65-5.136-4.636-10.246-9.246-14.616-14.255-3.779-4.151-5.563-10.529-7.257-16.577-0.957-3.424-1.887-6.743-3.131-9.492-6.56-12.172-14.956-23.223-24.883-32.754 5.315-5.037 11.502-8.856 17.564-12.597 13.499-8.332 26.382-16.284 27.674-36.474 0.835-12.446 8.078-19.94 14.458-26.539 9.779-10.118 17.526-18.133-2.981-38.662-8.698-9.935-19.761-17.432-32.132-21.776-5.766-1.497-10.155-4.494-14.358-7.363-3.722-2.54-7.298-4.982-11.553-6.193-6.719-1.863-11.934-2.168-15.947-2.402-9.588-0.561-12.32-0.721-12.32-20.783-1.4-18.365-1.682-36.801-0.845-55.203 3.95-31.894 11.158-63.283 21.502-93.663 1.953-5.031 3.399-10.401 4.844-15.774 1.812-6.741 3.625-13.481 6.449-19.556 2.798-6.433 6.666-12.731 10.567-19.084 6.626-10.791 13.353-21.744 15.102-33.79 1.538-10.937-3.413-19.958-8.383-29.013-2.834-5.163-5.675-10.338-7.32-15.886-5.012-14.828-7.603-30.389-7.672-46.066 0.847-17.481 1.451-31.649-17.272-38.642-10.705 2.887-17.703 12.652-24.322 21.89-2.944 4.106-5.811 8.109-8.897 11.355-6.343-34.103-69.941-4.047-80.148 15.703-5.039 10.699-1.424 20.708 2.306 31.041 2.666 7.379 5.39 14.923 5.063 22.999-1.209 31.711-4.894 57.106-24.16 83.296-12.723 17.258-17.755 9.186-24.785-2.091-3.015-4.836-6.396-10.262-10.91-14.531-13.515-14.685-29.438-23.489-45.822-32.545-6.678-3.692-13.432-7.426-20.131-11.618-16.248-7.969-29.024-21.754-35.877-38.703-2.080-6.579-1.503-12.863-0.922-19.208 0.449-4.896 0.9-9.828 0.138-14.958-1.847-8.438-4.287-16.736-6.725-25.035-2.668-9.074-5.335-18.15-7.227-27.41-4.832-24.105-5.075-30.115 5.374-52.32 12.101-25.338-7.932-25.468-28.119-25.598-2.586-0.016-5.173-0.032-7.696-0.102-2.404-0.071-4.925-0.152-7.542-0.238-26.969-0.876-64.103-2.085-87.887 5.575-19.704 5.199-35.011 20.957-39.863 41.035-2.11 12.26 6.952 23.7 15.56 34.568 4.699 5.931 9.263 11.693 11.801 17.323 7.439 14.962 6.94 32.727-1.329 47.23-6.049 12.093-9.537 24.848-12.915 37.201-7.281 26.622-14.048 51.365-44.825 63.518-11.567 4.567-22.765 1.473-34.040-1.64-9.624-2.656-19.304-5.329-29.317-3.267-19.074 4.939-32.548 22.213-32.917 42.201-0.050 0.709-0.109 1.508-0.173 2.385-1.020 13.869-3.464 47.094 3.978 55.517 16.73 19.078 21.139-30.301 20.535-38.152-3.020-21.344-2.114-53.179 28.085-37.662 18.152 10.281 25.040 28.304 32.161 46.939 0.272 0.711 0.543 1.422 0.816 2.133 2.526 6.599 4.961 13.111 7.363 19.535 16.957 45.344 32.305 86.388 66.745 123.995 25.643 31.819 64.304 42.998 102.315 53.99 7.201 2.083 14.379 4.159 21.441 6.367 24.452 6.638 47.87 16.715 69.577 29.932 19.769 12.792 18.385 17.174 14.929 28.099-1.664 5.264-3.807 12.044-4.299 22.014-0.317 6.325 4 16.272 8.35 26.301 3.119 7.184 6.254 14.413 7.717 20.378 4.651 19.289 25.83 23.493 43.429 26.984 4.565 0.906 8.887 1.764 12.619 2.826 7.105 7.459 12.396 17.479 17.654 27.433 3.95 7.477 7.881 14.919 12.544 21.209 15.281 21.344 45.239 36.372 70.002 43.425 15.25 4.336 31.712 6.626 48.161 8.917 44.524 6.195 88.936 12.375 108.871 59.046 8.143 19.005 8.038 44.305 7.934 70.009-0.209 50.37-0.421 102.291 61.403 111.429 3.783 0.419 6.689 2.053 9.415 3.586 4.064 2.286 7.727 4.346 13.294 1.812-4.829-8.932-3.275-11.563-1.302-14.907zM529.743 125.466c-3.385-14.143-3.115-28.932 0.786-42.937 41.915 21.591 37.325 71.396 1.388 96.792 0.457-5.191 1.057-9.645 1.603-13.702 1.837-13.631 3.066-22.756-3.777-40.153z" />
<glyph unicode="&#xe90c;" glyph-name="facebook" d="M576 608v128c0 35.328 28.672 64 64 64h64v160h-128c-106.048 0-192-85.952-192-192v-160h-128v-160h128v-512h192v512h128l64 160h-192z" />
<glyph unicode="&#xe90d;" glyph-name="phone-call" d="M853.333 490.709h85.333c0 218.88-165.248 383.957-384.427 383.957v-85.333c173.312 0 299.093-125.568 299.093-298.624zM554.669 618.656c89.728 0 128-38.272 128-128h85.333c0 137.6-75.733 213.333-213.333 213.333v-85.333zM700.674 386.421c-8.198 7.452-18.972 11.426-30.046 11.085-11.074-0.343-21.581-4.975-29.303-12.919l-102.101-105.003c-24.576 4.693-73.984 20.096-124.843 70.827-50.859 50.901-66.261 100.437-70.827 124.843l104.917 102.144c7.953 7.718 12.591 18.227 12.934 29.303s-3.639 21.852-11.1 30.046l-157.653 173.355c-7.465 8.22-17.841 13.205-28.922 13.898-11.083 0.693-21.997-2.961-30.428-10.186l-92.587-79.403c-7.377-7.403-11.78-17.257-12.373-27.691-0.64-10.667-12.843-263.339 183.083-459.349 170.923-170.88 385.024-183.381 443.989-183.381 8.619 0 13.909 0.256 15.317 0.341 10.432 0.585 20.279 5.007 27.648 12.416l79.36 92.629c7.23 8.427 10.891 19.339 10.206 30.419-0.685 11.083-5.662 21.459-13.875 28.93l-173.397 157.696z" />
<glyph unicode="&#xe90e;" glyph-name="printer" d="M256.002 729.601c0 20.369 8.090 39.903 22.493 54.306s33.936 22.494 54.307 22.494h358.4c20.368 0 39.901-8.091 54.305-22.494s22.495-33.937 22.495-54.306v-25.599h25.6c33.946 0 66.504-13.487 90.508-37.492 24.006-24.003 37.492-56.562 37.492-90.508v-256c0-20.371-8.092-39.903-22.495-54.307s-33.936-22.493-54.305-22.493h-76.8v-76.8c0-20.371-8.092-39.903-22.495-54.307s-33.936-22.493-54.305-22.493h-358.4c-20.371 0-39.903 8.090-54.307 22.493s-22.493 33.936-22.493 54.307v76.8h-76.801c-20.369 0-39.903 8.090-54.306 22.493s-22.494 33.936-22.494 54.307v256c0 33.946 13.486 66.504 37.491 90.508 24.005 24.006 56.562 37.492 90.509 37.492h25.601v25.599zM307.202 704.002h409.6v25.599c0 6.789-2.697 13.301-7.498 18.102s-11.313 7.498-18.102 7.498h-358.4c-6.791 0-13.303-2.697-18.104-7.498s-7.496-11.312-7.496-18.102v-25.599zM256.002 294.402v76.8c0 20.368 8.090 39.901 22.493 54.305s33.936 22.495 54.307 22.495h358.4c20.368 0 39.901-8.092 54.305-22.495s22.495-33.936 22.495-54.305v-76.8h76.8c6.789 0 13.3 2.695 18.102 7.496s7.498 11.313 7.498 18.104v256c0 20.368-8.092 39.901-22.495 54.305s-33.936 22.495-54.305 22.495h-563.201c-20.369 0-39.903-8.092-54.306-22.495s-22.494-33.936-22.494-54.305v-256c0-6.791 2.697-13.303 7.498-18.104s11.312-7.496 18.102-7.496h76.801zM332.802 396.802c-6.791 0-13.303-2.697-18.104-7.498s-7.496-11.313-7.496-18.102v-204.8c0-6.791 2.695-13.303 7.496-18.104s11.313-7.496 18.104-7.496h358.4c6.789 0 13.3 2.695 18.102 7.496s7.498 11.313 7.498 18.104v204.8c0 6.789-2.697 13.3-7.498 18.102s-11.313 7.498-18.102 7.498h-358.4z" />
<glyph unicode="&#xe90f;" glyph-name="publications" d="M332.8 448c-6.789 0-13.302-2.698-18.102-7.498s-7.498-11.313-7.498-18.102c0-6.789 2.698-13.302 7.498-18.102s11.313-7.498 18.102-7.498h358.4c6.789 0 13.302 2.698 18.102 7.498s7.498 11.313 7.498 18.102c0 6.789-2.698 13.302-7.498 18.102s-11.313 7.498-18.102 7.498h-358.4zM332.8 345.6c-6.789 0-13.302-2.698-18.102-7.498s-7.498-11.313-7.498-18.102c0-6.789 2.698-13.302 7.498-18.102s11.313-7.498 18.102-7.498h358.4c6.789 0 13.302 2.698 18.102 7.498s7.498 11.313 7.498 18.102c0 6.789-2.698 13.302-7.498 18.102s-11.313 7.498-18.102 7.498h-358.4zM332.8 243.2c-6.789 0-13.302-2.698-18.102-7.498s-7.498-11.313-7.498-18.102c0-6.789 2.698-13.302 7.498-18.102s11.313-7.498 18.102-7.498h358.4c6.789 0 13.302 2.698 18.102 7.498s7.498 11.313 7.498 18.102c0 6.789-2.698 13.302-7.498 18.102s-11.313 7.498-18.102 7.498h-358.4zM204.8 755.2c0 27.158 10.789 53.204 29.992 72.408s45.249 29.992 72.408 29.992h234.803c20.362-0.018 39.882-8.121 54.272-22.528l200.448-200.397c14.387-14.397 22.472-33.917 22.477-54.272v-439.603c0-27.159-10.788-53.204-29.993-72.407-19.203-19.205-45.248-29.993-72.407-29.993h-409.6c-27.159 0-53.204 10.788-72.408 29.993-19.204 19.203-29.992 45.248-29.992 72.407v614.4zM307.2 806.4c-13.578 0-26.601-5.394-36.204-14.996s-14.996-22.625-14.996-36.204v-614.4c0-13.578 5.394-26.601 14.996-36.204s22.625-14.996 36.204-14.996h409.6c13.578 0 26.601 5.394 36.204 14.996s14.996 22.625 14.996 36.204v409.6h-179.2c-20.367 0-39.903 8.092-54.305 22.495s-22.495 33.938-22.495 54.305v179.2h-204.8zM588.8 601.6h168.602l-194.202 194.202v-168.602c0-6.789 2.698-13.302 7.498-18.102s11.313-7.498 18.102-7.498z" />
<glyph unicode="&#xe911;" glyph-name="refresh" d="M224 447.974c0.002 58.327 17.711 115.277 50.788 163.318 33.077 48.039 79.959 84.905 134.445 105.716 54.487 20.813 114.009 24.592 170.689 10.835 56.68-13.755 107.849-44.396 146.733-87.869h-70.656c-12.731 0-24.94-5.057-33.942-14.058s-14.058-21.211-14.058-33.942c0-12.729 5.057-24.938 14.058-33.94s21.211-14.060 33.942-14.060h192c12.731 0 24.94 5.059 33.942 14.060s14.058 21.211 14.058 33.94v192.001c0 12.73-5.057 24.939-14.058 33.941s-21.211 14.059-33.942 14.059c-12.731 0-24.94-5.057-33.942-14.059s-14.058-21.211-14.058-33.941v-81.984c-59.445 67.404-140.648 111.823-229.472 125.521-88.822 13.698-179.635-4.192-256.626-50.556-76.989-46.364-135.279-118.263-164.717-203.178-29.438-84.913-28.16-177.463 3.613-261.534 31.772-84.068 92.026-154.331 170.267-198.55s169.513-59.595 257.924-43.449c88.411 16.148 168.357 62.791 225.918 131.812s89.088 156.044 89.094 245.916c0 12.731-5.057 24.94-14.058 33.942s-21.211 14.058-33.942 14.058c-12.731 0-24.94-5.057-33.942-14.058s-14.058-21.211-14.058-33.942c0-76.381-30.342-149.636-84.354-203.646-54.010-54.010-127.264-84.354-203.646-84.354s-149.636 30.344-203.646 84.354c-54.012 54.010-84.354 127.265-84.354 203.646v0z" />
<glyph unicode="&#xe912;" glyph-name="save" d="M153.6 704c0 27.158 10.789 53.204 29.992 72.408s45.249 29.992 72.408 29.992h429.005c27.157-0.006 53.197-10.798 72.397-30.003l82.995-82.995c19.205-19.2 29.999-45.24 30.003-72.397v-429.005c0-27.159-10.789-53.204-29.992-72.408-19.205-19.202-45.249-29.992-72.408-29.992h-512c-27.158 0-53.204 10.789-72.408 29.992-19.204 19.205-29.992 45.249-29.992 72.408v512zM256 755.2c-13.58 0-26.602-5.394-36.204-14.996s-14.996-22.624-14.996-36.204v-512c0-13.58 5.394-26.603 14.996-36.203 9.602-9.602 22.624-14.997 36.204-14.997v230.4c0 20.368 8.092 39.903 22.495 54.305 14.401 14.403 33.936 22.495 54.305 22.495h358.4c20.368 0 39.903-8.092 54.307-22.495 14.401-14.401 22.493-33.936 22.493-54.305v-230.4c13.58 0 26.603 5.395 36.203 14.997 9.602 9.6 14.997 22.623 14.997 36.203v429.005c-0.002 13.577-5.399 26.598-15.002 36.198l-82.995 82.995c-9.6 9.603-22.621 14.999-36.198 15.002h-19.405v-128c0-20.368-8.092-39.903-22.493-54.307-14.403-14.401-33.939-22.493-54.307-22.493h-204.8c-20.368 0-39.903 8.092-54.305 22.493-14.403 14.403-22.495 33.939-22.495 54.307v128h-51.2zM358.4 755.2v-128c0-6.789 2.697-13.3 7.498-18.102s11.313-7.498 18.102-7.498h204.8c6.789 0 13.3 2.697 18.102 7.498s7.498 11.313 7.498 18.102v128h-256zM716.8 140.8v230.4c0 6.789-2.697 13.3-7.498 18.102s-11.313 7.498-18.102 7.498h-358.4c-6.789 0-13.3-2.697-18.102-7.498s-7.498-11.313-7.498-18.102v-230.4h409.6z" />
<glyph unicode="&#xe913;" glyph-name="search" d="M435.192 806.4c53.521 0.009 105.935-15.234 151.104-43.944s81.224-69.698 103.936-118.161c22.707-48.463 31.14-102.395 24.3-155.478s-28.662-103.117-62.915-144.241l211.302-211.251c4.531-4.516 7.214-10.568 7.511-16.957 0.292-6.395-1.818-12.667-5.914-17.582-4.101-4.915-9.892-8.115-16.236-8.97-6.339-0.86-12.774 0.691-18.028 4.342l-3.584 2.918-211.251 211.302c-34.76-28.933-75.971-49.070-120.151-58.706-44.182-9.641-90.036-8.494-133.683 3.333-43.646 11.832-83.803 33.997-117.071 64.63-33.269 30.628-58.671 68.818-74.059 111.34-15.388 42.525-20.309 88.128-14.347 132.955s22.633 87.558 48.601 124.58c25.969 37.022 60.471 67.245 100.589 88.114s84.673 31.769 129.894 31.778zM435.192 755.2c-61.106 0-119.709-24.274-162.917-67.483s-67.483-101.812-67.483-162.917c0-61.106 24.274-119.711 67.483-162.918s101.812-67.482 162.917-67.482c61.106 0 119.708 24.274 162.916 67.482s67.487 101.813 67.487 162.918c0 61.106-24.279 119.709-67.487 162.917s-101.81 67.483-162.916 67.483z" />
<glyph unicode="&#xe914;" glyph-name="secure-transactions" d="M266.675 810.7c-8.486 0-16.626-3.372-22.628-9.373s-9.373-14.14-9.373-22.627v-661.334c0-17.664 14.336-32 32-32h161.28c-4.408-22.021-0.292-44.897 11.52-64h-172.8c-25.461 0-49.879 10.115-67.882 28.119-18.003 18.002-28.118 42.422-28.118 67.881v661.334c0 25.461 10.114 49.879 28.118 67.882s42.422 28.118 67.882 28.118h259.668c19.799 0 38.784-7.851 52.78-21.888l252.332-252.331c14.036-13.996 21.888-32.98 21.888-52.78v-14.336h-5.548c-4.718 0.238-9.446 0.238-14.164 0h-236.288c-22.633 0-44.337 8.991-60.342 24.993-16.003 16.005-24.993 37.709-24.993 60.342v191.999h-245.332zM576.008 765.473v-146.772c0-5.658 2.248-11.085 6.249-15.086s9.426-6.249 15.086-6.249h146.772l-168.108 168.108zM841.096 490.701h0.087c19.282-0.018 38.126-5.747 54.152-16.468s28.516-25.951 35.889-43.768c7.373-17.815 9.3-37.417 5.54-56.328s-13.043-36.283-26.675-49.923l-251.817-251.817c-14.674-14.694-33.065-25.121-53.207-30.167l-78.121-19.497c-7.77-1.94-15.908-1.838-23.624 0.302-7.716 2.138-14.748 6.236-20.411 11.899-5.66 5.663-9.761 12.692-11.899 20.408-2.138 7.718-2.243 15.857-0.302 23.624l19.5 78.080c5.033 20.183 15.444 38.572 30.164 53.248l251.82 251.82c9.037 9.068 19.776 16.261 31.601 21.169 11.825 4.905 24.502 7.427 37.304 7.419z" />
<glyph unicode="&#xe915;" glyph-name="triangle" d="M256 652.8l256-256 256 256 102.4-51.2-358.4-358.4-358.4 358.4 102.4 51.2z" />
<glyph unicode="&#xe916;" glyph-name="long-arrow" horiz-adv-x="3200" d="M3117.261 402.746c24.986 24.993 24.986 65.516 0 90.509l-407.296 407.294c-24.998 24.994-65.523 24.994-90.509 0-24.998-24.994-24.998-65.516 0-90.509l362.035-362.039-362.035-362.039c-24.998-24.993-24.998-65.516 0-90.509 24.986-24.995 65.51-24.995 90.509 0l407.296 407.293zM0 384h3072v128h-3072v-128z" />
<glyph unicode="&#xe917;" glyph-name="doc-print" d="M236.308 21.332h551.383v170.668h-551.383v-170.668zM236.308 448h551.383v256h-98.461c-16.411 0-30.359 6.222-41.845 18.667s-17.23 27.556-17.23 45.333v106.667h-393.847v-426.667zM945.23 405.332c0 11.556-3.897 21.555-11.692 30s-17.026 12.667-27.693 12.667c-10.665 0-19.896-4.222-27.69-12.667-7.797-8.445-11.695-18.444-11.695-30 0-11.553 3.897-21.555 11.695-30 7.794-8.442 17.026-12.664 27.69-12.664 10.668 0 19.899 4.222 27.693 12.664 7.794 8.445 11.692 18.447 11.692 30zM1024 405.332v-277.332c0-5.777-1.949-10.779-5.846-14.999-3.897-4.222-8.514-6.334-13.845-6.334h-137.848v-106.668c0-17.778-5.743-32.888-17.23-45.333s-25.434-18.667-41.845-18.667h-590.769c-16.41 0-30.359 6.222-41.846 18.667s-17.231 27.555-17.231 45.333v106.668h-137.846c-5.333 0-9.949 2.111-13.846 6.334-3.897 4.219-5.846 9.222-5.846 14.999v277.332c0 35.111 11.59 65.223 34.769 90.335s50.974 37.665 83.385 37.665h39.385v362.668c0 17.778 5.743 32.889 17.231 45.333s25.436 18.667 41.846 18.667h413.539c16.408 0 34.461-4.444 54.155-13.333 19.691-8.889 35.28-19.555 46.767-32l93.539-101.333c11.487-12.445 21.332-29.333 29.539-50.667 8.204-21.334 12.306-40.889 12.306-58.667v-170.668h39.385c32.41 0 60.205-12.553 83.387-37.665 23.179-25.112 34.768-55.224 34.768-90.335z" />
<glyph unicode="&#xe918;" glyph-name="comment-text" d="M512-21.333c-11.316 0-22.168 4.494-30.17 12.498-8.001 7.999-12.497 18.853-12.497 30.168v128h-170.667c-22.632 0-44.337 8.988-60.34 24.991s-24.994 37.712-24.994 60.342v426.667c0 22.632 8.991 44.337 24.994 60.34s37.708 24.994 60.34 24.994h597.333c22.63 0 44.339-8.991 60.342-24.994s24.991-37.708 24.991-60.34v-426.667c0-22.63-8.988-44.339-24.991-60.342s-37.712-24.991-60.342-24.991h-174.933l-157.867-158.293c-8.533-7.68-18.773-12.373-29.867-12.373h-21.333zM554.667 234.667v-131.413l131.413 131.413h209.92v426.667h-597.333v-426.667h256zM128 320h-85.333v512c0 22.632 8.99 44.337 24.994 60.34s37.708 24.994 60.34 24.994h682.667v-85.333h-682.667v-512zM384 576h426.667v-85.333h-426.667v85.333zM384 405.333h341.333v-85.333h-341.333v85.333z" />
<glyph unicode="&#xe919;" glyph-name="eye" d="M512 734.722c-335.923 0-512-247.398-512-286.72 0-39.219 176.077-286.722 512-286.722 335.872 0 512 247.503 512 286.722 0 39.322-176.128 286.72-512 286.72zM512 227.482c-125.696 0-227.584 98.714-227.584 220.521 0 121.805 101.888 220.621 227.584 220.621s227.533-98.816 227.533-220.621c0-121.807-101.837-220.521-227.533-220.521zM512 448.002c-20.838 22.886 33.946 110.285 0 110.285-62.874 0-113.818-49.408-113.818-110.285 0-60.879 50.944-110.287 113.818-110.287 62.822 0 113.818 49.408 113.818 110.287 0 28.006-96.102-19.405-113.818 0z" />
</font>
</defs>
</svg>
