<svg width="219" height="148" viewBox="0 0 219 148" fill="none" xmlns="http://www.w3.org/2000/svg">
<path d="M103.469 74.0908C103.469 85.5492 102.557 95.8031 100.734 104.853C98.9115 113.837 95.9818 121.487 91.9453 127.802C87.974 134.117 82.7005 138.935 76.125 142.255C69.5495 145.575 61.4766 147.235 51.9062 147.235C39.9922 147.235 30.2266 144.338 22.6094 138.544C14.9922 132.685 9.36068 124.319 5.71484 113.446C2.13411 102.509 0.34375 89.3903 0.34375 74.0908C0.34375 58.6611 1.97135 45.4775 5.22656 34.54C8.54688 23.5374 13.9831 15.1064 21.5352 9.24707C29.0872 3.3877 39.2109 0.458008 51.9062 0.458008C63.8203 0.458008 73.5534 3.3877 81.1055 9.24707C88.7227 15.0413 94.3542 23.4398 98 34.4424C101.646 45.3799 103.469 58.596 103.469 74.0908ZM38.7227 74.0908C38.7227 83.4007 39.0482 91.2132 39.6992 97.5283C40.4154 103.843 41.7174 108.596 43.6055 111.786C45.5586 114.911 48.3255 116.474 51.9062 116.474C55.487 116.474 58.2214 114.911 60.1094 111.786C61.9974 108.596 63.2995 103.876 64.0156 97.626C64.7318 91.3109 65.0898 83.4658 65.0898 74.0908C65.0898 64.6507 64.7318 56.7731 64.0156 50.458C63.2995 44.1429 61.9974 39.3903 60.1094 36.2002C58.2214 32.945 55.487 31.3174 51.9062 31.3174C48.3255 31.3174 45.5586 32.945 43.6055 36.2002C41.7174 39.3903 40.4154 44.1429 39.6992 50.458C39.0482 56.7731 38.7227 64.6507 38.7227 74.0908ZM175.344 51.7275C183.286 51.7275 190.513 53.5179 197.023 57.0986C203.534 60.6794 208.742 65.8877 212.648 72.7236C216.555 79.5596 218.508 87.8929 218.508 97.7236C218.508 108.336 216.359 117.353 212.062 124.774C207.831 132.131 201.418 137.73 192.824 141.571C184.296 145.347 173.521 147.235 160.5 147.235C152.232 147.235 144.68 146.584 137.844 145.282C131.073 144.045 125.018 142.125 119.68 139.521V107.88C124.693 110.159 130.715 112.242 137.746 114.13C144.842 115.953 151.353 116.864 157.277 116.864C162.03 116.864 166.066 116.181 169.387 114.813C172.707 113.446 175.214 111.428 176.906 108.759C178.664 106.09 179.543 102.802 179.543 98.8955C179.543 93.4919 177.59 89.2601 173.684 86.2002C169.777 83.0752 163.853 81.5127 155.91 81.5127C152.329 81.5127 148.814 81.8708 145.363 82.5869C141.913 83.3031 138.885 84.0843 136.281 84.9307L122.121 77.8994L127.492 2.50879H208.938V34.6377H160.305L158.547 53.4854C160.63 53.0947 162.746 52.7041 164.895 52.3135C167.108 51.9229 170.591 51.7275 175.344 51.7275Z" fill="url(#paint0_linear_543_24489)"/>
<defs>
<linearGradient id="paint0_linear_543_24489" x1="110" y1="-33.2178" x2="110" y2="180.782" gradientUnits="userSpaceOnUse">
<stop stop-color="#CC7F31"/>
<stop offset="1" stop-color="white" stop-opacity="0"/>
</linearGradient>
</defs>
</svg>
