<svg width="96" height="96" viewBox="0 0 96 96" fill="none" xmlns="http://www.w3.org/2000/svg">
<g filter="url(#filter0_dd_1_26778)">
<circle cx="50" cy="50" r="34" transform="rotate(-180 50 50)" fill="url(#paint0_linear_1_26778)"/>
<circle cx="50" cy="50" r="33.5" transform="rotate(-180 50 50)" stroke="url(#paint1_linear_1_26778)"/>
</g>
<path d="M62 53V50C62 48.9391 61.5786 47.9217 60.8284 47.1716C60.0783 46.4214 59.0609 46 58 46C56.9391 46 55.9217 46.4214 55.1716 47.1716C54.4214 47.9217 54 48.9391 54 50V53C53.4697 53.0005 52.9613 53.2114 52.5864 53.5864C52.2114 53.9613 52.0005 54.4697 52 55V60C52.0005 60.5303 52.2114 61.0387 52.5864 61.4136C52.9613 61.7886 53.4697 61.9995 54 62H62C62.5303 61.9995 63.0387 61.7886 63.4136 61.4136C63.7886 61.0387 63.9995 60.5303 64 60V55C63.9995 54.4697 63.7886 53.9613 63.4136 53.5864C63.0387 53.2114 62.5303 53.0005 62 53ZM56 50C56 49.4696 56.2107 48.9609 56.5858 48.5858C56.9609 48.2107 57.4696 48 58 48C58.5304 48 59.0391 48.2107 59.4142 48.5858C59.7893 48.9609 60 49.4696 60 50V53H56V50ZM54 60V55H62V60H54Z" fill="#CC7F31"/>
<path d="M57.499 41.085L50.707 34.293C50.5195 34.1055 50.2652 34.0001 50 34H40C39.4701 34.0016 38.9623 34.2128 38.5875 34.5875C38.2128 34.9623 38.0016 35.4701 38 36V60C38.0016 60.5299 38.2128 61.0377 38.5875 61.4125C38.9623 61.7872 39.4701 61.9984 40 62H48V60H40V36H48V42C48.0005 42.5303 48.2114 43.0387 48.5864 43.4136C48.9613 43.7886 49.4697 43.9995 50 44H56.292C56.6296 43.9997 56.9595 43.8994 57.2401 43.7117C57.5207 43.524 57.7394 43.2573 57.8686 42.9454C57.9977 42.6335 58.0316 42.2903 57.9658 41.9592C57.9 41.6281 57.7376 41.3239 57.499 41.085ZM50 42V36.414L55.585 42H50Z" fill="#CC7F31"/>
<defs>
<filter id="filter0_dd_1_26778" x="0" y="0" width="96" height="96" filterUnits="userSpaceOnUse" color-interpolation-filters="sRGB">
<feFlood flood-opacity="0" result="BackgroundImageFix"/>
<feColorMatrix in="SourceAlpha" type="matrix" values="0 0 0 0 0 0 0 0 0 0 0 0 0 0 0 0 0 0 127 0" result="hardAlpha"/>
<feOffset dx="4" dy="4"/>
<feGaussianBlur stdDeviation="4"/>
<feComposite in2="hardAlpha" operator="out"/>
<feColorMatrix type="matrix" values="0 0 0 0 0.0862745 0 0 0 0 0.0901961 0 0 0 0 0.105882 0 0 0 0.2 0"/>
<feBlend mode="normal" in2="BackgroundImageFix" result="effect1_dropShadow_1_26778"/>
<feColorMatrix in="SourceAlpha" type="matrix" values="0 0 0 0 0 0 0 0 0 0 0 0 0 0 0 0 0 0 127 0" result="hardAlpha"/>
<feOffset dx="-4" dy="-4"/>
<feGaussianBlur stdDeviation="6"/>
<feComposite in2="hardAlpha" operator="out"/>
<feColorMatrix type="matrix" values="0 0 0 0 0.991667 0 0 0 0 0.991667 0 0 0 0 0.991667 0 0 0 0.55 0"/>
<feBlend mode="normal" in2="effect1_dropShadow_1_26778" result="effect2_dropShadow_1_26778"/>
<feBlend mode="normal" in="SourceGraphic" in2="effect2_dropShadow_1_26778" result="shape"/>
</filter>
<linearGradient id="paint0_linear_1_26778" x1="28.75" y1="24.5" x2="74.65" y2="72.1" gradientUnits="userSpaceOnUse">
<stop stop-color="white"/>
<stop offset="1" stop-color="#DDDDDD"/>
</linearGradient>
<linearGradient id="paint1_linear_1_26778" x1="25.35" y1="26.2" x2="73.8" y2="71.25" gradientUnits="userSpaceOnUse">
<stop stop-color="#DDDDDD"/>
<stop offset="1" stop-color="white"/>
</linearGradient>
</defs>
</svg>
