<svg width="96" height="96" viewBox="0 0 96 96" fill="none" xmlns="http://www.w3.org/2000/svg">
<g filter="url(#filter0_dd_1_26788)">
<circle cx="50" cy="50" r="34" transform="rotate(-180 50 50)" fill="url(#paint0_linear_1_26788)"/>
<circle cx="50" cy="50" r="33.5" transform="rotate(-180 50 50)" stroke="url(#paint1_linear_1_26788)"/>
</g>
<path d="M57 64L54.861 62.987C54.0067 62.5797 53.2848 61.9393 52.7786 61.1396C52.2724 60.3399 52.0025 59.4134 52 58.467V52H62V58.468C61.9975 59.4144 61.7276 60.3409 61.2214 61.1406C60.7152 61.9403 59.9933 62.5807 59.139 62.988L57 64ZM54 54V58.468C54.0018 59.0356 54.1639 59.5912 54.4677 60.0706C54.7715 60.5501 55.2045 60.934 55.717 61.178L57 61.786L58.283 61.179C58.7956 60.9349 59.2288 60.5509 59.5326 60.0712C59.8364 59.5915 59.9984 59.0358 60 58.468V54H54Z" fill="#CC7F31"/>
<path d="M50 62H40V38H48V44C48.0016 44.5299 48.2128 45.0377 48.5875 45.4124C48.9623 45.7872 49.4701 45.9984 50 46H56V49H58V44C58.0035 43.8686 57.9785 43.7379 57.9268 43.6171C57.875 43.4962 57.7976 43.3881 57.7 43.3L50.7 36.3C50.612 36.2023 50.5038 36.1249 50.3829 36.0731C50.2621 36.0213 50.1314 35.9964 50 36H40C39.4701 36.0016 38.9623 36.2128 38.5875 36.5875C38.2128 36.9622 38.0016 37.47 38 38V62C38.0016 62.5299 38.2128 63.0377 38.5875 63.4124C38.9623 63.7872 39.4701 63.9984 40 64H50V62ZM50 38.4L55.6 44H50V38.4Z" fill="#CC7F31"/>
<defs>
<filter id="filter0_dd_1_26788" x="0" y="0" width="96" height="96" filterUnits="userSpaceOnUse" color-interpolation-filters="sRGB">
<feFlood flood-opacity="0" result="BackgroundImageFix"/>
<feColorMatrix in="SourceAlpha" type="matrix" values="0 0 0 0 0 0 0 0 0 0 0 0 0 0 0 0 0 0 127 0" result="hardAlpha"/>
<feOffset dx="4" dy="4"/>
<feGaussianBlur stdDeviation="4"/>
<feComposite in2="hardAlpha" operator="out"/>
<feColorMatrix type="matrix" values="0 0 0 0 0.0862745 0 0 0 0 0.0901961 0 0 0 0 0.105882 0 0 0 0.2 0"/>
<feBlend mode="normal" in2="BackgroundImageFix" result="effect1_dropShadow_1_26788"/>
<feColorMatrix in="SourceAlpha" type="matrix" values="0 0 0 0 0 0 0 0 0 0 0 0 0 0 0 0 0 0 127 0" result="hardAlpha"/>
<feOffset dx="-4" dy="-4"/>
<feGaussianBlur stdDeviation="6"/>
<feComposite in2="hardAlpha" operator="out"/>
<feColorMatrix type="matrix" values="0 0 0 0 0.991667 0 0 0 0 0.991667 0 0 0 0 0.991667 0 0 0 0.55 0"/>
<feBlend mode="normal" in2="effect1_dropShadow_1_26788" result="effect2_dropShadow_1_26788"/>
<feBlend mode="normal" in="SourceGraphic" in2="effect2_dropShadow_1_26788" result="shape"/>
</filter>
<linearGradient id="paint0_linear_1_26788" x1="28.75" y1="24.5" x2="74.65" y2="72.1" gradientUnits="userSpaceOnUse">
<stop stop-color="white"/>
<stop offset="1" stop-color="#DDDDDD"/>
</linearGradient>
<linearGradient id="paint1_linear_1_26788" x1="25.35" y1="26.2" x2="73.8" y2="71.25" gradientUnits="userSpaceOnUse">
<stop stop-color="#DDDDDD"/>
<stop offset="1" stop-color="white"/>
</linearGradient>
</defs>
</svg>
