<svg width="96" height="96" viewBox="0 0 96 96" fill="none" xmlns="http://www.w3.org/2000/svg">
<g filter="url(#filter0_d_1_26798)">
<g filter="url(#filter1_dd_1_26798)">
<circle cx="50" cy="50" r="34" transform="rotate(-180 50 50)" fill="url(#paint0_linear_1_26798)"/>
<circle cx="50" cy="50" r="33.5" transform="rotate(-180 50 50)" stroke="url(#paint1_linear_1_26798)"/>
</g>
<path d="M53.2501 55.3626C54.1367 54.6833 54.7881 53.7433 55.1128 52.6747C55.4376 51.6061 55.4194 50.4626 55.0608 49.4049C54.7021 48.3472 54.0211 47.4284 53.1134 46.7777C52.2056 46.127 51.1169 45.7771 50 45.7771C48.8831 45.7771 47.7944 46.127 46.8866 46.7777C45.9789 47.4284 45.2979 48.3472 44.9392 49.4049C44.5806 50.4626 44.5624 51.6061 44.8872 52.6747C45.2119 53.7433 45.8633 54.6833 46.7499 55.3626C45.0864 55.9831 43.6369 57.0699 42.5751 58.4929C42.5086 58.5815 42.4601 58.6823 42.4325 58.7896C42.405 58.8969 42.3988 59.0086 42.4143 59.1183C42.4299 59.2281 42.467 59.3336 42.5233 59.429C42.5797 59.5244 42.6543 59.6077 42.7429 59.6743C42.8315 59.7409 42.9323 59.7893 43.0396 59.8169C43.1469 59.8445 43.2586 59.8507 43.3683 59.8351C43.478 59.8195 43.5836 59.7825 43.679 59.7261C43.7744 59.6697 43.8577 59.5951 43.9243 59.5065C44.6317 58.5634 45.549 57.7978 46.6036 57.2706C47.6581 56.7433 48.8209 56.4688 49.9999 56.4688C51.1789 56.4688 52.3418 56.7432 53.3963 57.2704C54.4509 57.7976 55.3682 58.5631 56.0757 59.5063C56.1418 59.5961 56.225 59.6719 56.3206 59.7294C56.4162 59.7868 56.5222 59.8248 56.6325 59.841C56.7428 59.8572 56.8553 59.8514 56.9633 59.8239C57.0714 59.7965 57.1729 59.7478 57.2621 59.6808C57.3513 59.6139 57.4263 59.5299 57.4828 59.4338C57.5393 59.3376 57.5761 59.2312 57.5913 59.1208C57.6064 59.0103 57.5995 58.8979 57.5709 58.7901C57.5424 58.6823 57.4927 58.5813 57.4249 58.4928C56.3631 57.0697 54.9137 55.9829 53.2501 55.3625V55.3626ZM50 47.4688C50.7231 47.4688 51.43 47.6832 52.0313 48.0849C52.6326 48.4867 53.1012 49.0577 53.3779 49.7258C53.6547 50.3939 53.7271 51.1291 53.586 51.8383C53.4449 52.5475 53.0967 53.199 52.5854 53.7104C52.074 54.2217 51.4225 54.5699 50.7133 54.711C50.0041 54.8521 49.2689 54.7797 48.6008 54.5029C47.9327 54.2262 47.3617 53.7576 46.9599 53.1563C46.5582 52.555 46.3438 51.8481 46.3438 51.125C46.3449 50.1556 46.7304 49.2263 47.4159 48.5409C48.1013 47.8554 49.0306 47.4699 50 47.4688ZM60.125 35.6562H39.875C39.353 35.6568 38.8526 35.8645 38.4835 36.2335C38.1145 36.6026 37.9068 37.103 37.9062 37.625V62.375C37.9068 62.897 38.1145 63.3974 38.4835 63.7665C38.8526 64.1355 39.353 64.3432 39.875 64.3438H60.125C60.647 64.3432 61.1474 64.1355 61.5165 63.7665C61.8855 63.3974 62.0932 62.897 62.0938 62.375V37.625C62.0932 37.103 61.8855 36.6026 61.5165 36.2335C61.1474 35.8645 60.647 35.6568 60.125 35.6562ZM60.4062 62.375C60.4062 62.4496 60.3765 62.5211 60.3238 62.5738C60.2711 62.6265 60.1996 62.6562 60.125 62.6562H39.875C39.8004 62.6562 39.7289 62.6265 39.6762 62.5738C39.6235 62.5211 39.5938 62.4496 39.5938 62.375V37.625C39.5938 37.5504 39.6235 37.4789 39.6762 37.4262C39.7289 37.3735 39.8004 37.3438 39.875 37.3438H60.125C60.1996 37.3438 60.2711 37.3735 60.3238 37.4262C60.3765 37.4789 60.4062 37.5504 60.4062 37.625V62.375ZM44.6562 41C44.6562 40.7762 44.7451 40.5616 44.9034 40.4034C45.0616 40.2451 45.2762 40.1562 45.5 40.1562H54.5C54.7238 40.1562 54.9384 40.2451 55.0966 40.4034C55.2549 40.5616 55.3438 40.7762 55.3438 41C55.3438 41.2238 55.2549 41.4384 55.0966 41.5966C54.9384 41.7549 54.7238 41.8438 54.5 41.8438H45.5C45.2762 41.8438 45.0616 41.7549 44.9034 41.5966C44.7451 41.4384 44.6562 41.2238 44.6562 41Z" fill="#CC7F31"/>
</g>
<defs>
<filter id="filter0_d_1_26798" x="12" y="16" width="76" height="76" filterUnits="userSpaceOnUse" color-interpolation-filters="sRGB">
<feFlood flood-opacity="0" result="BackgroundImageFix"/>
<feColorMatrix in="SourceAlpha" type="matrix" values="0 0 0 0 0 0 0 0 0 0 0 0 0 0 0 0 0 0 127 0" result="hardAlpha"/>
<feOffset dy="4"/>
<feGaussianBlur stdDeviation="2"/>
<feComposite in2="hardAlpha" operator="out"/>
<feColorMatrix type="matrix" values="0 0 0 0 0 0 0 0 0 0 0 0 0 0 0 0 0 0 0.25 0"/>
<feBlend mode="normal" in2="BackgroundImageFix" result="effect1_dropShadow_1_26798"/>
<feBlend mode="normal" in="SourceGraphic" in2="effect1_dropShadow_1_26798" result="shape"/>
</filter>
<filter id="filter1_dd_1_26798" x="0" y="0" width="96" height="96" filterUnits="userSpaceOnUse" color-interpolation-filters="sRGB">
<feFlood flood-opacity="0" result="BackgroundImageFix"/>
<feColorMatrix in="SourceAlpha" type="matrix" values="0 0 0 0 0 0 0 0 0 0 0 0 0 0 0 0 0 0 127 0" result="hardAlpha"/>
<feOffset dx="4" dy="4"/>
<feGaussianBlur stdDeviation="4"/>
<feComposite in2="hardAlpha" operator="out"/>
<feColorMatrix type="matrix" values="0 0 0 0 0.0862745 0 0 0 0 0.0901961 0 0 0 0 0.105882 0 0 0 0.2 0"/>
<feBlend mode="normal" in2="BackgroundImageFix" result="effect1_dropShadow_1_26798"/>
<feColorMatrix in="SourceAlpha" type="matrix" values="0 0 0 0 0 0 0 0 0 0 0 0 0 0 0 0 0 0 127 0" result="hardAlpha"/>
<feOffset dx="-4" dy="-4"/>
<feGaussianBlur stdDeviation="6"/>
<feComposite in2="hardAlpha" operator="out"/>
<feColorMatrix type="matrix" values="0 0 0 0 0.991667 0 0 0 0 0.991667 0 0 0 0 0.991667 0 0 0 0.55 0"/>
<feBlend mode="normal" in2="effect1_dropShadow_1_26798" result="effect2_dropShadow_1_26798"/>
<feBlend mode="normal" in="SourceGraphic" in2="effect2_dropShadow_1_26798" result="shape"/>
</filter>
<linearGradient id="paint0_linear_1_26798" x1="28.75" y1="24.5" x2="74.65" y2="72.1" gradientUnits="userSpaceOnUse">
<stop stop-color="white"/>
<stop offset="1" stop-color="#DDDDDD"/>
</linearGradient>
<linearGradient id="paint1_linear_1_26798" x1="25.35" y1="26.2" x2="73.8" y2="71.25" gradientUnits="userSpaceOnUse">
<stop stop-color="#DDDDDD"/>
<stop offset="1" stop-color="white"/>
</linearGradient>
</defs>
</svg>
