<svg width="96" height="96" viewBox="0 0 96 96" fill="none" xmlns="http://www.w3.org/2000/svg">
<g filter="url(#filter0_dd_1_26807)">
<circle cx="50" cy="50" r="34" transform="rotate(-180 50 50)" fill="url(#paint0_linear_1_26807)"/>
<circle cx="50" cy="50" r="33.5" transform="rotate(-180 50 50)" stroke="url(#paint1_linear_1_26807)"/>
</g>
<path d="M49.5836 49.7075L43.6931 46.3859L45.7404 42.7955L51.6323 46.1152L49.5836 49.7075ZM61.3405 52.7718L51.3872 47.1654L50.3638 48.9626L60.3158 54.5696L61.3405 52.7718ZM62.5488 53.4534L61.5222 55.2493L66.655 58.1382L67.6816 56.3443L62.5488 53.4534ZM61.1664 55.2493C61.0877 55.3894 60.8726 55.4227 60.6857 55.3203C60.4995 55.2154 60.4169 55.0163 60.4963 54.8742L61.6963 52.7718C61.7789 52.6291 61.9939 52.5946 62.1789 52.7008C62.3625 52.8058 62.4457 53.0093 62.3664 53.152L61.1664 55.2493ZM68.7388 56.4006C68.5412 56.291 68.3178 56.2362 68.0918 56.2419L66.7792 58.5408C66.8848 58.7334 67.0422 58.9018 67.2496 59.0144C67.8281 59.3421 68.5558 59.1533 68.8739 58.5971L69.2105 58.0019C69.5292 57.4419 69.3193 56.7283 68.7388 56.4006ZM52.2019 45.4234C52.1648 45.4892 52.1151 45.5472 52.0556 45.5938C51.9961 45.6405 51.9281 45.6749 51.8552 45.6953C51.7824 45.7156 51.7063 45.7214 51.6313 45.7123C51.5562 45.7032 51.4837 45.6794 51.4179 45.6422L46.262 42.7354C46.1961 42.6986 46.1381 42.649 46.0914 42.5896C46.0447 42.5302 46.0103 42.4621 45.9901 42.3893C45.9699 42.3165 45.9644 42.2404 45.9738 42.1655C45.9832 42.0905 46.0075 42.0182 46.0451 41.9526C46.1215 41.8203 46.2471 41.7235 46.3946 41.6834C46.5421 41.6434 46.6994 41.6633 46.8323 41.7389L51.9868 44.6419C52.0526 44.6788 52.1104 44.7283 52.1569 44.7877C52.2034 44.847 52.2376 44.915 52.2576 44.9877C52.2776 45.0604 52.283 45.1364 52.2734 45.2111C52.2639 45.2859 52.2395 45.3581 52.2019 45.4234ZM52.9244 44.1613C52.849 44.2941 52.7239 44.3915 52.5768 44.4323C52.4296 44.4731 52.2722 44.4539 52.1392 44.3789L46.9814 41.4726C46.9156 41.4362 46.8577 41.3869 46.8112 41.3278C46.7646 41.2687 46.7303 41.201 46.7102 41.1284C46.6901 41.0559 46.6847 40.9802 46.6942 40.9055C46.7038 40.8309 46.7281 40.7589 46.7657 40.6938C46.8029 40.6276 46.8528 40.5694 46.9126 40.5226C46.9724 40.4758 47.0408 40.4412 47.1139 40.421C47.1871 40.4007 47.2635 40.3951 47.3389 40.4044C47.4142 40.4138 47.487 40.438 47.5529 40.4755L52.7088 43.3792C52.7746 43.4161 52.8325 43.4656 52.879 43.525C52.9256 43.5844 52.9599 43.6525 52.98 43.7252C53 43.7979 53.0054 43.874 52.9959 43.9488C52.9864 44.0237 52.9621 44.0959 52.9244 44.1613ZM48.5673 51.8054C48.4906 51.9373 48.3651 52.0336 48.2179 52.0736C48.0707 52.1136 47.9137 52.0941 47.7808 52.0192L42.6211 49.1123C42.5553 49.0753 42.4975 49.0257 42.4509 48.9663C42.4044 48.9068 42.3701 48.8388 42.35 48.766C42.3299 48.6932 42.3244 48.6172 42.3338 48.5423C42.3432 48.4674 42.3673 48.3951 42.4048 48.3296C42.4818 48.1982 42.6074 48.1022 42.7544 48.0622C42.9015 48.0222 43.0583 48.0415 43.1913 48.1158L48.3484 51.0227C48.4813 51.0975 48.5789 51.222 48.62 51.3688C48.661 51.5155 48.6421 51.6726 48.5673 51.8054ZM49.288 50.5389C49.2503 50.605 49.2 50.6629 49.1399 50.7095C49.0798 50.7561 49.011 50.7903 48.9376 50.8102C48.8643 50.8301 48.7877 50.8354 48.7122 50.8256C48.6368 50.8158 48.5641 50.7913 48.4982 50.7533L43.3424 47.8496C43.2101 47.7743 43.1131 47.6497 43.0724 47.503C43.0318 47.3563 43.0508 47.1996 43.1254 47.0669C43.1631 47.0011 43.2133 46.9433 43.2733 46.8969C43.3332 46.8505 43.4018 46.8164 43.4749 46.7965C43.5481 46.7766 43.6244 46.7713 43.6997 46.7809C43.7749 46.7905 43.8474 46.8148 43.9132 46.8525L49.0684 49.7562C49.1343 49.7931 49.1922 49.8427 49.2388 49.9021C49.2855 49.9614 49.32 50.0294 49.3404 50.1021C49.3607 50.1747 49.3666 50.2507 49.3576 50.3257C49.3486 50.4006 49.325 50.4731 49.288 50.5389ZM40.6358 55.7094H49.7264V56.7546H40.6358V55.7094ZM51.7116 57.8893C51.683 57.7172 51.5943 57.5609 51.4614 57.4481C51.3284 57.3352 51.1597 57.2732 50.9852 57.273H39.3795C39.205 57.2729 39.0362 57.3349 38.9031 57.4478C38.7701 57.5606 38.6815 57.7171 38.6531 57.8893H38.6396V59.6006H51.7251V57.8893H51.7116Z" fill="#CC7F31"/>
<defs>
<filter id="filter0_dd_1_26807" x="0" y="0" width="96" height="96" filterUnits="userSpaceOnUse" color-interpolation-filters="sRGB">
<feFlood flood-opacity="0" result="BackgroundImageFix"/>
<feColorMatrix in="SourceAlpha" type="matrix" values="0 0 0 0 0 0 0 0 0 0 0 0 0 0 0 0 0 0 127 0" result="hardAlpha"/>
<feOffset dx="4" dy="4"/>
<feGaussianBlur stdDeviation="4"/>
<feComposite in2="hardAlpha" operator="out"/>
<feColorMatrix type="matrix" values="0 0 0 0 0.0862745 0 0 0 0 0.0901961 0 0 0 0 0.105882 0 0 0 0.2 0"/>
<feBlend mode="normal" in2="BackgroundImageFix" result="effect1_dropShadow_1_26807"/>
<feColorMatrix in="SourceAlpha" type="matrix" values="0 0 0 0 0 0 0 0 0 0 0 0 0 0 0 0 0 0 127 0" result="hardAlpha"/>
<feOffset dx="-4" dy="-4"/>
<feGaussianBlur stdDeviation="6"/>
<feComposite in2="hardAlpha" operator="out"/>
<feColorMatrix type="matrix" values="0 0 0 0 0.991667 0 0 0 0 0.991667 0 0 0 0 0.991667 0 0 0 0.55 0"/>
<feBlend mode="normal" in2="effect1_dropShadow_1_26807" result="effect2_dropShadow_1_26807"/>
<feBlend mode="normal" in="SourceGraphic" in2="effect2_dropShadow_1_26807" result="shape"/>
</filter>
<linearGradient id="paint0_linear_1_26807" x1="28.75" y1="24.5" x2="74.65" y2="72.1" gradientUnits="userSpaceOnUse">
<stop stop-color="white"/>
<stop offset="1" stop-color="#DDDDDD"/>
</linearGradient>
<linearGradient id="paint1_linear_1_26807" x1="25.35" y1="26.2" x2="73.8" y2="71.25" gradientUnits="userSpaceOnUse">
<stop stop-color="#DDDDDD"/>
<stop offset="1" stop-color="white"/>
</linearGradient>
</defs>
</svg>
