<svg width="96" height="96" viewBox="0 0 96 96" fill="none" xmlns="http://www.w3.org/2000/svg">
<g filter="url(#filter0_dd_1_26816)">
<circle cx="50" cy="50" r="34" transform="rotate(-180 50 50)" fill="url(#paint0_linear_1_26816)"/>
<circle cx="50" cy="50" r="33.5" transform="rotate(-180 50 50)" stroke="url(#paint1_linear_1_26816)"/>
</g>
<path fill-rule="evenodd" clip-rule="evenodd" d="M53.1817 50.4447C52.9978 49.9247 52.6572 49.4745 52.2069 49.1561C51.7565 48.8377 51.2185 48.6667 50.667 48.6667V48H49.3337V48.6667C48.6264 48.6667 47.9481 48.9476 47.448 49.4477C46.9479 49.9478 46.667 50.6261 46.667 51.3333C46.667 52.0406 46.9479 52.7189 47.448 53.219C47.9481 53.719 48.6264 54 49.3337 54V56.6667C48.7537 56.6667 48.2597 56.2967 48.0757 55.778C48.0484 55.6931 48.0043 55.6146 47.9461 55.5471C47.888 55.4795 47.8168 55.4244 47.737 55.3848C47.6571 55.3452 47.5701 55.3221 47.4811 55.3167C47.3921 55.3113 47.303 55.3239 47.2189 55.3536C47.1349 55.3833 47.0576 55.4295 46.9918 55.4896C46.9259 55.5497 46.8728 55.6223 46.8355 55.7033C46.7982 55.7843 46.7775 55.8719 46.7747 55.961C46.7719 56.0501 46.7869 56.1388 46.819 56.222C47.0029 56.742 47.3434 57.1922 47.7938 57.5106C48.2441 57.829 48.7821 58 49.3337 58V58.6667H50.667V58C51.3742 58 52.0525 57.719 52.5526 57.219C53.0527 56.7189 53.3337 56.0406 53.3337 55.3333C53.3337 54.6261 53.0527 53.9478 52.5526 53.4477C52.0525 52.9476 51.3742 52.6667 50.667 52.6667V50C51.247 50 51.741 50.37 51.9243 50.8887C51.9832 51.0554 52.1059 51.1919 52.2654 51.2682C52.3444 51.3059 52.4301 51.3278 52.5175 51.3324C52.6049 51.3371 52.6924 51.3245 52.775 51.2953C52.8576 51.2662 52.9336 51.2211 52.9987 51.1625C53.0638 51.104 53.1167 51.0332 53.1545 50.9542C53.1923 50.8752 53.2141 50.7896 53.2188 50.7021C53.2234 50.6147 53.2108 50.5272 53.1817 50.4447ZM49.3337 50C48.98 50 48.6409 50.1405 48.3908 50.3905C48.1408 50.6406 48.0003 50.9797 48.0003 51.3333C48.0003 51.687 48.1408 52.0261 48.3908 52.2761C48.6409 52.5262 48.98 52.6667 49.3337 52.6667V50ZM50.667 56.6667C51.0206 56.6667 51.3598 56.5262 51.6098 56.2761C51.8598 56.0261 52.0003 55.687 52.0003 55.3333C52.0003 54.9797 51.8598 54.6406 51.6098 54.3905C51.3598 54.1405 51.0206 54 50.667 54V56.6667Z" fill="#CC7F31"/>
<path fill-rule="evenodd" clip-rule="evenodd" d="M42.769 39.7473C44.405 38.9467 47.089 38 50.0263 38C52.9023 38 55.5156 38.9073 57.143 39.6973L57.235 39.742C57.7256 39.9847 58.1216 40.214 58.4003 40.4L55.9376 44C61.615 49.804 66.0003 61.998 50.0263 61.998C34.0523 61.998 38.3196 50.0253 44.0463 44L41.5996 40.4C41.7883 40.2767 42.0276 40.1333 42.313 39.9813C42.4543 39.9053 42.6063 39.8273 42.769 39.748V39.7473ZM54.355 43.952L56.3263 41.07C54.493 41.202 52.3116 41.6327 50.2116 42.2407C48.7116 42.674 47.045 42.608 45.5016 42.3233C45.1127 42.2512 44.7265 42.1654 44.3436 42.066L45.6236 43.9507C48.367 44.9273 51.611 44.9273 54.355 43.952ZM44.8536 45.0867C48.0636 46.3267 51.9216 46.3267 55.1316 45.0853C56.4716 46.4978 57.5924 48.1029 58.457 49.8473C59.3583 51.686 59.849 53.524 59.769 55.108C59.6916 56.6367 59.0903 57.9427 57.717 58.9133C56.2856 59.9247 53.8783 60.6647 50.0256 60.6647C46.169 60.6647 43.7503 59.9373 42.3056 58.9373C40.9223 57.9787 40.315 56.6907 40.229 55.1827C40.139 53.616 40.619 51.7873 41.517 49.936C42.3736 48.1707 43.569 46.4713 44.8536 45.0867ZM44.087 40.6107C44.6203 40.7693 45.1776 40.9073 45.743 41.012C47.1763 41.276 48.6136 41.3147 49.8403 40.9593C51.2698 40.5429 52.7237 40.2154 54.1936 39.9787C52.967 39.6093 51.5323 39.3333 50.0256 39.3333C47.729 39.3333 45.587 39.974 44.087 40.6107Z" fill="#CC7F31"/>
<defs>
<filter id="filter0_dd_1_26816" x="0" y="0" width="96" height="96" filterUnits="userSpaceOnUse" color-interpolation-filters="sRGB">
<feFlood flood-opacity="0" result="BackgroundImageFix"/>
<feColorMatrix in="SourceAlpha" type="matrix" values="0 0 0 0 0 0 0 0 0 0 0 0 0 0 0 0 0 0 127 0" result="hardAlpha"/>
<feOffset dx="4" dy="4"/>
<feGaussianBlur stdDeviation="4"/>
<feComposite in2="hardAlpha" operator="out"/>
<feColorMatrix type="matrix" values="0 0 0 0 0.0862745 0 0 0 0 0.0901961 0 0 0 0 0.105882 0 0 0 0.2 0"/>
<feBlend mode="normal" in2="BackgroundImageFix" result="effect1_dropShadow_1_26816"/>
<feColorMatrix in="SourceAlpha" type="matrix" values="0 0 0 0 0 0 0 0 0 0 0 0 0 0 0 0 0 0 127 0" result="hardAlpha"/>
<feOffset dx="-4" dy="-4"/>
<feGaussianBlur stdDeviation="6"/>
<feComposite in2="hardAlpha" operator="out"/>
<feColorMatrix type="matrix" values="0 0 0 0 0.991667 0 0 0 0 0.991667 0 0 0 0 0.991667 0 0 0 0.55 0"/>
<feBlend mode="normal" in2="effect1_dropShadow_1_26816" result="effect2_dropShadow_1_26816"/>
<feBlend mode="normal" in="SourceGraphic" in2="effect2_dropShadow_1_26816" result="shape"/>
</filter>
<linearGradient id="paint0_linear_1_26816" x1="28.75" y1="24.5" x2="74.65" y2="72.1" gradientUnits="userSpaceOnUse">
<stop stop-color="white"/>
<stop offset="1" stop-color="#DDDDDD"/>
</linearGradient>
<linearGradient id="paint1_linear_1_26816" x1="25.35" y1="26.2" x2="73.8" y2="71.25" gradientUnits="userSpaceOnUse">
<stop stop-color="#DDDDDD"/>
<stop offset="1" stop-color="white"/>
</linearGradient>
</defs>
</svg>
