<svg width="14" height="14" viewBox="0 0 14 14" fill="none" xmlns="http://www.w3.org/2000/svg"> <path d="M1.43148 4.63137C1.59557 4.46733 1.81809 4.37518 2.0501 4.37518C2.28212 4.37518 2.50464 4.46733 2.66873 4.63137L6.99997 8.96262L11.3312 4.63137C11.4962 4.47198 11.7173 4.38379 11.9467 4.38578C12.1761 4.38777 12.3956 4.4798 12.5578 4.64203C12.72 4.80426 12.8121 5.02372 12.814 5.25315C12.816 5.48257 12.7278 5.70359 12.5685 5.86862L7.61859 10.8185C7.45451 10.9825 7.23199 11.0747 6.99997 11.0747C6.76795 11.0747 6.54543 10.9825 6.38135 10.8185L1.43148 5.86862C1.26744 5.70453 1.17529 5.48201 1.17529 5.25C1.17529 5.01798 1.26744 4.79546 1.43148 4.63137Z" fill="#CC7F31"/> </svg>