<svg width="462" height="485" viewBox="0 0 462 485" fill="none" xmlns="http://www.w3.org/2000/svg">
<path d="M206.491 382.239C115.92 386.942 84.6471 361.429 70.3284 315.952C52.4905 259.348 2.28247 281.462 0.059867 236.151C-2.16274 190.84 57.9046 168.684 113.028 157.197C183.952 142.408 312.108 129.575 337.326 147.61C362.544 165.646 349.009 194.003 366.248 210.443C383.488 226.884 451.391 220.946 461.564 263.163C471.651 304.783 304.457 377.189 206.491 382.239Z" fill="#FFF1D3"/>
<g style="mix-blend-mode:multiply" opacity="0.6">
<path d="M382.034 280.616C374.44 262.76 272.514 207.086 211.506 205.046C167.781 203.659 121.234 207.211 90.2319 248.984C68.134 278.687 85.7439 308.099 93.7795 321.237C109.053 346.21 149.345 370.71 236.083 365.702C315.855 361.096 400.413 323.734 382.034 280.616Z" fill="#E4BCE8"/>
</g>
<path d="M5.03248 248.623C5.23779 248.877 5.41453 249.151 5.55963 249.442C5.70392 249.746 5.82303 250.062 5.91582 250.385C6.0013 250.801 5.91582 251.107 5.64512 251.065C5.52451 251.03 5.4193 250.956 5.34592 250.857C5.14078 250.59 4.95964 250.307 4.80452 250.011C4.64937 249.694 4.52534 249.364 4.43408 249.025C4.43408 248.595 4.50532 248.318 4.74753 248.387C4.86764 248.432 4.96833 248.515 5.03248 248.623Z" fill="white"/>
<path d="M6.79881 251.911C7.03211 252.13 7.22917 252.382 7.38296 252.66C7.57715 252.926 7.74416 253.209 7.88162 253.506C8.0241 253.881 7.88162 254.2 7.71065 254.2C7.5848 254.201 7.4631 254.156 7.36871 254.075C7.11762 253.865 6.89713 253.622 6.71333 253.354C6.52746 253.061 6.3746 252.749 6.25741 252.424C6.12918 252.022 6.25741 251.717 6.48537 251.744C6.60737 251.76 6.71901 251.82 6.79881 251.911Z" fill="white"/>
<path d="M14.122 259.764C14.3978 259.871 14.6568 260.016 14.8914 260.194C15.1497 260.373 15.3801 260.588 15.5752 260.832C15.8174 261.123 15.8317 261.442 15.5752 261.553C15.4618 261.602 15.3325 261.602 15.2191 261.553C14.9326 261.444 14.6639 261.294 14.4212 261.109C14.1628 260.93 13.9325 260.715 13.7373 260.471C13.4951 260.166 13.4951 259.833 13.7373 259.75C13.8625 259.706 14.0005 259.711 14.122 259.764Z" fill="white"/>
<path d="M17.0428 261.775C17.323 261.868 17.5909 261.994 17.8406 262.149C18.1075 262.296 18.3521 262.478 18.5672 262.69C18.8237 262.968 18.8522 263.301 18.5672 263.426C18.4576 263.469 18.335 263.469 18.2253 263.426C17.9342 263.356 17.6556 263.244 17.3989 263.093C17.1308 262.926 16.8864 262.725 16.6723 262.496C16.4159 262.205 16.4016 261.886 16.6723 261.761C16.7942 261.727 16.9239 261.732 17.0428 261.775Z" fill="white"/>
<path d="M19.7784 263.426C20.0663 263.492 20.3441 263.595 20.6047 263.731C20.8724 263.872 21.1212 264.044 21.3456 264.245C21.6163 264.522 21.6591 264.841 21.4311 264.98C21.3203 265.017 21.2 265.017 21.0892 264.98C20.8013 264.914 20.5235 264.811 20.2628 264.675C19.985 264.537 19.7304 264.36 19.5077 264.147C19.237 263.884 19.2085 263.537 19.4365 263.412C19.5488 263.38 19.6692 263.384 19.7784 263.426Z" fill="white"/>
<path d="M23.5541 265.286C23.7377 265.284 23.9188 265.327 24.0813 265.411C24.2519 265.482 24.4032 265.591 24.5229 265.73C24.7794 266.049 24.7367 266.396 24.409 266.507H24.295C24.1132 266.506 23.9336 266.468 23.7678 266.396C23.5929 266.318 23.441 266.199 23.3262 266.049C23.0697 265.73 23.1124 265.383 23.4401 265.286H23.5541Z" fill="white"/>
<path d="M26.8026 266.77C26.9838 266.759 27.165 266.793 27.3297 266.867C27.5058 266.936 27.6622 267.046 27.7856 267.186C28.0421 267.491 27.9993 267.838 27.6859 267.949H27.5577C27.3807 267.965 27.2026 267.932 27.0448 267.852C26.8697 267.781 26.7137 267.672 26.5888 267.533C26.3181 267.228 26.3609 266.881 26.6886 266.77H26.8026Z" fill="white"/>
<path d="M3.23704 245.724C3.09638 245.462 2.98188 245.188 2.8951 244.905C2.81087 244.611 2.76304 244.308 2.75263 244.003C2.75263 243.559 2.98059 243.351 3.1943 243.518C3.27925 243.589 3.35147 243.673 3.40801 243.768C3.54281 244.02 3.65253 244.285 3.7357 244.558C3.80627 244.841 3.85391 245.129 3.87818 245.418C3.87818 245.849 3.69296 246.098 3.45075 245.946C3.36253 245.889 3.2893 245.813 3.23704 245.724Z" fill="white"/>
<path d="M2.43901 242.422C2.3145 242.146 2.22364 241.858 2.1683 241.562C2.11826 241.258 2.11826 240.949 2.1683 240.646C2.23954 240.202 2.45325 240.036 2.66696 240.23C2.74332 240.31 2.80158 240.404 2.83793 240.507C2.93378 240.779 3.00995 241.057 3.06589 241.34C3.10178 241.635 3.10178 241.933 3.06589 242.228C3.06589 242.644 2.82369 242.866 2.59573 242.685C2.52644 242.608 2.47321 242.519 2.43901 242.422Z" fill="white"/>
<path d="M1.95471 239.023C1.85617 238.735 1.79397 238.437 1.76949 238.135C1.72714 237.836 1.72714 237.532 1.76949 237.233C1.86923 236.803 2.11143 236.65 2.3109 236.886C2.3808 236.971 2.42956 237.071 2.45337 237.177C2.5285 237.459 2.57621 237.747 2.59585 238.038C2.63147 238.333 2.63147 238.631 2.59585 238.926C2.59585 239.342 2.3109 239.522 2.09719 239.314C2.02813 239.228 1.97946 239.129 1.95471 239.023Z" fill="white"/>
<path d="M3.50756 222.43C3.51563 222.128 3.56842 221.829 3.66428 221.542C3.74236 221.26 3.85728 220.99 4.00622 220.737C4.21993 220.39 4.47639 220.376 4.59037 220.737C4.61992 220.851 4.61992 220.97 4.59037 221.084C4.57661 221.381 4.52394 221.674 4.43364 221.958C4.35422 222.232 4.24434 222.497 4.10595 222.749C3.90649 223.096 3.65003 223.137 3.52181 222.846C3.49558 222.709 3.49078 222.568 3.50756 222.43Z" fill="white"/>
<path d="M4.4195 219.42C4.44873 219.117 4.51571 218.819 4.61896 218.532C4.70432 218.257 4.82903 217.996 4.98939 217.755C5.2316 217.436 5.5023 217.436 5.58779 217.755C5.61013 217.87 5.61013 217.987 5.58779 218.102C5.55164 218.394 5.4848 218.683 5.38832 218.962C5.30016 219.236 5.17563 219.497 5.01789 219.739C4.78993 220.058 4.51923 220.072 4.4195 219.739C4.40689 219.633 4.40689 219.526 4.4195 219.42Z" fill="white"/>
<path d="M5.88725 215.48C5.89626 215.295 5.93471 215.112 6.00123 214.939C6.06563 214.779 6.16819 214.636 6.30043 214.522C6.61387 214.273 6.88457 214.522 6.89882 214.911C6.88811 215.092 6.84471 215.271 6.77059 215.438C6.71178 215.597 6.61397 215.74 6.48565 215.854C6.18645 216.118 5.9015 215.965 5.88725 215.507V215.48Z" fill="white"/>
<path d="M7.32603 212.289C7.34384 212.105 7.397 211.926 7.48275 211.761C7.55907 211.605 7.67115 211.467 7.81045 211.359C8.15238 211.137 8.39459 211.359 8.38034 211.817C8.36758 211.993 8.31399 212.164 8.22362 212.316C8.15722 212.467 8.05462 212.6 7.92443 212.705C7.59673 212.927 7.32603 212.705 7.34028 212.289H7.32603Z" fill="white"/>
<path d="M432.727 300.469C433.017 300.158 433.337 299.875 433.682 299.623C434.007 299.366 434.355 299.139 434.722 298.943C435.163 298.748 435.434 298.859 435.349 299.206C435.294 299.373 435.207 299.529 435.092 299.664C434.799 299.985 434.48 300.282 434.138 300.552C433.807 300.796 433.454 301.009 433.083 301.19C432.642 301.384 432.357 301.273 432.456 300.927C432.516 300.759 432.608 300.603 432.727 300.469Z" fill="white"/>
<path d="M436.502 297.541C436.805 297.251 437.123 296.978 437.457 296.723C437.774 296.45 438.118 296.209 438.483 296.001C438.91 295.793 439.195 295.89 439.11 296.251C439.059 296.417 438.977 296.572 438.868 296.709C438.587 297.045 438.272 297.351 437.927 297.625C437.611 297.901 437.262 298.138 436.887 298.332C436.46 298.526 436.175 298.415 436.26 298.069C436.302 297.878 436.385 297.699 436.502 297.541Z" fill="white"/>
<path d="M440.221 294.475C440.49 294.135 440.791 293.819 441.119 293.532C441.426 293.246 441.765 292.995 442.13 292.783C442.543 292.547 442.843 292.644 442.757 292.991C442.712 293.161 442.635 293.321 442.529 293.462C442.251 293.804 441.946 294.124 441.617 294.42C441.302 294.697 440.964 294.947 440.606 295.169C440.178 295.405 439.893 295.294 439.965 294.947C440.018 294.775 440.105 294.615 440.221 294.475Z" fill="white"/>
<path d="M446.532 288.579C446.782 288.214 447.063 287.87 447.373 287.552C447.66 287.238 447.98 286.954 448.328 286.706C448.741 286.429 449.026 286.484 448.983 286.845C448.95 287.022 448.883 287.192 448.784 287.344C448.529 287.71 448.243 288.053 447.929 288.371C447.639 288.686 447.319 288.974 446.974 289.231C446.561 289.508 446.276 289.439 446.319 289.078C446.356 288.9 446.428 288.73 446.532 288.579Z" fill="white"/>
<path d="M450.75 283.959C450.872 283.714 451.02 283.481 451.192 283.266C451.347 283.059 451.535 282.876 451.747 282.725C452.175 282.447 452.417 282.627 452.289 283.127C452.289 283.127 452.289 283.252 452.289 283.321C452.175 283.577 452.032 283.819 451.861 284.043C451.703 284.253 451.504 284.432 451.277 284.57C450.835 284.819 450.593 284.57 450.736 284.14C450.737 284.079 450.742 284.019 450.75 283.959Z" fill="white"/>
<path d="M454.013 279.7C454.112 279.441 454.241 279.195 454.397 278.964C454.542 278.741 454.719 278.54 454.925 278.368C455.338 278.063 455.608 278.201 455.509 278.715V278.895C455.41 279.165 455.276 279.422 455.11 279.658C454.962 279.879 454.785 280.079 454.583 280.255C454.169 280.56 453.913 280.393 454.013 279.894V279.7Z" fill="white"/>
<path d="M394.857 323.624C397.892 322.015 400.926 320.405 403.918 318.726C406.91 317.048 409.931 315.355 412.894 313.579C415.858 311.804 418.836 310.028 421.742 308.127C424.648 306.226 427.555 304.298 430.433 302.286C430.818 302.009 431.217 301.94 431.302 302.148C431.388 302.356 431.145 302.744 430.775 303.022C427.925 305.103 425.076 307.184 422.127 309.043C419.177 310.902 416.242 312.775 413.279 314.592C410.316 316.41 407.281 318.061 404.26 319.698C401.24 321.335 398.177 322.902 395.128 324.442C394.7 324.65 394.301 324.637 394.244 324.442C394.187 324.248 394.458 323.846 394.857 323.624Z" fill="white"/>
<path d="M392.962 325.399C392.691 325.621 392.394 325.811 392.079 325.968C391.776 326.131 391.449 326.248 391.11 326.315C390.654 326.398 390.412 326.19 390.597 325.857C390.666 325.735 390.758 325.627 390.868 325.538C391.137 325.314 391.434 325.123 391.751 324.969C392.055 324.815 392.375 324.694 392.706 324.609C393.162 324.525 393.404 324.734 393.219 325.067C393.152 325.19 393.066 325.303 392.962 325.399Z" fill="white"/>
<path d="M389.457 327.133C389.187 327.363 388.884 327.554 388.56 327.702C388.257 327.852 387.936 327.964 387.605 328.035C387.135 328.118 386.907 327.91 387.092 327.563C387.16 327.449 387.247 327.346 387.349 327.258C387.623 327.034 387.924 326.843 388.246 326.689C388.55 326.544 388.871 326.432 389.201 326.356C389.671 326.273 389.899 326.481 389.714 326.814C389.65 326.936 389.563 327.044 389.457 327.133Z" fill="white"/>
<path d="M385.938 328.84C384.713 329.534 383.459 330.144 382.205 330.727C380.951 331.31 379.669 331.878 378.387 332.35C377.945 332.517 377.589 332.447 377.589 332.197C377.589 331.948 377.817 331.74 378.145 331.559C379.384 330.893 380.638 330.311 381.892 329.714C383.145 329.118 384.399 328.549 385.696 328.063C386.123 327.883 386.479 327.938 386.494 328.188C386.508 328.438 386.266 328.632 385.938 328.84Z" fill="white"/>
<path d="M375.167 333.778C375.011 333.933 374.828 334.06 374.626 334.153C374.438 334.236 374.234 334.279 374.028 334.278C373.543 334.278 373.429 333.903 373.785 333.501C373.935 333.348 374.114 333.225 374.312 333.14C374.499 333.052 374.703 333.005 374.911 333.002C375.395 333.002 375.509 333.376 375.153 333.778H375.167Z" fill="white"/>
<path d="M371.348 335.458C371.195 335.603 371.017 335.72 370.821 335.804C370.629 335.89 370.42 335.932 370.209 335.929C369.724 335.929 369.625 335.541 369.981 335.139C370.138 334.992 370.321 334.874 370.522 334.792C370.71 334.708 370.914 334.666 371.121 334.667C371.619 334.667 371.719 335.041 371.363 335.444L371.348 335.458Z" fill="white"/>
<path fill-rule="evenodd" clip-rule="evenodd" d="M143.475 373.832C106.004 366.617 85.3453 348.721 74.4032 313.981C64.601 282.849 45.4097 273.693 29.9797 266.326C14.3075 258.806 5.33155 253.715 4.4767 235.832C3.62186 217.796 14.5497 201.994 36.9752 188.884C55.2119 178.229 81.0568 169.364 113.812 162.524C171.528 150.496 275.364 138.426 320.215 147.055C328.877 148.72 333.137 150.829 335.189 152.299C347.413 161.039 349.223 172.319 351.132 184.208C352.841 194.96 354.622 206.073 363.641 214.73C370.622 221.403 383.587 224.442 398.476 228.049C423.409 233.986 451.662 240.729 457.432 264.647C458.13 267.588 457.29 271.168 454.924 275.288C444.339 293.712 405.899 318.227 354.622 339.245C302.348 360.666 246.912 374.706 206.306 376.814C181.273 378.119 160.714 377.189 143.475 373.832Z" stroke="white" stroke-width="0.61"/>
<path opacity="0.2" d="M63.5182 463.913C72.6793 469.171 110.25 468.921 160.401 468.616C242.039 468.117 323.477 440.522 323.477 440.522L165.929 432.753C165.929 432.753 36.0776 448.166 63.5182 463.913Z" fill="#552F5E"/>
<path d="M323.477 324.803V447.639L274.68 470.35V464.135L318.12 443.824V326.842L323.477 324.803Z" fill="#7C4284"/>
<rect x="268.767" y="464.135" width="5.9127" height="6.20147" fill="#3E2344"/>
<path fill-rule="evenodd" clip-rule="evenodd" d="M268.767 464.134L313.604 443.823H318.12L274.68 464.134H268.767Z" fill="#E4BCE8"/>
<path fill-rule="evenodd" clip-rule="evenodd" d="M313.604 443.824V327.577L318.12 326.842V443.824H313.604Z" fill="#E4BCE8"/>
<path d="M165.929 319.822V432.753L102.3 453.632V447.917L160.572 429.243V321.695L165.929 319.822Z" fill="#7C4284"/>
<rect x="96.3867" y="447.917" width="5.9127" height="5.70202" fill="#3E2344"/>
<path fill-rule="evenodd" clip-rule="evenodd" d="M96.3867 447.916L156.055 429.243H160.572L102.299 447.916H96.3867Z" fill="#E4BCE8"/>
<path fill-rule="evenodd" clip-rule="evenodd" d="M156.055 429.243V322.375L160.572 321.695V429.243H156.055Z" fill="#E4BCE8"/>
<path d="M308.902 314.189L308.588 318.893L308.446 321.126L307.962 328.063C307.734 331.171 282.886 331.504 282.615 328.368L282.031 321.431L281.832 319.184L281.404 314.176L308.902 314.189Z" fill="#CC584E"/>
<ellipse cx="295.168" cy="314.189" rx="13.7488" ry="1.65095" fill="#E57873"/>
<path d="M305.725 314.19C305.725 314.759 300.995 315.216 295.167 315.216C289.34 315.216 284.596 314.759 284.596 314.19C284.596 313.621 289.326 313.177 295.167 313.177C301.009 313.177 305.725 313.635 305.725 314.19Z" fill="#3E2B13"/>
<path d="M308.589 318.92L308.446 321.154C304.024 322.458 299.416 323.067 294.797 322.958C290.47 323.096 286.147 322.595 281.974 321.473L281.775 319.226C283.442 319.85 287.317 320.904 294.74 320.904C299.441 321.062 304.133 320.39 308.589 318.92V318.92Z" fill="#E4BCE8"/>
<path d="M291.734 315.161C291.734 315.161 282.017 293.573 295.153 293.573C308.289 293.573 298.601 315.161 298.601 315.161C298.601 315.161 294.227 315.258 291.734 315.161Z" fill="#71BF9D"/>
<path d="M105.933 330.741L290.209 339.592L347.84 322.902L174.306 315.202L105.933 330.741Z" fill="#E4BCE8"/>
<path d="M347.84 322.902V328.035L290.423 344.947L290.209 339.592L347.84 322.902Z" fill="#7C4284"/>
<path d="M290.21 339.592L106.93 330.796V335.069L290.423 344.947L290.21 339.592Z" fill="#552F5E"/>
<path d="M264.635 320.918L223.873 330.88L148.803 327.342L188.041 316.978L264.635 320.918Z" fill="#EFE9DA"/>
<path opacity="0.3" d="M252.112 321.737L222.52 328.979L162.41 326.412L190.919 318.879L252.112 321.737Z" fill="#7C4284"/>
<path d="M148.803 327.342C148.802 328.743 149.931 329.897 151.368 329.964L224.03 333.474L262.626 323.763C263.817 323.465 264.649 322.42 264.649 321.224V320.918L223.887 330.88L148.803 327.342Z" fill="#9D68AA"/>
<path d="M264.635 320.918L188.041 316.992L202.032 262.886C202.196 262.292 202.741 261.875 203.371 261.859L280.835 261.373L264.635 320.918Z" fill="#3E2344"/>
<path d="M240.358 264.564C240.174 265.458 239.384 266.112 238.449 266.145C238.039 266.157 237.648 265.982 237.39 265.671C237.133 265.361 237.04 264.951 237.138 264.564C237.338 263.676 238.128 263.032 239.061 262.996C239.467 262.984 239.855 263.158 240.11 263.466C240.364 263.774 240.456 264.18 240.358 264.564Z" fill="white"/>
<path d="M262.712 316.118L192.187 313.302L203.713 268.324L275.82 267.866L262.712 316.118Z" fill="white"/>
<path d="M246.256 275.094L240.058 300.385L238.263 307.822C238.035 308.73 237.186 309.36 236.226 309.334L223.403 308.931L215.681 308.709C215.07 308.697 214.498 308.415 214.126 307.943C213.755 307.47 213.624 306.859 213.772 306.282L221.95 274.372C222.167 273.502 222.967 272.888 223.887 272.888L244.261 272.735C244.87 272.732 245.448 272.996 245.834 273.453C246.221 273.91 246.376 274.513 246.256 275.094Z" fill="#FFD25A"/>
<path d="M240.059 300.386L238.263 307.822C238.035 308.731 237.186 309.361 236.226 309.334L223.403 308.932L217.519 308.044L227.763 290.494L234.089 283.113L240.059 300.386Z" fill="#71BF9D"/>
<path d="M236.226 309.209L223.403 308.807L215.681 308.585C215.07 308.573 214.498 308.291 214.126 307.818C213.755 307.346 213.624 306.734 213.772 306.157L226.879 288.385L227.763 290.369L236.226 309.209Z" fill="#FF8976"/>
<path d="M237.194 281.989C237.194 283.644 235.817 284.986 234.117 284.986C232.417 284.986 231.04 283.644 231.04 281.989C231.04 280.334 232.417 278.992 234.117 278.992C234.933 278.992 235.716 279.308 236.293 279.87C236.87 280.432 237.194 281.194 237.194 281.989Z" fill="#FFB072"/>
<path d="M229.957 288.565C229.962 289.78 229.215 290.877 228.064 291.345C226.912 291.812 225.585 291.557 224.703 290.698C223.821 289.839 223.559 288.547 224.039 287.426C224.519 286.305 225.646 285.577 226.894 285.582C228.582 285.59 229.949 286.921 229.957 288.565Z" fill="#FFB072"/>
<path d="M264.635 320.918C265.529 320.926 266.323 320.362 266.587 319.531L281.704 263.426C281.871 262.828 281.722 262.188 281.305 261.72L280.835 261.276L264.635 320.918Z" fill="#E4BCE8"/>
<path d="M130.438 467.243C130.438 469.074 121.092 469.074 121.092 467.243V413.025H130.438V467.243Z" fill="#7C4284"/>
<path d="M101.359 407.35C101.359 407.35 104.28 417.339 125.21 417.339C146.139 417.339 149.43 407.35 149.43 407.35H101.359Z" fill="#3E2344"/>
<path d="M94.0932 406.004C94.0932 406.004 83.8066 402.897 80.5582 394.42C77.3097 385.943 69.4736 343.601 69.4736 343.601L76.5119 339.592C76.5119 339.592 84.6187 390.924 90.0327 395.003C95.4468 399.081 98.3675 398.513 98.3675 398.513L94.0932 406.004Z" fill="#7C4284"/>
<path d="M58.4747 290.41C58.4747 290.41 51.3509 295.322 56.0384 322.833C61.4524 354.534 66.0116 357.822 71.4969 356.934C76.9821 356.046 58.4747 290.41 58.4747 290.41Z" fill="#7C4284"/>
<path d="M82.3102 391.063C82.3102 391.063 81.5409 401.648 85.8436 406.67C92.3689 414.315 163.877 409.736 167.71 407.711C175.489 403.549 171.984 386.734 171.984 386.734L82.3102 391.063Z" fill="#552F5E"/>
<path d="M91.1154 377.522C90.033 377.55 89.024 378.062 88.3799 378.909C86.6102 381.159 85.06 383.565 83.7495 386.096C80.9 392.325 81.1422 392.339 87.2971 392.464C108.013 392.936 170.175 391.229 170.175 391.229C171.324 391.098 172.338 390.438 172.903 389.455C173.467 388.471 173.512 387.284 173.024 386.262L171.029 375.968L91.1154 377.522Z" fill="#E4BCE8"/>
<g style="mix-blend-mode:multiply" opacity="0.2">
<path d="M172.697 384.681C172.697 387.594 154.061 389.953 131.08 389.953C108.099 389.953 89.4629 387.594 89.4629 384.681C89.4629 381.767 108.099 379.395 131.08 379.395C154.061 379.395 172.697 381.767 172.697 384.681Z" fill="#552F5E"/>
</g>
<path d="M55.625 293.018C58.389 308.279 67.3365 353.923 67.3365 353.923C68.3195 359.001 73.0354 360.86 77.7941 359.57C96.3158 354.534 77.4664 290.771 76.1984 286.595C72.551 274.691 52.2199 274.525 55.625 293.018Z" fill="#E4BCE8"/>
<path d="M200.493 459.945C199.734 462.271 199.115 464.638 198.641 467.034C198.641 468.422 201.491 476.926 201.491 476.926C202.637 477.739 204.169 477.815 205.394 477.12L206.819 471.224C206.819 471.224 210.623 476.177 213.729 477.453C217.462 478.993 229.786 479.437 231.581 478.105C231.581 478.105 233.291 472.473 228.475 471.169C216.436 467.756 213.957 460.389 213.957 460.389C212.898 457.725 210.308 455.933 207.376 455.837C204.444 455.74 201.735 457.357 200.493 459.945Z" fill="#3E2344"/>
<path d="M232.792 477.342C232.536 477.342 218.801 478.66 215.068 476.745C211.336 474.831 207.304 469.378 206.121 469.198C204.938 469.018 198.641 467.034 198.641 467.034L199.097 480.297L232.151 485L232.792 477.342Z" fill="#7C4284"/>
<path d="M222.064 468.754L220.354 470.35C218.921 469.784 217.692 468.819 216.821 467.575L218.331 465.758C218.599 465.43 219.089 465.374 219.428 465.633L221.993 467.589C222.17 467.729 222.278 467.935 222.292 468.157C222.306 468.378 222.223 468.595 222.064 468.754Z" fill="#FFBE57"/>
<path d="M197.43 448.638L200.493 459.945C200.493 459.945 211.791 468.269 213.316 459.21L209.925 446.28C208.885 442.09 197.316 443.491 197.43 448.638Z" fill="#FFB072"/>
<path d="M232.949 432.753C233.025 435.047 233.239 437.336 233.59 439.606C233.975 440.813 239.417 447.5 239.417 447.5C240.583 447.895 241.877 447.514 242.623 446.557L242.195 440.827C242.195 440.827 247.182 444.06 250.345 444.24C254.163 444.462 265.248 441.063 266.416 439.329C266.416 439.329 266.103 433.779 261.387 434.071C249.59 434.75 245.002 428.965 245.002 428.965C243.183 426.961 240.317 426.196 237.702 427.018C235.088 427.839 233.222 430.091 232.949 432.753H232.949Z" fill="#3E2344"/>
<path d="M267.271 438.233C267.043 438.33 255.274 443.699 251.328 443.158C247.381 442.617 242.039 438.996 240.942 439.19C239.844 439.384 233.59 439.565 233.59 439.565L238.306 451.219L269.18 445.225L267.271 438.233Z" fill="#7C4284"/>
<path d="M254.947 433.946L253.95 435.888C252.491 435.817 251.086 435.335 249.903 434.501L250.658 432.42C250.799 432.051 251.214 431.855 251.599 431.976L254.448 432.919C254.667 432.973 254.85 433.119 254.947 433.318C255.043 433.517 255.043 433.747 254.947 433.946Z" fill="#FFBE57"/>
<path d="M224.386 421.585L233.006 433.932C233.006 433.932 240.016 435.472 243.25 433.932C246.484 432.392 245.002 428.993 245.002 428.993L237.993 415.397L224.386 421.585Z" fill="#FFB072"/>
<path d="M99.5785 261.401C99.5785 261.401 88.7219 263.704 92.1983 284.583C95.6747 305.463 111.19 339.495 130.752 341.548C150.314 343.601 179.492 331.559 179.492 331.559C185.79 326.953 181.387 316.007 173.68 317.685C160.258 320.46 151.981 322.402 134.855 320.849C128.216 320.238 122.032 288.939 119.439 279.103C116.846 269.267 107.856 260.194 99.5785 261.401Z" fill="#3C8460"/>
<path d="M129.042 384.279C129.042 384.279 167.51 384.639 176.799 380.963C186.089 377.286 195.164 360.819 187.742 360.486C180.319 360.153 129.042 384.279 129.042 384.279Z" fill="#F99441"/>
<path d="M210.566 353.202C205.024 342.422 196.319 342.103 190.734 342.644C171.556 344.42 126.748 351.773 126.748 351.773L82.98 346.307C82.98 346.307 73.2917 367.561 90.8019 382.517C106.018 395.516 157.765 385.291 187.913 369.614C190.762 389.634 212.546 406.906 225.597 426.662C237.75 425.469 240.4 419.171 240.4 419.171C240.4 419.171 218.915 369.476 210.566 353.202Z" fill="#FFCC5A"/>
<path d="M186.018 311.873C188.035 311.661 190.07 311.661 192.087 311.873C193.284 312.289 195.791 315.577 195.791 315.577C195.791 315.577 191.66 316.354 190.349 315.937C189.038 315.521 186.018 311.873 186.018 311.873Z" fill="#F29B5F"/>
<path d="M169.947 315.494C169.947 315.494 178.766 311.138 181.943 310.388C185.12 309.639 185.533 311.651 186.873 311.887C188.287 312.086 189.608 312.695 190.662 313.635C191.987 314.551 194.851 313.996 196.532 314.759C198.062 316.022 199.292 317.593 200.137 319.365C200.507 320.377 199.054 320.572 198.128 320.294C197.202 320.017 195.763 317.741 194.894 317.519C194.025 317.297 190.62 318.699 190.62 318.699C190.62 318.699 187.599 326.177 175.375 325.275C161.897 324.234 169.947 315.494 169.947 315.494Z" fill="#FFB072"/>
<path d="M100.362 262.511C100.362 262.511 88.9639 263.343 92.3548 282.072C95.7457 300.802 110.421 331.407 128.8 333.238C147.179 335.069 174.534 324.498 174.534 324.498C180.433 320.335 177.156 311.401 169.932 312.816C157.78 315.487 145.345 316.745 132.889 316.562C126.62 316.562 120.351 285.971 117.943 277.217C115.535 268.462 108.141 261.47 100.362 262.511Z" fill="#CC321D"/>
<path d="M178.837 367.658C178.837 367.658 187.699 362.747 192.828 356.962C198.285 350.788 198.812 357.392 183.781 365.466C183.781 365.466 192.956 361.748 196.433 360.055C199.909 358.363 198.94 362.081 178.837 367.658Z" fill="#F99441"/>
<path d="M169.933 382.503C169.933 382.503 169.933 390.605 177.156 406.754C184.38 422.903 196.561 454.215 196.561 454.215C196.561 454.215 202.388 455.602 211.507 449.429C211.507 449.429 199.496 372.639 193.683 365.702C186.488 357.128 169.933 373.263 169.933 382.503Z" fill="#F99441"/>
<path d="M129.142 229.658C128.871 229.658 125.338 228.077 124.07 231.351C123.56 232.483 123.617 233.782 124.225 234.867C124.833 235.953 125.922 236.704 127.176 236.9C131.137 237.414 129.142 229.658 129.142 229.658Z" fill="#E57E55"/>
<path d="M117.217 230.976C115.421 236.359 111.047 244.85 108.426 250.191C105.804 255.532 97.4126 263.579 97.4126 263.579C97.4126 263.579 116.974 282.1 124.867 282.447C126.135 279.797 122.46 274.372 121.662 267.907C120.308 256.809 130.68 237.885 130.68 237.885C130.68 237.885 121.833 232.336 117.217 230.976Z" fill="#FFB072"/>
<path d="M129.712 311.692C129.712 312.539 133.245 348.873 131.136 351.454C126.577 357.003 116.476 356.684 114.111 351.454C111.745 346.224 129.712 311.692 129.712 311.692Z" fill="#EFE9DA"/>
<path d="M103.511 256.49C106.061 259.112 119.183 269.309 124.754 275.912C129.712 281.906 139.87 293.379 136.836 304.381C128.829 333.238 127.717 344.947 126.506 370.821C119.867 374.082 86.6134 369.004 78.0649 351.801C78.0649 351.801 83.1513 337.594 88.0382 324.498C91.2438 316.284 84.1201 294.267 84.6473 285.194C85.5449 269.225 99.5786 258.529 102.528 256.49C102.808 256.247 103.23 256.247 103.511 256.49Z" fill="#DD4026"/>
<path d="M99.2079 269.267C85.858 280.546 94.2783 310.582 100.519 324.456C105.448 335.888 114.638 347.042 127.703 351.454C128.928 343.893 132.105 336.096 133.402 327.966C118.2 316.146 106.659 286.179 99.2079 269.267Z" fill="#CC321D"/>
<path fill-rule="evenodd" clip-rule="evenodd" d="M134.655 253.146C139.614 252.869 142.919 243.24 142.919 243.24C142.919 243.24 145.654 243.49 145.968 242.297C146.281 241.104 144.059 236.012 144.814 235.221C146.609 233.293 148.803 231.795 148.803 222.735C148.803 216.159 141.95 214.411 134.712 214.647C132.233 215.951 123.998 230.99 123.314 241.215C122.787 248.373 127.09 253.576 134.655 253.146Z" fill="#FFB072"/>
<path fill-rule="evenodd" clip-rule="evenodd" d="M131.208 234.291L134.285 228.95C134.285 228.95 144.33 227.258 149.131 223.207C151.539 221.167 153.605 218.961 149.9 214.536C142.777 206.114 122.175 198.151 109.637 213.537C98.9941 226.592 112.244 242.421 112.244 242.421C115.037 239.605 125.352 240.077 131.208 234.291Z" fill="#3E2344"/>
<path d="M131.778 233.529C131.778 233.529 132.291 227.771 129.341 227.452C126.392 227.133 124.967 230.074 124.682 231.919C124.397 233.764 124.853 238.468 128.344 239.12C129.954 239.425 131.236 238.315 131.778 233.529Z" fill="#FFB072"/>
<path d="M140.711 232.335C141.626 232.199 142.549 232.12 143.475 232.099C145.227 232.224 146.168 232.821 147.08 232.516C147.493 232.391 147.607 232.016 147.792 231.586C146.483 231.295 145.155 231.091 143.817 230.976C142.607 230.859 141.424 231.377 140.711 232.335Z" fill="#3E2344"/>
<path d="M128.13 236.983C128.13 236.054 128.13 235.679 128.244 234.694C128.743 234.583 129.569 234.458 130.068 234.292C130.339 232.572 130.438 228.493 128.201 229.616C126.349 230.546 125.437 236.734 128.13 236.983Z" fill="#E57E55"/>
<path fill-rule="evenodd" clip-rule="evenodd" d="M143.218 235.083C143.709 234.641 144.315 234.338 144.971 234.209C145.783 234.209 146.752 234.32 147.151 234.028C147.549 233.737 146.78 235.083 145.298 234.958L143.218 235.083Z" fill="#552F5E"/>
<path fill-rule="evenodd" clip-rule="evenodd" d="M130.88 228.423C131.484 230.939 131.571 233.547 131.137 236.095C130.424 239.619 122.317 244.503 124.939 251.939C127.56 259.375 132.875 256.295 133.316 254.95C133.316 254.95 128.316 257.724 126.392 251.786C124.383 245.557 132.006 240.688 133.202 236.706C133.945 233.931 134.281 231.068 134.2 228.201L130.88 228.423Z" fill="#3E2344"/>
<ellipse cx="130.068" cy="237.385" rx="1.82368" ry="1.77581" fill="white"/>
<path fill-rule="evenodd" clip-rule="evenodd" d="M96.0164 207.28C96.6202 209.796 96.7074 212.403 96.2728 214.952C95.5605 218.49 87.4537 223.359 90.0752 230.809C92.6967 238.259 98.011 235.166 98.4527 233.806C98.4527 233.806 93.4518 236.581 91.5284 230.643C89.5195 224.428 97.1419 219.544 98.3387 215.576C99.0814 212.801 99.4172 209.938 99.336 207.072L96.0164 207.28Z" fill="#3E2344"/>
<path d="M198.57 314.231C200.587 314.026 202.622 314.026 204.639 314.231C205.85 314.647 208.344 317.936 208.344 317.936C208.344 317.936 204.226 318.726 202.901 318.31C201.576 317.894 198.57 314.231 198.57 314.231Z" fill="#F29B5F"/>
<path d="M182.499 317.852C182.499 317.852 191.318 313.51 194.495 312.747C197.672 311.984 198.085 314.009 199.439 314.245C200.85 314.451 202.166 315.065 203.215 316.007C204.54 316.923 207.403 316.354 209.085 317.117C210.619 318.381 211.849 319.958 212.689 321.737C213.074 322.736 211.606 322.93 210.694 322.666C209.783 322.403 208.315 320.113 207.446 319.891C206.577 319.669 203.172 321.085 203.172 321.085C203.172 321.085 200.166 328.549 187.927 327.661C174.449 326.592 182.499 317.852 182.499 317.852Z" fill="#FFB072"/>
<path d="M102.642 266.576C96.3159 268.338 91.4433 270.974 94.9339 291.853C98.4246 312.733 111.319 341.631 130.88 343.685C150.442 345.738 185.391 330.782 185.391 330.782C191.688 326.162 187.286 315.23 179.578 316.909C166.157 319.684 151.625 325.344 134.485 323.846C127.846 323.235 122.944 293.019 120.423 283.252C117.901 273.485 110.72 264.356 102.642 266.576Z" fill="#FD6141"/>
<path d="M124.198 211.955C123.5 219.267 116.148 224.566 107.785 223.803C99.4218 223.04 93.1956 216.506 93.8938 209.208C94.5919 201.911 101.944 196.583 110.321 197.346C118.699 198.109 124.91 204.644 124.198 211.955Z" fill="#3E2344"/>
<path d="M280.493 288.801C280.498 289.212 280.249 289.586 279.861 289.747C279.472 289.908 279.023 289.825 278.722 289.536C278.422 289.248 278.33 288.811 278.49 288.431C278.651 288.051 279.031 287.802 279.453 287.802C280.021 287.802 280.485 288.247 280.493 288.801Z" fill="white"/>
<path d="M284.639 288.801C284.644 289.212 284.395 289.586 284.007 289.747C283.618 289.908 283.169 289.825 282.868 289.536C282.568 289.248 282.476 288.811 282.636 288.431C282.797 288.051 283.177 287.802 283.599 287.802C284.167 287.802 284.631 288.247 284.639 288.801Z" fill="white"/>
<path d="M288.785 288.801C288.79 289.212 288.541 289.585 288.153 289.747C287.764 289.908 287.315 289.824 287.014 289.536C286.714 289.247 286.622 288.811 286.782 288.431C286.943 288.05 287.323 287.802 287.745 287.802C288.019 287.798 288.284 287.902 288.479 288.09C288.675 288.277 288.785 288.534 288.785 288.801Z" fill="white"/>
<path d="M292.945 288.801C292.951 289.212 292.701 289.586 292.313 289.747C291.925 289.908 291.475 289.825 291.175 289.536C290.875 289.248 290.783 288.811 290.943 288.431C291.103 288.051 291.483 287.802 291.905 287.802C292.474 287.802 292.938 288.247 292.945 288.801Z" fill="white"/>
<path d="M297.091 288.801C297.097 289.212 296.847 289.586 296.459 289.747C296.071 289.908 295.621 289.825 295.32 289.536C295.02 289.248 294.928 288.811 295.089 288.431C295.249 288.051 295.629 287.802 296.051 287.802C296.62 287.802 297.083 288.247 297.091 288.801Z" fill="white"/>
<path d="M301.237 288.801C301.237 289.361 300.771 289.814 300.197 289.814C299.622 289.814 299.157 289.361 299.157 288.801C299.157 288.242 299.622 287.789 300.197 287.789C300.771 287.789 301.237 288.242 301.237 288.801Z" fill="white"/>
<path d="M305.383 288.801C305.321 289.311 304.877 289.695 304.35 289.695C303.822 289.695 303.379 289.311 303.317 288.801C303.379 288.291 303.822 287.906 304.35 287.906C304.877 287.906 305.321 288.291 305.383 288.801Z" fill="white"/>
<path d="M309.543 288.801C309.549 289.212 309.299 289.586 308.911 289.747C308.523 289.908 308.073 289.825 307.773 289.536C307.472 289.248 307.381 288.811 307.541 288.431C307.701 288.051 308.081 287.802 308.503 287.802C309.072 287.802 309.535 288.247 309.543 288.801Z" fill="white"/>
<path d="M313.689 288.801C313.695 289.212 313.446 289.586 313.057 289.747C312.669 289.908 312.22 289.825 311.919 289.536C311.619 289.248 311.527 288.811 311.687 288.431C311.847 288.051 312.227 287.802 312.649 287.802C313.218 287.802 313.682 288.247 313.689 288.801Z" fill="white"/>
<path d="M317.778 288.801C317.784 289.212 317.534 289.585 317.146 289.747C316.758 289.908 316.308 289.824 316.008 289.536C315.708 289.247 315.616 288.811 315.776 288.431C315.936 288.05 316.316 287.802 316.738 287.802C317.013 287.798 317.277 287.902 317.473 288.09C317.668 288.277 317.778 288.534 317.778 288.801Z" fill="white"/>
<path d="M321.696 287.608C321.929 287.925 321.954 288.345 321.76 288.686C321.567 289.028 321.189 289.23 320.789 289.207C320.389 289.185 320.038 288.94 319.887 288.579C319.74 288.103 319.931 287.59 320.357 287.317C320.82 287.112 321.367 287.231 321.696 287.608Z" fill="white"/>
<path d="M323.477 284.084C323.881 284.128 324.222 284.397 324.35 284.773C324.477 285.149 324.368 285.563 324.07 285.833C323.772 286.102 323.34 286.178 322.964 286.026C322.486 285.834 322.226 285.327 322.355 284.838C322.484 284.35 322.962 284.028 323.477 284.084Z" fill="white"/>
<path d="M323.477 280.075C323.9 280.069 324.285 280.314 324.449 280.694C324.614 281.073 324.526 281.512 324.227 281.804C323.927 282.095 323.477 282.181 323.087 282.02C322.697 281.86 322.446 281.486 322.451 281.074C322.447 280.808 322.554 280.551 322.747 280.363C322.941 280.175 323.204 280.071 323.477 280.075Z" fill="white"/>
<path d="M323.477 275.995C323.899 275.99 324.283 276.233 324.448 276.611C324.614 276.989 324.528 277.427 324.232 277.719C323.936 278.012 323.487 278.101 323.097 277.945C322.706 277.789 322.451 277.419 322.451 277.008C322.447 276.741 322.554 276.483 322.747 276.293C322.939 276.103 323.203 275.995 323.477 275.995Z" fill="white"/>
<path d="M323.477 271.959C323.899 271.953 324.283 272.196 324.448 272.574C324.614 272.952 324.528 273.39 324.232 273.682C323.936 273.975 323.487 274.064 323.097 273.908C322.706 273.752 322.451 273.382 322.451 272.971C322.447 272.704 322.554 272.446 322.747 272.256C322.939 272.066 323.203 271.959 323.477 271.959Z" fill="white"/>
<ellipse cx="323.477" cy="268.934" rx="1.02582" ry="1.01277" fill="white"/>
<ellipse cx="323.477" cy="264.883" rx="1.02582" ry="1.01277" fill="white"/>
<path d="M323.477 259.833C323.899 259.827 324.283 260.071 324.448 260.449C324.614 260.827 324.528 261.264 324.232 261.557C323.936 261.849 323.487 261.939 323.097 261.783C322.706 261.627 322.451 261.257 322.451 260.846C322.447 260.579 322.554 260.321 322.747 260.131C322.939 259.94 323.203 259.833 323.477 259.833Z" fill="white"/>
<path d="M323.477 255.796C323.899 255.79 324.283 256.033 324.448 256.411C324.614 256.789 324.528 257.227 324.232 257.52C323.936 257.812 323.487 257.901 323.097 257.745C322.706 257.59 322.451 257.219 322.451 256.809C322.447 256.541 322.554 256.284 322.747 256.093C322.939 255.903 323.203 255.796 323.477 255.796Z" fill="white"/>
<path d="M323.477 251.759C323.899 251.753 324.283 251.996 324.448 252.374C324.614 252.752 324.528 253.19 324.232 253.482C323.936 253.775 323.487 253.864 323.097 253.708C322.706 253.552 322.451 253.182 322.451 252.771C322.447 252.504 322.554 252.246 322.747 252.056C322.939 251.866 323.203 251.759 323.477 251.759Z" fill="white"/>
<rect x="188.041" y="52.5486" width="211.504" height="195.228" rx="7.39" fill="white"/>
<rect x="391.766" y="58.0422" width="185.004" height="196.643" rx="5.92" transform="rotate(90 391.766 58.0422)" fill="#FFD25A"/>
<g style="mix-blend-mode:overlay" opacity="0.3">
<ellipse rx="72.2639" ry="108.329" transform="matrix(0.444826 -0.895617 0.904696 0.426058 256.485 110.875)" fill="white"/>
</g>
<path d="M271.132 133.237C266.736 126.046 265.7 117.37 268.283 109.388C268.523 108.409 269.047 107.518 269.793 106.822C270.599 106.102 271.836 106.102 272.642 106.822C276.722 102.755 281.906 99.9016 287.588 98.5947C288.701 98.2775 289.868 98.1785 291.021 98.3033C292.199 98.4263 293.234 99.1204 293.771 100.148C294.274 101.212 293.836 102.472 292.774 103.02C294.844 102.095 297.02 101.415 299.257 100.995C300.079 100.787 300.954 100.928 301.664 101.383C302.451 102.225 302.451 103.511 301.664 104.352C300.877 105.133 299.895 105.701 298.815 106.003C299.492 105.796 300.2 105.698 300.909 105.712C301.636 105.739 302.295 106.134 302.647 106.752C303.217 107.945 302.021 109.222 300.866 109.902C297.816 111.469 294.44 112.342 290.993 112.454C287.559 112.718 284.111 112.676 280.721 113.259C279.577 113.375 278.491 113.803 277.586 114.494C276.161 115.77 276.161 117.92 276.161 119.793C276.468 122.448 276.411 125.131 275.99 127.771C275.522 130.441 273.813 132.75 271.36 134.028" fill="#A6613B"/>
<path d="M356.631 165.978C356.631 165.978 358.783 156.017 360.464 154.991C362.145 153.964 368.67 148.512 368.87 149.677C369.069 150.842 365.721 153.922 366.206 155.226C366.69 156.531 370.209 156.78 370.209 156.78C370.209 156.78 374.17 157.002 375.239 156.378C376.307 155.754 383.16 149.233 382.633 150.829C382.106 152.424 378.074 160.762 375.623 161.927C372.608 163.094 369.502 164.022 366.334 164.702C365.388 166.37 364.56 168.099 363.855 169.877L356.631 165.978Z" fill="#F0BFAC"/>
<path d="M300.853 181.794C300.853 181.794 326.327 213.481 339.606 208.473C352.884 203.465 365.835 167.699 365.835 167.699L355.264 160.845L333.337 184.916L305.412 149.663L300.853 181.794Z" fill="#2A2A59"/>
<path d="M257.455 148.567C257.455 148.567 205.722 190.951 207.289 199.719C208.857 208.487 240.557 242.727 240.557 242.727L251.129 232.447L228.817 200.856C228.817 200.856 259.748 178.367 260.532 174.941C261.316 171.514 257.455 148.567 257.455 148.567Z" fill="#2A2A59"/>
<path d="M248.393 167.56C248.393 167.56 258.366 211.303 257.925 215.285C257.483 219.267 253.893 246.084 253.893 246.084L312.92 242.311L309.23 159.444C308.631 152.355 303.716 146.486 297.162 145.196C290.936 143.989 281.732 143.212 268.667 144.253C260.532 144.919 253.579 150.787 251.043 159.056L248.393 167.56Z" fill="#2A2A59"/>
<path d="M266.487 144.488C265.618 144.904 284.724 185.443 284.724 185.443L293.102 144.488C293.102 144.488 272.343 141.727 266.487 144.488Z" fill="white"/>
<path d="M270.548 145.959L271.503 129.921C271.503 129.921 268.269 130.282 267.314 127.882C266.359 125.481 269.209 119.904 273.968 123.803L273.512 110.415H296.407C296.407 110.415 300.568 141.408 286.434 141.408V147.901C286.434 147.901 277.216 154.963 270.548 145.959Z" fill="#F0BFAC"/>
<path d="M242.908 240.507C242.908 240.507 243.848 246.306 246.997 246.306C249.857 246.21 252.71 245.969 255.545 245.585C255.545 245.585 260.29 251.134 260.603 249.372C260.917 247.61 259.435 243.601 259.435 243.601C259.435 243.601 261.857 249.15 262.783 246.487C263.709 243.823 259.62 239.439 259.62 239.439C259.62 239.439 266.858 242.88 267.043 241.437C267.228 239.994 260.674 236.193 260.603 236.193H253.137L251.143 232.502L242.908 240.507Z" fill="#F0BFAC"/>
<path d="M286.006 128.048C286.006 128.048 286.106 128.256 286.42 128.423C286.892 128.667 287.474 128.577 287.844 128.201C288.087 127.952 288.259 127.646 288.343 127.313C288.438 126.922 288.466 126.519 288.428 126.12C288.428 125.246 288.3 124.288 288.229 123.345C288.101 121.333 288.001 119.502 287.944 118.184C287.944 117.518 287.944 116.991 287.944 116.616C287.911 116.428 287.911 116.236 287.944 116.048C287.99 116.234 288.019 116.425 288.029 116.616C288.029 116.977 288.129 117.518 288.186 118.17C288.3 119.558 288.428 121.306 288.557 123.317C288.628 124.33 288.685 125.287 288.728 126.161C288.762 126.59 288.724 127.021 288.614 127.438C288.51 127.805 288.303 128.137 288.015 128.395C287.778 128.619 287.463 128.748 287.132 128.756C286.885 128.77 286.641 128.707 286.434 128.575C286.214 128.475 286.055 128.28 286.006 128.048Z" fill="#1B1A51"/>
<path d="M287.545 131.628C287.252 131.836 286.908 131.966 286.548 132.002C285.672 132.155 284.769 132.003 283.997 131.572C283.238 131.121 282.66 130.431 282.359 129.616C282.206 129.291 282.156 128.929 282.216 128.576C282.216 128.576 282.288 128.978 282.544 129.547C282.876 130.285 283.433 130.905 284.14 131.323C284.859 131.728 285.693 131.898 286.519 131.808C287.16 131.739 287.531 131.628 287.545 131.628Z" fill="#1B1A51"/>
<path d="M282.858 128.353C282.858 128.436 282.359 128.353 281.889 128.603C281.419 128.853 281.248 129.296 281.177 129.283C281.105 129.269 281.177 129.144 281.177 128.95C281.281 128.7 281.473 128.493 281.718 128.367C281.959 128.231 282.24 128.178 282.516 128.214C282.758 128.242 282.858 128.325 282.858 128.353Z" fill="#1B1A51"/>
<path d="M271.517 128.215C271.778 128.005 271.98 127.733 272.101 127.424C272.228 127.103 272.228 126.747 272.101 126.425C271.98 126.035 271.591 125.785 271.175 125.829C270.999 125.844 270.842 125.942 270.754 126.091C270.666 126.241 270.658 126.422 270.733 126.578L270.477 126.675C270.316 125.95 270.226 125.211 270.206 124.469C270.447 125.17 270.628 125.89 270.747 126.62L270.89 127.341L270.505 126.717C270.375 126.485 270.373 126.205 270.499 125.971C270.625 125.737 270.862 125.579 271.132 125.551C271.409 125.514 271.691 125.583 271.916 125.746C272.113 125.898 272.266 126.099 272.357 126.328C272.51 126.703 272.51 127.119 272.357 127.494C272.266 127.746 272.091 127.961 271.859 128.104C271.631 128.215 271.517 128.229 271.517 128.215Z" fill="#1B1A51"/>
<path d="M282.958 114.979C283.029 115.354 282.188 115.826 281.077 116.034C279.966 116.242 278.997 116.117 278.926 115.729C278.854 115.34 279.695 114.882 280.806 114.674C281.918 114.466 282.886 114.633 282.958 114.979Z" fill="#A6613B"/>
<path d="M294.712 114.855C294.712 115.229 293.942 115.493 293.059 115.437C292.176 115.382 291.492 115.007 291.52 114.619C291.549 114.23 292.29 113.981 293.173 114.036C294.056 114.092 294.74 114.466 294.712 114.855Z" fill="#A6613B"/>
<path d="M288.6 141.339L288.001 141.464C287.459 141.546 286.911 141.588 286.363 141.589C282.678 141.62 279.117 140.297 276.39 137.885C275.982 137.528 275.601 137.143 275.25 136.733C275.113 136.584 274.994 136.421 274.894 136.248C274.894 136.248 275.478 136.872 276.532 137.732C277.901 138.866 279.457 139.766 281.134 140.396C282.832 141.003 284.625 141.322 286.434 141.339C287.745 141.339 288.585 141.228 288.6 141.339Z" fill="#1B1A51"/>
<path d="M253.123 236.193C253.123 236.193 254.106 227.036 254.961 228.201C255.816 229.367 256.001 236.9 256.001 236.9L253.123 236.193Z" fill="#F0BFAC"/>
<path d="M287.075 233.792C286.989 233.792 286.391 222.971 285.75 209.624C285.109 196.278 284.653 185.457 284.738 185.443C284.824 185.429 285.408 196.264 286.049 209.611C286.69 222.957 287.146 233.792 287.075 233.792Z" fill="#1B1A51"/>
<path d="M284.055 185.443C283.479 185.169 282.922 184.859 282.388 184.514C280.929 183.565 279.619 182.415 278.498 181.101C276.803 179.149 275.52 176.891 274.723 174.456C273.729 171.459 273.519 168.269 274.11 165.174L274.224 165.341L273.626 165.16C270.465 164.11 267.747 162.077 265.889 159.375C264.389 157.189 263.527 154.648 263.396 152.022C263.308 150.256 263.55 148.488 264.108 146.806C264.302 146.192 264.555 145.597 264.863 145.03C264.825 145.193 264.768 145.351 264.692 145.501C264.505 145.953 264.348 146.417 264.222 146.889C263.707 148.561 263.5 150.308 263.61 152.05C263.76 154.635 264.627 157.133 266.117 159.278C267.97 161.875 270.633 163.821 273.711 164.827L274.309 165.008H274.438V165.133C273.845 168.18 274.046 171.323 275.022 174.275C275.792 176.682 277.035 178.921 278.683 180.865C279.776 182.191 281.057 183.359 282.488 184.333C282.972 184.694 283.414 184.902 283.67 185.083C283.81 185.191 283.938 185.312 284.055 185.443Z" fill="#1B1A51"/>
<path d="M284.738 185.443L285.094 185.138C285.322 184.944 285.693 184.666 286.12 184.278C289.23 181.565 291.316 177.917 292.047 173.914C292.304 172.54 292.452 171.149 292.489 169.752V168.628C292.453 168.266 292.362 167.91 292.218 167.574C291.893 166.876 291.497 166.211 291.036 165.59C290.565 164.942 290.056 164.321 289.511 163.731L289.426 163.537L289.511 163.44C290.551 162.413 291.52 161.386 292.361 160.374C293.24 159.426 294.005 158.384 294.64 157.266C295.41 155.256 295.717 153.106 295.538 150.967C295.41 149.544 295.084 148.143 294.569 146.805L294.099 145.723C294.035 145.601 293.978 145.476 293.928 145.349C294.215 145.79 294.463 146.254 294.669 146.736C295.224 148.067 295.584 149.469 295.737 150.898C295.952 153.075 295.659 155.27 294.882 157.321C294.243 158.465 293.469 159.531 292.574 160.499C291.682 161.525 290.732 162.552 289.725 163.578V163.537C290.284 164.133 290.802 164.763 291.278 165.424C291.755 166.06 292.161 166.743 292.489 167.463C292.647 167.829 292.743 168.218 292.774 168.615V169.752C292.738 171.187 292.581 172.616 292.304 174.025C291.851 176.425 290.911 178.712 289.54 180.754C288.603 182.095 287.481 183.304 286.206 184.347C285.742 184.744 285.252 185.11 284.738 185.443Z" fill="#1B1A51"/>
<path d="M289.454 203.881C289.369 203.881 289.255 203.479 289.198 202.979C289.141 202.48 289.198 202.05 289.198 202.036C289.198 202.022 289.397 202.438 289.454 202.938C289.511 203.437 289.525 203.867 289.454 203.881Z" fill="#1B1A51"/>
<path d="M291.164 221.653C291.079 221.653 290.965 221.265 290.908 220.751C290.851 220.238 290.908 219.822 290.908 219.808C290.908 219.794 291.107 220.21 291.164 220.724C291.221 221.237 291.25 221.639 291.164 221.653Z" fill="#1B1A51"/>
<path d="M311.694 197.777C311.609 197.777 310.996 191.381 310.27 183.487C309.543 175.593 309.229 169.183 309.229 169.169C309.229 169.156 309.928 175.565 310.654 183.459C311.381 191.353 311.78 197.777 311.694 197.777Z" fill="#1B1A51"/>
<path d="M257.939 178.798C257.793 178.962 257.625 179.106 257.44 179.228L256.016 180.351C254.804 181.281 253.166 182.585 251.3 184.056C249.433 185.526 247.852 186.83 246.683 187.857L245.259 189.022C245.098 189.18 244.916 189.315 244.717 189.425C244.859 189.249 245.016 189.087 245.187 188.939L246.512 187.704C247.652 186.678 249.262 185.29 251.086 183.82C252.91 182.349 254.619 181.045 255.859 180.185L257.355 179.144C257.539 179.013 257.734 178.897 257.939 178.798Z" fill="#1B1A51"/>
<path d="M248.308 228.84C248.181 228.998 248.032 229.138 247.866 229.256L246.598 230.282L242.324 233.598L238.049 236.859L236.724 237.816C236.564 237.937 236.392 238.044 236.211 238.135C236.334 237.982 236.477 237.846 236.639 237.733L237.921 236.692L242.195 233.376L246.47 230.116L247.795 229.159C247.955 229.037 248.127 228.931 248.308 228.84Z" fill="#1B1A51"/>
<path d="M240.685 238.995C240.685 238.995 240.443 238.856 240.315 238.606C240.186 238.357 240.144 238.121 240.229 238.093C240.315 238.065 240.457 238.218 240.585 238.468C240.714 238.717 240.756 238.953 240.685 238.995Z" fill="#1B1A51"/>
<path d="M365.322 171.861C365.117 171.813 364.917 171.748 364.724 171.667L363.142 171.028C361.718 170.487 359.937 169.752 357.871 168.989C355.805 168.226 353.924 167.602 352.556 167.074L350.946 166.506C350.743 166.444 350.547 166.36 350.362 166.256C350.572 166.277 350.777 166.324 350.975 166.395L352.628 166.88C354.052 167.31 355.919 167.935 357.985 168.711C360.051 169.488 361.903 170.251 363.214 170.848L364.781 171.556C364.973 171.636 365.155 171.739 365.322 171.861Z" fill="#1B1A51"/>
<path d="M354.693 163.537C354.765 163.537 354.508 163.981 354.123 164.411C353.739 164.841 353.368 165.16 353.311 165.105C353.254 165.049 353.511 164.661 353.896 164.231C354.28 163.801 354.636 163.537 354.693 163.537Z" fill="#1B1A51"/>
<path d="M332.966 190.577C332.811 189.567 332.759 188.544 332.809 187.524C332.758 186.509 332.811 185.491 332.966 184.486C333.104 185.493 333.151 186.51 333.109 187.524C333.151 188.544 333.103 189.565 332.966 190.577Z" fill="#1B1A51"/>
<path d="M336.656 191.478C336.585 191.478 336.015 190.091 335.118 188.398C334.22 186.706 333.351 185.443 333.422 185.388C334.222 186.243 334.885 187.211 335.388 188.26C335.98 189.262 336.408 190.348 336.656 191.478Z" fill="#1B1A51"/>
<path d="M229.131 200.732C228.234 200.754 227.336 200.688 226.452 200.538C225.554 200.468 224.665 200.305 223.802 200.052C224.7 200.022 225.598 200.087 226.481 200.246C227.38 200.308 228.27 200.471 229.131 200.732Z" fill="#1B1A51"/>
<path d="M229.358 199.802C228.426 199.46 227.475 199.168 226.509 198.928C225.527 198.785 224.538 198.697 223.545 198.665C224.536 198.413 225.576 198.413 226.566 198.665C227.58 198.809 228.541 199.2 229.358 199.802Z" fill="#1B1A51"/>
<path d="M270.163 145.376C270.007 144.808 270.163 140.632 270.163 140.632C270.163 140.632 281.02 141.45 282.188 150.537C282.188 150.537 284.169 143.004 287.075 142.56L287.56 147.527L286.007 152.84L279.795 154.075L273.141 151.939L270.163 145.376Z" fill="white"/>
<path d="M282.088 152.285L280.849 155.99L282.786 158.709L283.584 155.005L282.088 152.285Z" fill="#1B1A51"/>
<path d="M282.259 157.973L280.122 175.579L284.995 185.998L288.599 169.1L283.057 157.446L282.259 157.973Z" fill="#1B1A51"/>
<path d="M281.148 121.528C280.958 120.696 280.958 119.834 281.148 119.003C281.291 119.408 281.34 119.839 281.29 120.265C281.348 120.691 281.299 121.124 281.148 121.528Z" fill="#423030"/>
<path d="M293.23 120.987C293.144 120.987 293.073 120.473 293.045 119.821C293.016 119.169 293.045 118.642 293.159 118.642C293.311 119.012 293.374 119.41 293.344 119.807C293.358 120.529 293.315 120.987 293.23 120.987Z" fill="#423030"/>
</svg>
