<svg width="108" height="108" viewBox="0 0 108 108" fill="none" xmlns="http://www.w3.org/2000/svg">
<g filter="url(#filter0_dd_1_11737)">
<circle cx="56" cy="56" r="40" fill="url(#paint0_linear_1_11737)"/>
<circle cx="56" cy="56" r="38" stroke="url(#paint1_linear_1_11737)" stroke-width="4"/>
</g>
<g clip-path="url(#clip0_1_11737)">
<path d="M70.1222 41.8754C62.2878 34.0409 49.7129 34.0383 41.8759 41.8754C34.0414 49.7098 34.0387 62.2846 41.8759 70.1217C49.7103 77.9562 62.2851 77.9588 70.1222 70.1217C77.9566 62.2874 77.9593 49.7124 70.1222 41.8754ZM55.999 73.6513C46.2652 73.6513 38.3463 65.7323 38.3463 55.9985C38.3463 46.2648 46.2652 38.3458 55.999 38.3458C65.7328 38.3458 73.6518 46.2648 73.6518 55.9985C73.6518 65.7323 65.7328 73.6513 55.999 73.6513Z" fill="url(#paint2_linear_1_11737)"/>
<path d="M61.7528 49.5123C61.2688 49.0827 60.5283 49.1269 60.0988 49.6109C59.6692 50.0949 59.7134 50.8354 60.1974 51.265C61.5506 52.4659 62.3267 54.1913 62.3267 55.9989C62.3267 59.4876 59.4885 62.3258 55.9998 62.3258C52.5111 62.3258 49.673 59.4876 49.673 55.9989C49.673 54.1734 50.4619 52.4367 51.8375 51.2339C52.3246 50.8079 52.3743 50.0678 51.9483 49.5806C51.5223 49.0934 50.7822 49.0439 50.295 49.4698C48.4105 51.1176 47.3296 53.4974 47.3296 55.9989C47.3296 60.7797 51.219 64.6691 55.9997 64.6691C60.7805 64.6691 64.6699 60.7797 64.6699 55.9989C64.67 53.5218 63.6067 51.1576 61.7528 49.5123Z" fill="url(#paint3_linear_1_11737)"/>
<path d="M56.0002 54.0471C56.6473 54.0471 57.1719 53.5226 57.1719 52.8755V46.6267C57.1719 45.9797 56.6473 45.4551 56.0002 45.4551C55.3532 45.4551 54.8286 45.9797 54.8286 46.6267V52.8755C54.8286 53.5226 55.3532 54.0471 56.0002 54.0471Z" fill="url(#paint4_linear_1_11737)"/>
</g>
<defs>
<filter id="filter0_dd_1_11737" x="0" y="0" width="108" height="108" filterUnits="userSpaceOnUse" color-interpolation-filters="sRGB">
<feFlood flood-opacity="0" result="BackgroundImageFix"/>
<feColorMatrix in="SourceAlpha" type="matrix" values="0 0 0 0 0 0 0 0 0 0 0 0 0 0 0 0 0 0 127 0" result="hardAlpha"/>
<feOffset dx="4" dy="4"/>
<feGaussianBlur stdDeviation="4"/>
<feComposite in2="hardAlpha" operator="out"/>
<feColorMatrix type="matrix" values="0 0 0 0 0.0862745 0 0 0 0 0.0901961 0 0 0 0 0.105882 0 0 0 0.36 0"/>
<feBlend mode="normal" in2="BackgroundImageFix" result="effect1_dropShadow_1_11737"/>
<feColorMatrix in="SourceAlpha" type="matrix" values="0 0 0 0 0 0 0 0 0 0 0 0 0 0 0 0 0 0 127 0" result="hardAlpha"/>
<feOffset dx="-4" dy="-4"/>
<feGaussianBlur stdDeviation="6"/>
<feComposite in2="hardAlpha" operator="out"/>
<feColorMatrix type="matrix" values="0 0 0 0 0.991667 0 0 0 0 0.991667 0 0 0 0 0.991667 0 0 0 0.55 0"/>
<feBlend mode="normal" in2="effect1_dropShadow_1_11737" result="effect2_dropShadow_1_11737"/>
<feBlend mode="normal" in="SourceGraphic" in2="effect2_dropShadow_1_11737" result="shape"/>
</filter>
<linearGradient id="paint0_linear_1_11737" x1="29.3333" y1="29.3333" x2="78.963" y2="81.1852" gradientUnits="userSpaceOnUse">
<stop stop-color="white"/>
<stop offset="1" stop-color="#D2D2D2"/>
</linearGradient>
<linearGradient id="paint1_linear_1_11737" x1="30" y1="26" x2="83" y2="85" gradientUnits="userSpaceOnUse">
<stop stop-color="#D2D2D2"/>
<stop offset="1" stop-color="white"/>
</linearGradient>
<linearGradient id="paint2_linear_1_11737" x1="55.999" y1="35.9985" x2="55.999" y2="75.9985" gradientUnits="userSpaceOnUse">
<stop stop-color="#34C85A"/>
<stop offset="1" stop-color="#037621"/>
</linearGradient>
<linearGradient id="paint3_linear_1_11737" x1="55.9997" y1="49.1802" x2="55.9997" y2="64.6691" gradientUnits="userSpaceOnUse">
<stop stop-color="#34C85A"/>
<stop offset="1" stop-color="#037621"/>
</linearGradient>
<linearGradient id="paint4_linear_1_11737" x1="56.0002" y1="45.4551" x2="56.0002" y2="54.0471" gradientUnits="userSpaceOnUse">
<stop stop-color="#34C85A"/>
<stop offset="1" stop-color="#037621"/>
</linearGradient>
<clipPath id="clip0_1_11737">
<rect width="40" height="40" fill="white" transform="translate(36 36)"/>
</clipPath>
</defs>
</svg>
