<svg width="16" height="16" viewBox="0 0 16 16" fill="none" xmlns="http://www.w3.org/2000/svg">
<path d="M14.9834 1.26943C12.8741 3.09493 11.0896 4.83268 9.45587 7.09993C8.73537 8.09993 7.93412 9.27693 7.41037 10.3882C7.11137 10.9774 6.57237 11.8982 6.38862 12.7834C5.38362 11.8484 4.30412 10.7872 3.19962 9.95593C2.41237 9.36368 0.144871 10.5712 1.06787 11.2657C2.72212 12.5099 4.09787 14.0597 5.70687 15.3594C6.37987 15.9024 7.87137 14.7232 8.22187 14.2284C9.37237 12.5984 9.52962 10.6059 10.3681 8.82793C11.6484 6.10868 13.9189 3.87493 16.1606 1.93518C17.6459 0.54993 16.1119 0.29443 14.9856 1.26943" fill="white"/>
</svg>
