<svg width="42" height="42" viewBox="0 0 42 42" fill="none" xmlns="http://www.w3.org/2000/svg">
<path d="M21 0C9.40201 0 0 9.40201 0 21C0 32.598 9.40201 42 21 42C32.598 42 42 32.598 42 21C42 9.40201 32.598 0 21 0ZM26.0244 7.84679C27.6743 7.86202 29.2277 8.60184 30.6874 10.0616C32.3084 11.7209 33.2387 13.8396 32.6331 16.2883C32.2871 17.5859 31.4672 18.9116 30.1696 20.2668C26.2393 24.1216 22.7051 27.7128 18.1879 32.205C17.3238 33.0539 15.7802 34.0903 14.2094 34.1532C12.903 34.143 11.8498 33.6058 10.8768 32.6382C9.84179 31.59 9.07638 30.2268 9.19009 28.529C9.33426 27.3179 9.92593 26.1935 10.964 25.1554L21.0436 15.0784C22.5332 13.6018 24.63 12.4588 26.6217 14.1684C28.4227 16.034 27.2724 18.0535 25.6707 19.7055L16.3704 28.9622L14.5964 27.1446L23.8532 17.8879C24.276 17.4634 25.1398 16.7209 24.8043 15.9422C24.3668 15.5473 23.3189 16.432 22.8585 16.8933L12.7815 26.9729C12.2775 27.4805 11.8393 28.014 11.7433 28.7878C11.6568 29.451 11.9587 30.1286 12.6508 30.8206C13.9924 32.065 14.9263 31.7095 16.3703 30.3899C20.2129 26.5474 23.2966 23.4971 27.2498 19.5541C28.5493 18.2546 29.4885 17.4355 30.1696 15.6396C30.7067 13.6156 28.6281 10.7378 26.2757 10.4076C24.7317 10.2635 23.3853 11.2773 22.2536 12.3533L11.2229 23.3815L9.40797 21.6101L20.436 10.5359C22.1662 8.83467 23.9178 7.94101 25.6912 7.85452C25.802 7.8491 25.9144 7.84581 26.0244 7.84679Z" fill="#C74A2E"/>
</svg>
