<svg width="30" height="35" viewBox="0 0 30 35" fill="none" xmlns="http://www.w3.org/2000/svg">
<path d="M2 0.999999L28 1C28.5523 1 29 1.44771 29 2L29 29.5844C29 30.1367 28.5523 30.5844 28 30.5844L7.99441 30.5844C7.72402 30.5844 7.46515 30.6939 7.27683 30.8879L5.00329 33.2304C4.37778 33.8748 3.28571 33.432 3.28571 32.5339L3.28571 31.5844C3.28571 31.0321 2.838 30.5844 2.28571 30.5844L2 30.5844C1.44772 30.5844 1 30.1367 1 29.5844L1 2C1 1.44771 1.44772 0.999999 2 0.999999Z" stroke="#C74A2E"/>
</svg>
