<svg width="16" height="16" viewBox="0 0 16 16" fill="none" xmlns="http://www.w3.org/2000/svg"> <path d="M13.8422 7.66094C13.8984 7.47344 13.9266 7.27969 13.9266 7.08281C13.9266 6.64063 13.7812 6.21563 13.5188 5.86875C13.575 5.68125 13.6031 5.4875 13.6031 5.29063C13.6031 4.84844 13.4578 4.42344 13.1953 4.07657C13.2516 3.88907 13.2797 3.69532 13.2797 3.49844C13.2797 2.69219 12.8 1.96563 12.0562 1.64844C11.9255 1.59208 11.7845 1.56336 11.6422 1.56407H2.25C1.97344 1.56407 1.75 1.78751 1.75 2.06407V7.75156C1.75 8.02813 1.97344 8.25156 2.25 8.25156H4.27031L5.61094 13.1078C5.82656 13.8906 6.54531 14.4375 7.35781 14.4375C7.82188 14.4375 8.25469 14.2531 8.575 13.9156C8.89531 13.5797 9.05937 13.1391 9.03594 12.675L8.94219 10.7547H12.6906C12.8797 10.7547 13.0641 10.7047 13.2266 10.6094C13.8578 10.2422 14.25 9.57656 14.25 8.875C14.25 8.43281 14.1047 8.00781 13.8422 7.66094ZM2.875 7.125V2.68751H4.14062V7.125H2.875ZM12.675 9.63125H7.7625L7.9125 12.7312C7.92188 12.9172 7.83906 13.0922 7.68437 13.2078C7.58906 13.2781 7.47188 13.3141 7.35469 13.3125C7.20497 13.311 7.05977 13.2611 6.94087 13.1701C6.82198 13.0791 6.73581 12.952 6.69531 12.8078L5.14062 7.175V2.68751H11.6313C11.7874 2.7575 11.9201 2.87112 12.0132 3.01471C12.1063 3.1583 12.156 3.32573 12.1562 3.49688C12.1562 3.64844 12.1203 3.79219 12.0484 3.92344L11.8313 4.32032L12.1734 4.61719C12.2698 4.70061 12.347 4.8038 12.3998 4.91974C12.4527 5.03568 12.4799 5.16165 12.4797 5.28907C12.4797 5.44063 12.4437 5.58438 12.3719 5.71563L12.1547 6.1125L12.4969 6.40938C12.5932 6.49279 12.6704 6.59599 12.7232 6.71193C12.7761 6.82787 12.8033 6.95384 12.8031 7.08125C12.8031 7.23281 12.7672 7.37656 12.6953 7.50781L12.4766 7.90625L12.8188 8.20313C12.9151 8.28654 12.9923 8.38973 13.0451 8.50568C13.098 8.62162 13.1252 8.74758 13.125 8.875C13.125 9.17344 12.9531 9.46094 12.675 9.63125Z" fill="black"/> </svg>