<svg width="52" height="52" viewBox="0 0 52 52" fill="none" xmlns="http://www.w3.org/2000/svg">
<path d="M26 4.33203C28.8453 4.33203 31.6627 4.89246 34.2915 5.98131C36.9202 7.07016 39.3087 8.66612 41.3206 10.6781C43.3326 12.69 44.9285 15.0785 46.0174 17.7072C47.1062 20.3359 47.6667 23.1534 47.6667 25.9987C47.6667 31.7451 45.3839 37.2561 41.3206 41.3193C37.2574 45.3826 31.7464 47.6654 26 47.6654C23.1547 47.6654 20.3372 47.1049 17.7085 46.0161C15.0798 44.9272 12.6913 43.3313 10.6793 41.3193C6.61606 37.2561 4.33333 31.7451 4.33333 25.9987C4.33333 20.2523 6.61606 14.7413 10.6793 10.6781C14.7426 6.61476 20.2536 4.33203 26 4.33203V4.33203ZM30.3333 15.1654H21.6667V19.4987H23.8333V32.4987H21.6667V36.832H30.3333V32.4987H28.1667V19.4987H30.3333V15.1654Z" fill="#C74A2E"/>
<circle cx="26" cy="10" r="3" fill="white"/>
</svg>
