<svg width="52" height="52" viewBox="0 0 52 52" fill="none" xmlns="http://www.w3.org/2000/svg">
<path d="M25.9997 4.3335C28.845 4.3335 31.6624 4.89392 34.2912 5.98277C36.9199 7.07162 39.3084 8.66758 41.3203 10.6795C43.3323 12.6915 44.9282 15.08 46.0171 17.7087C47.1059 20.3374 47.6663 23.1549 47.6663 26.0002C47.6663 31.7465 45.3836 37.2575 41.3203 41.3208C37.257 45.3841 31.746 47.6668 25.9997 47.6668C23.1544 47.6668 20.3369 47.1064 17.7082 46.0176C15.0795 44.9287 12.691 43.3327 10.679 41.3208C6.61574 37.2575 4.33301 31.7465 4.33301 26.0002C4.33301 20.2538 6.61574 14.7428 10.679 10.6795C14.7423 6.61623 20.2533 4.3335 25.9997 4.3335ZM30.333 15.1668H21.6663V19.5002H23.833V32.5002H21.6663V36.8335H30.333V32.5002H28.1663V19.5002H30.333V15.1668Z" fill="#C74A2E"/>
<circle cx="26" cy="10" r="3" fill="white"/>
</svg>
