<svg width="16" height="16" viewBox="0 0 16 16" fill="none" xmlns="http://www.w3.org/2000/svg"> <path d="M13.8422 8.33905C14.1047 7.99218 14.25 7.56718 14.25 7.12499C14.25 6.42343 13.8578 5.75937 13.2266 5.38906C13.0641 5.29374 12.879 5.24357 12.6906 5.24375H8.94375L9.0375 3.32344C9.05938 2.85938 8.89531 2.41875 8.57656 2.08281C8.42013 1.91723 8.23141 1.78549 8.02206 1.69573C7.8127 1.60597 7.58716 1.56009 7.35938 1.56094C6.54688 1.56094 5.82812 2.10781 5.6125 2.89062L4.27031 7.74999H2.25C1.97344 7.74999 1.75 7.97343 1.75 8.24999V13.9375C1.75 14.214 1.97344 14.4375 2.25 14.4375H11.6453C11.7891 14.4375 11.9297 14.4094 12.0594 14.3531C12.8031 14.0359 13.2828 13.3094 13.2828 12.5031C13.2828 12.3062 13.2547 12.1125 13.1984 11.925C13.4609 11.5781 13.6062 11.1531 13.6062 10.7109C13.6062 10.514 13.5781 10.3203 13.5219 10.1328C13.7844 9.78592 13.9297 9.36093 13.9297 8.91874C13.9266 8.72186 13.8984 8.52655 13.8422 8.33905ZM2.875 13.3125V8.87499H4.14062V13.3125H2.875ZM12.8188 7.79687L12.4766 8.09374L12.6938 8.49062C12.7653 8.62135 12.8024 8.76814 12.8016 8.91718C12.8016 9.17499 12.6891 9.4203 12.4953 9.58905L12.1531 9.88592L12.3703 10.2828C12.4419 10.4135 12.479 10.5603 12.4781 10.7094C12.4781 10.9672 12.3656 11.2125 12.1719 11.3812L11.8297 11.6781L12.0469 12.075C12.1184 12.2057 12.1555 12.3525 12.1547 12.5015C12.1547 12.8515 11.9484 13.1672 11.6297 13.3109H5.14062V8.82499L6.69531 3.19219C6.7354 3.04781 6.82146 2.92044 6.94044 2.82937C7.05943 2.7383 7.20485 2.68849 7.35469 2.6875C7.47344 2.6875 7.59062 2.72188 7.68437 2.79219C7.83906 2.90781 7.92188 3.08281 7.9125 3.26875L7.7625 6.36874H12.675C12.9531 6.53906 13.125 6.82656 13.125 7.12499C13.125 7.3828 13.0125 7.62655 12.8188 7.79687Z" fill="black"/> </svg>