<svg width="42" height="42" viewBox="0 0 42 42" fill="none" xmlns="http://www.w3.org/2000/svg">
<path d="M21.2249 42C32.4488 42 41.5475 32.598 41.5475 21C41.5475 9.40202 32.4488 0 21.2249 0C10.0011 0 0.902344 9.40202 0.902344 21C0.902344 32.598 10.0011 42 21.2249 42Z" fill="#C74A2E"/>
<path fill-rule="evenodd" clip-rule="evenodd" d="M17.8352 11.668C17.8352 9.73497 19.3517 8.16797 21.2223 8.16797C23.0929 8.16797 24.6094 9.73497 24.6094 11.668V21.0012C24.6094 22.9344 23.0929 24.5012 21.2223 24.5012C19.3517 24.5012 17.8352 22.9344 17.8352 21.0012V11.668ZM22.3513 11.668V21.0012C22.3513 21.6457 21.8458 22.168 21.2223 22.168C20.5987 22.168 20.0932 21.6457 20.0932 21.0012V11.668C20.0932 11.0236 20.5987 10.5013 21.2223 10.5013C21.8458 10.5013 22.3513 11.0236 22.3513 11.668Z" fill="white"/>
<path d="M27.9965 21C27.9965 24.4685 25.5552 27.3479 22.3513 27.9033V31.5H26.8674V33.8334H15.5771V31.5H20.0932V27.9033C16.8894 27.3479 14.4481 24.4685 14.4481 21V17.5H16.7061V21C16.7061 23.5774 18.7281 25.6668 21.2223 25.6668C23.7164 25.6668 25.7384 23.5774 25.7384 21V17.5H27.9965V21Z" fill="white"/>
</svg>
