<svg width="44" height="44" viewBox="0 0 44 44" fill="none" xmlns="http://www.w3.org/2000/svg">
<circle cx="22" cy="22" r="22" fill="#EA5736"/>
<path d="M15.5444 26.189C16.5601 26.1825 17.1982 25.5444 17.2015 24.532C17.2047 23.7604 17.208 22.9889 17.1982 22.2173C17.195 22.0057 17.2601 21.8951 17.4587 21.8397C17.8461 21.7258 18.2237 21.5695 18.6144 21.4783C20.4439 21.0616 22.293 21.029 24.1486 21.2178C25.0699 21.3122 25.9814 21.488 26.8506 21.8428C27.0264 21.9145 27.098 22.0056 27.098 22.2074C27.085 22.9692 27.0915 23.731 27.0947 24.496C27.098 25.5605 27.723 26.1856 28.794 26.1888C29.4028 26.1921 30.005 26.1888 30.6138 26.192C31.2388 26.192 31.8639 26.1985 32.4889 26.192C33.4981 26.179 34.1362 25.5409 34.1427 24.5317C34.1492 23.7569 34.1297 22.9886 34.1493 22.2139C34.1688 21.4977 33.9279 20.8856 33.4689 20.3485C32.7202 19.4761 31.7566 18.9096 30.7311 18.4441C28.6151 17.474 26.3721 16.976 24.0575 16.7774C20.929 16.5073 17.8787 16.8687 14.913 17.8942C13.5783 18.3565 12.3119 18.9522 11.2441 19.9093C10.5083 20.5669 10.0786 21.3482 10.1372 22.377C10.1763 23.0801 10.1404 23.7931 10.1437 24.4995C10.1502 25.5477 10.785 26.1891 11.8235 26.1923C13.0638 26.1955 14.3041 26.1923 15.5444 26.189Z" fill="white"/>
</svg>
