<svg width="185" height="19" viewBox="0 0 185 19" fill="none" xmlns="http://www.w3.org/2000/svg">
<rect y="12" width="2" height="7" fill="#CC7F31"/>
<rect x="3" y="8" width="2" height="11" fill="#CC7F31"/>
<rect x="6" y="8" width="2" height="11" fill="#CC7F31"/>
<rect x="9" y="8" width="2" height="11" fill="#CC7F31"/>
<rect x="12" y="8" width="2" height="11" fill="#CC7F31"/>
<rect x="15" y="8" width="2" height="11" fill="#CC7F31"/>
<rect x="18" y="8" width="2" height="11" fill="#CC7F31"/>
<rect x="21" y="8" width="2" height="11" fill="#CC7F31"/>
<rect x="24" y="8" width="2" height="11" fill="#CC7F31"/>
<rect x="27" y="8" width="2" height="11" fill="#CC7F31"/>
<rect x="30" y="8" width="2" height="11" fill="#CC7F31"/>
<rect x="30" y="8" width="2" height="11" fill="#CC7F31"/>
<rect x="42" y="8" width="2" height="11" fill="#CC7F31"/>
<rect x="42" y="8" width="2" height="11" fill="#CC7F31"/>
<rect x="42" y="8" width="2" height="11" fill="#CC7F31"/>
<rect x="42" y="8" width="2" height="11" fill="#CC7F31"/>
<rect x="42" y="8" width="2" height="11" fill="#CC7F31"/>
<rect x="42" y="8" width="2" height="11" fill="#CC7F31"/>
<rect x="42" y="8" width="2" height="11" fill="#CC7F31"/>
<rect x="42" y="8" width="2" height="11" fill="#CC7F31"/>
<rect x="45" y="8" width="2" height="11" fill="#CC7F31"/>
<rect x="48" y="8" width="2" height="11" fill="#CC7F31"/>
<rect x="51" y="8" width="2" height="11" fill="#CC7F31"/>
<rect x="54" y="8" width="2" height="11" fill="#CC7F31"/>
<rect x="57" y="8" width="2" height="11" fill="#CC7F31"/>
<rect x="60" y="8" width="2" height="11" fill="#CC7F31"/>
<rect x="63" y="8" width="2" height="11" fill="#CC7F31"/>
<rect x="66" y="8" width="2" height="11" fill="#CC7F31"/>
<rect x="69" y="8" width="2" height="11" fill="#CC7F31"/>
<rect x="72" y="8" width="2" height="11" fill="#CC7F31"/>
<rect x="75" y="8" width="2" height="11" fill="#CC7F31"/>
<rect x="78" y="8" width="2" height="11" fill="#CC7F31"/>
<rect x="81" y="8" width="2" height="11" fill="#CC7F31"/>
<rect x="84" y="8" width="2" height="11" fill="#CC7F31"/>
<rect x="87" y="8" width="2" height="11" fill="#CC7F31"/>
<rect x="90" y="8" width="2" height="11" fill="#CC7F31"/>
<rect x="93" y="8" width="2" height="11" fill="#CC7F31"/>
<rect x="96" y="8" width="2" height="11" fill="#CC7F31"/>
<rect x="99" y="8" width="2" height="11" fill="#CC7F31"/>
<rect x="102" y="8" width="2" height="11" fill="#CC7F31"/>
<rect x="105" y="8" width="2" height="11" fill="#CC7F31"/>
<rect x="108" y="8" width="2" height="11" fill="#CC7F31"/>
<rect x="111" y="8" width="2" height="11" fill="#CC7F31"/>
<rect x="114" y="8" width="2" height="11" fill="#CC7F31"/>
<rect x="117" y="8" width="2" height="11" fill="#CC7F31"/>
<rect x="120" y="8" width="2" height="11" fill="#CC7F31"/>
<rect x="123" y="8" width="2" height="11" fill="#CC7F31"/>
<rect x="126" y="8" width="2" height="11" fill="#CC7F31"/>
<rect x="129" y="8" width="2" height="11" fill="#CC7F31"/>
<rect x="132" y="8" width="2" height="11" fill="#CC7F31"/>
<rect x="135" y="8" width="2" height="11" fill="#CC7F31"/>
<rect x="138" y="8" width="2" height="11" fill="#CC7F31"/>
<rect x="141" y="8" width="2" height="11" fill="#CC7F31"/>
<rect x="144" y="8" width="2" height="11" fill="#CC7F31"/>
<rect x="147" y="8" width="2" height="11" fill="#CC7F31"/>
<rect x="150" y="8" width="2" height="11" fill="#CC7F31"/>
<rect x="153" y="8" width="2" height="11" fill="#CC7F31"/>
<rect x="156" y="8" width="2" height="11" fill="#CC7F31"/>
<rect x="159" y="8" width="2" height="11" fill="#CC7F31"/>
<rect x="162" y="8" width="2" height="11" fill="#CC7F31"/>
<rect x="165" y="8" width="2" height="11" fill="#CC7F31"/>
<rect x="168" y="8" width="2" height="11" fill="#CC7F31"/>
<rect x="171" y="8" width="2" height="11" fill="#CC7F31"/>
<rect x="174" y="8" width="2" height="11" fill="#CC7F31"/>
<rect x="177" y="8" width="2" height="11" fill="#CC7F31"/>
<rect x="180" y="8" width="2" height="11" fill="#CC7F31"/>
<rect x="183" y="8" width="2" height="11" fill="#CC7F31"/>
<rect x="33" y="4" width="2" height="15" fill="#CC7F31"/>
<rect x="36" width="2" height="19" fill="#CC7F31"/>
<rect x="39" y="4" width="2" height="15" fill="#CC7F31"/>
</svg>
