<svg width="220" height="147" viewBox="0 0 220 147" fill="none" xmlns="http://www.w3.org/2000/svg">
<path d="M103.469 73.8086C103.469 99.069 99.237 117.591 90.7734 129.375C82.3099 141.094 69.3542 146.953 51.9062 146.953C34.849 146.953 21.9909 140.833 13.332 128.594C4.67318 116.289 0.34375 98.0273 0.34375 73.8086C0.34375 48.418 4.57552 29.7982 13.0391 17.9492C21.5026 6.10026 34.4583 0.175781 51.9062 0.175781C68.8984 0.175781 81.724 6.36068 90.3828 18.7305C99.1068 31.0352 103.469 49.3945 103.469 73.8086ZM38.7227 73.8086C38.7227 89.9544 39.7318 101.055 41.75 107.109C43.7682 113.164 47.1536 116.191 51.9062 116.191C56.724 116.191 60.1094 113.066 62.0625 106.816C64.0807 100.566 65.0898 89.5638 65.0898 73.8086C65.0898 57.9883 64.0807 46.9206 62.0625 40.6055C60.0443 34.2253 56.6589 31.0352 51.9062 31.0352C47.1536 31.0352 43.7682 34.0951 41.75 40.2148C39.7318 46.3346 38.7227 57.5326 38.7227 73.8086Z" fill="white"/>
<path d="M215.285 33.1836C215.285 42.0378 212.583 49.6549 207.18 56.0352C201.776 62.3503 193.964 66.9401 183.742 69.8047V70.3906C207.57 73.3854 219.484 84.6484 219.484 104.18C219.484 117.461 214.211 127.91 203.664 135.527C193.182 143.145 178.599 146.953 159.914 146.953C152.232 146.953 145.103 146.4 138.527 145.293C132.017 144.186 124.953 142.168 117.336 139.238V107.207C123.586 110.397 129.934 112.773 136.379 114.336C142.889 115.833 148.879 116.582 154.348 116.582C162.811 116.582 168.964 115.41 172.805 113.066C176.711 110.658 178.664 106.914 178.664 101.836C178.664 97.9297 177.655 94.9349 175.637 92.8516C173.618 90.7031 170.363 89.1081 165.871 88.0664C161.379 86.9596 155.52 86.4062 148.293 86.4062H139.504V57.4023H148.488C168.085 57.4023 177.883 52.3893 177.883 42.3633C177.883 38.5872 176.418 35.7878 173.488 33.9648C170.624 32.1419 166.75 31.2305 161.867 31.2305C152.753 31.2305 143.312 34.2904 133.547 40.4102L117.531 14.6289C125.083 9.42057 132.798 5.70964 140.676 3.49609C148.618 1.28255 157.701 0.175781 167.922 0.175781C182.701 0.175781 194.289 3.10547 202.688 8.96484C211.086 14.8242 215.285 22.8971 215.285 33.1836Z" fill="white"/>
<path d="M103.469 73.8086C103.469 99.069 99.237 117.591 90.7734 129.375C82.3099 141.094 69.3542 146.953 51.9062 146.953C34.849 146.953 21.9909 140.833 13.332 128.594C4.67318 116.289 0.34375 98.0273 0.34375 73.8086C0.34375 48.418 4.57552 29.7982 13.0391 17.9492C21.5026 6.10026 34.4583 0.175781 51.9062 0.175781C68.8984 0.175781 81.724 6.36068 90.3828 18.7305C99.1068 31.0352 103.469 49.3945 103.469 73.8086ZM38.7227 73.8086C38.7227 89.9544 39.7318 101.055 41.75 107.109C43.7682 113.164 47.1536 116.191 51.9062 116.191C56.724 116.191 60.1094 113.066 62.0625 106.816C64.0807 100.566 65.0898 89.5638 65.0898 73.8086C65.0898 57.9883 64.0807 46.9206 62.0625 40.6055C60.0443 34.2253 56.6589 31.0352 51.9062 31.0352C47.1536 31.0352 43.7682 34.0951 41.75 40.2148C39.7318 46.3346 38.7227 57.5326 38.7227 73.8086Z" fill="url(#paint0_linear_1_34742)"/>
<path d="M215.285 33.1836C215.285 42.0378 212.583 49.6549 207.18 56.0352C201.776 62.3503 193.964 66.9401 183.742 69.8047V70.3906C207.57 73.3854 219.484 84.6484 219.484 104.18C219.484 117.461 214.211 127.91 203.664 135.527C193.182 143.145 178.599 146.953 159.914 146.953C152.232 146.953 145.103 146.4 138.527 145.293C132.017 144.186 124.953 142.168 117.336 139.238V107.207C123.586 110.397 129.934 112.773 136.379 114.336C142.889 115.833 148.879 116.582 154.348 116.582C162.811 116.582 168.964 115.41 172.805 113.066C176.711 110.658 178.664 106.914 178.664 101.836C178.664 97.9297 177.655 94.9349 175.637 92.8516C173.618 90.7031 170.363 89.1081 165.871 88.0664C161.379 86.9596 155.52 86.4062 148.293 86.4062H139.504V57.4023H148.488C168.085 57.4023 177.883 52.3893 177.883 42.3633C177.883 38.5872 176.418 35.7878 173.488 33.9648C170.624 32.1419 166.75 31.2305 161.867 31.2305C152.753 31.2305 143.312 34.2904 133.547 40.4102L117.531 14.6289C125.083 9.42057 132.798 5.70964 140.676 3.49609C148.618 1.28255 157.701 0.175781 167.922 0.175781C182.701 0.175781 194.289 3.10547 202.688 8.96484C211.086 14.8242 215.285 22.8971 215.285 33.1836Z" fill="url(#paint1_linear_1_34742)"/>
<defs>
<linearGradient id="paint0_linear_1_34742" x1="110" y1="-33.5" x2="110" y2="180.5" gradientUnits="userSpaceOnUse">
<stop stop-color="#CC7F31"/>
<stop offset="1" stop-color="white" stop-opacity="0"/>
</linearGradient>
<linearGradient id="paint1_linear_1_34742" x1="110" y1="-33.5" x2="110" y2="180.5" gradientUnits="userSpaceOnUse">
<stop stop-color="#CC7F31"/>
<stop offset="1" stop-color="white" stop-opacity="0"/>
</linearGradient>
</defs>
</svg>
