<svg width="65" height="35" viewBox="0 0 65 35" fill="none" xmlns="http://www.w3.org/2000/svg">
<path d="M2 0.999997L63 1C63.5523 1 64 1.44771 64 2L64 29.5844C64 30.1367 63.5523 30.5844 63 30.5844L16.0038 30.5844C15.8601 30.5844 15.7181 30.6154 15.5874 30.6752L7.5592 34.3514C6.89684 34.6547 6.14286 34.1707 6.14286 33.4422L6.14286 31.5844C6.14286 31.0321 5.69514 30.5844 5.14286 30.5844L2 30.5844C1.44771 30.5844 0.999999 30.1367 0.999999 29.5844L1 2C1 1.44771 1.44772 0.999997 2 0.999997Z" stroke="#C74A2E"/>
</svg>
