<svg width="24" height="23" viewBox="0 0 24 23" fill="none" xmlns="http://www.w3.org/2000/svg">
<path fill-rule="evenodd" clip-rule="evenodd" d="M5.27999 0.800003L6.95999 5.84V9.2H8.07999V5.84L9.75999 0.800003H8.63999L7.51999 4.16L6.39999 0.800003H5.27999ZM11.44 3.04C10.8428 3.04 10.5497 3.13407 10.1844 3.43375C9.83436 3.72907 9.73811 3.95657 9.75999 4.72V7.52C9.75999 8.07782 9.85186 8.44532 10.1887 8.77125C10.5387 9.09719 10.8691 9.2 11.44 9.2C12.0372 9.2 12.3631 9.09719 12.7 8.77125C13.05 8.45844 13.12 8.07782 13.12 7.52V4.72C13.12 4.22563 13.0325 3.7575 12.6934 3.44469C12.3434 3.12313 11.9825 3.04 11.44 3.04ZM14.24 3.04V8.08C14.24 8.62469 14.7891 9.2 15.36 9.2C15.9309 9.2 16.2328 8.91344 16.48 8.64V9.2H17.6V3.04H16.48V7.52C16.4734 7.90282 16.0228 8.08 15.92 8.08C15.8041 8.08 15.36 8.05594 15.36 7.52V3.04H14.24ZM11.44 4.16C11.6084 4.16 12 4.15782 12 4.72V7.52C12 8.0625 11.6216 8.08 11.44 8.08C11.2716 8.08 10.88 8.07344 10.88 7.52V4.72C10.88 4.26282 11.1228 4.16 11.44 4.16ZM3.59999 10.32C1.58749 10.32 0.23999 11.6544 0.23999 13.68V19C0.23999 21.0256 1.58749 22.64 3.59999 22.64H20.4C22.4125 22.64 23.76 21.3056 23.76 19.28V13.68C23.76 11.6544 22.4125 10.32 20.4 10.32H3.59999ZM4.71999 12.56H8.07999V13.68H6.95999V20.4H5.83999V13.68H4.71999V12.56ZM12.56 12.56H13.68V14.8C13.8091 14.5988 14.0016 14.4391 14.1853 14.3494C14.3647 14.2575 14.5462 14.205 14.73 14.205C15.0931 14.205 15.3775 14.3363 15.5722 14.5813C15.7669 14.8284 15.92 15.1566 15.92 15.64V19C15.92 19.4156 15.78 19.6738 15.5962 19.8947C15.4169 20.1156 15.1478 20.3956 14.8 20.4C14.2116 20.4066 13.8966 20.0916 13.68 19.84V20.4H12.56V12.56ZM8.07999 14.24H9.19999V18.72C9.19999 18.8491 9.35093 19.2844 9.75999 19.28C10.215 19.2756 10.2194 18.8513 10.32 18.72V14.24H11.44V20.4H10.32V19.84C10.1122 20.085 10.005 20.1616 9.77093 20.2775C9.53905 20.4088 9.3028 20.4 9.08405 20.4C8.8128 20.4 8.50436 20.155 8.35999 19.9713C8.23093 19.8028 8.07999 19.63 8.07999 19.28V14.24ZM18.2716 14.24C18.8031 14.24 19.1772 14.3538 19.4594 14.6513C19.7481 14.9488 19.84 15.2966 19.84 15.8566V17.6H17.6V18.4663C17.6 18.7791 17.6416 18.9781 17.7225 19.0963C17.7991 19.2253 17.9544 19.2822 18.16 19.28C18.3875 19.2778 18.5319 19.2319 18.6084 19.1291C18.6872 19.0372 18.72 18.7769 18.72 18.44V18.16H19.84V18.4925C19.84 19.1028 19.7919 19.5578 19.49 19.8553C19.2056 20.1681 18.7616 20.3125 18.1797 20.3125C17.6481 20.3125 17.2325 20.155 16.935 19.8313C16.6375 19.5075 16.4822 19.0634 16.4822 18.4925V15.8566C16.4822 15.3491 16.6594 14.9728 16.9853 14.6381C17.2478 14.3691 17.74 14.24 18.2716 14.24ZM14.24 15.08C13.9316 15.08 13.6844 15.3578 13.68 15.64V19C13.6844 19.1619 13.9316 19.28 14.24 19.28C14.5484 19.28 14.8 19.0416 14.8 18.7331V15.92C14.8 15.36 14.5484 15.08 14.24 15.08ZM18.16 15.36C17.8516 15.36 17.6044 15.6203 17.6 15.92V16.48H18.72V15.92C18.72 15.5766 18.4684 15.36 18.16 15.36Z" fill="#C74A2E"/>
</svg>
