<svg width="32" height="32" viewBox="0 0 32 32" fill="none" xmlns="http://www.w3.org/2000/svg">
<path d="M16 2C7.1625 2 0 7.81875 0 15C0 18.1 1.3375 20.9375 3.5625 23.1688C2.78125 26.3188 0.16875 29.125 0.1375 29.1562C0 29.3 -0.0375 29.5125 0.04375 29.7C0.125 29.8875 0.3 30 0.5 30C4.64375 30 7.75 28.0125 9.2875 26.7875C11.3313 27.5563 13.6 28 16 28C24.8375 28 32 22.1813 32 15C32 7.81875 24.8375 2 16 2ZM8 17C6.89375 17 6 16.1063 6 15C6 13.8937 6.89375 13 8 13C9.10625 13 10 13.8937 10 15C10 16.1063 9.10625 17 8 17ZM16 17C14.8937 17 14 16.1063 14 15C14 13.8937 14.8937 13 16 13C17.1063 13 18 13.8937 18 15C18 16.1063 17.1063 17 16 17ZM24 17C22.8937 17 22 16.1063 22 15C22 13.8937 22.8937 13 24 13C25.1063 13 26 13.8937 26 15C26 16.1063 25.1063 17 24 17Z" fill="#CC7F31"/>
</svg>
