<svg width="24" height="30" viewBox="0 0 24 30" fill="none" xmlns="http://www.w3.org/2000/svg">
<path fill-rule="evenodd" clip-rule="evenodd" d="M23.9164 0.47083C23.9616 0.544415 24.014 0.62978 23.9966 0.814015C23.8461 0.926282 23.6626 0.941403 23.4739 0.956952C23.2035 0.979237 22.9224 1.00241 22.7121 1.31358C22.4379 1.71072 22.1287 2.5032 22.2778 2.99019C22.5391 3.73443 22.4335 4.44311 22.3274 5.15575C22.2631 5.58739 22.1986 6.02048 22.2152 6.4638C22.2055 7.11134 21.9421 7.73063 21.4791 8.19432C21.3437 8.3203 21.1109 8.44084 20.8761 8.56245C20.5716 8.72011 20.2636 8.87957 20.1597 9.05508C19.9944 9.31971 19.7466 9.5347 19.5008 9.74799C19.3444 9.88376 19.1887 10.0188 19.0555 10.1656C18.9404 10.2873 18.886 10.4741 18.8344 10.6513C18.8052 10.7516 18.7769 10.8488 18.739 10.9294C18.5392 11.2859 18.2833 11.6097 17.9808 11.889C18.1428 12.0365 18.3313 12.1484 18.516 12.258C18.9273 12.5021 19.3198 12.735 19.3592 13.3266C19.3846 13.6912 19.6053 13.9107 19.7997 14.1041C20.0977 14.4005 20.3337 14.6353 19.7088 15.2368C19.4438 15.5278 19.1067 15.7475 18.7298 15.8747C18.5542 15.9186 18.4204 16.0064 18.2924 16.0904C18.179 16.1649 18.07 16.2364 17.9404 16.2719C17.7356 16.3265 17.5767 16.3354 17.4545 16.3423C17.1623 16.3587 17.0791 16.3634 17.0791 16.9511C17.0365 17.4892 17.0279 18.0293 17.0534 18.5684C17.1738 19.5028 17.3933 20.4224 17.7085 21.3125C17.7681 21.4599 17.8121 21.6172 17.8561 21.7746C17.9113 21.972 17.9666 22.1695 18.0526 22.3475C18.1379 22.536 18.2557 22.7205 18.3746 22.9066C18.5765 23.2228 18.7814 23.5437 18.8347 23.8966C18.8816 24.217 18.7307 24.4813 18.5793 24.7465C18.4929 24.8978 18.4064 25.0494 18.3563 25.212C18.2036 25.6464 18.1246 26.1022 18.1225 26.5615C18.1483 27.0737 18.1667 27.4888 17.5962 27.6936C17.2701 27.609 17.0569 27.3229 16.8552 27.0523C16.7655 26.932 16.6781 26.8148 16.5841 26.7197C16.3909 27.7188 14.4531 26.8383 14.1421 26.2596C13.9886 25.9462 14.0987 25.6529 14.2124 25.3502C14.2936 25.134 14.3766 24.9131 14.3666 24.6765C14.3298 23.7474 14.2176 23.0034 13.6305 22.2361C13.2428 21.7305 13.0895 21.967 12.8753 22.2974C12.7835 22.4391 12.6805 22.598 12.5429 22.7231C12.1311 23.1533 11.646 23.4112 11.1468 23.6766C10.9433 23.7847 10.7375 23.8941 10.5334 24.017C10.0384 24.2505 9.6491 24.6543 9.4403 25.1509C9.37694 25.3436 9.39448 25.5277 9.41219 25.7136C9.42585 25.857 9.43962 26.0015 9.41637 26.1518C9.36012 26.399 9.2858 26.6421 9.21149 26.8852C9.13022 27.1511 9.04895 27.417 8.99128 27.6882C8.84406 28.3945 8.8367 28.5706 9.15506 29.2211C9.52374 29.9634 8.91338 29.9672 8.29828 29.971C8.21952 29.9715 8.14067 29.972 8.0638 29.974C7.99056 29.9761 7.91376 29.9785 7.83404 29.981C7.01233 30.0067 5.8809 30.0421 5.15622 29.8177C4.55587 29.6654 4.08948 29.2037 3.94166 28.6155C3.87738 28.2563 4.15347 27.9211 4.41575 27.6028C4.55891 27.429 4.69796 27.2602 4.77529 27.0952C5.00196 26.6569 4.98673 26.1365 4.7348 25.7115C4.55051 25.3573 4.44421 24.9836 4.34129 24.6217C4.11945 23.8417 3.91328 23.1168 2.97554 22.7608C2.62309 22.6271 2.2819 22.7176 1.93837 22.8089C1.64514 22.8867 1.35021 22.965 1.04512 22.9046C0.463949 22.7599 0.0534231 22.2538 0.0421935 21.6683C0.0406637 21.6475 0.0388743 21.6241 0.0369121 21.5984C0.0058291 21.1921 -0.0686282 20.2187 0.158129 19.9719C0.667875 19.413 0.802212 20.8596 0.78381 21.0896C0.691798 21.715 0.719402 22.6476 1.63952 22.193C2.1926 21.8918 2.40244 21.3638 2.61943 20.8179C2.6277 20.7971 2.63598 20.7762 2.64429 20.7554C2.72125 20.562 2.79544 20.3713 2.86864 20.1831C3.38529 18.8546 3.85294 17.6522 4.90227 16.5504C5.68356 15.6182 6.86157 15.2907 8.01966 14.9687C8.23907 14.9076 8.45777 14.8468 8.67292 14.7821C9.41794 14.5876 10.1315 14.2925 10.7929 13.9052C11.3952 13.5304 11.353 13.4021 11.2477 13.082C11.197 12.9278 11.1317 12.7292 11.1168 12.437C11.1071 12.2518 11.2386 11.9604 11.3712 11.6666C11.4662 11.4561 11.5617 11.2443 11.6063 11.0695C11.748 10.5045 12.3933 10.3813 12.9295 10.279C13.0686 10.2524 13.2003 10.2273 13.314 10.1962C13.5305 9.97763 13.6917 9.68409 13.8519 9.39249C13.9723 9.1734 14.092 8.95541 14.2341 8.77115C14.6997 8.14579 15.6125 7.70553 16.367 7.49888C16.8316 7.37186 17.3333 7.30475 17.8344 7.23769C19.191 7.05619 20.5442 6.87514 21.1516 5.50779C21.3997 4.95102 21.3965 4.20981 21.3933 3.45676C21.387 1.98108 21.3804 0.459965 23.2642 0.19225C23.3794 0.17999 23.468 0.132107 23.551 0.0872008C23.6749 0.0202452 23.7865 -0.0401033 23.9561 0.0341155C23.809 0.295788 23.8563 0.372868 23.9164 0.47083ZM16.1401 24.4498C16.0369 24.8641 16.0452 25.2975 16.164 25.7077C17.4411 25.0752 17.3013 23.616 16.2063 22.8721C16.2202 23.0241 16.2385 23.1546 16.2552 23.2735C16.3111 23.6728 16.3486 23.9402 16.1401 24.4498Z" fill="#B44F45"/>
</svg>
