<svg width="32" height="32" viewBox="0 0 32 32" fill="none" xmlns="http://www.w3.org/2000/svg">
<path d="M7.99995 7.20005C7.99995 6.56353 8.25281 5.95308 8.70289 5.50299C9.15298 5.05291 9.76343 4.80005 10.4 4.80005H21.6C22.2365 4.80005 22.8469 5.05291 23.297 5.50299C23.7471 5.95308 24 6.56353 24 7.20005V8.00005H24.7999C25.8608 8.00005 26.8782 8.42148 27.6284 9.17162C28.3785 9.92177 28.7999 10.9392 28.7999 12V20.0001C28.7999 20.6366 28.5471 21.247 28.097 21.6971C27.6469 22.1472 27.0365 22.4001 26.4 22.4001H24V24.8001C24 25.4366 23.7471 26.047 23.297 26.4971C22.8469 26.9472 22.2365 27.2001 21.6 27.2001H10.4C9.76343 27.2001 9.15298 26.9472 8.70289 26.4971C8.25281 26.047 7.99995 25.4366 7.99995 24.8001V22.4001H5.59995C4.96343 22.4001 4.35298 22.1472 3.90289 21.6971C3.45281 21.247 3.19995 20.6366 3.19995 20.0001V12C3.19995 10.9392 3.62138 9.92177 4.37152 9.17162C5.12167 8.42148 6.13909 8.00005 7.19995 8.00005H7.99995V7.20005ZM9.59995 8.00005H22.4V7.20005C22.4 6.98788 22.3157 6.78439 22.1656 6.63436C22.0156 6.48433 21.8121 6.40005 21.6 6.40005H10.4C10.1878 6.40005 9.98429 6.48433 9.83427 6.63436C9.68424 6.78439 9.59995 6.98788 9.59995 7.20005V8.00005ZM7.99995 20.8001V18.4001C7.99995 17.7635 8.25281 17.1531 8.70289 16.703C9.15298 16.2529 9.76343 16 10.4 16H21.6C22.2365 16 22.8469 16.2529 23.297 16.703C23.7471 17.1531 24 17.7635 24 18.4001V20.8001H26.4C26.6121 20.8001 26.8156 20.7158 26.9656 20.5657C27.1157 20.4157 27.1999 20.2122 27.1999 20.0001V12C27.1999 11.3635 26.9471 10.7531 26.497 10.303C26.0469 9.85291 25.4365 9.60005 24.7999 9.60005H7.19995C6.56343 9.60005 5.95298 9.85291 5.50289 10.303C5.05281 10.7531 4.79995 11.3635 4.79995 12V20.0001C4.79995 20.2122 4.88424 20.4157 5.03427 20.5657C5.18429 20.7158 5.38778 20.8001 5.59995 20.8001H7.99995ZM10.4 17.6C10.1878 17.6 9.98429 17.6843 9.83427 17.8344C9.68424 17.9844 9.59995 18.1879 9.59995 18.4001V24.8001C9.59995 25.0122 9.68424 25.2157 9.83427 25.3657C9.98429 25.5158 10.1878 25.6 10.4 25.6H21.6C21.8121 25.6 22.0156 25.5158 22.1656 25.3657C22.3157 25.2157 22.4 25.0122 22.4 24.8001V18.4001C22.4 18.1879 22.3157 17.9844 22.1656 17.8344C22.0156 17.6843 21.8121 17.6 21.6 17.6H10.4Z" fill="#CC7F31"/>
</svg>
