<svg width="28" height="28" viewBox="0 0 28 28" fill="none" xmlns="http://www.w3.org/2000/svg">
<path d="M10.7693 0.202393C9.38152 0.202251 8.00735 0.475464 6.7252 1.00643C5.44306 1.5374 4.27806 2.31572 3.29673 3.29695C2.3154 4.27818 1.53696 5.4431 1.00587 6.72519C0.474769 8.00728 0.201416 9.38142 0.201416 10.7692C0.201275 12.157 0.474523 13.5313 1.00556 14.8135C1.53659 16.0957 2.31501 17.2607 3.29635 18.2421C4.27769 19.2234 5.44274 20.0018 6.72496 20.5329C8.00717 21.0639 9.38143 21.3372 10.7693 21.337C13.2354 21.337 15.5002 20.4636 17.2986 19.0485L18.241 19.9909C18.0475 20.3668 17.9789 20.7947 18.0454 21.2123C18.1118 21.6299 18.3097 22.0153 18.6103 22.3127L23.5577 27.2935C24.3256 28.0624 25.5823 28.0624 26.3513 27.2935L27.2936 26.3512C27.6625 25.9799 27.8696 25.4778 27.8696 24.9544C27.8696 24.431 27.6625 23.9289 27.2936 23.5576L22.3128 18.6102C22.0134 18.3117 21.6256 18.1177 21.207 18.0571C20.7885 17.9966 20.3617 18.0728 19.9899 18.2742L19.0476 17.3319C20.281 15.7754 21.0509 13.9028 21.2688 11.9288C21.4868 9.95484 21.144 7.95939 20.2799 6.17127C19.4157 4.38315 18.0651 2.87476 16.383 1.81905C14.7008 0.763331 12.7552 0.203031 10.7693 0.202393V0.202393ZM10.7693 2.15378C13.0542 2.15378 15.2456 3.06147 16.8613 4.67717C18.477 6.29286 19.3846 8.48422 19.3846 10.7692C19.3846 13.0541 18.477 15.2455 16.8613 16.8612C15.2456 18.4769 13.0542 19.3845 10.7693 19.3845C8.48432 19.3845 6.29296 18.4769 4.67727 16.8612C3.06157 15.2455 2.15388 13.0541 2.15388 10.7692C2.15388 8.48422 3.06157 6.29286 4.67727 4.67717C6.29296 3.06147 8.48432 2.15378 10.7693 2.15378V2.15378ZM5.3168 8.04347C4.74241 8.97383 4.43952 10.0462 4.44234 11.1396C4.44106 11.9134 4.59253 12.6799 4.88807 13.395C5.1836 14.1102 5.61738 14.76 6.16454 15.3071C6.71171 15.8543 7.36149 16.2881 8.07663 16.5836C8.79178 16.8791 9.55823 17.0306 10.332 17.0293C11.5485 17.0268 12.7349 16.6509 13.7308 15.9524C13.4623 15.9773 13.1927 15.988 12.9231 15.9847C11.9236 15.9873 10.9334 15.7923 10.0095 15.411C9.0856 15.0297 8.24612 14.4697 7.53932 13.7629C6.83251 13.0562 6.27231 12.2168 5.8909 11.293C5.50949 10.3691 5.31439 9.37897 5.3168 8.37947C5.3168 8.26747 5.31142 8.15547 5.3168 8.04347V8.04347Z" fill="#CC7F31"/>
</svg>
