<svg width="32" height="32" viewBox="0 0 32 32" fill="none" xmlns="http://www.w3.org/2000/svg">
<path d="M14.5664 4.64007C14.6985 4.37212 14.9029 4.14649 15.1565 3.98871C15.4102 3.83094 15.7029 3.74731 16.0016 3.74731C16.3003 3.74731 16.5931 3.83094 16.8467 3.98871C17.1004 4.14649 17.3048 4.37212 17.4368 4.64007L20.5248 10.8961L27.432 11.9009C27.7276 11.9438 28.0052 12.0685 28.2335 12.261C28.4618 12.4535 28.6316 12.7061 28.7239 12.9901C28.8161 13.2741 28.827 13.5783 28.7554 13.8682C28.6837 14.1581 28.5324 14.4221 28.3184 14.6305L23.32 19.5009L24.5008 26.3809C24.5513 26.6751 24.5183 26.9776 24.4058 27.2541C24.2933 27.5306 24.1057 27.7701 23.8641 27.9456C23.6226 28.121 23.3368 28.2254 23.0391 28.2469C22.7413 28.2684 22.4435 28.2062 22.1792 28.0673L16.0032 24.8193L9.82404 28.0673C9.55972 28.2059 9.2619 28.2678 8.96423 28.246C8.66656 28.2243 8.38091 28.1197 8.13957 27.9441C7.89823 27.7685 7.71081 27.5289 7.59851 27.2524C7.4862 26.9758 7.45348 26.6734 7.50404 26.3793L8.68324 19.5009L3.68484 14.6305C3.47091 14.4221 3.31956 14.1581 3.24791 13.8682C3.17626 13.5783 3.18717 13.2741 3.2794 12.9901C3.37163 12.7061 3.54151 12.4535 3.7698 12.261C3.9981 12.0685 4.27572 11.9438 4.57124 11.9009L11.4784 10.8977L14.5664 4.63847V4.64007ZM16.0016 5.34727L12.9136 11.6049C12.7988 11.8375 12.6291 12.0387 12.4193 12.1912C12.2094 12.3436 11.9656 12.4428 11.7088 12.4801L4.80004 13.4849L9.79844 18.3553C9.98399 18.5364 10.1227 18.7599 10.2027 19.0066C10.2827 19.2533 10.3016 19.5157 10.2576 19.7713L9.07844 26.6513L15.2544 23.4033C15.4841 23.2825 15.7397 23.2193 15.9992 23.2193C16.2587 23.2193 16.5144 23.2825 16.744 23.4033L22.9216 26.6513L21.7424 19.7713C21.6985 19.5157 21.7173 19.2533 21.7973 19.0066C21.8773 18.7599 22.0161 18.5364 22.2016 18.3553L27.2 13.4849L20.2928 12.4801C20.0364 12.4425 19.7929 12.3433 19.5833 12.1908C19.3737 12.0384 19.2043 11.8373 19.0896 11.6049L16.0016 5.34727Z" fill="#CC7F31"/>
</svg>
