<svg width="42" height="42" viewBox="0 0 42 42" fill="none" xmlns="http://www.w3.org/2000/svg">
<path d="M21 2.625C9.40078 2.625 0 10.2621 0 19.6875C0 23.7563 1.75547 27.4805 4.67578 30.409C3.65039 34.5434 0.221484 38.2266 0.180469 38.2676C0 38.4562 -0.0492187 38.7352 0.0574219 38.9813C0.164062 39.2273 0.39375 39.375 0.65625 39.375C6.09492 39.375 10.1719 36.7664 12.1898 35.1586C14.8723 36.1676 17.85 36.75 21 36.75C32.5992 36.75 42 29.1129 42 19.6875C42 10.2621 32.5992 2.625 21 2.625ZM10.5 22.3125C9.04805 22.3125 7.875 21.1395 7.875 19.6875C7.875 18.2355 9.04805 17.0625 10.5 17.0625C11.952 17.0625 13.125 18.2355 13.125 19.6875C13.125 21.1395 11.952 22.3125 10.5 22.3125ZM21 22.3125C19.548 22.3125 18.375 21.1395 18.375 19.6875C18.375 18.2355 19.548 17.0625 21 17.0625C22.452 17.0625 23.625 18.2355 23.625 19.6875C23.625 21.1395 22.452 22.3125 21 22.3125ZM31.5 22.3125C30.048 22.3125 28.875 21.1395 28.875 19.6875C28.875 18.2355 30.048 17.0625 31.5 17.0625C32.952 17.0625 34.125 18.2355 34.125 19.6875C34.125 21.1395 32.952 22.3125 31.5 22.3125Z" fill="white"/>
</svg>
