<svg width="28" height="28" viewBox="0 0 28 28" fill="none" xmlns="http://www.w3.org/2000/svg">
<path d="M4.66671 25.6666H18.6667V23.3333H4.66671V9.33325H2.33337V23.3333C2.33337 24.6201 3.37987 25.6666 4.66671 25.6666Z" fill="white"/>
<path d="M23.3333 2.33325H9.33333C8.0465 2.33325 7 3.37975 7 4.66659V18.6666C7 19.9534 8.0465 20.9999 9.33333 20.9999H23.3333C24.6202 20.9999 25.6667 19.9534 25.6667 18.6666V4.66659C25.6667 3.37975 24.6202 2.33325 23.3333 2.33325ZM21 12.8333H17.5V16.3333H15.1667V12.8333H11.6667V10.4999H15.1667V6.99992H17.5V10.4999H21V12.8333Z" fill="white"/>
</svg>
