<svg width="32" height="26" viewBox="0 0 32 26" fill="none" xmlns="http://www.w3.org/2000/svg">
<path d="M16.8 5.2002C17.8608 5.2002 18.8783 5.54261 19.6284 6.1521C20.3785 6.76159 20.8 7.58824 20.8 8.4502V17.5502C20.8002 18.2994 20.4817 19.0257 19.8986 19.6061C19.3155 20.1865 18.5035 20.5854 17.6 20.7352V16.2502C17.6 15.0435 17.01 13.8862 15.9598 13.0329C14.9096 12.1796 13.4852 11.7002 12 11.7002H5.59998C4.74078 11.7002 3.92798 11.8562 3.19998 12.1383V8.4502C3.19998 7.58824 3.6214 6.76159 4.37155 6.1521C5.12169 5.54261 6.13911 5.2002 7.19998 5.2002H16.8ZM22.4 15.7068V10.3092L26.832 7.3023C27.0071 7.1838 27.2201 7.10826 27.4461 7.08451C27.6721 7.06077 27.9017 7.0898 28.1082 7.16821C28.3146 7.24662 28.4893 7.37117 28.6118 7.52729C28.7343 7.68341 28.7996 7.86464 28.8 8.0498V18.0182C28.7996 18.2042 28.7337 18.3863 28.6101 18.5429C28.4866 18.6995 28.3104 18.8241 28.1025 18.902C27.8946 18.9799 27.6636 19.0078 27.4368 18.9825C27.2099 18.9572 26.9968 18.8797 26.8224 18.7592L22.4 15.7068ZM1.59998 16.2502C1.59998 15.3882 2.0214 14.5616 2.77155 13.9521C3.52169 13.3426 4.53911 13.0002 5.59998 13.0002H12C13.0608 13.0002 14.0783 13.3426 14.8284 13.9521C15.5785 14.5616 16 15.3882 16 16.2502V21.4502C16 22.3121 15.5785 23.1388 14.8284 23.7483C14.0783 24.3578 13.0608 24.7002 12 24.7002H5.59998C4.53911 24.7002 3.52169 24.3578 2.77155 23.7483C2.0214 23.1388 1.59998 22.3121 1.59998 21.4502V16.2502ZM8.03198 16.2944C7.92822 16.2365 7.80767 16.2016 7.68224 16.1932C7.5568 16.1847 7.43083 16.2031 7.31678 16.2463C7.22311 16.2794 7.13832 16.3271 7.06717 16.3867C6.91812 16.5108 6.83484 16.6774 6.83518 16.8508V20.8483C6.83411 20.9345 6.85406 21.02 6.89388 21.0998C6.9337 21.1797 6.9926 21.2524 7.06717 21.3137C7.14071 21.3728 7.22623 21.4212 7.31997 21.4567C7.48231 21.5171 7.6665 21.5264 7.83677 21.4827C7.91055 21.463 7.98056 21.435 8.04478 21.3995L11.7184 19.3624C11.8301 19.3025 11.9201 19.2195 11.9792 19.1219C12.04 19.0236 12.0712 18.9149 12.0704 18.8049C12.0695 18.6948 12.0366 18.5865 11.9744 18.4888C11.9114 18.3924 11.8188 18.3109 11.7056 18.2522L8.03198 16.2944Z" fill="#34C85A"/>
</svg>
