<svg width="12" height="12" viewBox="0 0 12 12" fill="none" xmlns="http://www.w3.org/2000/svg">
<path d="M4.75 2H7.25C7.25 1.66848 7.1183 1.35054 6.88388 1.11612C6.64946 0.881696 6.33152 0.75 6 0.75C5.66848 0.75 5.35054 0.881696 5.11612 1.11612C4.8817 1.35054 4.75 1.66848 4.75 2ZM4 2C4 1.46957 4.21071 0.960859 4.58579 0.585786C4.96086 0.210714 5.46957 0 6 0C6.53043 0 7.03914 0.210714 7.41421 0.585786C7.78929 0.960859 8 1.46957 8 2H11.125C11.2245 2 11.3198 2.03951 11.3902 2.10983C11.4605 2.18016 11.5 2.27554 11.5 2.375C11.5 2.47446 11.4605 2.56984 11.3902 2.64017C11.3198 2.71049 11.2245 2.75 11.125 2.75H10.47L9.8615 10.0515C9.81723 10.5827 9.57497 11.0778 9.18275 11.4387C8.79053 11.7996 8.277 12 7.744 12H4.256C3.723 12 3.20947 11.7996 2.81725 11.4387C2.42503 11.0778 2.18277 10.5827 2.1385 10.0515L1.53 2.75H0.875C0.775544 2.75 0.680161 2.71049 0.609835 2.64017C0.539509 2.56984 0.5 2.47446 0.5 2.375C0.5 2.27554 0.539509 2.18016 0.609835 2.10983C0.680161 2.03951 0.775544 2 0.875 2H4ZM2.886 9.989C2.91459 10.3327 3.07131 10.6531 3.32507 10.8867C3.57883 11.1203 3.91111 11.2499 4.256 11.25H7.744C8.08889 11.2499 8.42116 11.1203 8.67493 10.8867C8.92869 10.6531 9.08541 10.3327 9.114 9.989L9.718 2.75H2.2825L2.886 9.989ZM4.875 4.5C4.97446 4.5 5.06984 4.53951 5.14016 4.60984C5.21049 4.68016 5.25 4.77554 5.25 4.875V9.125C5.25 9.22446 5.21049 9.31984 5.14016 9.39017C5.06984 9.46049 4.97446 9.5 4.875 9.5C4.77554 9.5 4.68016 9.46049 4.60984 9.39017C4.53951 9.31984 4.5 9.22446 4.5 9.125V4.875C4.5 4.77554 4.53951 4.68016 4.60984 4.60984C4.68016 4.53951 4.77554 4.5 4.875 4.5ZM7.5 4.875C7.5 4.77554 7.46049 4.68016 7.39017 4.60984C7.31984 4.53951 7.22446 4.5 7.125 4.5C7.02554 4.5 6.93016 4.53951 6.85984 4.60984C6.78951 4.68016 6.75 4.77554 6.75 4.875V9.125C6.75 9.22446 6.78951 9.31984 6.85984 9.39017C6.93016 9.46049 7.02554 9.5 7.125 9.5C7.22446 9.5 7.31984 9.46049 7.39017 9.39017C7.46049 9.31984 7.5 9.22446 7.5 9.125V4.875Z" fill="black"/>
</svg>
