<svg width="14" height="14" viewBox="0 0 14 14" fill="none" xmlns="http://www.w3.org/2000/svg">
<path d="M11.6404 2.35962C10.4097 1.12891 8.7405 0.437503 7.00001 0.4375C5.25953 0.437497 3.59033 1.1289 2.35962 2.35961C1.12891 3.59031 0.437503 5.25951 0.4375 6.99999C0.437497 8.74048 1.1289 10.4097 2.35961 11.6404C3.59031 12.8711 5.25951 13.5625 6.99999 13.5625C8.74048 13.5625 10.4097 12.8711 11.6404 11.6404C12.8711 10.4097 13.5625 8.7405 13.5625 7.00001C13.5625 5.25953 12.8711 3.59033 11.6404 2.35962ZM7 1.31252C8.36055 1.31132 9.67605 1.79999 10.7058 2.68914L2.68913 10.7059C1.79998 9.67606 1.3113 8.36056 1.3125 7.00002C1.3125 3.86394 3.86392 1.31252 7 1.31252ZM7 12.6875C5.64615 12.6887 4.33669 12.2047 3.30898 11.3234L11.3234 3.30897C12.2048 4.33668 12.6887 5.64616 12.6875 7.00002C12.6875 10.1361 10.1361 12.6875 7 12.6875Z" fill="black"/>
</svg>
