<svg width="14" height="26" viewBox="0 0 14 26" fill="none" xmlns="http://www.w3.org/2000/svg">
<path fill-rule="evenodd" clip-rule="evenodd" d="M3.5 3.54545C3.5 1.58735 5.067 0 7 0C8.933 0 10.5 1.58735 10.5 3.54545V13C10.5 14.9581 8.933 16.5455 7 16.5455C5.067 16.5455 3.5 14.9581 3.5 13V3.54545Z" fill="white"/>
<path d="M14 13C14 16.5135 11.4773 19.4302 8.16667 19.9929V23.6364H12.8333V26H1.16667V23.6364H5.83333V19.9929C2.52267 19.4302 0 16.5135 0 13V9.45455H2.33333V13C2.33333 15.6108 4.42267 17.7273 7 17.7273C9.57733 17.7273 11.6667 15.6108 11.6667 13V9.45455H14V13Z" fill="white"/>
</svg>
