<svg width="26" height="22" viewBox="0 0 26 22" fill="none" xmlns="http://www.w3.org/2000/svg">
<path d="M0.75 3.3125C0.75 1.622 2.122 0.25 3.8125 0.25H22.1875C23.878 0.25 25.25 1.622 25.25 3.3125V7.13975C24.9343 6.9158 24.5861 6.74168 24.2175 6.6235L23.5 6.396V3.3125C23.5 2.9644 23.3617 2.63056 23.1156 2.38442C22.8694 2.13828 22.5356 2 22.1875 2H3.8125C3.4644 2 3.13056 2.13828 2.88442 2.38442C2.63828 2.63056 2.5 2.9644 2.5 3.3125V14.6875C2.5 15.412 3.088 16 3.8125 16H7.75V14.25C7.75 13.7859 7.93437 13.3408 8.26256 13.0126C8.59075 12.6844 9.03587 12.5 9.5 12.5H16.5C16.9641 12.5 17.4092 12.6844 17.7374 13.0126C18.0656 13.3408 18.25 13.7859 18.25 14.25V14.6088C17.7296 14.5996 17.2152 14.7208 16.7536 14.9613C16.292 15.2019 15.898 15.5542 15.6075 15.986L14.7657 17.2215L14.6398 17.4315L14.617 17.47C14.5682 17.5612 14.5238 17.6546 14.484 17.75H3.8125C3.00027 17.75 2.22132 17.4273 1.64699 16.853C1.07266 16.2787 0.75 15.4997 0.75 14.6875V3.3125ZM25.11 9.88375C25.201 10.2863 25.2482 10.7098 25.25 11.1525V11.2015C25.2447 12.731 24.6987 14.4933 23.612 16.4865C23.3845 16.9065 23.1535 17.2985 22.9172 17.6625C21.6975 19.5543 20.3832 20.7198 18.9727 21.1608C18.6516 21.26 18.3105 21.2765 17.9813 21.2085C17.6521 21.1406 17.3454 20.9905 17.0898 20.7723L16.9497 20.6445L16.409 20.102C16.1809 19.8673 16.0335 19.5661 15.9882 19.242C15.9429 18.9179 16.002 18.5877 16.157 18.2995L16.2375 18.17L17.0548 16.9695C17.1896 16.7683 17.3752 16.6064 17.5928 16.5C17.8104 16.3937 18.0522 16.3468 18.2937 16.364C18.3462 16.3675 18.4005 16.3763 18.4548 16.3868L18.5983 16.427L20.105 16.9293C20.707 16.4743 21.2075 15.9003 21.61 15.2108C21.9406 14.6555 22.1694 14.0457 22.2855 13.41L22.3293 13.1055L21.0745 11.9155C20.8714 11.7183 20.7269 11.4687 20.6571 11.1944C20.5873 10.9201 20.5948 10.6318 20.679 10.3615L20.7315 10.2128L21.302 8.8705C21.4194 8.57309 21.6371 8.32604 21.9173 8.17203C22.1975 8.01802 22.5227 7.96672 22.8368 8.027L22.9715 8.062L23.6838 8.2895C24.3925 8.517 24.9332 9.1225 25.1082 9.882L25.11 9.88375ZM16.5 7.25C16.5 8.17826 16.1313 9.0685 15.4749 9.72487C14.8185 10.3813 13.9283 10.75 13 10.75C12.0717 10.75 11.1815 10.3813 10.5251 9.72487C9.86875 9.0685 9.5 8.17826 9.5 7.25C9.5 6.32174 9.86875 5.4315 10.5251 4.77513C11.1815 4.11875 12.0717 3.75 13 3.75C13.9283 3.75 14.8185 4.11875 15.4749 4.77513C16.1313 5.4315 16.5 6.32174 16.5 7.25Z" fill="white"/>
</svg>
