<svg width="25" height="11" viewBox="0 0 25 11" fill="none" xmlns="http://www.w3.org/2000/svg">
<path d="M5.54357 10.189C6.55926 10.1825 7.19734 9.54439 7.2006 8.53195C7.20387 7.76042 7.20714 6.98888 7.19738 6.21734C7.19413 6.00574 7.25924 5.89505 7.45782 5.83971C7.84522 5.72576 8.22285 5.5695 8.6135 5.47834C10.4431 5.06162 12.2921 5.02904 14.1477 5.21783C15.069 5.31223 15.9805 5.48801 16.8497 5.84284C17.0255 5.91445 17.0971 6.0056 17.0971 6.20744C17.0841 6.96921 17.0906 7.73098 17.0939 8.49601C17.0971 9.56053 17.7221 10.1856 18.7932 10.1888C19.4019 10.1921 20.0042 10.1888 20.613 10.192C21.238 10.192 21.863 10.1985 22.4881 10.192C23.4973 10.179 24.1353 9.54091 24.1419 8.53172C24.1484 7.75693 24.1289 6.98865 24.1484 6.21386C24.1679 5.49766 23.9271 4.88564 23.468 4.34851C22.7193 3.47606 21.7557 2.90963 20.7303 2.44412C18.6142 1.47403 16.3713 0.975977 14.0566 0.777427C10.9282 0.507269 7.87784 0.868662 4.91213 1.89416C3.5774 2.35645 2.31103 2.95221 1.24323 3.90932C0.507495 4.56693 0.0777681 5.34824 0.136353 6.37695C0.175409 7.08012 0.139588 7.79307 0.142835 8.49949C0.149331 9.54774 0.784132 10.1891 1.82261 10.1923C3.06293 10.1955 4.30325 10.1923 5.54357 10.189Z" fill="white"/>
</svg>
