<svg width="52" height="52" viewBox="0 0 52 52" fill="none" xmlns="http://www.w3.org/2000/svg">
<path d="M44.4177 22.9971C44.559 23.1351 44.6713 23.3 44.7478 23.4821C44.8243 23.6642 44.8636 23.8598 44.8633 24.0573C44.863 24.2548 44.8231 24.4503 44.746 24.6321C44.6689 24.814 44.5562 24.9785 44.4145 25.1161L27.1342 41.9576C26.8308 42.2534 26.4238 42.4189 26 42.4189C25.5762 42.4189 25.1692 42.2534 24.8657 41.9576L7.58548 25.1161C7.44397 24.9783 7.33149 24.8136 7.25468 24.6316C7.17788 24.4496 7.13832 24.2541 7.13832 24.0566C7.13832 23.8591 7.17788 23.6636 7.25468 23.4816C7.33149 23.2996 7.44397 23.1349 7.58548 22.9971C7.8757 22.7136 8.2653 22.5549 8.67099 22.5549C9.07667 22.5549 9.46627 22.7136 9.75648 22.9971L26 38.8344L42.25 22.9971C42.5401 22.7146 42.929 22.5565 43.3339 22.5565C43.7388 22.5565 44.1277 22.7146 44.4177 22.9971ZM44.4177 9.9971C44.559 10.1351 44.6713 10.3 44.7478 10.4821C44.8243 10.6642 44.8636 10.8598 44.8633 11.0573C44.863 11.2548 44.8231 11.4503 44.746 11.6321C44.6689 11.814 44.5562 11.9785 44.4145 12.1161L27.1342 28.9576C26.8308 29.2534 26.4238 29.4189 26 29.4189C25.5762 29.4189 25.1692 29.2534 24.8657 28.9576L7.58548 12.1161C7.44397 11.9783 7.33149 11.8136 7.25468 11.6316C7.17788 11.4496 7.13832 11.2541 7.13832 11.0566C7.13832 10.8591 7.17788 10.6636 7.25468 10.4816C7.33149 10.2996 7.44397 10.1349 7.58548 9.9971C7.8757 9.71363 8.2653 9.55493 8.67099 9.55493C9.07667 9.55493 9.46627 9.71363 9.75648 9.9971L26 25.8343L42.25 9.9971C42.5401 9.7146 42.929 9.55652 43.3339 9.55652C43.7388 9.55652 44.1277 9.7146 44.4177 9.9971Z" fill="#1C468A"/>
</svg>
