<svg width="370" height="449" viewBox="0 0 370 449" fill="none" xmlns="http://www.w3.org/2000/svg">
<g filter="url(#filter0_d_1401_29583)">
<rect x="16" y="16.9961" width="345" height="410" fill="#FFF8EA"/>
</g>
<path fill-rule="evenodd" clip-rule="evenodd" d="M254.854 17.875C254.933 18.0124 255.024 18.1717 254.994 18.5156C254.731 18.7252 254.41 18.7534 254.079 18.7824C253.606 18.824 253.114 18.8673 252.746 19.4481C252.266 20.1894 251.725 21.6687 251.986 22.5778C252.443 23.967 252.259 25.2899 252.073 26.6202C251.96 27.4259 251.848 28.2343 251.877 29.0618C251.86 30.2706 251.399 31.4266 250.589 32.2921C250.351 32.5273 249.944 32.7523 249.533 32.9793C249 33.2736 248.461 33.5713 248.279 33.8989C247.99 34.3929 247.557 34.7942 247.126 35.1923C246.853 35.4458 246.58 35.6979 246.347 35.9719C246.146 36.199 246.051 36.5477 245.96 36.8784C245.909 37.0657 245.86 37.2472 245.793 37.3976C245.444 38.0631 244.996 38.6675 244.466 39.1888C244.75 39.4643 245.08 39.6731 245.403 39.8777C246.123 40.3333 246.81 40.7682 246.879 41.8723C246.923 42.5529 247.309 42.9628 247.649 43.3237C248.171 43.8771 248.584 44.3153 247.49 45.4381C247.027 45.9813 246.437 46.3914 245.777 46.6289C245.47 46.7107 245.236 46.8746 245.012 47.0315C244.813 47.1705 244.623 47.304 244.396 47.3702C244.037 47.4722 243.759 47.4888 243.545 47.5016C243.034 47.5323 242.888 47.541 242.888 48.6382C242.814 49.6426 242.799 50.6508 242.843 51.6571C243.054 53.4013 243.438 55.1179 243.99 56.7793C244.094 57.0545 244.171 57.3482 244.248 57.6419C244.345 58.0105 244.442 58.3792 244.592 58.7115C244.741 59.0632 244.947 59.4076 245.156 59.7551C245.509 60.3453 245.868 60.9442 245.961 61.603C246.043 62.201 245.779 62.6944 245.514 63.1895C245.363 63.472 245.211 63.755 245.123 64.0584C244.856 64.8693 244.718 65.7202 244.714 66.5775C244.76 67.5336 244.792 68.3084 243.793 68.6908C243.223 68.5329 242.85 67.9989 242.497 67.4937C242.34 67.2691 242.187 67.0503 242.022 66.8727C241.684 68.7378 238.293 67.0941 237.749 66.014C237.48 65.4289 237.673 64.8815 237.872 64.3165C238.014 63.9129 238.159 63.5004 238.142 63.0588C238.077 61.3245 237.881 59.9358 236.853 58.5035C236.175 57.5597 235.907 58.0011 235.532 58.6178C235.371 58.8823 235.191 59.179 234.95 59.4125C234.229 60.2156 233.38 60.697 232.507 61.1923C232.151 61.3942 231.791 61.5984 231.433 61.8277C230.567 62.2636 229.886 63.0173 229.521 63.9443C229.41 64.3041 229.44 64.6477 229.471 64.9947C229.495 65.2625 229.519 65.5322 229.479 65.8127C229.38 66.2742 229.25 66.728 229.12 67.1819C228.978 67.6781 228.836 68.1744 228.735 68.6808C228.477 69.999 228.464 70.3278 229.021 71.5421C229.667 72.9278 228.598 72.9348 227.522 72.9419C227.384 72.9428 227.246 72.9438 227.112 72.9476C226.983 72.9514 226.849 72.9559 226.71 72.9606C225.272 73.0086 223.292 73.0746 222.023 72.6557C220.973 72.3714 220.157 71.5097 219.898 70.4116C219.785 69.7411 220.269 69.1155 220.728 68.5212C220.978 68.1968 221.221 67.8818 221.357 67.5738C221.753 66.7556 221.727 65.7842 221.286 64.9909C220.963 64.3297 220.777 63.632 220.597 62.9565C220.209 61.5006 219.848 60.1475 218.207 59.483C217.59 59.2332 216.993 59.4023 216.392 59.5726C215.879 59.7179 215.363 59.8641 214.829 59.7513C213.812 59.4812 213.093 58.5366 213.074 57.4435C213.071 57.4046 213.068 57.361 213.065 57.3131C213.01 56.5546 212.88 54.7376 213.277 54.2769C214.169 53.2337 214.404 55.934 214.372 56.3634C214.211 57.5307 214.259 59.2716 215.869 58.423C216.837 57.8607 217.204 56.8752 217.584 55.8561C217.598 55.8172 217.613 55.7784 217.628 55.7394C217.762 55.3785 217.892 55.0225 218.02 54.6711C218.924 52.1914 219.743 49.9468 221.579 47.8901C222.946 46.1501 225.008 45.5387 227.034 44.9376C227.418 44.8237 227.801 44.7102 228.178 44.5894C229.481 44.2263 230.73 43.6754 231.888 42.9525C232.942 42.2529 232.868 42.0133 232.684 41.4158C232.595 41.128 232.48 40.7572 232.454 40.2119C232.437 39.866 232.668 39.3221 232.9 38.7737C233.066 38.3807 233.233 37.9855 233.311 37.6592C233.559 36.6044 234.688 36.3745 235.627 36.1835C235.87 36.1339 236.101 36.087 236.3 36.029C236.678 35.621 236.96 35.073 237.241 34.5287C237.451 34.1198 237.661 33.7129 237.91 33.3689C238.724 32.2016 240.322 31.3797 241.642 30.994C242.455 30.7569 243.333 30.6316 244.21 30.5065C246.584 30.1676 248.952 29.8297 250.015 27.2773C250.449 26.238 250.444 24.8544 250.438 23.4487C250.427 20.6941 250.416 17.8547 253.712 17.355C253.914 17.3321 254.069 17.2427 254.214 17.1589C254.431 17.0339 254.626 16.9212 254.923 17.0598C254.666 17.5482 254.749 17.6921 254.854 17.875ZM241.246 62.6366C241.066 63.41 241.08 64.2188 241.288 64.9847C243.523 63.8039 243.278 61.0801 241.362 59.6914C241.386 59.9752 241.418 60.2189 241.448 60.4407C241.545 61.1861 241.611 61.6852 241.246 62.6366Z" fill="#CC7F31" fill-opacity="0.12"/>
<path d="M16 16.9961H306L156.521 66.0066L16 112.996V16.9961Z" fill="url(#paint0_linear_1401_29583)"/>
<path d="M47.7109 63.8218C48.0624 65.1336 47.9358 66.281 47.331 67.264C46.7239 68.2382 45.7731 69.0213 44.4787 69.6135L44.5034 69.706C46.1495 69.5103 47.4925 69.6977 48.5323 70.2683C49.5722 70.8389 50.2644 71.7669 50.6088 73.0523C50.9131 74.188 50.8947 75.264 50.5537 76.2801C50.219 77.285 49.5476 78.1774 48.5392 78.9571C47.5309 79.7369 46.1815 80.3532 44.4912 80.8061C43.4435 81.0869 42.4218 81.271 41.4262 81.3585C40.4329 81.4548 39.4893 81.4198 38.5955 81.2535L38.04 79.1802C38.6566 79.298 39.3078 79.3689 39.9936 79.3927C40.6794 79.4166 41.3622 79.394 42.042 79.3251C42.7282 79.245 43.3707 79.1248 43.9694 78.9644C45.7126 78.4973 46.9435 77.8089 47.6622 76.8991C48.3874 75.9783 48.586 74.9059 48.2581 73.6822C47.9208 72.4232 47.1516 71.6479 45.9506 71.3564C44.756 71.0537 43.2167 71.1548 41.3327 71.6596L38.5594 72.4027L38.0534 70.5142L40.7342 69.7959C42.002 69.4562 43.0151 69.029 43.7737 68.5144C44.5299 67.991 45.0429 67.4053 45.3128 66.7574C45.5891 66.0983 45.6282 65.399 45.43 64.6594C45.1587 63.647 44.5802 62.9669 43.6944 62.6192C42.8174 62.2692 41.789 62.2522 40.6093 62.5683C39.3856 62.8962 38.4156 63.326 37.6993 63.8576C36.9807 64.3804 36.3089 64.9897 35.6839 65.6856L34.1905 64.4439C34.602 63.9373 35.0935 63.4471 35.6648 62.9732C36.2337 62.4905 36.8907 62.0549 37.6359 61.6665C38.3787 61.2693 39.208 60.948 40.1236 60.7027C41.4882 60.3371 42.6926 60.2361 43.7367 60.3998C44.7784 60.5548 45.6381 60.9283 46.3158 61.5205C46.9934 62.1127 47.4585 62.8798 47.7109 63.8218ZM70.806 73.472L68.561 74.0736L66.1229 64.9746L55.9807 67.6922L58.4188 76.7912L56.1738 77.3927L51.0004 58.0855L53.2454 57.484L55.4499 65.7113L65.5922 62.9937L63.3877 54.7664L65.6327 54.1648L70.806 73.472ZM70.9679 52.7352L73.0677 52.1726L76.0577 63.3317C76.171 63.7543 76.2904 64.2177 76.4161 64.7219C76.5394 65.2172 76.6559 65.705 76.7657 66.1851C76.8755 66.6653 76.9691 67.1026 77.0464 67.497C77.1326 67.8891 77.1952 68.1932 77.2342 68.4092L77.3399 68.3809L83.7513 49.3099L86.2209 48.6482L91.3942 67.9554L89.2944 68.518L86.3398 57.491C86.2147 57.0244 86.0914 56.529 85.9699 56.0049C85.8459 55.4719 85.7267 54.9566 85.6122 54.4588C85.5065 53.9587 85.415 53.5114 85.3376 53.117C85.2579 52.7137 85.1941 52.4053 85.1463 52.1916L85.0274 52.2235L78.624 71.3772L76.1413 72.0424L70.9679 52.7352ZM99.2584 55.2043L89.1922 47.852L91.6881 47.1833L101.642 54.5374L99.1363 45.1875L101.302 44.6072L103.807 53.9571L108.75 42.6115L111.246 41.9427L106.201 53.3298L116.697 61.1756L114.109 61.8691L103.853 54.1287L106.475 63.9144L104.31 64.4947L101.688 54.7091L96.6634 66.5435L94.075 67.2371L99.2584 55.2043ZM133.27 56.7347L130.55 57.4636L119.05 50.0427L121.676 59.8415L119.431 60.4431L114.257 41.1359L116.502 40.5343L119.008 49.8842L125.152 38.2166L127.727 37.5266L121.695 49.1923L133.27 56.7347ZM148.048 52.7751L144.029 47.2844L136.29 49.358L135.568 56.119L133.297 56.7276L135.656 35.3171L137.677 34.7757L150.372 52.1523L148.048 52.7751ZM142.821 45.4708L138.932 39.9879C138.836 39.8436 138.679 39.6074 138.459 39.2795C138.248 38.9492 138.029 38.6069 137.801 38.2525C137.574 37.8982 137.389 37.6128 137.247 37.3963C137.255 37.7808 137.255 38.1678 137.246 38.557C137.244 38.9351 137.235 39.2912 137.221 39.6253C137.204 39.9506 137.189 40.2283 137.175 40.4585L136.509 47.1622L142.821 45.4708ZM153.267 45.63L151.828 46.0157L147.484 32.2329L150.138 31.5217L153.267 45.63ZM152.025 50.2375C151.86 49.6212 151.893 49.1453 152.123 48.8098C152.352 48.4654 152.691 48.2331 153.14 48.1128C153.58 47.9948 153.985 48.0278 154.355 48.2117C154.732 48.3845 155.003 48.779 155.168 49.3953C155.331 50.0028 155.296 50.4887 155.063 50.8529C154.837 51.2061 154.504 51.4416 154.063 51.5596C153.614 51.6799 153.204 51.6437 152.831 51.451C152.456 51.2494 152.188 50.8449 152.025 50.2375Z" fill="white"/>
<path fill-rule="evenodd" clip-rule="evenodd" d="M341.854 225.875C341.933 226.012 342.024 226.172 341.994 226.516C341.731 226.725 341.41 226.753 341.079 226.782C340.606 226.824 340.114 226.867 339.746 227.448C339.266 228.189 338.725 229.669 338.986 230.578C339.443 231.967 339.259 233.29 339.073 234.62C338.96 235.426 338.848 236.234 338.877 237.062C338.86 238.271 338.399 239.427 337.589 240.292C337.351 240.527 336.944 240.752 336.533 240.979C336 241.274 335.461 241.571 335.279 241.899C334.99 242.393 334.557 242.794 334.126 243.192C333.853 243.446 333.58 243.698 333.347 243.972C333.146 244.199 333.051 244.548 332.96 244.878C332.909 245.066 332.86 245.247 332.793 245.398C332.444 246.063 331.996 246.668 331.466 247.189C331.75 247.464 332.08 247.673 332.403 247.878C333.123 248.333 333.81 248.768 333.879 249.872C333.923 250.553 334.309 250.963 334.649 251.324C335.171 251.877 335.584 252.315 334.49 253.438C334.027 253.981 333.437 254.391 332.777 254.629C332.47 254.711 332.236 254.875 332.012 255.032C331.813 255.171 331.623 255.304 331.396 255.37C331.037 255.472 330.759 255.489 330.545 255.502C330.034 255.532 329.888 255.541 329.888 256.638C329.814 257.643 329.799 258.651 329.843 259.657C330.054 261.401 330.438 263.118 330.99 264.779C331.094 265.055 331.171 265.348 331.248 265.642C331.345 266.011 331.442 266.379 331.592 266.711C331.741 267.063 331.947 267.408 332.156 267.755C332.509 268.345 332.868 268.944 332.961 269.603C333.043 270.201 332.779 270.694 332.514 271.19C332.363 271.472 332.211 271.755 332.123 272.058C331.856 272.869 331.718 273.72 331.714 274.578C331.76 275.534 331.792 276.308 330.793 276.691C330.223 276.533 329.85 275.999 329.497 275.494C329.34 275.269 329.187 275.05 329.022 274.873C328.684 276.738 325.293 275.094 324.749 274.014C324.48 273.429 324.673 272.882 324.872 272.316C325.014 271.913 325.159 271.5 325.142 271.059C325.077 269.325 324.881 267.936 323.853 266.503C323.175 265.56 322.907 266.001 322.532 266.618C322.371 266.882 322.191 267.179 321.95 267.413C321.229 268.216 320.38 268.697 319.507 269.192C319.151 269.394 318.791 269.598 318.433 269.828C317.567 270.264 316.886 271.017 316.521 271.944C316.41 272.304 316.44 272.648 316.471 272.995C316.495 273.262 316.519 273.532 316.479 273.813C316.38 274.274 316.25 274.728 316.12 275.182C315.978 275.678 315.836 276.174 315.735 276.681C315.477 277.999 315.464 278.328 316.021 279.542C316.667 280.928 315.598 280.935 314.522 280.942C314.384 280.943 314.246 280.944 314.112 280.948C313.983 280.951 313.849 280.956 313.71 280.961C312.272 281.009 310.292 281.075 309.023 280.656C307.973 280.371 307.157 279.51 306.898 278.412C306.785 277.741 307.269 277.116 307.728 276.521C307.978 276.197 308.221 275.882 308.357 275.574C308.753 274.756 308.727 273.784 308.286 272.991C307.963 272.33 307.777 271.632 307.597 270.957C307.209 269.501 306.848 268.147 305.207 267.483C304.59 267.233 303.993 267.402 303.392 267.573C302.879 267.718 302.363 267.864 301.829 267.751C300.812 267.481 300.093 266.537 300.074 265.443C300.071 265.405 300.068 265.361 300.065 265.313C300.01 264.555 299.88 262.738 300.277 262.277C301.169 261.234 301.404 263.934 301.372 264.363C301.211 265.531 301.259 267.272 302.869 266.423C303.837 265.861 304.204 264.875 304.584 263.856C304.598 263.817 304.613 263.778 304.628 263.739C304.762 263.379 304.892 263.022 305.02 262.671C305.924 260.191 306.743 257.947 308.579 255.89C309.946 254.15 312.008 253.539 314.034 252.938C314.418 252.824 314.801 252.71 315.178 252.589C316.481 252.226 317.73 251.675 318.888 250.952C319.942 250.253 319.868 250.013 319.684 249.416C319.595 249.128 319.48 248.757 319.454 248.212C319.437 247.866 319.668 247.322 319.9 246.774C320.066 246.381 320.233 245.985 320.311 245.659C320.559 244.604 321.688 244.375 322.627 244.183C322.87 244.134 323.101 244.087 323.3 244.029C323.678 243.621 323.96 243.073 324.241 242.529C324.451 242.12 324.661 241.713 324.91 241.369C325.724 240.202 327.322 239.38 328.642 238.994C329.455 238.757 330.333 238.632 331.21 238.506C333.584 238.168 335.952 237.83 337.015 235.277C337.449 234.238 337.444 232.854 337.438 231.449C337.427 228.694 337.416 225.855 340.712 225.355C340.914 225.332 341.069 225.243 341.214 225.159C341.431 225.034 341.626 224.921 341.923 225.06C341.666 225.548 341.749 225.692 341.854 225.875ZM328.246 270.637C328.066 271.41 328.08 272.219 328.288 272.985C330.523 271.804 330.278 269.08 328.362 267.691C328.386 267.975 328.418 268.219 328.448 268.441C328.545 269.186 328.611 269.685 328.246 270.637Z" fill="#CC7F31" fill-opacity="0.12"/>
<path d="M32 159.996L342.68 145.885L320.978 177.903L345.493 207.821L34.8131 221.932L60.3664 189.74L32 159.996Z" fill="url(#paint1_linear_1401_29583)"/>
<path d="M129.259 180.142L130.168 195.467L132.274 195.342L132.645 201.589L130.738 201.702L130.473 197.233L118.587 197.938L118.852 202.407L116.946 202.52L116.575 196.273L117.885 196.196C118.411 195.163 118.89 194.011 119.324 192.741C119.764 191.463 120.143 190.133 120.461 188.753C120.785 187.364 121.031 185.976 121.2 184.588C121.375 183.2 121.461 181.873 121.456 180.605L129.259 180.142ZM127.388 182.049L123.317 182.291C123.304 183.262 123.212 184.351 123.042 185.559C122.87 186.759 122.63 187.994 122.322 189.264C122.022 190.534 121.672 191.756 121.272 192.931C120.88 194.104 120.453 195.151 119.991 196.071L128.191 195.584L127.388 182.049ZM140.238 183.552C141.837 183.458 143.144 183.932 144.161 184.975C145.178 186.018 145.752 187.643 145.883 189.85C145.969 191.309 145.824 192.546 145.446 193.562C145.068 194.579 144.496 195.364 143.731 195.918C142.973 196.472 142.056 196.78 140.98 196.844C140.301 196.885 139.699 196.83 139.174 196.682C138.649 196.533 138.194 196.317 137.809 196.035C137.424 195.752 137.101 195.439 136.838 195.094L136.697 195.103C136.739 195.406 136.788 195.77 136.844 196.198C136.909 196.624 136.951 196.997 136.97 197.317L137.282 202.581L135.328 202.697L134.227 184.144L135.83 184.049L136.2 185.929L136.293 185.923C136.52 185.518 136.803 185.145 137.143 184.804C137.482 184.456 137.903 184.172 138.407 183.955C138.918 183.729 139.528 183.595 140.238 183.552ZM139.996 185.21C139.107 185.263 138.4 185.477 137.874 185.853C137.356 186.228 136.993 186.766 136.784 187.467C136.575 188.16 136.493 189.022 136.538 190.053L136.561 190.427C136.625 191.511 136.796 192.42 137.075 193.155C137.361 193.889 137.789 194.435 138.358 194.793C138.934 195.15 139.687 195.301 140.615 195.246C141.41 195.199 142.061 194.945 142.565 194.485C143.07 194.024 143.429 193.404 143.641 192.625C143.86 191.837 143.94 190.944 143.881 189.946C143.791 188.433 143.424 187.249 142.778 186.395C142.14 185.533 141.213 185.138 139.996 185.21ZM146.873 183.394L148.955 183.27L152.228 190.542C152.417 190.969 152.595 191.381 152.759 191.778C152.923 192.168 153.07 192.542 153.201 192.903C153.332 193.263 153.439 193.612 153.522 193.952L153.604 193.947C153.69 193.551 153.815 193.03 153.981 192.387C154.146 191.735 154.325 191.071 154.52 190.394L156.758 182.807L158.852 182.683L154.145 197.718C153.895 198.524 153.589 199.231 153.226 199.839C152.87 200.447 152.421 200.924 151.878 201.269C151.336 201.622 150.667 201.822 149.871 201.869C149.505 201.891 149.18 201.887 148.896 201.857C148.613 201.835 148.368 201.802 148.162 201.76L148.07 200.204C148.244 200.233 148.453 200.255 148.696 200.272C148.948 200.289 149.206 200.289 149.471 200.273C149.955 200.244 150.366 200.126 150.706 199.918C151.054 199.717 151.347 199.434 151.583 199.068C151.82 198.702 152.017 198.271 152.176 197.777L152.771 195.933L146.873 183.394ZM168.678 182.1L168.776 183.749L162.951 184.095L163.614 195.266L161.66 195.382L160.899 182.561L168.678 182.1ZM173.089 181.838L173.567 189.898C173.576 190.054 173.584 190.257 173.591 190.507C173.598 190.749 173.602 191.011 173.603 191.293C173.603 191.567 173.603 191.833 173.603 192.091C173.61 192.341 173.611 192.548 173.605 192.713L179.955 181.43L182.342 181.289L183.103 194.11L181.29 194.218L180.823 186.356C180.808 186.107 180.793 185.787 180.778 185.396C180.762 185.006 180.751 184.623 180.745 184.248C180.738 183.865 180.732 183.568 180.727 183.357L174.399 194.626L172.001 194.769L171.24 181.948L173.089 181.838ZM200.006 180.241L200.767 193.062L199.012 193.166L198.517 184.813C198.496 184.47 198.483 184.123 198.478 183.771C198.48 183.411 198.486 183.05 198.496 182.69L198.426 182.694L194.789 193.417L193.14 193.514L188.366 183.291L188.295 183.295C188.34 183.652 188.377 184.01 188.406 184.369C188.443 184.719 188.472 185.089 188.495 185.479L188.987 193.761L187.22 193.866L186.46 181.044L189.068 180.89L193.831 191.125L197.409 180.395L200.006 180.241ZM217.39 192.075L215.495 192.188L214.776 180.069C214.748 179.608 214.725 179.215 214.706 178.887C214.694 178.551 214.683 178.247 214.675 177.973C214.674 177.692 214.676 177.406 214.683 177.116C214.456 177.38 214.242 177.608 214.042 177.799C213.842 177.983 213.594 178.213 213.297 178.489L211.436 180.173L210.34 178.911L214.761 175.068L216.375 174.973L217.39 192.075ZM234.662 182.446C234.745 183.834 234.713 185.08 234.567 186.184C234.422 187.289 234.145 188.232 233.738 189.016C233.33 189.799 232.779 190.411 232.086 190.851C231.391 191.284 230.541 191.53 229.535 191.59C228.264 191.665 227.19 191.38 226.315 190.736C225.447 190.091 224.767 189.125 224.276 187.84C223.793 186.546 223.496 184.971 223.385 183.115C223.277 181.29 223.367 179.711 223.656 178.379C223.952 177.039 224.493 175.994 225.278 175.243C226.062 174.484 227.133 174.064 228.49 173.984C229.777 173.907 230.858 174.195 231.735 174.848C232.61 175.492 233.29 176.462 233.774 177.756C234.257 179.042 234.553 180.605 234.662 182.446ZM225.339 182.999C225.433 184.59 225.633 185.908 225.938 186.955C226.242 188.001 226.68 188.773 227.249 189.272C227.826 189.762 228.555 189.981 229.436 189.928C230.318 189.876 231.012 189.573 231.519 189.018C232.034 188.463 232.381 187.648 232.56 186.573C232.746 185.498 232.792 184.161 232.697 182.562C232.604 180.995 232.406 179.692 232.101 178.653C231.797 177.607 231.359 176.834 230.79 176.336C230.22 175.83 229.486 175.603 228.589 175.657C227.693 175.71 226.991 176.021 226.485 176.591C225.978 177.154 225.636 177.972 225.457 179.047C225.285 180.114 225.246 181.431 225.339 182.999ZM237.028 185.322L236.926 183.591L242.728 183.246L242.831 184.978L237.028 185.322ZM258.942 176.743L259.702 189.565L257.948 189.669L257.452 181.316C257.432 180.973 257.419 180.626 257.414 180.274C257.416 179.914 257.422 179.553 257.432 179.193L257.361 179.197L253.725 189.919L252.075 190.017L247.301 179.794L247.231 179.798C247.276 180.155 247.312 180.513 247.341 180.871C247.378 181.221 247.408 181.591 247.431 181.981L247.922 190.264L246.156 190.368L245.395 177.547L248.004 177.392L252.767 187.628L256.345 176.898L258.942 176.743Z" fill="white"/>
<path d="M136.379 286.112L136.232 283.081L146.392 282.59L146.539 285.622L136.379 286.112ZM159.337 276.422C161.372 276.324 163.157 276.587 164.693 277.211C166.228 277.821 167.437 278.762 168.32 280.033C169.216 281.304 169.709 282.875 169.8 284.746C169.899 286.794 169.54 288.584 168.724 290.115C167.908 291.633 166.686 292.835 165.059 293.721C163.431 294.593 161.457 295.086 159.135 295.198C157.578 295.273 156.124 295.206 154.773 294.998C153.421 294.789 152.275 294.434 151.333 293.932L151.177 290.695C152.203 291.248 153.435 291.668 154.872 291.954C156.309 292.241 157.697 292.352 159.036 292.287C160.551 292.214 161.864 291.911 162.975 291.378C164.098 290.831 164.95 290.051 165.531 289.037C166.125 288.01 166.385 286.745 166.313 285.242C166.217 283.249 165.528 281.742 164.247 280.722C162.979 279.689 161.027 279.235 158.391 279.363C157.545 279.403 156.619 279.517 155.615 279.702C154.611 279.887 153.786 280.078 153.138 280.273L151.363 279.23L151.832 265.122L166.724 264.403L166.874 267.517L154.891 268.095L154.569 277.165C155.083 277.031 155.746 276.89 156.561 276.741C157.374 276.578 158.3 276.472 159.337 276.422ZM193.828 278.063C193.945 280.494 193.866 282.674 193.589 284.603C193.313 286.533 192.81 288.179 192.082 289.542C191.354 290.905 190.379 291.965 189.156 292.722C187.933 293.465 186.44 293.88 184.679 293.965C182.453 294.072 180.58 293.553 179.06 292.409C177.554 291.263 176.383 289.561 175.549 287.301C174.727 285.028 174.238 282.266 174.081 279.016C173.927 275.82 174.115 273.06 174.647 270.735C175.191 268.395 176.157 266.576 177.545 265.277C178.933 263.965 180.814 263.251 183.191 263.136C185.444 263.028 187.331 263.553 188.851 264.711C190.371 265.856 191.542 267.565 192.363 269.839C193.184 272.099 193.672 274.84 193.828 278.063ZM177.502 278.851C177.637 281.637 177.96 283.948 178.473 285.785C178.986 287.621 179.736 288.981 180.723 289.865C181.723 290.733 182.995 291.131 184.538 291.056C186.081 290.982 187.302 290.464 188.2 289.504C189.112 288.543 189.734 287.123 190.068 285.246C190.415 283.367 190.522 281.028 190.386 278.229C190.254 275.484 189.932 273.2 189.419 271.377C188.906 269.54 188.156 268.18 187.169 267.297C186.181 266.4 184.902 265.99 183.332 266.066C181.761 266.141 180.528 266.673 179.631 267.661C178.734 268.635 178.118 270.061 177.784 271.939C177.464 273.802 177.37 276.106 177.502 278.851ZM214.308 261.676C216.356 261.577 217.946 262.321 219.076 263.909C220.22 265.483 220.863 267.758 221.007 270.735C221.151 273.712 220.751 276.058 219.807 277.774C218.863 279.476 217.332 280.378 215.215 280.48C213.249 280.575 211.7 279.821 210.569 278.22C209.45 276.604 208.819 274.307 208.676 271.33C208.532 268.353 208.919 266.028 209.838 264.355C210.756 262.668 212.246 261.775 214.308 261.676ZM214.425 264.113C213.319 264.167 212.535 264.786 212.072 265.972C211.608 267.144 211.432 268.884 211.544 271.192C211.655 273.5 211.998 275.228 212.574 276.378C213.15 277.527 213.99 278.075 215.097 278.022C216.244 277.966 217.069 277.338 217.572 276.137C218.075 274.935 218.271 273.18 218.16 270.873C218.049 268.578 217.686 266.864 217.07 265.731C216.468 264.596 215.586 264.057 214.425 264.113ZM233.297 261.19L218.13 291.94L215.139 292.084L230.306 261.335L233.297 261.19ZM233.056 272.802C235.091 272.704 236.681 273.448 237.825 275.036C238.968 276.609 239.612 278.885 239.756 281.862C239.899 284.825 239.498 287.165 238.555 288.88C237.61 290.582 236.08 291.484 233.963 291.586C231.983 291.682 230.434 290.928 229.316 289.326C228.198 287.71 227.567 285.42 227.424 282.457C227.281 279.48 227.661 277.155 228.566 275.483C229.484 273.796 230.981 272.902 233.056 272.802ZM233.175 275.26C232.069 275.314 231.284 275.926 230.82 277.099C230.357 278.271 230.181 280.011 230.292 282.319C230.404 284.626 230.747 286.355 231.323 287.504C231.898 288.64 232.738 289.181 233.844 289.128C234.991 289.073 235.817 288.458 236.322 287.284C236.826 286.096 237.021 284.334 236.908 281.999C236.798 279.705 236.435 277.998 235.819 276.878C235.217 275.743 234.336 275.204 233.175 275.26Z" fill="#333333"/>
<path fill-rule="evenodd" clip-rule="evenodd" d="M78.8537 205.875C78.9327 206.012 79.0244 206.172 78.994 206.516C78.7306 206.725 78.4095 206.753 78.0793 206.782C77.6061 206.824 77.1142 206.867 76.7462 207.448C76.2663 208.189 75.7253 209.669 75.9862 210.578C76.4434 211.967 76.2587 213.29 76.0729 214.62C75.9604 215.426 75.8475 216.234 75.8767 217.062C75.8597 218.271 75.3987 219.427 74.5885 220.292C74.3515 220.527 73.9441 220.752 73.5331 220.979C73.0002 221.274 72.4613 221.571 72.2795 221.899C71.9902 222.393 71.5566 222.794 71.1264 223.192C70.8526 223.446 70.5802 223.698 70.3472 223.972C70.1457 224.199 70.0505 224.548 69.9603 224.878C69.9092 225.066 69.8597 225.247 69.7933 225.398C69.4435 226.063 68.9958 226.668 68.4665 227.189C68.7499 227.464 69.0798 227.673 69.403 227.878C70.1227 228.333 70.8097 228.768 70.8786 229.872C70.9231 230.553 71.3093 230.963 71.6494 231.324C72.1709 231.877 72.5839 232.315 71.4905 233.438C71.0267 233.981 70.4368 234.391 69.7772 234.629C69.4698 234.711 69.2357 234.875 69.0117 235.032C68.8132 235.171 68.6225 235.304 68.3956 235.37C68.0374 235.472 67.7593 235.489 67.5453 235.502C67.0341 235.532 66.8885 235.541 66.8885 236.638C66.8138 237.643 66.7988 238.651 66.8434 239.657C67.0541 241.401 67.4383 243.118 67.9899 244.779C68.0941 245.055 68.1711 245.348 68.2482 245.642C68.3448 246.011 68.4415 246.379 68.5921 246.711C68.7413 247.063 68.9475 247.408 69.1555 247.755C69.5089 248.345 69.8675 248.944 69.9608 249.603C70.0428 250.201 69.7788 250.694 69.5138 251.19C69.3626 251.472 69.2112 251.755 69.1234 252.058C68.8562 252.869 68.7181 253.72 68.7145 254.578C68.7595 255.534 68.7917 256.308 67.7934 256.691C67.2227 256.533 66.8495 255.999 66.4966 255.494C66.3396 255.269 66.1867 255.05 66.0222 254.873C65.684 256.738 62.2929 255.094 61.7487 254.014C61.48 253.429 61.6728 252.882 61.8717 252.316C62.0138 251.913 62.159 251.5 62.1416 251.059C62.0772 249.325 61.8807 247.936 60.8534 246.503C60.175 245.56 59.9067 246.001 59.5318 246.618C59.3711 246.882 59.1908 247.179 58.9501 247.413C58.2295 248.216 57.3805 248.697 56.5069 249.192C56.1508 249.394 55.7907 249.598 55.4334 249.828C54.5672 250.264 53.8859 251.017 53.5205 251.944C53.4096 252.304 53.4403 252.648 53.4713 252.995C53.4952 253.262 53.5193 253.532 53.4787 253.813C53.3802 254.274 53.2502 254.728 53.1201 255.182C52.9779 255.678 52.8357 256.174 52.7347 256.681C52.4771 257.999 52.4642 258.328 53.0214 259.542C53.6665 260.928 52.5984 260.935 51.522 260.942C51.3842 260.943 51.2462 260.944 51.1116 260.948C50.9835 260.951 50.8491 260.956 50.7095 260.961C49.2715 261.009 47.2916 261.075 46.0234 260.656C44.9728 260.371 44.1566 259.51 43.8979 258.412C43.7854 257.741 44.2686 257.116 44.7275 256.521C44.9781 256.197 45.2214 255.882 45.3568 255.574C45.7534 254.756 45.7268 253.784 45.2859 252.991C44.9634 252.33 44.7774 251.632 44.5973 250.957C44.209 249.501 43.8482 248.147 42.2072 247.483C41.5904 247.233 40.9933 247.402 40.3922 247.573C39.879 247.718 39.3629 247.864 38.829 247.751C37.8119 247.481 37.0935 246.537 37.0738 245.443C37.0712 245.405 37.068 245.361 37.0646 245.313C37.0102 244.555 36.8799 242.738 37.2767 242.277C38.1688 241.234 38.4039 243.934 38.3717 244.363C38.2106 245.531 38.259 247.272 39.8692 246.423C40.837 245.861 41.2043 244.875 41.584 243.856C41.5985 243.817 41.613 243.778 41.6275 243.739C41.7622 243.379 41.892 243.022 42.0201 242.671C42.9243 240.191 43.7426 237.947 45.579 235.89C46.9462 234.15 49.0077 233.539 51.0344 232.938C51.4184 232.824 51.8011 232.71 52.1776 232.589C53.4814 232.226 54.7301 231.675 55.8875 230.952C56.9416 230.253 56.8678 230.013 56.6836 229.416C56.5948 229.128 56.4805 228.757 56.4543 228.212C56.4374 227.866 56.6676 227.322 56.8995 226.774C57.0658 226.381 57.233 225.985 57.311 225.659C57.559 224.604 58.6883 224.375 59.6266 224.183C59.87 224.134 60.1005 224.087 60.2995 224.029C60.6783 223.621 60.9605 223.073 61.2408 222.529C61.4515 222.12 61.661 221.713 61.9097 221.369C62.7245 220.202 64.3218 219.38 65.6422 218.994C66.4553 218.757 67.3332 218.632 68.2102 218.506C70.5842 218.168 72.9523 217.83 74.0153 215.277C74.4494 214.238 74.4439 212.854 74.4382 211.449C74.4272 208.694 74.4158 205.855 77.7123 205.355C77.914 205.332 78.0689 205.243 78.2143 205.159C78.431 205.034 78.6263 204.921 78.9232 205.06C78.6657 205.548 78.7485 205.692 78.8537 205.875ZM65.2461 250.637C65.0656 251.41 65.08 252.219 65.288 252.985C67.5229 251.804 67.2782 249.08 65.362 247.691C65.3864 247.975 65.4184 248.219 65.4475 248.441C65.5454 249.186 65.6109 249.685 65.2461 250.637Z" fill="#CC7F31" fill-opacity="0.12"/>
<path d="M319.997 370.582C320.135 370.441 320.3 370.329 320.482 370.252C320.664 370.176 320.86 370.136 321.057 370.137C321.255 370.137 321.45 370.177 321.632 370.254C321.814 370.331 321.978 370.444 322.116 370.586L338.957 387.866C339.253 388.169 339.419 388.576 339.419 389C339.419 389.424 339.253 389.831 338.957 390.134L322.116 407.415C321.978 407.556 321.813 407.669 321.631 407.745C321.45 407.822 321.254 407.862 321.056 407.862C320.859 407.862 320.663 407.822 320.481 407.745C320.3 407.669 320.135 407.556 319.997 407.415C319.714 407.124 319.555 406.735 319.555 406.329C319.555 405.923 319.714 405.534 319.997 405.244L335.834 389L319.997 372.75C319.714 372.46 319.556 372.071 319.556 371.666C319.556 371.261 319.714 370.872 319.997 370.582V370.582ZM306.997 370.582C307.135 370.441 307.3 370.329 307.482 370.252C307.664 370.176 307.86 370.136 308.057 370.137C308.255 370.137 308.45 370.177 308.632 370.254C308.814 370.331 308.978 370.444 309.116 370.586L325.957 387.866C326.253 388.169 326.419 388.576 326.419 389C326.419 389.424 326.253 389.831 325.957 390.134L309.116 407.415C308.978 407.556 308.813 407.669 308.631 407.745C308.45 407.822 308.254 407.862 308.056 407.862C307.859 407.862 307.663 407.822 307.481 407.745C307.3 407.669 307.135 407.556 306.997 407.415C306.714 407.124 306.555 406.735 306.555 406.329C306.555 405.923 306.714 405.534 306.997 405.244L322.834 389L306.997 372.75C306.714 372.46 306.556 372.071 306.556 371.666C306.556 371.261 306.714 370.872 306.997 370.582V370.582Z" fill="#C74A2E"/>
<path fill-rule="evenodd" clip-rule="evenodd" d="M105.854 333.879C105.933 334.016 106.024 334.176 105.994 334.519C105.731 334.729 105.41 334.757 105.079 334.786C104.606 334.828 104.114 334.871 103.746 335.452C103.266 336.193 102.725 337.673 102.986 338.582C103.443 339.971 103.259 341.294 103.073 342.624C102.96 343.43 102.848 344.238 102.877 345.066C102.86 346.274 102.399 347.43 101.589 348.296C101.351 348.531 100.944 348.756 100.533 348.983C100 349.278 99.4613 349.575 99.2795 349.903C98.9902 350.397 98.5566 350.798 98.1264 351.196C97.8526 351.45 97.5802 351.702 97.3472 351.976C97.1457 352.203 97.0505 352.552 96.9603 352.882C96.9092 353.07 96.8597 353.251 96.7933 353.401C96.4435 354.067 95.9958 354.671 95.4665 355.193C95.7499 355.468 96.0798 355.677 96.403 355.882C97.1227 356.337 97.8097 356.772 97.8786 357.876C97.9231 358.557 98.3093 358.967 98.6494 359.328C99.1709 359.881 99.5839 360.319 98.4905 361.442C98.0267 361.985 97.4368 362.395 96.7772 362.633C96.4698 362.715 96.2357 362.879 96.0117 363.035C95.8132 363.174 95.6225 363.308 95.3956 363.374C95.0374 363.476 94.7593 363.493 94.5453 363.506C94.0341 363.536 93.8885 363.545 93.8885 364.642C93.8138 365.646 93.7988 366.655 93.8434 367.661C94.0541 369.405 94.4383 371.122 94.9899 372.783C95.0941 373.058 95.1711 373.352 95.2482 373.646C95.3448 374.014 95.4415 374.383 95.5921 374.715C95.7413 375.067 95.9475 375.412 96.1555 375.759C96.5089 376.349 96.8675 376.948 96.9608 377.607C97.0428 378.205 96.7788 378.698 96.5138 379.193C96.3626 379.476 96.2112 379.759 96.1234 380.062C95.8562 380.873 95.7181 381.724 95.7145 382.581C95.7595 383.537 95.7917 384.312 94.7934 384.695C94.2227 384.537 93.8495 384.003 93.4966 383.498C93.3396 383.273 93.1867 383.054 93.0222 382.877C92.684 384.742 89.2929 383.098 88.7487 382.018C88.48 381.433 88.6728 380.885 88.8717 380.32C89.0138 379.917 89.159 379.504 89.1416 379.063C89.0772 377.328 88.8807 375.94 87.8534 374.507C87.175 373.564 86.9067 374.005 86.5318 374.622C86.3711 374.886 86.1908 375.183 85.9501 375.416C85.2295 376.219 84.3805 376.701 83.5069 377.196C83.1508 377.398 82.7907 377.602 82.4334 377.832C81.5672 378.267 80.8859 379.021 80.5205 379.948C80.4096 380.308 80.4403 380.652 80.4713 380.999C80.4952 381.266 80.5193 381.536 80.4787 381.817C80.3802 382.278 80.2502 382.732 80.1201 383.186C79.9779 383.682 79.8357 384.178 79.7347 384.685C79.4771 386.003 79.4642 386.332 80.0214 387.546C80.6665 388.932 79.5984 388.939 78.522 388.946C78.3842 388.947 78.2462 388.948 78.1116 388.951C77.9835 388.955 77.8491 388.96 77.7095 388.964C76.2715 389.012 74.2916 389.079 73.0234 388.66C71.9728 388.375 71.1566 387.514 70.8979 386.416C70.7854 385.745 71.2686 385.119 71.7275 384.525C71.9781 384.201 72.2214 383.886 72.3568 383.578C72.7534 382.76 72.7268 381.788 72.2859 380.995C71.9634 380.334 71.7774 379.636 71.5973 378.96C71.209 377.505 70.8482 376.151 69.2072 375.487C68.5904 375.237 67.9933 375.406 67.3922 375.576C66.879 375.722 66.3629 375.868 65.829 375.755C64.8119 375.485 64.0935 374.54 64.0738 373.447C64.0712 373.409 64.068 373.365 64.0646 373.317C64.0102 372.558 63.8799 370.741 64.2767 370.281C65.1688 369.238 65.4039 371.938 65.3717 372.367C65.2106 373.535 65.259 375.276 66.8692 374.427C67.837 373.865 68.2043 372.879 68.584 371.86C68.5985 371.821 68.613 371.782 68.6275 371.743C68.7622 371.382 68.892 371.026 69.0201 370.675C69.9243 368.195 70.7426 365.951 72.579 363.894C73.9462 362.154 76.0077 361.543 78.0344 360.941C78.4184 360.828 78.8011 360.714 79.1776 360.593C80.4814 360.23 81.7301 359.679 82.8875 358.956C83.9416 358.257 83.8678 358.017 83.6836 357.42C83.5948 357.132 83.4805 356.761 83.4543 356.216C83.4374 355.87 83.6676 355.326 83.8995 354.778C84.0658 354.385 84.233 353.989 84.311 353.663C84.559 352.608 85.6883 352.378 86.6266 352.187C86.87 352.138 87.1005 352.091 87.2995 352.033C87.6783 351.625 87.9605 351.077 88.2408 350.533C88.4515 350.124 88.661 349.717 88.9097 349.373C89.7245 348.205 91.3218 347.384 92.6422 346.998C93.4553 346.761 94.3332 346.636 95.2102 346.51C97.5842 346.172 99.9523 345.834 101.015 343.281C101.449 342.242 101.444 340.858 101.438 339.453C101.427 336.698 101.416 333.859 104.712 333.359C104.914 333.336 105.069 333.247 105.214 333.163C105.431 333.038 105.626 332.925 105.923 333.064C105.666 333.552 105.749 333.696 105.854 333.879ZM92.2461 378.64C92.0656 379.414 92.08 380.223 92.288 380.989C94.5229 379.808 94.2782 377.084 92.362 375.695C92.3864 375.979 92.4184 376.223 92.4475 376.445C92.5454 377.19 92.6109 377.689 92.2461 378.64Z" fill="#CC7F31" fill-opacity="0.12"/>
<defs>
<filter id="filter0_d_1401_29583" x="0" y="0.996094" width="383" height="448" filterUnits="userSpaceOnUse" color-interpolation-filters="sRGB">
<feFlood flood-opacity="0" result="BackgroundImageFix"/>
<feColorMatrix in="SourceAlpha" type="matrix" values="0 0 0 0 0 0 0 0 0 0 0 0 0 0 0 0 0 0 127 0" result="hardAlpha"/>
<feMorphology radius="7" operator="dilate" in="SourceAlpha" result="effect1_dropShadow_1401_29583"/>
<feOffset dx="3" dy="3"/>
<feGaussianBlur stdDeviation="6"/>
<feComposite in2="hardAlpha" operator="out"/>
<feColorMatrix type="matrix" values="0 0 0 0 0.320833 0 0 0 0 0.320833 0 0 0 0 0.320833 0 0 0 0.12 0"/>
<feBlend mode="normal" in2="BackgroundImageFix" result="effect1_dropShadow_1401_29583"/>
<feBlend mode="normal" in="SourceGraphic" in2="effect1_dropShadow_1401_29583" result="shape"/>
</filter>
<linearGradient id="paint0_linear_1401_29583" x1="301" y1="16.9961" x2="16" y2="87.4961" gradientUnits="userSpaceOnUse">
<stop stop-color="#BD462B"/>
<stop offset="1" stop-color="#E45332"/>
</linearGradient>
<linearGradient id="paint1_linear_1401_29583" x1="340.443" y1="145.879" x2="87.0971" y2="251.39" gradientUnits="userSpaceOnUse">
<stop stop-color="#C0472C"/>
<stop offset="0.947683" stop-color="#E45433"/>
</linearGradient>
</defs>
</svg>
