<svg width="570" height="312" viewBox="0 0 570 312" fill="none" xmlns="http://www.w3.org/2000/svg">
<g filter="url(#filter0_d_1218_31693)">
<rect x="16" y="16" width="532" height="274" fill="#FFF8EA"/>
</g>
<path fill-rule="evenodd" clip-rule="evenodd" d="M254.854 16.8789C254.933 17.0163 255.024 17.1756 254.994 17.5195C254.731 17.7291 254.41 17.7573 254.079 17.7863C253.606 17.8279 253.114 17.8712 252.746 18.452C252.266 19.1933 251.725 20.6726 251.986 21.5817C252.443 22.9709 252.259 24.2938 252.073 25.6241C251.96 26.4298 251.848 27.2382 251.877 28.0658C251.86 29.2745 251.399 30.4305 250.589 31.296C250.351 31.5312 249.944 31.7562 249.533 31.9832C249 32.2775 248.461 32.5752 248.279 32.9028C247.99 33.3968 247.557 33.7981 247.126 34.1962C246.853 34.4497 246.58 34.7018 246.347 34.9758C246.146 35.2029 246.051 35.5516 245.96 35.8823C245.909 36.0696 245.86 36.2511 245.793 36.4015C245.444 37.067 244.996 37.6715 244.466 38.1927C244.75 38.4682 245.08 38.677 245.403 38.8816C246.123 39.3372 246.81 39.7721 246.879 40.8762C246.923 41.5569 247.309 41.9667 247.649 42.3276C248.171 42.881 248.584 43.3192 247.49 44.442C247.027 44.9852 246.437 45.3953 245.777 45.6328C245.47 45.7146 245.236 45.8785 245.012 46.0354C244.813 46.1744 244.623 46.3079 244.396 46.3741C244.037 46.4761 243.759 46.4927 243.545 46.5056C243.034 46.5362 242.888 46.5449 242.888 47.6421C242.814 48.6465 242.799 49.6547 242.843 50.661C243.054 52.4052 243.438 54.1218 243.99 55.7832C244.094 56.0584 244.171 56.3521 244.248 56.6458C244.345 57.0144 244.442 57.3831 244.592 57.7154C244.741 58.0671 244.947 58.4115 245.156 58.759C245.509 59.3492 245.868 59.9481 245.961 60.6069C246.043 61.2049 245.779 61.6983 245.514 62.1934C245.363 62.4759 245.211 62.7589 245.123 63.0623C244.856 63.8732 244.718 64.7241 244.714 65.5814C244.76 66.5375 244.792 67.3123 243.793 67.6947C243.223 67.5368 242.85 67.0028 242.497 66.4976C242.34 66.273 242.187 66.0542 242.022 65.8766C241.684 67.7417 238.293 66.098 237.749 65.0179C237.48 64.4328 237.673 63.8854 237.872 63.3204C238.014 62.9168 238.159 62.5043 238.142 62.0627C238.077 60.3284 237.881 58.9397 236.853 57.5074C236.175 56.5636 235.907 57.005 235.532 57.6217C235.371 57.8862 235.191 58.1829 234.95 58.4164C234.229 59.2195 233.38 59.7009 232.507 60.1962C232.151 60.3981 231.791 60.6023 231.433 60.8316C230.567 61.2675 229.886 62.0212 229.521 62.9482C229.41 63.308 229.44 63.6516 229.471 63.9986C229.495 64.2664 229.519 64.5361 229.479 64.8166C229.38 65.2781 229.25 65.7319 229.12 66.1858C228.978 66.682 228.836 67.1783 228.735 67.6847C228.477 69.0029 228.464 69.3317 229.021 70.546C229.667 71.9317 228.598 71.9387 227.522 71.9458C227.384 71.9467 227.246 71.9477 227.112 71.9515C226.983 71.9553 226.849 71.9598 226.71 71.9645C225.272 72.0125 223.292 72.0785 222.023 71.6596C220.973 71.3753 220.157 70.5136 219.898 69.4155C219.785 68.745 220.269 68.1194 220.728 67.5252C220.978 67.2007 221.221 66.8857 221.357 66.5777C221.753 65.7595 221.727 64.7881 221.286 63.9948C220.963 63.3336 220.777 62.6359 220.597 61.9604C220.209 60.5045 219.848 59.1514 218.207 58.4869C217.59 58.2371 216.993 58.4062 216.392 58.5765C215.879 58.7218 215.363 58.868 214.829 58.7552C213.812 58.4851 213.093 57.5405 213.074 56.4474C213.071 56.4086 213.068 56.3649 213.065 56.317C213.01 55.5585 212.88 53.7415 213.277 53.2808C214.169 52.2376 214.404 54.9379 214.372 55.3673C214.211 56.5346 214.259 58.2755 215.869 57.4269C216.837 56.8646 217.204 55.8791 217.584 54.86C217.598 54.8211 217.613 54.7823 217.628 54.7434C217.762 54.3824 217.892 54.0264 218.02 53.675C218.924 51.1953 219.743 48.9507 221.579 46.894C222.946 45.154 225.008 44.5426 227.034 43.9415C227.418 43.8276 227.801 43.7141 228.178 43.5933C229.481 43.2302 230.73 42.6793 231.888 41.9564C232.942 41.2568 232.868 41.0172 232.684 40.4197C232.595 40.1319 232.48 39.7611 232.454 39.2158C232.437 38.8699 232.668 38.326 232.9 37.7776C233.066 37.3846 233.233 36.9894 233.311 36.6631C233.559 35.6083 234.688 35.3784 235.627 35.1874C235.87 35.1378 236.101 35.0909 236.3 35.0329C236.678 34.6249 236.96 34.077 237.241 33.5326C237.451 33.1237 237.661 32.7168 237.91 32.3728C238.724 31.2055 240.322 30.3836 241.642 29.9979C242.455 29.7608 243.333 29.6355 244.21 29.5104C246.584 29.1715 248.952 28.8336 250.015 26.2812C250.449 25.2419 250.444 23.8583 250.438 22.4526C250.427 19.698 250.416 16.8586 253.712 16.3589C253.914 16.336 254.069 16.2466 254.214 16.1628C254.431 16.0378 254.626 15.9251 254.923 16.0637C254.666 16.5521 254.749 16.696 254.854 16.8789ZM241.246 61.6405C241.066 62.4139 241.08 63.2227 241.288 63.9886C243.523 62.8078 243.278 60.084 241.362 58.6953C241.386 58.9791 241.418 59.2228 241.448 59.4446C241.545 60.19 241.611 60.6891 241.246 61.6405Z" fill="#CC7F31" fill-opacity="0.12"/>
<path d="M16 16H306L156.521 65.0105L16 112V16Z" fill="url(#paint0_linear_1218_31693)"/>
<path d="M47.7109 62.8257C48.0624 64.1375 47.9358 65.2849 47.331 66.2679C46.7239 67.2421 45.7731 68.0252 44.4787 68.6174L44.5034 68.7099C46.1495 68.5142 47.4925 68.7016 48.5323 69.2722C49.5722 69.8428 50.2644 70.7708 50.6088 72.0562C50.9131 73.1919 50.8947 74.2679 50.5537 75.284C50.219 76.289 49.5476 77.1813 48.5392 77.961C47.5309 78.7408 46.1815 79.3571 44.4912 79.81C43.4435 80.0908 42.4218 80.2749 41.4262 80.3624C40.4329 80.4587 39.4893 80.4237 38.5955 80.2574L38.04 78.1841C38.6566 78.3019 39.3078 78.3728 39.9936 78.3966C40.6794 78.4205 41.3622 78.3979 42.042 78.329C42.7282 78.2489 43.3707 78.1287 43.9694 77.9683C45.7126 77.5012 46.9435 76.8128 47.6622 75.903C48.3874 74.9822 48.586 73.9098 48.2581 72.6861C47.9208 71.4271 47.1516 70.6518 45.9506 70.3603C44.756 70.0576 43.2167 70.1587 41.3327 70.6635L38.5594 71.4066L38.0534 69.5181L40.7342 68.7998C42.002 68.4601 43.0151 68.033 43.7737 67.5183C44.5299 66.9949 45.0429 66.4092 45.3128 65.7613C45.5891 65.1022 45.6282 64.4029 45.43 63.6633C45.1587 62.6509 44.5802 61.9708 43.6944 61.6231C42.8174 61.2731 41.789 61.2561 40.6093 61.5722C39.3856 61.9001 38.4156 62.3299 37.6993 62.8615C36.9807 63.3843 36.3089 63.9937 35.6839 64.6896L34.1905 63.4478C34.602 62.9412 35.0935 62.451 35.6648 61.9771C36.2337 61.4944 36.8907 61.0588 37.6359 60.6704C38.3787 60.2732 39.208 59.952 40.1236 59.7066C41.4882 59.341 42.6926 59.24 43.7367 59.4037C44.7784 59.5587 45.6381 59.9322 46.3158 60.5244C46.9934 61.1166 47.4585 61.8837 47.7109 62.8257ZM70.806 72.4759L68.561 73.0775L66.1229 63.9785L55.9807 66.6961L58.4188 75.7951L56.1738 76.3966L51.0004 57.0894L53.2454 56.4879L55.4499 64.7152L65.5922 61.9976L63.3877 53.7703L65.6327 53.1687L70.806 72.4759ZM70.9679 51.7391L73.0677 51.1765L76.0577 62.3356C76.171 62.7582 76.2904 63.2216 76.4161 63.7258C76.5394 64.2211 76.6559 64.7089 76.7657 65.189C76.8755 65.6692 76.9691 66.1065 77.0464 66.5009C77.1326 66.893 77.1952 67.1971 77.2342 67.4131L77.3399 67.3848L83.7513 48.3138L86.2209 47.6521L91.3942 66.9593L89.2944 67.5219L86.3398 56.4949C86.2147 56.0283 86.0914 55.5329 85.9699 55.0088C85.8459 54.4758 85.7267 53.9605 85.6122 53.4627C85.5065 52.9626 85.415 52.5153 85.3376 52.1209C85.2579 51.7176 85.1941 51.4092 85.1463 51.1955L85.0274 51.2274L78.624 70.3811L76.1413 71.0463L70.9679 51.7391ZM99.2584 54.2082L89.1922 46.856L91.6881 46.1872L101.642 53.5413L99.1363 44.1914L101.302 43.6111L103.807 52.961L108.75 41.6154L111.246 40.9466L106.201 52.3337L116.697 60.1795L114.109 60.873L103.853 53.1326L106.475 62.9183L104.31 63.4986L101.688 53.713L96.6634 65.5474L94.075 66.241L99.2584 54.2082ZM133.27 55.7386L130.55 56.4675L119.05 49.0466L121.676 58.8454L119.431 59.447L114.257 40.1398L116.502 39.5382L119.008 48.8881L125.152 37.2205L127.727 36.5305L121.695 48.1962L133.27 55.7386ZM148.048 51.779L144.029 46.2883L136.29 48.3619L135.568 55.1229L133.297 55.7315L135.656 34.321L137.677 33.7797L150.372 51.1562L148.048 51.779ZM142.821 44.4747L138.932 38.9918C138.836 38.8475 138.679 38.6113 138.459 38.2834C138.248 37.9531 138.029 37.6108 137.801 37.2564C137.574 36.9021 137.389 36.6167 137.247 36.4002C137.255 36.7848 137.255 37.1717 137.246 37.5609C137.244 37.9391 137.235 38.2952 137.221 38.6292C137.204 38.9545 137.189 39.2323 137.175 39.4624L136.509 46.1661L142.821 44.4747ZM153.267 44.6339L151.828 45.0196L147.484 31.2368L150.138 30.5256L153.267 44.6339ZM152.025 49.2414C151.86 48.6251 151.893 48.1492 152.123 47.8137C152.352 47.4693 152.691 47.237 153.14 47.1167C153.58 46.9988 153.985 47.0317 154.355 47.2157C154.732 47.3884 155.003 47.7829 155.168 48.3992C155.331 49.0067 155.296 49.4926 155.063 49.8569C154.837 50.21 154.504 50.4455 154.063 50.5635C153.614 50.6838 153.204 50.6476 152.831 50.4549C152.456 50.2533 152.188 49.8488 152.025 49.2414Z" fill="white"/>
<path d="M506.997 233.582C507.135 233.441 507.3 233.329 507.482 233.252C507.664 233.176 507.86 233.136 508.057 233.137C508.255 233.137 508.45 233.177 508.632 233.254C508.814 233.331 508.978 233.444 509.116 233.586L525.957 250.866C526.253 251.169 526.419 251.576 526.419 252C526.419 252.424 526.253 252.831 525.957 253.134L509.116 270.415C508.978 270.556 508.813 270.669 508.631 270.745C508.45 270.822 508.254 270.862 508.056 270.862C507.859 270.862 507.663 270.822 507.481 270.745C507.3 270.669 507.135 270.556 506.997 270.415C506.714 270.124 506.555 269.735 506.555 269.329C506.555 268.923 506.714 268.534 506.997 268.244L522.834 252L506.997 235.75C506.714 235.46 506.556 235.071 506.556 234.666C506.556 234.261 506.714 233.872 506.997 233.582ZM493.997 233.582C494.135 233.441 494.3 233.329 494.482 233.252C494.664 233.176 494.86 233.136 495.057 233.137C495.255 233.137 495.45 233.177 495.632 233.254C495.814 233.331 495.978 233.444 496.116 233.586L512.957 250.866C513.253 251.169 513.419 251.576 513.419 252C513.419 252.424 513.253 252.831 512.957 253.134L496.116 270.415C495.978 270.556 495.813 270.669 495.631 270.745C495.45 270.822 495.254 270.862 495.056 270.862C494.859 270.862 494.663 270.822 494.481 270.745C494.3 270.669 494.135 270.556 493.997 270.415C493.714 270.124 493.555 269.735 493.555 269.329C493.555 268.923 493.714 268.534 493.997 268.244L509.834 252L493.997 235.75C493.714 235.46 493.556 235.071 493.556 234.666C493.556 234.261 493.714 233.872 493.997 233.582Z" fill="#C74A2E"/>
<path fill-rule="evenodd" clip-rule="evenodd" d="M456.854 133.879C456.933 134.016 457.024 134.176 456.994 134.519C456.731 134.729 456.41 134.757 456.079 134.786C455.606 134.828 455.114 134.871 454.746 135.452C454.266 136.193 453.725 137.673 453.986 138.582C454.443 139.971 454.259 141.294 454.073 142.624C453.96 143.43 453.848 144.238 453.877 145.066C453.86 146.274 453.399 147.43 452.589 148.296C452.351 148.531 451.944 148.756 451.533 148.983C451 149.278 450.461 149.575 450.279 149.903C449.99 150.397 449.557 150.798 449.126 151.196C448.853 151.45 448.58 151.702 448.347 151.976C448.146 152.203 448.051 152.552 447.96 152.882C447.909 153.07 447.86 153.251 447.793 153.401C447.444 154.067 446.996 154.671 446.466 155.193C446.75 155.468 447.08 155.677 447.403 155.882C448.123 156.337 448.81 156.772 448.879 157.876C448.923 158.557 449.309 158.967 449.649 159.328C450.171 159.881 450.584 160.319 449.49 161.442C449.027 161.985 448.437 162.395 447.777 162.633C447.47 162.715 447.236 162.879 447.012 163.035C446.813 163.174 446.623 163.308 446.396 163.374C446.037 163.476 445.759 163.493 445.545 163.506C445.034 163.536 444.888 163.545 444.888 164.642C444.814 165.646 444.799 166.655 444.843 167.661C445.054 169.405 445.438 171.122 445.99 172.783C446.094 173.058 446.171 173.352 446.248 173.646C446.345 174.014 446.442 174.383 446.592 174.715C446.741 175.067 446.947 175.412 447.156 175.759C447.509 176.349 447.868 176.948 447.961 177.607C448.043 178.205 447.779 178.698 447.514 179.193C447.363 179.476 447.211 179.759 447.123 180.062C446.856 180.873 446.718 181.724 446.714 182.581C446.76 183.537 446.792 184.312 445.793 184.695C445.223 184.537 444.85 184.003 444.497 183.498C444.34 183.273 444.187 183.054 444.022 182.877C443.684 184.742 440.293 183.098 439.749 182.018C439.48 181.433 439.673 180.885 439.872 180.32C440.014 179.917 440.159 179.504 440.142 179.063C440.077 177.328 439.881 175.94 438.853 174.507C438.175 173.564 437.907 174.005 437.532 174.622C437.371 174.886 437.191 175.183 436.95 175.416C436.229 176.219 435.38 176.701 434.507 177.196C434.151 177.398 433.791 177.602 433.433 177.832C432.567 178.267 431.886 179.021 431.521 179.948C431.41 180.308 431.44 180.652 431.471 180.999C431.495 181.266 431.519 181.536 431.479 181.817C431.38 182.278 431.25 182.732 431.12 183.186C430.978 183.682 430.836 184.178 430.735 184.685C430.477 186.003 430.464 186.332 431.021 187.546C431.667 188.932 430.598 188.939 429.522 188.946C429.384 188.947 429.246 188.948 429.112 188.951C428.983 188.955 428.849 188.96 428.71 188.964C427.272 189.012 425.292 189.079 424.023 188.66C422.973 188.375 422.157 187.514 421.898 186.416C421.785 185.745 422.269 185.119 422.728 184.525C422.978 184.201 423.221 183.886 423.357 183.578C423.753 182.76 423.727 181.788 423.286 180.995C422.963 180.334 422.777 179.636 422.597 178.96C422.209 177.505 421.848 176.151 420.207 175.487C419.59 175.237 418.993 175.406 418.392 175.576C417.879 175.722 417.363 175.868 416.829 175.755C415.812 175.485 415.093 174.54 415.074 173.447C415.071 173.409 415.068 173.365 415.065 173.317C415.01 172.558 414.88 170.741 415.277 170.281C416.169 169.238 416.404 171.938 416.372 172.367C416.211 173.535 416.259 175.276 417.869 174.427C418.837 173.865 419.204 172.879 419.584 171.86C419.598 171.821 419.613 171.782 419.628 171.743C419.762 171.382 419.892 171.026 420.02 170.675C420.924 168.195 421.743 165.951 423.579 163.894C424.946 162.154 427.008 161.543 429.034 160.941C429.418 160.828 429.801 160.714 430.178 160.593C431.481 160.23 432.73 159.679 433.888 158.956C434.942 158.257 434.868 158.017 434.684 157.42C434.595 157.132 434.48 156.761 434.454 156.216C434.437 155.87 434.668 155.326 434.9 154.778C435.066 154.385 435.233 153.989 435.311 153.663C435.559 152.608 436.688 152.378 437.627 152.187C437.87 152.138 438.101 152.091 438.3 152.033C438.678 151.625 438.96 151.077 439.241 150.533C439.451 150.124 439.661 149.717 439.91 149.373C440.724 148.205 442.322 147.384 443.642 146.998C444.455 146.761 445.333 146.636 446.21 146.51C448.584 146.172 450.952 145.834 452.015 143.281C452.449 142.242 452.444 140.858 452.438 139.453C452.427 136.698 452.416 133.859 455.712 133.359C455.914 133.336 456.069 133.247 456.214 133.163C456.431 133.038 456.626 132.925 456.923 133.064C456.666 133.552 456.749 133.696 456.854 133.879ZM443.246 178.64C443.066 179.414 443.08 180.223 443.288 180.989C445.523 179.808 445.278 177.084 443.362 175.695C443.386 175.979 443.418 176.223 443.448 176.445C443.545 177.19 443.611 177.689 443.246 178.64Z" fill="#CC7F31" fill-opacity="0.12"/>
<path fill-rule="evenodd" clip-rule="evenodd" d="M341.854 224.879C341.933 225.016 342.024 225.176 341.994 225.519C341.731 225.729 341.41 225.757 341.079 225.786C340.606 225.828 340.114 225.871 339.746 226.452C339.266 227.193 338.725 228.673 338.986 229.582C339.443 230.971 339.259 232.294 339.073 233.624C338.96 234.43 338.848 235.238 338.877 236.066C338.86 237.274 338.399 238.43 337.589 239.296C337.351 239.531 336.944 239.756 336.533 239.983C336 240.278 335.461 240.575 335.279 240.903C334.99 241.397 334.557 241.798 334.126 242.196C333.853 242.45 333.58 242.702 333.347 242.976C333.146 243.203 333.051 243.552 332.96 243.882C332.909 244.07 332.86 244.251 332.793 244.401C332.444 245.067 331.996 245.671 331.466 246.193C331.75 246.468 332.08 246.677 332.403 246.882C333.123 247.337 333.81 247.772 333.879 248.876C333.923 249.557 334.309 249.967 334.649 250.328C335.171 250.881 335.584 251.319 334.49 252.442C334.027 252.985 333.437 253.395 332.777 253.633C332.47 253.715 332.236 253.879 332.012 254.035C331.813 254.174 331.623 254.308 331.396 254.374C331.037 254.476 330.759 254.493 330.545 254.506C330.034 254.536 329.888 254.545 329.888 255.642C329.814 256.646 329.799 257.655 329.843 258.661C330.054 260.405 330.438 262.122 330.99 263.783C331.094 264.058 331.171 264.352 331.248 264.646C331.345 265.014 331.442 265.383 331.592 265.715C331.741 266.067 331.947 266.412 332.156 266.759C332.509 267.349 332.868 267.948 332.961 268.607C333.043 269.205 332.779 269.698 332.514 270.193C332.363 270.476 332.211 270.759 332.123 271.062C331.856 271.873 331.718 272.724 331.714 273.581C331.76 274.537 331.792 275.312 330.793 275.695C330.223 275.537 329.85 275.003 329.497 274.498C329.34 274.273 329.187 274.054 329.022 273.877C328.684 275.742 325.293 274.098 324.749 273.018C324.48 272.433 324.673 271.885 324.872 271.32C325.014 270.917 325.159 270.504 325.142 270.063C325.077 268.328 324.881 266.94 323.853 265.507C323.175 264.564 322.907 265.005 322.532 265.622C322.371 265.886 322.191 266.183 321.95 266.416C321.229 267.219 320.38 267.701 319.507 268.196C319.151 268.398 318.791 268.602 318.433 268.832C317.567 269.267 316.886 270.021 316.521 270.948C316.41 271.308 316.44 271.652 316.471 271.999C316.495 272.266 316.519 272.536 316.479 272.817C316.38 273.278 316.25 273.732 316.12 274.186C315.978 274.682 315.836 275.178 315.735 275.685C315.477 277.003 315.464 277.332 316.021 278.546C316.667 279.932 315.598 279.939 314.522 279.946C314.384 279.947 314.246 279.948 314.112 279.951C313.983 279.955 313.849 279.96 313.71 279.964C312.272 280.012 310.292 280.079 309.023 279.66C307.973 279.375 307.157 278.514 306.898 277.416C306.785 276.745 307.269 276.119 307.728 275.525C307.978 275.201 308.221 274.886 308.357 274.578C308.753 273.76 308.727 272.788 308.286 271.995C307.963 271.334 307.777 270.636 307.597 269.96C307.209 268.505 306.848 267.151 305.207 266.487C304.59 266.237 303.993 266.406 303.392 266.576C302.879 266.722 302.363 266.868 301.829 266.755C300.812 266.485 300.093 265.54 300.074 264.447C300.071 264.409 300.068 264.365 300.065 264.317C300.01 263.558 299.88 261.741 300.277 261.281C301.169 260.238 301.404 262.938 301.372 263.367C301.211 264.535 301.259 266.276 302.869 265.427C303.837 264.865 304.204 263.879 304.584 262.86C304.598 262.821 304.613 262.782 304.628 262.743C304.762 262.382 304.892 262.026 305.02 261.675C305.924 259.195 306.743 256.951 308.579 254.894C309.946 253.154 312.008 252.543 314.034 251.941C314.418 251.828 314.801 251.714 315.178 251.593C316.481 251.23 317.73 250.679 318.888 249.956C319.942 249.257 319.868 249.017 319.684 248.42C319.595 248.132 319.48 247.761 319.454 247.216C319.437 246.87 319.668 246.326 319.9 245.778C320.066 245.385 320.233 244.989 320.311 244.663C320.559 243.608 321.688 243.378 322.627 243.187C322.87 243.138 323.101 243.091 323.3 243.033C323.678 242.625 323.96 242.077 324.241 241.533C324.451 241.124 324.661 240.717 324.91 240.373C325.724 239.205 327.322 238.384 328.642 237.998C329.455 237.761 330.333 237.636 331.21 237.51C333.584 237.172 335.952 236.834 337.015 234.281C337.449 233.242 337.444 231.858 337.438 230.453C337.427 227.698 337.416 224.859 340.712 224.359C340.914 224.336 341.069 224.247 341.214 224.163C341.431 224.038 341.626 223.925 341.923 224.064C341.666 224.552 341.749 224.696 341.854 224.879ZM328.246 269.64C328.066 270.414 328.08 271.223 328.288 271.989C330.523 270.808 330.278 268.084 328.362 266.695C328.386 266.979 328.418 267.223 328.448 267.445C328.545 268.19 328.611 268.689 328.246 269.64Z" fill="#CC7F31" fill-opacity="0.12"/>
<path d="M100 115.762L447.05 99.999L422.642 132.14L449.863 161.935L102.813 177.698L131.522 145.362L100 115.762Z" fill="url(#paint1_linear_1218_31693)"/>
<path d="M210.259 135.037L211.168 150.361L213.274 150.236L213.645 156.483L211.738 156.596L211.473 152.128L199.587 152.833L199.852 157.302L197.946 157.415L197.575 151.168L198.885 151.09C199.411 150.057 199.89 148.906 200.324 147.636C200.764 146.357 201.143 145.028 201.461 143.647C201.785 142.258 202.031 140.87 202.2 139.483C202.375 138.095 202.461 136.767 202.456 135.5L210.259 135.037ZM208.388 136.944L204.317 137.185C204.304 138.157 204.212 139.246 204.042 140.454C203.87 141.653 203.63 142.888 203.322 144.159C203.022 145.429 202.672 146.651 202.272 147.825C201.88 148.999 201.453 150.046 200.991 150.965L209.191 150.479L208.388 136.944ZM221.238 138.447C222.837 138.352 224.144 138.826 225.161 139.869C226.178 140.913 226.752 142.538 226.883 144.745C226.969 146.203 226.824 147.441 226.446 148.457C226.068 149.473 225.496 150.258 224.731 150.813C223.973 151.366 223.056 151.675 221.98 151.739C221.301 151.779 220.699 151.725 220.174 151.576C219.649 151.427 219.194 151.212 218.809 150.929C218.424 150.647 218.101 150.333 217.838 149.989L217.697 149.997C217.739 150.3 217.788 150.665 217.844 151.092C217.909 151.519 217.951 151.892 217.97 152.212L218.282 157.476L216.328 157.592L215.227 139.038L216.83 138.943L217.2 140.823L217.293 140.818C217.52 140.413 217.803 140.04 218.143 139.699C218.482 139.35 218.903 139.067 219.407 138.849C219.918 138.623 220.528 138.489 221.238 138.447ZM220.996 140.105C220.107 140.158 219.4 140.372 218.874 140.747C218.356 141.122 217.993 141.66 217.784 142.362C217.575 143.055 217.493 143.917 217.538 144.947L217.561 145.321C217.625 146.405 217.796 147.315 218.075 148.05C218.361 148.784 218.789 149.33 219.358 149.687C219.934 150.045 220.687 150.196 221.615 150.141C222.41 150.093 223.061 149.839 223.565 149.379C224.07 148.919 224.429 148.299 224.641 147.519C224.86 146.731 224.94 145.838 224.881 144.84C224.791 143.327 224.424 142.144 223.778 141.29C223.14 140.428 222.213 140.033 220.996 140.105ZM227.873 138.288L229.955 138.164L233.228 145.437C233.417 145.864 233.595 146.276 233.759 146.673C233.923 147.062 234.07 147.437 234.201 147.797C234.332 148.157 234.439 148.507 234.522 148.846L234.604 148.841C234.69 148.445 234.815 147.925 234.981 147.281C235.146 146.63 235.325 145.966 235.52 145.289L237.758 137.701L239.852 137.577L235.145 152.613C234.895 153.418 234.589 154.125 234.226 154.734C233.87 155.342 233.421 155.818 232.878 156.164C232.336 156.517 231.667 156.717 230.871 156.764C230.505 156.786 230.18 156.782 229.896 156.751C229.613 156.729 229.368 156.697 229.162 156.654L229.07 155.098C229.244 155.127 229.453 155.15 229.696 155.167C229.948 155.183 230.206 155.183 230.471 155.168C230.955 155.139 231.366 155.021 231.706 154.813C232.054 154.612 232.347 154.329 232.583 153.962C232.82 153.596 233.017 153.166 233.176 152.671L233.771 150.828L227.873 138.288ZM249.678 136.994L249.776 138.644L243.951 138.989L244.614 150.161L242.66 150.277L241.899 137.456L249.678 136.994ZM254.089 136.732L254.567 144.792C254.576 144.948 254.584 145.151 254.591 145.401C254.598 145.644 254.602 145.906 254.603 146.187C254.603 146.461 254.603 146.727 254.603 146.986C254.61 147.236 254.611 147.443 254.605 147.608L260.955 136.325L263.342 136.183L264.103 149.005L262.29 149.112L261.823 141.251C261.808 141.001 261.793 140.681 261.778 140.291C261.762 139.901 261.751 139.518 261.745 139.143C261.738 138.759 261.732 138.462 261.727 138.251L255.399 149.521L253.001 149.663L252.24 136.842L254.089 136.732ZM281.006 135.135L281.767 147.956L280.012 148.06L279.517 139.708C279.496 139.365 279.483 139.017 279.478 138.665C279.48 138.305 279.486 137.945 279.496 137.584L279.426 137.589L275.789 148.311L274.14 148.409L269.366 138.186L269.295 138.19C269.34 138.547 269.377 138.905 269.406 139.263C269.443 139.613 269.472 139.983 269.495 140.373L269.987 148.655L268.22 148.76L267.46 135.939L270.068 135.784L274.831 146.02L278.409 135.289L281.006 135.135ZM298.39 146.97L296.495 147.082L295.776 134.963C295.748 134.503 295.725 134.109 295.706 133.782C295.694 133.446 295.683 133.141 295.675 132.868C295.674 132.586 295.676 132.3 295.683 132.01C295.456 132.274 295.242 132.502 295.042 132.694C294.842 132.878 294.594 133.108 294.297 133.384L292.436 135.067L291.34 133.806L295.761 129.963L297.375 129.867L298.39 146.97ZM315.662 137.34C315.745 138.728 315.713 139.974 315.567 141.079C315.422 142.183 315.145 143.127 314.738 143.91C314.33 144.694 313.779 145.305 313.086 145.746C312.391 146.178 311.541 146.424 310.535 146.484C309.264 146.559 308.19 146.275 307.315 145.63C306.447 144.985 305.767 144.02 305.276 142.734C304.793 141.44 304.496 139.865 304.385 138.009C304.277 136.184 304.367 134.606 304.656 133.274C304.952 131.934 305.493 130.888 306.278 130.137C307.062 129.378 308.133 128.959 309.49 128.878C310.777 128.802 311.858 129.09 312.735 129.742C313.61 130.387 314.29 131.356 314.774 132.65C315.257 133.936 315.553 135.5 315.662 137.34ZM306.339 137.893C306.433 139.484 306.633 140.803 306.938 141.849C307.242 142.895 307.68 143.668 308.249 144.166C308.826 144.656 309.555 144.875 310.436 144.823C311.318 144.771 312.012 144.467 312.519 143.913C313.034 143.358 313.381 142.543 313.56 141.468C313.746 140.392 313.792 139.055 313.697 137.457C313.604 135.889 313.406 134.586 313.101 133.548C312.797 132.501 312.359 131.729 311.79 131.231C311.22 130.724 310.486 130.498 309.589 130.551C308.693 130.604 307.991 130.916 307.485 131.486C306.978 132.048 306.636 132.867 306.457 133.942C306.285 135.009 306.246 136.326 306.339 137.893ZM318.028 140.217L317.926 138.485L323.728 138.141L323.831 139.872L318.028 140.217ZM339.942 131.638L340.702 144.459L338.948 144.563L338.452 136.211C338.432 135.868 338.419 135.52 338.414 135.168C338.416 134.808 338.422 134.448 338.432 134.087L338.361 134.091L334.725 144.814L333.075 144.912L328.301 134.688L328.231 134.692C328.276 135.05 328.312 135.408 328.341 135.766C328.378 136.116 328.408 136.486 328.431 136.876L328.922 145.158L327.156 145.263L326.395 132.442L329.004 132.287L333.767 142.523L337.345 131.792L339.942 131.638Z" fill="white"/>
<path d="M230.379 244.323L230.232 241.292L240.392 240.801L240.539 243.833L230.379 244.323ZM253.337 234.633C255.372 234.535 257.157 234.798 258.693 235.421C260.228 236.032 261.437 236.973 262.32 238.244C263.216 239.515 263.709 241.086 263.8 242.957C263.899 245.005 263.54 246.795 262.724 248.326C261.908 249.844 260.686 251.046 259.059 251.932C257.431 252.804 255.457 253.297 253.135 253.409C251.578 253.484 250.124 253.417 248.773 253.209C247.421 253 246.275 252.645 245.333 252.143L245.177 248.906C246.203 249.459 247.435 249.879 248.872 250.165C250.309 250.452 251.697 250.562 253.036 250.498C254.551 250.425 255.864 250.122 256.975 249.589C258.098 249.042 258.95 248.262 259.531 247.248C260.125 246.22 260.385 244.955 260.313 243.453C260.217 241.46 259.528 239.953 258.247 238.933C256.979 237.9 255.027 237.446 252.391 237.574C251.545 237.614 250.619 237.727 249.615 237.913C248.611 238.098 247.786 238.289 247.138 238.484L245.363 237.441L245.832 223.333L260.724 222.614L260.874 225.728L248.891 226.306L248.569 235.376C249.083 235.242 249.746 235.1 250.561 234.952C251.374 234.789 252.3 234.683 253.337 234.633ZM287.828 236.274C287.945 238.704 287.866 240.885 287.589 242.814C287.313 244.744 286.81 246.39 286.082 247.753C285.354 249.116 284.379 250.176 283.156 250.933C281.933 251.676 280.44 252.091 278.679 252.176C276.453 252.283 274.58 251.764 273.06 250.62C271.554 249.474 270.383 247.772 269.549 245.512C268.727 243.239 268.238 240.477 268.081 237.227C267.927 234.031 268.115 231.271 268.647 228.946C269.191 226.606 270.157 224.787 271.545 223.488C272.933 222.176 274.814 221.462 277.191 221.347C279.444 221.239 281.331 221.763 282.851 222.922C284.371 224.067 285.542 225.776 286.363 228.05C287.184 230.31 287.672 233.051 287.828 236.274ZM271.502 237.062C271.637 239.848 271.96 242.159 272.473 243.996C272.986 245.832 273.736 247.192 274.723 248.075C275.723 248.944 276.995 249.341 278.538 249.267C280.081 249.192 281.302 248.675 282.2 247.715C283.112 246.754 283.734 245.334 284.068 243.456C284.415 241.578 284.522 239.239 284.386 236.44C284.254 233.695 283.932 231.411 283.419 229.588C282.906 227.751 282.156 226.391 281.169 225.508C280.181 224.611 278.902 224.201 277.332 224.277C275.761 224.352 274.528 224.884 273.631 225.872C272.734 226.846 272.118 228.272 271.784 230.149C271.464 232.013 271.37 234.317 271.502 237.062ZM308.308 219.886C310.356 219.788 311.946 220.532 313.076 222.12C314.22 223.694 314.863 225.969 315.007 228.946C315.151 231.923 314.751 234.269 313.807 235.985C312.863 237.687 311.332 238.589 309.215 238.691C307.249 238.786 305.7 238.032 304.569 236.431C303.45 234.815 302.819 232.518 302.676 229.541C302.532 226.564 302.919 224.239 303.838 222.566C304.756 220.879 306.246 219.986 308.308 219.886ZM308.425 222.324C307.319 222.377 306.535 222.997 306.072 224.183C305.608 225.355 305.432 227.095 305.544 229.403C305.655 231.711 305.998 233.439 306.574 234.589C307.15 235.738 307.99 236.286 309.097 236.233C310.244 236.177 311.069 235.549 311.572 234.347C312.075 233.146 312.271 231.391 312.16 229.084C312.049 226.789 311.686 225.075 311.07 223.942C310.468 222.807 309.586 222.268 308.425 222.324ZM327.297 219.401L312.13 250.15L309.139 250.295L324.306 219.545L327.297 219.401ZM327.056 231.013C329.091 230.915 330.681 231.659 331.825 233.247C332.968 234.82 333.612 237.096 333.756 240.073C333.899 243.036 333.498 245.375 332.555 247.091C331.61 248.793 330.08 249.695 327.963 249.797C325.983 249.892 324.434 249.139 323.316 247.537C322.198 245.921 321.567 243.631 321.424 240.668C321.281 237.691 321.661 235.366 322.566 233.694C323.484 232.007 324.981 231.113 327.056 231.013ZM327.175 233.471C326.069 233.525 325.284 234.137 324.82 235.309C324.357 236.482 324.181 238.222 324.292 240.529C324.404 242.837 324.747 244.566 325.323 245.715C325.898 246.851 326.738 247.392 327.844 247.339C328.991 247.283 329.817 246.669 330.322 245.495C330.826 244.307 331.021 242.545 330.908 240.21C330.798 237.916 330.435 236.209 329.819 235.089C329.217 233.954 328.336 233.415 327.175 233.471Z" fill="#333333"/>
<path fill-rule="evenodd" clip-rule="evenodd" d="M78.8537 204.879C78.9327 205.016 79.0244 205.176 78.994 205.519C78.7306 205.729 78.4095 205.757 78.0793 205.786C77.6061 205.828 77.1142 205.871 76.7462 206.452C76.2663 207.193 75.7253 208.673 75.9862 209.582C76.4434 210.971 76.2587 212.294 76.0729 213.624C75.9604 214.43 75.8475 215.238 75.8767 216.066C75.8597 217.274 75.3987 218.43 74.5885 219.296C74.3515 219.531 73.9441 219.756 73.5331 219.983C73.0002 220.278 72.4613 220.575 72.2795 220.903C71.9902 221.397 71.5566 221.798 71.1264 222.196C70.8526 222.45 70.5802 222.702 70.3472 222.976C70.1457 223.203 70.0505 223.552 69.9603 223.882C69.9092 224.07 69.8597 224.251 69.7933 224.401C69.4435 225.067 68.9958 225.671 68.4665 226.193C68.7499 226.468 69.0798 226.677 69.403 226.882C70.1227 227.337 70.8097 227.772 70.8786 228.876C70.9231 229.557 71.3093 229.967 71.6494 230.328C72.1709 230.881 72.5839 231.319 71.4905 232.442C71.0267 232.985 70.4368 233.395 69.7772 233.633C69.4698 233.715 69.2357 233.879 69.0117 234.035C68.8132 234.174 68.6225 234.308 68.3956 234.374C68.0374 234.476 67.7593 234.493 67.5453 234.506C67.0341 234.536 66.8885 234.545 66.8885 235.642C66.8138 236.646 66.7988 237.655 66.8434 238.661C67.0541 240.405 67.4383 242.122 67.9899 243.783C68.0941 244.058 68.1711 244.352 68.2482 244.646C68.3448 245.014 68.4415 245.383 68.5921 245.715C68.7413 246.067 68.9475 246.412 69.1555 246.759C69.5089 247.349 69.8675 247.948 69.9608 248.607C70.0428 249.205 69.7788 249.698 69.5138 250.193C69.3626 250.476 69.2112 250.759 69.1234 251.062C68.8562 251.873 68.7181 252.724 68.7145 253.581C68.7595 254.537 68.7917 255.312 67.7934 255.695C67.2227 255.537 66.8495 255.003 66.4966 254.498C66.3396 254.273 66.1867 254.054 66.0222 253.877C65.684 255.742 62.2929 254.098 61.7487 253.018C61.48 252.433 61.6728 251.885 61.8717 251.32C62.0138 250.917 62.159 250.504 62.1416 250.063C62.0772 248.328 61.8807 246.94 60.8534 245.507C60.175 244.564 59.9067 245.005 59.5318 245.622C59.3711 245.886 59.1908 246.183 58.9501 246.416C58.2295 247.219 57.3805 247.701 56.5069 248.196C56.1508 248.398 55.7907 248.602 55.4334 248.832C54.5672 249.267 53.8859 250.021 53.5205 250.948C53.4096 251.308 53.4403 251.652 53.4713 251.999C53.4952 252.266 53.5193 252.536 53.4787 252.817C53.3802 253.278 53.2502 253.732 53.1201 254.186C52.9779 254.682 52.8357 255.178 52.7347 255.685C52.4771 257.003 52.4642 257.332 53.0214 258.546C53.6665 259.932 52.5984 259.939 51.522 259.946C51.3842 259.947 51.2462 259.948 51.1116 259.951C50.9835 259.955 50.8491 259.96 50.7095 259.964C49.2715 260.012 47.2916 260.079 46.0234 259.66C44.9728 259.375 44.1566 258.514 43.8979 257.416C43.7854 256.745 44.2686 256.119 44.7275 255.525C44.9781 255.201 45.2214 254.886 45.3568 254.578C45.7534 253.76 45.7268 252.788 45.2859 251.995C44.9634 251.334 44.7774 250.636 44.5973 249.96C44.209 248.505 43.8482 247.151 42.2072 246.487C41.5904 246.237 40.9933 246.406 40.3922 246.576C39.879 246.722 39.3629 246.868 38.829 246.755C37.8119 246.485 37.0935 245.54 37.0738 244.447C37.0712 244.409 37.068 244.365 37.0646 244.317C37.0102 243.558 36.8799 241.741 37.2767 241.281C38.1688 240.238 38.4039 242.938 38.3717 243.367C38.2106 244.535 38.259 246.276 39.8692 245.427C40.837 244.865 41.2043 243.879 41.584 242.86C41.5985 242.821 41.613 242.782 41.6275 242.743C41.7622 242.382 41.892 242.026 42.0201 241.675C42.9243 239.195 43.7426 236.951 45.579 234.894C46.9462 233.154 49.0077 232.543 51.0344 231.941C51.4184 231.828 51.8011 231.714 52.1776 231.593C53.4814 231.23 54.7301 230.679 55.8875 229.956C56.9416 229.257 56.8678 229.017 56.6836 228.42C56.5948 228.132 56.4805 227.761 56.4543 227.216C56.4374 226.87 56.6676 226.326 56.8995 225.778C57.0658 225.385 57.233 224.989 57.311 224.663C57.559 223.608 58.6883 223.378 59.6266 223.187C59.87 223.138 60.1005 223.091 60.2995 223.033C60.6783 222.625 60.9605 222.077 61.2408 221.533C61.4515 221.124 61.661 220.717 61.9097 220.373C62.7245 219.205 64.3218 218.384 65.6422 217.998C66.4553 217.761 67.3332 217.636 68.2102 217.51C70.5842 217.172 72.9523 216.834 74.0153 214.281C74.4494 213.242 74.4439 211.858 74.4382 210.453C74.4272 207.698 74.4158 204.859 77.7123 204.359C77.914 204.336 78.0689 204.247 78.2143 204.163C78.431 204.038 78.6263 203.925 78.9232 204.064C78.6657 204.552 78.7485 204.696 78.8537 204.879ZM65.2461 249.64C65.0656 250.414 65.08 251.223 65.288 251.989C67.5229 250.808 67.2782 248.084 65.362 246.695C65.3864 246.979 65.4184 247.223 65.4475 247.445C65.5454 248.19 65.6109 248.689 65.2461 249.64Z" fill="#CC7F31" fill-opacity="0.12"/>
<path fill-rule="evenodd" clip-rule="evenodd" d="M523.854 26.8789C523.933 27.0163 524.024 27.1756 523.994 27.5195C523.731 27.7291 523.41 27.7573 523.079 27.7863C522.606 27.8279 522.114 27.8712 521.746 28.452C521.266 29.1933 520.725 30.6726 520.986 31.5817C521.443 32.9709 521.259 34.2938 521.073 35.6241C520.96 36.4298 520.848 37.2382 520.877 38.0658C520.86 39.2745 520.399 40.4305 519.589 41.296C519.351 41.5312 518.944 41.7562 518.533 41.9832C518 42.2775 517.461 42.5752 517.279 42.9028C516.99 43.3968 516.557 43.7981 516.126 44.1962C515.853 44.4497 515.58 44.7018 515.347 44.9758C515.146 45.2029 515.051 45.5516 514.96 45.8823C514.909 46.0696 514.86 46.2511 514.793 46.4015C514.444 47.067 513.996 47.6715 513.466 48.1927C513.75 48.4682 514.08 48.677 514.403 48.8816C515.123 49.3372 515.81 49.7721 515.879 50.8762C515.923 51.5569 516.309 51.9667 516.649 52.3276C517.171 52.881 517.584 53.3192 516.49 54.442C516.027 54.9852 515.437 55.3953 514.777 55.6328C514.47 55.7146 514.236 55.8785 514.012 56.0354C513.813 56.1744 513.623 56.3079 513.396 56.3741C513.037 56.4761 512.759 56.4927 512.545 56.5056C512.034 56.5362 511.888 56.5449 511.888 57.6421C511.814 58.6465 511.799 59.6547 511.843 60.661C512.054 62.4052 512.438 64.1218 512.99 65.7832C513.094 66.0584 513.171 66.3521 513.248 66.6458C513.345 67.0144 513.442 67.3831 513.592 67.7154C513.741 68.0671 513.947 68.4115 514.156 68.759C514.509 69.3492 514.868 69.9481 514.961 70.6069C515.043 71.2049 514.779 71.6983 514.514 72.1934C514.363 72.4759 514.211 72.7589 514.123 73.0623C513.856 73.8732 513.718 74.7241 513.714 75.5814C513.76 76.5375 513.792 77.3123 512.793 77.6947C512.223 77.5368 511.85 77.0028 511.497 76.4976C511.34 76.273 511.187 76.0542 511.022 75.8766C510.684 77.7417 507.293 76.098 506.749 75.0179C506.48 74.4328 506.673 73.8854 506.872 73.3204C507.014 72.9168 507.159 72.5043 507.142 72.0627C507.077 70.3284 506.881 68.9397 505.853 67.5074C505.175 66.5636 504.907 67.005 504.532 67.6217C504.371 67.8862 504.191 68.1829 503.95 68.4164C503.229 69.2195 502.38 69.7009 501.507 70.1962C501.151 70.3981 500.791 70.6023 500.433 70.8316C499.567 71.2675 498.886 72.0212 498.521 72.9482C498.41 73.308 498.44 73.6516 498.471 73.9986C498.495 74.2664 498.519 74.5361 498.479 74.8166C498.38 75.2781 498.25 75.7319 498.12 76.1858C497.978 76.682 497.836 77.1783 497.735 77.6847C497.477 79.0029 497.464 79.3317 498.021 80.546C498.667 81.9317 497.598 81.9387 496.522 81.9458C496.384 81.9467 496.246 81.9477 496.112 81.9515C495.983 81.9553 495.849 81.9598 495.71 81.9645C494.272 82.0125 492.292 82.0785 491.023 81.6596C489.973 81.3753 489.157 80.5136 488.898 79.4155C488.785 78.745 489.269 78.1194 489.728 77.5252C489.978 77.2007 490.221 76.8857 490.357 76.5777C490.753 75.7595 490.727 74.7881 490.286 73.9948C489.963 73.3336 489.777 72.6359 489.597 71.9604C489.209 70.5045 488.848 69.1514 487.207 68.4869C486.59 68.2371 485.993 68.4062 485.392 68.5765C484.879 68.7218 484.363 68.868 483.829 68.7552C482.812 68.4851 482.093 67.5405 482.074 66.4474C482.071 66.4086 482.068 66.3649 482.065 66.317C482.01 65.5585 481.88 63.7415 482.277 63.2808C483.169 62.2376 483.404 64.9379 483.372 65.3673C483.211 66.5346 483.259 68.2755 484.869 67.4269C485.837 66.8646 486.204 65.8791 486.584 64.86C486.598 64.8211 486.613 64.7823 486.628 64.7434C486.762 64.3824 486.892 64.0264 487.02 63.675C487.924 61.1953 488.743 58.9507 490.579 56.894C491.946 55.154 494.008 54.5426 496.034 53.9415C496.418 53.8276 496.801 53.7141 497.178 53.5933C498.481 53.2302 499.73 52.6793 500.888 51.9564C501.942 51.2568 501.868 51.0172 501.684 50.4197C501.595 50.1319 501.48 49.7611 501.454 49.2158C501.437 48.8699 501.668 48.326 501.9 47.7776C502.066 47.3846 502.233 46.9894 502.311 46.6631C502.559 45.6083 503.688 45.3784 504.627 45.1874C504.87 45.1378 505.101 45.0909 505.3 45.0329C505.678 44.6249 505.96 44.077 506.241 43.5326C506.451 43.1237 506.661 42.7168 506.91 42.3728C507.724 41.2055 509.322 40.3836 510.642 39.9979C511.455 39.7608 512.333 39.6355 513.21 39.5104C515.584 39.1715 517.952 38.8336 519.015 36.2812C519.449 35.2419 519.444 33.8583 519.438 32.4526C519.427 29.698 519.416 26.8586 522.712 26.3589C522.914 26.336 523.069 26.2466 523.214 26.1628C523.431 26.0378 523.626 25.9251 523.923 26.0637C523.666 26.5521 523.749 26.696 523.854 26.8789ZM510.246 71.6405C510.066 72.4139 510.08 73.2227 510.288 73.9886C512.523 72.8078 512.278 70.084 510.362 68.6953C510.386 68.9791 510.418 69.2228 510.448 69.4446C510.545 70.19 510.611 70.6891 510.246 71.6405Z" fill="#CC7F31" fill-opacity="0.12"/>
<defs>
<filter id="filter0_d_1218_31693" x="0" y="0" width="570" height="312" filterUnits="userSpaceOnUse" color-interpolation-filters="sRGB">
<feFlood flood-opacity="0" result="BackgroundImageFix"/>
<feColorMatrix in="SourceAlpha" type="matrix" values="0 0 0 0 0 0 0 0 0 0 0 0 0 0 0 0 0 0 127 0" result="hardAlpha"/>
<feMorphology radius="7" operator="dilate" in="SourceAlpha" result="effect1_dropShadow_1218_31693"/>
<feOffset dx="3" dy="3"/>
<feGaussianBlur stdDeviation="6"/>
<feComposite in2="hardAlpha" operator="out"/>
<feColorMatrix type="matrix" values="0 0 0 0 0.320833 0 0 0 0 0.320833 0 0 0 0 0.320833 0 0 0 0.12 0"/>
<feBlend mode="normal" in2="BackgroundImageFix" result="effect1_dropShadow_1218_31693"/>
<feBlend mode="normal" in="SourceGraphic" in2="effect1_dropShadow_1218_31693" result="shape"/>
</filter>
<linearGradient id="paint0_linear_1218_31693" x1="301" y1="16" x2="16" y2="86.5" gradientUnits="userSpaceOnUse">
<stop stop-color="#BD462B"/>
<stop offset="1" stop-color="#E45332"/>
</linearGradient>
<linearGradient id="paint1_linear_1218_31693" x1="444.551" y1="100.005" x2="170.07" y2="226.465" gradientUnits="userSpaceOnUse">
<stop stop-color="#C0472C"/>
<stop offset="0.947683" stop-color="#E45433"/>
</linearGradient>
</defs>
</svg>
