<svg width="556" height="302" viewBox="0 0 556 302" fill="none" xmlns="http://www.w3.org/2000/svg">
<path d="M470.711 300.716C470.711 300.716 530.189 305.823 548.508 267.689C575.744 210.989 522.808 165.286 484.407 173.514C400.729 191.442 420.878 -6.34392 286.587 34.0222C248.827 45.372 146.801 -22.0534 118.346 86.0589C111.579 111.767 87.6062 114.599 52.8067 130.912C-15.3017 162.838 15.8404 301.255 64.507 301.798C113.172 302.342 470.711 300.716 470.711 300.716Z" fill="#FFF8EA"/>
<path d="M545.545 302.001H22.838C22.5814 302.001 22.3717 301.771 22.3717 301.49C22.3717 301.21 22.5814 300.98 22.838 300.98H545.545C545.802 300.98 546.011 301.21 546.011 301.49C546.013 301.771 545.802 302.001 545.545 302.001Z" fill="#CC7F31"/>
<path opacity="0.5" d="M215.321 116.581L208.46 116.408C210.665 119.536 211.159 122.419 209.788 124.856C208.415 127.345 205.132 129.389 200.228 130.939C203.939 120.127 205.806 108.722 205.806 97.0225C205.806 83.9189 203.466 71.2082 198.833 59.2623C194.378 47.7094 187.99 37.3161 179.847 28.424C171.703 19.5074 162.234 12.5133 151.683 7.61087C140.75 2.56226 129.142 0 117.197 0C105.23 0 93.6211 2.56226 82.6886 7.61087C81.3834 8.22581 80.0799 8.86733 78.8197 9.53162C78.8162 9.53352 78.8128 9.53542 78.8076 9.53732C74.9958 8.26378 71.2847 7.21989 67.7035 6.42464C49.6242 2.40663 36.7937 5.18336 31.5831 14.2424C26.6239 22.8573 29.3227 35.8261 39.1649 50.953C39.1632 50.9549 39.1632 50.9587 39.1615 50.9606C37.8337 53.6462 36.6429 56.404 35.5404 59.2604C34.7084 61.4032 33.9665 63.5461 33.2905 65.7382C14.7987 66.9453 4.90102 70.5078 1.3025 76.9609C-2.8819 84.4731 2.83135 94.5551 21.1203 104.358C23.6407 105.713 26.3396 107.044 29.1737 108.372C30.1184 117.462 32.2556 126.304 35.5404 134.777C39.9952 146.328 46.3828 156.723 54.5262 165.64C62.6697 174.532 72.1392 181.528 82.6903 186.428C93.6228 191.477 105.231 194.039 117.199 194.039C129.143 194.039 140.752 191.477 151.684 186.428C162.236 181.526 171.705 174.532 179.849 165.64C187.767 156.97 194.043 146.871 198.476 135.688C207.496 133.644 213.435 130.442 215.797 126.206C217.434 123.281 217.233 120.03 215.321 116.581ZM194.153 132.469C188.146 133.651 180.655 134.34 171.904 134.439C158.327 134.621 142.731 133.447 126.297 131.074C127.68 127.777 129.036 124.391 130.359 120.927C135.458 122.795 140.407 124.276 145.127 125.323C150.535 126.525 155.468 127.119 159.873 127.119C170.197 127.119 177.595 123.854 181.247 117.505C181.849 116.46 182.339 115.351 182.717 114.178H177.455C177.368 114.353 177.274 114.528 177.177 114.696C174.465 119.413 168.4 121.85 159.885 121.848C155.813 121.848 151.177 121.292 146.082 120.159C141.641 119.172 136.984 117.786 132.182 116.042C133.449 112.571 134.682 109.033 135.871 105.44C139.079 95.7547 141.825 86.1528 144.047 76.9325C154.172 78.5666 165.04 79.3884 176.588 79.3884C183.778 79.3884 191.232 79.0715 198.933 78.4357C200.077 84.5054 200.654 90.7174 200.654 97.0244C200.653 109.316 198.47 121.237 194.153 132.469ZM84.5017 180.568C81.9415 179.55 80.6432 175.528 80.0036 172.332C78.993 167.282 78.811 160.189 79.4749 151.819C79.8112 147.586 80.352 143.084 81.0783 138.377C91.5705 141.439 101.96 145.377 112.077 150.122C109.797 154.425 107.493 158.414 105.19 162.03C100.799 168.92 96.5072 174.236 92.7752 177.404C90.4143 179.41 87.062 181.585 84.5017 180.568ZM114.396 145.618C103.807 140.621 92.9191 136.493 81.9225 133.304C82.3107 131.12 82.7354 128.895 83.1965 126.638C86.2542 127.4 89.3552 128.136 92.4961 128.846C101.685 130.903 110.851 132.651 119.825 134.063C118.046 138.093 116.233 141.951 114.396 145.618ZM94.5207 125.202C90.9708 124.403 87.471 123.566 84.0337 122.698C85.6527 115.323 87.6409 107.634 89.9619 99.7992C102.03 107.923 114.302 114.529 125.923 119.217C124.465 123.029 122.967 126.745 121.439 130.34C112.61 128.956 103.581 127.236 94.5207 125.202ZM65.0462 25.6473C65.8141 27.3726 66.8766 29.5097 68.3084 31.9334C74.41 42.2565 82.4667 49.7402 88.1523 54.2004C91.4162 56.7608 94.9003 59.1352 98.5925 61.3178C95.2228 69.3595 92.0125 77.9403 89.0606 86.8513C88.5111 88.512 87.9755 90.1708 87.452 91.8259C69.8217 79.2613 54.8972 64.8424 45.1053 50.8885C45.1035 50.8866 45.1018 50.8847 45.1018 50.8828C47.5528 46.303 50.3644 41.9718 53.5122 37.9082C54.8174 36.2323 56.166 34.6076 57.5839 33.0304C57.7867 32.8084 57.967 32.611 58.1681 32.3908C60.3574 29.9956 62.6541 27.7484 65.0462 25.6473ZM140.43 11.7238C142.99 12.7411 144.288 16.7629 144.928 19.9591C145.938 25.0096 146.12 32.1023 145.456 40.4724C144.728 49.6339 143.054 60.0386 140.56 71.119C137.549 70.5515 134.607 69.91 131.742 69.1887C121.846 66.6967 112.824 63.2879 104.767 59.0061C109.573 48.0282 114.658 38.2385 119.742 30.2594C124.132 23.3697 128.424 18.0535 132.156 14.8858C134.103 13.2327 136.724 11.4638 139.019 11.4638C139.507 11.4657 139.981 11.5454 140.43 11.7238ZM130.369 74.1159C133.302 74.8618 136.313 75.5223 139.393 76.1106C137.23 85.0254 134.564 94.3122 131.458 103.688C130.26 107.302 129.02 110.859 127.746 114.347C116.081 109.657 103.699 102.95 91.5254 94.6633C92.1547 92.6496 92.8029 90.6301 93.4738 88.605C96.3599 79.8952 99.4904 71.5099 102.773 63.6599C111.049 68.0499 120.275 71.5498 130.369 74.1159ZM176.2 32.3927C183.87 40.7912 189.899 50.5696 194.106 61.4583C195.605 65.3472 196.85 69.3235 197.838 73.3681C178.599 74.9092 160.969 74.4252 145.209 71.9275C147.71 60.7389 149.393 50.2147 150.131 40.9184C150.946 30.6523 150.847 18.4939 147.046 11.6498C147.926 12.0199 148.805 12.4071 149.677 12.8113C159.622 17.4158 168.552 23.9923 176.2 32.3927ZM117.195 5.618C122.978 5.618 128.663 6.25572 134.222 7.51977C127.665 10.6457 120.971 19.3441 115.89 27.3194C110.69 35.4826 105.495 45.4735 100.591 56.6564C97.282 54.6882 94.1515 52.5606 91.2117 50.2773C81.4579 42.7006 75.6129 34.7652 72.4287 29.4433C70.7386 26.6172 69.5981 24.2106 68.8718 22.4834C72.2952 19.8167 75.8955 17.4348 79.6604 15.3565C79.6621 15.3565 79.6621 15.3565 79.6639 15.3584C81.1962 14.5119 82.7597 13.7186 84.344 12.9764C84.4584 12.9233 84.5728 12.8664 84.6889 12.8132C84.715 12.7999 84.7427 12.7885 84.7687 12.7772C85.1067 12.6196 85.4464 12.4678 85.7879 12.3178C85.8798 12.278 85.9717 12.2381 86.0618 12.1983C95.9369 7.83484 106.42 5.618 117.195 5.618ZM35.6514 17.0552C38.3641 12.3387 44.4292 9.90363 52.9436 9.90363C57.0154 9.90363 61.6522 10.4597 66.7466 11.5928C68.6811 12.0218 70.6572 12.5266 72.6662 13.1074C72.6679 13.1074 72.6696 13.1093 72.6714 13.1093C66.0602 17.2962 59.9881 22.4189 54.5228 28.4259C53.3753 29.6577 52.2728 30.9389 51.1929 32.2674C49.8426 33.894 48.5616 35.5927 47.324 37.3161C45.3445 40.0738 43.5227 42.9568 41.8344 45.912C41.8326 45.9139 41.8309 45.9177 41.8309 45.9196C34.308 33.6909 32.0459 23.3185 35.6514 17.0552ZM40.2622 61.4564C41.0041 59.585 41.7685 57.7364 42.6022 55.939C42.6022 55.9371 42.604 55.9352 42.604 55.9352C52.9142 70.0447 68.1108 84.4693 85.8659 96.9808C83.349 105.372 81.1996 113.616 79.4662 121.518C66.549 118.096 54.5765 114.224 44.086 110.079C41.8812 109.217 39.7439 108.331 37.6968 107.442C36.4816 106.924 35.2891 106.383 34.1208 105.842C33.9405 103.872 33.8053 101.878 33.7602 99.8808C33.7377 98.9205 33.7152 97.9848 33.7152 97.0244C33.7152 95.916 33.7377 94.7829 33.7602 93.6745C34.0532 85.3746 35.3341 77.2703 37.5841 69.4374C37.9672 68.1069 38.371 66.8011 38.8217 65.4972C39.2724 64.142 39.7439 62.7869 40.2622 61.4564ZM25.2129 101.458C9.26396 92.9362 1.97506 84.7084 5.2373 78.8722C7.86858 74.1424 17.4525 70.9406 32.1187 69.7581C30.3194 76.4086 29.217 83.2812 28.7889 90.2505C28.6537 92.3193 28.5861 94.3881 28.5635 96.4816V97.0244C28.5635 99.1179 28.6311 101.211 28.7438 103.28C27.5287 102.69 26.3604 102.073 25.2129 101.458ZM37.3154 111.925C39.4752 112.812 41.6801 113.698 43.9508 114.562C54.3945 118.525 66.1035 122.207 78.6255 125.475C78.1714 127.698 77.7519 129.886 77.3654 132.042C76.3427 131.771 75.3182 131.505 74.2938 131.249C56.9807 126.935 43.9872 126.056 37.9654 125.908C36.473 120.988 35.3775 115.955 34.6824 110.819C35.5595 111.187 36.4383 111.557 37.3154 111.925ZM40.2622 132.592C40.075 132.103 39.8912 131.613 39.711 131.121C46.1349 131.404 58.0415 132.471 73.2538 136.261C74.3423 136.533 75.4292 136.817 76.5178 137.108C75.7343 142.107 75.157 146.886 74.8 151.375C74.1239 159.883 74.0771 169.692 76.2439 176.698C69.6466 172.632 63.5988 167.601 58.1698 161.656C50.4978 153.258 44.4691 143.479 40.2622 132.592ZM149.679 181.239C139.376 186.018 128.466 188.431 117.195 188.431C108.513 188.431 100.031 186.996 91.8843 184.155C98.0586 180.611 104.262 172.473 109.041 164.974C111.506 161.106 113.968 156.826 116.4 152.204C130.418 159.155 143.895 167.694 156.557 177.643C154.323 178.949 152.029 180.15 149.679 181.239ZM176.2 161.656C171.586 166.722 166.505 171.125 161.017 174.832C147.717 164.188 133.506 155.078 118.702 147.704C120.737 143.622 122.742 139.307 124.701 134.805C138.252 136.772 151.279 137.952 163.173 138.256C166.278 138.355 169.292 138.355 172.216 138.33C179.797 138.231 186.546 137.74 192.327 136.851C188.28 146.04 182.859 154.366 176.2 161.656Z" fill="#C74A2E"/>
<path d="M384.815 104.534C384.815 104.534 401.502 122.517 402.267 129.297C403.031 136.076 394.697 146.686 394.697 146.686L384.815 104.534Z" fill="#A0301D"/>
<path d="M378.793 291.308C378.793 291.308 378.252 300.868 376.562 301.005C376.337 301.024 367.996 301.024 367.996 301.024L357.346 300.956C357.346 300.956 357.415 298.147 360.528 297.553C363.641 296.959 368.852 294.563 370.738 290.058C372.721 285.318 378.793 291.308 378.793 291.308Z" fill="#163560"/>
<path d="M402.513 291.308C402.513 291.308 401.972 300.868 400.282 301.005C400.057 301.024 391.715 301.024 391.715 301.024L381.066 300.956C381.066 300.956 381.135 298.147 384.248 297.553C387.361 296.959 392.572 294.563 394.458 290.058C396.441 285.318 402.513 291.308 402.513 291.308Z" fill="#163560"/>
<path d="M366.997 188.567C366.997 188.567 369.783 208.072 380.173 242.697C390.563 277.322 391.979 292.316 391.979 292.316L403.125 291.974C403.125 291.974 403.22 254.132 398.431 236.72C393.643 219.308 397.398 173.949 397.398 173.949L366.997 188.567Z" fill="#163560"/>
<path d="M361.574 175.018C361.574 175.018 361.179 204.412 365.824 240.502C370.47 276.592 368.894 291.912 368.894 291.912L380.019 292.317C380.019 292.317 386.666 256.213 384.761 238.15C382.855 220.087 393.865 176.164 393.865 176.164L361.574 175.018Z" fill="#1C468A"/>
<path d="M383.109 106.234L377.862 110.489L370.279 108.741C370.384 107.984 370.884 104.846 371.34 102.003C371.367 101.836 371.395 101.667 371.421 101.504C371.811 99.086 372.149 97.0077 372.149 97.0077L379.232 93.1434L381.872 91.7029C381.865 91.7541 381.667 94.3866 381.639 94.7719C381.144 101.597 383.109 106.234 383.109 106.234Z" fill="#F6AEA6"/>
<path d="M370.809 104.09C370.976 104.015 381.124 100.735 382.227 101.133C383.329 101.532 383.983 103.868 383.983 103.868L367.382 107.978C367.382 107.976 368.689 105.068 370.809 104.09Z" fill="#A0301D"/>
<path d="M398.138 178.646C396.418 187.238 367.788 188.257 360.409 180.458C359.57 179.57 359.528 175.432 359.845 169.856C360.464 158.96 362.452 142.569 362.53 134.195C362.569 130.151 363.077 126.015 363.753 122.259C365.191 114.253 367.384 107.973 367.384 107.973C367.384 107.973 381.367 103.023 383.985 103.866C396.588 107.918 399.859 170.052 398.138 178.646Z" fill="#C74A2E"/>
<path d="M359.844 169.857C360.463 158.961 362.451 142.57 362.529 134.196C362.567 130.151 363.075 126.016 363.751 122.26L372.163 120.635C372.163 120.635 380.388 157.416 359.844 169.857Z" fill="#A0301D"/>
<path d="M364.399 154.667C364.399 154.667 364.973 156.168 363.768 157.176C362.563 158.184 361.783 159.816 362.059 161.008C362.334 162.2 364.976 164.147 365.891 163.834C366.807 163.521 368.67 161.949 368.471 161.319C368.27 160.691 369.724 155.798 367.491 153.913C365.259 152.03 364.399 154.667 364.399 154.667Z" fill="#F6AEA6"/>
<path d="M373.789 106.071C373.789 106.071 365.602 107.455 359.065 118.002C352.529 128.549 348.228 136.391 349.433 140.193C350.638 143.995 361.613 157.18 363.506 157.18C365.399 157.18 368.452 155.673 368.625 152.283C368.625 152.283 360.898 139.601 362.419 137.703C363.069 136.891 372.452 128.551 373.792 132.318C376.006 138.551 373.789 106.071 373.789 106.071Z" fill="#C74A2E"/>
<path d="M381.107 94.892C379.552 98.1508 373.756 100.969 371.34 102.004C371.367 101.837 371.395 101.668 371.421 101.505C371.811 99.0865 372.149 97.0082 372.149 97.0082L379.232 93.144C380.797 93.1174 381.75 93.5501 381.107 94.892Z" fill="#FCA56B"/>
<path d="M368.708 96.5515C368.708 96.5515 381.485 100.915 383.844 92.1614C386.203 83.408 389.441 78.0747 381.385 74.9183C373.326 71.762 370.833 74.5881 369.396 77.3003C367.959 80.0125 365.444 95.1906 368.708 96.5515Z" fill="#F6AEA6"/>
<path d="M371.4 76.7928C371.4 76.7928 372.137 87.3018 374.07 86.8273C376.001 86.3528 377.753 85.9979 377.446 89.1713C377.139 92.3447 374.439 96.0306 380.377 96.5355C386.316 97.0403 394.99 79.6758 393.381 76.417C388.743 67.0182 364.678 65.3366 371.4 76.7928Z" fill="#163560"/>
<path d="M461.563 172.847C461.563 172.847 456.662 174.225 453.547 173.198C450.432 172.171 445.071 173.858 444.206 175.101C443.343 176.345 443.66 176.84 445.201 177.269C446.742 177.698 452.2 180.247 455.789 178.772C459.377 177.297 464.055 177.242 464.055 177.242L461.563 172.847Z" fill="#F6AEA6"/>
<path d="M503.916 126.235C503.916 126.235 498.411 169.078 489.295 172.916C484.797 174.81 464.918 179.101 459.037 179.532C459.037 179.532 457.596 178.253 457.947 173.045C457.947 173.045 478.773 164.673 481.732 160.12C486.135 153.344 478.999 132.436 484.525 126.072C490.051 119.708 499.357 116.973 503.916 126.235Z" fill="#E58E13"/>
<path d="M503.212 291.396V281.975H516.643C517.005 281.975 517.301 281.65 517.301 281.254V279.758C517.301 279.361 517.005 279.037 516.643 279.037H503.212V225.863C503.212 224.371 502.098 223.151 500.735 223.151H498.078C496.716 223.151 495.601 224.371 495.601 225.863V279.037H482.171C481.808 279.037 481.512 279.361 481.512 279.758V281.254C481.512 281.65 481.808 281.975 482.171 281.975H495.601V291.396C485.882 292.201 478.097 296.033 475.913 300.983H522.902C520.716 296.033 512.932 292.201 503.212 291.396Z" fill="#699DEE"/>
<path d="M502.061 216.495C500.456 219.478 498.598 222.272 496.684 224.92C490.767 233.098 484.327 239.842 483.204 246.217C482.98 247.487 482.627 248.855 482.164 250.298C481.696 251.757 481.117 253.293 480.448 254.879C477.938 260.85 474.182 267.543 470.434 273.626C463.953 284.14 457.858 292.915 457.858 292.915L446.683 292.393C447.13 291.167 452.005 276.647 458.526 258.905C461.174 251.702 463.989 244.04 466.705 236.653C467.068 235.666 467.43 234.683 467.787 233.709C468.617 231.449 469.436 229.222 470.233 227.055C476.355 210.395 481.233 197.13 481.233 197.13C481.233 197.13 505.705 186.979 508.246 193.556C510.34 198.98 508.633 204.293 502.061 216.495Z" fill="#163560"/>
<path d="M457.508 290.694C457.508 290.694 456.96 300.84 455.177 300.985C454.939 301.004 434.766 300.985 434.766 300.985C434.766 300.985 434.927 297.916 438.215 297.289C441.504 296.661 447.007 294.131 448.999 289.373C451.095 284.368 457.508 290.694 457.508 290.694Z" fill="#163560"/>
<path d="M483.388 261.846C483.388 261.846 491.162 267.316 490.406 269.093C490.305 269.33 486.01 277.753 486.01 277.753L480.47 288.473C480.47 288.473 478.139 286.957 479.243 283.506C480.347 280.056 481.011 273.561 478.187 269.338C475.215 264.893 483.388 261.846 483.388 261.846Z" fill="#163560"/>
<path d="M473.064 192.201C473.064 192.201 442.154 213.267 438.723 227.346C435.295 241.425 479.583 271.461 479.583 271.461C479.583 271.461 484.44 266.767 485.298 263.326C485.298 263.326 465.279 237.064 460.937 231.178C458.269 227.562 500.371 218.663 505.514 209.902C510.657 201.141 508.817 193.771 508.817 193.771L473.064 192.201Z" fill="#1C468A"/>
<path d="M530.839 219.221H467.974C466.718 219.221 465.688 220.349 465.688 221.725V235.491C465.688 236.867 466.716 237.994 467.974 237.994H530.839C532.096 237.994 533.126 236.869 533.126 235.491V221.725C533.126 220.347 532.096 219.221 530.839 219.221Z" fill="#CC7F31"/>
<path d="M501.95 118.151C501.95 118.151 489.753 125.618 482.393 123.534C482.393 123.534 484.057 120.937 487.073 118.891C486.912 118.107 486.771 117.369 486.65 116.682C485.946 112.747 485.819 110.458 485.819 110.458L491.439 104.945C492.994 105.305 494.447 105.643 495.218 105.822C495.291 106.228 495.37 106.623 495.461 107.01C497.215 114.666 501.95 118.151 501.95 118.151Z" fill="#F6AEA6"/>
<path d="M509.744 156.937C508.69 172.46 510.077 196.067 508.881 200.156C507.848 203.684 496.09 201.587 491.396 200.41C489.659 199.973 487.555 199.351 485.383 198.615C479.321 196.559 472.715 193.625 472.006 191.446C471.98 191.36 471.956 191.277 471.942 191.195C471.942 191.193 471.942 191.192 471.942 191.192C471.93 191.137 471.921 191.081 471.914 191.028C471.883 190.772 471.902 190.529 471.954 190.282C472.19 189.172 473.1 187.971 473.207 185.221C473.327 182.152 473.31 178.536 473.415 174.649C473.421 174.21 473.426 173.732 473.469 173.297L473.471 173.138C473.473 173.055 473.474 172.973 473.476 172.889C473.578 168.554 473.786 163.996 474.026 159.476C474.178 156.637 474.355 153.824 474.558 151.131C475.086 144.177 475.799 137.993 476.742 134.085C478.283 127.712 481.68 123.555 484.774 120.509L487.01 118.408C489.507 119.006 492.459 118.609 495.128 117.224C498.016 115.722 499.014 114.646 499.517 115.052C506.189 120.689 510.988 137.961 509.744 156.937Z" fill="#CC7F31"/>
<path d="M485.383 198.613C479.321 196.557 472.715 193.623 472.006 191.444C471.98 191.359 471.956 191.275 471.942 191.194C471.942 191.192 471.942 191.19 471.942 191.19C471.942 191.137 471.932 191.082 471.914 191.027C471.883 190.771 471.902 190.528 471.954 190.281C472.19 189.171 473.1 187.969 473.207 185.219C473.327 182.15 473.31 178.534 473.415 174.647C473.421 174.209 473.426 173.731 473.469 173.296L473.471 173.136C473.473 173.053 473.474 172.971 473.476 172.888L496.374 161.517C496.374 161.517 497.693 181.723 485.383 198.613Z" fill="#E58E13"/>
<path d="M495.461 107.01C494.629 109.312 492.138 114.74 486.65 116.682C485.946 112.747 485.82 110.458 485.82 110.458L491.439 104.945C492.994 105.305 494.447 105.643 495.218 105.822C495.291 106.228 495.371 106.623 495.461 107.01Z" fill="#D68D5D"/>
<path d="M483.597 110.398C483.597 110.398 495.657 111.888 496.388 103.651C497.12 95.4133 499.168 90.0592 491.5 88.7591C483.831 87.4608 482.055 90.4444 481.2 93.1282C480.344 95.8119 480.479 109.798 483.597 110.398Z" fill="#F6AEA6"/>
<path d="M496.336 104.222C496.336 104.222 495.572 93.2877 484.594 92.1565C477.075 91.3802 481.268 84.2951 482.068 83.1658C482.068 83.1658 487.829 84.0312 493.734 85.0979C506.126 87.3394 497.553 102.519 496.336 104.222Z" fill="#2B478B"/>
<path d="M467.361 181.251L437.479 181.949L428.983 153.322L427.928 153.698L436.909 183.961L467.399 183.25L467.361 181.251Z" fill="#4A75CB"/>
<path d="M464.085 179.439C464.085 179.439 459.353 181.399 456.153 180.754C452.953 180.109 447.794 182.434 447.061 183.774C446.328 185.114 446.694 185.567 448.267 185.808C449.841 186.049 455.523 187.925 458.942 186.025C462.358 184.125 467.004 183.506 467.004 183.506L464.085 179.439Z" fill="#F6AEA6"/>
<path d="M501.486 127.996C501.486 127.996 500.328 171.243 491.654 176.157C487.374 178.583 468.049 185.248 462.247 186.385C462.247 186.385 460.687 185.288 460.51 180.069C460.51 180.069 480.368 169.233 482.85 164.352C486.544 157.084 477.347 137.167 482.197 130.175C487.049 123.181 496.024 119.339 501.486 127.996Z" fill="#CC7F31"/>
<path d="M174.307 131.709L162.054 291.243C162.054 291.243 160.769 300.913 167.339 300.93C178.141 300.959 221.103 300.93 221.103 300.93C221.103 300.93 212.974 298.916 213.073 294.388C213.189 289.049 227.394 130.198 227.394 130.198L174.307 131.709Z" fill="#D86713"/>
<path d="M224.589 298.044C222.464 298.052 181.431 298.192 170.911 298.044C166.327 297.982 165.524 293.582 165.486 290.733C165.467 289.369 165.625 288.359 165.625 288.359L165.943 284.212L166.756 273.644L167.474 264.306L168.396 252.307L169.173 242.179L177.88 128.819L230.966 127.31C230.966 127.31 224.983 193.788 220.752 242.179C220.278 247.571 219.829 252.741 219.413 257.566C219.278 259.107 219.15 260.612 219.023 262.079C218.632 266.657 218.273 270.861 217.961 274.574C217.796 276.531 217.644 278.349 217.507 280.013C216.966 286.539 216.65 290.707 216.645 291.498C216.643 291.959 216.678 292.39 216.749 292.789C217.618 297.877 223.792 298.044 224.589 298.044Z" fill="#EE9849"/>
<path d="M45.3826 44.8965L75.2315 176.175L79.3189 194.153L93.2207 255.298H351.492L300.253 44.8965H45.3826Z" fill="#CC7F31"/>
<path d="M45.3827 44.8965L41.2468 46.4073L87.7207 259.867L93.2208 255.3L45.3827 44.8965Z" fill="#EE9849"/>
<path d="M87.7207 259.866H344.405L351.492 255.299H93.2207L87.7207 259.866Z" fill="#D86713"/>
<path d="M233.436 298.104H177.86V300.997H233.436V298.104Z" fill="#F1A34F"/>
<path d="M338.981 216.528L297.073 47.6789H44.9701V44.8965H300.253L342.021 216.154L338.981 216.528Z" fill="#F1A34F"/>
<path d="M219.308 259.865L219.022 262.076L166.755 273.637L167.472 264.301L167.814 259.865H219.308Z" fill="#D86713"/>
<path opacity="0.4" d="M224.589 298.04C222.464 298.047 181.431 298.188 170.911 298.04C166.326 297.977 165.524 293.578 165.486 290.729L217.505 280.013C216.964 286.538 216.648 290.706 216.643 291.498C216.642 291.959 216.676 292.39 216.747 292.788C217.617 297.873 223.792 298.04 224.589 298.04Z" fill="#CC7F31"/>
<path opacity="0.4" d="M206.676 212.702L93.2208 255.297L79.319 194.15L206.676 212.702Z" fill="#D86713"/>
<path d="M45.3826 44.8965H300.253L341.607 213.995H82.517L45.3826 44.8965Z" fill="#699DEE"/>
<path d="M227.927 240.923C230.236 238.136 229.603 233.388 226.513 230.318C223.423 227.247 219.046 227.017 216.736 229.804C214.427 232.59 215.06 237.338 218.15 240.409C221.24 243.479 225.617 243.709 227.927 240.923Z" fill="#D86713"/>
<path d="M329.586 206.671H90.9499L63.9247 88.7894L61.8533 79.7494L60.0852 72.0398L55.9407 53.9597H291.137L295.688 72.0398L297.629 79.7494L299.905 88.7894L329.586 206.671Z" fill="#E9F3FE"/>
<path d="M295.688 72.0398H60.0852L55.9407 53.9597H291.137L295.688 72.0398Z" fill="#AFCDFB"/>
<path d="M67.2198 59.8665C66.0793 59.8665 65.3859 60.8781 65.6702 62.1269C65.9545 63.3758 67.1089 64.3874 68.2495 64.3874C69.39 64.3874 70.0834 63.3758 69.7991 62.1269C69.5148 60.8781 68.3604 59.8665 67.2198 59.8665Z" fill="#E9F3FE"/>
<path d="M74.0788 59.8665C72.9383 59.8665 72.2449 60.8781 72.5292 62.1269C72.8135 63.3758 73.9679 64.3874 75.1085 64.3874C76.249 64.3874 76.9424 63.3758 76.6581 62.1269C76.3721 60.8781 75.2177 59.8665 74.0788 59.8665Z" fill="#E9F3FE"/>
<path d="M84.0424 62.1269C83.7581 60.8781 82.6037 59.8665 81.4631 59.8665C80.3225 59.8665 79.6292 60.8781 79.9135 62.1269C80.1977 63.3758 81.3522 64.3874 82.4927 64.3874C83.6333 64.3874 84.3267 63.3739 84.0424 62.1269Z" fill="#E9F3FE"/>
<path d="M254.812 124.854C253.089 117.289 246.06 111.132 239.144 111.132C235.809 111.132 232.966 112.54 231.141 115.099C229.24 117.763 228.669 121.322 229.534 125.122C231.257 132.687 238.286 138.844 245.202 138.844C248.538 138.844 251.38 137.436 253.206 134.877C255.107 132.213 255.677 128.652 254.812 124.854ZM252.406 134.194C250.777 136.477 248.219 137.736 245.202 137.736C238.721 137.736 232.134 131.956 230.517 124.854C229.73 121.394 230.235 118.173 231.94 115.782C233.57 113.499 236.128 112.24 239.146 112.24C245.627 112.24 252.214 118.02 253.831 125.122C254.618 128.582 254.112 131.805 252.406 134.194Z" fill="#F1A34F"/>
<path d="M243.764 128.086L242.504 118.44L242.405 118.004H238.857L238.957 118.44L242.089 128.086H243.764Z" fill="#F1A34F"/>
<path d="M241.699 129.785L242.495 133.276H245.723L244.929 129.785H241.699Z" fill="#F1A34F"/>
<path d="M262.516 157.617C260.793 150.051 253.764 143.894 246.848 143.894C243.512 143.894 240.67 145.303 238.844 147.861C236.943 150.526 236.373 154.084 237.238 157.884C238.961 165.45 245.989 171.607 252.906 171.607C256.241 171.607 259.084 170.198 260.909 167.64C262.81 164.975 263.381 161.414 262.516 157.617ZM260.111 166.957C258.482 169.24 255.924 170.498 252.906 170.498C246.425 170.498 239.838 164.719 238.22 157.617C237.433 154.157 237.938 150.936 239.644 148.544C241.273 146.261 243.831 145.003 246.848 145.003C253.329 145.003 259.916 150.782 261.533 157.884C262.321 161.346 261.817 164.567 260.111 166.957Z" fill="#F1A34F"/>
<path d="M251.467 160.846L250.207 151.203L250.108 150.766H246.562L246.66 151.203L249.793 160.846H251.467Z" fill="#F1A34F"/>
<path d="M249.402 162.548L250.198 166.04H253.427L252.632 162.548H249.402Z" fill="#F1A34F"/>
<path d="M288.924 120.643C289.707 120.643 290.189 119.94 289.995 119.081C289.799 118.223 288.998 117.519 288.213 117.519H262.817C262.034 117.519 261.552 118.221 261.746 119.081C261.942 119.938 262.743 120.643 263.528 120.643H288.924Z" fill="#AFCDFB"/>
<path d="M285.781 98.4644C285.585 97.6065 284.784 96.9023 283.999 96.9023H258.603C257.82 96.9023 257.338 97.6046 257.532 98.4644C257.728 99.3223 258.529 100.026 259.314 100.026H284.71C285.493 100.025 285.975 99.3223 285.781 98.4644Z" fill="#AFCDFB"/>
<path d="M290.279 126.594C291.064 126.594 291.545 125.891 291.351 125.032C291.155 124.174 290.354 123.469 289.569 123.469H264.173C263.389 123.469 262.907 124.172 263.101 125.032C263.297 125.889 264.098 126.594 264.883 126.594H290.279Z" fill="#AFCDFB"/>
<path d="M292.703 130.983C292.507 130.125 291.706 129.421 290.921 129.421H265.525C264.741 129.421 264.259 130.123 264.454 130.983C264.649 131.841 265.45 132.545 266.235 132.545H291.631C292.417 132.543 292.898 131.841 292.703 130.983Z" fill="#AFCDFB"/>
<path d="M296.627 153.41C297.41 153.41 297.892 152.708 297.698 151.848C297.502 150.991 296.701 150.286 295.916 150.286H270.52C269.737 150.286 269.255 150.989 269.449 151.848C269.643 152.708 270.446 153.41 271.231 153.41H296.627Z" fill="#AFCDFB"/>
<path d="M297.982 159.362C298.766 159.362 299.248 158.659 299.054 157.8C298.859 156.94 298.057 156.238 297.272 156.238H271.876C271.092 156.238 270.61 156.94 270.805 157.8C271 158.657 271.801 159.362 272.587 159.362H297.982Z" fill="#AFCDFB"/>
<path d="M300.407 163.743C300.212 162.885 299.411 162.181 298.625 162.181H273.23C272.446 162.181 271.964 162.883 272.158 163.743C272.354 164.603 273.155 165.305 273.94 165.305H299.336C300.121 165.303 300.602 164.601 300.407 163.743Z" fill="#AFCDFB"/>
<path d="M284.712 91.8947L282.938 84.1111C282.613 82.6838 281.281 81.5146 279.978 81.5146H76.4241C75.1206 81.5146 74.3198 82.6819 74.6439 84.1111L76.4172 91.8947C76.7431 93.3219 78.0743 94.4892 79.3796 94.4892H282.932C284.235 94.4911 285.036 93.3219 284.712 91.8947Z" fill="#AFCDFB"/>
<path d="M220.72 81.5146L223.676 94.4892H79.3795C78.076 94.4892 76.743 93.3219 76.4171 91.8928L74.6439 84.1092C74.318 82.6819 75.1188 81.5146 76.4241 81.5146H220.72Z" fill="#CC7F31"/>
<path d="M246.641 85.616L246.868 86.6143H249.12L247.945 90.8639H249.136L250.288 86.4852L250.091 85.616H246.641Z" fill="#699DEE"/>
<path d="M252.788 85.5303C251.514 85.5303 250.923 86.7222 251.269 88.2444C251.619 89.7817 252.729 90.9585 254.01 90.9585C255.289 90.9585 255.873 89.7665 255.528 88.2444C255.176 86.707 254.053 85.5303 252.788 85.5303ZM253.786 89.9146C253.15 89.9146 252.569 89.2028 252.351 88.2425C252.129 87.2688 252.38 86.5704 253.011 86.5704C253.641 86.5704 254.23 87.2897 254.447 88.2425C254.665 89.2104 254.422 89.9146 253.786 89.9146Z" fill="#699DEE"/>
<path d="M261.806 89.5801C261.637 88.8305 261.035 88.2383 260.343 88.2383C259.645 88.2383 259.309 88.838 259.479 89.5801C259.648 90.3298 260.25 90.922 260.941 90.922C261.64 90.922 261.975 90.3147 261.806 89.5801ZM260.801 90.2406C260.527 90.2406 260.279 89.9332 260.2 89.5801C260.118 89.2195 260.2 88.9197 260.487 88.9197C260.761 88.9197 261.009 89.2271 261.089 89.5801C261.169 89.9332 261.087 90.2406 260.801 90.2406Z" fill="#699DEE"/>
<path d="M259.61 85.616L257.307 90.8639H258.121L260.425 85.616H259.61Z" fill="#699DEE"/>
<path d="M258.253 86.9031C258.083 86.1534 257.482 85.5613 256.79 85.5613C256.092 85.5613 255.757 86.161 255.925 86.9031C256.095 87.6528 256.697 88.245 257.388 88.245C258.087 88.2431 258.42 87.6377 258.253 86.9031ZM256.645 86.9031C256.563 86.5425 256.645 86.2427 256.932 86.2427C257.206 86.2427 257.454 86.5501 257.534 86.9031C257.614 87.2562 257.534 87.5636 257.246 87.5636C256.972 87.5617 256.724 87.2543 256.645 86.9031Z" fill="#699DEE"/>
<path d="M211.183 150.725C212.662 150.725 213.561 149.411 213.194 147.792C212.824 146.173 211.327 144.86 209.848 144.86H91.1578C89.6793 144.86 88.7796 146.173 89.1471 147.792C89.5163 149.411 91.014 150.725 92.4925 150.725H211.183Z" fill="#AFCDFB"/>
<path d="M213.4 160.465C214.878 160.465 215.778 159.151 215.411 157.532C215.043 155.913 213.544 154.6 212.065 154.6H93.373C91.8945 154.6 90.9948 155.913 91.3623 157.532C91.7298 159.151 93.2292 160.465 94.7078 160.465H213.4Z" fill="#AFCDFB"/>
<path d="M217.725 167.698C217.356 166.079 215.858 164.766 214.379 164.766H95.689C94.2104 164.766 93.3108 166.079 93.6782 167.698C94.0474 169.317 95.5451 170.631 97.0237 170.631H215.716C217.194 170.631 218.094 169.317 217.725 167.698Z" fill="#AFCDFB"/>
<path d="M146.233 134.908C146.696 136.942 148.578 138.593 150.438 138.593H163.676C165.534 138.593 166.666 136.944 166.202 134.908L159.802 106.806C159.339 104.772 157.457 103.12 155.597 103.12H142.359C140.501 103.12 139.369 104.77 139.833 106.806L146.233 134.908Z" fill="#AFCDFB"/>
<path d="M169.146 134.908C169.609 136.942 171.492 138.593 173.352 138.593H186.59C188.448 138.593 189.58 136.944 189.115 134.908L182.715 106.806C182.253 104.772 180.37 103.12 178.51 103.12H165.272C163.414 103.12 162.282 104.77 162.747 106.806L169.146 134.908Z" fill="#AFCDFB"/>
<path d="M191.632 134.908C192.095 136.942 193.977 138.593 195.837 138.593H209.075C210.933 138.593 212.065 136.944 211.601 134.908L205.201 106.806C204.738 104.772 202.856 103.12 200.996 103.12H187.758C185.9 103.12 184.768 104.77 185.232 106.806L191.632 134.908Z" fill="#AFCDFB"/>
<path d="M141.745 132.416L136.481 109.296C135.704 105.886 132.549 103.12 129.433 103.12H84.6143C81.4994 103.12 79.6031 105.886 80.3796 109.296L85.6439 132.416C86.4205 135.826 89.5753 138.592 92.6919 138.592H137.51C140.627 138.592 142.522 135.826 141.745 132.416Z" fill="#AFCDFB"/>
<path d="M128.868 111.99C129.573 111.99 130.008 111.358 129.831 110.583C129.655 109.811 128.934 109.177 128.228 109.177H86.3494C85.6439 109.177 85.2088 109.809 85.3856 110.583C85.5624 111.356 86.2835 111.99 86.989 111.99H128.868Z" fill="#FFF8EA"/>
<path d="M130.1 117.395C130.806 117.395 131.241 116.763 131.064 115.988C130.887 115.216 130.166 114.582 129.461 114.582H87.582C86.8765 114.582 86.4415 115.214 86.6183 115.988C86.7951 116.761 87.5162 117.395 88.2217 117.395H130.1Z" fill="#FFF8EA"/>
<path d="M132.295 121.397C132.118 120.624 131.397 119.99 130.691 119.99H88.8126C88.1071 119.99 87.6721 120.623 87.8489 121.397C88.0257 122.169 88.7468 122.803 89.4522 122.803H131.331C132.038 122.803 132.472 122.171 132.295 121.397Z" fill="#FFF8EA"/>
<path d="M100.073 126.051H90.1924C89.4869 126.051 89.0518 126.683 89.2286 127.457C89.4054 128.23 90.1265 128.864 90.832 128.864H100.712C101.418 128.864 101.853 128.232 101.676 127.457C101.499 126.685 100.778 126.051 100.073 126.051Z" fill="#FFF8EA"/>
<path d="M316.365 194.143L313.604 182.017C313.196 180.227 311.541 178.777 309.908 178.777H286.4C284.765 178.777 283.772 180.227 284.179 182.017L286.941 194.143C287.348 195.933 289.004 197.383 290.638 197.383H314.146C315.779 197.383 316.772 195.933 316.365 194.143Z" fill="#AFCDFB"/>
<path d="M309.612 183.429C309.983 183.429 310.21 183.097 310.118 182.691C310.026 182.285 309.646 181.955 309.277 181.955H287.312C286.941 181.955 286.714 182.287 286.806 182.691C286.897 183.097 287.277 183.429 287.646 183.429H309.612Z" fill="#FFF8EA"/>
<path d="M310.257 186.267C310.628 186.267 310.855 185.935 310.763 185.53C310.671 185.124 310.291 184.792 309.922 184.792H287.957C287.586 184.792 287.359 185.124 287.45 185.53C287.542 185.935 287.922 186.267 288.291 186.267H310.257Z" fill="#FFF8EA"/>
<path d="M311.408 188.363C311.316 187.957 310.936 187.625 310.567 187.625H288.601C288.23 187.625 288.003 187.957 288.095 188.363C288.187 188.769 288.567 189.099 288.936 189.099H310.901C311.272 189.099 311.501 188.769 311.408 188.363Z" fill="#FFF8EA"/>
<path d="M294.507 190.805H289.324C288.953 190.805 288.726 191.137 288.818 191.543C288.91 191.949 289.289 192.279 289.659 192.279H294.841C295.212 192.279 295.439 191.947 295.348 191.543C295.256 191.137 294.876 190.805 294.507 190.805Z" fill="#FFF8EA"/>
<path d="M153.348 185.266C153.907 185.266 154.246 184.77 154.106 184.159C153.967 183.548 153.402 183.052 152.844 183.052H108.076C107.518 183.052 107.178 183.548 107.318 184.159C107.457 184.77 108.022 185.266 108.58 185.266H153.348Z" fill="#CC7F31"/>
<path d="M154.184 188.934C154.742 188.934 155.082 188.438 154.942 187.827C154.803 187.216 154.238 186.721 153.68 186.721H108.911C108.353 186.721 108.013 187.216 108.154 187.827C108.293 188.438 108.858 188.934 109.416 188.934H154.184Z" fill="#CC7F31"/>
<path d="M154.553 190.557H109.783C109.225 190.557 108.885 191.052 109.026 191.663C109.164 192.274 109.729 192.77 110.288 192.77H155.058C155.616 192.77 155.955 192.274 155.815 191.663C155.675 191.052 155.111 190.557 154.553 190.557Z" fill="#CC7F31"/>
<path d="M211.126 185.266C211.684 185.266 212.024 184.77 211.883 184.159C211.745 183.548 211.179 183.052 210.621 183.052H165.851C165.293 183.052 164.953 183.548 165.094 184.159C165.232 184.77 165.798 185.266 166.356 185.266H211.126Z" fill="#CC7F31"/>
<path d="M211.961 188.934C212.519 188.934 212.859 188.438 212.719 187.827C212.58 187.216 212.015 186.721 211.457 186.721H166.687C166.129 186.721 165.789 187.216 165.929 187.827C166.068 188.438 166.633 188.934 167.191 188.934H211.961Z" fill="#CC7F31"/>
<path d="M212.331 190.557H167.561C167.002 190.557 166.663 191.052 166.803 191.663C166.942 192.274 167.507 192.77 168.065 192.77H212.835C213.393 192.77 213.733 192.274 213.592 191.663C213.452 191.052 212.889 190.557 212.331 190.557Z" fill="#CC7F31"/>
<path d="M267.125 185.266C267.683 185.266 268.022 184.77 267.882 184.159C267.743 183.548 267.178 183.052 266.62 183.052H221.85C221.292 183.052 220.952 183.548 221.093 184.159C221.231 184.77 221.796 185.266 222.355 185.266H267.125Z" fill="#CC7F31"/>
<path d="M267.96 188.934C268.518 188.934 268.858 188.438 268.718 187.827C268.579 187.216 268.014 186.721 267.456 186.721H222.686C222.128 186.721 221.788 187.216 221.928 187.827C222.067 188.438 222.632 188.934 223.19 188.934H267.96Z" fill="#CC7F31"/>
<path d="M269.591 191.663C269.453 191.052 268.888 190.557 268.329 190.557H223.559C223.001 190.557 222.662 191.052 222.802 191.663C222.941 192.274 223.506 192.77 224.064 192.77H268.834C269.39 192.768 269.73 192.274 269.591 191.663Z" fill="#CC7F31"/>
<path d="M278.253 199.05H105.606C104.08 199.05 102.532 197.697 102.153 196.034L98.7049 180.894C98.5091 180.032 98.6512 179.18 99.0949 178.557C99.5318 177.946 100.199 177.61 100.976 177.61H273.623C275.148 177.61 276.696 178.964 277.076 180.626L280.524 195.766C280.72 196.628 280.577 197.48 280.134 198.103C279.697 198.714 279.029 199.05 278.253 199.05ZM100.976 178.719C100.518 178.719 100.133 178.905 99.894 179.241C99.6392 179.598 99.5664 180.091 99.6878 180.626L103.135 195.766C103.404 196.945 104.534 197.941 105.606 197.941H278.253C278.711 197.941 279.095 197.755 279.335 197.419C279.589 197.063 279.662 196.569 279.541 196.034L276.093 180.894C275.824 179.715 274.693 178.719 273.623 178.719H100.976Z" fill="#CC7F31"/>
</svg>
