<svg width="288" height="216" viewBox="0 0 288 216" fill="none" xmlns="http://www.w3.org/2000/svg">
<path d="M263.152 163.014C224.602 210.634 146.122 223.309 88.9491 212.285C73.3383 209.275 41.9292 203.218 20.855 181.741C-19.6167 140.495 2.91211 67.7356 57.5421 30.0945C64.577 25.2473 113.019 -7.06494 176.387 1.40918C222.782 7.61377 251.177 32.2107 254.617 35.2631C258.963 39.1184 268.434 48.1732 275.888 61.5867C293.403 93.1037 287.242 133.257 263.152 163.014Z" fill="#FFF8EA"/>
<path opacity="0.45" d="M279.224 62.3815C278.763 62.0214 278.149 61.4895 277.737 61.7737C271.072 66.3685 254.96 80.1002 257.977 103.863C261.763 133.677 253.018 144.632 242.385 151.354C244.688 151.472 249.053 151.518 253.949 150.242C291.877 140.358 289.103 70.0867 279.224 62.3815Z" fill="#34C85A"/>
<path d="M273.937 71.7422C273.002 75.0718 272.155 78.4099 271.472 81.7626C270.766 85.1123 270.196 88.4729 269.767 91.838C269.354 95.2032 269.027 98.5715 268.892 101.941C268.736 105.309 268.775 108.673 268.83 112.05C268.859 115.426 268.915 118.826 268.502 122.254C268.095 125.675 267.134 129.129 265.361 132.375C264.918 133.184 264.453 133.99 263.93 134.77C263.427 135.557 262.876 136.329 262.308 137.093C261.162 138.618 259.881 140.093 258.462 141.496C255.614 144.295 252.212 146.784 248.488 148.897C248.096 149.119 247.548 149.069 247.264 148.785C246.985 148.506 247.064 148.105 247.438 147.881L247.441 147.879C248.328 147.346 249.207 146.808 250.052 146.242C250.48 145.964 250.892 145.672 251.31 145.387C251.714 145.09 252.133 144.805 252.525 144.5C254.117 143.299 255.599 142.019 256.95 140.667C259.667 137.976 261.873 134.983 263.574 131.885C264.402 130.329 265.077 128.734 265.586 127.111C266.094 125.488 266.437 123.837 266.653 122.174C267.087 118.847 267.071 115.48 267.074 112.103C267.082 108.726 267.123 105.331 267.351 101.937C267.459 100.24 267.608 98.5436 267.797 96.8486C267.886 96.0015 267.996 95.1544 268.104 94.3081C268.223 93.4618 268.348 92.6162 268.483 91.7715C269.028 88.3916 269.712 85.0217 270.536 81.669C271.382 78.3185 272.347 74.9827 273.481 71.6748C273.514 71.5804 273.641 71.5208 273.767 71.5409C273.887 71.5618 273.963 71.6508 273.937 71.7422Z" fill="url(#paint0_linear_1218_31122)"/>
<path opacity="0.55" d="M234.37 152.894C233.218 154.048 230.854 153.57 230.554 152.126C227.258 136.218 215.632 72.8196 229.926 30.6898C230.947 27.6816 235.841 26.7625 238.472 29.1002C255.093 43.878 296.204 90.8581 234.37 152.894Z" fill="#34C85A"/>
<path d="M238 50.1738C238.795 52.2048 239.406 54.2715 239.97 56.3467C240.522 58.4226 241.014 60.5094 241.429 62.6062C242.275 66.7968 242.868 71.0184 243.29 75.2485C243.707 79.4794 243.933 83.7226 244.004 87.9666C244.076 92.2114 243.946 96.4578 243.708 100.699L243.497 103.88L243.214 107.057L243.069 108.646L242.887 110.232L242.519 113.404C241.939 117.627 241.311 121.848 240.473 126.046C238.854 134.448 236.734 142.793 234.158 151.052C234.014 151.515 233.416 151.799 232.823 151.686C232.23 151.573 231.866 151.106 232.011 150.643C232.012 150.64 232.015 150.632 232.016 150.629C234.746 142.451 237.026 134.179 238.808 125.84C239.729 121.673 240.44 117.481 241.104 113.285L241.535 110.132L241.75 108.555L241.926 106.975L242.273 103.815L242.549 100.651C242.873 96.4291 243.089 92.2006 243.106 87.9697C243.123 83.7389 242.984 79.5072 242.655 75.2833C242.322 71.0594 241.817 66.8417 241.06 62.6496C240.688 60.5527 240.241 58.4644 239.732 56.3846C239.212 54.3079 238.643 52.2335 237.894 50.2009L237.893 50.1994C237.884 50.1761 237.902 50.1514 237.931 50.1444C237.959 50.1374 237.991 50.1506 238 50.1738Z" fill="#BDD0FB"/>
<path d="M19.8169 198.844C19.8169 200.782 21.8495 202.369 24.3343 202.369H268.618C271.103 202.369 273.136 200.783 273.136 198.844L275.168 89.2158C275.168 87.2777 272.244 83.4928 266.884 83.7778L28.1428 78.9538C25.0254 78.891 22.0111 79.828 19.804 81.5462C17.5968 83.2644 16.3881 85.6137 16.4625 88.0458L19.8169 198.844Z" fill="#C74A2E"/>
<path d="M24.2768 195.464C24.2768 197.3 26.2004 198.801 28.5504 198.801H262.728C265.078 198.801 267.001 197.299 267.001 195.464L268.92 95.9423C268.694 89.953 261.97 87.8012 257.895 87.9282L29.0828 83.1344C26.8925 83.0887 24.7756 83.7476 23.2238 84.9556C21.6731 86.1635 20.8193 87.8174 20.8749 89.5279L24.2768 195.464Z" fill="#FFF8EA"/>
<g opacity="0.63">
<path d="M264.471 148.184C264.468 148.184 264.465 148.184 264.462 148.184C264.116 148.18 263.839 147.958 263.845 147.687L263.997 139.617C264.002 139.349 264.281 139.135 264.622 139.135C264.625 139.135 264.628 139.135 264.631 139.135C264.977 139.139 265.254 139.361 265.248 139.631L265.096 147.702C265.091 147.969 264.812 148.184 264.471 148.184Z" fill="white"/>
<path d="M264.843 128.405C264.84 128.405 264.837 128.405 264.834 128.405C264.488 128.401 264.211 128.178 264.217 127.909L264.798 96.9966C264.787 95.1607 264.073 93.6942 262.676 92.6488C260.068 90.6983 255.929 90.7975 255.754 90.8036L182.621 89.272C182.275 89.2651 182.002 89.0405 182.012 88.7703C182.021 88.5001 182.287 88.2701 182.655 88.2949L255.744 89.8265C256.199 89.8056 260.607 89.7459 263.543 91.9427C265.194 93.1785 266.037 94.8804 266.05 97.0013L265.469 127.924C265.463 128.191 265.185 128.405 264.843 128.405Z" fill="white"/>
</g>
<path d="M0.56022 211.47H287.44C287.748 211.47 288 211.273 288 211.032V202.275C288 202.034 287.748 201.838 287.44 201.838H0.56022C0.251851 201.838 0 202.034 0 202.275V211.032C0 211.273 0.251851 211.47 0.56022 211.47Z" fill="#C74A2E"/>
<g opacity="0.64">
<path d="M20.1797 61.5085C19.8823 61.479 19.6324 61.2994 19.5818 61.0563C19.5223 60.7659 19.4678 60.4748 19.4192 60.1821C19.3696 59.8855 19.6384 59.6129 20.0181 59.5742C20.3959 59.5347 20.7459 59.7446 20.7965 60.0419C20.8431 60.3238 20.8956 60.6041 20.9531 60.8836C21.0136 61.1794 20.7568 61.4574 20.378 61.5046C20.3106 61.5139 20.2442 61.5147 20.1797 61.5085Z" fill="#91B3FA"/>
<path d="M19.7179 57.784C19.3857 57.7507 19.124 57.5339 19.1121 57.2644C19.0863 56.6659 19.0823 56.0596 19.1021 55.4618C19.1121 55.1622 19.4303 54.926 19.8141 54.9338C20.1998 54.9407 20.5002 55.1901 20.4903 55.4897C20.4715 56.0658 20.4754 56.6512 20.5002 57.2281C20.5131 57.5269 20.2137 57.7778 19.8299 57.7887C19.7923 57.7887 19.7546 57.7879 19.7179 57.784ZM19.9767 53.1443C19.5989 53.1064 19.3292 52.8377 19.3748 52.5419L19.4056 52.3468C19.4908 51.821 19.5959 51.2867 19.7179 50.7594C19.7863 50.4644 20.1413 50.2662 20.524 50.3219C20.9018 50.3746 21.1526 50.6564 21.0842 50.9514C20.9672 51.4609 20.8651 51.9759 20.7828 52.4838L20.7531 52.6712C20.7074 52.9685 20.3614 53.1807 19.9806 53.1443C19.9797 53.1443 19.9777 53.1443 19.9767 53.1443ZM21.1358 48.5898C21.1031 48.5867 21.0694 48.5813 21.0356 48.5743C20.6658 48.4938 20.4506 48.1949 20.5538 47.9061C20.76 47.3284 20.99 46.75 21.2389 46.1855C21.3638 45.9021 21.7585 45.7519 22.1214 45.8487C22.4843 45.9463 22.6776 46.2544 22.5527 46.5378C22.3137 47.0822 22.0916 47.6405 21.8923 48.198C21.7981 48.4605 21.4729 48.6238 21.1358 48.5898ZM23.1684 44.2273C23.101 44.2203 23.0336 44.2064 22.9691 44.1831C22.6201 44.0593 22.4654 43.7379 22.6241 43.4654C22.9404 42.9218 23.2815 42.3774 23.6394 41.847C23.8189 41.5822 24.2383 41.4808 24.5774 41.6202C24.9165 41.7595 25.0464 42.0878 24.868 42.3527C24.5229 42.8645 24.1927 43.3895 23.8883 43.9137C23.7584 44.1351 23.4619 44.2567 23.1684 44.2273ZM26.037 40.1613C25.9358 40.1513 25.8347 40.1234 25.7435 40.0762C25.4232 39.912 25.334 39.576 25.5442 39.3251C25.9656 38.8249 26.4108 38.3278 26.8699 37.8469C27.0989 37.6069 27.5332 37.5573 27.8416 37.7362C28.149 37.9151 28.2124 38.255 27.9834 38.495C27.5411 38.9588 27.1108 39.4381 26.7053 39.9205C26.5556 40.1002 26.2918 40.1861 26.037 40.1613ZM29.6789 36.4872C29.5431 36.4741 29.4102 36.4284 29.3011 36.3509C29.0166 36.1496 28.9957 35.8074 29.2525 35.5851C29.7681 35.1407 30.3056 34.7032 30.8519 34.2843C31.1256 34.0744 31.5648 34.0775 31.8335 34.2913C32.1022 34.505 32.0983 34.848 31.8246 35.0578C31.2981 35.462 30.7785 35.884 30.2818 36.3122C30.1241 36.45 29.897 36.5089 29.6789 36.4872ZM33.999 33.2947C33.8275 33.2777 33.6649 33.2111 33.5479 33.098C33.306 32.8657 33.3526 32.5243 33.65 32.3353C34.2459 31.9582 34.8627 31.5904 35.4854 31.242C35.7967 31.067 36.23 31.1227 36.4541 31.3659C36.6772 31.609 36.6068 31.9482 36.2945 32.1224C35.6946 32.4584 35.0997 32.8139 34.5246 33.1778C34.3709 33.2746 34.1805 33.3125 33.999 33.2947ZM38.8923 30.6551C38.6851 30.6342 38.4927 30.542 38.3797 30.3902C38.1863 30.1316 38.2984 29.7994 38.6295 29.6485C39.2919 29.3472 39.9731 29.0569 40.6553 28.7866C40.9964 28.6511 41.4148 28.7572 41.5883 29.0244C41.7618 29.2915 41.626 29.6175 41.2839 29.753C40.6255 30.0139 39.9681 30.2935 39.3296 30.5846C39.1917 30.6473 39.0381 30.669 38.8923 30.6551ZM44.2417 28.6287C43.9978 28.6047 43.7786 28.48 43.6824 28.2888C43.5426 28.01 43.7171 27.6956 44.0741 27.5857C44.786 27.3673 45.5158 27.1621 46.2436 26.9763C46.6085 26.8826 47.0001 27.0382 47.1191 27.3232C47.2381 27.6081 47.0398 27.914 46.6749 28.0069C45.9729 28.1865 45.2689 28.384 44.5818 28.5954C44.4707 28.6302 44.3537 28.6403 44.2417 28.6287ZM80.4577 31.9613C80.3496 31.9505 80.2435 31.9203 80.1483 31.8684C79.5425 31.5386 78.9159 31.218 78.2852 30.916C77.958 30.7596 77.8559 30.4259 78.0562 30.1703C78.2565 29.9148 78.6838 29.8351 79.011 29.9915C79.6645 30.3043 80.3149 30.6365 80.9426 30.9787C81.2569 31.1499 81.3342 31.4882 81.1151 31.7337C80.9624 31.9048 80.7056 31.9853 80.4577 31.9613ZM49.9232 27.2674C49.6416 27.2396 49.3997 27.0769 49.3332 26.8478C49.2489 26.5558 49.4849 26.2655 49.8587 26.2004C50.6054 26.0696 51.3669 25.955 52.1214 25.8589C52.4982 25.8102 52.8562 26.0115 52.9186 26.3073C52.9801 26.6031 52.7233 26.881 52.3445 26.9298C51.6177 27.0227 50.883 27.1335 50.1631 27.2589C50.0818 27.2729 50.0005 27.2752 49.9232 27.2674ZM75.3314 29.6074C75.2581 29.6004 75.1847 29.5834 75.1143 29.5571C74.45 29.3039 73.7668 29.0631 73.0856 28.8408C72.7316 28.7255 72.564 28.408 72.7118 28.1316C72.8585 27.8551 73.2641 27.7243 73.62 27.8397C74.327 28.0696 75.035 28.3197 75.7231 28.5822C76.0681 28.7139 76.2109 29.0383 76.0424 29.307C75.9095 29.5215 75.619 29.6361 75.3314 29.6074ZM55.803 26.6062C55.4798 26.5744 55.221 26.3669 55.1992 26.1036C55.1744 25.8047 55.4639 25.5469 55.8467 25.5275C56.6121 25.488 57.3875 25.4664 58.153 25.4633C58.5347 25.461 58.849 25.7025 58.851 26.0022C58.854 26.3019 58.5446 26.5458 58.1609 26.5481C57.4232 26.552 56.6746 26.5729 55.9369 26.61C55.8913 26.6124 55.8467 26.6108 55.803 26.6062ZM69.8016 27.8993C69.762 27.8954 69.7233 27.8884 69.6836 27.8791C68.9776 27.7088 68.2558 27.5524 67.5369 27.4145C67.1651 27.3433 66.937 27.0491 67.0283 26.7587C67.1195 26.4683 67.4963 26.2902 67.8681 26.3615C68.6118 26.504 69.3604 26.6658 70.0921 26.8423C70.459 26.9306 70.6642 27.2341 70.5512 27.5206C70.4511 27.7769 70.1298 27.9326 69.8016 27.8993ZM61.7483 26.6619C61.3804 26.6255 61.1117 26.3669 61.1455 26.0758C61.1792 25.7776 61.5173 25.5577 61.899 25.5841C62.6585 25.6367 63.427 25.708 64.1905 25.7962C64.5702 25.8404 64.832 26.116 64.7755 26.4118C64.72 26.7084 64.3541 26.9167 63.9872 26.8687C63.2505 26.7835 62.5088 26.7146 61.7761 26.6635C61.7662 26.6635 61.7572 26.6627 61.7483 26.6619Z" fill="#91B3FA"/>
<path d="M84.2303 34.3035C84.0945 34.2904 83.9626 34.2455 83.8535 34.168C83.5838 33.9783 83.3112 33.7909 83.0345 33.6066C82.743 33.4123 82.7073 33.07 82.9552 32.8424C83.2041 32.6147 83.6423 32.5869 83.9338 32.7805C84.2214 32.9717 84.504 33.1653 84.7836 33.3627C85.0682 33.5633 85.091 33.9063 84.8332 34.1285C84.6755 34.2656 84.4475 34.3252 84.2303 34.3035Z" fill="#91B3FA"/>
</g>
<g opacity="0.64">
<path d="M96.9756 55.3585C96.6464 55.326 96.3856 55.1123 96.3708 54.8452C96.3549 54.561 96.3331 54.2776 96.3063 53.9957C96.2785 53.6968 96.5651 53.4374 96.9478 53.415C97.3276 53.3941 97.6627 53.6171 97.6915 53.916C97.7192 54.2087 97.7411 54.5029 97.7579 54.7971C97.7748 55.096 97.4783 55.3492 97.0956 55.3632C97.0549 55.3632 97.0143 55.3624 96.9756 55.3585Z" fill="#91B3FA"/>
<path d="M52.8036 86.6045C52.7996 86.6037 52.7947 86.6037 52.7907 86.603C52.1254 86.5271 51.4541 86.4373 50.7957 86.335L50.5538 86.2971C50.178 86.2367 49.9361 85.9502 50.0124 85.6567C50.0898 85.3633 50.4636 85.1759 50.8314 85.2347L51.0654 85.2711C51.702 85.3695 52.3495 85.457 52.991 85.5298C53.3708 85.5731 53.6335 85.848 53.578 86.1446C53.5235 86.438 53.1784 86.6417 52.8036 86.6045ZM56.4098 86.8825C56.0529 86.8469 55.7862 86.6022 55.805 86.3165C55.8248 86.0176 56.151 85.7876 56.5338 85.8031C57.2606 85.8325 57.9973 85.8457 58.7241 85.8418C59.1068 85.8395 59.4202 86.0811 59.4221 86.3807C59.4251 86.6804 59.1158 86.9243 58.732 86.9266C57.9794 86.9305 57.215 86.9166 56.4614 86.8864C56.4445 86.8856 56.4267 86.884 56.4098 86.8825ZM47.0913 85.6087C47.0527 85.6049 47.015 85.5987 46.9763 85.5894C46.2525 85.4183 45.5277 85.2285 44.8217 85.0257C44.4618 84.9227 44.2773 84.6106 44.4092 84.3296C44.5411 84.0485 44.9407 83.9045 45.3006 84.0082C45.9818 84.2041 46.6808 84.3869 47.3789 84.5518C47.7458 84.6385 47.953 84.9413 47.8419 85.2278C47.7428 85.4848 47.4215 85.6413 47.0913 85.6087ZM62.2589 86.7702C61.9456 86.7392 61.6898 86.5426 61.6561 86.287C61.6174 85.9889 61.896 85.7233 62.2768 85.6931C63.0006 85.6358 63.7314 85.5615 64.4483 85.4717C64.826 85.4237 65.183 85.6258 65.2435 85.9216C65.304 86.2174 65.0472 86.4953 64.6684 86.5426C63.9247 86.6355 63.1672 86.7129 62.4166 86.7718C62.363 86.7764 62.3105 86.7756 62.2589 86.7702ZM41.6349 83.954C41.5635 83.9471 41.4911 83.9308 41.4227 83.9052C40.7425 83.6505 40.0623 83.3772 39.4029 83.093C39.0678 82.9482 38.9458 82.6183 39.1312 82.3566C39.3167 82.0949 39.7381 81.9989 40.0752 82.1444C40.7118 82.4193 41.3672 82.6826 42.0226 82.9281C42.3686 83.0574 42.5144 83.381 42.3488 83.6513C42.2159 83.8665 41.9234 83.9827 41.6349 83.954ZM68.0188 85.9657C67.7451 85.9386 67.5072 85.7845 67.4338 85.5638C67.3376 85.2742 67.5607 84.9784 67.9315 84.9033C68.6336 84.7616 69.3415 84.6014 70.0326 84.4271C70.3985 84.3358 70.7892 84.4922 70.9062 84.7771C71.0232 85.0621 70.8229 85.3679 70.458 85.4593C69.7411 85.6397 69.0084 85.8054 68.2796 85.9525C68.1923 85.9703 68.1041 85.9742 68.0188 85.9657ZM36.5641 81.6713C36.459 81.6605 36.3549 81.6311 36.2607 81.5807C35.638 81.2486 35.0193 80.8978 34.4224 80.5377C34.119 80.355 34.0625 80.0143 34.2975 79.7774C34.5325 79.5404 34.9688 79.4971 35.2712 79.679C35.8463 80.0259 36.4432 80.3643 37.0441 80.6849C37.3604 80.8537 37.4417 81.1913 37.2255 81.4383C37.0728 81.6133 36.814 81.6961 36.5641 81.6713ZM73.5536 84.4891C73.3176 84.4658 73.1034 84.3481 73.0023 84.1646C72.8516 83.8898 73.0142 83.5707 73.3672 83.453C74.0365 83.2293 74.7048 82.9869 75.3542 82.7345C75.6973 82.6005 76.1137 82.7097 76.2853 82.9776C76.4558 83.2455 76.317 83.5715 75.9739 83.7047C75.3007 83.9664 74.6076 84.2173 73.9145 84.4496C73.7965 84.4883 73.6726 84.5007 73.5536 84.4891ZM78.7423 82.3775C78.542 82.3574 78.3546 82.2699 78.2396 82.1259C78.0373 81.8719 78.1375 81.5374 78.4627 81.3794C79.0814 81.0798 79.6962 80.7615 80.2901 80.4355C80.6034 80.2629 81.0367 80.3225 81.2569 80.5672C81.478 80.8118 81.4026 81.1502 81.0883 81.3229C80.4726 81.6613 79.835 81.9904 79.1945 82.3016C79.0547 82.3682 78.895 82.3922 78.7423 82.3775ZM83.466 79.6813C83.3004 79.6651 83.1428 79.6024 83.0258 79.4955C82.7769 79.2679 82.8116 78.9256 83.1031 78.7313C83.6564 78.3627 84.2027 77.9763 84.7292 77.5829C85.0059 77.3762 85.4451 77.3832 85.7109 77.5992C85.9756 77.8152 85.9667 78.1583 85.69 78.3658C85.1447 78.7738 84.5775 79.1742 84.0044 79.5559C83.8498 79.6589 83.6534 79.6999 83.466 79.6813ZM87.6176 76.4602C87.4867 76.447 87.3588 76.4044 87.2517 76.3324C86.9612 76.1365 86.9295 75.7943 87.1813 75.5674C87.6573 75.1377 88.1233 74.6916 88.5675 74.2402C88.8015 74.0025 89.2378 73.9592 89.5412 74.1403C89.8456 74.3231 89.9021 74.663 89.6691 74.9007C89.209 75.3684 88.7252 75.8314 88.2324 76.2767C88.0727 76.4199 87.8407 76.4826 87.6176 76.4602ZM91.0999 72.7853C91.0027 72.776 90.9075 72.7497 90.8193 72.7063C90.4951 72.5468 90.3969 72.2123 90.6002 71.9591C90.9869 71.4775 91.3617 70.9811 91.7127 70.4817C91.8971 70.2192 92.3205 70.124 92.6556 70.268C92.9918 70.412 93.1147 70.7419 92.9293 71.0044C92.5654 71.5216 92.1777 72.0365 91.7761 72.5359C91.6274 72.721 91.3597 72.8116 91.0999 72.7853ZM93.8266 68.7395C93.7632 68.7333 93.7007 68.7201 93.6382 68.6992C93.2862 68.58 93.1246 68.261 93.2763 67.9861C93.5649 67.465 93.8375 66.9299 94.0874 66.3972C94.2193 66.1161 94.6169 65.9705 94.9778 66.0743C95.3377 66.1773 95.5232 66.4885 95.3913 66.7696C95.1325 67.3225 94.8499 67.8761 94.5514 68.4174C94.4255 68.6435 94.1261 68.7697 93.8266 68.7395ZM95.7353 64.4203C95.7056 64.4172 95.6758 64.4126 95.6461 64.4064C95.2753 64.3305 95.0532 64.034 95.1513 63.7444C95.3358 63.1954 95.5023 62.634 95.6471 62.0773C95.7234 61.7838 96.0913 61.591 96.4651 61.6537C96.8409 61.7133 97.0838 61.9991 97.0075 62.2925C96.8578 62.8694 96.6852 63.4501 96.4939 64.0192C96.4036 64.2864 96.0754 64.4544 95.7353 64.4203ZM96.7923 59.9262C96.4185 59.889 96.1488 59.6242 96.1895 59.33C96.2678 58.7655 96.3253 58.1917 96.361 57.6242C96.3799 57.3253 96.7061 57.0945 97.0888 57.1092C97.4735 57.1255 97.767 57.3787 97.7482 57.6776C97.7105 58.2661 97.651 58.8608 97.5707 59.4461C97.53 59.7435 97.187 59.9595 96.8062 59.927C96.8013 59.927 96.7973 59.9262 96.7923 59.9262Z" fill="#91B3FA"/>
<path d="M31.9781 78.8009C31.8383 78.7869 31.7025 78.7397 31.5924 78.6592C31.3168 78.4579 31.0461 78.2542 30.7784 78.0475C30.5057 77.8368 30.5037 77.4938 30.7734 77.2809C31.0431 77.068 31.4824 77.0664 31.7551 77.277C32.0129 77.4768 32.2746 77.6735 32.5404 77.8671C32.82 78.0715 32.8348 78.4145 32.5731 78.6336C32.4154 78.766 32.1923 78.8226 31.9781 78.8009Z" fill="#91B3FA"/>
</g>
<path d="M35.0727 70.4986C35.1778 70.6294 35.3771 70.6945 35.5705 70.6596L41.0735 69.6724C42.9426 71.125 45.122 72.3546 47.5562 73.2907L48.1452 77.6734C48.166 77.8275 48.3088 77.9537 48.5022 77.9885L55.0999 79.1817C55.2932 79.2166 55.4925 79.1523 55.5976 79.0215L58.5931 75.2869C61.3069 75.2815 63.9563 74.9246 66.453 74.2617L70.8406 77.0369C70.9943 77.1345 71.2104 77.1445 71.378 77.0624L77.124 74.2625C77.2916 74.1804 77.3748 74.0248 77.3302 73.8738L76.066 69.5763C77.9261 68.1168 79.5007 66.4148 80.6995 64.5139L86.3116 64.0539C86.5079 64.0377 86.6705 63.9262 86.7152 63.7752L88.2431 58.6229C88.2877 58.4727 88.2054 58.3162 88.0379 58.2342L83.2557 55.895C83.2487 53.7757 82.7916 51.7067 81.9429 49.757L85.4966 46.3306C85.6215 46.2106 85.6344 46.0418 85.5293 45.9109L81.9439 41.4238C81.8388 41.2929 81.6395 41.2279 81.4461 41.2627L75.9431 42.25C74.074 40.7973 71.8946 39.5677 69.4604 38.6316L68.8714 34.2489C68.8506 34.0956 68.7078 33.9686 68.5144 33.9338L61.9167 32.7406C61.7244 32.7057 61.5241 32.77 61.419 32.9009L58.4235 36.6354C55.7097 36.6408 53.0603 36.9978 50.5636 37.6606L46.176 34.8854C46.0223 34.7879 45.8062 34.7778 45.6386 34.8599L39.8926 37.6598C39.725 37.7419 39.6418 37.8975 39.6864 38.0485L40.9506 42.346C39.0905 43.8056 37.5159 45.5075 36.3171 47.4085L30.705 47.8684C30.5087 47.8847 30.3461 47.9962 30.3014 48.1471L28.7735 53.2994C28.7289 53.4497 28.8111 53.6061 28.9787 53.6882L33.7609 56.0274C33.7679 58.1467 34.225 60.2156 35.0737 62.1654L31.52 65.5917C31.3951 65.7117 31.3822 65.8805 31.4873 66.0114L35.0727 70.4986Z" fill="#91B3FA"/>
<path d="M57.665 61.052C56.2748 60.9141 54.9838 60.4341 53.9556 59.6621C52.6904 58.7128 51.9745 57.4351 51.9398 56.0654C51.9051 54.6956 52.5555 53.3971 53.7712 52.4091C54.9878 51.421 56.6228 50.862 58.3769 50.8349C62.001 50.7791 65.0024 53.0347 65.0747 55.8625C65.1461 58.6903 62.2578 61.0373 58.6367 61.093C58.3095 61.0977 57.9842 61.0837 57.665 61.052ZM59.1999 51.7354C58.9381 51.7091 58.6714 51.6982 58.3997 51.7021C56.9421 51.7246 55.5827 52.1892 54.5723 53.0099C53.562 53.8307 53.0216 54.9101 53.0503 56.0483C53.0791 57.1866 53.674 58.2482 54.725 59.0372C55.7761 59.8262 57.1563 60.2475 58.6158 60.2258C61.6252 60.1793 64.0247 58.2296 63.9652 55.8795C63.9107 53.7417 61.8393 51.9971 59.1999 51.7354Z" fill="#BDD0FB"/>
<path d="M56.5378 68.7719C55.9845 68.717 55.4302 68.6395 54.8749 68.5397C54.052 68.391 53.2439 68.1935 52.4635 67.9512C52.4566 67.9489 52.4506 67.9473 52.4447 67.945C52.41 67.9341 52.3763 67.9233 52.3425 67.9125C52.3376 67.9109 52.3326 67.9094 52.3287 67.9078C52.3247 67.9063 52.3197 67.9047 52.3158 67.9032C52.2989 67.8977 52.2831 67.8931 52.2662 67.8877C52.2642 67.8869 52.2612 67.8861 52.2583 67.8854C52.2513 67.883 52.2454 67.8807 52.2384 67.8792C52.2364 67.8784 52.2345 67.8776 52.2315 67.8768C52.1819 67.8606 52.1323 67.8443 52.0837 67.8281C52.0659 67.8226 52.049 67.8164 52.0312 67.8103C51.9241 67.7746 51.818 67.7375 51.7129 67.7003C51.6524 67.6786 51.5919 67.6569 51.5315 67.6345C51.4204 67.5934 51.3599 67.5021 51.3738 67.4115C51.3778 67.3898 51.3857 67.3673 51.3976 67.3464C51.463 67.238 51.6276 67.1916 51.7674 67.2427C52.7957 67.6205 53.8834 67.914 54.9999 68.1161C59.1802 68.8726 63.4875 68.3112 67.1274 66.5373C70.7674 64.7633 73.3057 61.9882 74.2734 58.7237C74.3974 58.304 74.4936 57.8843 74.562 57.4662C75.5872 51.164 70.339 45.1352 62.247 43.6725C58.0667 42.9168 53.7595 43.4774 50.1195 45.2513C46.4796 47.0253 43.9412 49.8004 42.9735 53.0649C42.8505 53.4808 42.7543 53.8989 42.6859 54.3193C42.3895 56.1405 42.6066 57.9927 43.3304 59.7411C43.3433 59.7728 43.3463 59.8046 43.3413 59.8356C43.3284 59.9161 43.2571 59.9881 43.151 60.0144C43.0052 60.0516 42.8485 59.9889 42.8009 59.8751C42.0523 58.0655 41.8273 56.1498 42.1336 54.2651C42.204 53.83 42.3032 53.3971 42.4311 52.9674C43.4326 49.5898 46.0582 46.7194 49.824 44.8843C53.5899 43.0492 58.0479 42.4692 62.371 43.2505C70.7436 44.7643 76.1732 51.0014 75.1123 57.5211C75.0419 57.954 74.9427 58.3884 74.8138 58.822C72.8764 65.3603 64.8875 69.6012 56.5378 68.7719Z" fill="#BDD0FB"/>
<g opacity="0.64">
<path d="M139.134 47.356C139.291 47.4559 139.351 47.627 139.269 47.7796C139.116 48.0638 138.956 48.3456 138.787 48.6259C138.677 48.8079 138.399 48.8861 138.166 48.8001C137.933 48.7142 137.833 48.4974 137.943 48.3154C138.107 48.0452 138.261 47.7718 138.409 47.4977C138.509 47.3119 138.783 47.2252 139.02 47.3026C139.062 47.3173 139.1 47.3351 139.134 47.356Z" fill="#91B3FA"/>
<path d="M137.591 49.7865C137.766 49.8972 137.816 50.0939 137.7 50.2511C137.312 50.7784 136.889 51.2995 136.447 51.8005C136.3 51.9662 136.01 52.0072 135.797 51.8934C135.584 51.7757 135.533 51.5519 135.678 51.3862C136.107 50.9023 136.515 50.3974 136.891 49.8871C137.02 49.7129 137.306 49.6533 137.529 49.7532C137.552 49.7632 137.572 49.7741 137.591 49.7865ZM134.969 52.7506L134.97 52.7513C135.169 52.8791 135.199 53.1083 135.035 53.2639C134.63 53.6495 134.206 54.0274 133.773 54.3882C133.674 54.4703 133.575 54.5516 133.475 54.6329C133.297 54.7777 133.004 54.7831 132.816 54.6422C132.63 54.5028 132.626 54.2721 132.804 54.1273C132.901 54.0483 132.997 53.9693 133.094 53.8896C133.512 53.5411 133.923 53.1749 134.314 52.8017C134.476 52.6468 134.769 52.6236 134.969 52.7506ZM131.765 55.3422C131.785 55.3546 131.804 55.3685 131.82 55.384C131.99 55.535 131.972 55.765 131.779 55.8982C131.191 56.3023 130.577 56.6903 129.956 57.0519C129.75 57.1719 129.458 57.1378 129.303 56.9768C129.149 56.8149 129.192 56.5873 129.399 56.4665C130 56.1173 130.594 55.7417 131.162 55.3507C131.337 55.2322 131.591 55.2322 131.765 55.3422ZM128.066 57.494C128.105 57.5188 128.14 57.549 128.168 57.5838C128.304 57.7542 128.238 57.9795 128.019 58.0856C127.357 58.4077 126.67 58.712 125.978 58.99C125.749 59.0821 125.469 59.0125 125.35 58.832C125.232 58.6532 125.322 58.4333 125.552 58.3419C126.221 58.0732 126.885 57.779 127.525 57.4669C127.699 57.3833 127.917 57.3988 128.066 57.494ZM123.963 59.1418C124.021 59.1789 124.069 59.2269 124.099 59.285C124.197 59.4708 124.085 59.6838 123.846 59.7612C123.127 59.9935 122.385 60.2057 121.642 60.3915C121.397 60.4527 121.135 60.3481 121.055 60.1553C120.977 59.9641 121.112 59.7589 121.358 59.697C122.077 59.5173 122.794 59.3121 123.49 59.0868C123.654 59.0341 123.835 59.0605 123.963 59.1418ZM119.57 60.2413C119.647 60.2908 119.705 60.3598 119.73 60.4411C119.788 60.637 119.631 60.8329 119.381 60.8786C118.623 61.0156 117.847 61.131 117.074 61.2193C116.819 61.2487 116.582 61.1101 116.545 60.9118C116.507 60.7128 116.684 60.5278 116.938 60.4984C117.686 60.4124 118.438 60.3017 119.169 60.1685C119.315 60.1422 119.461 60.1724 119.57 60.2413ZM115.005 60.7655C115.102 60.8274 115.167 60.9188 115.176 61.0249C115.193 61.2255 114.998 61.3989 114.741 61.4121C113.962 61.4516 113.172 61.4663 112.395 61.4554C112.136 61.4515 111.932 61.2858 111.937 61.0845C111.941 60.8832 112.154 60.7229 112.412 60.7268C113.164 60.7369 113.928 60.7229 114.682 60.685C114.803 60.6788 114.917 60.7098 115.005 60.7655ZM110.392 60.7043C110.509 60.7787 110.579 60.8964 110.563 61.0226C110.537 61.2231 110.309 61.3695 110.053 61.3493C109.277 61.2897 108.495 61.2038 107.729 61.0946C107.477 61.0582 107.308 60.8685 107.354 60.671C107.401 60.4728 107.644 60.342 107.897 60.3783C108.638 60.4844 109.395 60.5673 110.144 60.6246C110.239 60.6315 110.324 60.661 110.392 60.7043ZM87.3121 47.4984C87.3686 47.534 87.4152 47.5812 87.446 47.637C87.7424 48.1782 88.0726 48.7164 88.4246 49.2367C88.5456 49.4148 88.4583 49.6347 88.2303 49.7292C88.0022 49.8236 87.7206 49.7555 87.5997 49.5774C87.2348 49.0393 86.8937 48.4833 86.5873 47.9235C86.4862 47.7384 86.5952 47.5239 86.8322 47.4449C86.9978 47.3907 87.1812 47.4155 87.3121 47.4984ZM105.856 60.0578C105.995 60.146 106.061 60.2924 106.013 60.4356C105.945 60.63 105.689 60.7454 105.44 60.6927C104.687 60.5348 103.934 60.3505 103.202 60.1453C102.96 60.0771 102.833 59.8681 102.92 59.6791C103.007 59.4902 103.274 59.3911 103.517 59.4592C104.225 59.6575 104.954 59.8363 105.682 59.9889C105.748 60.0028 105.806 60.0268 105.856 60.0578ZM89.4717 50.6816C89.5094 50.7056 89.5421 50.7342 89.5699 50.7675C89.9754 51.2623 90.4137 51.7509 90.8717 52.2194C91.0284 52.3789 90.9887 52.6081 90.7845 52.7304C90.5792 52.852 90.2867 52.821 90.1301 52.6623C89.6561 52.1776 89.203 51.6727 88.7836 51.1609C88.6447 50.9913 88.7082 50.766 88.9254 50.6576C89.0999 50.5709 89.32 50.5856 89.4717 50.6816ZM101.517 58.8413C101.678 58.9435 101.736 59.1209 101.647 59.2749C101.54 59.4577 101.263 59.539 101.029 59.4554C100.321 59.2037 99.6171 58.925 98.9359 58.6276C98.7069 58.5285 98.6315 58.307 98.7565 58.1313C98.8824 57.9555 99.167 57.8928 99.3911 57.9911C100.05 58.2792 100.732 58.5486 101.416 58.7918C101.452 58.8049 101.487 58.822 101.517 58.8413ZM92.2718 53.545C92.2906 53.5566 92.3075 53.5698 92.3234 53.5837C92.828 54.0197 93.3625 54.4463 93.9128 54.8513C94.1002 54.9891 94.1091 55.2199 93.9326 55.3662C93.7561 55.5125 93.4626 55.518 93.2733 55.3817C92.7051 54.9636 92.1518 54.523 91.6313 54.0723C91.4587 53.9229 91.4736 53.6929 91.665 53.5574C91.8375 53.4351 92.0963 53.4335 92.2718 53.545ZM97.4913 57.0829C97.6767 57.2006 97.7193 57.4112 97.5835 57.5684C97.4397 57.7348 97.1492 57.7797 96.936 57.6675C96.2915 57.3283 95.6549 56.9636 95.0451 56.5826C95.0441 56.5819 95.0432 56.5811 95.0422 56.5803C94.8439 56.4541 94.8121 56.2265 94.9728 56.07C95.1334 55.9129 95.4269 55.8873 95.6292 56.0127C96.2191 56.3813 96.8349 56.7344 97.4585 57.062C97.4695 57.0689 97.4804 57.0759 97.4913 57.0829Z" fill="#91B3FA"/>
<path d="M86.1362 44.9199C86.2076 44.9656 86.2621 45.0276 86.2899 45.1019C86.395 45.3884 86.5081 45.6733 86.629 45.9567C86.7103 46.148 86.5785 46.354 86.3335 46.4174C86.0886 46.4809 85.8249 46.378 85.7436 46.1867C85.6186 45.8932 85.5016 45.599 85.3926 45.3024C85.3212 45.1089 85.465 44.9067 85.7128 44.8518C85.8655 44.8177 86.0222 44.8471 86.1362 44.9199Z" fill="#91B3FA"/>
</g>
<g opacity="0.64">
<path d="M88.8123 27.8365C88.9868 27.948 89.0374 28.1446 88.9214 28.301C88.729 28.5604 88.5446 28.8214 88.3681 29.0854C88.2481 29.2635 87.9665 29.3324 87.7375 29.2387C87.5094 29.1458 87.4212 28.9244 87.5412 28.747C87.7246 28.4745 87.915 28.2043 88.1143 27.9363C88.2432 27.7621 88.5287 27.7025 88.7518 27.8039C88.7727 27.8132 88.7935 27.8241 88.8123 27.8365Z" fill="#91B3FA"/>
<path d="M130.92 21.772C131.275 21.9996 131.61 22.2211 131.948 22.4565C132.141 22.5904 132.157 22.8212 131.985 22.9714C131.814 23.1216 131.518 23.1332 131.327 23.0001C131.001 22.7716 130.666 22.537 130.332 22.3372C130.091 22.1839 129.848 22.0353 129.603 21.8897C129.403 21.7735 129.359 21.5397 129.514 21.3794C129.67 21.2191 129.962 21.1882 130.168 21.3097C130.42 21.4592 130.671 21.614 130.92 21.772ZM128.316 20.3023C128.498 20.4177 128.543 20.6237 128.415 20.7809C128.276 20.9504 127.987 21 127.77 20.8916C127.146 20.5795 126.497 20.2838 125.842 20.0127C125.611 19.9183 125.527 19.6976 125.648 19.5203C125.768 19.3422 126.051 19.2748 126.279 19.3685C126.957 19.6496 127.628 19.9554 128.274 20.2776C128.289 20.2853 128.304 20.2938 128.316 20.3023ZM133.565 23.6799C133.58 23.6892 133.594 23.7 133.608 23.7109C134.137 24.1437 134.65 24.599 135.134 25.0644C135.297 25.2208 135.266 25.45 135.066 25.577C134.866 25.704 134.574 25.6815 134.409 25.5236C133.94 25.0729 133.444 24.6323 132.932 24.2134C132.755 24.0678 132.761 23.8371 132.948 23.6985C133.119 23.5707 133.384 23.5653 133.565 23.6799ZM124.308 18.6422C124.465 18.7421 124.526 18.9155 124.441 19.0689C124.339 19.2539 124.065 19.3391 123.829 19.2593C123.149 19.0309 122.446 18.8211 121.744 18.636C121.503 18.5717 121.369 18.365 121.451 18.1745C121.533 17.984 121.798 17.881 122.042 17.9453C122.769 18.1366 123.494 18.3534 124.198 18.5895C124.237 18.6035 124.275 18.6213 124.308 18.6422ZM136.425 26.4341C136.459 26.4558 136.49 26.4814 136.515 26.5108C136.949 27.0056 137.362 27.5197 137.742 28.0393C137.87 28.2143 137.793 28.4365 137.568 28.5364C137.344 28.6363 137.059 28.5744 136.932 28.4009C136.564 27.8984 136.165 27.4013 135.745 26.9227C135.599 26.757 135.654 26.5302 135.867 26.4163C136.042 26.3226 136.269 26.3343 136.425 26.4341ZM120.008 17.5109C120.144 17.5977 120.212 17.7401 120.167 17.8818C120.104 18.077 119.851 18.1962 119.601 18.1474C118.882 18.0073 118.147 17.8888 117.414 17.7943C117.161 17.7618 116.988 17.5744 117.03 17.3754C117.071 17.1764 117.311 17.0425 117.566 17.075C118.324 17.1726 119.084 17.2949 119.827 17.4397C119.895 17.4536 119.957 17.4784 120.008 17.5109ZM138.677 29.5121C138.73 29.5454 138.774 29.5887 138.805 29.6398C139.129 30.1818 139.431 30.7417 139.698 31.303C139.789 31.492 139.666 31.701 139.424 31.7715C139.183 31.842 138.913 31.746 138.824 31.557C138.564 31.0135 138.273 30.4722 137.96 29.948C137.851 29.766 137.951 29.5484 138.185 29.4633C138.352 29.4037 138.542 29.4269 138.677 29.5121ZM115.529 16.9348C115.646 17.0084 115.713 17.123 115.7 17.2477C115.678 17.4482 115.453 17.5969 115.196 17.5806C114.459 17.5326 113.708 17.5071 112.964 17.5063C112.706 17.5055 112.498 17.3421 112.498 17.1408C112.499 16.9395 112.709 16.7769 112.966 16.7777C113.735 16.7792 114.511 16.8048 115.274 16.8543C115.372 16.8605 115.46 16.8899 115.529 16.9348ZM110.991 16.9263C111.086 16.9867 111.152 17.0773 111.162 17.1811C111.182 17.3816 110.989 17.5574 110.732 17.5721C109.995 17.6162 109.248 17.6851 108.514 17.7773C108.259 17.809 108.021 17.6735 107.98 17.4745C107.939 17.2755 108.113 17.0889 108.367 17.0572C109.126 16.9627 109.898 16.8915 110.66 16.845C110.785 16.838 110.902 16.869 110.991 16.9263ZM106.508 17.4838C106.585 17.5318 106.642 17.6 106.667 17.6805C106.728 17.8756 106.574 18.0731 106.324 18.1203C105.602 18.2566 104.88 18.4184 104.176 18.6004C103.931 18.6639 103.669 18.5601 103.586 18.3689C103.505 18.1776 103.639 17.9716 103.883 17.9089C104.611 17.7208 105.357 17.5535 106.103 17.4126C106.251 17.3847 106.399 17.4141 106.508 17.4838ZM102.198 18.5973C102.255 18.6337 102.302 18.6809 102.333 18.7374C102.433 18.9225 102.323 19.137 102.085 19.2152C101.4 19.4413 100.72 19.6922 100.064 19.9601C99.8364 20.053 99.5548 19.9841 99.4348 19.806C99.3158 19.6271 99.4041 19.4072 99.6321 19.3143C100.31 19.0371 101.013 18.7785 101.721 18.5439C101.886 18.4897 102.068 18.5144 102.198 18.5973ZM98.1746 20.2396C98.2122 20.2636 98.2469 20.2938 98.2747 20.3279C98.4125 20.4982 98.3471 20.7228 98.1289 20.8304C97.5023 21.1394 96.8836 21.4723 96.2906 21.82C96.0844 21.9408 95.7889 21.9075 95.6372 21.7472C95.4825 21.5862 95.5242 21.3577 95.7294 21.2369C96.3432 20.8769 96.9827 20.5323 97.6302 20.2133C97.8037 20.1281 98.0228 20.1428 98.1746 20.2396ZM94.5445 22.3674C94.5644 22.3798 94.5822 22.3938 94.5991 22.4085C94.7696 22.5587 94.7527 22.7894 94.5594 22.9234C94.0041 23.3075 93.4618 23.714 92.9481 24.1313C92.7697 24.2761 92.4682 24.2777 92.2888 24.1414C92.1033 24.002 92.0974 23.7713 92.2759 23.6257C92.8064 23.1952 93.3666 22.7755 93.9407 22.3775C94.1152 22.2575 94.371 22.2567 94.5445 22.3674ZM91.3974 24.9219C91.5977 25.0489 91.6274 25.2789 91.4648 25.4345L91.4113 25.4864C90.9611 25.9185 90.5258 26.3699 90.1193 26.8283C89.9725 26.994 89.682 27.035 89.4698 26.9204C89.2547 26.805 89.2061 26.5789 89.3518 26.4132C89.7722 25.9394 90.2224 25.4724 90.6874 25.0257L90.741 24.9738C90.9036 24.8182 91.1981 24.7941 91.3974 24.9219Z" fill="#91B3FA"/>
<path d="M140.269 32.8562C140.341 32.9019 140.396 32.9646 140.423 33.0397C140.53 33.337 140.629 33.6359 140.72 33.9356C140.78 34.1315 140.625 34.3282 140.374 34.3746C140.124 34.4211 139.873 34.2995 139.812 34.1044C139.724 33.814 139.628 33.5252 139.524 33.2379C139.453 33.0444 139.598 32.843 139.846 32.7881C140.001 32.754 140.156 32.7834 140.269 32.8562Z" fill="#91B3FA"/>
</g>
<path d="M134.385 37.3003C134.385 37.188 134.293 37.0874 134.157 37.051L130.269 36.0072C129.829 34.5476 129.089 33.1322 128.045 31.822L129.84 28.9361C129.904 28.8347 129.877 28.7139 129.775 28.6342L126.285 25.9132C126.183 25.8334 126.027 25.8133 125.898 25.8629L122.207 27.2706C120.527 26.4583 118.713 25.8822 116.843 25.5423L115.5 22.5078C115.452 22.4017 115.324 22.3304 115.18 22.3304L110.25 22.3343C110.106 22.3343 109.977 22.4056 109.93 22.5124L108.594 25.5485C106.725 25.8915 104.912 26.4699 103.234 27.2853L99.5389 25.883C99.409 25.8335 99.2543 25.8544 99.1522 25.9341L95.6679 28.6597C95.5658 28.7395 95.54 28.861 95.6035 28.9617L97.4061 31.8445C96.366 33.1562 95.6283 34.5724 95.193 36.0327L91.3071 37.0819C91.1713 37.1191 91.0801 37.219 91.0801 37.3313L91.085 41.1819C91.085 41.2942 91.1763 41.3949 91.3131 41.4313L95.2009 42.4751C95.6402 43.9346 96.3809 45.3501 97.4249 46.6602L95.6293 49.5461C95.5658 49.6476 95.5926 49.7683 95.6947 49.8481L99.1849 52.569C99.2871 52.6488 99.4427 52.6689 99.5716 52.6194L103.263 51.2117C104.943 52.0239 106.756 52.6 108.626 52.9399L109.97 55.9737C110.017 56.0798 110.145 56.151 110.289 56.151L115.22 56.1472C115.364 56.1472 115.493 56.0759 115.539 55.9691L116.876 52.933C118.745 52.59 120.558 52.0115 122.235 51.1962L125.931 52.5985C126.061 52.648 126.215 52.6271 126.317 52.5474L129.801 49.8218C129.903 49.742 129.929 49.6204 129.865 49.5198L128.063 46.637C129.103 45.3253 129.84 43.9091 130.276 42.4487L134.162 41.3995C134.297 41.3631 134.389 41.2625 134.389 41.1502L134.385 37.3003Z" fill="#91B3FA"/>
<path opacity="0.56" d="M115.796 36.3092C117.627 37.4738 118.14 39.5474 116.897 41.1781C116.234 42.0461 115.178 42.6617 113.924 42.9095C112.67 43.1573 111.366 43.0094 110.254 42.4922C109.145 41.9757 108.355 41.1503 108.036 40.1708C107.718 39.1912 107.908 38.173 108.57 37.305C109.937 35.5125 112.918 34.9232 115.212 35.9902C115.42 36.087 115.615 36.1939 115.796 36.3092ZM110.261 41.6094C110.408 41.7024 110.565 41.7891 110.732 41.8665C111.63 42.2839 112.682 42.4039 113.695 42.2033C114.708 42.0028 115.56 41.5064 116.096 40.8057C117.199 39.3585 116.592 37.4792 114.736 36.6174C112.883 35.7556 110.477 36.2318 109.373 37.679C108.368 38.9953 108.783 40.6694 110.261 41.6094Z" fill="#91B3FA"/>
<path d="M120.422 31.7492C120.748 31.9567 121.063 32.1789 121.365 32.4136C121.486 32.508 121.604 32.6033 121.719 32.7016C122.124 33.0446 122.498 33.4109 122.835 33.7934C122.847 33.8065 122.858 33.8197 122.87 33.8329C122.899 33.8654 122.926 33.8987 122.954 33.9312C122.977 33.9583 123 33.9846 123.022 34.0117C123.134 34.1472 123.116 34.3199 122.992 34.4392C122.962 34.4678 122.925 34.4941 122.883 34.515C122.667 34.6242 122.378 34.577 122.237 34.4066C121.798 33.8762 121.282 33.3791 120.705 32.9292C119.42 31.9273 117.882 31.1932 116.205 30.7635C115.062 30.4708 113.856 30.319 112.618 30.3206C109.564 30.3229 106.695 31.2536 104.537 32.9416C104.258 33.16 103.995 33.3876 103.749 33.6238C102.093 35.2127 101.194 37.181 101.196 39.257C101.199 41.6419 102.391 43.8827 104.552 45.5676C106.714 47.2533 109.586 48.1786 112.639 48.1771C115.693 48.1748 118.563 47.244 120.72 45.556C120.995 45.3408 121.255 45.1162 121.499 44.8824C122.556 43.8688 123.316 42.6864 123.721 41.4173C123.737 41.3639 123.769 41.3159 123.812 41.2756C123.922 41.1695 124.105 41.1169 124.287 41.1517C124.538 41.2013 124.689 41.3979 124.627 41.5938C124.189 42.9667 123.366 44.2459 122.223 45.3423C121.96 45.5955 121.679 45.8387 121.382 46.0709C119.048 47.8968 115.944 48.9034 112.641 48.9057C109.338 48.908 106.234 47.9068 103.894 46.0841C101.556 44.2621 100.267 41.8378 100.264 39.2585C100.261 37.013 101.233 34.8836 103.025 33.1654C103.292 32.9099 103.575 32.6637 103.878 32.4275C106.211 30.6017 109.315 29.595 112.618 29.5927C115.495 29.5904 118.221 30.35 120.422 31.7492Z" fill="#BDD0FB"/>
<path d="M228.39 39.6574C227.017 38.554 225.13 37.9323 223.16 37.933L73.9362 38.0012C71.966 38.002 70.0801 38.6261 68.7088 39.7318C67.3375 40.8367 66.5978 42.3288 66.6593 43.8666L72.5748 192.724C72.6968 195.796 75.9213 198.17 79.8567 198.17H217.566C221.506 198.17 224.732 195.791 224.848 192.714L230.448 43.7551C230.505 42.2181 229.762 40.7608 228.39 39.6574Z" fill="#CC7F31"/>
<path d="M221.786 46.5094C220.532 45.5012 218.807 44.9321 217.007 44.9337L80.6152 44.9964C78.8146 44.9972 77.0903 45.5678 75.837 46.5775C74.5837 47.5872 73.9075 48.9508 73.964 50.357L79.3708 186.396C79.4819 189.203 82.4288 191.368 86.0261 191.368H211.892C215.494 191.368 218.442 189.199 218.548 186.387L223.666 50.2532C223.719 48.847 223.041 47.5175 221.786 46.5094Z" fill="#FFF8EA"/>
<path d="M158.634 94.683C164.396 90.1835 164.396 82.8884 158.634 78.3888C152.872 73.8893 143.53 73.8893 137.769 78.3888C132.007 82.8884 132.007 90.1835 137.769 94.683C143.53 99.1825 152.872 99.1825 158.634 94.683Z" fill="#BDD0FB"/>
<path d="M158.243 94.1051C163.596 89.9246 163.596 83.1467 158.243 78.9662C152.89 74.7857 144.211 74.7857 138.857 78.9662C133.504 83.1467 133.504 89.9246 138.857 94.1051C144.211 98.2856 152.89 98.2856 158.243 94.1051Z" fill="#FCFCFC"/>
<path d="M209.956 125.232C209.956 129.29 205.743 132.58 200.546 132.58H188.348C183.152 132.58 178.938 129.29 178.938 125.232C178.938 121.174 183.152 117.884 188.348 117.884H200.546C205.743 117.884 209.956 121.174 209.956 125.232Z" fill="#BDD0FB"/>
<path d="M208.671 125.232C208.671 129.027 204.795 132.036 200.014 132.036H188.692C183.911 132.036 180.035 129.027 180.035 125.232C180.035 121.437 183.911 118.428 188.692 118.428H200.014C204.795 118.428 208.671 121.437 208.671 125.232Z" fill="white"/>
<path d="M164.997 125.232C164.997 129.29 160.784 132.58 155.588 132.58H143.39C138.193 132.58 133.98 129.29 133.98 125.232C133.98 121.174 138.193 117.884 143.39 117.884H155.588C160.784 117.884 164.997 121.174 164.997 125.232Z" fill="#BDD0FB"/>
<path d="M163.712 125.232C163.712 129.027 159.836 132.036 155.055 132.036H143.734C138.953 132.036 135.077 129.027 135.077 125.232C135.077 121.437 138.953 118.428 143.734 118.428H155.055C159.836 118.428 163.712 121.437 163.712 125.232Z" fill="#FCFCFC"/>
<path d="M118.993 125.232C118.993 129.29 114.78 132.58 109.583 132.58H97.3853C92.1886 132.58 87.9756 129.29 87.9756 125.232C87.9756 121.174 92.1886 117.884 97.3853 117.884H109.583C114.781 117.884 118.993 121.174 118.993 125.232Z" fill="#BDD0FB"/>
<path d="M117.709 125.232C117.709 129.027 113.833 132.036 109.052 132.036H97.7304C92.9492 132.036 89.0732 129.027 89.0732 125.232C89.0732 121.437 92.9492 118.428 97.7304 118.428H109.052C113.833 118.428 117.709 121.437 117.709 125.232Z" fill="#FFFCFC"/>
<path d="M209.956 158.161C209.956 162.22 205.743 165.51 200.546 165.51H188.348C183.152 165.51 178.938 162.22 178.938 158.161C178.938 154.103 183.152 150.813 188.348 150.813H200.546C205.743 150.813 209.956 154.103 209.956 158.161Z" fill="#BDD0FB"/>
<path d="M208.671 158.161C208.671 161.956 204.795 164.965 200.014 164.965H188.692C183.911 164.965 180.035 161.956 180.035 158.161C180.035 154.367 183.911 151.358 188.692 151.358H200.014C204.795 151.358 208.671 154.367 208.671 158.161Z" fill="#FFFCFC"/>
<path d="M164.997 158.161C164.997 162.22 160.784 165.51 155.588 165.51H143.39C138.193 165.51 133.98 162.22 133.98 158.161C133.98 154.103 138.193 150.813 143.39 150.813H155.588C160.784 150.813 164.997 154.103 164.997 158.161Z" fill="#BDD0FB"/>
<path d="M163.712 158.161C163.712 161.956 159.836 164.965 155.055 164.965H143.734C138.953 164.965 135.077 161.956 135.077 158.161C135.077 154.367 138.953 151.358 143.734 151.358H155.055C159.836 151.358 163.712 154.367 163.712 158.161Z" fill="#FFFCFC"/>
<path d="M118.993 158.161C118.993 162.22 114.78 165.51 109.583 165.51H97.3853C92.1886 165.51 87.9756 162.22 87.9756 158.161C87.9756 154.103 92.1886 150.813 97.3853 150.813H109.583C114.781 150.813 118.993 154.103 118.993 158.161Z" fill="#BDD0FB"/>
<path d="M117.709 158.161C117.709 161.956 113.833 164.965 109.052 164.965H97.7304C92.9492 164.965 89.0732 161.956 89.0732 158.161C89.0732 154.367 92.9492 151.358 97.7304 151.358H109.052C113.833 151.358 117.709 154.367 117.709 158.161Z" fill="#FFFCFC"/>
<path d="M148.986 147.298L147.581 147.31V135.958L148.986 135.951V147.298Z" fill="#BDD0FB"/>
<path d="M103.45 147.718L101.997 147.731V144.809C101.997 143.236 103.714 141.944 105.823 141.928L137.315 141.703C138.593 141.694 139.631 140.903 139.631 139.94V135.999L141.044 135.992V139.931C141.044 141.482 139.372 142.757 137.314 142.772L105.822 143.01C104.514 143.02 103.449 143.822 103.449 144.798V147.718H103.45Z" fill="#BDD0FB"/>
<path d="M193.053 146.89L191.693 146.903V144.075C191.693 143.13 190.693 142.369 189.464 142.378L159.165 142.607C157.137 142.622 155.485 141.379 155.485 139.837V135.919L156.882 135.912V139.828C156.882 140.785 157.907 141.556 159.165 141.547L189.464 141.331C191.444 141.317 193.053 142.542 193.053 144.064V146.89Z" fill="#BDD0FB"/>
<path d="M149.042 111.45L147.637 111.464V100.111L149.042 100.104V111.45Z" fill="white"/>
<path d="M103.505 111.871L102.052 111.884V108.962C102.052 107.388 103.77 106.097 105.879 106.081L137.37 105.856C138.648 105.847 139.686 105.056 139.686 104.093V100.152L141.099 100.145V104.084C141.099 105.635 139.428 106.91 137.369 106.925L105.878 107.163C104.569 107.173 103.504 107.975 103.504 108.951V111.871H103.505Z" fill="#BDD0FB"/>
<path d="M193.109 111.043L191.748 111.055V108.228C191.748 107.283 190.749 106.522 189.519 106.531L159.221 106.76C157.192 106.775 155.54 105.532 155.54 103.99V100.072L156.937 100.065V103.981C156.937 104.938 157.963 105.709 159.221 105.7L189.519 105.483C191.5 105.47 193.109 106.695 193.109 108.217V111.043Z" fill="#BDD0FB"/>
<path d="M230.021 55.013L230.446 43.7219C230.503 42.1841 229.762 40.7438 228.388 39.6404C227.016 38.537 225.129 37.9238 223.159 37.9246L73.9351 37.9973C71.965 37.9981 70.0781 38.6245 68.7077 39.7295C67.3364 40.8344 66.5977 42.294 66.6582 43.8318L67.1034 55.013H230.021Z" fill="#CC7F31"/>
<path opacity="0.6" d="M78.9138 48.9346C80.9668 48.9346 82.6311 47.6349 82.6311 46.0317C82.6311 44.4285 80.9668 43.1288 78.9138 43.1288C76.8608 43.1288 75.1965 44.4285 75.1965 46.0317C75.1965 47.6349 76.8608 48.9346 78.9138 48.9346Z" fill="white"/>
<path opacity="0.6" d="M90.8787 49.0995C92.9317 49.0995 94.5959 47.7998 94.5959 46.1966C94.5959 44.5933 92.9317 43.2936 90.8787 43.2936C88.8257 43.2936 87.1614 44.5933 87.1614 46.1966C87.1614 47.7998 88.8257 49.0995 90.8787 49.0995Z" fill="white"/>
<path opacity="0.6" d="M102.439 48.9346C104.492 48.9346 106.156 47.6349 106.156 46.0317C106.156 44.4285 104.492 43.1288 102.439 43.1288C100.386 43.1288 98.7217 44.4285 98.7217 46.0317C98.7217 47.6349 100.386 48.9346 102.439 48.9346Z" fill="white"/>
<path opacity="0.67" d="M210.863 176.125H86.7202C86.2591 176.125 85.8843 175.833 85.8843 175.472V172.055C85.8843 171.695 86.2581 171.402 86.7202 171.402H210.863C211.324 171.402 211.699 171.694 211.699 172.055V175.472C211.698 175.833 211.324 176.125 210.863 176.125Z" fill="white"/>
<path d="M177.098 68.3491H81.8508C80.2286 68.3491 78.9138 67.3224 78.9138 66.0556V65.9193C78.9138 64.6525 80.2286 63.6258 81.8508 63.6258H177.098C178.72 63.6258 180.035 64.6525 180.035 65.9193V66.0556C180.035 67.3224 178.72 68.3491 177.098 68.3491Z" fill="#BDD0FB"/>
<path d="M216.197 68.3491H195.99C194.368 68.3491 193.053 67.3224 193.053 66.0556V65.9193C193.053 64.6525 194.368 63.6258 195.99 63.6258H216.197C217.819 63.6258 219.133 64.6525 219.133 65.9193V66.0556C219.133 67.3224 217.819 68.3491 216.197 68.3491Z" fill="#BDD0FB"/>
<path opacity="0.67" d="M210.354 183.746H86.2116C85.7505 183.746 85.3757 183.454 85.3757 183.093V179.676C85.3757 179.316 85.7495 179.023 86.2116 179.023H210.354C210.816 179.023 211.19 179.315 211.19 179.676V183.093C211.19 183.454 210.817 183.746 210.354 183.746Z" fill="white"/>
<path d="M52.056 196.336C52.056 196.336 51.5444 198.6 51.2925 200.84C51.1944 201.716 52.059 202.477 53.1834 202.513C57.0038 202.637 65.1771 202.879 68.11 202.777C68.5513 202.761 68.8388 202.409 68.6762 202.089C68.5394 201.82 68.2756 201.603 67.9395 201.483L54.4397 196.637L52.056 196.336Z" fill="url(#paint1_linear_1218_31122)"/>
<path d="M51.6365 195.006L52.048 197.713C52.048 197.713 54.4128 198.572 56.028 197.605L55.0484 194.587L51.6365 195.006Z" fill="url(#paint2_linear_1218_31122)"/>
<path d="M51.9459 144.106C51.7685 144.813 50.9921 179.388 55.7247 194.882C55.802 195.135 55.6374 195.395 55.3301 195.494C54.6043 195.725 53.1814 196.061 51.476 196.106C50.9475 196.119 50.4745 195.852 50.3258 195.455C48.9733 191.86 42.4906 173.849 41.6448 156.643C40.6999 137.416 41.6448 155.988 41.6448 155.988L42.1991 144.104L51.9459 144.106Z" fill="url(#paint3_linear_1218_31122)"/>
<path d="M36.5263 197.517C36.5263 197.517 35.7112 198.66 34.922 201.696C34.7792 202.244 35.27 202.769 35.9829 202.824C37.2442 202.921 39.1866 203.046 40.7423 203.037C41.4592 203.033 42.0194 202.545 41.9332 201.989C41.7606 200.881 41.2242 199.063 39.5654 197.646L36.5263 197.517Z" fill="url(#paint4_linear_1218_31122)"/>
<path d="M35.8105 194.034L36.7714 198.129C36.7714 198.129 37.7212 198.681 39.6012 198.28L39.1421 193.875L35.8105 194.034Z" fill="url(#paint5_linear_1218_31122)"/>
<path d="M33.2135 145.167C29.3426 163.409 34.0534 190.254 35.6418 195.509C35.739 195.831 36.0712 196.077 36.4886 196.131C37.1976 196.222 38.3656 196.298 39.5158 196.037C39.9124 195.947 40.191 195.667 40.2069 195.345C40.4201 191.097 40.0363 165.02 43.6436 154.714C43.826 154.192 44.2345 153.736 44.7997 153.422L51.8 149.536L52.3364 143.254L33.2135 145.167Z" fill="url(#paint6_linear_1218_31122)"/>
<path d="M57.8773 110.601C46.2772 110.452 33.4784 112.98 33.4784 112.98C30.0209 128.735 32.8736 146.907 32.8736 146.907C41.854 148.746 51.9835 145.783 51.9835 145.783C53.4758 139.198 60.4404 120.664 60.4404 120.664C66.108 120.115 70.7772 118.838 74.6214 117.15C71.6884 114.495 70.3062 111.117 69.7053 109.12C65.6053 110.116 61.4557 110.647 57.8773 110.601Z" fill="#CC7F31"/>
<path d="M92.1409 97.2582C91.0016 96.1834 89.5589 96.6921 89.5589 96.6921C87.8515 102.323 78.9018 106.888 69.7063 109.12C70.3072 111.117 71.6894 114.494 74.6224 117.15C89.8832 110.449 92.1409 97.2582 92.1409 97.2582Z" fill="#F6AEA6"/>
<path d="M91.8642 97.5302C91.9832 97.826 90.603 98.2766 89.79 97.0664C89.7612 96.4864 89.31 94.0001 89.7533 93.5277C92.1181 91.0104 96.702 87.8543 96.702 87.8543C97.4764 88.4513 96.8388 89.0375 96.8388 89.0375L94.6148 90.8463C95.0798 91.5029 95.647 92.0565 95.9137 92.851C96.115 93.4526 95.992 94.0945 95.6034 94.642C95.2127 95.191 94.6802 95.9049 94.1765 96.4639C93.2237 97.5224 91.8642 97.5302 91.8642 97.5302Z" fill="url(#paint7_linear_1218_31122)"/>
<path d="M93.642 92.0208L91.6153 93.3627L90.9788 94.6984L92.7853 96.2641C92.7853 96.2641 93.3932 93.6136 93.8443 93.0398C94.2974 92.466 94.0625 92.1888 93.642 92.0208Z" fill="url(#paint8_linear_1218_31122)"/>
<path d="M37.9284 121.751L33.4794 112.98C33.4794 112.98 22.6448 118.729 20.863 126.017C22.9106 126.135 26.6358 126.551 30.2817 127.989C31.0828 124.548 37.9284 121.751 37.9284 121.751Z" fill="#CC7F31"/>
<path d="M47.3966 130.004C47.3966 130.004 35.2324 135.373 31.1274 130.789C30.2757 129.837 30.0714 128.891 30.2816 127.989C26.6347 126.551 22.9095 126.135 20.863 126.017C20.3256 128.215 20.6101 130.552 22.263 132.914C29.4527 143.185 49.0069 132.347 49.0069 132.347L47.3966 130.004Z" fill="#F6AEA6"/>
<path d="M45.935 136.797L52.5744 118.691C52.6497 118.486 52.8738 118.335 53.1465 118.311C54.3492 118.201 57.8345 117.893 61.8592 117.628C66.7068 117.307 72.3358 117.048 75.7001 117.268C76.178 117.299 76.4675 117.695 76.2543 118.031C74.3417 121.053 66.4728 133.347 62.5324 137.374C62.4015 137.507 62.2002 137.586 61.9851 137.584L46.5815 137.472C46.1323 137.469 45.8111 137.133 45.935 136.797Z" fill="#BDD0FB"/>
<path d="M62.5474 116.058L67.3604 115.432C67.6172 115.398 67.8264 115.59 67.7451 115.783L67.2682 116.91C67.2265 117.008 67.1174 117.08 66.9856 117.093L62.3541 117.576C62.1141 117.601 61.9168 117.431 61.9723 117.247L62.2668 116.263C62.2995 116.157 62.4096 116.076 62.5474 116.058Z" fill="url(#paint9_linear_1218_31122)"/>
<path d="M58.9431 119.24L59.3397 117.627C59.3794 117.465 59.5509 117.343 59.7601 117.327L69.4822 116.556C69.8094 116.53 70.0712 116.764 69.9948 117.014L69.3771 119.024C69.3275 119.185 69.148 119.301 68.9368 119.309L59.4369 119.682C59.1265 119.695 58.8846 119.478 58.9431 119.24Z" fill="url(#paint10_linear_1218_31122)"/>
<path d="M47.5395 132.423C47.5395 132.423 46.6144 129.453 46.9872 128.399C47.36 127.345 48.0829 125.991 50.4923 126.292C52.9018 126.594 55.7435 127.386 55.7435 127.386C55.7435 127.386 55.5997 128.758 53.7694 128.316L54.9047 129.002C54.9047 129.002 54.7421 130.1 53.1953 129.514L54.2512 130.423C54.2512 130.423 53.5869 131.325 52.4486 130.747C51.3113 130.168 50.766 132.78 47.5395 132.423Z" fill="url(#paint11_linear_1218_31122)"/>
<path d="M46.1286 103.247L42.4381 111.583C42.3766 111.72 42.45 111.874 42.6136 111.944C43.62 112.379 47.2441 113.635 51.6128 111.472C52.0679 111.247 52.3773 110.879 52.4467 110.462L53.6415 103.248H46.1286V103.247Z" fill="#F6AEA6"/>
<path d="M54.159 95.5282C54.159 95.5282 58.2114 101.486 57.6929 103.892C57.1733 106.299 52.1501 106.126 47.7646 104.172L44.6997 97.7389L54.159 95.5282Z" fill="#F6AEA6"/>
<path d="M47.9578 101.013C48.1363 100.951 48.2018 100.78 48.0947 100.653C47.7695 100.266 47.1616 99.4757 46.9673 98.7842C46.9673 98.7842 46.2385 98.4195 48.8215 97.9371C51.4044 97.4539 55.2566 96.7052 56.0657 94.9877C56.8549 93.3137 54.7806 89.1037 51.4719 92.458C51.3459 92.5858 51.099 92.5881 50.9731 92.4604C50.4307 91.9091 49.0049 90.7646 47.0248 91.4584C45.1716 92.1073 44.9634 93.1681 44.9892 93.7024C44.9961 93.8596 44.8166 93.9819 44.6183 93.9525C43.6813 93.8131 41.4335 93.6931 40.3845 95.4941C39.5198 96.9777 40.082 97.8171 40.5937 98.2283C40.7593 98.3614 40.6869 98.5806 40.4598 98.6348C39.8441 98.7819 39.0489 99.1899 39.1292 100.316C39.2392 101.873 41.4692 101.736 42.1038 101.665C42.2079 101.653 42.313 101.681 42.3834 101.741C42.9278 102.212 45.3798 104.209 48.0342 104.45C48.2642 104.471 48.4417 104.293 48.3674 104.122L47.2182 101.515C47.1646 101.394 47.239 101.261 47.3887 101.209L47.9578 101.013Z" fill="url(#paint12_linear_1218_31122)"/>
<path d="M48.4189 101.383C48.4189 101.383 45.5335 99.8365 45.3223 101.139C45.1111 102.441 47.9211 103.025 49.3123 102.54L48.4189 101.383Z" fill="url(#paint13_linear_1218_31122)"/>
<defs>
<linearGradient id="paint0_linear_1218_31122" x1="247.096" y1="110.286" x2="273.942" y2="110.286" gradientUnits="userSpaceOnUse">
<stop stop-color="#DAE3FE"/>
<stop offset="1" stop-color="#E9EFFD"/>
</linearGradient>
<linearGradient id="paint1_linear_1218_31122" x1="34.8803" y1="378.123" x2="35.7345" y2="368.279" gradientUnits="userSpaceOnUse">
<stop stop-color="#4F52FF"/>
<stop offset="1" stop-color="#4042E2"/>
</linearGradient>
<linearGradient id="paint2_linear_1218_31122" x1="51.6364" y1="196.327" x2="56.0277" y2="196.327" gradientUnits="userSpaceOnUse">
<stop stop-color="#FEBBBA"/>
<stop offset="1" stop-color="#FF928E"/>
</linearGradient>
<linearGradient id="paint3_linear_1218_31122" x1="-763" y1="986.644" x2="-724.141" y2="922.53" gradientUnits="userSpaceOnUse">
<stop stop-color="#09005D"/>
<stop offset="1" stop-color="#1A0F91"/>
</linearGradient>
<linearGradient id="paint4_linear_1218_31122" x1="13.622" y1="376.279" x2="14.4762" y2="366.434" gradientUnits="userSpaceOnUse">
<stop stop-color="#4F52FF"/>
<stop offset="1" stop-color="#4042E2"/>
</linearGradient>
<linearGradient id="paint5_linear_1218_31122" x1="35.8102" y1="196.151" x2="39.6016" y2="196.151" gradientUnits="userSpaceOnUse">
<stop stop-color="#FEBBBA"/>
<stop offset="1" stop-color="#FF928E"/>
</linearGradient>
<linearGradient id="paint6_linear_1218_31122" x1="-770.203" y1="982.278" x2="-731.344" y2="918.164" gradientUnits="userSpaceOnUse">
<stop stop-color="#09005D"/>
<stop offset="1" stop-color="#1A0F91"/>
</linearGradient>
<linearGradient id="paint7_linear_1218_31122" x1="80.4814" y1="94.9018" x2="101.601" y2="89.6673" gradientUnits="userSpaceOnUse">
<stop stop-color="#FEBBBA"/>
<stop offset="1" stop-color="#FF928E"/>
</linearGradient>
<linearGradient id="paint8_linear_1218_31122" x1="93.228" y1="91.5708" x2="95.6984" y2="79.4749" gradientUnits="userSpaceOnUse">
<stop stop-color="#FEBBBA"/>
<stop offset="1" stop-color="#FF928E"/>
</linearGradient>
<linearGradient id="paint9_linear_1218_31122" x1="67.3698" y1="107.907" x2="65.3024" y2="119.532" gradientUnits="userSpaceOnUse">
<stop stop-color="#4F52FF"/>
<stop offset="1" stop-color="#4042E2"/>
</linearGradient>
<linearGradient id="paint10_linear_1218_31122" x1="65.6297" y1="112.69" x2="64.6497" y2="120.22" gradientUnits="userSpaceOnUse">
<stop stop-color="#4F52FF"/>
<stop offset="1" stop-color="#4042E2"/>
</linearGradient>
<linearGradient id="paint11_linear_1218_31122" x1="46.8986" y1="129.353" x2="55.7435" y2="129.353" gradientUnits="userSpaceOnUse">
<stop stop-color="#FEBBBA"/>
<stop offset="1" stop-color="#FF928E"/>
</linearGradient>
<linearGradient id="paint12_linear_1218_31122" x1="37.4355" y1="90.3228" x2="50.2341" y2="103.267" gradientUnits="userSpaceOnUse">
<stop stop-color="#09005D"/>
<stop offset="1" stop-color="#1A0F91"/>
</linearGradient>
<linearGradient id="paint13_linear_1218_31122" x1="53.0686" y1="104.59" x2="43.606" y2="97.1994" gradientUnits="userSpaceOnUse">
<stop stop-color="#FEBBBA"/>
<stop offset="1" stop-color="#FF928E"/>
</linearGradient>
</defs>
</svg>
