<svg width="300" height="216" viewBox="0 0 300 216" fill="none" xmlns="http://www.w3.org/2000/svg">
<path d="M268.089 213.596C266.409 215.861 63.593 213.596 63.593 213.596C63.593 213.596 11.9632 222.475 7.94409 175.247C3.91828 128.011 20.6802 112.03 46.159 101.855C71.6379 91.6791 43.921 72.9523 57.5576 39.3592C76.3425 -6.90775 126.312 43.4819 160.145 9.5683C186.968 -17.3164 275.644 14.7835 234.27 76.718C211.6 110.632 333.793 124.784 268.089 213.596Z" fill="#FFF8EA"/>
<path opacity="0.7" d="M180.314 213.868C180.314 215.019 145.393 215.958 102.319 215.958C59.2445 215.958 24.3228 215.026 24.3228 213.868C24.3228 212.717 59.2445 211.777 102.319 211.777C145.393 211.785 180.314 212.717 180.314 213.868Z" fill="url(#paint0_radial_1218_31241)"/>
<path opacity="0.6" d="M42.4088 214.121C42.4088 215.163 32.9189 216.001 21.2044 216.001C9.49661 216.001 0 215.156 0 214.121C0 213.08 9.48989 212.242 21.2044 212.242C32.9122 212.235 42.4088 213.08 42.4088 214.121Z" fill="url(#paint1_radial_1218_31241)"/>
<path opacity="0.7" d="M300 213.11C300 214.472 260.891 215.579 212.649 215.579C164.406 215.579 125.297 214.472 125.297 213.11C125.297 211.748 164.406 210.641 212.649 210.641C260.891 210.641 300 211.748 300 213.11Z" fill="url(#paint2_radial_1218_31241)"/>
<path d="M217.232 210.185C217.232 212.151 215.747 213.761 213.932 213.761H163.573C161.758 213.761 160.273 212.151 160.273 210.185V117.381C160.273 115.414 161.758 113.805 163.573 113.805H213.932C215.747 113.805 217.232 115.414 217.232 117.381V210.185Z" fill="url(#paint3_linear_1218_31241)"/>
<path d="M214 118.73H163.795V130.297H214V118.73Z" fill="#699DEE"/>
<path d="M183.386 120.992H166.443V121.903H183.386V120.992Z" fill="url(#paint4_linear_1218_31241)"/>
<path d="M183.386 123.031H166.443V123.942H183.386V123.031Z" fill="url(#paint5_linear_1218_31241)"/>
<path d="M183.386 125.078H166.443V125.988H183.386V125.078Z" fill="url(#paint6_linear_1218_31241)"/>
<path d="M183.386 127.117H166.443V128.028H183.386V127.117Z" fill="url(#paint7_linear_1218_31241)"/>
<path d="M191.787 120.992H190.114V128.021H191.787V120.992Z" fill="url(#paint8_linear_1218_31241)"/>
<path d="M194.926 120.992H193.252V128.021H194.926V120.992Z" fill="url(#paint9_linear_1218_31241)"/>
<path d="M198.064 120.992H196.391V128.021H198.064V120.992Z" fill="url(#paint10_linear_1218_31241)"/>
<path d="M202.42 121.717C202.42 121.965 202.231 122.169 202.003 122.169C201.774 122.169 201.586 121.965 201.586 121.717C201.586 121.47 201.774 121.266 202.003 121.266C202.238 121.266 202.42 121.47 202.42 121.717Z" fill="url(#paint11_linear_1218_31241)"/>
<path d="M205.35 121.717C205.35 121.965 205.162 122.169 204.933 122.169C204.705 122.169 204.516 121.965 204.516 121.717C204.516 121.47 204.705 121.266 204.933 121.266C205.162 121.266 205.35 121.47 205.35 121.717Z" fill="url(#paint12_linear_1218_31241)"/>
<path d="M208.28 121.717C208.28 121.965 208.092 122.169 207.864 122.169C207.635 122.169 207.447 121.965 207.447 121.717C207.447 121.47 207.635 121.266 207.864 121.266C208.092 121.266 208.28 121.47 208.28 121.717Z" fill="url(#paint13_linear_1218_31241)"/>
<path d="M205.35 124.323C205.35 124.57 205.162 124.774 204.933 124.774C204.705 124.774 204.516 124.57 204.516 124.323C204.516 124.075 204.705 123.871 204.933 123.871C205.162 123.871 205.35 124.068 205.35 124.323Z" fill="url(#paint14_linear_1218_31241)"/>
<path d="M208.28 124.323C208.28 124.57 208.092 124.774 207.864 124.774C207.635 124.774 207.447 124.57 207.447 124.323C207.447 124.075 207.635 123.871 207.864 123.871C208.092 123.871 208.28 124.068 208.28 124.323Z" fill="url(#paint15_linear_1218_31241)"/>
<path d="M211.21 124.323C211.21 124.57 211.022 124.774 210.794 124.774C210.565 124.774 210.377 124.57 210.377 124.323C210.377 124.075 210.565 123.871 210.794 123.871C211.022 123.871 211.21 124.068 211.21 124.323Z" fill="url(#paint16_linear_1218_31241)"/>
<path d="M205.35 126.932C205.35 127.18 205.162 127.384 204.933 127.384C204.705 127.384 204.516 127.18 204.516 126.932C204.516 126.684 204.705 126.48 204.933 126.48C205.162 126.48 205.35 126.677 205.35 126.932Z" fill="url(#paint17_linear_1218_31241)"/>
<path d="M208.28 126.932C208.28 127.18 208.092 127.384 207.864 127.384C207.635 127.384 207.447 127.18 207.447 126.932C207.447 126.684 207.635 126.48 207.864 126.48C208.092 126.48 208.28 126.677 208.28 126.932Z" fill="url(#paint18_linear_1218_31241)"/>
<path d="M214 133.855H163.795V145.422H214V133.855Z" fill="#699DEE"/>
<path d="M183.386 136.121H166.443V137.032H183.386V136.121Z" fill="url(#paint19_linear_1218_31241)"/>
<path d="M183.386 138.16H166.443V139.071H183.386V138.16Z" fill="url(#paint20_linear_1218_31241)"/>
<path d="M183.386 140.203H166.443V141.114H183.386V140.203Z" fill="url(#paint21_linear_1218_31241)"/>
<path d="M183.386 142.238H166.443V143.149H183.386V142.238Z" fill="url(#paint22_linear_1218_31241)"/>
<path d="M191.787 136.121H190.114V143.15H191.787V136.121Z" fill="url(#paint23_linear_1218_31241)"/>
<path d="M194.926 136.121H193.252V143.15H194.926V136.121Z" fill="url(#paint24_linear_1218_31241)"/>
<path d="M198.064 136.121H196.391V143.15H198.064V136.121Z" fill="url(#paint25_linear_1218_31241)"/>
<path d="M202.42 136.834C202.42 137.082 202.231 137.286 202.003 137.286C201.774 137.286 201.586 137.082 201.586 136.834C201.586 136.587 201.774 136.383 202.003 136.383C202.238 136.383 202.42 136.587 202.42 136.834Z" fill="url(#paint26_linear_1218_31241)"/>
<path d="M205.35 136.834C205.35 137.082 205.162 137.286 204.933 137.286C204.705 137.286 204.516 137.082 204.516 136.834C204.516 136.587 204.705 136.383 204.933 136.383C205.162 136.383 205.35 136.587 205.35 136.834Z" fill="url(#paint27_linear_1218_31241)"/>
<path d="M208.28 136.834C208.28 137.082 208.092 137.286 207.864 137.286C207.635 137.286 207.447 137.082 207.447 136.834C207.447 136.587 207.635 136.383 207.864 136.383C208.092 136.383 208.28 136.587 208.28 136.834Z" fill="url(#paint28_linear_1218_31241)"/>
<path d="M205.35 139.444C205.35 139.691 205.162 139.895 204.933 139.895C204.705 139.895 204.516 139.691 204.516 139.444C204.516 139.196 204.705 138.992 204.933 138.992C205.162 138.992 205.35 139.196 205.35 139.444Z" fill="url(#paint29_linear_1218_31241)"/>
<path d="M208.28 139.444C208.28 139.691 208.092 139.895 207.864 139.895C207.635 139.895 207.447 139.691 207.447 139.444C207.447 139.196 207.635 138.992 207.864 138.992C208.092 138.992 208.28 139.196 208.28 139.444Z" fill="url(#paint30_linear_1218_31241)"/>
<path d="M211.21 139.444C211.21 139.691 211.022 139.895 210.794 139.895C210.565 139.895 210.377 139.691 210.377 139.444C210.377 139.196 210.565 138.992 210.794 138.992C211.022 138.992 211.21 139.196 211.21 139.444Z" fill="url(#paint31_linear_1218_31241)"/>
<path d="M205.35 142.049C205.35 142.297 205.162 142.501 204.933 142.501C204.705 142.501 204.516 142.297 204.516 142.049C204.516 141.802 204.705 141.598 204.933 141.598C205.162 141.598 205.35 141.802 205.35 142.049Z" fill="url(#paint32_linear_1218_31241)"/>
<path d="M208.28 142.049C208.28 142.297 208.092 142.501 207.864 142.501C207.635 142.501 207.447 142.297 207.447 142.049C207.447 141.802 207.635 141.598 207.864 141.598C208.092 141.598 208.28 141.802 208.28 142.049Z" fill="url(#paint33_linear_1218_31241)"/>
<path d="M214 148.969H163.795V160.528H214V148.969Z" fill="#699DEE"/>
<path d="M183.386 151.242H166.443V152.153H183.386V151.242Z" fill="url(#paint34_linear_1218_31241)"/>
<path d="M183.386 153.281H166.443V154.192H183.386V153.281Z" fill="url(#paint35_linear_1218_31241)"/>
<path d="M183.386 155.324H166.443V156.227H183.386V155.324Z" fill="url(#paint36_linear_1218_31241)"/>
<path d="M183.386 157.359H166.443V158.27H183.386V157.359Z" fill="url(#paint37_linear_1218_31241)"/>
<path d="M191.787 151.242H190.114V158.271H191.787V151.242Z" fill="url(#paint38_linear_1218_31241)"/>
<path d="M194.926 151.242H193.252V158.271H194.926V151.242Z" fill="url(#paint39_linear_1218_31241)"/>
<path d="M198.064 151.242H196.391V158.271H198.064V151.242Z" fill="url(#paint40_linear_1218_31241)"/>
<path d="M202.42 151.956C202.42 152.203 202.231 152.407 202.003 152.407C201.774 152.407 201.586 152.203 201.586 151.956C201.586 151.708 201.774 151.504 202.003 151.504C202.238 151.504 202.42 151.708 202.42 151.956Z" fill="url(#paint41_linear_1218_31241)"/>
<path d="M205.35 151.956C205.35 152.203 205.162 152.407 204.933 152.407C204.705 152.407 204.516 152.203 204.516 151.956C204.516 151.708 204.705 151.504 204.933 151.504C205.162 151.504 205.35 151.708 205.35 151.956Z" fill="url(#paint42_linear_1218_31241)"/>
<path d="M208.28 151.956C208.28 152.203 208.092 152.407 207.864 152.407C207.635 152.407 207.447 152.203 207.447 151.956C207.447 151.708 207.635 151.504 207.864 151.504C208.092 151.504 208.28 151.708 208.28 151.956Z" fill="url(#paint43_linear_1218_31241)"/>
<path d="M205.35 154.565C205.35 154.813 205.162 155.017 204.933 155.017C204.705 155.017 204.516 154.813 204.516 154.565C204.516 154.317 204.705 154.113 204.933 154.113C205.162 154.113 205.35 154.317 205.35 154.565Z" fill="url(#paint44_linear_1218_31241)"/>
<path d="M208.28 154.565C208.28 154.813 208.092 155.017 207.864 155.017C207.635 155.017 207.447 154.813 207.447 154.565C207.447 154.317 207.635 154.113 207.864 154.113C208.092 154.113 208.28 154.317 208.28 154.565Z" fill="url(#paint45_linear_1218_31241)"/>
<path d="M211.21 154.565C211.21 154.813 211.022 155.017 210.794 155.017C210.565 155.017 210.377 154.813 210.377 154.565C210.377 154.317 210.565 154.113 210.794 154.113C211.022 154.113 211.21 154.317 211.21 154.565Z" fill="url(#paint46_linear_1218_31241)"/>
<path d="M205.35 157.174C205.35 157.422 205.162 157.626 204.933 157.626C204.705 157.626 204.516 157.422 204.516 157.174C204.516 156.927 204.705 156.723 204.933 156.723C205.162 156.723 205.35 156.927 205.35 157.174Z" fill="url(#paint47_linear_1218_31241)"/>
<path d="M208.28 157.174C208.28 157.422 208.092 157.626 207.864 157.626C207.635 157.626 207.447 157.422 207.447 157.174C207.447 156.927 207.635 156.723 207.864 156.723C208.092 156.723 208.28 156.927 208.28 157.174Z" fill="url(#paint48_linear_1218_31241)"/>
<path d="M214 164.086H163.795V175.653H214V164.086Z" fill="#699DEE"/>
<path d="M183.386 166.352H166.443V167.255H183.386V166.352Z" fill="url(#paint49_linear_1218_31241)"/>
<path d="M183.386 168.391H166.443V169.301H183.386V168.391Z" fill="url(#paint50_linear_1218_31241)"/>
<path d="M183.386 170.437H166.443V171.348H183.386V170.437Z" fill="url(#paint51_linear_1218_31241)"/>
<path d="M183.386 172.477H166.443V173.38H183.386V172.477Z" fill="url(#paint52_linear_1218_31241)"/>
<path d="M191.787 166.352H190.114V173.38H191.787V166.352Z" fill="url(#paint53_linear_1218_31241)"/>
<path d="M194.926 166.352H193.252V173.38H194.926V166.352Z" fill="url(#paint54_linear_1218_31241)"/>
<path d="M198.064 166.352H196.391V173.38H198.064V166.352Z" fill="url(#paint55_linear_1218_31241)"/>
<path d="M202.42 167.073C202.42 167.32 202.231 167.524 202.003 167.524C201.774 167.524 201.586 167.32 201.586 167.073C201.586 166.825 201.774 166.621 202.003 166.621C202.238 166.621 202.42 166.825 202.42 167.073Z" fill="url(#paint56_linear_1218_31241)"/>
<path d="M205.35 167.073C205.35 167.32 205.162 167.524 204.933 167.524C204.705 167.524 204.516 167.32 204.516 167.073C204.516 166.825 204.705 166.621 204.933 166.621C205.162 166.621 205.35 166.825 205.35 167.073Z" fill="url(#paint57_linear_1218_31241)"/>
<path d="M208.28 167.073C208.28 167.32 208.092 167.524 207.864 167.524C207.635 167.524 207.447 167.32 207.447 167.073C207.447 166.825 207.635 166.621 207.864 166.621C208.092 166.621 208.28 166.825 208.28 167.073Z" fill="url(#paint58_linear_1218_31241)"/>
<path d="M205.35 169.678C205.35 169.926 205.162 170.13 204.933 170.13C204.705 170.13 204.516 169.926 204.516 169.678C204.516 169.431 204.705 169.227 204.933 169.227C205.162 169.227 205.35 169.423 205.35 169.678Z" fill="url(#paint59_linear_1218_31241)"/>
<path d="M208.28 169.678C208.28 169.926 208.092 170.13 207.864 170.13C207.635 170.13 207.447 169.926 207.447 169.678C207.447 169.431 207.635 169.227 207.864 169.227C208.092 169.227 208.28 169.423 208.28 169.678Z" fill="url(#paint60_linear_1218_31241)"/>
<path d="M211.21 169.678C211.21 169.926 211.022 170.13 210.794 170.13C210.565 170.13 210.377 169.926 210.377 169.678C210.377 169.431 210.565 169.227 210.794 169.227C211.022 169.227 211.21 169.423 211.21 169.678Z" fill="url(#paint61_linear_1218_31241)"/>
<path d="M205.35 172.288C205.35 172.535 205.162 172.739 204.933 172.739C204.705 172.739 204.516 172.535 204.516 172.288C204.516 172.04 204.705 171.836 204.933 171.836C205.162 171.836 205.35 172.033 205.35 172.288Z" fill="url(#paint62_linear_1218_31241)"/>
<path d="M208.28 172.288C208.28 172.535 208.092 172.739 207.864 172.739C207.635 172.739 207.447 172.535 207.447 172.288C207.447 172.04 207.635 171.836 207.864 171.836C208.092 171.836 208.28 172.033 208.28 172.288Z" fill="url(#paint63_linear_1218_31241)"/>
<path d="M214 179.211H163.795V190.77H214V179.211Z" fill="#699DEE"/>
<path d="M183.386 181.477H166.443V182.387H183.386V181.477Z" fill="url(#paint64_linear_1218_31241)"/>
<path d="M183.386 183.516H166.443V184.419H183.386V183.516Z" fill="url(#paint65_linear_1218_31241)"/>
<path d="M183.386 185.559H166.443V186.469H183.386V185.559Z" fill="url(#paint66_linear_1218_31241)"/>
<path d="M183.386 187.594H166.443V188.504H183.386V187.594Z" fill="url(#paint67_linear_1218_31241)"/>
<path d="M191.787 181.477H190.114V188.505H191.787V181.477Z" fill="url(#paint68_linear_1218_31241)"/>
<path d="M194.926 181.477H193.252V188.505H194.926V181.477Z" fill="url(#paint69_linear_1218_31241)"/>
<path d="M198.064 181.477H196.391V188.505H198.064V181.477Z" fill="url(#paint70_linear_1218_31241)"/>
<path d="M202.42 182.198C202.42 182.446 202.231 182.65 202.003 182.65C201.774 182.65 201.586 182.446 201.586 182.198C201.586 181.95 201.774 181.746 202.003 181.746C202.238 181.739 202.42 181.943 202.42 182.198Z" fill="url(#paint71_linear_1218_31241)"/>
<path d="M205.35 182.198C205.35 182.446 205.162 182.65 204.933 182.65C204.705 182.65 204.516 182.446 204.516 182.198C204.516 181.95 204.705 181.746 204.933 181.746C205.162 181.739 205.35 181.943 205.35 182.198Z" fill="url(#paint72_linear_1218_31241)"/>
<path d="M208.28 182.198C208.28 182.446 208.092 182.65 207.864 182.65C207.635 182.65 207.447 182.446 207.447 182.198C207.447 181.95 207.635 181.746 207.864 181.746C208.092 181.739 208.28 181.943 208.28 182.198Z" fill="url(#paint73_linear_1218_31241)"/>
<path d="M205.35 184.807C205.35 185.055 205.162 185.259 204.933 185.259C204.705 185.259 204.516 185.055 204.516 184.807C204.516 184.56 204.705 184.356 204.933 184.356C205.162 184.348 205.35 184.552 205.35 184.807Z" fill="url(#paint74_linear_1218_31241)"/>
<path d="M208.28 184.807C208.28 185.055 208.092 185.259 207.864 185.259C207.635 185.259 207.447 185.055 207.447 184.807C207.447 184.56 207.635 184.356 207.864 184.356C208.092 184.348 208.28 184.552 208.28 184.807Z" fill="url(#paint75_linear_1218_31241)"/>
<path d="M211.21 184.807C211.21 185.055 211.022 185.259 210.794 185.259C210.565 185.259 210.377 185.055 210.377 184.807C210.377 184.56 210.565 184.356 210.794 184.356C211.022 184.348 211.21 184.552 211.21 184.807Z" fill="url(#paint76_linear_1218_31241)"/>
<path d="M205.35 187.417C205.35 187.664 205.162 187.868 204.933 187.868C204.705 187.868 204.516 187.664 204.516 187.417C204.516 187.169 204.705 186.965 204.933 186.965C205.162 186.958 205.35 187.162 205.35 187.417Z" fill="url(#paint77_linear_1218_31241)"/>
<path d="M208.28 187.417C208.28 187.664 208.092 187.868 207.864 187.868C207.635 187.868 207.447 187.664 207.447 187.417C207.447 187.169 207.635 186.965 207.864 186.965C208.092 186.958 208.28 187.162 208.28 187.417Z" fill="url(#paint78_linear_1218_31241)"/>
<path d="M214 194.328H163.795V205.888H214V194.328Z" fill="#699DEE"/>
<path d="M183.386 196.594H166.443V197.504H183.386V196.594Z" fill="url(#paint79_linear_1218_31241)"/>
<path d="M183.386 198.633H166.443V199.543H183.386V198.633Z" fill="url(#paint80_linear_1218_31241)"/>
<path d="M183.386 200.676H166.443V201.579H183.386V200.676Z" fill="url(#paint81_linear_1218_31241)"/>
<path d="M183.386 202.711H166.443V203.622H183.386V202.711Z" fill="url(#paint82_linear_1218_31241)"/>
<path d="M191.787 196.594H190.114V203.623H191.787V196.594Z" fill="url(#paint83_linear_1218_31241)"/>
<path d="M194.926 196.594H193.252V203.623H194.926V196.594Z" fill="url(#paint84_linear_1218_31241)"/>
<path d="M198.064 196.594H196.391V203.623H198.064V196.594Z" fill="url(#paint85_linear_1218_31241)"/>
<path d="M202.42 197.307C202.42 197.555 202.231 197.759 202.003 197.759C201.774 197.759 201.586 197.555 201.586 197.307C201.586 197.059 201.774 196.855 202.003 196.855C202.238 196.855 202.42 197.059 202.42 197.307Z" fill="url(#paint86_linear_1218_31241)"/>
<path d="M205.35 197.307C205.35 197.555 205.162 197.759 204.933 197.759C204.705 197.759 204.516 197.555 204.516 197.307C204.516 197.059 204.705 196.855 204.933 196.855C205.162 196.855 205.35 197.059 205.35 197.307Z" fill="url(#paint87_linear_1218_31241)"/>
<path d="M208.28 197.307C208.28 197.555 208.092 197.759 207.864 197.759C207.635 197.759 207.447 197.555 207.447 197.307C207.447 197.059 207.635 196.855 207.864 196.855C208.092 196.855 208.28 197.059 208.28 197.307Z" fill="url(#paint88_linear_1218_31241)"/>
<path d="M205.35 199.913C205.35 200.16 205.162 200.364 204.933 200.364C204.705 200.364 204.516 200.16 204.516 199.913C204.516 199.665 204.705 199.461 204.933 199.461C205.162 199.461 205.35 199.665 205.35 199.913Z" fill="url(#paint89_linear_1218_31241)"/>
<path d="M208.28 199.913C208.28 200.16 208.092 200.364 207.864 200.364C207.635 200.364 207.447 200.16 207.447 199.913C207.447 199.665 207.635 199.461 207.864 199.461C208.092 199.461 208.28 199.665 208.28 199.913Z" fill="url(#paint90_linear_1218_31241)"/>
<path d="M211.21 199.913C211.21 200.16 211.022 200.364 210.794 200.364C210.565 200.364 210.377 200.16 210.377 199.913C210.377 199.665 210.565 199.461 210.794 199.461C211.022 199.461 211.21 199.665 211.21 199.913Z" fill="url(#paint91_linear_1218_31241)"/>
<path d="M205.35 202.522C205.35 202.77 205.162 202.974 204.933 202.974C204.705 202.974 204.516 202.77 204.516 202.522C204.516 202.274 204.705 202.07 204.933 202.07C205.162 202.07 205.35 202.274 205.35 202.522Z" fill="url(#paint92_linear_1218_31241)"/>
<path d="M208.28 202.522C208.28 202.77 208.092 202.974 207.864 202.974C207.635 202.974 207.447 202.77 207.447 202.522C207.447 202.274 207.635 202.07 207.864 202.07C208.092 202.07 208.28 202.274 208.28 202.522Z" fill="url(#paint93_linear_1218_31241)"/>
<path d="M182.721 189.37C182.721 191.548 181.081 193.325 179.071 193.325H24.1011C22.0916 193.325 20.4517 191.548 20.4517 189.37V74.6934C20.4517 72.5155 22.0916 70.7383 24.1011 70.7383H179.071C181.081 70.7383 182.721 72.5155 182.721 74.6934V189.37Z" fill="#A0301D"/>
<path d="M20.4517 70.7383V173.55C20.4517 175.728 22.0916 177.505 24.1011 177.505H179.071C181.081 177.505 182.721 175.728 182.721 173.55V70.7383H20.4517Z" fill="#C74A2E"/>
<path d="M175.637 79.3398H27.5355V170.293H175.637V79.3398Z" fill="#FFF8EA"/>
<path d="M121.003 206.807C119.692 202.043 118.899 193.324 118.899 193.324H101.969H85.0461C85.0461 193.324 84.2598 202.043 82.9492 206.807C81.6387 211.57 74.2927 211.643 74.2927 211.643H101.976H129.659C129.659 211.643 122.313 211.57 121.003 206.807Z" fill="#A0301D"/>
<path d="M175.637 79.3398L27.5355 170.293H175.637V79.3398Z" fill="#FFF8EA"/>
<path d="M129.666 211.641H74.5547V213.753H129.666V211.641Z" fill="#A0301D"/>
<path d="M99.4351 102.422H45.1371V104.257H99.4351V102.422Z" fill="#81B5FC"/>
<path d="M99.4351 107.871H45.1371V109.707H99.4351V107.871Z" fill="#81B5FC"/>
<path d="M99.4351 118.773H45.1371V120.609H99.4351V118.773Z" fill="#81B5FC"/>
<path d="M99.4351 113.324H45.1371V115.16H99.4351V113.324Z" fill="#81B5FC"/>
<path d="M99.4351 124.223H45.1371V126.058H99.4351V124.223Z" fill="#81B5FC"/>
<path d="M57.6313 132.934H45.1372V143.998H57.6313V132.934Z" fill="#E9F3FE"/>
<path d="M157.127 152.098H44.5055V155.266H157.127V152.098Z" fill="#699DEE"/>
<path d="M72.1216 132.934H59.6274V143.998H72.1216V132.934Z" fill="#E9F3FE"/>
<path d="M86.2289 132.934H73.7347V143.998H86.2289V132.934Z" fill="#E9F3FE"/>
<path d="M100.719 132.934H88.225V143.998H100.719V132.934Z" fill="#E9F3FE"/>
<path d="M120.337 118.004H127.629C127.831 115.396 128.846 112.854 130.687 110.866C132.616 108.775 135.103 107.675 137.623 107.537V99.6341C137.032 99.6559 136.441 99.6923 135.856 99.7725L134.801 96.6914L130.546 98.0025L131.131 101.164C129.888 101.739 128.705 102.482 127.582 103.378L125.351 101.309L122.226 104.696L124.081 107.056C123.207 108.273 122.488 109.569 121.917 110.924L119.175 110.327L117.965 114.937L120.525 115.972C120.418 116.642 120.364 117.327 120.337 118.004Z" fill="#CC7F31"/>
<path d="M138.914 107.537C141.367 107.726 143.773 108.826 145.648 110.858C147.49 112.854 148.505 115.396 148.706 118.003H155.998C155.972 117.348 155.918 116.692 155.83 116.044L158.586 114.937L157.376 110.326L154.439 110.96C153.888 109.642 153.196 108.374 152.356 107.187L154.325 104.689L151.2 101.302L148.874 103.458C147.779 102.569 146.616 101.833 145.406 101.251L146.011 97.9947L141.757 96.6836L140.688 99.7938C140.104 99.7064 139.512 99.6554 138.927 99.6335L138.914 107.537Z" fill="#E58E13"/>
<path d="M137.624 130.408C135.097 130.269 132.61 129.162 130.681 127.072C128.718 124.945 127.697 122.184 127.603 119.394H120.317C120.331 120.086 120.371 120.771 120.452 121.456L117.958 122.461L119.168 127.072L121.709 126.518C122.266 127.946 122.999 129.308 123.886 130.582L122.219 132.695L125.345 136.082L127.267 134.297C128.45 135.28 129.713 136.089 131.03 136.708L130.533 139.381L134.787 140.692L135.675 138.121C136.32 138.216 136.972 138.267 137.624 138.289V130.408Z" fill="#E58E13"/>
<path d="M156.018 119.402H148.733C148.639 122.192 147.617 124.945 145.655 127.08C143.78 129.112 141.374 130.212 138.921 130.401V138.304C139.566 138.275 140.218 138.217 140.856 138.115L141.75 140.722L146.004 139.411L145.494 136.643C146.791 136.01 148.027 135.216 149.177 134.24L151.2 136.111L154.325 132.724L152.55 130.474C153.404 129.221 154.11 127.895 154.647 126.504L157.376 127.094L158.586 122.483L155.897 121.398C155.965 120.728 156.005 120.065 156.018 119.402Z" fill="#CC7F31"/>
<path d="M120.774 26.2964C118.798 26.2964 116.91 26.7262 115.189 27.5055C115.7 25.6263 115.982 23.6305 115.982 21.5692C115.982 10.0243 107.346 0.671875 96.7001 0.671875C89.4685 0.671875 83.171 4.9912 79.871 11.3718C77.3843 10.1045 74.6019 9.39064 71.6716 9.39064C62.0271 9.39064 54.0427 17.0605 52.6179 27.0758C51.1998 26.5732 49.6943 26.2964 48.1216 26.2964C40.1103 26.2964 33.6179 33.3326 33.6179 42.015C33.6179 50.6973 40.1103 57.7335 48.1216 57.7335C48.6525 57.7335 49.1768 57.6971 49.6876 57.6388H119.222C119.733 57.6971 120.25 57.7335 120.774 57.7335C128.786 57.7335 135.278 50.6973 135.278 42.015C135.278 33.3326 128.786 26.2964 120.774 26.2964Z" fill="#E58E13"/>
<path d="M90.0733 28.7774H82.6937V49.6675H90.0733V28.7774Z" fill="white"/>
<path d="M86.3835 16.2657L75.3545 33.1933H97.4124L86.3835 16.2657Z" fill="white"/>
<path d="M222.273 87.2866V36.7221C222.273 35.6514 221.467 34.7773 220.479 34.7773H144.264C143.276 34.7773 142.469 35.6514 142.469 36.7221V87.2866H222.273Z" fill="#E9F3FE"/>
<path d="M220.472 34.7773H144.264C143.276 34.7773 142.469 35.6514 142.469 36.7221V40.131H222.273V36.7221C222.273 35.6514 221.46 34.7773 220.472 34.7773Z" fill="#E58E13"/>
<path d="M200.067 48.1758H148.189V49.3703H200.067V48.1758Z" fill="#E58E13"/>
<path d="M200.067 52.9375H148.189V54.132H200.067V52.9375Z" fill="#E58E13"/>
<path d="M200.067 57.7031H148.189V58.8977H200.067V57.7031Z" fill="#E58E13"/>
<path d="M200.067 62.4688H148.189V63.6633H200.067V62.4688Z" fill="#E58E13"/>
<path d="M200.067 67.2304H148.189V68.425H200.067V67.2304Z" fill="#E58E13"/>
<path d="M200.067 71.9922H148.189V73.1867H200.067V71.9922Z" fill="#E58E13"/>
<path d="M175.449 76.7578H148.189V77.9524H175.449V76.7578Z" fill="#E58E13"/>
<path d="M27.4346 210.981C27.4346 210.981 27.9588 212.03 28.3285 212.678C28.6981 213.326 30.412 214.856 28.7788 215.184C27.1389 215.504 25.8014 215.104 24.5312 214.215C23.2677 213.326 23.8591 211.068 23.8591 211.068C23.8591 211.068 25.7208 209.692 27.4346 210.981Z" fill="url(#paint94_linear_1218_31241)"/>
<path d="M12.3866 210.637C12.3866 210.637 11.7884 211.635 11.365 212.247C10.9416 212.858 9.12022 214.228 10.7265 214.701C12.3328 215.175 13.7039 214.891 15.0346 214.119C16.3653 213.346 15.9486 211.045 15.9486 211.045C15.9486 211.045 14.1945 209.508 12.3866 210.637Z" fill="url(#paint95_linear_1218_31241)"/>
<path d="M28.8661 160.462C28.8661 160.462 29.9684 179.691 29.6659 190.268C29.3702 200.844 27.4279 210.779 27.4279 210.779L23.8524 210.859C23.8524 210.859 22.2864 180.58 22.2864 177.113C22.2864 173.639 21.9907 172.189 21.9907 172.189L15.8881 210.859C15.8881 210.859 12.9108 210.859 12.3126 210.699C12.3126 210.699 12.0102 169.421 15.4311 160.397C15.4311 160.397 25.2369 159.559 28.8661 160.462Z" fill="#1C468A"/>
<path d="M31.9979 144.595C31.9979 144.595 34.814 153.729 35.7818 154.013C36.7496 154.297 38.8599 155.193 39.1893 154.013C39.5186 152.833 35.9901 143.262 35.9901 143.262L31.9979 144.595Z" fill="url(#paint96_linear_1218_31241)"/>
<path d="M24.6052 130.422C24.6052 130.422 23.7516 132.724 25.499 134.173C25.499 134.173 22.0916 137.99 18.2338 134.414C18.2338 134.414 19.9005 131.872 19.7392 128.812C19.7392 128.82 22.5956 131.471 24.6052 130.422Z" fill="#F6AEA6"/>
<path d="M19.0737 125.65C19.0737 128.906 20.9757 131.55 23.3213 131.55C25.6669 131.55 27.0245 128.724 27.253 125.475C27.5152 121.68 25.6669 119.75 23.3213 119.75C20.9757 119.75 19.0737 122.394 19.0737 125.65Z" fill="#F6AEA6"/>
<path d="M24.9949 133.48C24.9949 133.48 28.9199 135.447 30.1902 135.928C31.5411 136.445 32.5358 136.598 34.505 139.985C36.165 142.84 36.5481 143.984 36.5481 143.984L31.7024 145.863L29.303 141.551C29.303 141.551 29.4173 146.103 29.5315 148.405C29.6458 150.707 29.7466 160.394 29.7466 160.394C29.7466 160.394 17.1181 161.421 13.8786 159.972C13.8786 159.972 15.1152 144.654 13.7778 142.534L11.9766 146.227L7.04346 143.146C7.04346 143.146 10.2292 137.989 12.521 136.664C14.8128 135.331 18.6303 133.728 18.6303 133.728C18.6303 133.728 21.9974 138.535 24.9949 133.48Z" fill="#E58E13"/>
<path d="M22.2325 148.699C22.2325 148.699 24.0203 149.165 24.6319 149.828C25.2435 150.491 24.6453 150.659 24.6453 150.659L22.2325 148.699Z" fill="#F6AEA6"/>
<path d="M11.607 145.995L10.3569 148.646L18.6236 149.032C18.6236 149.032 20.9154 148.522 21.359 148.464C21.8093 148.406 23.261 149.134 23.8726 149.739C24.4842 150.343 25.4587 151.494 25.405 151.734C25.3512 151.975 24.6254 151.727 24.2288 151.487C23.839 151.246 23.6441 151.064 22.4209 151.064C21.191 151.064 20.0215 151.676 18.8454 151.37C17.6692 151.064 8.00461 153.366 8.00461 153.366C8.00461 153.366 4.87268 153.854 4.48287 152.703C4.09305 151.552 7.52743 143.445 7.52743 143.445C7.52743 143.445 10.4241 145.048 11.607 145.995Z" fill="#F6AEA6"/>
<path d="M20.3306 124.594C20.3306 124.594 20.6935 122.525 21.211 122.365C21.211 122.365 22.8845 123.37 24.0069 122.809C25.1226 122.241 27.6967 124.266 28.8123 121.717C29.928 119.175 26.2853 117.434 24.6387 117.477C20.3575 117.601 19.8736 119.655 19.4233 121.192C19.4233 121.192 18.3076 121.432 18.0925 123.414C17.9312 124.863 18.3748 126.327 19.141 126.662C19.141 126.67 20.0416 125.781 20.3306 124.594Z" fill="url(#paint97_linear_1218_31241)"/>
<path d="M24.9949 133.48C24.9949 133.48 22.9988 135.615 21.9637 135.768L23.3886 137.945C23.3886 137.945 26.3928 136.19 26.7826 134.362L24.9949 133.48Z" fill="#CC7F31"/>
<path d="M21.9639 135.773L20.7474 138.111C20.7474 138.111 17.434 136.377 16.8157 134.513L18.6169 133.719C18.6236 133.719 20.0887 135.627 21.9639 135.773Z" fill="#CC7F31"/>
<path d="M20.2297 140.734H16.2443V145.097C16.2443 145.097 18.1866 146.605 18.2605 146.481C18.3345 146.358 20.1961 145.097 20.1961 145.097L20.2297 140.734Z" fill="#CC7F31"/>
<path d="M18.8993 125.564C19.1614 126.329 19.7327 126.803 20.1762 126.628C20.6198 126.446 20.7677 125.681 20.5056 124.916C20.2435 124.151 19.6722 123.678 19.2286 123.853C18.7783 124.035 18.6372 124.8 18.8993 125.564Z" fill="#F6AEA6"/>
<path d="M20.1895 152.402L37.9057 152.519L41.8441 153.291L26.2987 153.16L20.1895 152.402Z" fill="#C74A2E"/>
<path d="M26.1709 154.012H41.7365L43.746 140.77H28.1804L26.1709 154.012Z" fill="#C74A2E"/>
<path d="M20.1895 153.247L26.171 154.012L26.2987 153.16L20.1895 152.402V153.247Z" fill="#C74A2E"/>
<path d="M39.1895 154.013H34.1018C34.1018 154.013 33.2079 153.488 32.7576 153.219C32.314 152.942 31.8637 153.211 32.0855 153.612C32.3073 154.013 30.291 154.013 29.6526 154.013C29.0141 154.013 28.1202 153.612 27.6699 153.612C27.2196 153.612 26.8298 153.911 27.6699 154.45C28.51 154.996 29.7399 155.848 31.6957 155.724C33.6515 155.6 35.7753 156.394 36.9447 156.212C38.1276 156.03 39.1895 154.013 39.1895 154.013Z" fill="#F6AEA6"/>
<defs>
<radialGradient id="paint0_radial_1218_31241" cx="0" cy="0" r="1" gradientUnits="userSpaceOnUse" gradientTransform="translate(102.32 213.869) scale(78.031 2.08645)">
<stop offset="0.2452"/>
<stop offset="0.3174" stop-color="#060606" stop-opacity="0.9044"/>
<stop offset="0.4112" stop-color="#161616" stop-opacity="0.78"/>
<stop offset="0.5169" stop-color="#313131" stop-opacity="0.6398"/>
<stop offset="0.6314" stop-color="#565656" stop-opacity="0.4879"/>
<stop offset="0.7531" stop-color="#868686" stop-opacity="0.3266"/>
<stop offset="0.8787" stop-color="#C0C0C0" stop-opacity="0.1602"/>
<stop offset="0.9995" stop-color="white" stop-opacity="0"/>
</radialGradient>
<radialGradient id="paint1_radial_1218_31241" cx="0" cy="0" r="1" gradientUnits="userSpaceOnUse" gradientTransform="translate(21.2033 214.119) scale(21.209 1.88162)">
<stop offset="0.2452"/>
<stop offset="0.3174" stop-color="#060606" stop-opacity="0.9044"/>
<stop offset="0.4112" stop-color="#161616" stop-opacity="0.78"/>
<stop offset="0.5169" stop-color="#313131" stop-opacity="0.6398"/>
<stop offset="0.6314" stop-color="#565656" stop-opacity="0.4879"/>
<stop offset="0.7531" stop-color="#868686" stop-opacity="0.3266"/>
<stop offset="0.8787" stop-color="#C0C0C0" stop-opacity="0.1602"/>
<stop offset="0.9995" stop-color="white" stop-opacity="0"/>
</radialGradient>
<radialGradient id="paint2_radial_1218_31241" cx="0" cy="0" r="1" gradientUnits="userSpaceOnUse" gradientTransform="translate(212.65 213.112) scale(87.3507 2.46867)">
<stop offset="0.2452"/>
<stop offset="0.3174" stop-color="#060606" stop-opacity="0.9044"/>
<stop offset="0.4112" stop-color="#161616" stop-opacity="0.78"/>
<stop offset="0.5169" stop-color="#313131" stop-opacity="0.6398"/>
<stop offset="0.6314" stop-color="#565656" stop-opacity="0.4879"/>
<stop offset="0.7531" stop-color="#868686" stop-opacity="0.3266"/>
<stop offset="0.8787" stop-color="#C0C0C0" stop-opacity="0.1602"/>
<stop offset="0.9995" stop-color="white" stop-opacity="0"/>
</radialGradient>
<linearGradient id="paint3_linear_1218_31241" x1="160.268" y1="163.781" x2="217.234" y2="163.781" gradientUnits="userSpaceOnUse">
<stop stop-color="#D0E3FF"/>
<stop offset="0.5257" stop-color="#ADCCFF"/>
<stop offset="0.9997" stop-color="#91BAFF"/>
</linearGradient>
<linearGradient id="paint4_linear_1218_31241" x1="166.441" y1="121.447" x2="183.386" y2="121.447" gradientUnits="userSpaceOnUse">
<stop stop-color="#00C4FF"/>
<stop offset="0.6781" stop-color="#0392EC"/>
<stop offset="1" stop-color="#0579E3"/>
</linearGradient>
<linearGradient id="paint5_linear_1218_31241" x1="166.441" y1="123.487" x2="183.386" y2="123.487" gradientUnits="userSpaceOnUse">
<stop stop-color="#00C4FF"/>
<stop offset="0.6781" stop-color="#0392EC"/>
<stop offset="1" stop-color="#0579E3"/>
</linearGradient>
<linearGradient id="paint6_linear_1218_31241" x1="166.441" y1="125.528" x2="183.386" y2="125.528" gradientUnits="userSpaceOnUse">
<stop stop-color="#00C4FF"/>
<stop offset="0.6781" stop-color="#0392EC"/>
<stop offset="1" stop-color="#0579E3"/>
</linearGradient>
<linearGradient id="paint7_linear_1218_31241" x1="166.441" y1="127.568" x2="183.386" y2="127.568" gradientUnits="userSpaceOnUse">
<stop stop-color="#00C4FF"/>
<stop offset="0.6781" stop-color="#0392EC"/>
<stop offset="1" stop-color="#0579E3"/>
</linearGradient>
<linearGradient id="paint8_linear_1218_31241" x1="190.113" y1="124.508" x2="191.786" y2="124.508" gradientUnits="userSpaceOnUse">
<stop stop-color="#F7ABC5"/>
<stop offset="1" stop-color="#F16D9A"/>
</linearGradient>
<linearGradient id="paint9_linear_1218_31241" x1="193.25" y1="124.508" x2="194.923" y2="124.508" gradientUnits="userSpaceOnUse">
<stop stop-color="#00E8DE"/>
<stop offset="1" stop-color="#00B6CB"/>
</linearGradient>
<linearGradient id="paint10_linear_1218_31241" x1="196.388" y1="124.508" x2="198.062" y2="124.508" gradientUnits="userSpaceOnUse">
<stop stop-color="#DFFFB1"/>
<stop offset="1" stop-color="#AAFF12"/>
</linearGradient>
<linearGradient id="paint11_linear_1218_31241" x1="201.586" y1="121.716" x2="202.423" y2="121.716" gradientUnits="userSpaceOnUse">
<stop stop-color="#ECF2FC"/>
<stop offset="0.1796" stop-color="#DFE9FA"/>
<stop offset="1" stop-color="#A6C4F0"/>
</linearGradient>
<linearGradient id="paint12_linear_1218_31241" x1="204.515" y1="121.716" x2="205.352" y2="121.716" gradientUnits="userSpaceOnUse">
<stop stop-color="#ECF2FC"/>
<stop offset="0.1796" stop-color="#DFE9FA"/>
<stop offset="1" stop-color="#A6C4F0"/>
</linearGradient>
<linearGradient id="paint13_linear_1218_31241" x1="207.444" y1="121.716" x2="208.281" y2="121.716" gradientUnits="userSpaceOnUse">
<stop stop-color="#00C4FF"/>
<stop offset="0.6781" stop-color="#0392EC"/>
<stop offset="1" stop-color="#0579E3"/>
</linearGradient>
<linearGradient id="paint14_linear_1218_31241" x1="204.515" y1="124.321" x2="205.352" y2="124.321" gradientUnits="userSpaceOnUse">
<stop stop-color="#ECF2FC"/>
<stop offset="0.1796" stop-color="#DFE9FA"/>
<stop offset="1" stop-color="#A6C4F0"/>
</linearGradient>
<linearGradient id="paint15_linear_1218_31241" x1="207.444" y1="124.321" x2="208.281" y2="124.321" gradientUnits="userSpaceOnUse">
<stop stop-color="#ECF2FC"/>
<stop offset="0.1796" stop-color="#DFE9FA"/>
<stop offset="1" stop-color="#A6C4F0"/>
</linearGradient>
<linearGradient id="paint16_linear_1218_31241" x1="210.372" y1="124.321" x2="211.209" y2="124.321" gradientUnits="userSpaceOnUse">
<stop stop-color="#00C4FF"/>
<stop offset="0.6781" stop-color="#0392EC"/>
<stop offset="1" stop-color="#0579E3"/>
</linearGradient>
<linearGradient id="paint17_linear_1218_31241" x1="204.515" y1="126.93" x2="205.352" y2="126.93" gradientUnits="userSpaceOnUse">
<stop stop-color="#00C4FF"/>
<stop offset="0.6781" stop-color="#0392EC"/>
<stop offset="1" stop-color="#0579E3"/>
</linearGradient>
<linearGradient id="paint18_linear_1218_31241" x1="207.444" y1="126.93" x2="208.281" y2="126.93" gradientUnits="userSpaceOnUse">
<stop stop-color="#ECF2FC"/>
<stop offset="0.1796" stop-color="#DFE9FA"/>
<stop offset="1" stop-color="#A6C4F0"/>
</linearGradient>
<linearGradient id="paint19_linear_1218_31241" x1="166.441" y1="136.574" x2="183.386" y2="136.574" gradientUnits="userSpaceOnUse">
<stop stop-color="#00C4FF"/>
<stop offset="0.6781" stop-color="#0392EC"/>
<stop offset="1" stop-color="#0579E3"/>
</linearGradient>
<linearGradient id="paint20_linear_1218_31241" x1="166.441" y1="138.614" x2="183.386" y2="138.614" gradientUnits="userSpaceOnUse">
<stop stop-color="#00C4FF"/>
<stop offset="0.6781" stop-color="#0392EC"/>
<stop offset="1" stop-color="#0579E3"/>
</linearGradient>
<linearGradient id="paint21_linear_1218_31241" x1="166.441" y1="140.658" x2="183.386" y2="140.658" gradientUnits="userSpaceOnUse">
<stop stop-color="#00C4FF"/>
<stop offset="0.6781" stop-color="#0392EC"/>
<stop offset="1" stop-color="#0579E3"/>
</linearGradient>
<linearGradient id="paint22_linear_1218_31241" x1="166.441" y1="142.695" x2="183.386" y2="142.695" gradientUnits="userSpaceOnUse">
<stop stop-color="#00C4FF"/>
<stop offset="0.6781" stop-color="#0392EC"/>
<stop offset="1" stop-color="#0579E3"/>
</linearGradient>
<linearGradient id="paint23_linear_1218_31241" x1="190.113" y1="139.635" x2="191.786" y2="139.635" gradientUnits="userSpaceOnUse">
<stop stop-color="#F7ABC5"/>
<stop offset="1" stop-color="#F16D9A"/>
</linearGradient>
<linearGradient id="paint24_linear_1218_31241" x1="193.25" y1="139.635" x2="194.923" y2="139.635" gradientUnits="userSpaceOnUse">
<stop stop-color="#00E8DE"/>
<stop offset="1" stop-color="#00B6CB"/>
</linearGradient>
<linearGradient id="paint25_linear_1218_31241" x1="196.388" y1="139.635" x2="198.062" y2="139.635" gradientUnits="userSpaceOnUse">
<stop stop-color="#DFFFB1"/>
<stop offset="1" stop-color="#AAFF12"/>
</linearGradient>
<linearGradient id="paint26_linear_1218_31241" x1="201.586" y1="136.838" x2="202.423" y2="136.838" gradientUnits="userSpaceOnUse">
<stop stop-color="#ECF2FC"/>
<stop offset="0.1796" stop-color="#DFE9FA"/>
<stop offset="1" stop-color="#A6C4F0"/>
</linearGradient>
<linearGradient id="paint27_linear_1218_31241" x1="204.515" y1="136.838" x2="205.352" y2="136.838" gradientUnits="userSpaceOnUse">
<stop stop-color="#ECF2FC"/>
<stop offset="0.1796" stop-color="#DFE9FA"/>
<stop offset="1" stop-color="#A6C4F0"/>
</linearGradient>
<linearGradient id="paint28_linear_1218_31241" x1="207.444" y1="136.838" x2="208.281" y2="136.838" gradientUnits="userSpaceOnUse">
<stop stop-color="#00C4FF"/>
<stop offset="0.6781" stop-color="#0392EC"/>
<stop offset="1" stop-color="#0579E3"/>
</linearGradient>
<linearGradient id="paint29_linear_1218_31241" x1="204.515" y1="139.447" x2="205.352" y2="139.447" gradientUnits="userSpaceOnUse">
<stop stop-color="#ECF2FC"/>
<stop offset="0.1796" stop-color="#DFE9FA"/>
<stop offset="1" stop-color="#A6C4F0"/>
</linearGradient>
<linearGradient id="paint30_linear_1218_31241" x1="207.444" y1="139.447" x2="208.281" y2="139.447" gradientUnits="userSpaceOnUse">
<stop stop-color="#ECF2FC"/>
<stop offset="0.1796" stop-color="#DFE9FA"/>
<stop offset="1" stop-color="#A6C4F0"/>
</linearGradient>
<linearGradient id="paint31_linear_1218_31241" x1="210.372" y1="139.447" x2="211.209" y2="139.447" gradientUnits="userSpaceOnUse">
<stop stop-color="#00C4FF"/>
<stop offset="0.6781" stop-color="#0392EC"/>
<stop offset="1" stop-color="#0579E3"/>
</linearGradient>
<linearGradient id="paint32_linear_1218_31241" x1="204.515" y1="142.052" x2="205.352" y2="142.052" gradientUnits="userSpaceOnUse">
<stop stop-color="#00C4FF"/>
<stop offset="0.6781" stop-color="#0392EC"/>
<stop offset="1" stop-color="#0579E3"/>
</linearGradient>
<linearGradient id="paint33_linear_1218_31241" x1="207.444" y1="142.052" x2="208.281" y2="142.052" gradientUnits="userSpaceOnUse">
<stop stop-color="#ECF2FC"/>
<stop offset="0.1796" stop-color="#DFE9FA"/>
<stop offset="1" stop-color="#A6C4F0"/>
</linearGradient>
<linearGradient id="paint34_linear_1218_31241" x1="166.441" y1="151.693" x2="183.386" y2="151.693" gradientUnits="userSpaceOnUse">
<stop stop-color="#00C4FF"/>
<stop offset="0.6781" stop-color="#0392EC"/>
<stop offset="1" stop-color="#0579E3"/>
</linearGradient>
<linearGradient id="paint35_linear_1218_31241" x1="166.441" y1="153.733" x2="183.386" y2="153.733" gradientUnits="userSpaceOnUse">
<stop stop-color="#00C4FF"/>
<stop offset="0.6781" stop-color="#0392EC"/>
<stop offset="1" stop-color="#0579E3"/>
</linearGradient>
<linearGradient id="paint36_linear_1218_31241" x1="166.441" y1="155.777" x2="183.386" y2="155.777" gradientUnits="userSpaceOnUse">
<stop stop-color="#00C4FF"/>
<stop offset="0.6781" stop-color="#0392EC"/>
<stop offset="1" stop-color="#0579E3"/>
</linearGradient>
<linearGradient id="paint37_linear_1218_31241" x1="166.441" y1="157.814" x2="183.386" y2="157.814" gradientUnits="userSpaceOnUse">
<stop stop-color="#00C4FF"/>
<stop offset="0.6781" stop-color="#0392EC"/>
<stop offset="1" stop-color="#0579E3"/>
</linearGradient>
<linearGradient id="paint38_linear_1218_31241" x1="190.113" y1="154.754" x2="191.786" y2="154.754" gradientUnits="userSpaceOnUse">
<stop stop-color="#F7ABC5"/>
<stop offset="1" stop-color="#F16D9A"/>
</linearGradient>
<linearGradient id="paint39_linear_1218_31241" x1="193.25" y1="154.754" x2="194.923" y2="154.754" gradientUnits="userSpaceOnUse">
<stop stop-color="#00E8DE"/>
<stop offset="1" stop-color="#00B6CB"/>
</linearGradient>
<linearGradient id="paint40_linear_1218_31241" x1="196.388" y1="154.754" x2="198.062" y2="154.754" gradientUnits="userSpaceOnUse">
<stop stop-color="#DFFFB1"/>
<stop offset="1" stop-color="#AAFF12"/>
</linearGradient>
<linearGradient id="paint41_linear_1218_31241" x1="201.586" y1="151.957" x2="202.423" y2="151.957" gradientUnits="userSpaceOnUse">
<stop stop-color="#ECF2FC"/>
<stop offset="0.1796" stop-color="#DFE9FA"/>
<stop offset="1" stop-color="#A6C4F0"/>
</linearGradient>
<linearGradient id="paint42_linear_1218_31241" x1="204.515" y1="151.957" x2="205.352" y2="151.957" gradientUnits="userSpaceOnUse">
<stop stop-color="#ECF2FC"/>
<stop offset="0.1796" stop-color="#DFE9FA"/>
<stop offset="1" stop-color="#A6C4F0"/>
</linearGradient>
<linearGradient id="paint43_linear_1218_31241" x1="207.444" y1="151.957" x2="208.281" y2="151.957" gradientUnits="userSpaceOnUse">
<stop stop-color="#00C4FF"/>
<stop offset="0.6781" stop-color="#0392EC"/>
<stop offset="1" stop-color="#0579E3"/>
</linearGradient>
<linearGradient id="paint44_linear_1218_31241" x1="204.515" y1="154.566" x2="205.352" y2="154.566" gradientUnits="userSpaceOnUse">
<stop stop-color="#ECF2FC"/>
<stop offset="0.1796" stop-color="#DFE9FA"/>
<stop offset="1" stop-color="#A6C4F0"/>
</linearGradient>
<linearGradient id="paint45_linear_1218_31241" x1="207.444" y1="154.566" x2="208.281" y2="154.566" gradientUnits="userSpaceOnUse">
<stop stop-color="#ECF2FC"/>
<stop offset="0.1796" stop-color="#DFE9FA"/>
<stop offset="1" stop-color="#A6C4F0"/>
</linearGradient>
<linearGradient id="paint46_linear_1218_31241" x1="210.372" y1="154.566" x2="211.209" y2="154.566" gradientUnits="userSpaceOnUse">
<stop stop-color="#00C4FF"/>
<stop offset="0.6781" stop-color="#0392EC"/>
<stop offset="1" stop-color="#0579E3"/>
</linearGradient>
<linearGradient id="paint47_linear_1218_31241" x1="204.515" y1="157.175" x2="205.352" y2="157.175" gradientUnits="userSpaceOnUse">
<stop stop-color="#00C4FF"/>
<stop offset="0.6781" stop-color="#0392EC"/>
<stop offset="1" stop-color="#0579E3"/>
</linearGradient>
<linearGradient id="paint48_linear_1218_31241" x1="207.444" y1="157.175" x2="208.281" y2="157.175" gradientUnits="userSpaceOnUse">
<stop stop-color="#ECF2FC"/>
<stop offset="0.1796" stop-color="#DFE9FA"/>
<stop offset="1" stop-color="#A6C4F0"/>
</linearGradient>
<linearGradient id="paint49_linear_1218_31241" x1="166.441" y1="166.808" x2="183.386" y2="166.808" gradientUnits="userSpaceOnUse">
<stop stop-color="#00C4FF"/>
<stop offset="0.6781" stop-color="#0392EC"/>
<stop offset="1" stop-color="#0579E3"/>
</linearGradient>
<linearGradient id="paint50_linear_1218_31241" x1="166.441" y1="168.848" x2="183.386" y2="168.848" gradientUnits="userSpaceOnUse">
<stop stop-color="#00C4FF"/>
<stop offset="0.6781" stop-color="#0392EC"/>
<stop offset="1" stop-color="#0579E3"/>
</linearGradient>
<linearGradient id="paint51_linear_1218_31241" x1="166.441" y1="170.888" x2="183.386" y2="170.888" gradientUnits="userSpaceOnUse">
<stop stop-color="#00C4FF"/>
<stop offset="0.6781" stop-color="#0392EC"/>
<stop offset="1" stop-color="#0579E3"/>
</linearGradient>
<linearGradient id="paint52_linear_1218_31241" x1="166.441" y1="172.928" x2="183.386" y2="172.928" gradientUnits="userSpaceOnUse">
<stop stop-color="#00C4FF"/>
<stop offset="0.6781" stop-color="#0392EC"/>
<stop offset="1" stop-color="#0579E3"/>
</linearGradient>
<linearGradient id="paint53_linear_1218_31241" x1="190.113" y1="169.868" x2="191.786" y2="169.868" gradientUnits="userSpaceOnUse">
<stop stop-color="#F7ABC5"/>
<stop offset="1" stop-color="#F16D9A"/>
</linearGradient>
<linearGradient id="paint54_linear_1218_31241" x1="193.25" y1="169.868" x2="194.923" y2="169.868" gradientUnits="userSpaceOnUse">
<stop stop-color="#00E8DE"/>
<stop offset="1" stop-color="#00B6CB"/>
</linearGradient>
<linearGradient id="paint55_linear_1218_31241" x1="196.388" y1="169.868" x2="198.062" y2="169.868" gradientUnits="userSpaceOnUse">
<stop stop-color="#DFFFB1"/>
<stop offset="1" stop-color="#AAFF12"/>
</linearGradient>
<linearGradient id="paint56_linear_1218_31241" x1="201.586" y1="167.072" x2="202.423" y2="167.072" gradientUnits="userSpaceOnUse">
<stop stop-color="#ECF2FC"/>
<stop offset="0.1796" stop-color="#DFE9FA"/>
<stop offset="1" stop-color="#A6C4F0"/>
</linearGradient>
<linearGradient id="paint57_linear_1218_31241" x1="204.515" y1="167.072" x2="205.352" y2="167.072" gradientUnits="userSpaceOnUse">
<stop stop-color="#ECF2FC"/>
<stop offset="0.1796" stop-color="#DFE9FA"/>
<stop offset="1" stop-color="#A6C4F0"/>
</linearGradient>
<linearGradient id="paint58_linear_1218_31241" x1="207.444" y1="167.072" x2="208.281" y2="167.072" gradientUnits="userSpaceOnUse">
<stop stop-color="#00C4FF"/>
<stop offset="0.6781" stop-color="#0392EC"/>
<stop offset="1" stop-color="#0579E3"/>
</linearGradient>
<linearGradient id="paint59_linear_1218_31241" x1="204.515" y1="169.677" x2="205.352" y2="169.677" gradientUnits="userSpaceOnUse">
<stop stop-color="#ECF2FC"/>
<stop offset="0.1796" stop-color="#DFE9FA"/>
<stop offset="1" stop-color="#A6C4F0"/>
</linearGradient>
<linearGradient id="paint60_linear_1218_31241" x1="207.444" y1="169.677" x2="208.281" y2="169.677" gradientUnits="userSpaceOnUse">
<stop stop-color="#ECF2FC"/>
<stop offset="0.1796" stop-color="#DFE9FA"/>
<stop offset="1" stop-color="#A6C4F0"/>
</linearGradient>
<linearGradient id="paint61_linear_1218_31241" x1="210.372" y1="169.677" x2="211.209" y2="169.677" gradientUnits="userSpaceOnUse">
<stop stop-color="#00C4FF"/>
<stop offset="0.6781" stop-color="#0392EC"/>
<stop offset="1" stop-color="#0579E3"/>
</linearGradient>
<linearGradient id="paint62_linear_1218_31241" x1="204.515" y1="172.287" x2="205.352" y2="172.287" gradientUnits="userSpaceOnUse">
<stop stop-color="#00C4FF"/>
<stop offset="0.6781" stop-color="#0392EC"/>
<stop offset="1" stop-color="#0579E3"/>
</linearGradient>
<linearGradient id="paint63_linear_1218_31241" x1="207.444" y1="172.287" x2="208.281" y2="172.287" gradientUnits="userSpaceOnUse">
<stop stop-color="#ECF2FC"/>
<stop offset="0.1796" stop-color="#DFE9FA"/>
<stop offset="1" stop-color="#A6C4F0"/>
</linearGradient>
<linearGradient id="paint64_linear_1218_31241" x1="166.441" y1="181.931" x2="183.386" y2="181.931" gradientUnits="userSpaceOnUse">
<stop stop-color="#00C4FF"/>
<stop offset="0.6781" stop-color="#0392EC"/>
<stop offset="1" stop-color="#0579E3"/>
</linearGradient>
<linearGradient id="paint65_linear_1218_31241" x1="166.441" y1="183.971" x2="183.386" y2="183.971" gradientUnits="userSpaceOnUse">
<stop stop-color="#00C4FF"/>
<stop offset="0.6781" stop-color="#0392EC"/>
<stop offset="1" stop-color="#0579E3"/>
</linearGradient>
<linearGradient id="paint66_linear_1218_31241" x1="166.441" y1="186.015" x2="183.386" y2="186.015" gradientUnits="userSpaceOnUse">
<stop stop-color="#00C4FF"/>
<stop offset="0.6781" stop-color="#0392EC"/>
<stop offset="1" stop-color="#0579E3"/>
</linearGradient>
<linearGradient id="paint67_linear_1218_31241" x1="166.441" y1="188.051" x2="183.386" y2="188.051" gradientUnits="userSpaceOnUse">
<stop stop-color="#00C4FF"/>
<stop offset="0.6781" stop-color="#0392EC"/>
<stop offset="1" stop-color="#0579E3"/>
</linearGradient>
<linearGradient id="paint68_linear_1218_31241" x1="190.113" y1="184.991" x2="191.786" y2="184.991" gradientUnits="userSpaceOnUse">
<stop stop-color="#F7ABC5"/>
<stop offset="1" stop-color="#F16D9A"/>
</linearGradient>
<linearGradient id="paint69_linear_1218_31241" x1="193.25" y1="184.991" x2="194.923" y2="184.991" gradientUnits="userSpaceOnUse">
<stop stop-color="#00E8DE"/>
<stop offset="1" stop-color="#00B6CB"/>
</linearGradient>
<linearGradient id="paint70_linear_1218_31241" x1="196.388" y1="184.991" x2="198.062" y2="184.991" gradientUnits="userSpaceOnUse">
<stop stop-color="#DFFFB1"/>
<stop offset="1" stop-color="#AAFF12"/>
</linearGradient>
<linearGradient id="paint71_linear_1218_31241" x1="201.586" y1="182.195" x2="202.423" y2="182.195" gradientUnits="userSpaceOnUse">
<stop stop-color="#ECF2FC"/>
<stop offset="0.1796" stop-color="#DFE9FA"/>
<stop offset="1" stop-color="#A6C4F0"/>
</linearGradient>
<linearGradient id="paint72_linear_1218_31241" x1="204.515" y1="182.195" x2="205.352" y2="182.195" gradientUnits="userSpaceOnUse">
<stop stop-color="#ECF2FC"/>
<stop offset="0.1796" stop-color="#DFE9FA"/>
<stop offset="1" stop-color="#A6C4F0"/>
</linearGradient>
<linearGradient id="paint73_linear_1218_31241" x1="207.444" y1="182.195" x2="208.281" y2="182.195" gradientUnits="userSpaceOnUse">
<stop stop-color="#00C4FF"/>
<stop offset="0.6781" stop-color="#0392EC"/>
<stop offset="1" stop-color="#0579E3"/>
</linearGradient>
<linearGradient id="paint74_linear_1218_31241" x1="204.515" y1="184.804" x2="205.352" y2="184.804" gradientUnits="userSpaceOnUse">
<stop stop-color="#ECF2FC"/>
<stop offset="0.1796" stop-color="#DFE9FA"/>
<stop offset="1" stop-color="#A6C4F0"/>
</linearGradient>
<linearGradient id="paint75_linear_1218_31241" x1="207.444" y1="184.804" x2="208.281" y2="184.804" gradientUnits="userSpaceOnUse">
<stop stop-color="#ECF2FC"/>
<stop offset="0.1796" stop-color="#DFE9FA"/>
<stop offset="1" stop-color="#A6C4F0"/>
</linearGradient>
<linearGradient id="paint76_linear_1218_31241" x1="210.372" y1="184.804" x2="211.209" y2="184.804" gradientUnits="userSpaceOnUse">
<stop stop-color="#00C4FF"/>
<stop offset="0.6781" stop-color="#0392EC"/>
<stop offset="1" stop-color="#0579E3"/>
</linearGradient>
<linearGradient id="paint77_linear_1218_31241" x1="204.515" y1="187.413" x2="205.352" y2="187.413" gradientUnits="userSpaceOnUse">
<stop stop-color="#00C4FF"/>
<stop offset="0.6781" stop-color="#0392EC"/>
<stop offset="1" stop-color="#0579E3"/>
</linearGradient>
<linearGradient id="paint78_linear_1218_31241" x1="207.444" y1="187.413" x2="208.281" y2="187.413" gradientUnits="userSpaceOnUse">
<stop stop-color="#ECF2FC"/>
<stop offset="0.1796" stop-color="#DFE9FA"/>
<stop offset="1" stop-color="#A6C4F0"/>
</linearGradient>
<linearGradient id="paint79_linear_1218_31241" x1="166.441" y1="197.046" x2="183.386" y2="197.046" gradientUnits="userSpaceOnUse">
<stop stop-color="#00C4FF"/>
<stop offset="0.6781" stop-color="#0392EC"/>
<stop offset="1" stop-color="#0579E3"/>
</linearGradient>
<linearGradient id="paint80_linear_1218_31241" x1="166.441" y1="199.086" x2="183.386" y2="199.086" gradientUnits="userSpaceOnUse">
<stop stop-color="#00C4FF"/>
<stop offset="0.6781" stop-color="#0392EC"/>
<stop offset="1" stop-color="#0579E3"/>
</linearGradient>
<linearGradient id="paint81_linear_1218_31241" x1="166.441" y1="201.13" x2="183.386" y2="201.13" gradientUnits="userSpaceOnUse">
<stop stop-color="#00C4FF"/>
<stop offset="0.6781" stop-color="#0392EC"/>
<stop offset="1" stop-color="#0579E3"/>
</linearGradient>
<linearGradient id="paint82_linear_1218_31241" x1="166.441" y1="203.166" x2="183.386" y2="203.166" gradientUnits="userSpaceOnUse">
<stop stop-color="#00C4FF"/>
<stop offset="0.6781" stop-color="#0392EC"/>
<stop offset="1" stop-color="#0579E3"/>
</linearGradient>
<linearGradient id="paint83_linear_1218_31241" x1="190.113" y1="200.106" x2="191.786" y2="200.106" gradientUnits="userSpaceOnUse">
<stop stop-color="#F7ABC5"/>
<stop offset="1" stop-color="#F16D9A"/>
</linearGradient>
<linearGradient id="paint84_linear_1218_31241" x1="193.25" y1="200.106" x2="194.923" y2="200.106" gradientUnits="userSpaceOnUse">
<stop stop-color="#00E8DE"/>
<stop offset="1" stop-color="#00B6CB"/>
</linearGradient>
<linearGradient id="paint85_linear_1218_31241" x1="196.388" y1="200.106" x2="198.062" y2="200.106" gradientUnits="userSpaceOnUse">
<stop stop-color="#DFFFB1"/>
<stop offset="1" stop-color="#AAFF12"/>
</linearGradient>
<linearGradient id="paint86_linear_1218_31241" x1="201.586" y1="197.31" x2="202.423" y2="197.31" gradientUnits="userSpaceOnUse">
<stop stop-color="#ECF2FC"/>
<stop offset="0.1796" stop-color="#DFE9FA"/>
<stop offset="1" stop-color="#A6C4F0"/>
</linearGradient>
<linearGradient id="paint87_linear_1218_31241" x1="204.515" y1="197.31" x2="205.352" y2="197.31" gradientUnits="userSpaceOnUse">
<stop stop-color="#ECF2FC"/>
<stop offset="0.1796" stop-color="#DFE9FA"/>
<stop offset="1" stop-color="#A6C4F0"/>
</linearGradient>
<linearGradient id="paint88_linear_1218_31241" x1="207.444" y1="197.31" x2="208.281" y2="197.31" gradientUnits="userSpaceOnUse">
<stop stop-color="#00C4FF"/>
<stop offset="0.6781" stop-color="#0392EC"/>
<stop offset="1" stop-color="#0579E3"/>
</linearGradient>
<linearGradient id="paint89_linear_1218_31241" x1="204.515" y1="199.915" x2="205.352" y2="199.915" gradientUnits="userSpaceOnUse">
<stop stop-color="#ECF2FC"/>
<stop offset="0.1796" stop-color="#DFE9FA"/>
<stop offset="1" stop-color="#A6C4F0"/>
</linearGradient>
<linearGradient id="paint90_linear_1218_31241" x1="207.444" y1="199.915" x2="208.281" y2="199.915" gradientUnits="userSpaceOnUse">
<stop stop-color="#ECF2FC"/>
<stop offset="0.1796" stop-color="#DFE9FA"/>
<stop offset="1" stop-color="#A6C4F0"/>
</linearGradient>
<linearGradient id="paint91_linear_1218_31241" x1="210.372" y1="199.915" x2="211.209" y2="199.915" gradientUnits="userSpaceOnUse">
<stop stop-color="#00C4FF"/>
<stop offset="0.6781" stop-color="#0392EC"/>
<stop offset="1" stop-color="#0579E3"/>
</linearGradient>
<linearGradient id="paint92_linear_1218_31241" x1="204.515" y1="202.524" x2="205.352" y2="202.524" gradientUnits="userSpaceOnUse">
<stop stop-color="#00C4FF"/>
<stop offset="0.6781" stop-color="#0392EC"/>
<stop offset="1" stop-color="#0579E3"/>
</linearGradient>
<linearGradient id="paint93_linear_1218_31241" x1="207.444" y1="202.524" x2="208.281" y2="202.524" gradientUnits="userSpaceOnUse">
<stop stop-color="#ECF2FC"/>
<stop offset="0.1796" stop-color="#DFE9FA"/>
<stop offset="1" stop-color="#A6C4F0"/>
</linearGradient>
<linearGradient id="paint94_linear_1218_31241" x1="23.7196" y1="212.859" x2="29.4742" y2="212.859" gradientUnits="userSpaceOnUse">
<stop stop-color="#58595B"/>
<stop offset="1" stop-color="#00B6CB"/>
</linearGradient>
<linearGradient id="paint95_linear_1218_31241" x1="10.0744" y1="212.575" x2="16.0056" y2="212.575" gradientUnits="userSpaceOnUse">
<stop stop-color="#58595B"/>
<stop offset="1" stop-color="#00B6CB"/>
</linearGradient>
<linearGradient id="paint96_linear_1218_31241" x1="31.9987" y1="148.935" x2="39.2091" y2="148.935" gradientUnits="userSpaceOnUse">
<stop stop-color="#FFF4DE"/>
<stop offset="1" stop-color="#FFC985"/>
</linearGradient>
<linearGradient id="paint97_linear_1218_31241" x1="18.0609" y1="122.073" x2="29.0232" y2="122.073" gradientUnits="userSpaceOnUse">
<stop stop-color="#231F20"/>
<stop offset="1" stop-color="#58595B"/>
</linearGradient>
</defs>
</svg>
