<svg width="291" height="217" viewBox="0 0 291 217" fill="none" xmlns="http://www.w3.org/2000/svg">
<g opacity="0.5">
<path d="M273.466 16.1553V19.8434" stroke="#CC7F31" stroke-width="3.8861" stroke-miterlimit="10" stroke-linecap="round" stroke-linejoin="round"/>
<path d="M271.149 17.9999H275.775" stroke="#CC7F31" stroke-width="3.8861" stroke-miterlimit="10" stroke-linecap="round" stroke-linejoin="round"/>
<path d="M234.784 10.7028V16.4117" stroke="#CC7F31" stroke-width="3.8861" stroke-miterlimit="10" stroke-linecap="round" stroke-linejoin="round"/>
<path d="M231.203 13.5568H238.358" stroke="#CC7F31" stroke-width="3.8861" stroke-miterlimit="10" stroke-linecap="round" stroke-linejoin="round"/>
<path d="M269.554 48.2799V51.2874" stroke="#CC7F31" stroke-width="3.8861" stroke-miterlimit="10" stroke-linecap="round" stroke-linejoin="round"/>
<path d="M267.667 49.7844H271.44" stroke="#CC7F31" stroke-width="3.8861" stroke-miterlimit="10" stroke-linecap="round" stroke-linejoin="round"/>
<path d="M257.871 27.8173C257.871 30.6824 260.783 33.0039 264.378 33.0039C267.972 33.0039 270.884 30.6824 270.884 27.8173C270.884 24.9523 267.972 22.6308 264.378 22.6308C260.783 22.6308 257.871 24.9523 257.871 27.8173Z" stroke="#CC7F31" stroke-width="3.8861" stroke-miterlimit="10" stroke-linecap="round" stroke-linejoin="round"/>
<path d="M285.446 71.9942V67.3723" stroke="#CC7F31" stroke-width="3.8861" stroke-miterlimit="10" stroke-linecap="round" stroke-linejoin="round"/>
<path d="M288.345 69.6819H282.547" stroke="#CC7F31" stroke-width="3.8861" stroke-miterlimit="10" stroke-linecap="round" stroke-linejoin="round"/>
<path d="M251.338 63.6307V59.0087" stroke="#CC7F31" stroke-width="3.8861" stroke-miterlimit="10" stroke-linecap="round" stroke-linejoin="round"/>
<path d="M254.237 61.3183H248.439" stroke="#CC7F31" stroke-width="3.8861" stroke-miterlimit="10" stroke-linecap="round" stroke-linejoin="round"/>
<path d="M272.482 83.6545C274.542 82.0123 274.542 79.3498 272.482 77.7076C270.422 76.0653 267.082 76.0653 265.022 77.7076C262.962 79.3498 262.962 82.0123 265.022 83.6545C267.082 85.2967 270.422 85.2967 272.482 83.6545Z" stroke="#CC7F31" stroke-width="3.8861" stroke-miterlimit="10" stroke-linecap="round" stroke-linejoin="round"/>
<path d="M13.6714 154.259V162.558" stroke="#CC7F31" stroke-width="3.8861" stroke-miterlimit="10" stroke-linecap="round" stroke-linejoin="round"/>
<path d="M8.46216 158.413H18.8738" stroke="#CC7F31" stroke-width="3.8861" stroke-miterlimit="10" stroke-linecap="round" stroke-linejoin="round"/>
<path d="M27.8887 187.925V193.634" stroke="#CC7F31" stroke-width="3.8861" stroke-miterlimit="10" stroke-linecap="round" stroke-linejoin="round"/>
<path d="M24.3079 190.779H31.4696" stroke="#CC7F31" stroke-width="3.8861" stroke-miterlimit="10" stroke-linecap="round" stroke-linejoin="round"/>
<path d="M13.241 183.693C13.241 181.372 10.8781 179.488 7.96574 179.488C5.0534 179.488 2.69043 181.372 2.69043 183.693C2.69043 186.015 5.0534 187.899 7.96574 187.899C10.8781 187.893 13.241 186.015 13.241 183.693Z" stroke="#CC7F31" stroke-width="3.8861" stroke-miterlimit="10" stroke-linecap="round" stroke-linejoin="round"/>
<path d="M13.7506 197.533C13.7506 196.52 12.718 195.697 11.4472 195.697C10.1764 195.697 9.1438 196.52 9.1438 197.533C9.1438 198.546 10.1764 199.369 11.4472 199.369C12.718 199.369 13.7506 198.546 13.7506 197.533Z" stroke="#CC7F31" stroke-width="3.8861" stroke-miterlimit="10" stroke-linecap="round" stroke-linejoin="round"/>
<path d="M84.5803 87.2518V90.9346" stroke="#CC7F31" stroke-width="3.8861" stroke-miterlimit="10" stroke-linecap="round" stroke-linejoin="round"/>
<path d="M82.2703 89.0927H86.8903" stroke="#CC7F31" stroke-width="3.8861" stroke-miterlimit="10" stroke-linecap="round" stroke-linejoin="round"/>
<path d="M26.79 77.8044V83.5133" stroke="#CC7F31" stroke-width="3.8861" stroke-miterlimit="10" stroke-linecap="round" stroke-linejoin="round"/>
<path d="M23.2092 80.6584H30.3709" stroke="#CC7F31" stroke-width="3.8861" stroke-miterlimit="10" stroke-linecap="round" stroke-linejoin="round"/>
<path d="M24.5264 25.6281V31.3317" stroke="#CC7F31" stroke-width="3.8861" stroke-miterlimit="10" stroke-linecap="round" stroke-linejoin="round"/>
<path d="M20.9521 28.4744H28.1072" stroke="#CC7F31" stroke-width="3.8861" stroke-miterlimit="10" stroke-linecap="round" stroke-linejoin="round"/>
<path d="M19.9143 68.4109C23.4143 67.7621 25.5918 64.9744 24.7779 62.1844C23.964 59.3945 20.4669 57.6587 16.9669 58.3075C13.4669 58.9563 11.2894 61.744 12.1033 64.5339C12.9173 67.3239 16.4143 69.0597 19.9143 68.4109Z" stroke="#CC7F31" stroke-width="3.8861" stroke-miterlimit="10" stroke-linecap="round" stroke-linejoin="round"/>
<path d="M38.6313 14.9006C38.6313 17.7656 41.5437 20.0872 45.1378 20.0872C48.7319 20.0872 51.6442 17.7656 51.6442 14.9006C51.6442 12.0356 48.7319 9.71406 45.1378 9.71406C41.5437 9.70878 38.6313 12.0356 38.6313 14.9006Z" stroke="#CC7F31" stroke-width="3.8861" stroke-miterlimit="10" stroke-linecap="round" stroke-linejoin="round"/>
<path d="M91.8347 100.432C91.8347 103.297 94.7471 105.618 98.3412 105.618C101.935 105.618 104.848 103.297 104.848 100.432C104.848 97.5669 101.935 95.2453 98.3412 95.2453C94.7471 95.2453 91.8347 97.5669 91.8347 100.432Z" stroke="#CC7F31" stroke-width="3.8861" stroke-miterlimit="10" stroke-linecap="round" stroke-linejoin="round"/>
<path d="M59.2429 22.6842C59.2429 23.9399 60.5204 24.953 62.0891 24.953C63.6644 24.953 64.9352 23.9347 64.9352 22.6842C64.9352 21.4337 63.6578 20.4154 62.0891 20.4154C60.5204 20.4154 59.2429 21.4284 59.2429 22.6842Z" stroke="#CC7F31" stroke-width="3.8861" stroke-miterlimit="10" stroke-linecap="round" stroke-linejoin="round"/>
<path d="M40.8487 54.7335C40.8487 53.7204 39.8162 52.8973 38.5453 52.8973C37.2745 52.8973 36.2419 53.7204 36.2419 54.7335C36.2419 55.7465 37.2745 56.5696 38.5453 56.5696C39.8162 56.5749 40.8487 55.7518 40.8487 54.7335Z" stroke="#CC7F31" stroke-width="3.8861" stroke-miterlimit="10" stroke-linecap="round" stroke-linejoin="round"/>
<path d="M93.8468 8.81343C93.8468 7.80039 92.8142 6.97729 91.5434 6.97729C90.2725 6.97729 89.24 7.80039 89.24 8.81343C89.24 9.82647 90.2725 10.6496 91.5434 10.6496C92.8142 10.6496 93.8468 9.82647 93.8468 8.81343Z" stroke="#CC7F31" stroke-width="3.8861" stroke-miterlimit="10" stroke-linecap="round" stroke-linejoin="round"/>
</g>
<path d="M215.358 42.8643C215.47 41.7773 215.543 40.6852 215.543 39.5719C215.543 17.7176 193.316 0 165.901 0C142.549 0 122.97 12.8582 117.682 30.1749C113.194 26.5765 107.098 24.3657 100.38 24.3657C87.6117 24.3657 77.0875 32.3592 75.5784 42.6743C62.8634 43.5977 52.9019 52.1135 52.9019 62.4919C52.9019 73.4823 64.0813 82.3939 77.8686 82.3939H211.201C224.988 82.3939 236.168 73.4823 236.168 62.4919C236.181 52.62 227.172 44.4419 215.358 42.8643Z" fill="#C74A2E"/>
<path opacity="0.2" d="M211.207 76.7957H77.8815C65.279 76.7957 54.8608 69.3509 53.1597 59.6795C52.9943 60.5976 52.9082 61.5367 52.9082 62.4917C52.9082 73.4822 64.0876 82.3938 77.8749 82.3938H211.207C224.995 82.3938 236.174 73.4822 236.174 62.4917C236.174 61.5367 236.088 60.6028 235.922 59.6848C234.228 69.3561 223.81 76.7957 211.207 76.7957Z" fill="#000042"/>
<path d="M206.687 93.9122H195.534V100.581H206.687V93.9122Z" fill="#4145F1"/>
<path d="M254.078 93.9122H242.925V100.581H254.078V93.9122Z" fill="#4145F1"/>
<path d="M260.737 88.9686H188.875V97.1152H260.737V88.9686Z" fill="#81B5FC"/>
<path d="M254.078 91.6848H213.729V93.9061H254.078V91.6848Z" fill="#4145F1"/>
<path d="M205.21 92.5398C205.21 93.2204 205.905 93.7744 206.759 93.7744C207.613 93.7744 208.308 93.2204 208.308 92.5398C208.308 91.8591 207.613 91.3051 206.759 91.3051C205.905 91.3051 205.21 91.8591 205.21 92.5398Z" fill="white"/>
<path d="M199.948 92.5398C199.948 93.2204 200.643 93.7744 201.497 93.7744C202.351 93.7744 203.046 93.2204 203.046 92.5398C203.046 91.8591 202.351 91.3051 201.497 91.3051C200.637 91.3051 199.948 91.8591 199.948 92.5398Z" fill="white"/>
<path d="M194.68 92.5398C194.68 93.2204 195.375 93.7744 196.229 93.7744C197.082 93.7744 197.777 93.2204 197.777 92.5398C197.777 91.8591 197.082 91.3051 196.229 91.3051C195.375 91.3051 194.68 91.8591 194.68 92.5398Z" fill="white"/>
<path d="M170.468 215.229H270.414C280.68 215.229 289 208.597 289 200.413V120.742C289 112.559 280.68 105.926 270.414 105.926" stroke="#06007B" stroke-width="1.872" stroke-miterlimit="10" stroke-linecap="round" stroke-linejoin="round"/>
<path d="M289 149.709C289 141.525 280.68 134.893 270.414 134.893" stroke="#06007B" stroke-width="1.872" stroke-miterlimit="10" stroke-linecap="round" stroke-linejoin="round"/>
<path d="M289 178.516C289 170.333 280.68 163.701 270.414 163.701" stroke="#06007B" stroke-width="1.872" stroke-miterlimit="10" stroke-linecap="round" stroke-linejoin="round"/>
<path d="M271.03 192.342C277.88 192.342 283.427 196.769 283.427 202.225L283.42 203.417C283.42 208.878 277.867 213.299 271.023 213.299H183.07" stroke="#06007B" stroke-width="1.9381" stroke-miterlimit="10" stroke-linecap="round" stroke-linejoin="round"/>
<path d="M260.942 105.639C260.942 107.597 262.935 109.18 265.384 109.18H268.051C270.507 109.18 272.492 107.592 272.492 105.639C272.492 103.682 270.5 102.099 268.051 102.099H265.384C262.928 102.099 260.942 103.682 260.942 105.639Z" fill="#06007B"/>
<path d="M200.346 122.496H185.678V128.669H200.346V122.496Z" fill="#06007B"/>
<path d="M256.389 122.496H241.721V128.669H256.389V122.496Z" fill="#06007B"/>
<path d="M268.607 121.223C268.607 123.18 266.615 124.763 264.166 124.763H177.901C175.445 124.763 173.459 123.175 173.459 121.223V102.445C173.459 100.487 175.452 98.9042 177.901 98.9042H264.159C266.615 98.9042 268.6 100.492 268.6 102.445V121.223H268.607Z" fill="#81B5FC"/>
<path opacity="0.2" d="M264.159 119.81H177.901C175.445 119.81 173.46 118.222 173.46 116.27V121.23C173.46 123.187 175.452 124.77 177.901 124.77H264.159C266.615 124.77 268.601 123.182 268.601 121.23V116.27C268.607 118.222 266.615 119.81 264.159 119.81Z" fill="#06007B"/>
<path d="M206.343 103.16H178.344V115.56H206.343V103.16Z" fill="white"/>
<path d="M263.272 103.16H210.784V115.56H263.272V103.16Z" fill="white"/>
<path d="M233.553 105.291H223.499V108.125H233.553V105.291Z" fill="#FF4435"/>
<path d="M259.413 105.291H249.359V108.125H259.413V105.291Z" fill="#FF4435"/>
<path d="M246.381 105.291H236.327V108.125H246.381V105.291Z" fill="#81B5FC"/>
<path d="M260.942 134.721C260.942 136.678 262.935 138.261 265.384 138.261H268.051C270.507 138.261 272.492 136.673 272.492 134.721C272.492 132.763 270.5 131.181 268.051 131.181H265.384C262.928 131.181 260.942 132.763 260.942 134.721Z" fill="#06007B"/>
<path d="M200.346 151.58H185.678V157.753H200.346V151.58Z" fill="#06007B"/>
<path d="M256.389 151.58H241.721V157.753H256.389V151.58Z" fill="#06007B"/>
<path d="M268.607 150.31C268.607 152.268 266.615 153.85 264.166 153.85H177.901C175.445 153.85 173.459 152.262 173.459 150.31V131.532C173.459 129.574 175.452 127.992 177.901 127.992H264.159C266.615 127.992 268.6 129.58 268.6 131.532V150.31H268.607Z" fill="#81B5FC"/>
<path opacity="0.2" d="M264.159 148.897H177.901C175.445 148.897 173.459 147.309 173.459 145.357V150.317C173.459 152.274 175.452 153.857 177.901 153.857H264.159C266.615 153.857 268.6 152.269 268.6 150.317V145.357C268.607 147.309 266.615 148.897 264.159 148.897Z" fill="#06007B"/>
<path d="M206.342 132.242H178.344V144.641H206.342V132.242Z" fill="white"/>
<path d="M263.272 132.242H210.784V144.641H263.272V132.242Z" fill="white"/>
<path d="M233.553 134.373H223.499V137.206H233.553V134.373Z" fill="#FF4435"/>
<path d="M259.413 134.373H249.359V137.206H259.413V134.373Z" fill="#FF4435"/>
<path d="M246.38 134.373H236.326V137.206H246.38V134.373Z" fill="#81B5FC"/>
<path d="M260.942 163.798C260.942 165.756 262.935 167.339 265.384 167.339H268.051C270.507 167.339 272.492 165.751 272.492 163.798C272.492 161.841 270.5 160.258 268.051 160.258H265.384C262.928 160.258 260.942 161.841 260.942 163.798Z" fill="#06007B"/>
<path d="M200.346 180.655H185.678V186.828H200.346V180.655Z" fill="#06007B"/>
<path d="M256.389 180.655H241.721V186.828H256.389V180.655Z" fill="#06007B"/>
<path d="M268.607 179.382C268.607 181.339 266.615 182.922 264.166 182.922H177.901C175.445 182.922 173.459 181.334 173.459 179.382V160.603C173.459 158.646 175.452 157.063 177.901 157.063H264.159C266.615 157.063 268.6 158.651 268.6 160.603V179.382H268.607Z" fill="#81B5FC"/>
<path opacity="0.2" d="M264.159 177.969H177.901C175.445 177.969 173.459 176.381 173.459 174.429V179.388C173.459 181.346 175.452 182.929 177.901 182.929H264.159C266.615 182.929 268.6 181.341 268.6 179.388V174.429C268.607 176.381 266.615 177.969 264.159 177.969Z" fill="#06007B"/>
<path d="M206.342 161.319H178.344V173.718H206.342V161.319Z" fill="white"/>
<path d="M263.272 161.319H210.784V173.718H263.272V161.319Z" fill="white"/>
<path d="M233.553 163.446H223.499V166.28H233.553V163.446Z" fill="#FF4435"/>
<path d="M259.413 163.446H249.359V166.28H259.413V163.446Z" fill="#FF4435"/>
<path d="M246.38 163.446H236.326V166.28H246.38V163.446Z" fill="#81B5FC"/>
<path d="M260.942 192.876C260.942 194.834 262.935 196.417 265.384 196.417H268.051C270.507 196.417 272.492 194.828 272.492 192.876C272.492 190.919 270.5 189.336 268.051 189.336H265.384C262.928 189.336 260.942 190.919 260.942 192.876Z" fill="#06007B"/>
<path d="M200.346 209.738H185.678V215.912H200.346V209.738Z" fill="#06007B"/>
<path d="M256.389 209.738H241.721V215.912H256.389V209.738Z" fill="#06007B"/>
<path d="M268.607 208.473C268.607 210.43 266.615 212.013 264.166 212.013H177.901C175.445 212.013 173.459 210.425 173.459 208.473V189.694C173.459 187.737 175.452 186.154 177.901 186.154H264.159C266.615 186.154 268.6 187.742 268.6 189.694V208.473H268.607Z" fill="#81B5FC"/>
<path opacity="0.2" d="M264.159 207.052H177.901C175.445 207.052 173.459 205.464 173.459 203.512V208.472C173.459 210.429 175.452 212.012 177.901 212.012H264.159C266.615 212.012 268.6 210.424 268.6 208.472V203.512C268.607 205.464 266.615 207.052 264.159 207.052Z" fill="#06007B"/>
<path d="M206.342 190.4H178.344V202.799H206.342V190.4Z" fill="white"/>
<path d="M263.272 190.4H210.784V202.799H263.272V190.4Z" fill="white"/>
<path d="M233.553 192.531H223.499V195.365H233.553V192.531Z" fill="#FF4435"/>
<path d="M259.413 192.531H249.359V195.365H259.413V192.531Z" fill="#FF4435"/>
<path d="M246.38 192.531H236.326V195.365H246.38V192.531Z" fill="#81B5FC"/>
<path d="M165.828 85.8036H154.635V130.42H165.828V85.8036Z" fill="#81B5FC"/>
<path d="M146.09 93.7361L160.235 74.214L174.373 93.7361H146.09Z" fill="#81B5FC"/>
<path d="M145.495 135.367H95.0449V211.224H145.495V135.367Z" fill="#E58E13"/>
<path d="M200.273 209.77H40.2598V215.996H200.273V209.77Z" fill="#CC7F31"/>
<path d="M200.181 191.497C200.181 194.225 197.407 196.435 193.985 196.435H46.5479C43.1259 196.435 40.3525 194.225 40.3525 191.497V123.597C40.3525 120.869 43.1259 118.658 46.5479 118.658H193.985C197.407 118.658 200.181 120.869 200.181 123.597V191.497Z" fill="white"/>
<path d="M193.985 198.165H46.5478C41.9343 198.165 38.1814 195.174 38.1814 191.496V123.596C38.1814 119.919 41.9343 116.927 46.5478 116.927H193.985C198.599 116.927 202.351 119.919 202.351 123.596V191.496C202.351 195.174 198.599 198.165 193.985 198.165ZM46.5478 120.388C44.3304 120.388 42.5234 121.829 42.5234 123.596V191.496C42.5234 193.264 44.3304 194.704 46.5478 194.704H193.985C196.202 194.704 198.009 193.264 198.009 191.496V123.596C198.009 121.829 196.202 120.388 193.985 120.388H46.5478Z" fill="#CC7F31"/>
<path d="M131.786 74.214H120.594V118.83H131.786V74.214Z" fill="#81B5FC"/>
<path d="M140.332 110.899L126.194 130.422L112.049 110.899H140.332Z" fill="#81B5FC"/>
<path opacity="0.2" d="M73.3808 109.707C73.2881 108.842 72.6064 108.087 71.6135 107.734L40.5441 96.7856C40.2926 96.6959 40.0345 96.6484 39.7631 96.6168C39.7168 96.6115 39.6638 96.6062 39.6175 96.6062C39.1144 96.5693 38.5982 96.6168 38.1282 96.7856L7.0522 107.734C6.05273 108.087 5.3776 108.842 5.28494 109.707C1.48565 144.393 36.6389 156.46 36.9964 156.576C37.3604 156.697 37.7509 156.761 38.1414 156.761H38.8298H40.5177C40.9082 156.761 41.2987 156.697 41.6627 156.576C42.0268 156.46 77.1801 144.393 73.3808 109.707Z" fill="#000042"/>
<path d="M66.398 107.431L35.3286 96.4825L4.25918 107.431C0.60552 140.777 34.1438 151.894 34.1438 151.894H36.52C36.52 151.894 70.0516 140.777 66.398 107.431Z" fill="#FFF8EA" stroke="#FF4435" stroke-width="3.7439" stroke-miterlimit="10" stroke-linecap="round" stroke-linejoin="round"/>
<path d="M36.5198 154.278H34.1436C33.7531 154.278 33.3626 154.215 32.9986 154.093C32.6411 153.977 -2.51215 141.905 1.28713 107.224C1.3798 106.359 2.06155 105.605 3.05439 105.251L34.1238 94.3029C34.8916 94.0338 35.7719 94.0338 36.5397 94.3029L67.6091 105.251C68.6086 105.605 69.2837 106.359 69.3764 107.224C73.1756 141.91 38.0224 153.977 37.6649 154.093C37.3009 154.215 36.9104 154.278 36.5198 154.278ZM34.7724 149.514H35.8844C40.0345 147.978 65.7889 137.283 63.5517 109.034L35.3284 99.0884L7.1052 109.034C4.87461 137.278 30.6224 147.978 34.7724 149.514Z" fill="#C74A2E"/>
<path opacity="0.1" d="M69.3764 107.228C69.2837 106.363 68.602 105.608 67.6091 105.255L36.5397 94.3065C35.997 94.1166 35.4013 94.0691 34.832 94.143V154.282H36.5199C36.9104 154.282 37.3009 154.218 37.6649 154.097C38.0224 153.981 73.1757 141.909 69.3764 107.228Z" fill="#000042"/>
<path d="M39.805 136.476C48.9144 134.781 54.5754 127.52 52.4491 120.259C50.3228 112.997 41.2144 108.485 32.105 110.18C22.9955 111.875 17.3345 119.135 19.4608 126.397C21.5871 133.658 30.6955 138.171 39.805 136.476Z" fill="#C74A2E"/>
<path d="M31.4564 134.06L23.229 122.737L26.8959 121.044L31.9793 128.04L45.1708 114.585L48.5068 116.659L31.4564 134.06Z" fill="white"/>
<path opacity="0.2" d="M185.539 136.771H88.1874C87.5057 136.771 86.9497 137.214 86.9497 137.758V179.936C86.9497 180.48 87.5057 180.923 88.1874 180.923H185.539C186.221 180.923 186.777 180.48 186.777 179.936V137.758C186.777 137.214 186.227 136.771 185.539 136.771Z" fill="#000042"/>
<path d="M181.819 135.792H84.4678V177.971H181.819V135.792Z" fill="#FFF8EA" stroke="#C74A2E" stroke-width="3.7439" stroke-miterlimit="10" stroke-linecap="round" stroke-linejoin="round"/>
<path d="M181.766 135.804H84.4678V141.175H181.766V135.804Z" fill="#C74A2E"/>
<path d="M175.882 138.093C175.882 138.842 176.643 139.449 177.583 139.449C178.523 139.449 179.284 138.842 179.284 138.093C179.284 137.344 178.523 136.737 177.583 136.737C176.65 136.732 175.882 137.338 175.882 138.093Z" fill="white"/>
<path d="M169.687 138.093C169.687 138.842 170.448 139.449 171.388 139.449C172.328 139.449 173.089 138.842 173.089 138.093C173.089 137.344 172.328 136.737 171.388 136.737C170.455 136.732 169.687 137.338 169.687 138.093Z" fill="white"/>
<path d="M163.491 138.093C163.491 138.842 164.253 139.449 165.193 139.449C166.132 139.449 166.894 138.842 166.894 138.093C166.894 137.344 166.132 136.737 165.193 136.737C164.259 136.732 163.491 137.338 163.491 138.093Z" fill="white"/>
<path opacity="0.2" d="M135.672 153.315H62.7839C62.1021 153.315 61.5461 153.758 61.5461 154.302V189.072C61.5461 189.616 62.1021 190.059 62.7839 190.059H135.665C136.347 190.059 136.903 189.616 136.903 189.072V154.302C136.91 153.758 136.354 153.315 135.672 153.315Z" fill="#000042"/>
<path d="M131.952 152.326H59.0708V187.096H131.952V152.326Z" fill="#FFF8EA" stroke="#C74A2E" stroke-width="3.7439" stroke-miterlimit="10" stroke-linecap="round" stroke-linejoin="round"/>
<path d="M131.899 152.333H59.0708V157.705H131.899V152.333Z" fill="#C74A2E"/>
<path d="M126.015 154.627C126.015 155.376 126.776 155.983 127.716 155.983C128.656 155.983 129.417 155.376 129.417 154.627C129.417 153.877 128.656 153.271 127.716 153.271C126.776 153.271 126.015 153.877 126.015 154.627Z" fill="white"/>
<path d="M119.82 154.627C119.82 155.376 120.581 155.983 121.521 155.983C122.461 155.983 123.222 155.376 123.222 154.627C123.222 153.877 122.461 153.271 121.521 153.271C120.581 153.271 119.82 153.877 119.82 154.627Z" fill="white"/>
<path d="M113.624 154.627C113.624 155.376 114.385 155.983 115.325 155.983C116.265 155.983 117.026 155.376 117.026 154.627C117.026 153.877 116.265 153.271 115.325 153.271C114.385 153.271 113.624 153.877 113.624 154.627Z" fill="white"/>
<path d="M121.383 38.5781L118.57 50H114.922L113.828 45.0234C113.807 44.9297 113.773 44.7708 113.727 44.5469C113.685 44.3229 113.635 44.0677 113.578 43.7812C113.526 43.4948 113.477 43.2135 113.43 42.9375C113.388 42.6562 113.357 42.4193 113.336 42.2266C113.315 42.4193 113.281 42.6562 113.234 42.9375C113.188 43.2135 113.135 43.4948 113.078 43.7812C113.026 44.0677 112.974 44.3229 112.922 44.5469C112.875 44.7708 112.841 44.9297 112.82 45.0234L111.719 50H108.07L105.242 38.5781H108.219L109.461 44.3047C109.492 44.4453 109.534 44.6458 109.586 44.9062C109.643 45.1615 109.701 45.4427 109.758 45.75C109.82 46.0521 109.878 46.3438 109.93 46.625C109.982 46.9062 110.018 47.1406 110.039 47.3281C110.081 47.0052 110.135 46.638 110.203 46.2266C110.276 45.8151 110.354 45.3984 110.438 44.9766C110.526 44.5495 110.609 44.1536 110.688 43.7891C110.766 43.4245 110.833 43.1276 110.891 42.8984L111.898 38.5781H114.758L115.734 42.8984C115.786 43.1224 115.852 43.4193 115.93 43.7891C116.013 44.1536 116.096 44.5495 116.18 44.9766C116.268 45.4036 116.349 45.8255 116.422 46.2422C116.495 46.6536 116.549 47.0156 116.586 47.3281C116.617 47.0677 116.669 46.7396 116.742 46.3438C116.815 45.9427 116.888 45.5547 116.961 45.1797C117.039 44.7995 117.099 44.513 117.141 44.3203L118.406 38.5781H121.383ZM130.601 50H123.819V38.5781H130.601V41.0547H126.905V42.8516H130.327V45.3281H126.905V47.4844H130.601V50ZM133.561 38.5781H137.545C139.196 38.5781 140.373 38.8229 141.076 39.3125C141.779 39.8021 142.131 40.5052 142.131 41.4219C142.131 41.9219 142.04 42.3464 141.858 42.6953C141.68 43.0443 141.454 43.3203 141.178 43.5234C140.907 43.7266 140.628 43.8646 140.342 43.9375V44.0156C140.654 44.0938 140.964 44.224 141.272 44.4062C141.584 44.5833 141.842 44.8516 142.045 45.2109C142.253 45.5651 142.358 46.0469 142.358 46.6562C142.358 47.349 142.18 47.9453 141.826 48.4453C141.477 48.9453 140.977 49.3307 140.326 49.6016C139.675 49.8672 138.902 50 138.006 50H133.561V38.5781ZM136.647 42.9609H137.576C138.087 42.9609 138.446 42.8568 138.654 42.6484C138.863 42.4349 138.967 42.1771 138.967 41.875C138.967 41.5625 138.847 41.3255 138.608 41.1641C138.373 40.9974 138.009 40.9141 137.514 40.9141H136.647V42.9609ZM136.647 45.2188V47.6172H137.733C138.269 47.6172 138.644 47.5026 138.858 47.2734C139.071 47.0391 139.178 46.7474 139.178 46.3984C139.178 46.1953 139.131 46.0052 139.037 45.8281C138.949 45.6458 138.795 45.5 138.576 45.3906C138.358 45.276 138.055 45.2188 137.67 45.2188H136.647ZM152.771 46.5312C152.771 47.151 152.614 47.7396 152.302 48.2969C151.989 48.849 151.502 49.2969 150.841 49.6406C150.185 49.9844 149.336 50.1562 148.294 50.1562C147.773 50.1562 147.315 50.1328 146.919 50.0859C146.528 50.0391 146.164 49.9635 145.825 49.8594C145.487 49.75 145.135 49.6094 144.771 49.4375V46.6875C145.39 47 146.015 47.2396 146.646 47.4062C147.276 47.5677 147.846 47.6484 148.357 47.6484C148.664 47.6484 148.914 47.612 149.107 47.5391C149.304 47.4661 149.45 47.3672 149.544 47.2422C149.638 47.112 149.685 46.9635 149.685 46.7969C149.685 46.599 149.614 46.4323 149.474 46.2969C149.338 46.1562 149.12 46.0104 148.818 45.8594C148.515 45.7083 148.117 45.5208 147.622 45.2969C147.2 45.099 146.818 44.8958 146.474 44.6875C146.135 44.4792 145.844 44.2422 145.599 43.9766C145.359 43.7057 145.174 43.3906 145.044 43.0312C144.914 42.6719 144.849 42.2474 144.849 41.7578C144.849 41.0234 145.028 40.4089 145.388 39.9141C145.752 39.4141 146.258 39.0391 146.903 38.7891C147.554 38.5391 148.304 38.4141 149.153 38.4141C149.898 38.4141 150.568 38.4974 151.161 38.6641C151.76 38.8307 152.297 39.0208 152.771 39.2344L151.825 41.6172C151.336 41.3932 150.854 41.2161 150.38 41.0859C149.906 40.9505 149.466 40.8828 149.06 40.8828C148.794 40.8828 148.575 40.9167 148.403 40.9844C148.237 41.0469 148.112 41.1328 148.028 41.2422C147.95 41.3516 147.911 41.4766 147.911 41.6172C147.911 41.7943 147.979 41.9531 148.114 42.0938C148.255 42.2344 148.487 42.388 148.81 42.5547C149.138 42.7161 149.583 42.9271 150.146 43.1875C150.703 43.4375 151.177 43.7083 151.568 44C151.958 44.2865 152.255 44.6328 152.458 45.0391C152.666 45.4401 152.771 45.9375 152.771 46.5312ZM155.496 50V38.5781H158.598V50H155.496ZM167.073 50H163.987V41.1016H161.198V38.5781H169.855V41.1016H167.073V50ZM179.229 50H172.448V38.5781H179.229V41.0547H175.533V42.8516H178.955V45.3281H175.533V47.4844H179.229V50ZM116.023 68H112.922V63.3438H109.336V68H106.234V56.5781H109.336V60.8125H112.922V56.5781H116.023V68ZM130.148 62.2734C130.148 63.1536 130.041 63.9557 129.827 64.6797C129.619 65.3984 129.291 66.0182 128.843 66.5391C128.395 67.0599 127.819 67.4609 127.116 67.7422C126.413 68.0182 125.572 68.1562 124.593 68.1562C123.634 68.1562 122.804 68.0182 122.101 67.7422C121.403 67.4609 120.827 67.0625 120.374 66.5469C119.921 66.026 119.585 65.4036 119.366 64.6797C119.148 63.9557 119.038 63.1484 119.038 62.2578C119.038 61.0703 119.233 60.0391 119.624 59.1641C120.02 58.2839 120.629 57.6042 121.452 57.125C122.275 56.6406 123.327 56.3984 124.608 56.3984C125.911 56.3984 126.968 56.6406 127.78 57.125C128.598 57.6094 129.197 58.2917 129.577 59.1719C129.957 60.0521 130.148 61.0859 130.148 62.2734ZM122.288 62.2734C122.288 62.9609 122.366 63.5521 122.523 64.0469C122.679 64.5417 122.926 64.9219 123.265 65.1875C123.603 65.4531 124.046 65.5859 124.593 65.5859C125.161 65.5859 125.611 65.4531 125.944 65.1875C126.283 64.9219 126.525 64.5417 126.671 64.0469C126.822 63.5521 126.898 62.9609 126.898 62.2734C126.898 61.2422 126.726 60.4271 126.382 59.8281C126.038 59.2292 125.447 58.9297 124.608 58.9297C124.051 58.9297 123.601 59.0651 123.257 59.3359C122.918 59.6068 122.671 59.9922 122.515 60.4922C122.364 60.9922 122.288 61.5859 122.288 62.2734ZM140.639 64.5312C140.639 65.151 140.483 65.7396 140.17 66.2969C139.858 66.849 139.371 67.2969 138.709 67.6406C138.053 67.9844 137.204 68.1562 136.162 68.1562C135.641 68.1562 135.183 68.1328 134.787 68.0859C134.397 68.0391 134.032 67.9635 133.693 67.8594C133.355 67.75 133.003 67.6094 132.639 67.4375V64.6875C133.259 65 133.884 65.2396 134.514 65.4062C135.144 65.5677 135.714 65.6484 136.225 65.6484C136.532 65.6484 136.782 65.612 136.975 65.5391C137.173 65.4661 137.318 65.3672 137.412 65.2422C137.506 65.112 137.553 64.9635 137.553 64.7969C137.553 64.599 137.483 64.4323 137.342 64.2969C137.206 64.1562 136.988 64.0104 136.686 63.8594C136.384 63.7083 135.985 63.5208 135.49 63.2969C135.068 63.099 134.686 62.8958 134.342 62.6875C134.003 62.4792 133.712 62.2422 133.467 61.9766C133.227 61.7057 133.042 61.3906 132.912 61.0312C132.782 60.6719 132.717 60.2474 132.717 59.7578C132.717 59.0234 132.897 58.4089 133.256 57.9141C133.621 57.4141 134.126 57.0391 134.772 56.7891C135.423 56.5391 136.173 56.4141 137.022 56.4141C137.766 56.4141 138.436 56.4974 139.029 56.6641C139.628 56.8307 140.165 57.0208 140.639 57.2344L139.693 59.6172C139.204 59.3932 138.722 59.2161 138.248 59.0859C137.774 58.9505 137.334 58.8828 136.928 58.8828C136.662 58.8828 136.443 58.9167 136.272 58.9844C136.105 59.0469 135.98 59.1328 135.897 59.2422C135.818 59.3516 135.779 59.4766 135.779 59.6172C135.779 59.7943 135.847 59.9531 135.983 60.0938C136.123 60.2344 136.355 60.388 136.678 60.5547C137.006 60.7161 137.451 60.9271 138.014 61.1875C138.571 61.4375 139.045 61.7083 139.436 62C139.826 62.2865 140.123 62.6328 140.326 63.0391C140.535 63.4401 140.639 63.9375 140.639 64.5312ZM148.403 68H145.318V59.1016H142.528V56.5781H151.185V59.1016H148.403V68ZM153.778 68V56.5781H156.879V68H153.778ZM171.191 68H167.144L162.972 59.9531H162.902C162.928 60.1979 162.951 60.4922 162.972 60.8359C162.993 61.1797 163.011 61.5312 163.027 61.8906C163.042 62.2448 163.05 62.5651 163.05 62.8516V68H160.316V56.5781H164.347L168.503 64.5156H168.55C168.534 64.2656 168.519 63.9766 168.503 63.6484C168.487 63.3151 168.472 62.9792 168.456 62.6406C168.446 62.3021 168.441 62.0026 168.441 61.7422V56.5781H171.191V68ZM179.205 61.3125H184.135V67.4688C183.546 67.6719 182.872 67.8385 182.112 67.9688C181.351 68.0938 180.554 68.1562 179.721 68.1562C178.622 68.1562 177.658 67.9427 176.83 67.5156C176.002 67.0885 175.356 66.4401 174.893 65.5703C174.429 64.6953 174.198 63.5911 174.198 62.2578C174.198 61.0599 174.427 60.026 174.885 59.1562C175.343 58.2812 176.018 57.6068 176.908 57.1328C177.804 56.6536 178.901 56.4141 180.198 56.4141C180.911 56.4141 181.588 56.4818 182.229 56.6172C182.869 56.7526 183.427 56.9245 183.901 57.1328L182.924 59.5547C182.513 59.3516 182.086 59.2005 181.643 59.1016C181.2 58.9974 180.724 58.9453 180.213 58.9453C179.531 58.9453 178.981 59.099 178.565 59.4062C178.153 59.7135 177.854 60.125 177.666 60.6406C177.479 61.151 177.385 61.7161 177.385 62.3359C177.385 63.0443 177.484 63.6432 177.682 64.1328C177.885 64.6172 178.179 64.987 178.565 65.2422C178.955 65.4922 179.427 65.6172 179.979 65.6172C180.161 65.6172 180.382 65.6042 180.643 65.5781C180.908 65.5521 181.109 65.5208 181.244 65.4844V63.6953H179.205V61.3125Z" fill="white"/>
</svg>
