<svg width="370" height="449" viewBox="0 0 370 449" fill="none" xmlns="http://www.w3.org/2000/svg">
<g filter="url(#filter0_d_1218_33234)">
<rect x="16" y="16.9961" width="345" height="410" fill="#FFF8EA"/>
</g>
<path fill-rule="evenodd" clip-rule="evenodd" d="M254.854 17.875C254.933 18.0123 255.024 18.1717 254.994 18.5156C254.731 18.7252 254.41 18.7534 254.079 18.7824C253.606 18.824 253.114 18.8673 252.746 19.4481C252.266 20.1894 251.725 21.6687 251.986 22.5778C252.443 23.967 252.259 25.2899 252.073 26.6202C251.96 27.4259 251.848 28.2343 251.877 29.0618C251.86 30.2706 251.399 31.4266 250.589 32.2921C250.351 32.5273 249.944 32.7523 249.533 32.9793C249 33.2736 248.461 33.5713 248.279 33.8989C247.99 34.3929 247.557 34.7942 247.126 35.1923C246.853 35.4458 246.58 35.6979 246.347 35.9719C246.146 36.199 246.051 36.5477 245.96 36.8784C245.909 37.0657 245.86 37.2472 245.793 37.3976C245.444 38.0631 244.996 38.6675 244.466 39.1888C244.75 39.4643 245.08 39.6731 245.403 39.8777C246.123 40.3333 246.81 40.7682 246.879 41.8723C246.923 42.5529 247.309 42.9628 247.649 43.3237C248.171 43.8771 248.584 44.3153 247.49 45.4381C247.027 45.9813 246.437 46.3913 245.777 46.6289C245.47 46.7107 245.236 46.8746 245.012 47.0315C244.813 47.1705 244.623 47.304 244.396 47.3702C244.037 47.4722 243.759 47.4888 243.545 47.5016C243.034 47.5323 242.888 47.541 242.888 48.6382C242.814 49.6426 242.799 50.6508 242.843 51.6571C243.054 53.4013 243.438 55.1179 243.99 56.7793C244.094 57.0545 244.171 57.3482 244.248 57.6419C244.345 58.0105 244.442 58.3792 244.592 58.7115C244.741 59.0632 244.947 59.4076 245.156 59.7551C245.509 60.3453 245.868 60.9442 245.961 61.603C246.043 62.201 245.779 62.6944 245.514 63.1895C245.363 63.472 245.211 63.755 245.123 64.0584C244.856 64.8693 244.718 65.7202 244.714 66.5775C244.76 67.5335 244.792 68.3084 243.793 68.6908C243.223 68.5329 242.85 67.9989 242.497 67.4937C242.34 67.2691 242.187 67.0503 242.022 66.8727C241.684 68.7378 238.293 67.0941 237.749 66.014C237.48 65.4289 237.673 64.8815 237.872 64.3165C238.014 63.9129 238.159 63.5004 238.142 63.0588C238.077 61.3245 237.881 59.9358 236.853 58.5035C236.175 57.5597 235.907 58.0011 235.532 58.6178C235.371 58.8823 235.191 59.179 234.95 59.4125C234.229 60.2156 233.38 60.697 232.507 61.1923C232.151 61.3942 231.791 61.5984 231.433 61.8277C230.567 62.2636 229.886 63.0173 229.521 63.9443C229.41 64.304 229.44 64.6477 229.471 64.9947C229.495 65.2625 229.519 65.5322 229.479 65.8127C229.38 66.2742 229.25 66.728 229.12 67.1819C228.978 67.6781 228.836 68.1744 228.735 68.6808C228.477 69.999 228.464 70.3278 229.021 71.5421C229.667 72.9278 228.598 72.9348 227.522 72.9419C227.384 72.9428 227.246 72.9437 227.112 72.9476C226.983 72.9514 226.849 72.9559 226.71 72.9606C225.272 73.0086 223.292 73.0746 222.023 72.6557C220.973 72.3714 220.157 71.5097 219.898 70.4116C219.785 69.7411 220.269 69.1155 220.728 68.5212C220.978 68.1968 221.221 67.8818 221.357 67.5738C221.753 66.7556 221.727 65.7842 221.286 64.9909C220.963 64.3297 220.777 63.632 220.597 62.9565C220.209 61.5006 219.848 60.1474 218.207 59.483C217.59 59.2332 216.993 59.4023 216.392 59.5726C215.879 59.7179 215.363 59.8641 214.829 59.7513C213.812 59.4812 213.093 58.5366 213.074 57.4435C213.071 57.4046 213.068 57.361 213.065 57.3131C213.01 56.5546 212.88 54.7376 213.277 54.2769C214.169 53.2337 214.404 55.934 214.372 56.3634C214.211 57.5307 214.259 59.2716 215.869 58.423C216.837 57.8607 217.204 56.8752 217.584 55.8561C217.598 55.8172 217.613 55.7784 217.628 55.7394C217.762 55.3785 217.892 55.0225 218.02 54.6711C218.924 52.1914 219.743 49.9468 221.579 47.8901C222.946 46.1501 225.008 45.5387 227.034 44.9376C227.418 44.8237 227.801 44.7102 228.178 44.5894C229.481 44.2263 230.73 43.6754 231.888 42.9524C232.942 42.2529 232.868 42.0133 232.684 41.4158C232.595 41.128 232.48 40.7572 232.454 40.2119C232.437 39.866 232.668 39.3221 232.9 38.7737C233.066 38.3807 233.233 37.9855 233.311 37.6592C233.559 36.6044 234.688 36.3745 235.627 36.1835C235.87 36.1339 236.101 36.087 236.3 36.029C236.678 35.621 236.96 35.073 237.241 34.5287C237.451 34.1198 237.661 33.7128 237.91 33.3689C238.724 32.2016 240.322 31.3797 241.642 30.994C242.455 30.7569 243.333 30.6316 244.21 30.5065C246.584 30.1676 248.952 29.8297 250.015 27.2773C250.449 26.238 250.444 24.8544 250.438 23.4487C250.427 20.6941 250.416 17.8547 253.712 17.355C253.914 17.3321 254.069 17.2427 254.214 17.1589C254.431 17.0339 254.626 16.9212 254.923 17.0598C254.666 17.5482 254.749 17.6921 254.854 17.875ZM241.246 62.6366C241.066 63.41 241.08 64.2188 241.288 64.9847C243.523 63.8039 243.278 61.0801 241.362 59.6914C241.386 59.9752 241.418 60.2189 241.448 60.4407C241.545 61.1861 241.611 61.6852 241.246 62.6366Z" fill="#B44F45" fill-opacity="0.12"/>
<path d="M16 16.9961H306L156.521 66.0066L16 112.996V16.9961Z" fill="url(#paint0_linear_1218_33234)"/>
<path d="M55.5157 71.0565L51.4967 65.5658L43.758 67.6394L43.036 74.4004L40.7646 75.009L43.1238 53.5985L45.1444 53.0571L57.84 70.4337L55.5157 71.0565ZM50.2889 63.7522L46.3994 58.2693C46.3041 58.125 46.1465 57.8888 45.9265 57.5609C45.7153 57.2306 45.4962 56.8883 45.2692 56.5339C45.0421 56.1796 44.8571 55.8942 44.7142 55.6777C44.7229 56.0623 44.7228 56.4492 44.7138 56.8384C44.7113 57.2165 44.703 57.5726 44.6887 57.9067C44.672 58.232 44.6568 58.5098 44.643 58.7399L43.9764 65.4436L50.2889 63.7522ZM74.3607 66.007L71.6402 66.7359L60.1402 59.3149L62.7658 69.1138L60.5208 69.7154L55.3474 50.4082L57.5924 49.8066L60.0977 59.1565L66.2424 47.4889L68.8176 46.7989L62.7856 58.4646L74.3607 66.007ZM93.1899 58.8386L95.0724 65.8642L92.9198 66.441L91.5681 61.3963L77.0283 65.2922L71.8549 45.985L74.1 45.3834L78.7355 62.6833L88.6532 60.0259L84.0177 42.726L86.2363 42.1315L90.8789 59.4578L93.1899 58.8386ZM96.9694 59.949L91.796 40.6418L94.0411 40.0402L99.2144 59.3474L96.9694 59.949ZM107.974 48.3522L105.117 57.7657L102.489 58.4699L105.619 48.5444C104.856 48.513 104.112 48.3774 103.387 48.1375C102.669 47.8865 102.023 47.4507 101.451 46.8302C100.888 46.2074 100.456 45.3325 100.154 44.2056C99.6818 42.4448 99.9207 40.9418 100.87 39.6965C101.829 38.4489 103.497 37.5066 105.874 36.8697L111.169 35.4508L116.343 54.758L114.098 55.3595L111.936 47.2906L107.974 48.3522ZM109.437 37.9672L106.466 38.7634C105.401 39.0488 104.531 39.4138 103.858 39.8585C103.193 40.3008 102.742 40.8368 102.505 41.4665C102.268 42.0962 102.264 42.838 102.493 43.692C102.821 44.9158 103.478 45.7493 104.465 46.1925C105.45 46.627 106.774 46.6213 108.438 46.1755L111.422 45.3758L109.437 37.9672ZM121.852 47.535L120.413 47.9207L116.069 34.138L118.723 33.4267L121.852 47.535ZM120.61 52.1425C120.445 51.5262 120.478 51.0503 120.709 50.7148C120.937 50.3705 121.276 50.1381 121.725 50.0178C122.165 49.8999 122.57 49.9329 122.94 50.1168C123.317 50.2895 123.588 50.684 123.753 51.3003C123.916 51.9078 123.881 52.3937 123.648 52.758C123.422 53.1111 123.089 53.3467 122.649 53.4646C122.2 53.5849 121.789 53.5487 121.416 53.356C121.041 53.1545 120.773 52.75 120.61 52.1425Z" fill="white"/>
<path d="M38 161.996L348.68 147.885L326.978 179.903L351.493 209.821L40.8131 223.932L66.3664 191.74L38 161.996Z" fill="url(#paint1_linear_1218_33234)"/>
<path d="M124.88 199.812L123.865 182.709L136.604 181.953L137.619 199.056L135.654 199.172L134.743 183.824L125.958 184.346L126.868 199.694L124.88 199.812ZM146.203 185.445C147.295 185.38 148.245 185.567 149.054 186.004C149.862 186.441 150.499 187.084 150.964 187.933C151.429 188.774 151.696 189.776 151.765 190.938L151.836 192.143L142.981 192.668C143.093 194.172 143.536 195.296 144.308 196.041C145.08 196.786 146.125 197.119 147.443 197.041C148.254 196.992 148.967 196.876 149.582 196.691C150.197 196.505 150.831 196.249 151.485 195.92L151.586 197.628C150.956 197.955 150.325 198.204 149.694 198.374C149.07 198.544 148.325 198.655 147.459 198.707C146.227 198.78 145.136 198.594 144.186 198.149C143.244 197.697 142.49 196.998 141.925 196.053C141.361 195.108 141.036 193.93 140.953 192.519C140.871 191.138 141.03 189.931 141.43 188.898C141.838 187.856 142.447 187.038 143.257 186.442C144.074 185.845 145.056 185.513 146.203 185.445ZM146.274 187.038C145.237 187.099 144.43 187.487 143.854 188.202C143.278 188.917 142.968 189.887 142.923 191.11L149.708 190.708C149.655 189.944 149.494 189.28 149.226 188.717C148.965 188.146 148.592 187.714 148.105 187.422C147.617 187.122 147.007 186.994 146.274 187.038ZM160.744 184.582C162.342 184.487 163.65 184.962 164.667 186.005C165.684 187.048 166.257 188.673 166.388 190.88C166.475 192.338 166.329 193.576 165.951 194.592C165.573 195.609 165.002 196.394 164.236 196.948C163.479 197.502 162.562 197.81 161.486 197.874C160.807 197.914 160.205 197.86 159.68 197.711C159.154 197.563 158.699 197.347 158.315 197.065C157.93 196.782 157.606 196.469 157.343 196.124L157.203 196.133C157.244 196.435 157.293 196.8 157.35 197.227C157.415 197.654 157.456 198.027 157.475 198.347L157.788 203.611L155.834 203.727L154.733 185.174L156.336 185.079L156.706 186.959L156.799 186.953C157.026 186.548 157.309 186.175 157.648 185.834C157.988 185.485 158.409 185.202 158.913 184.984C159.424 184.758 160.034 184.624 160.744 184.582ZM160.502 186.24C159.613 186.293 158.905 186.507 158.38 186.883C157.862 187.258 157.499 187.796 157.29 188.497C157.081 189.19 156.999 190.052 157.044 191.082L157.066 191.457C157.131 192.541 157.302 193.45 157.58 194.185C157.867 194.919 158.294 195.465 158.863 195.823C159.44 196.18 160.193 196.331 161.121 196.276C161.916 196.229 162.566 195.975 163.071 195.514C163.576 195.054 163.934 194.434 164.146 193.654C164.366 192.867 164.446 191.974 164.387 190.975C164.297 189.462 163.929 188.279 163.284 187.425C162.646 186.563 161.718 186.168 160.502 186.24ZM186.599 183.283L187.36 196.104L170.163 197.124L169.403 184.303L171.344 184.188L172.007 195.36L177.681 195.023L177.018 183.851L178.972 183.735L179.635 194.907L185.32 194.57L184.657 183.398L186.599 183.283ZM192.565 182.929L193.043 190.989C193.052 191.145 193.061 191.348 193.068 191.598C193.074 191.84 193.078 192.102 193.079 192.384C193.08 192.658 193.08 192.924 193.079 193.182C193.086 193.432 193.087 193.639 193.081 193.804L199.432 182.521L201.818 182.38L202.579 195.201L200.766 195.309L200.299 187.447C200.285 187.198 200.269 186.878 200.254 186.487C200.239 186.097 200.228 185.714 200.221 185.339C200.214 184.956 200.208 184.659 200.204 184.448L193.876 195.717L191.477 195.86L190.717 183.039L192.565 182.929ZM219.482 181.332L220.243 194.153L218.489 194.257L217.993 185.904C217.973 185.561 217.96 185.214 217.955 184.862C217.957 184.502 217.963 184.141 217.973 183.781L217.902 183.785L214.265 194.507L212.616 194.605L207.842 184.382L207.772 184.386C207.816 184.743 207.853 185.101 207.882 185.46C207.919 185.81 207.949 186.18 207.972 186.569L208.463 194.852L206.697 194.957L205.936 182.135L208.545 181.981L213.308 192.216L216.885 181.486L219.482 181.332ZM234.421 182.816C235.583 182.748 236.605 182.886 237.486 183.233C238.367 183.572 239.064 184.102 239.576 184.823C240.096 185.544 240.388 186.438 240.451 187.507C240.521 188.676 240.327 189.701 239.871 190.581C239.414 191.454 238.723 192.148 237.799 192.665C236.875 193.174 235.749 193.467 234.424 193.546C233.535 193.599 232.703 193.57 231.93 193.459C231.156 193.349 230.499 193.153 229.958 192.872L229.848 191.024C230.438 191.333 231.144 191.565 231.967 191.72C232.79 191.874 233.584 191.929 234.348 191.884C235.214 191.832 235.962 191.651 236.594 191.339C237.232 191.02 237.714 190.569 238.039 189.986C238.372 189.395 238.513 188.67 238.462 187.812C238.395 186.674 237.992 185.817 237.253 185.243C236.522 184.66 235.404 184.413 233.899 184.503C233.415 184.531 232.887 184.602 232.315 184.714C231.742 184.826 231.272 184.94 230.903 185.056L229.882 184.471L230.061 176.407L238.565 175.903L238.671 177.681L231.828 178.087L231.701 183.271C231.993 183.191 232.372 183.106 232.836 183.016C233.3 182.918 233.828 182.852 234.421 182.816ZM242.794 187.227L242.692 185.495L248.494 185.151L248.597 186.882L242.794 187.227ZM264.708 178.648L265.468 191.469L263.714 191.573L263.218 183.221C263.198 182.878 263.185 182.53 263.18 182.178C263.182 181.818 263.188 181.458 263.198 181.097L263.127 181.101L259.491 191.824L257.841 191.922L253.067 181.698L252.997 181.702C253.042 182.06 253.078 182.418 253.108 182.776C253.144 183.126 253.174 183.496 253.197 183.886L253.688 192.168L251.922 192.273L251.161 179.452L253.77 179.297L258.533 189.533L262.111 178.802L264.708 178.648Z" fill="white"/>
<path fill-rule="evenodd" clip-rule="evenodd" d="M257.854 271.875C257.933 272.012 258.024 272.172 257.994 272.516C257.731 272.725 257.41 272.753 257.079 272.782C256.606 272.824 256.114 272.867 255.746 273.448C255.266 274.189 254.725 275.669 254.986 276.578C255.443 277.967 255.259 279.29 255.073 280.62C254.96 281.426 254.848 282.234 254.877 283.062C254.86 284.271 254.399 285.427 253.589 286.292C253.351 286.527 252.944 286.752 252.533 286.979C252 287.274 251.461 287.571 251.279 287.899C250.99 288.393 250.557 288.794 250.126 289.192C249.853 289.446 249.58 289.698 249.347 289.972C249.146 290.199 249.051 290.548 248.96 290.878C248.909 291.066 248.86 291.247 248.793 291.398C248.444 292.063 247.996 292.668 247.466 293.189C247.75 293.464 248.08 293.673 248.403 293.878C249.123 294.333 249.81 294.768 249.879 295.872C249.923 296.553 250.309 296.963 250.649 297.324C251.171 297.877 251.584 298.315 250.49 299.438C250.027 299.981 249.437 300.391 248.777 300.629C248.47 300.711 248.236 300.875 248.012 301.032C247.813 301.171 247.623 301.304 247.396 301.37C247.037 301.472 246.759 301.489 246.545 301.502C246.034 301.532 245.888 301.541 245.888 302.638C245.814 303.643 245.799 304.651 245.843 305.657C246.054 307.401 246.438 309.118 246.99 310.779C247.094 311.055 247.171 311.348 247.248 311.642C247.345 312.011 247.442 312.379 247.592 312.711C247.741 313.063 247.947 313.408 248.156 313.755C248.509 314.345 248.868 314.944 248.961 315.603C249.043 316.201 248.779 316.694 248.514 317.19C248.363 317.472 248.211 317.755 248.123 318.058C247.856 318.869 247.718 319.72 247.714 320.578C247.76 321.534 247.792 322.308 246.793 322.691C246.223 322.533 245.85 321.999 245.497 321.494C245.34 321.269 245.187 321.05 245.022 320.873C244.684 322.738 241.293 321.094 240.749 320.014C240.48 319.429 240.673 318.882 240.872 318.316C241.014 317.913 241.159 317.5 241.142 317.059C241.077 315.325 240.881 313.936 239.853 312.503C239.175 311.56 238.907 312.001 238.532 312.618C238.371 312.882 238.191 313.179 237.95 313.413C237.229 314.216 236.38 314.697 235.507 315.192C235.151 315.394 234.791 315.598 234.433 315.828C233.567 316.264 232.886 317.017 232.521 317.944C232.41 318.304 232.44 318.648 232.471 318.995C232.495 319.262 232.519 319.532 232.479 319.813C232.38 320.274 232.25 320.728 232.12 321.182C231.978 321.678 231.836 322.174 231.735 322.681C231.477 323.999 231.464 324.328 232.021 325.542C232.667 326.928 231.598 326.935 230.522 326.942C230.384 326.943 230.246 326.944 230.112 326.948C229.983 326.951 229.849 326.956 229.71 326.961C228.272 327.009 226.292 327.075 225.023 326.656C223.973 326.371 223.157 325.51 222.898 324.412C222.785 323.741 223.269 323.116 223.728 322.521C223.978 322.197 224.221 321.882 224.357 321.574C224.753 320.756 224.727 319.784 224.286 318.991C223.963 318.33 223.777 317.632 223.597 316.957C223.209 315.501 222.848 314.147 221.207 313.483C220.59 313.233 219.993 313.402 219.392 313.573C218.879 313.718 218.363 313.864 217.829 313.751C216.812 313.481 216.093 312.537 216.074 311.443C216.071 311.405 216.068 311.361 216.065 311.313C216.01 310.555 215.88 308.738 216.277 308.277C217.169 307.234 217.404 309.934 217.372 310.363C217.211 311.531 217.259 313.272 218.869 312.423C219.837 311.861 220.204 310.875 220.584 309.856C220.598 309.817 220.613 309.778 220.628 309.739C220.762 309.379 220.892 309.022 221.02 308.671C221.924 306.191 222.743 303.947 224.579 301.89C225.946 300.15 228.008 299.539 230.034 298.938C230.418 298.824 230.801 298.71 231.178 298.589C232.481 298.226 233.73 297.675 234.888 296.952C235.942 296.253 235.868 296.013 235.684 295.416C235.595 295.128 235.48 294.757 235.454 294.212C235.437 293.866 235.668 293.322 235.9 292.774C236.066 292.381 236.233 291.985 236.311 291.659C236.559 290.604 237.688 290.374 238.627 290.183C238.87 290.134 239.101 290.087 239.3 290.029C239.678 289.621 239.96 289.073 240.241 288.529C240.451 288.12 240.661 287.713 240.91 287.369C241.724 286.202 243.322 285.38 244.642 284.994C245.455 284.757 246.333 284.632 247.21 284.506C249.584 284.168 251.952 283.83 253.015 281.277C253.449 280.238 253.444 278.854 253.438 277.449C253.427 274.694 253.416 271.855 256.712 271.355C256.914 271.332 257.069 271.243 257.214 271.159C257.431 271.034 257.626 270.921 257.923 271.06C257.666 271.548 257.749 271.692 257.854 271.875ZM244.246 316.637C244.066 317.41 244.08 318.219 244.288 318.985C246.523 317.804 246.278 315.08 244.362 313.691C244.386 313.975 244.418 314.219 244.448 314.441C244.545 315.186 244.611 315.685 244.246 316.637Z" fill="#B44F45" fill-opacity="0.12"/>
<path d="M90.1775 287.829L89.2139 267.864L100.944 267.298L101.043 269.347L91.6343 269.801L91.9454 276.246L95.0453 276.097C96.9662 276.004 98.4798 276.168 99.586 276.589C100.692 277.01 101.484 277.634 101.962 278.459C102.449 279.284 102.72 280.257 102.774 281.377C102.862 283.216 102.381 284.676 101.329 285.758C100.286 286.83 98.494 287.428 95.954 287.551L90.1775 287.829ZM92.4028 285.724L95.612 285.569C97.4145 285.482 98.6739 285.106 99.3901 284.442C100.115 283.768 100.446 282.785 100.384 281.492C100.34 280.591 100.124 279.885 99.7341 279.374C99.3445 278.864 98.7527 278.514 97.9588 278.324C97.1648 278.134 96.1306 278.07 94.856 278.132L92.0429 278.267L92.4028 285.724ZM118.418 286.466L107.302 287.003L106.338 267.038L117.454 266.501L117.553 268.55L108.759 268.974L109.071 275.433L117.36 275.033L117.457 277.054L109.168 277.454L109.525 284.842L118.319 284.418L118.418 286.466ZM133.754 270.409C133.819 271.766 133.452 272.86 132.653 273.693C131.853 274.516 130.758 275.08 129.367 275.385L129.372 275.48C131.022 275.638 132.295 276.106 133.19 276.884C134.085 277.662 134.565 278.715 134.629 280.044C134.686 281.219 134.44 282.266 133.891 283.187C133.351 284.098 132.506 284.828 131.355 285.376C130.205 285.925 128.755 286.241 127.007 286.325C125.924 286.378 124.886 286.341 123.895 286.216C122.904 286.099 121.989 285.865 121.151 285.513L121.047 283.369C121.625 283.615 122.246 283.822 122.911 283.991C123.577 284.16 124.249 284.282 124.928 284.359C125.615 284.426 126.269 284.445 126.888 284.415C128.69 284.328 130.039 283.916 130.934 283.179C131.838 282.433 132.26 281.427 132.199 280.162C132.136 278.86 131.548 277.939 130.436 277.4C129.333 276.851 127.807 276.623 125.859 276.717L122.991 276.856L122.897 274.903L125.669 274.769C126.98 274.706 128.061 274.503 128.911 274.161C129.761 273.81 130.387 273.346 130.788 272.77C131.198 272.184 131.384 271.509 131.347 270.745C131.296 269.698 130.875 268.91 130.083 268.383C129.3 267.855 128.299 267.62 127.079 267.679C125.814 267.74 124.775 267.955 123.962 268.322C123.149 268.681 122.363 269.134 121.605 269.682L120.409 268.152C120.918 267.744 121.502 267.369 122.161 267.027C122.819 266.676 123.554 266.389 124.364 266.168C125.174 265.937 126.053 265.799 127 265.753C128.411 265.685 129.609 265.842 130.595 266.223C131.58 266.595 132.341 267.142 132.878 267.865C133.415 268.587 133.707 269.435 133.754 270.409ZM153.459 284.775L150.646 284.911L140.98 275.221L141.469 285.354L139.148 285.466L138.184 265.501L140.506 265.389L140.972 275.057L149.45 264.957L152.113 264.828L143.746 274.951L153.459 284.775ZM173.05 273.796C173.125 275.335 172.997 276.746 172.666 278.031C172.335 279.306 171.805 280.417 171.075 281.365C170.354 282.303 169.436 283.046 168.322 283.592C167.208 284.139 165.899 284.448 164.397 284.521C162.85 284.595 161.486 284.415 160.306 283.979C159.135 283.543 158.145 282.888 157.337 282.015C156.537 281.141 155.916 280.08 155.472 278.833C155.038 277.586 154.783 276.193 154.709 274.654C154.611 272.615 154.861 270.81 155.461 269.239C156.06 267.667 157.022 266.421 158.346 265.499C159.68 264.577 161.38 264.066 163.446 263.967C165.422 263.871 167.104 264.214 168.492 264.996C169.889 265.777 170.971 266.92 171.737 268.426C172.512 269.921 172.95 271.711 173.05 273.796ZM157.155 274.563C157.237 276.257 157.549 277.711 158.091 278.926C158.633 280.141 159.417 281.061 160.442 281.687C161.476 282.312 162.762 282.588 164.3 282.513C165.848 282.439 167.097 282.041 168.048 281.32C169.008 280.598 169.695 279.607 170.108 278.346C170.522 277.085 170.688 275.608 170.606 273.914C170.482 271.338 169.843 269.352 168.69 267.957C167.545 266.552 165.83 265.905 163.545 266.015C161.997 266.09 160.739 266.483 159.77 267.196C158.8 267.909 158.099 268.892 157.667 270.145C157.243 271.388 157.073 272.861 157.155 274.563ZM201.351 282.463L177.985 283.591L177.022 263.626L179.343 263.514L180.207 281.403L188.387 281.009L187.523 263.119L189.845 263.007L190.708 280.897L198.902 280.501L198.038 262.612L200.387 262.498L201.351 282.463ZM212.986 281.902L210.651 282.015L209.786 264.098L203.504 264.401L203.405 262.353L218.277 261.635L218.375 263.683L212.121 263.985L212.986 281.902ZM239.091 270.609C239.165 272.147 239.037 273.559 238.707 274.843C238.376 276.118 237.845 277.23 237.115 278.178C236.394 279.116 235.476 279.858 234.362 280.405C233.248 280.951 231.94 281.261 230.438 281.333C228.89 281.408 227.526 281.227 226.346 280.792C225.175 280.355 224.186 279.7 223.377 278.827C222.577 277.953 221.956 276.893 221.512 275.646C221.078 274.398 220.824 273.005 220.749 271.467C220.651 269.427 220.902 267.622 221.501 266.051C222.1 264.48 223.062 263.234 224.387 262.312C225.72 261.39 227.42 260.879 229.487 260.779C231.462 260.684 233.144 261.027 234.532 261.808C235.93 262.59 237.011 263.733 237.778 265.238C238.552 266.734 238.99 268.524 239.091 270.609ZM223.195 271.376C223.277 273.069 223.589 274.523 224.131 275.738C224.673 276.953 225.457 277.873 226.482 278.499C227.516 279.125 228.802 279.4 230.341 279.326C231.888 279.251 233.138 278.853 234.088 278.132C235.048 277.41 235.735 276.419 236.148 275.158C236.562 273.897 236.728 272.42 236.646 270.727C236.522 268.15 235.883 266.164 234.73 264.769C233.585 263.364 231.871 262.717 229.585 262.827C228.038 262.902 226.779 263.296 225.81 264.009C224.841 264.722 224.14 265.705 223.707 266.957C223.284 268.201 223.113 269.673 223.195 271.376ZM243.062 260.439L248.716 260.166C251.21 260.045 253.104 260.328 254.396 261.014C255.688 261.7 256.378 262.939 256.464 264.733C256.502 265.507 256.385 266.211 256.115 266.844C255.853 267.468 255.449 267.994 254.904 268.422C254.359 268.85 253.676 269.161 252.855 269.356L252.862 269.492C253.742 269.587 254.528 269.8 255.219 270.131C255.911 270.463 256.463 270.947 256.877 271.584C257.291 272.221 257.523 273.045 257.571 274.056C257.631 275.285 257.394 276.336 256.861 277.211C256.338 278.085 255.568 278.765 254.551 279.252C253.534 279.73 252.315 280.004 250.895 280.072L244.026 280.404L243.062 260.439ZM245.797 268.889L249.621 268.704C251.359 268.62 252.547 268.276 253.184 267.67C253.83 267.064 254.127 266.21 254.073 265.108C254.019 263.97 253.578 263.17 252.753 262.708C251.937 262.246 250.659 262.057 248.921 262.141L245.479 262.307L245.797 268.889ZM245.891 270.842L246.252 278.311L250.403 278.111C252.178 278.025 253.418 277.619 254.122 276.891C254.826 276.155 255.149 275.195 255.092 274.011C255.055 273.255 254.856 272.617 254.493 272.096C254.139 271.575 253.582 271.191 252.822 270.945C252.071 270.689 251.076 270.591 249.838 270.651L245.891 270.842ZM277.237 278.801L274.916 278.913L274.461 269.504L263.974 270.01L264.428 279.419L262.106 279.531L261.143 259.566L263.464 259.454L263.875 267.962L274.363 267.455L273.952 258.948L276.273 258.836L277.237 278.801ZM299.559 267.69C299.634 269.229 299.506 270.64 299.175 271.924C298.844 273.2 298.314 274.311 297.584 275.259C296.863 276.197 295.945 276.939 294.831 277.486C293.717 278.033 292.408 278.342 290.906 278.415C289.359 278.489 287.995 278.309 286.815 277.873C285.644 277.437 284.654 276.782 283.846 275.908C283.046 275.034 282.424 273.974 281.981 272.727C281.547 271.48 281.292 270.086 281.218 268.548C281.12 266.509 281.37 264.703 281.97 263.132C282.569 261.561 283.531 260.315 284.855 259.393C286.189 258.471 287.889 257.96 289.955 257.86C291.931 257.765 293.613 258.108 295.001 258.89C296.398 259.671 297.48 260.814 298.246 262.319C299.021 263.815 299.459 265.605 299.559 267.69ZM283.664 268.457C283.746 270.151 284.058 271.605 284.6 272.82C285.142 274.034 285.926 274.955 286.951 275.581C287.985 276.206 289.271 276.481 290.809 276.407C292.357 276.332 293.606 275.935 294.557 275.213C295.517 274.492 296.203 273.5 296.617 272.24C297.031 270.979 297.197 269.501 297.115 267.808C296.991 265.232 296.352 263.246 295.199 261.851C294.054 260.446 292.339 259.798 290.054 259.909C288.506 259.983 287.248 260.377 286.279 261.09C285.309 261.803 284.608 262.786 284.176 264.039C283.752 265.282 283.582 266.755 283.664 268.457Z" fill="#333333"/>
<path fill-rule="evenodd" clip-rule="evenodd" d="M78.8537 205.875C78.9327 206.012 79.0244 206.172 78.994 206.516C78.7306 206.725 78.4095 206.753 78.0793 206.782C77.6061 206.824 77.1142 206.867 76.7462 207.448C76.2663 208.189 75.7253 209.669 75.9862 210.578C76.4434 211.967 76.2587 213.29 76.0729 214.62C75.9604 215.426 75.8475 216.234 75.8767 217.062C75.8597 218.271 75.3987 219.427 74.5885 220.292C74.3515 220.527 73.9441 220.752 73.5331 220.979C73.0002 221.274 72.4613 221.571 72.2795 221.899C71.9902 222.393 71.5566 222.794 71.1264 223.192C70.8526 223.446 70.5802 223.698 70.3472 223.972C70.1457 224.199 70.0505 224.548 69.9603 224.878C69.9092 225.066 69.8597 225.247 69.7933 225.398C69.4435 226.063 68.9958 226.668 68.4665 227.189C68.7499 227.464 69.0798 227.673 69.403 227.878C70.1227 228.333 70.8097 228.768 70.8786 229.872C70.9231 230.553 71.3093 230.963 71.6494 231.324C72.1709 231.877 72.5839 232.315 71.4905 233.438C71.0267 233.981 70.4368 234.391 69.7772 234.629C69.4698 234.711 69.2357 234.875 69.0117 235.032C68.8132 235.171 68.6225 235.304 68.3956 235.37C68.0374 235.472 67.7593 235.489 67.5453 235.502C67.0341 235.532 66.8885 235.541 66.8885 236.638C66.8138 237.643 66.7988 238.651 66.8434 239.657C67.0541 241.401 67.4383 243.118 67.9899 244.779C68.0941 245.055 68.1711 245.348 68.2482 245.642C68.3448 246.011 68.4415 246.379 68.5921 246.711C68.7413 247.063 68.9475 247.408 69.1555 247.755C69.5089 248.345 69.8675 248.944 69.9608 249.603C70.0428 250.201 69.7788 250.694 69.5138 251.19C69.3626 251.472 69.2112 251.755 69.1234 252.058C68.8562 252.869 68.7181 253.72 68.7145 254.578C68.7595 255.534 68.7917 256.308 67.7934 256.691C67.2227 256.533 66.8495 255.999 66.4966 255.494C66.3396 255.269 66.1867 255.05 66.0222 254.873C65.684 256.738 62.2929 255.094 61.7487 254.014C61.48 253.429 61.6728 252.882 61.8717 252.316C62.0138 251.913 62.159 251.5 62.1416 251.059C62.0772 249.325 61.8807 247.936 60.8534 246.503C60.175 245.56 59.9067 246.001 59.5318 246.618C59.3711 246.882 59.1908 247.179 58.9501 247.413C58.2295 248.216 57.3805 248.697 56.5069 249.192C56.1508 249.394 55.7907 249.598 55.4334 249.828C54.5672 250.264 53.8859 251.017 53.5205 251.944C53.4096 252.304 53.4403 252.648 53.4713 252.995C53.4952 253.262 53.5193 253.532 53.4787 253.813C53.3802 254.274 53.2502 254.728 53.1201 255.182C52.9779 255.678 52.8357 256.174 52.7347 256.681C52.4771 257.999 52.4642 258.328 53.0214 259.542C53.6665 260.928 52.5984 260.935 51.522 260.942C51.3842 260.943 51.2462 260.944 51.1116 260.948C50.9835 260.951 50.8491 260.956 50.7095 260.961C49.2715 261.009 47.2916 261.075 46.0234 260.656C44.9728 260.371 44.1566 259.51 43.8979 258.412C43.7854 257.741 44.2686 257.116 44.7275 256.521C44.9781 256.197 45.2214 255.882 45.3568 255.574C45.7534 254.756 45.7268 253.784 45.2859 252.991C44.9634 252.33 44.7774 251.632 44.5973 250.957C44.209 249.501 43.8482 248.147 42.2072 247.483C41.5904 247.233 40.9933 247.402 40.3922 247.573C39.879 247.718 39.3629 247.864 38.829 247.751C37.8119 247.481 37.0935 246.537 37.0738 245.443C37.0712 245.405 37.068 245.361 37.0646 245.313C37.0102 244.555 36.8799 242.738 37.2767 242.277C38.1688 241.234 38.4039 243.934 38.3717 244.363C38.2106 245.531 38.259 247.272 39.8692 246.423C40.837 245.861 41.2043 244.875 41.584 243.856C41.5985 243.817 41.613 243.778 41.6275 243.739C41.7622 243.379 41.892 243.022 42.0201 242.671C42.9243 240.191 43.7426 237.947 45.579 235.89C46.9462 234.15 49.0077 233.539 51.0344 232.938C51.4184 232.824 51.8011 232.71 52.1776 232.589C53.4814 232.226 54.7301 231.675 55.8875 230.952C56.9416 230.253 56.8678 230.013 56.6836 229.416C56.5948 229.128 56.4805 228.757 56.4543 228.212C56.4374 227.866 56.6676 227.322 56.8995 226.774C57.0658 226.381 57.233 225.985 57.311 225.659C57.559 224.604 58.6883 224.374 59.6266 224.183C59.87 224.134 60.1005 224.087 60.2995 224.029C60.6783 223.621 60.9605 223.073 61.2408 222.529C61.4515 222.12 61.661 221.713 61.9097 221.369C62.7245 220.202 64.3218 219.38 65.6422 218.994C66.4553 218.757 67.3332 218.632 68.2102 218.506C70.5842 218.168 72.9523 217.83 74.0153 215.277C74.4494 214.238 74.4439 212.854 74.4382 211.449C74.4272 208.694 74.4158 205.855 77.7123 205.355C77.914 205.332 78.0689 205.243 78.2143 205.159C78.431 205.034 78.6263 204.921 78.9232 205.06C78.6657 205.548 78.7485 205.692 78.8537 205.875ZM65.246 250.637C65.0655 251.41 65.08 252.219 65.2879 252.985C67.5229 251.804 67.2781 249.08 65.362 247.691C65.3863 247.975 65.4183 248.219 65.4475 248.441C65.5453 249.186 65.6109 249.685 65.246 250.637Z" fill="#B44F45" fill-opacity="0.12"/>
<path fill-rule="evenodd" clip-rule="evenodd" d="M78.8537 339.875C78.9327 340.012 79.0244 340.172 78.994 340.516C78.7306 340.725 78.4095 340.753 78.0793 340.782C77.6061 340.824 77.1142 340.867 76.7462 341.448C76.2663 342.189 75.7253 343.669 75.9862 344.578C76.4434 345.967 76.2587 347.29 76.0729 348.62C75.9604 349.426 75.8475 350.234 75.8767 351.062C75.8597 352.271 75.3987 353.427 74.5885 354.292C74.3515 354.527 73.9441 354.752 73.5331 354.979C73.0002 355.274 72.4613 355.571 72.2795 355.899C71.9902 356.393 71.5566 356.794 71.1264 357.192C70.8526 357.446 70.5802 357.698 70.3472 357.972C70.1457 358.199 70.0505 358.548 69.9603 358.878C69.9092 359.066 69.8597 359.247 69.7933 359.398C69.4435 360.063 68.9958 360.668 68.4665 361.189C68.7499 361.464 69.0798 361.673 69.403 361.878C70.1227 362.333 70.8097 362.768 70.8786 363.872C70.9231 364.553 71.3093 364.963 71.6494 365.324C72.1709 365.877 72.5839 366.315 71.4905 367.438C71.0267 367.981 70.4368 368.391 69.7772 368.629C69.4698 368.711 69.2357 368.875 69.0117 369.032C68.8132 369.171 68.6225 369.304 68.3956 369.37C68.0374 369.472 67.7593 369.489 67.5453 369.502C67.0341 369.532 66.8885 369.541 66.8885 370.638C66.8138 371.643 66.7988 372.651 66.8434 373.657C67.0541 375.401 67.4383 377.118 67.9899 378.779C68.0941 379.055 68.1711 379.348 68.2482 379.642C68.3448 380.011 68.4415 380.379 68.5921 380.711C68.7413 381.063 68.9475 381.408 69.1555 381.755C69.5089 382.345 69.8675 382.944 69.9608 383.603C70.0428 384.201 69.7788 384.694 69.5138 385.19C69.3626 385.472 69.2112 385.755 69.1234 386.058C68.8562 386.869 68.7181 387.72 68.7145 388.578C68.7595 389.534 68.7917 390.308 67.7934 390.691C67.2227 390.533 66.8495 389.999 66.4966 389.494C66.3396 389.269 66.1867 389.05 66.0222 388.873C65.684 390.738 62.2929 389.094 61.7487 388.014C61.48 387.429 61.6728 386.882 61.8717 386.316C62.0138 385.913 62.159 385.5 62.1416 385.059C62.0772 383.325 61.8807 381.936 60.8534 380.503C60.175 379.56 59.9067 380.001 59.5318 380.618C59.3711 380.882 59.1908 381.179 58.9501 381.413C58.2295 382.216 57.3805 382.697 56.5069 383.192C56.1508 383.394 55.7907 383.598 55.4334 383.828C54.5672 384.264 53.8859 385.017 53.5205 385.944C53.4096 386.304 53.4403 386.648 53.4713 386.995C53.4952 387.262 53.5193 387.532 53.4787 387.813C53.3802 388.274 53.2502 388.728 53.1201 389.182C52.9779 389.678 52.8357 390.174 52.7347 390.681C52.4771 391.999 52.4642 392.328 53.0214 393.542C53.6665 394.928 52.5984 394.935 51.522 394.942C51.3842 394.943 51.2462 394.944 51.1116 394.948C50.9835 394.951 50.8491 394.956 50.7095 394.961C49.2715 395.009 47.2916 395.075 46.0234 394.656C44.9728 394.371 44.1566 393.51 43.8979 392.412C43.7854 391.741 44.2686 391.116 44.7275 390.521C44.9781 390.197 45.2214 389.882 45.3568 389.574C45.7534 388.756 45.7268 387.784 45.2859 386.991C44.9634 386.33 44.7774 385.632 44.5973 384.957C44.209 383.501 43.8482 382.147 42.2072 381.483C41.5904 381.233 40.9933 381.402 40.3922 381.573C39.879 381.718 39.3629 381.864 38.829 381.751C37.8119 381.481 37.0935 380.537 37.0738 379.443C37.0712 379.405 37.068 379.361 37.0646 379.313C37.0102 378.555 36.8799 376.738 37.2767 376.277C38.1688 375.234 38.4039 377.934 38.3717 378.363C38.2106 379.531 38.259 381.272 39.8692 380.423C40.837 379.861 41.2043 378.875 41.584 377.856C41.5985 377.817 41.613 377.778 41.6275 377.739C41.7622 377.379 41.892 377.022 42.0201 376.671C42.9243 374.191 43.7426 371.947 45.579 369.89C46.9462 368.15 49.0077 367.539 51.0344 366.938C51.4184 366.824 51.8011 366.71 52.1776 366.589C53.4814 366.226 54.7301 365.675 55.8875 364.952C56.9416 364.253 56.8678 364.013 56.6836 363.416C56.5948 363.128 56.4805 362.757 56.4543 362.212C56.4374 361.866 56.6676 361.322 56.8995 360.774C57.0658 360.381 57.233 359.985 57.311 359.659C57.559 358.604 58.6883 358.374 59.6266 358.183C59.87 358.134 60.1005 358.087 60.2995 358.029C60.6783 357.621 60.9605 357.073 61.2408 356.529C61.4515 356.12 61.661 355.713 61.9097 355.369C62.7245 354.202 64.3218 353.38 65.6422 352.994C66.4553 352.757 67.3332 352.632 68.2102 352.506C70.5842 352.168 72.9523 351.83 74.0153 349.277C74.4494 348.238 74.4439 346.854 74.4382 345.449C74.4272 342.694 74.4158 339.855 77.7123 339.355C77.914 339.332 78.0689 339.243 78.2143 339.159C78.431 339.034 78.6263 338.921 78.9232 339.06C78.6657 339.548 78.7485 339.692 78.8537 339.875ZM65.246 384.637C65.0655 385.41 65.08 386.219 65.2879 386.985C67.5229 385.804 67.2781 383.08 65.362 381.691C65.3863 381.975 65.4183 382.219 65.4475 382.441C65.5453 383.186 65.6109 383.685 65.246 384.637Z" fill="#B44F45" fill-opacity="0.12"/>
<path d="M319.997 370.582C320.135 370.441 320.3 370.329 320.482 370.252C320.664 370.176 320.86 370.136 321.057 370.137C321.255 370.137 321.45 370.177 321.632 370.254C321.814 370.331 321.978 370.444 322.116 370.586L338.957 387.866C339.253 388.169 339.419 388.576 339.419 389C339.419 389.424 339.253 389.831 338.957 390.134L322.116 407.415C321.978 407.556 321.813 407.669 321.631 407.745C321.45 407.822 321.254 407.862 321.056 407.862C320.859 407.862 320.663 407.822 320.481 407.745C320.3 407.669 320.135 407.556 319.997 407.415C319.714 407.124 319.555 406.735 319.555 406.329C319.555 405.923 319.714 405.534 319.997 405.244L335.834 389L319.997 372.75C319.714 372.46 319.556 372.071 319.556 371.666C319.556 371.261 319.714 370.872 319.997 370.582ZM306.997 370.582C307.135 370.441 307.3 370.329 307.482 370.252C307.664 370.176 307.86 370.136 308.057 370.137C308.255 370.137 308.45 370.177 308.632 370.254C308.814 370.331 308.978 370.444 309.116 370.586L325.957 387.866C326.253 388.169 326.419 388.576 326.419 389C326.419 389.424 326.253 389.831 325.957 390.134L309.116 407.415C308.978 407.556 308.813 407.669 308.631 407.745C308.45 407.822 308.254 407.862 308.056 407.862C307.859 407.862 307.663 407.822 307.481 407.745C307.3 407.669 307.135 407.556 306.997 407.415C306.714 407.124 306.555 406.735 306.555 406.329C306.555 405.923 306.714 405.534 306.997 405.244L322.834 389L306.997 372.75C306.714 372.46 306.556 372.071 306.556 371.666C306.556 371.261 306.714 370.872 306.997 370.582Z" fill="#C74A2E"/>
<defs>
<filter id="filter0_d_1218_33234" x="0" y="0.996094" width="383" height="448" filterUnits="userSpaceOnUse" color-interpolation-filters="sRGB">
<feFlood flood-opacity="0" result="BackgroundImageFix"/>
<feColorMatrix in="SourceAlpha" type="matrix" values="0 0 0 0 0 0 0 0 0 0 0 0 0 0 0 0 0 0 127 0" result="hardAlpha"/>
<feMorphology radius="7" operator="dilate" in="SourceAlpha" result="effect1_dropShadow_1218_33234"/>
<feOffset dx="3" dy="3"/>
<feGaussianBlur stdDeviation="6"/>
<feComposite in2="hardAlpha" operator="out"/>
<feColorMatrix type="matrix" values="0 0 0 0 0.320833 0 0 0 0 0.320833 0 0 0 0 0.320833 0 0 0 0.12 0"/>
<feBlend mode="normal" in2="BackgroundImageFix" result="effect1_dropShadow_1218_33234"/>
<feBlend mode="normal" in="SourceGraphic" in2="effect1_dropShadow_1218_33234" result="shape"/>
</filter>
<linearGradient id="paint0_linear_1218_33234" x1="301" y1="16.9961" x2="16" y2="87.4961" gradientUnits="userSpaceOnUse">
<stop stop-color="#CC7F31"/>
<stop offset="1" stop-color="#FFA028"/>
</linearGradient>
<linearGradient id="paint1_linear_1218_33234" x1="346.443" y1="147.879" x2="93.0971" y2="253.39" gradientUnits="userSpaceOnUse">
<stop stop-color="#CC7F31"/>
<stop offset="0.947683" stop-color="#FFA028"/>
</linearGradient>
</defs>
</svg>
