<svg width="570" height="312" viewBox="0 0 570 312" fill="none" xmlns="http://www.w3.org/2000/svg">
<g filter="url(#filter0_d_1218_31667)">
<rect x="16" y="16" width="532" height="274" fill="#FFF8EA"/>
</g>
<path fill-rule="evenodd" clip-rule="evenodd" d="M254.854 16.8789C254.933 17.0163 255.024 17.1756 254.994 17.5195C254.731 17.7291 254.41 17.7573 254.079 17.7863C253.606 17.8279 253.114 17.8712 252.746 18.452C252.266 19.1933 251.725 20.6726 251.986 21.5817C252.443 22.9709 252.259 24.2938 252.073 25.6241C251.96 26.4298 251.848 27.2382 251.877 28.0658C251.86 29.2745 251.399 30.4305 250.589 31.296C250.351 31.5312 249.944 31.7562 249.533 31.9832C249 32.2775 248.461 32.5752 248.279 32.9028C247.99 33.3968 247.557 33.7981 247.126 34.1962C246.853 34.4497 246.58 34.7018 246.347 34.9758C246.146 35.2029 246.051 35.5516 245.96 35.8823C245.909 36.0696 245.86 36.2511 245.793 36.4015C245.444 37.067 244.996 37.6715 244.466 38.1927C244.75 38.4682 245.08 38.677 245.403 38.8816C246.123 39.3372 246.81 39.7721 246.879 40.8762C246.923 41.5569 247.309 41.9667 247.649 42.3276C248.171 42.881 248.584 43.3192 247.49 44.442C247.027 44.9852 246.437 45.3953 245.777 45.6328C245.47 45.7146 245.236 45.8785 245.012 46.0354C244.813 46.1744 244.623 46.3079 244.396 46.3741C244.037 46.4761 243.759 46.4927 243.545 46.5056C243.034 46.5362 242.888 46.5449 242.888 47.6421C242.814 48.6465 242.799 49.6547 242.843 50.661C243.054 52.4052 243.438 54.1218 243.99 55.7832C244.094 56.0584 244.171 56.3521 244.248 56.6458C244.345 57.0144 244.442 57.3831 244.592 57.7154C244.741 58.0671 244.947 58.4115 245.156 58.759C245.509 59.3492 245.868 59.9481 245.961 60.6069C246.043 61.2049 245.779 61.6983 245.514 62.1934C245.363 62.4759 245.211 62.7589 245.123 63.0623C244.856 63.8732 244.718 64.7241 244.714 65.5814C244.76 66.5375 244.792 67.3123 243.793 67.6947C243.223 67.5368 242.85 67.0028 242.497 66.4976C242.34 66.273 242.187 66.0542 242.022 65.8766C241.684 67.7417 238.293 66.098 237.749 65.0179C237.48 64.4328 237.673 63.8854 237.872 63.3204C238.014 62.9168 238.159 62.5043 238.142 62.0627C238.077 60.3284 237.881 58.9397 236.853 57.5074C236.175 56.5636 235.907 57.005 235.532 57.6217C235.371 57.8862 235.191 58.1829 234.95 58.4164C234.229 59.2195 233.38 59.7009 232.507 60.1962C232.151 60.3981 231.791 60.6023 231.433 60.8316C230.567 61.2675 229.886 62.0212 229.521 62.9482C229.41 63.308 229.44 63.6516 229.471 63.9986C229.495 64.2664 229.519 64.5361 229.479 64.8166C229.38 65.2781 229.25 65.7319 229.12 66.1858C228.978 66.682 228.836 67.1783 228.735 67.6847C228.477 69.0029 228.464 69.3317 229.021 70.546C229.667 71.9317 228.598 71.9387 227.522 71.9458C227.384 71.9467 227.246 71.9477 227.112 71.9515C226.983 71.9553 226.849 71.9598 226.71 71.9645C225.272 72.0125 223.292 72.0785 222.023 71.6596C220.973 71.3753 220.157 70.5136 219.898 69.4155C219.785 68.745 220.269 68.1194 220.728 67.5252C220.978 67.2007 221.221 66.8857 221.357 66.5777C221.753 65.7595 221.727 64.7881 221.286 63.9948C220.963 63.3336 220.777 62.6359 220.597 61.9604C220.209 60.5045 219.848 59.1514 218.207 58.4869C217.59 58.2371 216.993 58.4062 216.392 58.5765C215.879 58.7218 215.363 58.868 214.829 58.7552C213.812 58.4851 213.093 57.5405 213.074 56.4474C213.071 56.4086 213.068 56.3649 213.065 56.317C213.01 55.5585 212.88 53.7415 213.277 53.2808C214.169 52.2376 214.404 54.9379 214.372 55.3673C214.211 56.5346 214.259 58.2755 215.869 57.4269C216.837 56.8646 217.204 55.8791 217.584 54.86C217.598 54.8211 217.613 54.7823 217.628 54.7434C217.762 54.3824 217.892 54.0264 218.02 53.675C218.924 51.1953 219.743 48.9507 221.579 46.894C222.946 45.154 225.008 44.5426 227.034 43.9415C227.418 43.8276 227.801 43.7141 228.178 43.5933C229.481 43.2302 230.73 42.6793 231.888 41.9564C232.942 41.2568 232.868 41.0172 232.684 40.4197C232.595 40.1319 232.48 39.7611 232.454 39.2158C232.437 38.8699 232.668 38.326 232.9 37.7776C233.066 37.3846 233.233 36.9894 233.311 36.6631C233.559 35.6083 234.688 35.3784 235.627 35.1874C235.87 35.1378 236.101 35.0909 236.3 35.0329C236.678 34.6249 236.96 34.077 237.241 33.5326C237.451 33.1237 237.661 32.7168 237.91 32.3728C238.724 31.2055 240.322 30.3836 241.642 29.9979C242.455 29.7608 243.333 29.6355 244.21 29.5104C246.584 29.1715 248.952 28.8336 250.015 26.2812C250.449 25.2419 250.444 23.8583 250.438 22.4526C250.427 19.698 250.416 16.8586 253.712 16.3589C253.914 16.336 254.069 16.2466 254.214 16.1628C254.431 16.0378 254.626 15.9251 254.923 16.0637C254.666 16.5521 254.749 16.696 254.854 16.8789ZM241.246 61.6405C241.066 62.4139 241.08 63.2227 241.288 63.9886C243.523 62.8078 243.278 60.084 241.362 58.6953C241.386 58.9791 241.418 59.2228 241.448 59.4446C241.545 60.19 241.611 60.6891 241.246 61.6405Z" fill="#B44F45" fill-opacity="0.12"/>
<path d="M16 16H306L156.521 65.0105L16 112V16Z" fill="url(#paint0_linear_1218_31667)"/>
<path d="M55.5157 70.0604L51.4967 64.5697L43.758 66.6433L43.036 73.4043L40.7646 74.0129L43.1238 52.6025L45.1444 52.0611L57.84 69.4376L55.5157 70.0604ZM50.2889 62.7561L46.3994 57.2732C46.3041 57.1289 46.1465 56.8928 45.9265 56.5648C45.7153 56.2345 45.4962 55.8922 45.2692 55.5378C45.0421 55.1835 44.8571 54.8981 44.7142 54.6816C44.7229 55.0662 44.7228 55.4531 44.7138 55.8423C44.7113 56.2205 44.703 56.5766 44.6887 56.9106C44.672 57.2359 44.6568 57.5137 44.643 57.7438L43.9764 64.4475L50.2889 62.7561ZM74.3607 65.0109L71.6402 65.7398L60.1402 58.3189L62.7658 68.1177L60.5208 68.7193L55.3474 49.4121L57.5924 48.8105L60.0977 58.1604L66.2424 46.4928L68.8176 45.8028L62.7856 57.4685L74.3607 65.0109ZM93.1899 57.8425L95.0724 64.8681L92.9198 65.4449L91.5681 60.4002L77.0283 64.2961L71.8549 44.9889L74.1 44.3873L78.7355 61.6872L88.6532 59.0298L84.0177 41.7299L86.2363 41.1354L90.8789 58.4617L93.1899 57.8425ZM96.9694 58.9529L91.796 39.6457L94.0411 39.0441L99.2144 58.3513L96.9694 58.9529ZM107.974 47.3561L105.117 56.7696L102.489 57.4738L105.619 47.5483C104.856 47.5169 104.112 47.3813 103.387 47.1414C102.669 46.8904 102.023 46.4546 101.451 45.8342C100.888 45.2113 100.456 44.3364 100.154 43.2095C99.6818 41.4487 99.9207 39.9457 100.87 38.7004C101.829 37.4528 103.497 36.5106 105.874 35.8736L111.169 34.4547L116.343 53.7619L114.098 54.3634L111.936 46.2945L107.974 47.3561ZM109.437 36.9711L106.466 37.7673C105.401 38.0527 104.531 38.4178 103.858 38.8624C103.193 39.3047 102.742 39.8407 102.505 40.4704C102.268 41.1001 102.264 41.8419 102.493 42.6959C102.821 43.9197 103.478 44.7532 104.465 45.1965C105.45 45.6309 106.774 45.6252 108.438 45.1794L111.422 44.3797L109.437 36.9711ZM121.852 46.5389L120.413 46.9246L116.069 33.1419L118.723 32.4306L121.852 46.5389ZM120.61 51.1464C120.445 50.5301 120.478 50.0542 120.709 49.7187C120.937 49.3744 121.276 49.1421 121.725 49.0217C122.165 48.9038 122.57 48.9368 122.94 49.1207C123.317 49.2934 123.588 49.6879 123.753 50.3042C123.916 50.9117 123.881 51.3976 123.648 51.7619C123.422 52.115 123.089 52.3506 122.649 52.4685C122.2 52.5888 121.789 52.5526 121.416 52.3599C121.041 52.1584 120.773 51.7539 120.61 51.1464Z" fill="white"/>
<path d="M506.997 233.582C507.135 233.441 507.3 233.329 507.482 233.252C507.664 233.176 507.86 233.136 508.057 233.137C508.255 233.137 508.45 233.177 508.632 233.254C508.814 233.331 508.978 233.444 509.116 233.586L525.957 250.866C526.253 251.169 526.419 251.576 526.419 252C526.419 252.424 526.253 252.831 525.957 253.134L509.116 270.415C508.978 270.556 508.813 270.669 508.631 270.745C508.45 270.822 508.254 270.862 508.056 270.862C507.859 270.862 507.663 270.822 507.481 270.745C507.3 270.669 507.135 270.556 506.997 270.415C506.714 270.124 506.555 269.735 506.555 269.329C506.555 268.923 506.714 268.534 506.997 268.244L522.834 252L506.997 235.75C506.714 235.46 506.556 235.071 506.556 234.666C506.556 234.261 506.714 233.872 506.997 233.582ZM493.997 233.582C494.135 233.441 494.3 233.329 494.482 233.252C494.664 233.176 494.86 233.136 495.057 233.137C495.255 233.137 495.45 233.177 495.632 233.254C495.814 233.331 495.978 233.444 496.116 233.586L512.957 250.866C513.253 251.169 513.419 251.576 513.419 252C513.419 252.424 513.253 252.831 512.957 253.134L496.116 270.415C495.978 270.556 495.813 270.669 495.631 270.745C495.45 270.822 495.254 270.862 495.056 270.862C494.859 270.862 494.663 270.822 494.481 270.745C494.3 270.669 494.135 270.556 493.997 270.415C493.714 270.124 493.555 269.735 493.555 269.329C493.555 268.923 493.714 268.534 493.997 268.244L509.834 252L493.997 235.75C493.714 235.46 493.556 235.071 493.556 234.666C493.556 234.261 493.714 233.872 493.997 233.582Z" fill="#C74A2E"/>
<path fill-rule="evenodd" clip-rule="evenodd" d="M456.854 133.879C456.933 134.016 457.024 134.176 456.994 134.519C456.731 134.729 456.41 134.757 456.079 134.786C455.606 134.828 455.114 134.871 454.746 135.452C454.266 136.193 453.725 137.673 453.986 138.582C454.443 139.971 454.259 141.294 454.073 142.624C453.96 143.43 453.848 144.238 453.877 145.066C453.86 146.274 453.399 147.43 452.589 148.296C452.351 148.531 451.944 148.756 451.533 148.983C451 149.278 450.461 149.575 450.279 149.903C449.99 150.397 449.557 150.798 449.126 151.196C448.853 151.45 448.58 151.702 448.347 151.976C448.146 152.203 448.051 152.552 447.96 152.882C447.909 153.07 447.86 153.251 447.793 153.401C447.444 154.067 446.996 154.671 446.466 155.193C446.75 155.468 447.08 155.677 447.403 155.882C448.123 156.337 448.81 156.772 448.879 157.876C448.923 158.557 449.309 158.967 449.649 159.328C450.171 159.881 450.584 160.319 449.49 161.442C449.027 161.985 448.437 162.395 447.777 162.633C447.47 162.715 447.236 162.879 447.012 163.035C446.813 163.174 446.623 163.308 446.396 163.374C446.037 163.476 445.759 163.493 445.545 163.506C445.034 163.536 444.888 163.545 444.888 164.642C444.814 165.646 444.799 166.655 444.843 167.661C445.054 169.405 445.438 171.122 445.99 172.783C446.094 173.058 446.171 173.352 446.248 173.646C446.345 174.014 446.442 174.383 446.592 174.715C446.741 175.067 446.947 175.412 447.156 175.759C447.509 176.349 447.868 176.948 447.961 177.607C448.043 178.205 447.779 178.698 447.514 179.193C447.363 179.476 447.211 179.759 447.123 180.062C446.856 180.873 446.718 181.724 446.714 182.581C446.76 183.537 446.792 184.312 445.793 184.695C445.223 184.537 444.85 184.003 444.497 183.498C444.34 183.273 444.187 183.054 444.022 182.877C443.684 184.742 440.293 183.098 439.749 182.018C439.48 181.433 439.673 180.885 439.872 180.32C440.014 179.917 440.159 179.504 440.142 179.063C440.077 177.328 439.881 175.94 438.853 174.507C438.175 173.564 437.907 174.005 437.532 174.622C437.371 174.886 437.191 175.183 436.95 175.416C436.229 176.219 435.38 176.701 434.507 177.196C434.151 177.398 433.791 177.602 433.433 177.832C432.567 178.267 431.886 179.021 431.521 179.948C431.41 180.308 431.44 180.652 431.471 180.999C431.495 181.266 431.519 181.536 431.479 181.817C431.38 182.278 431.25 182.732 431.12 183.186C430.978 183.682 430.836 184.178 430.735 184.685C430.477 186.003 430.464 186.332 431.021 187.546C431.667 188.932 430.598 188.939 429.522 188.946C429.384 188.947 429.246 188.948 429.112 188.951C428.983 188.955 428.849 188.96 428.71 188.964C427.272 189.012 425.292 189.079 424.023 188.66C422.973 188.375 422.157 187.514 421.898 186.416C421.785 185.745 422.269 185.119 422.728 184.525C422.978 184.201 423.221 183.886 423.357 183.578C423.753 182.76 423.727 181.788 423.286 180.995C422.963 180.334 422.777 179.636 422.597 178.96C422.209 177.505 421.848 176.151 420.207 175.487C419.59 175.237 418.993 175.406 418.392 175.576C417.879 175.722 417.363 175.868 416.829 175.755C415.812 175.485 415.093 174.54 415.074 173.447C415.071 173.409 415.068 173.365 415.065 173.317C415.01 172.558 414.88 170.741 415.277 170.281C416.169 169.238 416.404 171.938 416.372 172.367C416.211 173.535 416.259 175.276 417.869 174.427C418.837 173.865 419.204 172.879 419.584 171.86C419.598 171.821 419.613 171.782 419.628 171.743C419.762 171.382 419.892 171.026 420.02 170.675C420.924 168.195 421.743 165.951 423.579 163.894C424.946 162.154 427.008 161.543 429.034 160.941C429.418 160.828 429.801 160.714 430.178 160.593C431.481 160.23 432.73 159.679 433.888 158.956C434.942 158.257 434.868 158.017 434.684 157.42C434.595 157.132 434.48 156.761 434.454 156.216C434.437 155.87 434.668 155.326 434.9 154.778C435.066 154.385 435.233 153.989 435.311 153.663C435.559 152.608 436.688 152.378 437.627 152.187C437.87 152.138 438.101 152.091 438.3 152.033C438.678 151.625 438.96 151.077 439.241 150.533C439.451 150.124 439.661 149.717 439.91 149.373C440.724 148.205 442.322 147.384 443.642 146.998C444.455 146.761 445.333 146.636 446.21 146.51C448.584 146.172 450.952 145.834 452.015 143.281C452.449 142.242 452.444 140.858 452.438 139.453C452.427 136.698 452.416 133.859 455.712 133.359C455.914 133.336 456.069 133.247 456.214 133.163C456.431 133.038 456.626 132.925 456.923 133.064C456.666 133.552 456.749 133.696 456.854 133.879ZM443.246 178.64C443.066 179.414 443.08 180.223 443.288 180.989C445.523 179.808 445.278 177.084 443.362 175.695C443.386 175.979 443.418 176.223 443.448 176.445C443.545 177.19 443.611 177.689 443.246 178.64Z" fill="#B44F45" fill-opacity="0.12"/>
<path d="M100 115.762L447.05 99.999L422.642 132.14L449.863 161.935L102.813 177.698L131.522 145.362L100 115.762Z" fill="url(#paint1_linear_1218_31667)"/>
<path d="M199.88 152.816L198.865 135.713L211.604 134.957L212.619 152.06L210.654 152.176L209.743 136.828L200.958 137.35L201.868 152.698L199.88 152.816ZM221.203 138.449C222.295 138.384 223.245 138.571 224.054 139.008C224.862 139.445 225.499 140.088 225.964 140.937C226.429 141.778 226.696 142.78 226.765 143.942L226.836 145.147L217.981 145.672C218.093 147.176 218.536 148.3 219.308 149.045C220.08 149.789 221.125 150.123 222.443 150.044C223.254 149.996 223.967 149.88 224.582 149.694C225.197 149.509 225.831 149.252 226.485 148.924L226.586 150.632C225.956 150.959 225.325 151.208 224.694 151.378C224.07 151.548 223.325 151.659 222.459 151.71C221.227 151.784 220.136 151.598 219.186 151.153C218.244 150.701 217.49 150.002 216.925 149.057C216.361 148.112 216.036 146.934 215.953 145.522C215.871 144.142 216.03 142.935 216.43 141.902C216.838 140.86 217.447 140.042 218.257 139.446C219.074 138.849 220.056 138.517 221.203 138.449ZM221.274 140.041C220.237 140.103 219.43 140.491 218.854 141.206C218.278 141.921 217.968 142.891 217.923 144.114L224.708 143.712C224.655 142.948 224.494 142.284 224.226 141.721C223.965 141.15 223.592 140.718 223.105 140.426C222.617 140.126 222.007 139.998 221.274 140.041ZM235.744 137.586C237.342 137.491 238.65 137.965 239.667 139.009C240.684 140.052 241.257 141.677 241.388 143.884C241.475 145.342 241.329 146.58 240.951 147.596C240.573 148.612 240.002 149.398 239.236 149.952C238.479 150.505 237.562 150.814 236.486 150.878C235.807 150.918 235.205 150.864 234.68 150.715C234.154 150.566 233.699 150.351 233.315 150.068C232.93 149.786 232.606 149.473 232.343 149.128L232.203 149.137C232.244 149.439 232.293 149.804 232.35 150.231C232.415 150.658 232.456 151.031 232.475 151.351L232.788 156.615L230.834 156.731L229.733 138.178L231.336 138.083L231.706 139.962L231.799 139.957C232.026 139.552 232.309 139.179 232.648 138.838C232.988 138.489 233.409 138.206 233.913 137.988C234.424 137.762 235.034 137.628 235.744 137.586ZM235.502 139.244C234.613 139.297 233.905 139.511 233.38 139.887C232.862 140.262 232.499 140.8 232.29 141.501C232.081 142.194 231.999 143.056 232.044 144.086L232.066 144.461C232.131 145.545 232.302 146.454 232.58 147.189C232.867 147.923 233.294 148.469 233.863 148.827C234.44 149.184 235.193 149.335 236.121 149.28C236.916 149.233 237.566 148.979 238.071 148.518C238.576 148.058 238.934 147.438 239.146 146.658C239.366 145.871 239.446 144.978 239.387 143.979C239.297 142.466 238.929 141.283 238.284 140.429C237.646 139.567 236.718 139.172 235.502 139.244ZM261.599 136.287L262.36 149.108L245.163 150.128L244.403 137.307L246.344 137.192L247.007 148.364L252.681 148.027L252.018 136.855L253.972 136.739L254.635 147.911L260.32 147.574L259.657 136.402L261.599 136.287ZM267.565 135.933L268.043 143.993C268.052 144.149 268.061 144.352 268.068 144.602C268.074 144.844 268.078 145.106 268.079 145.388C268.08 145.662 268.08 145.928 268.079 146.186C268.086 146.436 268.087 146.643 268.081 146.808L274.432 135.525L276.818 135.384L277.579 148.205L275.766 148.312L275.299 140.451C275.285 140.202 275.269 139.882 275.254 139.491C275.239 139.101 275.228 138.718 275.221 138.343C275.214 137.96 275.208 137.663 275.204 137.452L268.876 148.721L266.477 148.864L265.717 136.042L267.565 135.933ZM294.482 134.335L295.243 147.157L293.489 147.261L292.993 138.908C292.973 138.565 292.96 138.218 292.955 137.866C292.957 137.506 292.963 137.145 292.973 136.785L292.902 136.789L289.265 147.511L287.616 147.609L282.842 137.386L282.772 137.39C282.816 137.747 282.853 138.105 282.882 138.463C282.919 138.813 282.949 139.183 282.972 139.573L283.463 147.856L281.697 147.961L280.936 135.139L283.545 134.985L288.308 145.22L291.885 134.49L294.482 134.335ZM309.421 135.82C310.583 135.751 311.605 135.89 312.486 136.237C313.367 136.576 314.064 137.106 314.576 137.827C315.096 138.548 315.388 139.442 315.451 140.51C315.521 141.68 315.327 142.705 314.871 143.585C314.414 144.458 313.723 145.152 312.799 145.669C311.875 146.178 310.749 146.471 309.424 146.55C308.535 146.603 307.703 146.574 306.93 146.463C306.156 146.353 305.499 146.157 304.958 145.876L304.848 144.028C305.438 144.337 306.144 144.569 306.967 144.724C307.79 144.878 308.584 144.933 309.348 144.887C310.214 144.836 310.962 144.655 311.594 144.343C312.232 144.024 312.714 143.573 313.039 142.99C313.372 142.399 313.513 141.674 313.462 140.816C313.395 139.678 312.992 138.821 312.253 138.247C311.522 137.664 310.404 137.417 308.899 137.507C308.415 137.535 307.887 137.606 307.315 137.718C306.742 137.83 306.272 137.944 305.903 138.06L304.882 137.475L305.061 129.411L313.565 128.906L313.671 130.685L306.828 131.091L306.701 136.275C306.993 136.195 307.372 136.11 307.836 136.02C308.3 135.922 308.828 135.856 309.421 135.82ZM317.794 140.231L317.692 138.499L323.494 138.155L323.597 139.886L317.794 140.231ZM339.708 131.652L340.468 144.473L338.714 144.577L338.218 136.225C338.198 135.881 338.185 135.534 338.18 135.182C338.182 134.822 338.188 134.462 338.198 134.101L338.127 134.105L334.491 144.828L332.841 144.926L328.067 134.702L327.997 134.706C328.042 135.064 328.078 135.422 328.108 135.78C328.144 136.13 328.174 136.5 328.197 136.89L328.688 145.172L326.922 145.277L326.161 132.456L328.77 132.301L333.533 142.537L337.111 131.806L339.708 131.652Z" fill="white"/>
<path fill-rule="evenodd" clip-rule="evenodd" d="M341.854 224.879C341.933 225.016 342.024 225.176 341.994 225.519C341.731 225.729 341.41 225.757 341.079 225.786C340.606 225.828 340.114 225.871 339.746 226.452C339.266 227.193 338.725 228.673 338.986 229.582C339.443 230.971 339.259 232.294 339.073 233.624C338.96 234.43 338.848 235.238 338.877 236.066C338.86 237.274 338.399 238.43 337.589 239.296C337.351 239.531 336.944 239.756 336.533 239.983C336 240.278 335.461 240.575 335.279 240.903C334.99 241.397 334.557 241.798 334.126 242.196C333.853 242.45 333.58 242.702 333.347 242.976C333.146 243.203 333.051 243.552 332.96 243.882C332.909 244.07 332.86 244.251 332.793 244.401C332.444 245.067 331.996 245.671 331.466 246.193C331.75 246.468 332.08 246.677 332.403 246.882C333.123 247.337 333.81 247.772 333.879 248.876C333.923 249.557 334.309 249.967 334.649 250.328C335.171 250.881 335.584 251.319 334.49 252.442C334.027 252.985 333.437 253.395 332.777 253.633C332.47 253.715 332.236 253.879 332.012 254.035C331.813 254.174 331.623 254.308 331.396 254.374C331.037 254.476 330.759 254.493 330.545 254.506C330.034 254.536 329.888 254.545 329.888 255.642C329.814 256.646 329.799 257.655 329.843 258.661C330.054 260.405 330.438 262.122 330.99 263.783C331.094 264.058 331.171 264.352 331.248 264.646C331.345 265.014 331.442 265.383 331.592 265.715C331.741 266.067 331.947 266.412 332.156 266.759C332.509 267.349 332.868 267.948 332.961 268.607C333.043 269.205 332.779 269.698 332.514 270.193C332.363 270.476 332.211 270.759 332.123 271.062C331.856 271.873 331.718 272.724 331.714 273.581C331.76 274.537 331.792 275.312 330.793 275.695C330.223 275.537 329.85 275.003 329.497 274.498C329.34 274.273 329.187 274.054 329.022 273.877C328.684 275.742 325.293 274.098 324.749 273.018C324.48 272.433 324.673 271.885 324.872 271.32C325.014 270.917 325.159 270.504 325.142 270.063C325.077 268.328 324.881 266.94 323.853 265.507C323.175 264.564 322.907 265.005 322.532 265.622C322.371 265.886 322.191 266.183 321.95 266.416C321.229 267.219 320.38 267.701 319.507 268.196C319.151 268.398 318.791 268.602 318.433 268.832C317.567 269.267 316.886 270.021 316.521 270.948C316.41 271.308 316.44 271.652 316.471 271.999C316.495 272.266 316.519 272.536 316.479 272.817C316.38 273.278 316.25 273.732 316.12 274.186C315.978 274.682 315.836 275.178 315.735 275.685C315.477 277.003 315.464 277.332 316.021 278.546C316.667 279.932 315.598 279.939 314.522 279.946C314.384 279.947 314.246 279.948 314.112 279.951C313.983 279.955 313.849 279.96 313.71 279.964C312.272 280.012 310.292 280.079 309.023 279.66C307.973 279.375 307.157 278.514 306.898 277.416C306.785 276.745 307.269 276.119 307.728 275.525C307.978 275.201 308.221 274.886 308.357 274.578C308.753 273.76 308.727 272.788 308.286 271.995C307.963 271.334 307.777 270.636 307.597 269.96C307.209 268.505 306.848 267.151 305.207 266.487C304.59 266.237 303.993 266.406 303.392 266.576C302.879 266.722 302.363 266.868 301.829 266.755C300.812 266.485 300.093 265.54 300.074 264.447C300.071 264.409 300.068 264.365 300.065 264.317C300.01 263.558 299.88 261.741 300.277 261.281C301.169 260.238 301.404 262.938 301.372 263.367C301.211 264.535 301.259 266.276 302.869 265.427C303.837 264.865 304.204 263.879 304.584 262.86C304.598 262.821 304.613 262.782 304.628 262.743C304.762 262.382 304.892 262.026 305.02 261.675C305.924 259.195 306.743 256.951 308.579 254.894C309.946 253.154 312.008 252.543 314.034 251.941C314.418 251.828 314.801 251.714 315.178 251.593C316.481 251.23 317.73 250.679 318.888 249.956C319.942 249.257 319.868 249.017 319.684 248.42C319.595 248.132 319.48 247.761 319.454 247.216C319.437 246.87 319.668 246.326 319.9 245.778C320.066 245.385 320.233 244.989 320.311 244.663C320.559 243.608 321.688 243.378 322.627 243.187C322.87 243.138 323.101 243.091 323.3 243.033C323.678 242.625 323.96 242.077 324.241 241.533C324.451 241.124 324.661 240.717 324.91 240.373C325.724 239.205 327.322 238.384 328.642 237.998C329.455 237.761 330.333 237.636 331.21 237.51C333.584 237.172 335.952 236.834 337.015 234.281C337.449 233.242 337.444 231.858 337.438 230.453C337.427 227.698 337.416 224.859 340.712 224.359C340.914 224.336 341.069 224.247 341.214 224.163C341.431 224.038 341.626 223.925 341.923 224.064C341.666 224.552 341.749 224.696 341.854 224.879ZM328.246 269.64C328.066 270.414 328.08 271.223 328.288 271.989C330.523 270.808 330.278 268.084 328.362 266.695C328.386 266.979 328.418 267.223 328.448 267.445C328.545 268.19 328.611 268.689 328.246 269.64Z" fill="#B44F45" fill-opacity="0.12"/>
<path d="M180.323 240.372L179.36 220.407L191.09 219.841L191.189 221.89L181.78 222.344L182.091 228.789L185.191 228.64C187.112 228.547 188.626 228.711 189.732 229.132C190.838 229.553 191.63 230.177 192.108 231.002C192.595 231.827 192.865 232.8 192.919 233.92C193.008 235.759 192.527 237.219 191.475 238.301C190.431 239.373 188.64 239.971 186.1 240.094L180.323 240.372ZM182.549 238.267L185.758 238.112C187.56 238.025 188.82 237.649 189.536 236.985C190.261 236.311 190.592 235.328 190.53 234.035C190.486 233.134 190.27 232.428 189.88 231.917C189.49 231.407 188.898 231.057 188.105 230.867C187.311 230.677 186.276 230.613 185.002 230.675L182.189 230.81L182.549 238.267ZM208.564 239.009L197.448 239.546L196.484 219.581L207.6 219.044L207.699 221.093L198.905 221.517L199.216 227.976L207.506 227.576L207.603 229.597L199.314 229.997L199.671 237.385L208.465 236.961L208.564 239.009ZM223.899 222.952C223.965 224.309 223.598 225.403 222.799 226.236C221.999 227.059 220.904 227.623 219.513 227.927L219.518 228.023C221.168 228.181 222.44 228.649 223.336 229.427C224.231 230.205 224.711 231.258 224.775 232.587C224.832 233.762 224.586 234.809 224.037 235.73C223.497 236.641 222.652 237.371 221.501 237.919C220.35 238.468 218.901 238.784 217.153 238.868C216.07 238.921 215.032 238.884 214.041 238.759C213.049 238.642 212.135 238.408 211.296 238.056L211.193 235.912C211.771 236.158 212.392 236.365 213.057 236.534C213.722 236.703 214.394 236.825 215.073 236.902C215.761 236.969 216.414 236.988 217.033 236.958C218.836 236.871 220.185 236.459 221.08 235.722C221.984 234.976 222.405 233.97 222.344 232.705C222.281 231.403 221.694 230.482 220.582 229.943C219.479 229.394 217.953 229.166 216.005 229.26L213.137 229.399L213.043 227.446L215.815 227.312C217.126 227.249 218.207 227.046 219.057 226.704C219.907 226.353 220.532 225.889 220.934 225.313C221.343 224.727 221.53 224.052 221.493 223.288C221.442 222.241 221.021 221.453 220.229 220.926C219.446 220.398 218.445 220.163 217.225 220.222C215.959 220.283 214.92 220.498 214.108 220.865C213.295 221.224 212.509 221.677 211.751 222.225L210.554 220.695C211.064 220.287 211.648 219.912 212.307 219.57C212.965 219.219 213.7 218.932 214.51 218.711C215.32 218.48 216.199 218.342 217.146 218.296C218.557 218.228 219.755 218.385 220.741 218.766C221.726 219.138 222.487 219.685 223.024 220.408C223.56 221.13 223.852 221.978 223.899 222.952ZM243.605 237.318L240.792 237.454L231.126 227.764L231.615 237.897L229.294 238.009L228.33 218.044L230.651 217.932L231.118 227.6L239.596 217.5L242.259 217.371L233.892 227.494L243.605 237.318ZM263.196 226.339C263.27 227.878 263.142 229.289 262.812 230.574C262.481 231.849 261.951 232.96 261.221 233.908C260.5 234.846 259.582 235.589 258.468 236.135C257.353 236.682 256.045 236.991 254.543 237.064C252.995 237.138 251.632 236.958 250.452 236.522C249.281 236.086 248.291 235.431 247.482 234.557C246.683 233.684 246.061 232.623 245.618 231.376C245.183 230.129 244.929 228.736 244.855 227.197C244.756 225.158 245.007 223.353 245.606 221.782C246.206 220.21 247.168 218.964 248.492 218.042C249.825 217.12 251.525 216.609 253.592 216.51C255.568 216.414 257.249 216.757 258.638 217.539C260.035 218.32 261.117 219.463 261.883 220.969C262.658 222.464 263.096 224.254 263.196 226.339ZM247.301 227.106C247.382 228.8 247.694 230.254 248.237 231.469C248.779 232.684 249.562 233.604 250.587 234.23C251.621 234.855 252.908 235.131 254.446 235.056C255.994 234.982 257.243 234.584 258.194 233.863C259.154 233.141 259.84 232.15 260.254 230.889C260.668 229.628 260.834 228.151 260.752 226.457C260.627 223.881 259.989 221.895 258.835 220.5C257.691 219.095 255.976 218.448 253.691 218.558C252.143 218.633 250.885 219.026 249.915 219.739C248.946 220.452 248.245 221.435 247.813 222.688C247.389 223.931 247.218 225.404 247.301 227.106ZM291.497 235.006L268.131 236.134L267.168 216.169L269.489 216.057L270.353 233.946L278.532 233.552L277.669 215.662L279.991 215.55L280.854 233.44L289.048 233.044L288.184 215.155L290.533 215.041L291.497 235.006ZM303.131 234.445L300.796 234.557L299.932 216.641L293.65 216.944L293.551 214.896L308.422 214.178L308.521 216.226L302.267 216.528L303.131 234.445ZM329.237 223.152C329.311 224.69 329.183 226.102 328.852 227.386C328.521 228.661 327.991 229.773 327.261 230.72C326.54 231.659 325.622 232.401 324.508 232.948C323.394 233.494 322.085 233.804 320.583 233.876C319.036 233.951 317.672 233.77 316.492 233.335C315.321 232.898 314.331 232.243 313.523 231.37C312.723 230.496 312.102 229.436 311.658 228.189C311.224 226.941 310.969 225.548 310.895 224.01C310.797 221.97 311.047 220.165 311.647 218.594C312.246 217.023 313.208 215.776 314.532 214.855C315.866 213.933 317.566 213.422 319.632 213.322C321.608 213.227 323.29 213.57 324.678 214.351C326.075 215.133 327.157 216.276 327.923 217.781C328.698 219.277 329.136 221.067 329.237 223.152ZM313.341 223.919C313.423 225.612 313.735 227.066 314.277 228.281C314.819 229.496 315.603 230.416 316.628 231.042C317.662 231.667 318.948 231.943 320.486 231.869C322.034 231.794 323.283 231.396 324.234 230.675C325.194 229.953 325.881 228.962 326.294 227.701C326.708 226.44 326.874 224.963 326.792 223.27C326.668 220.693 326.029 218.707 324.876 217.312C323.731 215.907 322.016 215.26 319.731 215.37C318.184 215.445 316.925 215.839 315.956 216.552C314.986 217.265 314.285 218.248 313.853 219.5C313.43 220.744 313.259 222.216 313.341 223.919ZM333.208 212.982L338.861 212.709C341.356 212.588 343.249 212.871 344.542 213.557C345.834 214.243 346.524 215.482 346.61 217.276C346.648 218.05 346.531 218.753 346.26 219.387C345.998 220.011 345.595 220.537 345.05 220.965C344.505 221.393 343.822 221.704 343.001 221.899L343.007 222.035C343.888 222.13 344.674 222.343 345.365 222.674C346.056 223.006 346.609 223.49 347.023 224.127C347.437 224.764 347.668 225.588 347.717 226.599C347.776 227.828 347.54 228.879 347.007 229.754C346.484 230.628 345.713 231.308 344.697 231.795C343.679 232.273 342.461 232.546 341.04 232.615L334.172 232.947L333.208 212.982ZM335.943 221.432L339.766 221.247C341.505 221.163 342.693 220.819 343.33 220.213C343.976 219.607 344.272 218.753 344.219 217.651C344.164 216.513 343.724 215.713 342.899 215.251C342.083 214.789 340.805 214.6 339.066 214.684L335.625 214.85L335.943 221.432ZM336.037 223.385L336.397 230.854L340.549 230.654C342.324 230.568 343.564 230.162 344.268 229.434C344.971 228.698 345.295 227.738 345.238 226.554C345.201 225.798 345.001 225.16 344.639 224.639C344.285 224.118 343.728 223.734 342.968 223.488C342.216 223.232 341.222 223.134 339.983 223.194L336.037 223.385ZM367.383 231.344L365.061 231.456L364.607 222.047L354.119 222.553L354.574 231.962L352.252 232.074L351.288 212.109L353.61 211.997L354.021 220.504L364.508 219.998L364.098 211.491L366.419 211.379L367.383 231.344ZM389.705 220.233C389.779 221.772 389.651 223.183 389.321 224.467C388.99 225.743 388.46 226.854 387.73 227.802C387.009 228.74 386.091 229.482 384.977 230.029C383.862 230.576 382.554 230.885 381.052 230.958C379.504 231.032 378.141 230.852 376.961 230.416C375.79 229.98 374.8 229.325 373.991 228.451C373.192 227.577 372.57 226.517 372.127 225.27C371.692 224.022 371.438 222.629 371.364 221.091C371.265 219.052 371.516 217.246 372.115 215.675C372.715 214.104 373.677 212.858 375.001 211.936C376.334 211.014 378.034 210.503 380.101 210.403C382.077 210.308 383.758 210.651 385.147 211.433C386.544 212.214 387.626 213.357 388.392 214.862C389.167 216.358 389.605 218.148 389.705 220.233ZM373.81 221C373.891 222.694 374.203 224.148 374.746 225.363C375.288 226.577 376.071 227.498 377.096 228.123C378.13 228.749 379.417 229.024 380.955 228.95C382.503 228.875 383.752 228.478 384.703 227.756C385.663 227.035 386.349 226.043 386.763 224.782C387.177 223.521 387.342 222.044 387.261 220.351C387.136 217.775 386.498 215.789 385.344 214.393C384.2 212.989 382.485 212.341 380.2 212.452C378.652 212.526 377.394 212.92 376.424 213.633C375.455 214.346 374.754 215.329 374.322 216.582C373.898 217.825 373.727 219.298 373.81 221Z" fill="#333333"/>
<path fill-rule="evenodd" clip-rule="evenodd" d="M78.8537 204.879C78.9327 205.016 79.0244 205.176 78.994 205.519C78.7306 205.729 78.4095 205.757 78.0793 205.786C77.6061 205.828 77.1142 205.871 76.7462 206.452C76.2663 207.193 75.7253 208.673 75.9862 209.582C76.4434 210.971 76.2587 212.294 76.0729 213.624C75.9604 214.43 75.8475 215.238 75.8767 216.066C75.8597 217.274 75.3987 218.43 74.5885 219.296C74.3515 219.531 73.9441 219.756 73.5331 219.983C73.0002 220.278 72.4613 220.575 72.2795 220.903C71.9902 221.397 71.5566 221.798 71.1264 222.196C70.8526 222.45 70.5802 222.702 70.3472 222.976C70.1457 223.203 70.0505 223.552 69.9603 223.882C69.9092 224.07 69.8597 224.251 69.7933 224.401C69.4435 225.067 68.9958 225.671 68.4665 226.193C68.7499 226.468 69.0798 226.677 69.403 226.882C70.1227 227.337 70.8097 227.772 70.8786 228.876C70.9231 229.557 71.3093 229.967 71.6494 230.328C72.1709 230.881 72.5839 231.319 71.4905 232.442C71.0267 232.985 70.4368 233.395 69.7772 233.633C69.4698 233.715 69.2357 233.879 69.0117 234.035C68.8132 234.174 68.6225 234.308 68.3956 234.374C68.0374 234.476 67.7593 234.493 67.5453 234.506C67.0341 234.536 66.8885 234.545 66.8885 235.642C66.8138 236.646 66.7988 237.655 66.8434 238.661C67.0541 240.405 67.4383 242.122 67.9899 243.783C68.0941 244.058 68.1711 244.352 68.2482 244.646C68.3448 245.014 68.4415 245.383 68.5921 245.715C68.7413 246.067 68.9475 246.412 69.1555 246.759C69.5089 247.349 69.8675 247.948 69.9608 248.607C70.0428 249.205 69.7788 249.698 69.5138 250.193C69.3626 250.476 69.2112 250.759 69.1234 251.062C68.8562 251.873 68.7181 252.724 68.7145 253.581C68.7595 254.537 68.7917 255.312 67.7934 255.695C67.2227 255.537 66.8495 255.003 66.4966 254.498C66.3396 254.273 66.1867 254.054 66.0222 253.877C65.684 255.742 62.2929 254.098 61.7487 253.018C61.48 252.433 61.6728 251.885 61.8717 251.32C62.0138 250.917 62.159 250.504 62.1416 250.063C62.0772 248.328 61.8807 246.94 60.8534 245.507C60.175 244.564 59.9067 245.005 59.5318 245.622C59.3711 245.886 59.1908 246.183 58.9501 246.416C58.2295 247.219 57.3805 247.701 56.5069 248.196C56.1508 248.398 55.7907 248.602 55.4334 248.832C54.5672 249.267 53.8859 250.021 53.5205 250.948C53.4096 251.308 53.4403 251.652 53.4713 251.999C53.4952 252.266 53.5193 252.536 53.4787 252.817C53.3802 253.278 53.2502 253.732 53.1201 254.186C52.9779 254.682 52.8357 255.178 52.7347 255.685C52.4771 257.003 52.4642 257.332 53.0214 258.546C53.6665 259.932 52.5984 259.939 51.522 259.946C51.3842 259.947 51.2462 259.948 51.1116 259.951C50.9835 259.955 50.8491 259.96 50.7095 259.964C49.2715 260.012 47.2916 260.079 46.0234 259.66C44.9728 259.375 44.1566 258.514 43.8979 257.416C43.7854 256.745 44.2686 256.119 44.7275 255.525C44.9781 255.201 45.2214 254.886 45.3568 254.578C45.7534 253.76 45.7268 252.788 45.2859 251.995C44.9634 251.334 44.7774 250.636 44.5973 249.96C44.209 248.505 43.8482 247.151 42.2072 246.487C41.5904 246.237 40.9933 246.406 40.3922 246.576C39.879 246.722 39.3629 246.868 38.829 246.755C37.8119 246.485 37.0935 245.54 37.0738 244.447C37.0712 244.409 37.068 244.365 37.0646 244.317C37.0102 243.558 36.8799 241.741 37.2767 241.281C38.1688 240.238 38.4039 242.938 38.3717 243.367C38.2106 244.535 38.259 246.276 39.8692 245.427C40.837 244.865 41.2043 243.879 41.584 242.86C41.5985 242.821 41.613 242.782 41.6275 242.743C41.7622 242.382 41.892 242.026 42.0201 241.675C42.9243 239.195 43.7426 236.951 45.579 234.894C46.9462 233.154 49.0077 232.543 51.0344 231.941C51.4184 231.828 51.8011 231.714 52.1776 231.593C53.4814 231.23 54.7301 230.679 55.8875 229.956C56.9416 229.257 56.8678 229.017 56.6836 228.42C56.5948 228.132 56.4805 227.761 56.4543 227.216C56.4374 226.87 56.6676 226.326 56.8995 225.778C57.0658 225.385 57.233 224.989 57.311 224.663C57.559 223.608 58.6883 223.378 59.6266 223.187C59.87 223.138 60.1005 223.091 60.2995 223.033C60.6783 222.625 60.9605 222.077 61.2408 221.533C61.4515 221.124 61.661 220.717 61.9097 220.373C62.7245 219.205 64.3218 218.384 65.6422 217.998C66.4553 217.761 67.3332 217.636 68.2102 217.51C70.5842 217.172 72.9523 216.834 74.0153 214.281C74.4494 213.242 74.4439 211.858 74.4382 210.453C74.4272 207.698 74.4158 204.859 77.7123 204.359C77.914 204.336 78.0689 204.247 78.2143 204.163C78.431 204.038 78.6263 203.925 78.9232 204.064C78.6657 204.552 78.7485 204.696 78.8537 204.879ZM65.246 249.64C65.0655 250.414 65.08 251.223 65.2879 251.989C67.5229 250.808 67.2781 248.084 65.362 246.695C65.3863 246.979 65.4183 247.223 65.4475 247.445C65.5453 248.19 65.6109 248.689 65.246 249.64Z" fill="#B44F45" fill-opacity="0.12"/>
<path fill-rule="evenodd" clip-rule="evenodd" d="M523.854 26.8789C523.933 27.0163 524.024 27.1756 523.994 27.5195C523.731 27.7291 523.41 27.7573 523.079 27.7863C522.606 27.8279 522.114 27.8712 521.746 28.452C521.266 29.1933 520.725 30.6726 520.986 31.5817C521.443 32.9709 521.259 34.2938 521.073 35.6241C520.96 36.4298 520.848 37.2382 520.877 38.0658C520.86 39.2745 520.399 40.4305 519.589 41.296C519.351 41.5312 518.944 41.7562 518.533 41.9832C518 42.2775 517.461 42.5752 517.279 42.9028C516.99 43.3968 516.557 43.7981 516.126 44.1962C515.853 44.4497 515.58 44.7018 515.347 44.9758C515.146 45.2029 515.051 45.5516 514.96 45.8823C514.909 46.0696 514.86 46.2511 514.793 46.4015C514.444 47.067 513.996 47.6715 513.466 48.1927C513.75 48.4682 514.08 48.677 514.403 48.8816C515.123 49.3372 515.81 49.7721 515.879 50.8762C515.923 51.5569 516.309 51.9667 516.649 52.3276C517.171 52.881 517.584 53.3192 516.49 54.442C516.027 54.9852 515.437 55.3953 514.777 55.6328C514.47 55.7146 514.236 55.8785 514.012 56.0354C513.813 56.1744 513.623 56.3079 513.396 56.3741C513.037 56.4761 512.759 56.4927 512.545 56.5056C512.034 56.5362 511.888 56.5449 511.888 57.6421C511.814 58.6465 511.799 59.6547 511.843 60.661C512.054 62.4052 512.438 64.1218 512.99 65.7832C513.094 66.0584 513.171 66.3521 513.248 66.6458C513.345 67.0144 513.442 67.3831 513.592 67.7154C513.741 68.0671 513.947 68.4115 514.156 68.759C514.509 69.3492 514.868 69.9481 514.961 70.6069C515.043 71.2049 514.779 71.6983 514.514 72.1934C514.363 72.4759 514.211 72.7589 514.123 73.0623C513.856 73.8732 513.718 74.7241 513.714 75.5814C513.76 76.5375 513.792 77.3123 512.793 77.6947C512.223 77.5368 511.85 77.0028 511.497 76.4976C511.34 76.273 511.187 76.0542 511.022 75.8766C510.684 77.7417 507.293 76.098 506.749 75.0179C506.48 74.4328 506.673 73.8854 506.872 73.3204C507.014 72.9168 507.159 72.5043 507.142 72.0627C507.077 70.3284 506.881 68.9397 505.853 67.5074C505.175 66.5636 504.907 67.005 504.532 67.6217C504.371 67.8862 504.191 68.1829 503.95 68.4164C503.229 69.2195 502.38 69.7009 501.507 70.1962C501.151 70.3981 500.791 70.6023 500.433 70.8316C499.567 71.2675 498.886 72.0212 498.521 72.9482C498.41 73.308 498.44 73.6516 498.471 73.9986C498.495 74.2664 498.519 74.5361 498.479 74.8166C498.38 75.2781 498.25 75.7319 498.12 76.1858C497.978 76.682 497.836 77.1783 497.735 77.6847C497.477 79.0029 497.464 79.3317 498.021 80.546C498.667 81.9317 497.598 81.9387 496.522 81.9458C496.384 81.9467 496.246 81.9477 496.112 81.9515C495.983 81.9553 495.849 81.9598 495.71 81.9645C494.272 82.0125 492.292 82.0785 491.023 81.6596C489.973 81.3753 489.157 80.5136 488.898 79.4155C488.785 78.745 489.269 78.1194 489.728 77.5252C489.978 77.2007 490.221 76.8857 490.357 76.5777C490.753 75.7595 490.727 74.7881 490.286 73.9948C489.963 73.3336 489.777 72.6359 489.597 71.9604C489.209 70.5045 488.848 69.1514 487.207 68.4869C486.59 68.2371 485.993 68.4062 485.392 68.5765C484.879 68.7218 484.363 68.868 483.829 68.7552C482.812 68.4851 482.093 67.5405 482.074 66.4474C482.071 66.4086 482.068 66.3649 482.065 66.317C482.01 65.5585 481.88 63.7415 482.277 63.2808C483.169 62.2376 483.404 64.9379 483.372 65.3673C483.211 66.5346 483.259 68.2755 484.869 67.4269C485.837 66.8646 486.204 65.8791 486.584 64.86C486.598 64.8211 486.613 64.7823 486.628 64.7434C486.762 64.3824 486.892 64.0264 487.02 63.675C487.924 61.1953 488.743 58.9507 490.579 56.894C491.946 55.154 494.008 54.5426 496.034 53.9415C496.418 53.8276 496.801 53.7141 497.178 53.5933C498.481 53.2302 499.73 52.6793 500.888 51.9564C501.942 51.2568 501.868 51.0172 501.684 50.4197C501.595 50.1319 501.48 49.7611 501.454 49.2158C501.437 48.8699 501.668 48.326 501.9 47.7776C502.066 47.3846 502.233 46.9894 502.311 46.6631C502.559 45.6083 503.688 45.3784 504.627 45.1874C504.87 45.1378 505.101 45.0909 505.3 45.0329C505.678 44.6249 505.96 44.077 506.241 43.5326C506.451 43.1237 506.661 42.7168 506.91 42.3728C507.724 41.2055 509.322 40.3836 510.642 39.9979C511.455 39.7608 512.333 39.6355 513.21 39.5104C515.584 39.1715 517.952 38.8336 519.015 36.2812C519.449 35.2419 519.444 33.8583 519.438 32.4526C519.427 29.698 519.416 26.8586 522.712 26.3589C522.914 26.336 523.069 26.2466 523.214 26.1628C523.431 26.0378 523.626 25.9251 523.923 26.0637C523.666 26.5521 523.749 26.696 523.854 26.8789ZM510.246 71.6405C510.066 72.4139 510.08 73.2227 510.288 73.9886C512.523 72.8078 512.278 70.084 510.362 68.6953C510.386 68.9791 510.418 69.2228 510.448 69.4446C510.545 70.19 510.611 70.6891 510.246 71.6405Z" fill="#B44F45" fill-opacity="0.12"/>
<defs>
<filter id="filter0_d_1218_31667" x="0" y="0" width="570" height="312" filterUnits="userSpaceOnUse" color-interpolation-filters="sRGB">
<feFlood flood-opacity="0" result="BackgroundImageFix"/>
<feColorMatrix in="SourceAlpha" type="matrix" values="0 0 0 0 0 0 0 0 0 0 0 0 0 0 0 0 0 0 127 0" result="hardAlpha"/>
<feMorphology radius="7" operator="dilate" in="SourceAlpha" result="effect1_dropShadow_1218_31667"/>
<feOffset dx="3" dy="3"/>
<feGaussianBlur stdDeviation="6"/>
<feComposite in2="hardAlpha" operator="out"/>
<feColorMatrix type="matrix" values="0 0 0 0 0.320833 0 0 0 0 0.320833 0 0 0 0 0.320833 0 0 0 0.12 0"/>
<feBlend mode="normal" in2="BackgroundImageFix" result="effect1_dropShadow_1218_31667"/>
<feBlend mode="normal" in="SourceGraphic" in2="effect1_dropShadow_1218_31667" result="shape"/>
</filter>
<linearGradient id="paint0_linear_1218_31667" x1="301" y1="16" x2="16" y2="86.5" gradientUnits="userSpaceOnUse">
<stop stop-color="#CC7F31"/>
<stop offset="1" stop-color="#FFA028"/>
</linearGradient>
<linearGradient id="paint1_linear_1218_31667" x1="444.551" y1="100.005" x2="170.07" y2="226.465" gradientUnits="userSpaceOnUse">
<stop stop-color="#CC7F31"/>
<stop offset="0.947683" stop-color="#FFA028"/>
</linearGradient>
</defs>
</svg>
