<svg width="32" height="32" viewBox="0 0 32 32" fill="none" xmlns="http://www.w3.org/2000/svg">
<path d="M14.152 4.66603C14.2369 4.57907 14.3384 4.51001 14.4505 4.46292C14.5625 4.41583 14.6829 4.39166 14.8044 4.39185C14.926 4.39203 15.0462 4.41657 15.1581 4.464C15.2701 4.51144 15.3713 4.58081 15.456 4.66803L25.82 15.302C26.002 15.4888 26.1039 15.7392 26.1039 16C26.1039 16.2608 26.002 16.5113 25.82 16.698L15.456 27.332C15.3712 27.4191 15.2698 27.4883 15.1578 27.5356C15.0459 27.5829 14.9255 27.6072 14.804 27.6072C14.6824 27.6072 14.5621 27.5829 14.4501 27.5356C14.3382 27.4883 14.2368 27.4191 14.152 27.332C13.9775 27.1534 13.8799 26.9137 13.8799 26.664C13.8799 26.4144 13.9775 26.1746 14.152 25.996L23.898 16L14.152 6.00003C13.9781 5.82152 13.8809 5.5822 13.8809 5.33303C13.8809 5.08386 13.9781 4.84453 14.152 4.66603ZM6.15199 4.66603C6.23691 4.57907 6.3384 4.51001 6.45045 4.46292C6.56251 4.41583 6.68286 4.39166 6.80441 4.39185C6.92596 4.39203 7.04624 4.41657 7.15815 4.464C7.27006 4.51144 7.37133 4.58081 7.45599 4.66803L17.82 15.302C18.002 15.4888 18.1039 15.7392 18.1039 16C18.1039 16.2608 18.002 16.5113 17.82 16.698L7.45599 27.332C7.3712 27.4191 7.26982 27.4883 7.15783 27.5356C7.04585 27.5829 6.92554 27.6072 6.80399 27.6072C6.68244 27.6072 6.56212 27.5829 6.45014 27.5356C6.33816 27.4883 6.23678 27.4191 6.15199 27.332C5.97754 27.1534 5.87988 26.9137 5.87988 26.664C5.87988 26.4144 5.97754 26.1746 6.15199 25.996L15.898 16L6.15199 6.00003C5.97814 5.82152 5.88086 5.5822 5.88086 5.33303C5.88086 5.08386 5.97814 4.84453 6.15199 4.66603Z" fill="#CC7F31"/>
</svg>
