<svg width="654" height="345" viewBox="0 0 654 345" fill="none" xmlns="http://www.w3.org/2000/svg">
<path d="M44.2973 343.337C44.2973 343.337 -15.4268 256.639 20.8016 167.387C44.4159 109.211 132.992 77.3317 182.984 109.211C204.275 122.789 272.581 109.67 309.053 53.4576C379.928 -55.7746 627.279 10.5641 582.248 178.274C560.455 259.434 648.571 262.384 603.671 343.51L44.2973 343.337Z" fill="#FFF8EA"/>
<path d="M653.097 345.001H0.90263C0.405726 345.001 0 344.594 0 344.097V343.328C0 342.831 0.405726 342.424 0.90263 342.424H653.097C653.594 342.424 654 342.831 654 343.328V344.097C654 344.594 653.594 345.001 653.097 345.001Z" fill="#E58E13"/>
<path d="M433.029 80.0879H387.995C385.928 80.0879 384.236 78.3952 384.236 76.326V32.8234C384.236 30.7543 385.928 29.0615 387.995 29.0615H433.029C435.096 29.0615 436.787 30.7543 436.787 32.8234V76.326C436.787 78.3952 435.096 80.0879 433.029 80.0879Z" fill="#C74A2E"/>
<path d="M431.08 77.8777H389.948C388.061 77.8777 386.516 76.3309 386.516 74.442V34.7081C386.516 32.8192 388.061 31.2725 389.948 31.2725H431.08C432.967 31.2725 434.512 32.8192 434.512 34.7081V74.4397C434.512 76.3309 432.967 77.8777 431.08 77.8777Z" fill="#FFF8EA"/>
<path d="M409.426 35.9313C409.426 35.3289 409.913 34.8406 410.515 34.8406C411.117 34.8406 411.605 35.3289 411.605 35.9313C411.605 36.5337 411.117 37.0221 410.515 37.0221C409.913 37.0221 409.426 36.5315 409.426 35.9313Z" fill="#C74A2E"/>
<path d="M418.208 37.4711C418.5 36.9439 419.163 36.7546 419.687 37.0489C420.214 37.341 420.403 38.005 420.109 38.5299C419.817 39.057 419.154 39.2464 418.63 38.952C418.105 38.6599 417.916 37.9959 418.208 37.4711Z" fill="#C74A2E"/>
<path d="M425.734 43.4549C426.24 43.1285 426.913 43.2746 427.239 43.7789C427.565 44.2855 427.419 44.9586 426.915 45.2849C426.409 45.6113 425.737 45.4652 425.411 44.9609C425.085 44.4566 425.228 43.7812 425.734 43.4549Z" fill="#C74A2E"/>
<path d="M429.461 52.7146C430.063 52.7146 430.551 53.2029 430.551 53.8053C430.551 54.4078 430.063 54.8961 429.461 54.8961C428.859 54.8961 428.372 54.4078 428.372 53.8053C428.372 53.2029 428.859 52.7146 429.461 52.7146Z" fill="#C74A2E"/>
<path d="M427.558 63.4619C427.984 63.8886 427.984 64.5777 427.558 65.0022C427.132 65.4289 426.443 65.4289 426.019 65.0022C425.593 64.5755 425.593 63.8863 426.019 63.4619C426.443 63.0374 427.132 63.0374 427.558 63.4619Z" fill="#C74A2E"/>
<path d="M420.722 70.3217C421.148 70.7485 421.148 71.4376 420.722 71.862C420.298 72.2865 419.608 72.2865 419.184 71.862C418.757 71.4353 418.757 70.7462 419.184 70.3217C419.608 69.8973 420.296 69.8973 420.722 70.3217Z" fill="#C74A2E"/>
<path d="M409.426 73.8578C409.426 73.2554 409.913 72.7671 410.515 72.7671C411.117 72.7671 411.605 73.2554 411.605 73.8578C411.605 74.4603 411.117 74.9486 410.515 74.9486C409.913 74.9486 409.426 74.4603 409.426 73.8578Z" fill="#C74A2E"/>
<path d="M402.783 37.4711C402.492 36.9439 401.828 36.7546 401.302 37.0489C400.778 37.341 400.588 38.005 400.88 38.5299C401.172 39.057 401.835 39.2464 402.359 38.952C402.886 38.6599 403.075 37.9959 402.783 37.4711Z" fill="#C74A2E"/>
<path d="M395.259 43.4549C394.753 43.1285 394.081 43.2746 393.755 43.7789C393.429 44.2855 393.575 44.9586 394.079 45.2849C394.585 45.6113 395.257 45.4652 395.583 44.9609C395.909 44.4543 395.763 43.7812 395.259 43.4549Z" fill="#C74A2E"/>
<path d="M391.53 52.7146C390.928 52.7146 390.441 53.2029 390.441 53.8053C390.441 54.4078 390.928 54.8961 391.53 54.8961C392.132 54.8961 392.62 54.4078 392.62 53.8053C392.62 53.2029 392.132 52.7146 391.53 52.7146Z" fill="#C74A2E"/>
<path d="M393.433 63.4619C393.009 63.8886 393.009 64.5777 393.433 65.0022C393.86 65.4289 394.548 65.4289 394.972 65.0022C395.398 64.5755 395.398 63.8863 394.972 63.4619C394.548 63.0374 393.86 63.0374 393.433 63.4619Z" fill="#C74A2E"/>
<path d="M400.269 70.3217C399.843 70.7485 399.843 71.4376 400.269 71.862C400.696 72.2865 401.384 72.2865 401.808 71.862C402.234 71.4353 402.234 70.7462 401.808 70.3217C401.384 69.8973 400.696 69.8973 400.269 70.3217Z" fill="#C74A2E"/>
<path d="M411.308 54.8959C411.91 54.8959 412.398 54.4075 412.398 53.8051C412.398 53.2027 411.91 52.7144 411.308 52.7144C410.707 52.7144 410.219 53.2027 410.219 53.8051C410.219 54.4075 410.707 54.8959 411.308 54.8959Z" fill="#C74A2E"/>
<path d="M411.457 40.1941H411.16V53.8045H411.457V40.1941Z" fill="#C74A2E"/>
<path d="M418.119 47.7408L410.909 53.4058L411.459 54.1075L418.669 48.4425L418.119 47.7408Z" fill="#C74A2E"/>
<g opacity="0.5">
<g opacity="0.5">
<path opacity="0.5" d="M467.969 217.483C467.969 217.483 459.695 194.697 477.656 188.971C477.656 188.971 490.072 186.655 498.132 190.258C498.132 190.258 479.072 205.463 482.119 208.839C485.165 212.213 502.137 190.363 502.137 190.363C502.137 190.363 525.988 196.8 532.051 203.152C532.051 203.152 506.319 211.85 510.101 214.371C513.882 216.892 541.08 209.083 541.08 209.083C541.08 209.083 561.125 220.802 555.064 233.448C549.003 246.093 540.104 247.35 536.991 245.78C533.877 244.211 517.632 229.813 516.219 232.316C514.806 234.821 522.957 247.815 530.8 251.237C530.8 251.237 509.431 262.215 501.205 253.624C492.978 245.032 494.991 237.084 489.81 231.869C484.631 226.652 479.288 224.646 480.772 228.536C482.258 232.426 492.513 239.525 493.708 247.206C494.902 254.888 496.505 260.37 486.71 254.892C476.916 249.417 462.9 235.453 465.434 226.467C467.969 217.483 467.969 217.483 467.969 217.483Z" fill="#34C85A"/>
<g opacity="0.5">
<path opacity="0.5" d="M544.405 229.834C544.405 229.834 487.079 205.67 467.969 217.48C467.969 217.48 461.924 224.927 450.265 229.387L447.505 232.59C447.505 232.59 461.587 225.75 465.434 226.467C465.437 226.469 467.554 203.715 544.405 229.834Z" fill="#34C85A"/>
<path opacity="0.5" d="M450.265 229.387C450.265 229.387 434.303 233.925 427.223 250.111L429.413 251.167C429.413 251.167 439.823 235.594 449.543 231.634C459.264 227.674 450.265 229.387 450.265 229.387Z" fill="#34C85A"/>
</g>
</g>
<g opacity="0.5">
<path opacity="0.5" d="M425.067 205.816C425.067 205.816 445.984 194.092 436.222 178.182C436.222 178.182 428.413 168.414 420.045 165.9C420.045 165.9 424.508 189.625 420.045 190.184C415.582 190.743 416.977 163.388 416.977 163.388C416.977 163.388 394.945 152.78 386.299 153.619C386.299 153.619 399.964 176.786 395.503 176.23C391.04 175.671 375.702 152.223 375.702 152.223C375.702 152.223 353.111 148.037 349.487 161.435C345.861 174.833 351.719 181.534 355.065 182.371C358.411 183.208 379.887 182.93 379.329 185.72C378.77 188.512 364.269 192.977 356.182 190.465C356.182 190.465 365.105 212.516 376.819 211.401C388.533 210.285 392.157 203.026 399.41 202.469C406.661 201.91 411.96 203.866 408.334 205.818C404.707 207.773 392.437 206.459 386.579 211.442C380.724 216.424 375.98 219.495 386.858 221.728C397.735 223.962 417.258 222.566 421.162 214.191C425.067 205.816 425.067 205.816 425.067 205.816Z" fill="#34C85A"/>
<g opacity="0.5">
<path opacity="0.5" d="M359.806 165.621C359.806 165.621 418.374 184.602 425.067 205.816C425.067 205.816 424.789 215.306 430.644 226.193V230.379C430.644 230.379 424.508 216.143 421.162 214.188C421.162 214.188 434.269 195.767 359.806 165.621Z" fill="#34C85A"/>
<path opacity="0.5" d="M430.644 226.193C430.644 226.193 439.677 239.92 434.528 256.631L432.206 256.005C432.206 256.005 434.462 237.6 429.735 228.344C425.007 219.087 430.644 226.193 430.644 226.193Z" fill="#34C85A"/>
</g>
</g>
<g opacity="0.5">
<path opacity="0.5" d="M449.278 175.864C449.278 175.864 418.785 158.773 433.015 135.578C433.015 135.578 444.4 121.336 456.597 117.672C456.597 117.672 450.092 152.262 456.597 153.076C463.103 153.891 461.069 114.011 461.069 114.011C461.069 114.011 493.19 98.548 505.795 99.7685C505.795 99.7685 485.871 133.544 492.377 132.731C498.882 131.917 521.245 97.7336 521.245 97.7336C521.245 97.7336 554.179 91.6287 559.465 111.161C564.751 130.694 556.213 140.461 551.333 141.681C546.452 142.902 515.145 142.495 515.959 146.565C516.773 150.635 537.914 157.146 549.705 153.482C549.705 153.482 536.694 185.631 519.617 184.002C502.54 182.375 497.254 171.795 486.683 170.98C476.111 170.166 468.386 173.015 473.672 175.862C478.958 178.712 496.846 176.795 505.385 184.061C513.923 191.327 520.835 195.803 504.979 199.059C489.122 202.314 460.661 200.279 454.968 188.072C449.278 175.864 449.278 175.864 449.278 175.864Z" fill="#34C85A"/>
<g opacity="0.5">
<path opacity="0.5" d="M544.419 117.266C544.419 117.266 459.036 144.939 449.278 175.865C449.278 175.865 449.684 189.701 441.145 205.572V211.677C441.145 211.677 450.09 190.924 454.97 188.074C454.97 188.072 435.86 161.214 544.419 117.266Z" fill="#34C85A"/>
<path opacity="0.5" d="M441.145 205.572C441.145 205.572 427.977 225.584 435.486 249.946L438.873 249.036C438.873 249.036 435.584 222.203 442.474 208.709C449.363 195.212 441.145 205.572 441.145 205.572Z" fill="#34C85A"/>
</g>
</g>
</g>
<path d="M427.806 244.195C426.676 246.878 415.826 249.369 399.722 251.571C396.884 251.961 393.885 252.339 390.744 252.711C335.934 259.172 185.819 262.779 176.567 260.874C163.782 258.241 138.337 129.556 138.337 129.556C138.337 129.556 213.251 128.256 272.743 127.624C293.095 127.409 363.891 126.871 377.017 126.871C397.352 126.869 429.63 239.849 427.806 244.195Z" fill="#F2F7FC"/>
<path d="M407.071 227.678C407.071 227.678 384.072 139.503 382.413 132.093C381.674 128.79 379.395 127.597 377.097 127.289C381.138 126.898 384.081 126.871 384.081 126.871C392.038 126.871 399.111 132.23 401.664 140.196C407.235 157.571 418.301 190.951 428.691 223.586C428.167 223.572 407.071 227.678 407.071 227.678Z" fill="white"/>
<path d="M546.473 306.22C542.805 328.337 518.82 342.424 494.218 342.424H445.492L449.269 214.636C449.269 214.636 495.793 199.46 507.47 212.82C517.7 224.523 545.443 270.848 546.901 298.267C547.047 301.018 546.897 303.674 546.473 306.22Z" fill="white"/>
<path d="M546.473 306.22C542.805 328.337 518.819 342.424 494.218 342.424H470.317C486.256 332.259 500.667 300.927 546.473 306.22Z" fill="#D4E4F8"/>
<path d="M417.125 227.156C417.125 227.156 482.858 195.582 495.308 216.208C501.918 227.158 520.11 270.848 521.454 298.267C522.761 324.908 498.232 342.424 473.004 342.424H428.194L417.125 227.156Z" fill="#AAC8E8"/>
<path d="M503.732 320.426C503.005 321.01 502.258 321.58 501.494 322.146C492 329.15 479.617 334.721 465.453 338.177C454.749 340.787 443.028 342.187 430.77 342.08L409.462 342.087H409.173L308.315 342.114L250.503 342.13H249.648L249.644 342.105L247.638 331.604L229.332 225.694C229.332 225.694 482.666 219.984 503.267 231.753C512.832 237.217 518.261 259.852 521.27 284.794C522.872 298.073 516.084 310.541 503.732 320.426Z" fill="#E1EFFF"/>
<path opacity="0.5" d="M503.732 320.425C503.005 321.009 502.258 321.58 501.494 322.145C492 329.149 479.617 334.72 465.452 338.176C454.749 340.786 443.028 342.187 430.77 342.08L409.462 342.086H409.173L308.315 342.114L250.503 342.13L249.644 342.105L247.638 331.604C283.073 324.751 332.105 317.79 383.254 318.329C432.103 318.844 473.004 318.778 503.732 320.425Z" fill="#BCD4F6"/>
<path d="M304.72 322.02C304.023 322.956 304.002 323.939 304.465 324.952C304.465 324.957 304.47 324.963 304.474 324.966C305.329 326.839 307.818 328.807 310.681 330.742C311.048 330.991 311.374 331.219 311.659 331.429C311.734 331.483 311.809 331.54 311.88 331.595C311.937 331.639 311.994 331.684 312.048 331.725C314.743 333.826 313.84 334.431 318.72 338.743C324.286 343.657 327.835 343.469 328.804 342.906C329.625 342.425 327.669 339.739 325.497 336.719C325.392 336.573 325.287 336.425 325.18 336.279C324.89 335.877 324.603 335.469 324.316 335.065C321.763 331.426 322.199 329.588 322.281 323.864C322.347 319.212 327.457 297.492 327.457 297.492L317.467 296.586C317.467 296.586 315.837 313.687 312.773 316.545C311.134 318.069 309.179 318.243 307.579 319.401C307.465 319.481 307.355 319.566 307.246 319.65C306.341 320.357 305.418 321.083 304.72 322.02Z" fill="#F6AEA6"/>
<path d="M408.635 303.788C409.483 306.765 413.781 305.916 418.532 304.353C423.284 302.791 422.242 304.283 429.078 302.975C435.914 301.668 437.802 298.944 437.929 297.909C438.045 296.989 434.613 296.941 430.925 296.814C430.462 296.8 429.995 296.779 429.527 296.759C425.361 296.572 422.129 294.165 418.206 292.287C414.493 290.51 408.527 282.539 408.527 282.539L399.13 284.036C399.13 284.036 404.687 291.138 406.866 294.245C408.147 296.072 408.288 298.611 408.302 300.58C408.316 301.645 408.334 302.738 408.635 303.788Z" fill="#F6AEA6"/>
<path d="M355.017 223.1L346.556 247.581L335.51 279.544C335.51 279.544 331.87 280.135 328.296 279.558C325.004 279.022 321.134 277.238 321.134 277.238C321.134 277.238 322.249 243.773 327.728 224.177C329.132 219.146 330.826 215.035 332.866 212.633C342.838 200.88 355.017 223.1 355.017 223.1Z" fill="#233862"/>
<path d="M345.765 186.799C339.392 185.043 321.955 189.336 304.515 194.656L300.253 188.054L261.652 187.732C261.652 187.732 251.508 220.312 260.031 239.879C261.285 242.756 263.457 244.49 266.91 244.28C266.912 244.282 267.468 244.234 267.471 244.234C267.471 244.234 290.285 242.404 297.693 241.816C316.758 240.301 336.869 223.857 339.572 223.02C343.998 221.647 346.606 231.648 351.958 241.941C357.31 252.235 398.061 285.743 398.061 285.743C398.061 285.743 403.884 285.346 406.207 284.139C408.705 282.843 409.537 281.351 409.537 281.351C409.537 281.351 360.136 190.762 345.765 186.799Z" fill="#2B478B"/>
<path d="M285.364 84.4292C280.582 82.3965 273.568 82.6269 272.422 82.5654C258.695 81.8308 252.078 102.107 252.069 108.093C252.053 119.126 246.355 121.261 238.691 128.778C223.326 143.851 229.421 159.464 238.892 164.691C244.574 167.828 253.808 163.505 253.808 163.505C253.95 163.587 278.694 147.04 290.905 139.035C309.826 134.812 297.549 89.6101 285.364 84.4292Z" fill="#233862"/>
<path d="M279.736 133.939C279.795 133.971 273.63 136.626 269.244 135.098C265.118 133.663 261.581 127.382 261.64 127.373C263.448 127.145 265.312 125.411 266.023 114.944L266.817 115.159L280.167 118.772C280.167 118.772 279.556 122.988 279.26 126.981C279.011 130.334 278.988 133.528 279.736 133.939Z" fill="#F6AEA6"/>
<path d="M280.169 118.772C280.169 118.772 279.558 122.988 279.262 126.981C271.699 126.239 268.187 119.083 266.819 115.159L280.169 118.772Z" fill="#ED975D"/>
<path d="M282.428 122.73C282.428 122.73 264.478 121.772 265.262 110.664C266.046 99.5565 264.257 91.9506 275.749 92.0943C287.242 92.2357 289.168 96.6273 289.813 100.398C290.461 104.167 287.119 122.694 282.428 122.73Z" fill="#F6AEA6"/>
<path d="M288.689 94.4332C288.689 94.4332 278.093 105.08 270.42 106.481C262.748 107.882 259.625 105.646 259.625 105.646C259.625 105.646 263.885 101.519 266.146 95.2272C266.812 93.3724 268.424 92.0082 270.377 91.6842C275.861 90.7694 286.314 89.72 288.689 94.4332Z" fill="#233862"/>
<path d="M296.756 158.768C299.056 194.565 298.853 187.061 295.19 190.769C294.308 191.661 291.682 192.359 288.195 192.87C277.229 194.473 257.704 194.209 256.806 192.242C253.706 185.435 255.329 183.112 252.354 172.55C252.042 171.425 251.67 170.212 251.242 168.893C248.887 161.661 246.968 159.291 252.302 146.949C257.141 135.768 262.363 126.593 262.919 126.864C278.637 134.534 279.257 126.987 279.257 126.987C279.257 126.987 295.635 141.309 296.756 158.768Z" fill="#C74A2E"/>
<path d="M343.274 256.904L330.815 300.293C330.815 300.293 326.559 301.044 322.358 300.2C318.492 299.417 313.929 296.93 313.929 296.93C313.929 296.93 314.727 251.343 320.851 224.724L343.274 256.904Z" fill="#2B478B"/>
<path d="M279.262 126.983C279.262 126.983 294.919 128.359 297.258 134.831C299.596 141.301 313.361 179.342 313.361 179.342C313.361 179.342 305.618 181.37 301.702 178.05C297.786 174.731 286.419 145.578 286.419 145.578L279.262 126.983Z" fill="#C74A2E"/>
<path d="M262.912 126.853C262.912 126.853 248.379 128.909 243.879 136.323C237.545 146.76 226.768 189.948 235.304 194.916C244.919 200.51 276.905 193.272 276.905 193.272C276.905 193.272 277.584 188.182 275.893 185.88C274.202 183.578 249.546 181.603 248.333 180.576C247.121 179.547 260.651 157.669 260.384 154.318C260.12 150.962 262.912 126.853 262.912 126.853Z" fill="#C74A2E"/>
<path d="M299.653 306.907C295.701 328.358 274.019 341.955 251.796 341.955H206.985L210.491 213.035C210.491 213.035 253.245 198.991 263.983 212.35C273.393 224.053 298.903 270.378 300.248 297.797C300.401 300.966 300.191 304.009 299.653 306.907Z" fill="white"/>
<path d="M299.653 306.906C295.701 328.358 274.019 341.954 251.795 341.954H215.936C232.722 331.248 255.322 301.666 299.653 306.906Z" fill="#D4E4F8"/>
<path d="M151.145 342.425C139.903 342.356 127.827 339.94 118.692 333.067C109.807 326.389 104.537 316.224 101.334 305.789C94.4846 283.484 94.6897 259.024 95.4282 235.916C96.2237 210.906 98.4803 185.889 101.371 161.041C102.326 152.828 102.59 142.215 106.834 134.838C110.158 129.059 122.612 127.138 128.611 127.295C133.61 127.428 138.433 131.737 142.652 134.215C145.483 135.878 148.312 137.539 151.143 139.202C153.894 140.817 153.994 143.653 154.956 146.664C163.032 171.943 170.96 197.273 179.12 222.525C188.709 218.492 198.479 214.853 208.519 212.108C217.965 209.526 228.762 207.007 238.555 209.045C248.743 211.164 251.841 220.992 255.566 229.574C260.494 240.928 264.761 252.604 268.269 264.474C271.683 276.027 275.114 288.54 274.831 300.695C274.576 311.649 269.559 321.792 261.444 329.061C251.089 338.339 237.486 342.425 223.848 342.425C199.614 342.425 175.38 342.425 151.145 342.425Z" fill="#BCD4F6"/>
<path d="M158.309 227.678C158.309 227.678 135.31 139.503 133.651 132.093C132.912 128.79 130.633 127.597 128.335 127.289C132.377 126.898 135.319 126.871 135.319 126.871C143.277 126.871 150.35 132.23 152.903 140.196C158.473 157.571 168.728 189.612 179.12 222.247C178.591 222.233 158.309 227.678 158.309 227.678Z" fill="white"/>
<path d="M308.948 205.511H262.187C262.187 203.451 263.856 201.781 265.914 201.781H308.948V205.511Z" fill="black"/>
<path d="M308.814 154.537H381.111L363.77 205.511H291.003L308.814 154.537Z" fill="#030303"/>
<path d="M382.176 154.537L364.834 205.508H292.068L309.879 154.537H382.176Z" fill="#333333"/>
<path d="M343.198 179.552C342.749 181.5 340.807 183.079 338.861 183.079C336.914 183.079 335.702 181.5 336.151 179.552C336.6 177.603 338.542 176.025 340.488 176.025C342.435 176.027 343.647 177.606 343.198 179.552Z" fill="#030303"/>
<path d="M176.936 222.988V226.02C176.936 227.08 176.592 227.947 176.175 227.947H65.6391C65.2197 227.947 64.8778 227.08 64.8778 226.02V222.988C64.8778 221.929 65.222 221.06 65.6391 221.06H176.175C176.592 221.06 176.936 221.929 176.936 222.988Z" fill="#E58E13"/>
<path d="M176.936 222.988V226.02C176.936 227.08 176.622 227.947 176.237 227.947H88.483C88.0978 227.947 87.7832 227.08 87.7832 226.02V222.988C87.7832 221.929 88.0978 221.06 88.483 221.06H176.237C176.622 221.06 176.936 221.929 176.936 222.988Z" fill="#CC7F31"/>
<path d="M148.959 227.948H70.4873V342.425H148.959V227.948Z" fill="#CC7F31"/>
<path d="M170.951 227.948H92.4787V342.425H170.951V227.948Z" fill="#E58E13"/>
<path d="M166.736 336.106H96.6956V231.183H166.734V336.106H166.736ZM97.4523 335.348H165.979V231.94H97.4523V335.348Z" fill="#FFF8EA"/>
<path d="M166.358 265.891H97.0739V266.649H166.358V265.891Z" fill="#FFF8EA"/>
<path d="M166.358 301.277H97.0739V302.034H166.358V301.277Z" fill="#FFF8EA"/>
<path d="M138.814 237.95H125.958C125.334 237.95 124.823 237.438 124.823 236.813C124.823 236.188 125.334 235.677 125.958 235.677H138.814C139.438 235.677 139.949 236.188 139.949 236.813C139.949 237.438 139.438 237.95 138.814 237.95Z" fill="#FFF8EA"/>
<path d="M138.814 272.553H125.958C125.334 272.553 124.823 272.042 124.823 271.416C124.823 270.791 125.334 270.28 125.958 270.28H138.814C139.438 270.28 139.949 270.791 139.949 271.416C139.949 272.042 139.438 272.553 138.814 272.553Z" fill="#FFF8EA"/>
<path d="M138.814 308.625H125.958C125.334 308.625 124.823 308.114 124.823 307.489C124.823 306.863 125.334 306.352 125.958 306.352H138.814C139.438 306.352 139.949 306.863 139.949 307.489C139.949 308.114 139.438 308.625 138.814 308.625Z" fill="#FFF8EA"/>
<path d="M142.636 221.646H119.74V213.552H142.712C144.499 213.552 145.946 215.001 145.946 216.789V218.338C145.944 220.163 144.464 221.646 142.636 221.646Z" fill="#FCECDB"/>
<path d="M165.489 216.883V218.101C165.489 218.751 165.314 219.36 165.008 219.885C164.395 220.939 163.253 221.649 161.945 221.649H119.038C118.753 221.649 118.525 221.418 118.525 221.135V220.953C118.525 220.67 118.755 220.439 119.038 220.439H145.194C145.333 220.268 145.456 220.084 145.561 219.887C145.805 219.427 145.944 218.9 145.944 218.341V216.792C145.944 216.506 145.907 216.23 145.839 215.968C145.723 215.523 145.513 215.115 145.233 214.766H119.038C118.753 214.766 118.525 214.535 118.525 214.25V214.068C118.525 213.783 118.755 213.554 119.038 213.554H162.161C163.682 213.554 164.963 214.574 165.362 215.968C165.444 216.256 165.489 216.564 165.489 216.883Z" fill="#699DEE"/>
<path d="M165.362 215.964H145.839C145.723 215.519 145.513 215.11 145.233 214.761H119.038C118.753 214.761 118.525 214.531 118.525 214.246V214.063C118.525 213.778 118.755 213.55 119.038 213.55H162.161C163.682 213.552 164.963 214.572 165.362 215.964Z" fill="#548EE2"/>
<path d="M119.74 217.599L122.915 217.734L119.74 217.816V217.599Z" fill="#F4D2B8"/>
<path d="M119.74 218.868L127.298 219.005L119.74 219.087V218.868Z" fill="#F4D2B8"/>
<path d="M145.34 213.568H170.244V204.317H145.258C143.263 204.317 141.647 205.935 141.647 207.931V209.87C141.647 211.914 143.3 213.568 145.34 213.568Z" fill="#FFF5E4"/>
<path d="M142.233 207.909V209.9C142.24 210.751 142.709 211.488 143.4 211.883C143.74 212.077 144.134 212.186 144.551 212.186H171.598C171.915 212.186 172.172 212.444 172.172 212.761V212.996C172.172 213.313 171.915 213.571 171.598 213.571H124.873C123.533 213.571 122.348 212.905 121.632 211.883C121.181 211.239 120.916 210.457 120.916 209.611V208.041C120.916 207.462 121.048 206.912 121.285 206.424C121.887 205.18 123.159 204.323 124.632 204.323H171.596C171.913 204.323 172.17 204.578 172.17 204.897V205.132C172.17 205.449 171.913 205.707 171.596 205.707H144.469C143.822 205.707 143.234 205.983 142.823 206.426C142.461 206.811 142.235 207.334 142.233 207.909Z" fill="#CC7F31"/>
<path d="M170.244 208.944L166.777 209.099L170.244 209.193V208.944Z" fill="#CC7F31"/>
<path d="M170.244 206.815L161.995 206.97L170.244 207.064V206.815Z" fill="#CC7F31"/>
<path d="M162.082 206.938C162.082 206.938 162.626 207.233 162.807 207.714C162.838 207.799 162.859 207.89 162.864 207.984C162.893 208.625 162.864 210.074 162.864 210.074L164.47 209.348L166.073 210.074V208.109C166.073 207.737 165.936 207.377 165.681 207.139C165.558 207.025 165.407 206.938 165.236 206.938H162.082Z" fill="#CC7F31"/>
<path d="M162.082 206.938C162.082 206.938 162.626 207.233 162.807 207.714L166.027 207.744C166.027 207.744 165.902 207.053 165.236 206.941H162.082V206.938Z" fill="#CC7F31"/>
<path d="M109.034 38.1682H165.934C170.47 38.1682 174.181 41.8822 174.181 46.4221V71.4071C174.181 75.5774 170.773 78.988 166.606 78.988H165.145L167.887 90.5771L150.676 78.988H108.544C104.012 78.988 100.304 75.2763 100.304 70.741V46.9057C100.304 42.0989 104.233 38.1682 109.034 38.1682Z" fill="#BCD4F6"/>
<path d="M109.738 60.266H161.594C162.312 60.266 162.9 59.6773 162.9 58.9585V58.9174C162.9 58.1986 162.312 57.6099 161.594 57.6099H109.738C109.02 57.6099 108.432 58.1986 108.432 58.9174V58.9585C108.432 59.6795 109.02 60.266 109.738 60.266Z" fill="#FFF8EA"/>
<path d="M109.316 66.2042H132.5C132.985 66.2042 133.384 65.8072 133.384 65.3189V64.4335C133.384 63.9474 132.988 63.5481 132.5 63.5481H109.316C108.831 63.5481 108.432 63.9451 108.432 64.4335V65.3189C108.432 65.8049 108.829 66.2042 109.316 66.2042Z" fill="#FFF8EA"/>
<path d="M136.68 66.2041H156.882C157.336 66.2041 157.71 65.8322 157.71 65.3758V64.3786C157.71 63.9245 157.338 63.5503 156.882 63.5503H136.68C136.227 63.5503 135.853 63.9222 135.853 64.3786V65.3758C135.853 65.8322 136.224 66.2041 136.68 66.2041Z" fill="#FFF8EA"/>
<path d="M125.448 49.5708H144.056C144.768 49.5708 145.349 48.989 145.349 48.277C145.349 47.565 144.768 46.9832 144.056 46.9832H125.448C124.736 46.9832 124.155 47.565 124.155 48.277C124.155 48.989 124.736 49.5708 125.448 49.5708Z" fill="#FFF8EA"/>
<path d="M109.453 49.5708H120.652C121.213 49.5708 121.673 49.1099 121.673 48.5485V48.0055C121.673 47.4441 121.213 46.9832 120.652 46.9832H109.453C108.893 46.9832 108.432 47.4441 108.432 48.0055V48.5485C108.432 49.1099 108.893 49.5708 109.453 49.5708Z" fill="#FFF8EA"/>
<path d="M90.729 139.482H89.7777V178.353H90.729V139.482Z" fill="#184655"/>
<path d="M97.8945 145.032H95.5832V219.951H97.8945V145.032Z" fill="#184655"/>
<path d="M79.5797 220.82C87.7809 220.82 94.4276 219.351 94.4276 217.537C94.4276 217.202 94.1996 216.88 93.778 216.577L93.8486 216.556H99.816L99.8343 216.561C99.3989 216.869 99.1664 217.197 99.1664 217.537C99.1664 219.857 108.475 220.834 114.203 220.818L114.208 220.82V221.532H79.2196V220.82L79.2264 220.818C79.3427 220.818 79.4612 220.82 79.5797 220.82Z" fill="#184655"/>
<path d="M88.9594 145.617H102.898C104.284 145.617 105.407 144.492 105.407 143.105V142.82H86.4498V143.105C86.4498 144.492 87.5735 145.617 88.9594 145.617Z" fill="#184655"/>
<path d="M70.5945 140.524C70.5945 141.291 73.8175 141.982 79.0008 142.47C96.3445 144.108 125.416 142.913 125.416 140.524C125.416 140.428 107.507 107.413 107.507 107.413H88.5035C88.5035 107.411 70.5945 140.428 70.5945 140.524Z" fill="#C74A2E"/>
<path d="M88.6152 178.338C88.6152 179.152 89.3332 179.814 90.2198 179.814C91.1065 179.814 91.8245 179.152 91.8245 178.338C91.8245 177.521 91.1065 176.861 90.2198 176.861C89.3332 176.861 88.6152 177.523 88.6152 178.338Z" fill="#184655"/>
<path d="M412.589 210.251C412.589 210.251 417.198 210.39 421.691 205.948C426.186 201.504 436.404 199.492 444.583 200.453C452.761 201.413 460.645 207.552 463.009 214.241C465.373 220.93 464.956 228.264 464.956 228.264L396.301 224.347C395.489 224.302 394.954 223.471 395.275 222.732C395.692 221.772 396.647 220.782 398.831 221.133C402.786 221.769 412.589 210.251 412.589 210.251Z" fill="#F47458"/>
<path d="M451.788 214.136C451.788 214.136 446.249 206.276 440.667 206.452C435.084 206.628 433.683 216.647 437.001 220.423C440.243 224.112 440.86 223.487 440.86 223.487C440.86 223.487 435.305 223.17 433.436 223.888C431.565 224.607 432.06 226.386 432.06 226.386L458.824 227.892C458.822 227.894 456.757 220.357 451.788 214.136Z" fill="#B75742"/>
<path d="M413.296 218.639L417.244 216.127C417.244 216.127 420.009 216.857 423.74 219.235C427.471 221.612 427.679 222.365 427.891 224.11C428.103 225.853 427.736 226.142 427.736 226.142L421.55 225.789L413.296 218.639Z" fill="#B75742"/>
<path d="M418.785 216.83C418.785 216.83 424.086 220.102 425.914 221.607C427.743 223.113 426.569 226.074 426.569 226.074L395.824 224.329C395.204 224.295 394.728 223.768 394.765 223.152C394.828 222.077 395.633 220.688 399.574 221.176C405.767 221.943 410.287 219.974 410.114 218.644C409.941 217.314 415.511 214.417 418.785 216.83Z" fill="#F47458"/>
<path d="M464.956 228.264C464.956 228.264 465.015 231.606 461.575 233.944C458.136 236.283 449.267 235.407 444.086 235.482C438.905 235.557 436.217 236.764 435.121 240.658C434.027 244.553 434.496 250.516 438.795 251.689C443.094 252.861 438.51 259.958 432.616 255.047C426.721 250.135 425.365 243.257 429.185 237.538C433.003 231.821 437.186 229.585 445.752 230.322C454.318 231.059 462.027 231.497 462.469 228.123C462.909 224.746 464.956 228.264 464.956 228.264Z" fill="#F47458"/>
<path d="M453.775 214.291C453.775 214.291 446.431 206.184 440.849 206.362C435.267 206.537 435.839 218.215 439.655 221.318C443.47 224.42 444.649 224.158 444.649 224.158C444.649 224.158 437.295 223.325 435.424 224.044C433.553 224.763 434.029 226.503 434.029 226.503L460.803 228.027C460.803 228.027 458.744 220.51 453.775 214.291Z" fill="#F47458"/>
<path d="M400.771 220.759C405.316 218.797 412.589 210.251 412.589 210.251C412.589 210.251 413.845 210.29 415.682 209.694C415.723 212.035 415.037 215.899 411.559 221.108C411.559 221.108 405.291 222.1 400.771 220.759Z" fill="#B75742"/>
<path d="M405.519 198.593C405.519 198.593 409.754 201.639 409.535 204.016C409.535 204.016 413.49 206.138 413.775 206.979C414.06 207.821 415.368 212.594 410.253 220.629C410.253 220.629 400.427 222.294 397.069 218.475L395.608 213.445C395.608 213.445 392.26 209.461 392.403 206.913L398.227 208.316C398.227 208.316 402.683 204.532 404.425 204.63L405.519 198.593Z" fill="#F47458"/>
</svg>
