<svg width="538" height="264" viewBox="0 0 538 264" fill="none" xmlns="http://www.w3.org/2000/svg">
<path d="M455.473 262.877C455.473 262.877 513.025 267.341 530.75 234.006C557.105 184.441 505.883 144.489 468.725 151.681C387.756 167.354 407.253 -5.54319 277.309 29.7433C240.772 39.6649 142.049 -19.2759 114.515 75.2318C107.967 97.7048 84.7701 100.18 51.0972 114.441C-14.8062 142.349 15.3276 263.348 62.4188 263.822C109.508 264.299 455.473 262.877 455.473 262.877Z" fill="#FFF8EA"/>
<path d="M527.884 263.999H22.0988C21.8505 263.999 21.6476 263.799 21.6476 263.553C21.6476 263.308 21.8505 263.107 22.0988 263.107H527.884C528.132 263.107 528.335 263.308 528.335 263.553C528.337 263.799 528.132 263.999 527.884 263.999Z" fill="#CC7F31"/>
<path opacity="0.5" d="M208.35 101.911L201.711 101.76C203.845 104.494 204.323 107.014 202.996 109.145C201.668 111.32 198.491 113.107 193.746 114.462C197.337 105.01 199.143 95.0403 199.143 84.8134C199.143 73.3587 196.879 62.2475 192.396 51.8049C188.085 41.7057 181.904 32.6203 174.024 24.8472C166.145 17.0526 156.982 10.9387 146.772 6.65313C136.194 2.23983 124.961 0 113.403 0C101.823 0 90.5902 2.23983 80.0117 6.65313C78.7487 7.19069 77.4874 7.75148 76.268 8.33218C76.2646 8.33384 76.2613 8.3355 76.2562 8.33716C72.5679 7.22388 68.9769 6.31135 65.5116 5.61617C48.0177 2.10378 35.6025 4.5311 30.5606 12.4502C25.7619 19.981 28.3735 31.3178 37.897 44.5412C37.8953 44.5428 37.8953 44.5461 37.8937 44.5478C36.6089 46.8955 35.4566 49.3062 34.3898 51.8032C33.5847 53.6764 32.8669 55.5495 32.2127 57.4658C14.3196 58.521 4.74235 61.6352 1.26034 67.2763C-2.7886 73.8431 2.73969 82.6565 20.4366 91.2259C22.8754 92.4105 25.4869 93.5736 28.2292 94.735C29.1433 102.681 31.2114 110.411 34.3898 117.817C38.7004 127.914 44.8812 137.001 52.761 144.796C60.6408 152.569 69.8038 158.685 80.0133 162.969C90.5919 167.382 101.825 169.622 113.404 169.622C124.963 169.622 136.195 167.382 146.774 162.969C156.983 158.683 166.146 152.569 174.026 144.796C181.688 137.217 187.761 128.389 192.05 118.613C200.779 116.826 206.525 114.027 208.811 110.324C210.394 107.768 210.2 104.925 208.35 101.911ZM187.867 115.799C182.055 116.833 174.806 117.435 166.339 117.522C153.201 117.681 138.111 116.654 122.208 114.58C123.547 111.698 124.859 108.738 126.138 105.71C131.073 107.343 135.861 108.637 140.429 109.553C145.662 110.603 150.435 111.122 154.697 111.122C164.687 111.122 171.846 108.269 175.38 102.719C175.962 101.805 176.436 100.836 176.802 99.8103H171.71C171.626 99.9629 171.535 100.116 171.441 100.263C168.817 104.386 162.948 106.517 154.709 106.515C150.769 106.515 146.282 106.029 141.353 105.038C137.056 104.175 132.549 102.964 127.903 101.44C129.129 98.405 130.321 95.3124 131.472 92.1716C134.577 83.7051 137.234 75.3115 139.384 67.2514C149.181 68.6799 159.697 69.3983 170.871 69.3983C177.829 69.3983 185.041 69.1213 192.493 68.5654C193.6 73.8714 194.158 79.3017 194.158 84.815C194.157 95.5596 192.045 105.981 187.867 115.799ZM81.7661 157.845C79.2887 156.956 78.0325 153.44 77.4136 150.646C76.4357 146.231 76.2596 140.031 76.902 132.714C77.2274 129.014 77.7507 125.079 78.4535 120.964C88.606 123.64 98.6596 127.083 108.448 131.231C106.243 134.992 104.013 138.48 101.784 141.64C97.5358 147.663 93.3829 152.31 89.7717 155.079C87.4873 156.833 84.2434 158.734 81.7661 157.845ZM110.692 127.294C100.446 122.925 89.9109 119.317 79.2703 116.529C79.646 114.62 80.0569 112.675 80.5031 110.703C83.4618 111.368 86.4624 112.012 89.5017 112.632C98.3929 114.431 107.262 115.959 115.946 117.193C114.225 120.715 112.47 124.088 110.692 127.294ZM91.4607 109.447C88.0257 108.748 84.6393 108.016 81.3132 107.258C82.8798 100.811 84.8036 94.0896 87.0495 87.2407C98.7267 94.3418 110.602 100.117 121.846 104.215C120.436 107.547 118.986 110.795 117.507 113.938C108.965 112.728 100.228 111.225 91.4607 109.447ZM62.9404 22.4199C63.6834 23.9281 64.7116 25.7962 66.097 27.915C72.001 36.939 79.797 43.481 85.2984 47.3799C88.4567 49.6181 91.828 51.6937 95.4006 53.6017C92.14 60.6315 89.0337 68.1324 86.1773 75.9221C85.6456 77.3738 85.1273 78.8239 84.6208 80.2706C67.5613 69.2872 53.1199 56.6827 43.645 44.4847C43.6433 44.4831 43.6417 44.4814 43.6417 44.4798C46.0133 40.4763 48.7339 36.6901 51.7798 33.1379C53.0428 31.6729 54.3477 30.2527 55.7197 28.8739C55.916 28.6798 56.0904 28.5073 56.285 28.3148C58.4034 26.221 60.6257 24.2566 62.9404 22.4199ZM135.883 10.2485C138.361 11.1378 139.617 14.6535 140.236 17.4475C141.214 21.8624 141.39 28.0626 140.747 35.3794C140.043 43.3881 138.423 52.4834 136.009 62.1695C133.096 61.6734 130.249 61.1126 127.477 60.4821C117.901 58.3037 109.171 55.3239 101.375 51.5809C106.026 41.9844 110.946 33.4266 115.865 26.4516C120.114 20.4289 124.266 15.7817 127.878 13.0126C129.761 11.5675 132.297 10.0212 134.518 10.0212C134.991 10.0228 135.449 10.0925 135.883 10.2485ZM126.148 64.7892C128.986 65.4413 131.9 66.0187 134.88 66.533C132.787 74.326 130.207 82.4441 127.202 90.6402C126.043 93.7992 124.843 96.9085 123.611 99.958C112.323 95.8582 100.342 89.9948 88.5624 82.7511C89.1712 80.9907 89.7985 79.2254 90.4476 77.4551C93.2403 69.8413 96.2695 62.5113 99.4462 55.6491C107.454 59.4867 116.382 62.5461 126.148 64.7892ZM170.495 28.3165C177.917 35.6581 183.751 44.206 187.822 53.7245C189.273 57.124 190.477 60.5999 191.433 64.1356C172.817 65.4828 155.757 65.0597 140.508 62.8763C142.928 53.0957 144.556 43.8958 145.271 35.7693C146.059 26.795 145.964 16.1666 142.285 10.1838C143.137 10.5073 143.988 10.8458 144.832 11.1992C154.454 15.2242 163.095 20.9731 170.495 28.3165ZM113.401 4.91104C118.997 4.91104 124.498 5.46851 129.877 6.5735C123.532 9.30609 117.054 16.9099 112.138 23.8816C107.106 31.0175 102.08 39.7512 97.3345 49.5269C94.1326 47.8063 91.1035 45.9464 88.2588 43.9505C78.8208 37.3272 73.165 30.3904 70.0839 25.7382C68.4485 23.2677 67.3449 21.1639 66.6421 19.6541C69.9547 17.323 73.4384 15.2408 77.0815 13.4241C77.0831 13.4241 77.0831 13.4241 77.0848 13.4257C78.5675 12.6858 80.0804 11.9922 81.6135 11.3435C81.7242 11.2971 81.8349 11.2473 81.9472 11.2008C81.9724 11.1892 81.9992 11.1793 82.0244 11.1693C82.3514 11.0316 82.6802 10.8989 83.0106 10.7678C83.0995 10.733 83.1884 10.6981 83.2756 10.6633C92.8311 6.84891 102.975 4.91104 113.401 4.91104ZM34.4972 14.909C37.1221 10.786 42.9909 8.65737 51.2297 8.65737C55.1696 8.65737 59.6563 9.1435 64.5858 10.134C66.4576 10.509 68.3697 10.9503 70.3137 11.458C70.3153 11.458 70.317 11.4596 70.3187 11.4596C63.9216 15.1197 58.0461 19.5977 52.7576 24.8489C51.6473 25.9257 50.5805 27.0456 49.5356 28.207C48.229 29.6288 46.9895 31.1138 45.7919 32.6203C43.8765 35.031 42.1137 37.5512 40.48 40.1345C40.4783 40.1362 40.4767 40.1395 40.4767 40.1411C33.1973 29.4513 31.0084 20.3841 34.4972 14.909ZM38.9587 53.7228C39.6766 52.0869 40.4163 50.4709 41.223 48.8997C41.223 48.8981 41.2247 48.8964 41.2247 48.8964C51.2011 61.2304 65.9058 73.8398 83.0861 84.7769C80.6507 92.1119 78.5709 99.3192 76.8936 106.226C64.3946 103.235 52.8096 99.8501 42.6588 96.2266C40.5253 95.4733 38.4572 94.6985 36.4764 93.922C35.3006 93.4691 34.1466 92.9962 33.0161 92.5234C32.8417 90.8012 32.7109 89.0574 32.6673 87.312C32.6455 86.4725 32.6237 85.6545 32.6237 84.815C32.6237 83.8461 32.6455 82.8556 32.6673 81.8866C32.9507 74.6312 34.1902 67.5467 36.3673 60.6995C36.738 59.5364 37.1288 58.3949 37.5649 57.2551C38.001 56.0705 38.4572 54.8859 38.9587 53.7228ZM24.3966 88.6908C8.96405 81.2412 1.91112 74.0489 5.06774 68.947C7.61384 64.8125 16.8875 62.0135 31.0789 60.9799C29.3379 66.7935 28.2711 72.8012 27.8568 78.8936C27.726 80.702 27.6606 82.5105 27.6388 84.3405V84.815C27.6388 86.645 27.7042 88.4751 27.8132 90.2835C26.6375 89.7675 25.507 89.2283 24.3966 88.6908ZM36.1074 97.8409C38.1972 98.6157 40.3307 99.3905 42.528 100.145C52.6335 103.61 63.9635 106.828 76.0801 109.685C75.6407 111.628 75.2348 113.541 74.8608 115.426C73.8712 115.189 72.8799 114.957 71.8886 114.733C55.136 110.961 42.5632 110.193 36.7363 110.064C35.2922 105.763 34.2322 101.363 33.5596 96.8736C34.4083 97.1955 35.2587 97.519 36.1074 97.8409ZM38.9587 115.907C38.7776 115.479 38.5998 115.051 38.4254 114.621C44.6413 114.869 56.1625 115.801 70.8823 119.114C71.9356 119.352 72.9872 119.6 74.0406 119.854C73.2824 124.224 72.7239 128.402 72.3784 132.326C71.7243 139.764 71.679 148.338 73.7756 154.462C67.3919 150.908 61.5399 146.51 56.2866 141.314C48.863 133.972 43.0295 125.424 38.9587 115.907ZM144.833 158.433C134.863 162.61 124.307 164.719 113.401 164.719C105 164.719 96.7928 163.465 88.9096 160.981C94.884 157.883 100.887 150.769 105.511 144.214C107.896 140.832 110.278 137.091 112.631 133.051C126.195 139.127 139.236 146.591 151.489 155.288C149.327 156.43 147.108 157.48 144.833 158.433ZM170.495 141.314C166.031 145.742 161.115 149.591 155.804 152.831C142.935 143.527 129.184 135.563 114.859 129.117C116.828 125.548 118.768 121.777 120.664 117.842C133.777 119.561 146.381 120.593 157.891 120.858C160.895 120.944 163.812 120.944 166.641 120.923C173.976 120.837 180.507 120.407 186.101 119.63C182.184 127.662 176.94 134.941 170.495 141.314Z" fill="#C74A2E"/>
<path d="M372.357 91.3802C372.357 91.3802 388.504 107.1 389.244 113.027C389.983 118.953 381.919 128.228 381.919 128.228L372.357 91.3802Z" fill="#A0301D"/>
<path d="M366.53 254.651C366.53 254.651 366.007 263.008 364.371 263.127C364.153 263.144 356.082 263.144 356.082 263.144L345.777 263.084C345.777 263.084 345.844 260.629 348.857 260.109C351.869 259.59 356.911 257.496 358.736 253.557C360.655 249.414 366.53 254.651 366.53 254.651Z" fill="#163560"/>
<path d="M389.482 254.651C389.482 254.651 388.959 263.008 387.323 263.127C387.105 263.144 379.034 263.144 379.034 263.144L368.729 263.084C368.729 263.084 368.796 260.629 371.809 260.109C374.821 259.59 379.863 257.496 381.688 253.557C383.606 249.414 389.482 254.651 389.482 254.651Z" fill="#163560"/>
<path d="M355.116 164.837C355.116 164.837 357.812 181.888 367.865 212.155C377.919 242.423 379.289 255.53 379.289 255.53L390.074 255.231C390.074 255.231 390.166 222.152 385.532 206.931C380.899 191.71 384.532 152.058 384.532 152.058L355.116 164.837Z" fill="#163560"/>
<path d="M349.868 152.994C349.868 152.994 349.486 178.689 353.981 210.237C358.476 241.786 356.951 255.178 356.951 255.178L367.716 255.532C367.716 255.532 374.148 223.972 372.305 208.182C370.46 192.392 381.114 153.996 381.114 153.996L349.868 152.994Z" fill="#1C468A"/>
<path d="M370.707 92.8651L365.629 96.5848L358.291 95.0568C358.394 94.3948 358.877 91.6522 359.318 89.1668C359.345 89.0208 359.372 88.8732 359.397 88.7305C359.774 86.6167 360.101 84.8 360.101 84.8L366.955 81.422L369.509 80.1627C369.502 80.2075 369.311 82.5087 369.284 82.8455C368.805 88.8118 370.707 92.8651 370.707 92.8651Z" fill="#F6AEA6"/>
<path d="M358.805 90.9886C358.966 90.9223 368.786 88.0553 369.853 88.4037C370.92 88.7521 371.552 90.7945 371.552 90.7945L355.489 94.3865C355.489 94.3849 356.753 91.8431 358.805 90.9886Z" fill="#A0301D"/>
<path d="M385.249 156.166C383.585 163.677 355.881 164.568 348.741 157.751C347.929 156.974 347.889 153.357 348.196 148.483C348.795 138.958 350.719 124.629 350.794 117.309C350.831 113.774 351.322 110.158 351.976 106.875C353.369 99.8767 355.49 94.3866 355.49 94.3866C355.49 94.3866 369.021 90.0595 371.554 90.7962C383.749 94.3385 386.914 148.654 385.249 156.166Z" fill="#C74A2E"/>
<path d="M348.194 148.481C348.793 138.956 350.717 124.628 350.792 117.308C350.829 113.772 351.321 110.157 351.975 106.873L360.115 105.453C360.115 105.453 368.073 137.605 348.194 148.481Z" fill="#A0301D"/>
<path d="M352.602 135.205C352.602 135.205 353.157 136.517 351.992 137.398C350.826 138.279 350.071 139.706 350.338 140.748C350.604 141.79 353.161 143.492 354.046 143.218C354.932 142.944 356.735 141.571 356.542 141.02C356.347 140.471 357.755 136.193 355.594 134.546C353.434 132.9 352.602 135.205 352.602 135.205Z" fill="#F6AEA6"/>
<path d="M361.688 92.7175C361.688 92.7175 353.766 93.927 347.441 103.147C341.116 112.367 336.955 119.222 338.12 122.545C339.286 125.869 349.907 137.395 351.738 137.395C353.57 137.395 356.524 136.077 356.691 133.114C356.691 133.114 349.214 122.028 350.687 120.369C351.316 119.659 360.395 112.368 361.691 115.662C363.833 121.11 361.688 92.7175 361.688 92.7175Z" fill="#C74A2E"/>
<path d="M368.769 82.9501C367.265 85.7988 361.656 88.2626 359.318 89.1669C359.345 89.0209 359.372 88.8732 359.397 88.7305C359.774 86.6168 360.101 84.8 360.101 84.8L366.955 81.422C368.469 81.3988 369.392 81.7771 368.769 82.9501Z" fill="#FCA56B"/>
<path d="M356.772 84.4035C356.772 84.4035 369.135 88.2178 371.418 80.5659C373.7 72.914 376.834 68.2518 369.038 65.4927C361.24 62.7335 358.828 65.204 357.438 67.5749C356.047 69.9458 353.613 83.2139 356.772 84.4035Z" fill="#F6AEA6"/>
<path d="M359.377 67.1286C359.377 67.1286 360.089 76.3153 361.96 75.9005C363.828 75.4857 365.524 75.1754 365.227 77.9495C364.93 80.7236 362.317 83.9456 368.063 84.3869C373.81 84.8283 382.203 69.6488 380.646 66.8001C376.158 58.5841 352.872 57.1141 359.377 67.1286Z" fill="#163560"/>
<path d="M446.62 151.098C446.62 151.098 441.878 152.302 438.864 151.404C435.85 150.507 430.662 151.982 429.825 153.069C428.99 154.155 429.297 154.588 430.788 154.963C432.279 155.338 437.561 157.566 441.033 156.277C444.505 154.988 449.032 154.94 449.032 154.94L446.62 151.098Z" fill="#F6AEA6"/>
<path d="M487.602 110.349C487.602 110.349 482.275 147.801 473.455 151.156C469.102 152.811 449.867 156.563 444.176 156.939C444.176 156.939 442.782 155.821 443.121 151.268C443.121 151.268 463.274 143.95 466.137 139.97C470.397 134.047 463.492 115.77 468.839 110.206C474.186 104.643 483.191 102.253 487.602 110.349Z" fill="#E58E13"/>
<path d="M486.921 254.724V246.488H499.917C500.267 246.488 500.554 246.204 500.554 245.857V244.55C500.554 244.203 500.267 243.92 499.917 243.92H486.921V197.437C486.921 196.133 485.843 195.066 484.525 195.066H481.953C480.635 195.066 479.557 196.133 479.557 197.437V243.92H466.561C466.21 243.92 465.924 244.203 465.924 244.55V245.857C465.924 246.204 466.21 246.488 466.561 246.488H479.557V254.724C470.152 255.427 462.619 258.777 460.506 263.104H505.974C503.859 258.777 496.326 255.427 486.921 254.724Z" fill="#699DEE"/>
<path d="M485.808 189.253C484.255 191.861 482.457 194.303 480.605 196.618C474.879 203.767 468.648 209.662 467.561 215.235C467.344 216.345 467.002 217.541 466.554 218.802C466.101 220.078 465.541 221.42 464.894 222.807C462.465 228.027 458.83 233.877 455.204 239.194C448.933 248.386 443.036 256.056 443.036 256.056L432.222 255.6C432.655 254.528 437.371 241.836 443.681 226.326C446.244 220.03 448.968 213.332 451.596 206.874C451.947 206.012 452.297 205.152 452.643 204.301C453.446 202.325 454.238 200.379 455.01 198.484C460.934 183.92 465.654 172.324 465.654 172.324C465.654 172.324 489.333 163.451 491.792 169.2C493.818 173.942 492.166 178.586 485.808 189.253Z" fill="#163560"/>
<path d="M442.697 254.11C442.697 254.11 442.167 262.98 440.441 263.106C440.211 263.122 420.691 263.106 420.691 263.106C420.691 263.106 420.847 260.423 424.029 259.875C427.21 259.326 432.536 257.115 434.463 252.955C436.491 248.58 442.697 254.11 442.697 254.11Z" fill="#163560"/>
<path d="M467.738 228.893C467.738 228.893 475.261 233.674 474.53 235.227C474.432 235.435 470.276 242.798 470.276 242.798L464.916 252.169C464.916 252.169 462.66 250.843 463.728 247.827C464.797 244.81 465.439 239.133 462.707 235.441C459.83 231.556 467.738 228.893 467.738 228.893Z" fill="#163560"/>
<path d="M457.749 168.011C457.749 168.011 427.839 186.425 424.52 198.733C421.203 211.04 464.057 237.296 464.057 237.296C464.057 237.296 468.757 233.193 469.587 230.185C469.587 230.185 450.216 207.228 446.014 202.083C443.433 198.922 484.172 191.142 489.149 183.484C494.125 175.825 492.344 169.383 492.344 169.383L457.749 168.011Z" fill="#1C468A"/>
<path d="M513.654 191.63H452.824C451.608 191.63 450.612 192.616 450.612 193.819V205.852C450.612 207.055 451.606 208.041 452.824 208.041H513.654C514.87 208.041 515.866 207.057 515.866 205.852V193.819C515.866 192.614 514.87 191.63 513.654 191.63Z" fill="#CC7F31"/>
<path d="M485.7 103.283C485.7 103.283 473.897 109.81 466.776 107.988C466.776 107.988 468.386 105.719 471.304 103.93C471.148 103.245 471.012 102.599 470.895 101.999C470.214 98.5594 470.092 96.5584 470.092 96.5584L475.529 91.7386C477.034 92.0539 478.439 92.3492 479.186 92.5052C479.256 92.8602 479.333 93.2053 479.421 93.5438C481.118 100.237 485.7 103.283 485.7 103.283Z" fill="#F6AEA6"/>
<path d="M493.241 137.186C492.222 150.756 493.563 171.392 492.406 174.966C491.406 178.05 480.029 176.217 475.487 175.188C473.807 174.807 471.771 174.262 469.669 173.619C463.804 171.822 457.411 169.257 456.725 167.352C456.7 167.277 456.677 167.204 456.663 167.133C456.663 167.131 456.663 167.13 456.663 167.13C456.652 167.082 456.643 167.034 456.637 166.987C456.606 166.763 456.625 166.551 456.675 166.335C456.903 165.364 457.784 164.314 457.888 161.91C458.004 159.227 457.987 156.067 458.089 152.669C458.094 152.285 458.099 151.867 458.141 151.487L458.143 151.348C458.144 151.275 458.146 151.204 458.148 151.131C458.247 147.341 458.448 143.356 458.679 139.406C458.827 136.924 458.998 134.465 459.194 132.11C459.706 126.031 460.395 120.626 461.308 117.21C462.799 111.638 466.086 108.005 469.08 105.342L471.244 103.505C473.659 104.028 476.516 103.681 479.099 102.47C481.893 101.158 482.859 100.217 483.345 100.572C489.801 105.5 494.446 120.598 493.241 137.186Z" fill="#CC7F31"/>
<path d="M469.669 173.619C463.804 171.822 457.411 169.257 456.725 167.352C456.7 167.277 456.677 167.204 456.663 167.133C456.663 167.131 456.663 167.13 456.663 167.13C456.663 167.083 456.653 167.035 456.637 166.987C456.606 166.763 456.625 166.551 456.675 166.335C456.903 165.364 457.784 164.314 457.888 161.91C458.004 159.227 457.987 156.067 458.089 152.669C458.094 152.285 458.099 151.867 458.141 151.487L458.143 151.348C458.144 151.275 458.146 151.204 458.148 151.131L480.305 141.191C480.305 141.191 481.581 158.854 469.669 173.619Z" fill="#E58E13"/>
<path d="M479.421 93.5438C478.616 95.5563 476.205 100.301 470.895 101.999C470.214 98.5594 470.092 96.5584 470.092 96.5584L475.529 91.7386C477.034 92.0539 478.439 92.3492 479.186 92.5052C479.256 92.8602 479.333 93.2053 479.421 93.5438Z" fill="#D68D5D"/>
<path d="M467.941 96.507C467.941 96.507 479.61 97.8094 480.318 90.6088C481.026 83.4081 483.008 78.7277 475.588 77.5912C468.168 76.4563 466.449 79.0645 465.622 81.4105C464.793 83.7565 464.924 95.9827 467.941 96.507Z" fill="#F6AEA6"/>
<path d="M480.268 91.1049C480.268 91.1049 479.528 81.5466 468.906 80.5577C461.63 79.8792 465.687 73.6856 466.462 72.6984C466.462 72.6984 472.036 73.455 477.75 74.3874C489.741 76.3469 481.445 89.6166 480.268 91.1049Z" fill="#2B478B"/>
<path d="M452.23 158.441L423.316 159.051L415.096 134.027L414.074 134.355L422.764 160.81L452.267 160.188L452.23 158.441Z" fill="#4A75CB"/>
<path d="M449.06 156.855C449.06 156.855 444.481 158.569 441.385 158.004C438.289 157.44 433.297 159.473 432.588 160.644C431.878 161.816 432.232 162.212 433.755 162.423C435.278 162.633 440.776 164.273 444.084 162.612C447.39 160.951 451.885 160.41 451.885 160.41L449.06 156.855Z" fill="#F6AEA6"/>
<path d="M485.251 111.887C485.251 111.887 484.13 149.692 475.737 153.988C471.596 156.108 452.896 161.935 447.282 162.929C447.282 162.929 445.773 161.97 445.602 157.407C445.602 157.407 464.817 147.935 467.218 143.668C470.793 137.315 461.893 119.904 466.586 113.792C471.281 107.678 479.966 104.32 485.251 111.887Z" fill="#CC7F31"/>
<path d="M168.664 115.147L156.807 254.606C156.807 254.606 155.564 263.059 161.921 263.074C172.374 263.099 213.945 263.074 213.945 263.074C213.945 263.074 206.079 261.314 206.174 257.355C206.287 252.688 220.032 113.827 220.032 113.827L168.664 115.147Z" fill="#D86713"/>
<path d="M217.318 260.546C215.262 260.552 175.557 260.675 165.378 260.546C160.942 260.491 160.165 256.645 160.128 254.155C160.11 252.962 160.262 252.079 160.262 252.079L160.571 248.454L161.358 239.216L162.052 231.053L162.944 220.564L163.696 211.711L172.121 112.616L223.489 111.297C223.489 111.297 217.699 169.409 213.605 211.711C213.147 216.424 212.712 220.944 212.31 225.161C212.179 226.509 212.055 227.824 211.933 229.107C211.553 233.109 211.206 236.784 210.904 240.029C210.745 241.739 210.597 243.329 210.465 244.784C209.942 250.488 209.636 254.132 209.631 254.823C209.63 255.227 209.663 255.603 209.732 255.952C210.572 260.4 216.547 260.546 217.318 260.546Z" fill="#EE9849"/>
<path d="M43.9134 39.2585L72.796 154.018L76.751 169.733L90.2028 223.184H340.113L290.533 39.2585H43.9134Z" fill="#CC7F31"/>
<path d="M43.9134 39.2585L39.9114 40.5792L84.8808 227.177L90.2028 223.185L43.9134 39.2585Z" fill="#EE9849"/>
<path d="M84.8808 227.177H333.255L340.113 223.185H90.2028L84.8808 227.177Z" fill="#D86713"/>
<path d="M225.879 260.6H172.102V263.129H225.879V260.6Z" fill="#F1A34F"/>
<path d="M328.007 189.292L287.455 41.6908H43.5142V39.2585H290.533L330.949 188.966L328.007 189.292Z" fill="#F1A34F"/>
<path d="M212.208 227.176L211.931 229.108L161.356 239.214L162.05 231.053L162.381 227.176H212.208Z" fill="#D86713"/>
<path opacity="0.4" d="M217.318 260.546C215.262 260.552 175.557 260.675 165.378 260.546C160.942 260.491 160.165 256.645 160.128 254.155L210.463 244.787C209.94 250.491 209.635 254.135 209.63 254.827C209.628 255.23 209.661 255.607 209.73 255.955C210.572 260.4 216.547 260.546 217.318 260.546Z" fill="#CC7F31"/>
<path opacity="0.4" d="M199.985 185.951L90.2027 223.185L76.751 169.733L199.985 185.951Z" fill="#D86713"/>
<path d="M43.9134 39.2585H290.533L330.548 187.078H79.8456L43.9134 39.2585Z" fill="#699DEE"/>
<path d="M220.548 210.613C222.782 208.177 222.17 204.026 219.18 201.342C216.19 198.658 211.954 198.457 209.72 200.893C207.485 203.328 208.097 207.479 211.087 210.163C214.077 212.847 218.313 213.049 220.548 210.613Z" fill="#D86713"/>
<path d="M318.916 180.672H88.0055L61.8552 77.6244L59.8508 69.7219L58.14 62.9825L54.1296 47.1776H281.712L286.115 62.9825L287.993 69.7219L290.196 77.6244L318.916 180.672Z" fill="#E9F3FE"/>
<path d="M286.115 62.9825H58.14L54.1296 47.1776H281.712L286.115 62.9825Z" fill="#AFCDFB"/>
<path d="M65.0437 52.3441C63.94 52.3441 63.2691 53.2284 63.5442 54.3201C63.8193 55.4118 64.9363 56.2961 66.04 56.2961C67.1436 56.2961 67.8145 55.4118 67.5395 54.3201C67.2644 53.2284 66.1473 52.3441 65.0437 52.3441Z" fill="#E9F3FE"/>
<path d="M71.6806 52.3441C70.577 52.3441 69.906 53.2284 70.1811 54.3201C70.4562 55.4118 71.5733 56.2961 72.6769 56.2961C73.7805 56.2961 74.4515 55.4118 74.1764 54.3201C73.8996 53.2284 72.7826 52.3441 71.6806 52.3441Z" fill="#E9F3FE"/>
<path d="M81.3216 54.3201C81.0465 53.2284 79.9294 52.3441 78.8258 52.3441C77.7222 52.3441 77.0512 53.2284 77.3263 54.3201C77.6014 55.4118 78.7184 56.2961 79.8221 56.2961C80.9257 56.2961 81.5966 55.4101 81.3216 54.3201Z" fill="#E9F3FE"/>
<path d="M246.563 109.148C244.896 102.535 238.095 97.1524 231.402 97.1524C228.175 97.1524 225.425 98.3835 223.658 100.62C221.818 102.949 221.267 106.06 222.104 109.382C223.771 115.995 230.572 121.377 237.264 121.377C240.491 121.377 243.242 120.146 245.008 117.91C246.848 115.58 247.4 112.468 246.563 109.148ZM244.235 117.313C242.658 119.309 240.183 120.409 237.264 120.409C230.993 120.409 224.619 115.356 223.055 109.148C222.293 106.123 222.781 103.308 224.432 101.217C226.008 99.2213 228.484 98.1213 231.404 98.1213C237.675 98.1213 244.049 103.173 245.614 109.382C246.375 112.406 245.886 115.224 244.235 117.313Z" fill="#F1A34F"/>
<path d="M235.872 111.973L234.653 103.542L234.557 103.16H231.124L231.221 103.542L234.252 111.973H235.872Z" fill="#F1A34F"/>
<path d="M233.875 113.462L234.644 116.513H237.768L236.999 113.462H233.875Z" fill="#F1A34F"/>
<path d="M254.017 137.791C252.35 131.178 245.548 125.796 238.856 125.796C235.629 125.796 232.878 127.027 231.112 129.263C229.272 131.593 228.72 134.704 229.557 138.025C231.224 144.639 238.026 150.021 244.718 150.021C247.945 150.021 250.696 148.79 252.462 146.553C254.302 144.224 254.854 141.111 254.017 137.791ZM251.691 145.956C250.114 147.952 247.638 149.052 244.718 149.052C238.447 149.052 232.073 144 230.508 137.791C229.747 134.767 230.235 131.951 231.885 129.861C233.462 127.865 235.938 126.765 238.856 126.765C245.127 126.765 251.501 131.817 253.066 138.025C253.829 141.051 253.341 143.867 251.691 145.956Z" fill="#F1A34F"/>
<path d="M243.326 140.617L242.107 132.187L242.011 131.805H238.579L238.675 132.187L241.706 140.617H243.326Z" fill="#F1A34F"/>
<path d="M241.328 142.105L242.098 145.158H245.223L244.453 142.105H241.328Z" fill="#F1A34F"/>
<path d="M279.57 105.465C280.328 105.465 280.795 104.851 280.607 104.099C280.417 103.349 279.642 102.734 278.883 102.734H254.309C253.551 102.734 253.084 103.348 253.272 104.099C253.462 104.849 254.237 105.465 254.996 105.465H279.57Z" fill="#AFCDFB"/>
<path d="M276.529 86.076C276.34 85.3261 275.565 84.7105 274.805 84.7105H250.231C249.473 84.7105 249.007 85.3244 249.195 86.076C249.384 86.8259 250.159 87.4415 250.919 87.4415H275.493C276.251 87.4398 276.717 86.8259 276.529 86.076Z" fill="#AFCDFB"/>
<path d="M280.882 110.664C281.642 110.664 282.106 110.051 281.918 109.299C281.729 108.549 280.954 107.933 280.194 107.933H255.62C254.862 107.933 254.396 108.547 254.584 109.299C254.773 110.049 255.548 110.664 256.308 110.664H280.882Z" fill="#AFCDFB"/>
<path d="M283.227 114.5C283.037 113.75 282.262 113.135 281.502 113.135H256.929C256.171 113.135 255.704 113.749 255.892 114.5C256.082 115.25 256.857 115.866 257.616 115.866H282.19C282.95 115.864 283.416 115.25 283.227 114.5Z" fill="#AFCDFB"/>
<path d="M287.024 134.11C287.782 134.11 288.248 133.496 288.061 132.744C287.871 131.994 287.096 131.379 286.336 131.379H261.763C261.004 131.379 260.538 131.993 260.726 132.744C260.914 133.496 261.69 134.11 262.45 134.11H287.024Z" fill="#AFCDFB"/>
<path d="M288.336 139.309C289.094 139.309 289.56 138.696 289.372 137.944C289.184 137.192 288.408 136.578 287.648 136.578H263.074C262.316 136.578 261.85 137.192 262.038 137.944C262.227 138.694 263.002 139.309 263.762 139.309H288.336Z" fill="#AFCDFB"/>
<path d="M290.682 143.144C290.493 142.394 289.718 141.778 288.958 141.778H264.384C263.626 141.778 263.16 142.392 263.348 143.144C263.537 143.895 264.312 144.509 265.072 144.509H289.646C290.405 144.507 290.87 143.894 290.682 143.144Z" fill="#AFCDFB"/>
<path d="M275.495 80.3371L273.779 73.5329C273.464 72.2853 272.175 71.2632 270.914 71.2632H73.9503C72.689 71.2632 71.9141 72.2836 72.2277 73.5329L73.9436 80.3371C74.2589 81.5847 75.547 82.6051 76.81 82.6051H273.772C275.034 82.6068 275.808 81.5847 275.495 80.3371Z" fill="#AFCDFB"/>
<path d="M213.575 71.2632L216.434 82.6051H76.8098C75.5484 82.6051 74.2586 81.5847 73.9433 80.3354L72.2274 73.5313C71.9121 72.2836 72.687 71.2632 73.95 71.2632H213.575Z" fill="#CC7F31"/>
<path d="M238.656 74.8487L238.876 75.7214H241.055L239.918 79.4362H241.07L242.185 75.6086L241.994 74.8487H238.656Z" fill="#699DEE"/>
<path d="M244.604 74.7707C243.371 74.7707 242.799 75.8126 243.135 77.1433C243.474 78.4872 244.547 79.5158 245.787 79.5158C247.024 79.5158 247.59 78.4739 247.256 77.1433C246.915 75.7994 245.829 74.7707 244.604 74.7707ZM245.57 78.6033C244.955 78.6033 244.393 77.9811 244.181 77.1416C243.967 76.2905 244.21 75.6799 244.82 75.6799C245.429 75.6799 246 76.3087 246.209 77.1416C246.421 77.9878 246.186 78.6033 245.57 78.6033Z" fill="#699DEE"/>
<path d="M253.331 78.3146C253.167 77.6592 252.585 77.1416 251.915 77.1416C251.239 77.1416 250.914 77.6659 251.078 78.3146C251.243 78.9699 251.825 79.4876 252.494 79.4876C253.17 79.4876 253.494 78.9567 253.331 78.3146ZM252.358 78.892C252.093 78.892 251.853 78.6232 251.776 78.3146C251.697 77.9993 251.776 77.7372 252.055 77.7372C252.32 77.7372 252.559 78.006 252.637 78.3146C252.714 78.6232 252.635 78.892 252.358 78.892Z" fill="#699DEE"/>
<path d="M251.206 74.8487L248.977 79.4362H249.765L251.994 74.8487H251.206Z" fill="#699DEE"/>
<path d="M249.893 75.9702C249.728 75.3149 249.146 74.7972 248.477 74.7972C247.801 74.7972 247.477 75.3215 247.64 75.9702C247.804 76.6256 248.386 77.1432 249.056 77.1432C249.731 77.1416 250.054 76.6123 249.893 75.9702ZM248.336 75.9702C248.257 75.655 248.336 75.3928 248.614 75.3928C248.879 75.3928 249.119 75.6616 249.196 75.9702C249.274 76.2788 249.196 76.5476 248.918 76.5476C248.653 76.5459 248.413 76.2772 248.336 75.9702Z" fill="#699DEE"/>
<path d="M204.346 131.767C205.777 131.767 206.647 130.619 206.292 129.204C205.935 127.788 204.485 126.64 203.055 126.64H88.2068C86.7761 126.64 85.9056 127.788 86.2611 129.204C86.6184 130.619 88.0676 131.767 89.4983 131.767H204.346Z" fill="#AFCDFB"/>
<path d="M206.491 140.277C207.922 140.277 208.793 139.129 208.437 137.713C208.082 136.298 206.631 135.15 205.2 135.15H90.3504C88.9196 135.15 88.0491 136.298 88.4047 137.713C88.7603 139.129 90.2112 140.277 91.6419 140.277H206.491Z" fill="#AFCDFB"/>
<path d="M210.676 146.6C210.319 145.184 208.87 144.036 207.439 144.036H92.5912C91.1605 144.036 90.29 145.184 90.6456 146.6C91.0028 148.015 92.452 149.163 93.8827 149.163H208.732C210.163 149.163 211.034 148.015 210.676 146.6Z" fill="#AFCDFB"/>
<path d="M141.499 117.938C141.947 119.717 143.768 121.16 145.568 121.16H158.377C160.175 121.16 161.27 119.718 160.821 117.938L154.628 93.3729C154.181 91.5943 152.359 90.1509 150.559 90.1509H137.75C135.952 90.1509 134.857 91.5927 135.306 93.3729L141.499 117.938Z" fill="#AFCDFB"/>
<path d="M163.671 117.938C164.118 119.717 165.94 121.16 167.74 121.16H180.549C182.347 121.16 183.442 119.718 182.993 117.938L176.8 93.3729C176.353 91.5943 174.531 90.1509 172.731 90.1509H159.922C158.124 90.1509 157.029 91.5927 157.478 93.3729L163.671 117.938Z" fill="#AFCDFB"/>
<path d="M185.428 117.938C185.876 119.717 187.698 121.16 189.497 121.16H202.307C204.105 121.16 205.2 119.718 204.75 117.938L198.558 93.3729C198.11 91.5943 196.289 90.1509 194.489 90.1509H181.68C179.881 90.1509 178.786 91.5927 179.236 93.3729L185.428 117.938Z" fill="#AFCDFB"/>
<path d="M137.156 115.76L132.062 95.5497C131.311 92.5682 128.258 90.1509 125.243 90.1509H81.8751C78.861 90.1509 77.0261 92.5682 77.7775 95.5497L82.8714 115.76C83.6228 118.741 86.6754 121.158 89.6912 121.158H133.059C136.074 121.158 137.908 118.741 137.156 115.76Z" fill="#AFCDFB"/>
<path d="M124.696 97.9024C125.379 97.9024 125.799 97.3499 125.628 96.6729C125.457 95.9977 124.76 95.4435 124.077 95.4435H83.554C82.8714 95.4435 82.4504 95.996 82.6215 96.6729C82.7925 97.3482 83.4903 97.9024 84.1729 97.9024H124.696Z" fill="#FFF8EA"/>
<path d="M125.888 102.629C126.571 102.629 126.992 102.077 126.821 101.4C126.65 100.725 125.952 100.17 125.269 100.17H84.7466C84.0639 100.17 83.6429 100.723 83.814 101.4C83.9851 102.075 84.6828 102.629 85.3655 102.629H125.888Z" fill="#FFF8EA"/>
<path d="M128.012 106.127C127.841 105.451 127.143 104.897 126.46 104.897H85.9374C85.2548 104.897 84.8338 105.45 85.0049 106.127C85.176 106.802 85.8737 107.356 86.5564 107.356H127.079C127.764 107.356 128.183 106.804 128.012 106.127Z" fill="#FFF8EA"/>
<path d="M96.833 110.192H87.2726C86.5899 110.192 86.1689 110.744 86.34 111.421C86.5111 112.096 87.2088 112.65 87.8915 112.65H97.4519C98.1346 112.65 98.5556 112.098 98.3845 111.421C98.2134 110.746 97.5157 110.192 96.833 110.192Z" fill="#FFF8EA"/>
<path d="M306.123 169.72L303.451 159.119C303.057 157.555 301.455 156.287 299.875 156.287H277.128C275.546 156.287 274.585 157.555 274.98 159.119L277.651 169.72C278.046 171.284 279.647 172.552 281.229 172.552H303.976C305.556 172.552 306.517 171.284 306.123 169.72Z" fill="#AFCDFB"/>
<path d="M299.588 160.353C299.947 160.353 300.167 160.063 300.078 159.708C299.989 159.353 299.622 159.065 299.265 159.065H278.01C277.651 159.065 277.432 159.355 277.521 159.708C277.609 160.063 277.977 160.353 278.334 160.353H299.588Z" fill="#FFF8EA"/>
<path d="M300.212 162.832C300.571 162.832 300.791 162.542 300.702 162.187C300.613 161.832 300.246 161.542 299.889 161.542H278.634C278.275 161.542 278.056 161.832 278.145 162.187C278.233 162.542 278.601 162.832 278.958 162.832H300.212Z" fill="#FFF8EA"/>
<path d="M301.326 164.667C301.237 164.312 300.87 164.022 300.513 164.022H279.258C278.899 164.022 278.68 164.312 278.768 164.667C278.857 165.022 279.225 165.311 279.582 165.311H300.836C301.195 165.311 301.417 165.022 301.326 164.667Z" fill="#FFF8EA"/>
<path d="M284.973 166.8H279.958C279.599 166.8 279.379 167.09 279.468 167.445C279.557 167.799 279.924 168.088 280.281 168.088H285.296C285.655 168.088 285.875 167.798 285.786 167.445C285.697 167.09 285.33 166.8 284.973 166.8Z" fill="#FFF8EA"/>
<path d="M148.384 161.963C148.924 161.963 149.253 161.53 149.117 160.996C148.983 160.462 148.436 160.029 147.896 160.029H104.577C104.037 160.029 103.708 160.462 103.844 160.996C103.978 161.53 104.525 161.963 105.065 161.963H148.384Z" fill="#CC7F31"/>
<path d="M149.192 165.172C149.733 165.172 150.061 164.739 149.925 164.205C149.791 163.671 149.244 163.237 148.704 163.237H105.385C104.845 163.237 104.517 163.671 104.652 164.205C104.787 164.739 105.333 165.172 105.873 165.172H149.192Z" fill="#CC7F31"/>
<path d="M149.55 166.591H106.229C105.689 166.591 105.36 167.024 105.496 167.558C105.63 168.092 106.177 168.525 106.717 168.525H150.038C150.578 168.525 150.907 168.092 150.771 167.558C150.635 167.024 150.09 166.591 149.55 166.591Z" fill="#CC7F31"/>
<path d="M204.291 161.963C204.831 161.963 205.16 161.53 205.024 160.996C204.89 160.462 204.343 160.029 203.803 160.029H160.482C159.942 160.029 159.613 160.462 159.749 160.996C159.883 161.53 160.43 161.963 160.97 161.963H204.291Z" fill="#CC7F31"/>
<path d="M205.099 165.172C205.639 165.172 205.968 164.739 205.832 164.205C205.698 163.671 205.151 163.237 204.611 163.237H161.291C160.751 163.237 160.422 163.671 160.558 164.205C160.692 164.739 161.239 165.172 161.779 165.172H205.099Z" fill="#CC7F31"/>
<path d="M205.457 166.591H162.136C161.596 166.591 161.267 167.024 161.403 167.558C161.537 168.092 162.084 168.525 162.624 168.525H205.945C206.485 168.525 206.813 168.092 206.678 167.558C206.542 167.024 205.997 166.591 205.457 166.591Z" fill="#CC7F31"/>
<path d="M258.477 161.963C259.017 161.963 259.346 161.53 259.21 160.996C259.076 160.462 258.529 160.029 257.989 160.029H214.668C214.128 160.029 213.799 160.462 213.935 160.996C214.069 161.53 214.616 161.963 215.156 161.963H258.477Z" fill="#CC7F31"/>
<path d="M259.285 165.172C259.825 165.172 260.154 164.739 260.018 164.205C259.884 163.671 259.337 163.237 258.797 163.237H215.477C214.936 163.237 214.608 163.671 214.744 164.205C214.878 164.739 215.425 165.172 215.965 165.172H259.285Z" fill="#CC7F31"/>
<path d="M260.864 167.558C260.729 167.024 260.183 166.591 259.643 166.591H216.322C215.782 166.591 215.453 167.024 215.589 167.558C215.723 168.092 216.27 168.525 216.81 168.525H260.131C260.669 168.523 260.998 168.092 260.864 167.558Z" fill="#CC7F31"/>
<path d="M269.245 174.017H102.187C100.711 174.017 99.2131 172.834 98.8457 171.38L95.5096 158.146C95.3201 157.392 95.4576 156.647 95.887 156.103C96.3097 155.569 96.9554 155.275 97.7069 155.275H264.765C266.241 155.275 267.739 156.458 268.106 157.912L271.442 171.147C271.632 171.9 271.494 172.645 271.065 173.189C270.642 173.723 269.996 174.017 269.245 174.017ZM97.7069 156.244C97.2641 156.244 96.8917 156.407 96.6602 156.7C96.4137 157.012 96.3432 157.444 96.4607 157.912L99.7968 171.147C100.057 172.177 101.15 173.048 102.187 173.048H269.245C269.688 173.048 270.06 172.885 270.292 172.592C270.538 172.28 270.609 171.848 270.491 171.38L267.155 158.146C266.895 157.115 265.8 156.244 264.765 156.244H97.7069Z" fill="#CC7F31"/>
</svg>
