<svg width="100" height="100" viewBox="0 0 100 100" fill="none" xmlns="http://www.w3.org/2000/svg">
<path d="M50 91.6667C26.9875 91.6667 8.33334 73.0125 8.33334 50C8.33334 26.9875 26.9875 8.33333 50 8.33333C73.0125 8.33333 91.6667 26.9875 91.6667 50C91.6417 73 73 91.6417 50 91.6667ZM16.6667 50.7167C16.7614 59.5257 20.3394 67.939 26.6187 74.1178C32.8979 80.2967 41.3679 83.7385 50.1773 83.6912C58.9866 83.6438 67.4191 80.1111 73.6316 73.8651C79.8441 67.6191 83.3314 59.1678 83.3314 50.3583C83.3314 41.5488 79.8441 33.0975 73.6316 26.8515C67.4191 20.6056 58.9866 17.0728 50.1773 17.0255C41.3679 16.9781 32.8979 20.42 26.6187 26.5988C20.3394 32.7777 16.7614 41.191 16.6667 50V50.7167ZM41.6667 68.75V31.25L66.6667 50L41.6667 68.75Z" fill="#F2F2F2"/>
</svg>
