<svg width="200" height="44" viewBox="0 0 200 44" fill="none" xmlns="http://www.w3.org/2000/svg">
<path d="M94.9995 40C96.1041 40 96.9995 40.8954 96.9995 42C96.9995 43.1046 96.1041 44 94.9995 44C93.8949 44 92.9995 43.1046 92.9995 42C92.9995 40.8954 93.8949 40 94.9995 40Z" fill="#CC7F31" fill-opacity="0.2"/>
<path d="M64.9995 40C66.1041 40 66.9995 40.8954 66.9995 42C66.9995 43.1046 66.1041 44 64.9995 44C63.8949 44 62.9995 43.1046 62.9995 42C62.9995 40.8954 63.8949 40 64.9995 40Z" fill="#CC7F31" fill-opacity="0.2"/>
<path d="M178 40C179.104 40 180 40.8954 180 42C180 43.1046 179.104 44 178 44C176.895 44 176 43.1046 176 42C176 40.8954 176.895 40 178 40Z" fill="#CC7F31" fill-opacity="0.2"/>
<path d="M22.9998 40C24.1043 40 24.9998 40.8954 24.9998 42C24.9998 43.1046 24.1043 44 22.9998 44C21.8952 44 20.9998 43.1046 20.9998 42C20.9998 40.8954 21.8952 40 22.9998 40Z" fill="#CC7F31" fill-opacity="0.2"/>
<path d="M136 40C137.104 40 138 40.8954 138 42C138 43.1046 137.104 44 136 44C134.895 44 134 43.1046 134 42C134 40.8954 134.895 40 136 40Z" fill="#CC7F31" fill-opacity="0.2"/>
<path d="M2 40C3.10457 40 4 40.8954 4 42C4 43.1046 3.10457 44 2 44C0.89543 44 -8.89589e-08 43.1046 -1.98695e-07 42C-3.08432e-07 40.8954 0.89543 40 2 40Z" fill="#CC7F31" fill-opacity="0.2"/>
<path d="M115 40C116.104 40 117 40.8954 117 42C117 43.1046 116.104 44 115 44C113.895 44 113 43.1046 113 42C113 40.8954 113.895 40 115 40Z" fill="#CC7F31" fill-opacity="0.2"/>
<path d="M84.9995 40C86.1041 40 86.9995 40.8954 86.9995 42C86.9995 43.1046 86.1041 44 84.9995 44C83.8949 44 82.9995 43.1046 82.9995 42C82.9995 40.8954 83.8949 40 84.9995 40Z" fill="#CC7F31" fill-opacity="0.2"/>
<path d="M198 40C199.104 40 200 40.8954 200 42C200 43.1046 199.104 44 198 44C196.895 44 196 43.1046 196 42C196 40.8954 196.895 40 198 40Z" fill="#CC7F31" fill-opacity="0.2"/>
<path d="M43.9995 40C45.1041 40 45.9995 40.8954 45.9995 42C45.9995 43.1046 45.1041 44 43.9995 44C42.8949 44 41.9995 43.1046 41.9995 42C41.9995 40.8954 42.8949 40 43.9995 40Z" fill="#CC7F31" fill-opacity="0.2"/>
<path d="M157 40C158.104 40 159 40.8954 159 42C159 43.1046 158.104 44 157 44C155.895 44 155 43.1046 155 42C155 40.8954 155.895 40 157 40Z" fill="#CC7F31" fill-opacity="0.2"/>
<path d="M105 40C106.104 40 107 40.8954 107 42C107 43.1046 106.104 44 105 44C103.895 44 103 43.1046 103 42C103 40.8954 103.895 40 105 40Z" fill="#CC7F31" fill-opacity="0.2"/>
<path d="M74.9995 40C76.1041 40 76.9995 40.8954 76.9995 42C76.9995 43.1046 76.1041 44 74.9995 44C73.8949 44 72.9995 43.1046 72.9995 42C72.9995 40.8954 73.8949 40 74.9995 40Z" fill="#CC7F31" fill-opacity="0.2"/>
<path d="M188 40C189.104 40 190 40.8954 190 42C190 43.1046 189.104 44 188 44C186.895 44 186 43.1046 186 42C186 40.8954 186.895 40 188 40Z" fill="#CC7F31" fill-opacity="0.2"/>
<path d="M33.9998 40C35.1043 40 35.9998 40.8954 35.9998 42C35.9998 43.1046 35.1043 44 33.9998 44C32.8952 44 31.9998 43.1046 31.9998 42C31.9998 40.8954 32.8952 40 33.9998 40Z" fill="#CC7F31" fill-opacity="0.2"/>
<path d="M147 40C148.104 40 149 40.8954 149 42C149 43.1046 148.104 44 147 44C145.895 44 145 43.1046 145 42C145 40.8954 145.895 40 147 40Z" fill="#CC7F31" fill-opacity="0.2"/>
<path d="M12.9998 40C14.1043 40 14.9998 40.8954 14.9998 42C14.9998 43.1046 14.1043 44 12.9998 44C11.8952 44 10.9998 43.1046 10.9998 42C10.9998 40.8954 11.8952 40 12.9998 40Z" fill="#CC7F31" fill-opacity="0.2"/>
<path d="M126 40C127.104 40 128 40.8954 128 42C128 43.1046 127.104 44 126 44C124.895 44 124 43.1046 124 42C124 40.8954 124.895 40 126 40Z" fill="#CC7F31" fill-opacity="0.2"/>
<path d="M54.9995 40C56.1041 40 56.9995 40.8954 56.9995 42C56.9995 43.1046 56.1041 44 54.9995 44C53.8949 44 52.9995 43.1046 52.9995 42C52.9995 40.8954 53.8949 40 54.9995 40Z" fill="#CC7F31" fill-opacity="0.2"/>
<path d="M168 40C169.104 40 170 40.8954 170 42C170 43.1046 169.104 44 168 44C166.895 44 166 43.1046 166 42C166 40.8954 166.895 40 168 40Z" fill="#CC7F31" fill-opacity="0.2"/>
<path d="M94.9995 30C96.1041 30 96.9995 30.8954 96.9995 32C96.9995 33.1046 96.1041 34 94.9995 34C93.8949 34 92.9995 33.1046 92.9995 32C92.9995 30.8954 93.8949 30 94.9995 30Z" fill="#CC7F31" fill-opacity="0.2"/>
<path d="M64.9995 30C66.1041 30 66.9995 30.8954 66.9995 32C66.9995 33.1046 66.1041 34 64.9995 34C63.8949 34 62.9995 33.1046 62.9995 32C62.9995 30.8954 63.8949 30 64.9995 30Z" fill="#CC7F31" fill-opacity="0.2"/>
<path d="M178 30C179.104 30 180 30.8954 180 32C180 33.1046 179.104 34 178 34C176.895 34 176 33.1046 176 32C176 30.8954 176.895 30 178 30Z" fill="#CC7F31" fill-opacity="0.2"/>
<path d="M22.9998 30C24.1043 30 24.9998 30.8954 24.9998 32C24.9998 33.1046 24.1043 34 22.9998 34C21.8952 34 20.9998 33.1046 20.9998 32C20.9998 30.8954 21.8952 30 22.9998 30Z" fill="#CC7F31" fill-opacity="0.2"/>
<path d="M136 30C137.104 30 138 30.8954 138 32C138 33.1046 137.104 34 136 34C134.895 34 134 33.1046 134 32C134 30.8954 134.895 30 136 30Z" fill="#CC7F31" fill-opacity="0.2"/>
<path d="M2 30C3.10457 30 4 30.8954 4 32C4 33.1046 3.10457 34 2 34C0.89543 34 -8.89589e-08 33.1046 -1.98695e-07 32C-3.08432e-07 30.8954 0.89543 30 2 30Z" fill="#CC7F31" fill-opacity="0.2"/>
<path d="M115 30C116.104 30 117 30.8954 117 32C117 33.1046 116.104 34 115 34C113.895 34 113 33.1046 113 32C113 30.8954 113.895 30 115 30Z" fill="#CC7F31" fill-opacity="0.2"/>
<path d="M84.9995 30C86.1041 30 86.9995 30.8954 86.9995 32C86.9995 33.1046 86.1041 34 84.9995 34C83.8949 34 82.9995 33.1046 82.9995 32C82.9995 30.8954 83.8949 30 84.9995 30Z" fill="#CC7F31" fill-opacity="0.2"/>
<path d="M198 30C199.104 30 200 30.8954 200 32C200 33.1046 199.104 34 198 34C196.895 34 196 33.1046 196 32C196 30.8954 196.895 30 198 30Z" fill="#CC7F31" fill-opacity="0.2"/>
<path d="M43.9995 30C45.1041 30 45.9995 30.8954 45.9995 32C45.9995 33.1046 45.1041 34 43.9995 34C42.8949 34 41.9995 33.1046 41.9995 32C41.9995 30.8954 42.8949 30 43.9995 30Z" fill="#CC7F31" fill-opacity="0.2"/>
<path d="M157 30C158.104 30 159 30.8954 159 32C159 33.1046 158.104 34 157 34C155.895 34 155 33.1046 155 32C155 30.8954 155.895 30 157 30Z" fill="#CC7F31" fill-opacity="0.2"/>
<path d="M105 30C106.104 30 107 30.8954 107 32C107 33.1046 106.104 34 105 34C103.895 34 103 33.1046 103 32C103 30.8954 103.895 30 105 30Z" fill="#CC7F31" fill-opacity="0.2"/>
<path d="M74.9995 30C76.1041 30 76.9995 30.8954 76.9995 32C76.9995 33.1046 76.1041 34 74.9995 34C73.8949 34 72.9995 33.1046 72.9995 32C72.9995 30.8954 73.8949 30 74.9995 30Z" fill="#CC7F31" fill-opacity="0.2"/>
<path d="M188 30C189.104 30 190 30.8954 190 32C190 33.1046 189.104 34 188 34C186.895 34 186 33.1046 186 32C186 30.8954 186.895 30 188 30Z" fill="#CC7F31" fill-opacity="0.2"/>
<path d="M33.9998 30C35.1043 30 35.9998 30.8954 35.9998 32C35.9998 33.1046 35.1043 34 33.9998 34C32.8952 34 31.9998 33.1046 31.9998 32C31.9998 30.8954 32.8952 30 33.9998 30Z" fill="#CC7F31" fill-opacity="0.2"/>
<path d="M147 30C148.104 30 149 30.8954 149 32C149 33.1046 148.104 34 147 34C145.895 34 145 33.1046 145 32C145 30.8954 145.895 30 147 30Z" fill="#CC7F31" fill-opacity="0.2"/>
<path d="M12.9998 30C14.1043 30 14.9998 30.8954 14.9998 32C14.9998 33.1046 14.1043 34 12.9998 34C11.8952 34 10.9998 33.1046 10.9998 32C10.9998 30.8954 11.8952 30 12.9998 30Z" fill="#CC7F31" fill-opacity="0.2"/>
<path d="M126 30C127.104 30 128 30.8954 128 32C128 33.1046 127.104 34 126 34C124.895 34 124 33.1046 124 32C124 30.8954 124.895 30 126 30Z" fill="#CC7F31" fill-opacity="0.2"/>
<path d="M54.9995 30C56.1041 30 56.9995 30.8954 56.9995 32C56.9995 33.1046 56.1041 34 54.9995 34C53.8949 34 52.9995 33.1046 52.9995 32C52.9995 30.8954 53.8949 30 54.9995 30Z" fill="#CC7F31" fill-opacity="0.2"/>
<path d="M168 30C169.104 30 170 30.8954 170 32C170 33.1046 169.104 34 168 34C166.895 34 166 33.1046 166 32C166 30.8954 166.895 30 168 30Z" fill="#CC7F31" fill-opacity="0.2"/>
<path d="M94.9995 20C96.1041 20 96.9995 20.8954 96.9995 22C96.9995 23.1046 96.1041 24 94.9995 24C93.8949 24 92.9995 23.1046 92.9995 22C92.9995 20.8954 93.8949 20 94.9995 20Z" fill="#CC7F31" fill-opacity="0.2"/>
<path d="M64.9995 20C66.1041 20 66.9995 20.8954 66.9995 22C66.9995 23.1046 66.1041 24 64.9995 24C63.8949 24 62.9995 23.1046 62.9995 22C62.9995 20.8954 63.8949 20 64.9995 20Z" fill="#CC7F31" fill-opacity="0.2"/>
<path d="M178 20C179.104 20 180 20.8954 180 22C180 23.1046 179.104 24 178 24C176.895 24 176 23.1046 176 22C176 20.8954 176.895 20 178 20Z" fill="#CC7F31" fill-opacity="0.2"/>
<path d="M22.9998 20C24.1043 20 24.9998 20.8954 24.9998 22C24.9998 23.1046 24.1043 24 22.9998 24C21.8952 24 20.9998 23.1046 20.9998 22C20.9998 20.8954 21.8952 20 22.9998 20Z" fill="#CC7F31" fill-opacity="0.2"/>
<path d="M136 20C137.104 20 138 20.8954 138 22C138 23.1046 137.104 24 136 24C134.895 24 134 23.1046 134 22C134 20.8954 134.895 20 136 20Z" fill="#CC7F31" fill-opacity="0.2"/>
<path d="M2 20C3.10457 20 4 20.8954 4 22C4 23.1046 3.10457 24 2 24C0.89543 24 -8.89589e-08 23.1046 -1.98695e-07 22C-3.08432e-07 20.8954 0.89543 20 2 20Z" fill="#CC7F31" fill-opacity="0.2"/>
<path d="M115 20C116.104 20 117 20.8954 117 22C117 23.1046 116.104 24 115 24C113.895 24 113 23.1046 113 22C113 20.8954 113.895 20 115 20Z" fill="#CC7F31" fill-opacity="0.2"/>
<path d="M84.9995 20C86.1041 20 86.9995 20.8954 86.9995 22C86.9995 23.1046 86.1041 24 84.9995 24C83.8949 24 82.9995 23.1046 82.9995 22C82.9995 20.8954 83.8949 20 84.9995 20Z" fill="#CC7F31" fill-opacity="0.2"/>
<path d="M198 20C199.104 20 200 20.8954 200 22C200 23.1046 199.104 24 198 24C196.895 24 196 23.1046 196 22C196 20.8954 196.895 20 198 20Z" fill="#CC7F31" fill-opacity="0.2"/>
<path d="M43.9995 20C45.1041 20 45.9995 20.8954 45.9995 22C45.9995 23.1046 45.1041 24 43.9995 24C42.8949 24 41.9995 23.1046 41.9995 22C41.9995 20.8954 42.8949 20 43.9995 20Z" fill="#CC7F31" fill-opacity="0.2"/>
<path d="M157 20C158.104 20 159 20.8954 159 22C159 23.1046 158.104 24 157 24C155.895 24 155 23.1046 155 22C155 20.8954 155.895 20 157 20Z" fill="#CC7F31" fill-opacity="0.2"/>
<path d="M94.9995 10C96.1041 10 96.9995 10.8954 96.9995 12C96.9995 13.1046 96.1041 14 94.9995 14C93.8949 14 92.9995 13.1046 92.9995 12C92.9995 10.8954 93.8949 10 94.9995 10Z" fill="#CC7F31" fill-opacity="0.2"/>
<path d="M64.9995 10C66.1041 10 66.9995 10.8954 66.9995 12C66.9995 13.1046 66.1041 14 64.9995 14C63.8949 14 62.9995 13.1046 62.9995 12C62.9995 10.8954 63.8949 10 64.9995 10Z" fill="#CC7F31" fill-opacity="0.2"/>
<path d="M178 10C179.104 10 180 10.8954 180 12C180 13.1046 179.104 14 178 14C176.895 14 176 13.1046 176 12C176 10.8954 176.895 10 178 10Z" fill="#CC7F31" fill-opacity="0.2"/>
<path d="M22.9998 10C24.1043 10 24.9998 10.8954 24.9998 12C24.9998 13.1046 24.1043 14 22.9998 14C21.8952 14 20.9998 13.1046 20.9998 12C20.9998 10.8954 21.8952 10 22.9998 10Z" fill="#CC7F31" fill-opacity="0.2"/>
<path d="M136 10C137.104 10 138 10.8954 138 12C138 13.1046 137.104 14 136 14C134.895 14 134 13.1046 134 12C134 10.8954 134.895 10 136 10Z" fill="#CC7F31" fill-opacity="0.2"/>
<path d="M2 10C3.10457 10 4 10.8954 4 12C4 13.1046 3.10457 14 2 14C0.89543 14 -8.89589e-08 13.1046 -1.98695e-07 12C-3.08432e-07 10.8954 0.89543 10 2 10Z" fill="#CC7F31" fill-opacity="0.2"/>
<path d="M115 10C116.104 10 117 10.8954 117 12C117 13.1046 116.104 14 115 14C113.895 14 113 13.1046 113 12C113 10.8954 113.895 10 115 10Z" fill="#CC7F31" fill-opacity="0.2"/>
<path d="M84.9995 10C86.1041 10 86.9995 10.8954 86.9995 12C86.9995 13.1046 86.1041 14 84.9995 14C83.8949 14 82.9995 13.1046 82.9995 12C82.9995 10.8954 83.8949 10 84.9995 10Z" fill="#CC7F31" fill-opacity="0.2"/>
<path d="M198 10C199.104 10 200 10.8954 200 12C200 13.1046 199.104 14 198 14C196.895 14 196 13.1046 196 12C196 10.8954 196.895 10 198 10Z" fill="#CC7F31" fill-opacity="0.2"/>
<path d="M43.9995 10C45.1041 10 45.9995 10.8954 45.9995 12C45.9995 13.1046 45.1041 14 43.9995 14C42.8949 14 41.9995 13.1046 41.9995 12C41.9995 10.8954 42.8949 10 43.9995 10Z" fill="#CC7F31" fill-opacity="0.2"/>
<path d="M157 10C158.104 10 159 10.8954 159 12C159 13.1046 158.104 14 157 14C155.895 14 155 13.1046 155 12C155 10.8954 155.895 10 157 10Z" fill="#CC7F31" fill-opacity="0.2"/>
<path d="M105 10C106.104 10 107 10.8954 107 12C107 13.1046 106.104 14 105 14C103.895 14 103 13.1046 103 12C103 10.8954 103.895 10 105 10Z" fill="#CC7F31" fill-opacity="0.2"/>
<path d="M74.9995 10C76.1041 10 76.9995 10.8954 76.9995 12C76.9995 13.1046 76.1041 14 74.9995 14C73.8949 14 72.9995 13.1046 72.9995 12C72.9995 10.8954 73.8949 10 74.9995 10Z" fill="#CC7F31" fill-opacity="0.2"/>
<path d="M188 10C189.104 10 190 10.8954 190 12C190 13.1046 189.104 14 188 14C186.895 14 186 13.1046 186 12C186 10.8954 186.895 10 188 10Z" fill="#CC7F31" fill-opacity="0.2"/>
<path d="M33.9998 10C35.1043 10 35.9998 10.8954 35.9998 12C35.9998 13.1046 35.1043 14 33.9998 14C32.8952 14 31.9998 13.1046 31.9998 12C31.9998 10.8954 32.8952 10 33.9998 10Z" fill="#CC7F31" fill-opacity="0.2"/>
<path d="M147 10C148.104 10 149 10.8954 149 12C149 13.1046 148.104 14 147 14C145.895 14 145 13.1046 145 12C145 10.8954 145.895 10 147 10Z" fill="#CC7F31" fill-opacity="0.2"/>
<path d="M12.9998 10C14.1043 10 14.9998 10.8954 14.9998 12C14.9998 13.1046 14.1043 14 12.9998 14C11.8952 14 10.9998 13.1046 10.9998 12C10.9998 10.8954 11.8952 10 12.9998 10Z" fill="#CC7F31" fill-opacity="0.2"/>
<path d="M126 10C127.104 10 128 10.8954 128 12C128 13.1046 127.104 14 126 14C124.895 14 124 13.1046 124 12C124 10.8954 124.895 10 126 10Z" fill="#CC7F31" fill-opacity="0.2"/>
<path d="M54.9995 10C56.1041 10 56.9995 10.8954 56.9995 12C56.9995 13.1046 56.1041 14 54.9995 14C53.8949 14 52.9995 13.1046 52.9995 12C52.9995 10.8954 53.8949 10 54.9995 10Z" fill="#CC7F31" fill-opacity="0.2"/>
<path d="M168 10C169.104 10 170 10.8954 170 12C170 13.1046 169.104 14 168 14C166.895 14 166 13.1046 166 12C166 10.8954 166.895 10 168 10Z" fill="#CC7F31" fill-opacity="0.2"/>
<path d="M94.9995 -1.98695e-07C96.1041 -3.08432e-07 96.9995 0.89543 96.9995 2C96.9995 3.10457 96.1041 4 94.9995 4C93.8949 4 92.9995 3.10457 92.9995 2C92.9995 0.895431 93.8949 -8.89589e-08 94.9995 -1.98695e-07Z" fill="#CC7F31" fill-opacity="0.2"/>
<path d="M64.9995 -1.98695e-07C66.1041 -3.08432e-07 66.9995 0.89543 66.9995 2C66.9995 3.10457 66.1041 4 64.9995 4C63.8949 4 62.9995 3.10457 62.9995 2C62.9995 0.895431 63.8949 -8.89589e-08 64.9995 -1.98695e-07Z" fill="#CC7F31" fill-opacity="0.2"/>
<path d="M178 -1.98695e-07C179.104 -3.08432e-07 180 0.89543 180 2C180 3.10457 179.104 4 178 4C176.895 4 176 3.10457 176 2C176 0.895431 176.895 -8.89589e-08 178 -1.98695e-07Z" fill="#CC7F31" fill-opacity="0.2"/>
<path d="M22.9998 -1.98695e-07C24.1043 -3.08432e-07 24.9998 0.89543 24.9998 2C24.9998 3.10457 24.1043 4 22.9998 4C21.8952 4 20.9998 3.10457 20.9998 2C20.9998 0.895431 21.8952 -8.89589e-08 22.9998 -1.98695e-07Z" fill="#CC7F31" fill-opacity="0.2"/>
<path d="M136 -1.98695e-07C137.104 -3.08432e-07 138 0.89543 138 2C138 3.10457 137.104 4 136 4C134.895 4 134 3.10457 134 2C134 0.895431 134.895 -8.89589e-08 136 -1.98695e-07Z" fill="#CC7F31" fill-opacity="0.2"/>
<path d="M2 -1.98695e-07C3.10457 -3.08432e-07 4 0.89543 4 2C4 3.10457 3.10457 4 2 4C0.89543 4 -8.89589e-08 3.10457 -1.98695e-07 2C-3.08432e-07 0.895431 0.89543 -8.89589e-08 2 -1.98695e-07Z" fill="#CC7F31" fill-opacity="0.2"/>
<path d="M115 -1.98695e-07C116.104 -3.08432e-07 117 0.89543 117 2C117 3.10457 116.104 4 115 4C113.895 4 113 3.10457 113 2C113 0.895431 113.895 -8.89589e-08 115 -1.98695e-07Z" fill="#CC7F31" fill-opacity="0.2"/>
<path d="M84.9995 -1.98695e-07C86.1041 -3.08432e-07 86.9995 0.89543 86.9995 2C86.9995 3.10457 86.1041 4 84.9995 4C83.8949 4 82.9995 3.10457 82.9995 2C82.9995 0.895431 83.8949 -8.89589e-08 84.9995 -1.98695e-07Z" fill="#CC7F31" fill-opacity="0.2"/>
<path d="M198 -1.98695e-07C199.104 -3.08432e-07 200 0.89543 200 2C200 3.10457 199.104 4 198 4C196.895 4 196 3.10457 196 2C196 0.895431 196.895 -8.89589e-08 198 -1.98695e-07Z" fill="#CC7F31" fill-opacity="0.2"/>
<path d="M43.9995 -1.98695e-07C45.1041 -3.08432e-07 45.9995 0.89543 45.9995 2C45.9995 3.10457 45.1041 4 43.9995 4C42.8949 4 41.9995 3.10457 41.9995 2C41.9995 0.895431 42.8949 -8.89589e-08 43.9995 -1.98695e-07Z" fill="#CC7F31" fill-opacity="0.2"/>
<path d="M157 -1.98695e-07C158.104 -3.08432e-07 159 0.89543 159 2C159 3.10457 158.104 4 157 4C155.895 4 155 3.10457 155 2C155 0.895431 155.895 -8.89589e-08 157 -1.98695e-07Z" fill="#CC7F31" fill-opacity="0.2"/>
<path d="M105 -1.98695e-07C106.104 -3.08432e-07 107 0.89543 107 2C107 3.10457 106.104 4 105 4C103.895 4 103 3.10457 103 2C103 0.895431 103.895 -8.89589e-08 105 -1.98695e-07Z" fill="#CC7F31" fill-opacity="0.2"/>
<path d="M74.9995 -1.98695e-07C76.1041 -3.08432e-07 76.9995 0.89543 76.9995 2C76.9995 3.10457 76.1041 4 74.9995 4C73.8949 4 72.9995 3.10457 72.9995 2C72.9995 0.895431 73.8949 -8.89589e-08 74.9995 -1.98695e-07Z" fill="#CC7F31" fill-opacity="0.2"/>
<path d="M188 -1.98695e-07C189.104 -3.08432e-07 190 0.89543 190 2C190 3.10457 189.104 4 188 4C186.895 4 186 3.10457 186 2C186 0.895431 186.895 -8.89589e-08 188 -1.98695e-07Z" fill="#CC7F31" fill-opacity="0.2"/>
<path d="M33.9998 -1.98695e-07C35.1043 -3.08432e-07 35.9998 0.89543 35.9998 2C35.9998 3.10457 35.1043 4 33.9998 4C32.8952 4 31.9998 3.10457 31.9998 2C31.9998 0.895431 32.8952 -8.89589e-08 33.9998 -1.98695e-07Z" fill="#CC7F31" fill-opacity="0.2"/>
<path d="M147 -1.98695e-07C148.104 -3.08432e-07 149 0.89543 149 2C149 3.10457 148.104 4 147 4C145.895 4 145 3.10457 145 2C145 0.895431 145.895 -8.89589e-08 147 -1.98695e-07Z" fill="#CC7F31" fill-opacity="0.2"/>
<path d="M12.9998 -1.98695e-07C14.1043 -3.08432e-07 14.9998 0.89543 14.9998 2C14.9998 3.10457 14.1043 4 12.9998 4C11.8952 4 10.9998 3.10457 10.9998 2C10.9998 0.895431 11.8952 -8.89589e-08 12.9998 -1.98695e-07Z" fill="#CC7F31" fill-opacity="0.2"/>
<path d="M126 -1.98695e-07C127.104 -3.08432e-07 128 0.89543 128 2C128 3.10457 127.104 4 126 4C124.895 4 124 3.10457 124 2C124 0.895431 124.895 -8.89589e-08 126 -1.98695e-07Z" fill="#CC7F31" fill-opacity="0.2"/>
<path d="M54.9995 -1.98695e-07C56.1041 -3.08432e-07 56.9995 0.89543 56.9995 2C56.9995 3.10457 56.1041 4 54.9995 4C53.8949 4 52.9995 3.10457 52.9995 2C52.9995 0.895431 53.8949 -8.89589e-08 54.9995 -1.98695e-07Z" fill="#CC7F31" fill-opacity="0.2"/>
<path d="M168 -1.98695e-07C169.104 -3.08432e-07 170 0.89543 170 2C170 3.10457 169.104 4 168 4C166.895 4 166 3.10457 166 2C166 0.895431 166.895 -8.89589e-08 168 -1.98695e-07Z" fill="#CC7F31" fill-opacity="0.2"/>
<path d="M105 20C106.104 20 107 20.8954 107 22C107 23.1046 106.104 24 105 24C103.895 24 103 23.1046 103 22C103 20.8954 103.895 20 105 20Z" fill="#CC7F31" fill-opacity="0.2"/>
<path d="M74.9995 20C76.1041 20 76.9995 20.8954 76.9995 22C76.9995 23.1046 76.1041 24 74.9995 24C73.8949 24 72.9995 23.1046 72.9995 22C72.9995 20.8954 73.8949 20 74.9995 20Z" fill="#CC7F31" fill-opacity="0.2"/>
<path d="M188 20C189.104 20 190 20.8954 190 22C190 23.1046 189.104 24 188 24C186.895 24 186 23.1046 186 22C186 20.8954 186.895 20 188 20Z" fill="#CC7F31" fill-opacity="0.2"/>
<path d="M33.9998 20C35.1043 20 35.9998 20.8954 35.9998 22C35.9998 23.1046 35.1043 24 33.9998 24C32.8952 24 31.9998 23.1046 31.9998 22C31.9998 20.8954 32.8952 20 33.9998 20Z" fill="#CC7F31" fill-opacity="0.2"/>
<path d="M147 20C148.104 20 149 20.8954 149 22C149 23.1046 148.104 24 147 24C145.895 24 145 23.1046 145 22C145 20.8954 145.895 20 147 20Z" fill="#CC7F31" fill-opacity="0.2"/>
<path d="M12.9998 20C14.1043 20 14.9998 20.8954 14.9998 22C14.9998 23.1046 14.1043 24 12.9998 24C11.8952 24 10.9998 23.1046 10.9998 22C10.9998 20.8954 11.8952 20 12.9998 20Z" fill="#CC7F31" fill-opacity="0.2"/>
<path d="M126 20C127.104 20 128 20.8954 128 22C128 23.1046 127.104 24 126 24C124.895 24 124 23.1046 124 22C124 20.8954 124.895 20 126 20Z" fill="#CC7F31" fill-opacity="0.2"/>
<path d="M54.9995 20C56.1041 20 56.9995 20.8954 56.9995 22C56.9995 23.1046 56.1041 24 54.9995 24C53.8949 24 52.9995 23.1046 52.9995 22C52.9995 20.8954 53.8949 20 54.9995 20Z" fill="#CC7F31" fill-opacity="0.2"/>
<path d="M168 20C169.104 20 170 20.8954 170 22C170 23.1046 169.104 24 168 24C166.895 24 166 23.1046 166 22C166 20.8954 166.895 20 168 20Z" fill="#CC7F31" fill-opacity="0.2"/>
</svg>
