<svg width="292" height="44" viewBox="0 0 292 44" fill="none" xmlns="http://www.w3.org/2000/svg">
<path d="M1.99399 40C3.09525 40 3.98799 40.8954 3.98799 42C3.98799 43.1046 3.09525 44 1.99399 44C0.892741 44 -8.89589e-08 43.1046 -1.98695e-07 42C-3.08432e-07 40.8954 0.892741 40 1.99399 40Z" fill="#CC7F31" fill-opacity="0.2"/>
<path d="M1.99399 30C3.09525 30 3.98799 30.8954 3.98799 32C3.98799 33.1046 3.09525 34 1.99399 34C0.892741 34 -8.89589e-08 33.1046 -1.98695e-07 32C-3.08432e-07 30.8954 0.892741 30 1.99399 30Z" fill="#CC7F31" fill-opacity="0.2"/>
<path d="M1.99399 20C3.09525 20 3.98799 20.8954 3.98799 22C3.98799 23.1046 3.09525 24 1.99399 24C0.892741 24 -8.89589e-08 23.1046 -1.98695e-07 22C-3.08432e-07 20.8954 0.892741 20 1.99399 20Z" fill="#CC7F31" fill-opacity="0.2"/>
<path d="M1.99399 10C3.09525 10 3.98799 10.8954 3.98799 12C3.98799 13.1046 3.09525 14 1.99399 14C0.892741 14 -8.89589e-08 13.1046 -1.98695e-07 12C-3.08432e-07 10.8954 0.892741 10 1.99399 10Z" fill="#CC7F31" fill-opacity="0.2"/>
<path d="M1.99399 -1.98099e-07C3.09525 -3.07505e-07 3.98799 0.89543 3.98799 2C3.98799 3.10457 3.09525 4 1.99399 4C0.892741 4 -8.89589e-08 3.10457 -1.98695e-07 2C-3.08432e-07 0.895431 0.892741 -8.86918e-08 1.99399 -1.98099e-07Z" fill="#CC7F31" fill-opacity="0.2"/>
<path d="M114.653 40C115.755 40 116.647 40.8954 116.647 42C116.647 43.1046 115.755 44 114.653 44C113.552 44 112.659 43.1046 112.659 42C112.659 40.8954 113.552 40 114.653 40Z" fill="#CC7F31" fill-opacity="0.2"/>
<path d="M227.313 40C228.415 40 229.307 40.8954 229.307 42C229.307 43.1046 228.415 44 227.313 44C226.212 44 225.319 43.1046 225.319 42C225.319 40.8954 226.212 40 227.313 40Z" fill="#CC7F31" fill-opacity="0.2"/>
<path d="M84.744 40C85.8452 40 86.738 40.8954 86.738 42C86.738 43.1046 85.8452 44 84.744 44C83.6427 44 82.75 43.1046 82.75 42C82.75 40.8954 83.6427 40 84.744 40Z" fill="#CC7F31" fill-opacity="0.2"/>
<path d="M197.403 40C198.505 40 199.397 40.8954 199.397 42C199.397 43.1046 198.505 44 197.403 44C196.302 44 195.409 43.1046 195.409 42C195.409 40.8954 196.302 40 197.403 40Z" fill="#CC7F31" fill-opacity="0.2"/>
<path d="M42.8706 40C43.9718 40 44.8646 40.8954 44.8646 42C44.8646 43.1046 43.9718 44 42.8706 44C41.7693 44 40.8766 43.1046 40.8766 42C40.8766 40.8954 41.7693 40 42.8706 40Z" fill="#CC7F31" fill-opacity="0.2"/>
<path d="M155.53 40C156.631 40 157.524 40.8954 157.524 42C157.524 43.1046 156.631 44 155.53 44C154.429 44 153.536 43.1046 153.536 42C153.536 40.8954 154.429 40 155.53 40Z" fill="#CC7F31" fill-opacity="0.2"/>
<path d="M268.19 40C269.292 40 270.184 40.8954 270.184 42C270.184 43.1046 269.292 44 268.19 44C267.089 44 266.196 43.1046 266.196 42C266.196 40.8954 267.089 40 268.19 40Z" fill="#CC7F31" fill-opacity="0.2"/>
<path d="M21.9337 40C23.0349 40 23.9277 40.8954 23.9277 42C23.9277 43.1046 23.0349 44 21.9337 44C20.8324 44 19.9397 43.1046 19.9397 42C19.9397 40.8954 20.8324 40 21.9337 40Z" fill="#CC7F31" fill-opacity="0.2"/>
<path d="M134.593 40C135.694 40 136.587 40.8954 136.587 42C136.587 43.1046 135.694 44 134.593 44C133.492 44 132.599 43.1046 132.599 42C132.599 40.8954 133.492 40 134.593 40Z" fill="#CC7F31" fill-opacity="0.2"/>
<path d="M247.253 40C248.355 40 249.247 40.8954 249.247 42C249.247 43.1046 248.355 44 247.253 44C246.152 44 245.259 43.1046 245.259 42C245.259 40.8954 246.152 40 247.253 40Z" fill="#CC7F31" fill-opacity="0.2"/>
<path d="M104.683 40C105.785 40 106.677 40.8954 106.677 42C106.677 43.1046 105.785 44 104.683 44C103.582 44 102.689 43.1046 102.689 42C102.689 40.8954 103.582 40 104.683 40Z" fill="#CC7F31" fill-opacity="0.2"/>
<path d="M217.343 40C218.445 40 219.337 40.8954 219.337 42C219.337 43.1046 218.445 44 217.343 44C216.242 44 215.349 43.1046 215.349 42C215.349 40.8954 216.242 40 217.343 40Z" fill="#CC7F31" fill-opacity="0.2"/>
<path d="M63.8073 40C64.9086 40 65.8013 40.8954 65.8013 42C65.8013 43.1046 64.9086 44 63.8073 44C62.7061 44 61.8134 43.1046 61.8134 42C61.8134 40.8954 62.7061 40 63.8073 40Z" fill="#CC7F31" fill-opacity="0.2"/>
<path d="M176.467 40C177.568 40 178.461 40.8954 178.461 42C178.461 43.1046 177.568 44 176.467 44C175.365 44 174.473 43.1046 174.473 42C174.473 40.8954 175.365 40 176.467 40Z" fill="#CC7F31" fill-opacity="0.2"/>
<path d="M289.127 40C290.228 40 291.121 40.8954 291.121 42C291.121 43.1046 290.228 44 289.127 44C288.026 44 287.133 43.1046 287.133 42C287.133 40.8954 288.026 40 289.127 40Z" fill="#CC7F31" fill-opacity="0.2"/>
<path d="M11.964 40C13.0652 40 13.958 40.8954 13.958 42C13.958 43.1046 13.0652 44 11.964 44C10.8627 44 9.96997 43.1046 9.96997 42C9.96997 40.8954 10.8627 40 11.964 40Z" fill="#CC7F31" fill-opacity="0.2"/>
<path d="M124.623 40C125.724 40 126.617 40.8954 126.617 42C126.617 43.1046 125.724 44 124.623 44C123.522 44 122.629 43.1046 122.629 42C122.629 40.8954 123.522 40 124.623 40Z" fill="#CC7F31" fill-opacity="0.2"/>
<path d="M237.283 40C238.385 40 239.277 40.8954 239.277 42C239.277 43.1046 238.385 44 237.283 44C236.182 44 235.289 43.1046 235.289 42C235.289 40.8954 236.182 40 237.283 40Z" fill="#CC7F31" fill-opacity="0.2"/>
<path d="M94.714 40C95.8152 40 96.708 40.8954 96.708 42C96.708 43.1046 95.8152 44 94.714 44C93.6127 44 92.72 43.1046 92.72 42C92.72 40.8954 93.6127 40 94.714 40Z" fill="#CC7F31" fill-opacity="0.2"/>
<path d="M207.373 40C208.475 40 209.367 40.8954 209.367 42C209.367 43.1046 208.475 44 207.373 44C206.272 44 205.379 43.1046 205.379 42C205.379 40.8954 206.272 40 207.373 40Z" fill="#CC7F31" fill-opacity="0.2"/>
<path d="M53.8374 40C54.9386 40 55.8314 40.8954 55.8314 42C55.8314 43.1046 54.9386 44 53.8374 44C52.7361 44 51.8434 43.1046 51.8434 42C51.8434 40.8954 52.7361 40 53.8374 40Z" fill="#CC7F31" fill-opacity="0.2"/>
<path d="M166.497 40C167.598 40 168.491 40.8954 168.491 42C168.491 43.1046 167.598 44 166.497 44C165.396 44 164.503 43.1046 164.503 42C164.503 40.8954 165.396 40 166.497 40Z" fill="#CC7F31" fill-opacity="0.2"/>
<path d="M279.157 40C280.258 40 281.151 40.8954 281.151 42C281.151 43.1046 280.258 44 279.157 44C278.056 44 277.163 43.1046 277.163 42C277.163 40.8954 278.056 40 279.157 40Z" fill="#CC7F31" fill-opacity="0.2"/>
<path d="M32.9006 40C34.0019 40 34.8946 40.8954 34.8946 42C34.8946 43.1046 34.0019 44 32.9006 44C31.7994 44 30.9066 43.1046 30.9066 42C30.9066 40.8954 31.7994 40 32.9006 40Z" fill="#CC7F31" fill-opacity="0.2"/>
<path d="M145.56 40C146.661 40 147.554 40.8954 147.554 42C147.554 43.1046 146.661 44 145.56 44C144.459 44 143.566 43.1046 143.566 42C143.566 40.8954 144.459 40 145.56 40Z" fill="#CC7F31" fill-opacity="0.2"/>
<path d="M258.22 40C259.322 40 260.214 40.8954 260.214 42C260.214 43.1046 259.322 44 258.22 44C257.119 44 256.226 43.1046 256.226 42C256.226 40.8954 257.119 40 258.22 40Z" fill="#CC7F31" fill-opacity="0.2"/>
<path d="M74.774 40C75.8753 40 76.768 40.8954 76.768 42C76.768 43.1046 75.8753 44 74.774 44C73.6728 44 72.78 43.1046 72.78 42C72.78 40.8954 73.6728 40 74.774 40Z" fill="#CC7F31" fill-opacity="0.2"/>
<path d="M187.433 40C188.535 40 189.427 40.8954 189.427 42C189.427 43.1046 188.535 44 187.433 44C186.332 44 185.439 43.1046 185.439 42C185.439 40.8954 186.332 40 187.433 40Z" fill="#CC7F31" fill-opacity="0.2"/>
<path d="M114.653 30C115.755 30 116.647 30.8954 116.647 32C116.647 33.1046 115.755 34 114.653 34C113.552 34 112.659 33.1046 112.659 32C112.659 30.8954 113.552 30 114.653 30Z" fill="#CC7F31" fill-opacity="0.2"/>
<path d="M227.313 30C228.415 30 229.307 30.8954 229.307 32C229.307 33.1046 228.415 34 227.313 34C226.212 34 225.319 33.1046 225.319 32C225.319 30.8954 226.212 30 227.313 30Z" fill="#CC7F31" fill-opacity="0.2"/>
<path d="M84.744 30C85.8452 30 86.738 30.8954 86.738 32C86.738 33.1046 85.8452 34 84.744 34C83.6427 34 82.75 33.1046 82.75 32C82.75 30.8954 83.6427 30 84.744 30Z" fill="#CC7F31" fill-opacity="0.2"/>
<path d="M197.403 30C198.505 30 199.397 30.8954 199.397 32C199.397 33.1046 198.505 34 197.403 34C196.302 34 195.409 33.1046 195.409 32C195.409 30.8954 196.302 30 197.403 30Z" fill="#CC7F31" fill-opacity="0.2"/>
<path d="M42.8706 30C43.9718 30 44.8646 30.8954 44.8646 32C44.8646 33.1046 43.9718 34 42.8706 34C41.7693 34 40.8766 33.1046 40.8766 32C40.8766 30.8954 41.7693 30 42.8706 30Z" fill="#CC7F31" fill-opacity="0.2"/>
<path d="M155.53 30C156.631 30 157.524 30.8954 157.524 32C157.524 33.1046 156.631 34 155.53 34C154.429 34 153.536 33.1046 153.536 32C153.536 30.8954 154.429 30 155.53 30Z" fill="#CC7F31" fill-opacity="0.2"/>
<path d="M268.19 30C269.292 30 270.184 30.8954 270.184 32C270.184 33.1046 269.292 34 268.19 34C267.089 34 266.196 33.1046 266.196 32C266.196 30.8954 267.089 30 268.19 30Z" fill="#CC7F31" fill-opacity="0.2"/>
<path d="M21.9337 30C23.0349 30 23.9277 30.8954 23.9277 32C23.9277 33.1046 23.0349 34 21.9337 34C20.8324 34 19.9397 33.1046 19.9397 32C19.9397 30.8954 20.8324 30 21.9337 30Z" fill="#CC7F31" fill-opacity="0.2"/>
<path d="M134.593 30C135.694 30 136.587 30.8954 136.587 32C136.587 33.1046 135.694 34 134.593 34C133.492 34 132.599 33.1046 132.599 32C132.599 30.8954 133.492 30 134.593 30Z" fill="#CC7F31" fill-opacity="0.2"/>
<path d="M247.253 30C248.355 30 249.247 30.8954 249.247 32C249.247 33.1046 248.355 34 247.253 34C246.152 34 245.259 33.1046 245.259 32C245.259 30.8954 246.152 30 247.253 30Z" fill="#CC7F31" fill-opacity="0.2"/>
<path d="M104.683 30C105.785 30 106.677 30.8954 106.677 32C106.677 33.1046 105.785 34 104.683 34C103.582 34 102.689 33.1046 102.689 32C102.689 30.8954 103.582 30 104.683 30Z" fill="#CC7F31" fill-opacity="0.2"/>
<path d="M217.343 30C218.445 30 219.337 30.8954 219.337 32C219.337 33.1046 218.445 34 217.343 34C216.242 34 215.349 33.1046 215.349 32C215.349 30.8954 216.242 30 217.343 30Z" fill="#CC7F31" fill-opacity="0.2"/>
<path d="M63.8073 30C64.9086 30 65.8013 30.8954 65.8013 32C65.8013 33.1046 64.9086 34 63.8073 34C62.7061 34 61.8134 33.1046 61.8134 32C61.8134 30.8954 62.7061 30 63.8073 30Z" fill="#CC7F31" fill-opacity="0.2"/>
<path d="M176.467 30C177.568 30 178.461 30.8954 178.461 32C178.461 33.1046 177.568 34 176.467 34C175.365 34 174.473 33.1046 174.473 32C174.473 30.8954 175.365 30 176.467 30Z" fill="#CC7F31" fill-opacity="0.2"/>
<path d="M289.127 30C290.228 30 291.121 30.8954 291.121 32C291.121 33.1046 290.228 34 289.127 34C288.026 34 287.133 33.1046 287.133 32C287.133 30.8954 288.026 30 289.127 30Z" fill="#CC7F31" fill-opacity="0.2"/>
<path d="M11.964 30C13.0652 30 13.958 30.8954 13.958 32C13.958 33.1046 13.0652 34 11.964 34C10.8627 34 9.96997 33.1046 9.96997 32C9.96997 30.8954 10.8627 30 11.964 30Z" fill="#CC7F31" fill-opacity="0.2"/>
<path d="M124.623 30C125.724 30 126.617 30.8954 126.617 32C126.617 33.1046 125.724 34 124.623 34C123.522 34 122.629 33.1046 122.629 32C122.629 30.8954 123.522 30 124.623 30Z" fill="#CC7F31" fill-opacity="0.2"/>
<path d="M237.283 30C238.385 30 239.277 30.8954 239.277 32C239.277 33.1046 238.385 34 237.283 34C236.182 34 235.289 33.1046 235.289 32C235.289 30.8954 236.182 30 237.283 30Z" fill="#CC7F31" fill-opacity="0.2"/>
<path d="M94.714 30C95.8152 30 96.708 30.8954 96.708 32C96.708 33.1046 95.8152 34 94.714 34C93.6127 34 92.72 33.1046 92.72 32C92.72 30.8954 93.6127 30 94.714 30Z" fill="#CC7F31" fill-opacity="0.2"/>
<path d="M207.373 30C208.475 30 209.367 30.8954 209.367 32C209.367 33.1046 208.475 34 207.373 34C206.272 34 205.379 33.1046 205.379 32C205.379 30.8954 206.272 30 207.373 30Z" fill="#CC7F31" fill-opacity="0.2"/>
<path d="M53.8374 30C54.9386 30 55.8314 30.8954 55.8314 32C55.8314 33.1046 54.9386 34 53.8374 34C52.7361 34 51.8434 33.1046 51.8434 32C51.8434 30.8954 52.7361 30 53.8374 30Z" fill="#CC7F31" fill-opacity="0.2"/>
<path d="M166.497 30C167.598 30 168.491 30.8954 168.491 32C168.491 33.1046 167.598 34 166.497 34C165.396 34 164.503 33.1046 164.503 32C164.503 30.8954 165.396 30 166.497 30Z" fill="#CC7F31" fill-opacity="0.2"/>
<path d="M279.157 30C280.258 30 281.151 30.8954 281.151 32C281.151 33.1046 280.258 34 279.157 34C278.056 34 277.163 33.1046 277.163 32C277.163 30.8954 278.056 30 279.157 30Z" fill="#CC7F31" fill-opacity="0.2"/>
<path d="M32.9006 30C34.0019 30 34.8946 30.8954 34.8946 32C34.8946 33.1046 34.0019 34 32.9006 34C31.7994 34 30.9066 33.1046 30.9066 32C30.9066 30.8954 31.7994 30 32.9006 30Z" fill="#CC7F31" fill-opacity="0.2"/>
<path d="M145.56 30C146.661 30 147.554 30.8954 147.554 32C147.554 33.1046 146.661 34 145.56 34C144.459 34 143.566 33.1046 143.566 32C143.566 30.8954 144.459 30 145.56 30Z" fill="#CC7F31" fill-opacity="0.2"/>
<path d="M258.22 30C259.322 30 260.214 30.8954 260.214 32C260.214 33.1046 259.322 34 258.22 34C257.119 34 256.226 33.1046 256.226 32C256.226 30.8954 257.119 30 258.22 30Z" fill="#CC7F31" fill-opacity="0.2"/>
<path d="M74.774 30C75.8753 30 76.768 30.8954 76.768 32C76.768 33.1046 75.8753 34 74.774 34C73.6728 34 72.78 33.1046 72.78 32C72.78 30.8954 73.6728 30 74.774 30Z" fill="#CC7F31" fill-opacity="0.2"/>
<path d="M187.433 30C188.535 30 189.427 30.8954 189.427 32C189.427 33.1046 188.535 34 187.433 34C186.332 34 185.439 33.1046 185.439 32C185.439 30.8954 186.332 30 187.433 30Z" fill="#CC7F31" fill-opacity="0.2"/>
<path d="M114.653 20C115.755 20 116.647 20.8954 116.647 22C116.647 23.1046 115.755 24 114.653 24C113.552 24 112.659 23.1046 112.659 22C112.659 20.8954 113.552 20 114.653 20Z" fill="#CC7F31" fill-opacity="0.2"/>
<path d="M227.313 20C228.415 20 229.307 20.8954 229.307 22C229.307 23.1046 228.415 24 227.313 24C226.212 24 225.319 23.1046 225.319 22C225.319 20.8954 226.212 20 227.313 20Z" fill="#CC7F31" fill-opacity="0.2"/>
<path d="M84.744 20C85.8452 20 86.738 20.8954 86.738 22C86.738 23.1046 85.8452 24 84.744 24C83.6427 24 82.75 23.1046 82.75 22C82.75 20.8954 83.6427 20 84.744 20Z" fill="#CC7F31" fill-opacity="0.2"/>
<path d="M197.403 20C198.505 20 199.397 20.8954 199.397 22C199.397 23.1046 198.505 24 197.403 24C196.302 24 195.409 23.1046 195.409 22C195.409 20.8954 196.302 20 197.403 20Z" fill="#CC7F31" fill-opacity="0.2"/>
<path d="M42.8706 20C43.9718 20 44.8646 20.8954 44.8646 22C44.8646 23.1046 43.9718 24 42.8706 24C41.7693 24 40.8766 23.1046 40.8766 22C40.8766 20.8954 41.7693 20 42.8706 20Z" fill="#CC7F31" fill-opacity="0.2"/>
<path d="M155.53 20C156.631 20 157.524 20.8954 157.524 22C157.524 23.1046 156.631 24 155.53 24C154.429 24 153.536 23.1046 153.536 22C153.536 20.8954 154.429 20 155.53 20Z" fill="#CC7F31" fill-opacity="0.2"/>
<path d="M268.19 20C269.292 20 270.184 20.8954 270.184 22C270.184 23.1046 269.292 24 268.19 24C267.089 24 266.196 23.1046 266.196 22C266.196 20.8954 267.089 20 268.19 20Z" fill="#CC7F31" fill-opacity="0.2"/>
<path d="M21.9337 20C23.0349 20 23.9277 20.8954 23.9277 22C23.9277 23.1046 23.0349 24 21.9337 24C20.8324 24 19.9397 23.1046 19.9397 22C19.9397 20.8954 20.8324 20 21.9337 20Z" fill="#CC7F31" fill-opacity="0.2"/>
<path d="M134.593 20C135.694 20 136.587 20.8954 136.587 22C136.587 23.1046 135.694 24 134.593 24C133.492 24 132.599 23.1046 132.599 22C132.599 20.8954 133.492 20 134.593 20Z" fill="#CC7F31" fill-opacity="0.2"/>
<path d="M247.253 20C248.355 20 249.247 20.8954 249.247 22C249.247 23.1046 248.355 24 247.253 24C246.152 24 245.259 23.1046 245.259 22C245.259 20.8954 246.152 20 247.253 20Z" fill="#CC7F31" fill-opacity="0.2"/>
<path d="M104.683 20C105.785 20 106.677 20.8954 106.677 22C106.677 23.1046 105.785 24 104.683 24C103.582 24 102.689 23.1046 102.689 22C102.689 20.8954 103.582 20 104.683 20Z" fill="#CC7F31" fill-opacity="0.2"/>
<path d="M217.343 20C218.445 20 219.337 20.8954 219.337 22C219.337 23.1046 218.445 24 217.343 24C216.242 24 215.349 23.1046 215.349 22C215.349 20.8954 216.242 20 217.343 20Z" fill="#CC7F31" fill-opacity="0.2"/>
<path d="M63.8073 20C64.9086 20 65.8013 20.8954 65.8013 22C65.8013 23.1046 64.9086 24 63.8073 24C62.7061 24 61.8134 23.1046 61.8134 22C61.8134 20.8954 62.7061 20 63.8073 20Z" fill="#CC7F31" fill-opacity="0.2"/>
<path d="M176.467 20C177.568 20 178.461 20.8954 178.461 22C178.461 23.1046 177.568 24 176.467 24C175.365 24 174.473 23.1046 174.473 22C174.473 20.8954 175.365 20 176.467 20Z" fill="#CC7F31" fill-opacity="0.2"/>
<path d="M289.127 20C290.228 20 291.121 20.8954 291.121 22C291.121 23.1046 290.228 24 289.127 24C288.026 24 287.133 23.1046 287.133 22C287.133 20.8954 288.026 20 289.127 20Z" fill="#CC7F31" fill-opacity="0.2"/>
<path d="M114.653 10C115.755 10 116.647 10.8954 116.647 12C116.647 13.1046 115.755 14 114.653 14C113.552 14 112.659 13.1046 112.659 12C112.659 10.8954 113.552 10 114.653 10Z" fill="#CC7F31" fill-opacity="0.2"/>
<path d="M227.313 10C228.415 10 229.307 10.8954 229.307 12C229.307 13.1046 228.415 14 227.313 14C226.212 14 225.319 13.1046 225.319 12C225.319 10.8954 226.212 10 227.313 10Z" fill="#CC7F31" fill-opacity="0.2"/>
<path d="M84.744 10C85.8452 10 86.738 10.8954 86.738 12C86.738 13.1046 85.8452 14 84.744 14C83.6427 14 82.75 13.1046 82.75 12C82.75 10.8954 83.6427 10 84.744 10Z" fill="#CC7F31" fill-opacity="0.2"/>
<path d="M197.403 10C198.505 10 199.397 10.8954 199.397 12C199.397 13.1046 198.505 14 197.403 14C196.302 14 195.409 13.1046 195.409 12C195.409 10.8954 196.302 10 197.403 10Z" fill="#CC7F31" fill-opacity="0.2"/>
<path d="M42.8706 10C43.9718 10 44.8646 10.8954 44.8646 12C44.8646 13.1046 43.9718 14 42.8706 14C41.7693 14 40.8766 13.1046 40.8766 12C40.8766 10.8954 41.7693 10 42.8706 10Z" fill="#CC7F31" fill-opacity="0.2"/>
<path d="M155.53 10C156.631 10 157.524 10.8954 157.524 12C157.524 13.1046 156.631 14 155.53 14C154.429 14 153.536 13.1046 153.536 12C153.536 10.8954 154.429 10 155.53 10Z" fill="#CC7F31" fill-opacity="0.2"/>
<path d="M268.19 10C269.292 10 270.184 10.8954 270.184 12C270.184 13.1046 269.292 14 268.19 14C267.089 14 266.196 13.1046 266.196 12C266.196 10.8954 267.089 10 268.19 10Z" fill="#CC7F31" fill-opacity="0.2"/>
<path d="M21.9337 10C23.0349 10 23.9277 10.8954 23.9277 12C23.9277 13.1046 23.0349 14 21.9337 14C20.8324 14 19.9397 13.1046 19.9397 12C19.9397 10.8954 20.8324 10 21.9337 10Z" fill="#CC7F31" fill-opacity="0.2"/>
<path d="M134.593 10C135.694 10 136.587 10.8954 136.587 12C136.587 13.1046 135.694 14 134.593 14C133.492 14 132.599 13.1046 132.599 12C132.599 10.8954 133.492 10 134.593 10Z" fill="#CC7F31" fill-opacity="0.2"/>
<path d="M247.253 10C248.355 10 249.247 10.8954 249.247 12C249.247 13.1046 248.355 14 247.253 14C246.152 14 245.259 13.1046 245.259 12C245.259 10.8954 246.152 10 247.253 10Z" fill="#CC7F31" fill-opacity="0.2"/>
<path d="M104.683 10C105.785 10 106.677 10.8954 106.677 12C106.677 13.1046 105.785 14 104.683 14C103.582 14 102.689 13.1046 102.689 12C102.689 10.8954 103.582 10 104.683 10Z" fill="#CC7F31" fill-opacity="0.2"/>
<path d="M217.343 10C218.445 10 219.337 10.8954 219.337 12C219.337 13.1046 218.445 14 217.343 14C216.242 14 215.349 13.1046 215.349 12C215.349 10.8954 216.242 10 217.343 10Z" fill="#CC7F31" fill-opacity="0.2"/>
<path d="M63.8073 10C64.9086 10 65.8013 10.8954 65.8013 12C65.8013 13.1046 64.9086 14 63.8073 14C62.7061 14 61.8134 13.1046 61.8134 12C61.8134 10.8954 62.7061 10 63.8073 10Z" fill="#CC7F31" fill-opacity="0.2"/>
<path d="M176.467 10C177.568 10 178.461 10.8954 178.461 12C178.461 13.1046 177.568 14 176.467 14C175.365 14 174.473 13.1046 174.473 12C174.473 10.8954 175.365 10 176.467 10Z" fill="#CC7F31" fill-opacity="0.2"/>
<path d="M289.127 10C290.228 10 291.121 10.8954 291.121 12C291.121 13.1046 290.228 14 289.127 14C288.026 14 287.133 13.1046 287.133 12C287.133 10.8954 288.026 10 289.127 10Z" fill="#CC7F31" fill-opacity="0.2"/>
<path d="M11.964 10C13.0652 10 13.958 10.8954 13.958 12C13.958 13.1046 13.0652 14 11.964 14C10.8627 14 9.96997 13.1046 9.96997 12C9.96997 10.8954 10.8627 10 11.964 10Z" fill="#CC7F31" fill-opacity="0.2"/>
<path d="M124.623 10C125.724 10 126.617 10.8954 126.617 12C126.617 13.1046 125.724 14 124.623 14C123.522 14 122.629 13.1046 122.629 12C122.629 10.8954 123.522 10 124.623 10Z" fill="#CC7F31" fill-opacity="0.2"/>
<path d="M237.283 10C238.385 10 239.277 10.8954 239.277 12C239.277 13.1046 238.385 14 237.283 14C236.182 14 235.289 13.1046 235.289 12C235.289 10.8954 236.182 10 237.283 10Z" fill="#CC7F31" fill-opacity="0.2"/>
<path d="M94.714 10C95.8152 10 96.708 10.8954 96.708 12C96.708 13.1046 95.8152 14 94.714 14C93.6127 14 92.72 13.1046 92.72 12C92.72 10.8954 93.6127 10 94.714 10Z" fill="#CC7F31" fill-opacity="0.2"/>
<path d="M207.373 10C208.475 10 209.367 10.8954 209.367 12C209.367 13.1046 208.475 14 207.373 14C206.272 14 205.379 13.1046 205.379 12C205.379 10.8954 206.272 10 207.373 10Z" fill="#CC7F31" fill-opacity="0.2"/>
<path d="M53.8374 10C54.9386 10 55.8314 10.8954 55.8314 12C55.8314 13.1046 54.9386 14 53.8374 14C52.7361 14 51.8434 13.1046 51.8434 12C51.8434 10.8954 52.7361 10 53.8374 10Z" fill="#CC7F31" fill-opacity="0.2"/>
<path d="M166.497 10C167.598 10 168.491 10.8954 168.491 12C168.491 13.1046 167.598 14 166.497 14C165.396 14 164.503 13.1046 164.503 12C164.503 10.8954 165.396 10 166.497 10Z" fill="#CC7F31" fill-opacity="0.2"/>
<path d="M279.157 10C280.258 10 281.151 10.8954 281.151 12C281.151 13.1046 280.258 14 279.157 14C278.056 14 277.163 13.1046 277.163 12C277.163 10.8954 278.056 10 279.157 10Z" fill="#CC7F31" fill-opacity="0.2"/>
<path d="M32.9006 10C34.0019 10 34.8946 10.8954 34.8946 12C34.8946 13.1046 34.0019 14 32.9006 14C31.7994 14 30.9066 13.1046 30.9066 12C30.9066 10.8954 31.7994 10 32.9006 10Z" fill="#CC7F31" fill-opacity="0.2"/>
<path d="M145.56 10C146.661 10 147.554 10.8954 147.554 12C147.554 13.1046 146.661 14 145.56 14C144.459 14 143.566 13.1046 143.566 12C143.566 10.8954 144.459 10 145.56 10Z" fill="#CC7F31" fill-opacity="0.2"/>
<path d="M258.22 10C259.322 10 260.214 10.8954 260.214 12C260.214 13.1046 259.322 14 258.22 14C257.119 14 256.226 13.1046 256.226 12C256.226 10.8954 257.119 10 258.22 10Z" fill="#CC7F31" fill-opacity="0.2"/>
<path d="M74.774 10C75.8753 10 76.768 10.8954 76.768 12C76.768 13.1046 75.8753 14 74.774 14C73.6728 14 72.78 13.1046 72.78 12C72.78 10.8954 73.6728 10 74.774 10Z" fill="#CC7F31" fill-opacity="0.2"/>
<path d="M187.433 10C188.535 10 189.427 10.8954 189.427 12C189.427 13.1046 188.535 14 187.433 14C186.332 14 185.439 13.1046 185.439 12C185.439 10.8954 186.332 10 187.433 10Z" fill="#CC7F31" fill-opacity="0.2"/>
<path d="M114.653 -1.98695e-07C115.755 -3.08432e-07 116.647 0.89543 116.647 2C116.647 3.10457 115.755 4 114.653 4C113.552 4 112.659 3.10457 112.659 2C112.659 0.895431 113.552 -8.89589e-08 114.653 -1.98695e-07Z" fill="#CC7F31" fill-opacity="0.2"/>
<path d="M227.313 -1.98695e-07C228.415 -3.08432e-07 229.307 0.89543 229.307 2C229.307 3.10457 228.415 4 227.313 4C226.212 4 225.319 3.10457 225.319 2C225.319 0.895431 226.212 -8.89589e-08 227.313 -1.98695e-07Z" fill="#CC7F31" fill-opacity="0.2"/>
<path d="M84.744 -1.98695e-07C85.8452 -3.08432e-07 86.738 0.89543 86.738 2C86.738 3.10457 85.8452 4 84.744 4C83.6427 4 82.75 3.10457 82.75 2C82.75 0.895431 83.6427 -8.89589e-08 84.744 -1.98695e-07Z" fill="#CC7F31" fill-opacity="0.2"/>
<path d="M197.403 -1.98695e-07C198.505 -3.08432e-07 199.397 0.89543 199.397 2C199.397 3.10457 198.505 4 197.403 4C196.302 4 195.409 3.10457 195.409 2C195.409 0.895431 196.302 -8.89589e-08 197.403 -1.98695e-07Z" fill="#CC7F31" fill-opacity="0.2"/>
<path d="M42.8706 -1.98695e-07C43.9718 -3.08432e-07 44.8646 0.89543 44.8646 2C44.8646 3.10457 43.9718 4 42.8706 4C41.7693 4 40.8766 3.10457 40.8766 2C40.8766 0.895431 41.7693 -8.89589e-08 42.8706 -1.98695e-07Z" fill="#CC7F31" fill-opacity="0.2"/>
<path d="M155.53 -1.98695e-07C156.631 -3.08432e-07 157.524 0.89543 157.524 2C157.524 3.10457 156.631 4 155.53 4C154.429 4 153.536 3.10457 153.536 2C153.536 0.895431 154.429 -8.89589e-08 155.53 -1.98695e-07Z" fill="#CC7F31" fill-opacity="0.2"/>
<path d="M268.19 -1.98695e-07C269.292 -3.08432e-07 270.184 0.89543 270.184 2C270.184 3.10457 269.292 4 268.19 4C267.089 4 266.196 3.10457 266.196 2C266.196 0.895431 267.089 -8.89589e-08 268.19 -1.98695e-07Z" fill="#CC7F31" fill-opacity="0.2"/>
<path d="M21.9337 -1.98695e-07C23.0349 -3.08432e-07 23.9277 0.89543 23.9277 2C23.9277 3.10457 23.0349 4 21.9337 4C20.8324 4 19.9397 3.10457 19.9397 2C19.9397 0.895431 20.8324 -8.89589e-08 21.9337 -1.98695e-07Z" fill="#CC7F31" fill-opacity="0.2"/>
<path d="M134.593 -1.98695e-07C135.694 -3.08432e-07 136.587 0.89543 136.587 2C136.587 3.10457 135.694 4 134.593 4C133.492 4 132.599 3.10457 132.599 2C132.599 0.895431 133.492 -8.89589e-08 134.593 -1.98695e-07Z" fill="#CC7F31" fill-opacity="0.2"/>
<path d="M247.253 -1.98695e-07C248.355 -3.08432e-07 249.247 0.89543 249.247 2C249.247 3.10457 248.355 4 247.253 4C246.152 4 245.259 3.10457 245.259 2C245.259 0.895431 246.152 -8.89589e-08 247.253 -1.98695e-07Z" fill="#CC7F31" fill-opacity="0.2"/>
<path d="M104.683 -1.98695e-07C105.785 -3.08432e-07 106.677 0.89543 106.677 2C106.677 3.10457 105.785 4 104.683 4C103.582 4 102.689 3.10457 102.689 2C102.689 0.895431 103.582 -8.89589e-08 104.683 -1.98695e-07Z" fill="#CC7F31" fill-opacity="0.2"/>
<path d="M217.343 -1.98695e-07C218.445 -3.08432e-07 219.337 0.89543 219.337 2C219.337 3.10457 218.445 4 217.343 4C216.242 4 215.349 3.10457 215.349 2C215.349 0.895431 216.242 -8.89589e-08 217.343 -1.98695e-07Z" fill="#CC7F31" fill-opacity="0.2"/>
<path d="M63.8073 -1.98695e-07C64.9086 -3.08432e-07 65.8013 0.89543 65.8013 2C65.8013 3.10457 64.9086 4 63.8073 4C62.7061 4 61.8134 3.10457 61.8134 2C61.8134 0.895431 62.7061 -8.89589e-08 63.8073 -1.98695e-07Z" fill="#CC7F31" fill-opacity="0.2"/>
<path d="M176.467 -1.98695e-07C177.568 -3.08432e-07 178.461 0.89543 178.461 2C178.461 3.10457 177.568 4 176.467 4C175.365 4 174.473 3.10457 174.473 2C174.473 0.895431 175.365 -8.89589e-08 176.467 -1.98695e-07Z" fill="#CC7F31" fill-opacity="0.2"/>
<path d="M289.127 -1.98695e-07C290.228 -3.08432e-07 291.121 0.89543 291.121 2C291.121 3.10457 290.228 4 289.127 4C288.026 4 287.133 3.10457 287.133 2C287.133 0.895431 288.026 -8.89589e-08 289.127 -1.98695e-07Z" fill="#CC7F31" fill-opacity="0.2"/>
<path d="M11.964 -1.98695e-07C13.0652 -3.08432e-07 13.958 0.89543 13.958 2C13.958 3.10457 13.0652 4 11.964 4C10.8627 4 9.96997 3.10457 9.96997 2C9.96997 0.895431 10.8627 -8.89589e-08 11.964 -1.98695e-07Z" fill="#CC7F31" fill-opacity="0.2"/>
<path d="M124.623 -1.98695e-07C125.724 -3.08432e-07 126.617 0.89543 126.617 2C126.617 3.10457 125.724 4 124.623 4C123.522 4 122.629 3.10457 122.629 2C122.629 0.895431 123.522 -8.89589e-08 124.623 -1.98695e-07Z" fill="#CC7F31" fill-opacity="0.2"/>
<path d="M237.283 -1.98695e-07C238.385 -3.08432e-07 239.277 0.89543 239.277 2C239.277 3.10457 238.385 4 237.283 4C236.182 4 235.289 3.10457 235.289 2C235.289 0.895431 236.182 -8.89589e-08 237.283 -1.98695e-07Z" fill="#CC7F31" fill-opacity="0.2"/>
<path d="M94.714 -1.98695e-07C95.8152 -3.08432e-07 96.708 0.89543 96.708 2C96.708 3.10457 95.8152 4 94.714 4C93.6127 4 92.72 3.10457 92.72 2C92.72 0.895431 93.6127 -8.89589e-08 94.714 -1.98695e-07Z" fill="#CC7F31" fill-opacity="0.2"/>
<path d="M207.373 -1.98695e-07C208.475 -3.08432e-07 209.367 0.89543 209.367 2C209.367 3.10457 208.475 4 207.373 4C206.272 4 205.379 3.10457 205.379 2C205.379 0.895431 206.272 -8.89589e-08 207.373 -1.98695e-07Z" fill="#CC7F31" fill-opacity="0.2"/>
<path d="M53.8374 -1.98695e-07C54.9386 -3.08432e-07 55.8314 0.89543 55.8314 2C55.8314 3.10457 54.9386 4 53.8374 4C52.7361 4 51.8434 3.10457 51.8434 2C51.8434 0.895431 52.7361 -8.89589e-08 53.8374 -1.98695e-07Z" fill="#CC7F31" fill-opacity="0.2"/>
<path d="M166.497 -1.98695e-07C167.598 -3.08432e-07 168.491 0.89543 168.491 2C168.491 3.10457 167.598 4 166.497 4C165.396 4 164.503 3.10457 164.503 2C164.503 0.895431 165.396 -8.89589e-08 166.497 -1.98695e-07Z" fill="#CC7F31" fill-opacity="0.2"/>
<path d="M279.157 -1.98695e-07C280.258 -3.08432e-07 281.151 0.89543 281.151 2C281.151 3.10457 280.258 4 279.157 4C278.056 4 277.163 3.10457 277.163 2C277.163 0.895431 278.056 -8.89589e-08 279.157 -1.98695e-07Z" fill="#CC7F31" fill-opacity="0.2"/>
<path d="M32.9006 -1.98695e-07C34.0019 -3.08432e-07 34.8946 0.89543 34.8946 2C34.8946 3.10457 34.0019 4 32.9006 4C31.7994 4 30.9066 3.10457 30.9066 2C30.9066 0.895431 31.7994 -8.89589e-08 32.9006 -1.98695e-07Z" fill="#CC7F31" fill-opacity="0.2"/>
<path d="M145.56 -1.98695e-07C146.661 -3.08432e-07 147.554 0.89543 147.554 2C147.554 3.10457 146.661 4 145.56 4C144.459 4 143.566 3.10457 143.566 2C143.566 0.895431 144.459 -8.89589e-08 145.56 -1.98695e-07Z" fill="#CC7F31" fill-opacity="0.2"/>
<path d="M258.22 -1.98695e-07C259.322 -3.08432e-07 260.214 0.89543 260.214 2C260.214 3.10457 259.322 4 258.22 4C257.119 4 256.226 3.10457 256.226 2C256.226 0.895431 257.119 -8.89589e-08 258.22 -1.98695e-07Z" fill="#CC7F31" fill-opacity="0.2"/>
<path d="M74.774 -1.98695e-07C75.8753 -3.08432e-07 76.768 0.89543 76.768 2C76.768 3.10457 75.8753 4 74.774 4C73.6728 4 72.78 3.10457 72.78 2C72.78 0.895431 73.6728 -8.89589e-08 74.774 -1.98695e-07Z" fill="#CC7F31" fill-opacity="0.2"/>
<path d="M187.433 -1.98695e-07C188.535 -3.08432e-07 189.427 0.89543 189.427 2C189.427 3.10457 188.535 4 187.433 4C186.332 4 185.439 3.10457 185.439 2C185.439 0.895431 186.332 -8.89589e-08 187.433 -1.98695e-07Z" fill="#CC7F31" fill-opacity="0.2"/>
<path d="M11.964 20C13.0652 20 13.958 20.8954 13.958 22C13.958 23.1046 13.0652 24 11.964 24C10.8627 24 9.96997 23.1046 9.96997 22C9.96997 20.8954 10.8627 20 11.964 20Z" fill="#CC7F31" fill-opacity="0.2"/>
<path d="M124.623 20C125.724 20 126.617 20.8954 126.617 22C126.617 23.1046 125.724 24 124.623 24C123.522 24 122.629 23.1046 122.629 22C122.629 20.8954 123.522 20 124.623 20Z" fill="#CC7F31" fill-opacity="0.2"/>
<path d="M237.283 20C238.385 20 239.277 20.8954 239.277 22C239.277 23.1046 238.385 24 237.283 24C236.182 24 235.289 23.1046 235.289 22C235.289 20.8954 236.182 20 237.283 20Z" fill="#CC7F31" fill-opacity="0.2"/>
<path d="M94.714 20C95.8152 20 96.708 20.8954 96.708 22C96.708 23.1046 95.8152 24 94.714 24C93.6127 24 92.72 23.1046 92.72 22C92.72 20.8954 93.6127 20 94.714 20Z" fill="#CC7F31" fill-opacity="0.2"/>
<path d="M207.373 20C208.475 20 209.367 20.8954 209.367 22C209.367 23.1046 208.475 24 207.373 24C206.272 24 205.379 23.1046 205.379 22C205.379 20.8954 206.272 20 207.373 20Z" fill="#CC7F31" fill-opacity="0.2"/>
<path d="M53.8374 20C54.9386 20 55.8314 20.8954 55.8314 22C55.8314 23.1046 54.9386 24 53.8374 24C52.7361 24 51.8434 23.1046 51.8434 22C51.8434 20.8954 52.7361 20 53.8374 20Z" fill="#CC7F31" fill-opacity="0.2"/>
<path d="M166.497 20C167.598 20 168.491 20.8954 168.491 22C168.491 23.1046 167.598 24 166.497 24C165.396 24 164.503 23.1046 164.503 22C164.503 20.8954 165.396 20 166.497 20Z" fill="#CC7F31" fill-opacity="0.2"/>
<path d="M279.157 20C280.258 20 281.151 20.8954 281.151 22C281.151 23.1046 280.258 24 279.157 24C278.056 24 277.163 23.1046 277.163 22C277.163 20.8954 278.056 20 279.157 20Z" fill="#CC7F31" fill-opacity="0.2"/>
<path d="M32.9006 20C34.0019 20 34.8946 20.8954 34.8946 22C34.8946 23.1046 34.0019 24 32.9006 24C31.7994 24 30.9066 23.1046 30.9066 22C30.9066 20.8954 31.7994 20 32.9006 20Z" fill="#CC7F31" fill-opacity="0.2"/>
<path d="M145.56 20C146.661 20 147.554 20.8954 147.554 22C147.554 23.1046 146.661 24 145.56 24C144.459 24 143.566 23.1046 143.566 22C143.566 20.8954 144.459 20 145.56 20Z" fill="#CC7F31" fill-opacity="0.2"/>
<path d="M258.22 20C259.322 20 260.214 20.8954 260.214 22C260.214 23.1046 259.322 24 258.22 24C257.119 24 256.226 23.1046 256.226 22C256.226 20.8954 257.119 20 258.22 20Z" fill="#CC7F31" fill-opacity="0.2"/>
<path d="M74.774 20C75.8753 20 76.768 20.8954 76.768 22C76.768 23.1046 75.8753 24 74.774 24C73.6728 24 72.78 23.1046 72.78 22C72.78 20.8954 73.6728 20 74.774 20Z" fill="#CC7F31" fill-opacity="0.2"/>
<path d="M187.433 20C188.535 20 189.427 20.8954 189.427 22C189.427 23.1046 188.535 24 187.433 24C186.332 24 185.439 23.1046 185.439 22C185.439 20.8954 186.332 20 187.433 20Z" fill="#CC7F31" fill-opacity="0.2"/>
</svg>
