<svg width="263" height="230" viewBox="0 0 263 230" fill="none" xmlns="http://www.w3.org/2000/svg">
<path d="M117.548 181.268C65.9892 183.498 48.1865 171.399 40.0354 149.833C29.881 122.989 1.29933 133.477 0.0340801 111.989C-1.23117 90.5014 32.963 79.9944 64.3428 74.5469C104.717 67.5334 177.672 61.4477 192.027 70.0006C206.383 78.5536 198.678 92.0015 208.492 99.7978C218.306 107.594 256.961 104.778 262.752 124.799C268.494 144.536 173.316 178.873 117.548 181.268Z" fill="#FFF1D3"/>
<g style="mix-blend-mode:multiply" opacity="0.6">
<path d="M217.478 133.075C213.155 124.608 155.132 98.2056 120.403 97.2385C95.5117 96.5806 69.0145 98.2648 51.3659 118.075C38.7864 132.161 48.811 146.109 53.3854 152.339C62.0799 164.182 85.0166 175.801 134.394 173.426C179.805 171.241 227.941 153.523 217.478 133.075Z" fill="#E4BCE8"/>
</g>
<path d="M2.86466 117.904C2.98154 118.024 3.08215 118.154 3.16475 118.292C3.24689 118.436 3.3147 118.586 3.36752 118.739C3.41618 118.937 3.36752 119.081 3.21342 119.062C3.14476 119.045 3.08487 119.01 3.04309 118.963C2.92631 118.837 2.8232 118.702 2.73489 118.562C2.64658 118.412 2.57597 118.255 2.52402 118.094C2.52402 117.89 2.56457 117.759 2.70245 117.792C2.77083 117.813 2.82815 117.852 2.86466 117.904Z" fill="white"/>
<path d="M3.87039 119.463C4.0032 119.567 4.11538 119.687 4.20293 119.818C4.31347 119.944 4.40855 120.079 4.4868 120.22C4.5679 120.397 4.4868 120.549 4.38947 120.549C4.31783 120.549 4.24855 120.528 4.19481 120.489C4.05188 120.39 3.92636 120.274 3.82173 120.147C3.71592 120.008 3.6289 119.86 3.56219 119.706C3.4892 119.516 3.56219 119.371 3.69196 119.384C3.76141 119.392 3.82497 119.42 3.87039 119.463Z" fill="white"/>
<path d="M8.03921 123.187C8.19624 123.238 8.34367 123.306 8.47719 123.391C8.62427 123.476 8.75539 123.578 8.86649 123.693C9.00437 123.831 9.01248 123.983 8.86649 124.035C8.8019 124.058 8.72832 124.058 8.66373 124.035C8.50065 123.983 8.34768 123.912 8.20954 123.825C8.06246 123.74 7.93133 123.638 7.82023 123.522C7.68235 123.377 7.68235 123.22 7.82023 123.18C7.89151 123.159 7.97004 123.161 8.03921 123.187Z" fill="white"/>
<path d="M9.70189 124.141C9.86144 124.185 10.0139 124.245 10.1561 124.318C10.308 124.388 10.4472 124.474 10.5697 124.575C10.7157 124.707 10.7319 124.864 10.5697 124.924C10.5073 124.944 10.4375 124.944 10.3751 124.924C10.2094 124.891 10.0508 124.837 9.90465 124.766C9.75198 124.687 9.61289 124.592 9.49101 124.483C9.34502 124.345 9.33691 124.193 9.49101 124.134C9.56039 124.118 9.63422 124.12 9.70189 124.141Z" fill="white"/>
<path d="M11.2591 124.924C11.423 124.955 11.5811 125.004 11.7295 125.068C11.8819 125.135 12.0235 125.217 12.1513 125.312C12.3054 125.443 12.3297 125.595 12.1999 125.661C12.1368 125.678 12.0683 125.678 12.0053 125.661C11.8414 125.629 11.6832 125.58 11.5349 125.516C11.3767 125.451 11.2318 125.366 11.105 125.266C10.9509 125.141 10.9347 124.976 11.0644 124.917C11.1284 124.902 11.1969 124.904 11.2591 124.924Z" fill="white"/>
<path d="M13.4084 125.805C13.5129 125.805 13.616 125.825 13.7085 125.864C13.8057 125.898 13.8917 125.95 13.9599 126.016C14.1059 126.167 14.0816 126.332 13.895 126.384H13.8302C13.7267 126.384 13.6244 126.366 13.5301 126.332C13.4305 126.295 13.344 126.238 13.2786 126.167C13.1327 126.016 13.157 125.851 13.3435 125.805H13.4084Z" fill="white"/>
<path d="M15.2576 126.509C15.3608 126.504 15.4639 126.52 15.5577 126.555C15.6579 126.588 15.747 126.64 15.8172 126.707C15.9632 126.851 15.9389 127.016 15.7605 127.069H15.6875C15.5867 127.076 15.4853 127.06 15.3955 127.022C15.2958 126.989 15.2071 126.937 15.136 126.871C14.9819 126.726 15.0062 126.562 15.1927 126.509H15.2576Z" fill="white"/>
<path d="M1.84275 116.529C1.76268 116.405 1.69749 116.275 1.64809 116.14C1.60014 116.001 1.57292 115.857 1.56699 115.713C1.56699 115.502 1.69676 115.404 1.81842 115.483C1.86677 115.516 1.90789 115.556 1.94007 115.601C2.01681 115.721 2.07927 115.846 2.12662 115.976C2.16679 116.11 2.19391 116.246 2.20772 116.384C2.20772 116.588 2.10229 116.706 1.96441 116.634C1.91419 116.607 1.8725 116.571 1.84275 116.529Z" fill="white"/>
<path d="M1.38854 114.963C1.31767 114.832 1.26595 114.695 1.23444 114.555C1.20595 114.411 1.20595 114.264 1.23444 114.121C1.275 113.91 1.39666 113.831 1.51831 113.923C1.56178 113.961 1.59494 114.006 1.61564 114.055C1.6702 114.184 1.71356 114.316 1.74541 114.45C1.76584 114.589 1.76584 114.731 1.74541 114.871C1.74541 115.068 1.60753 115.173 1.47776 115.088C1.43832 115.051 1.40802 115.009 1.38854 114.963Z" fill="white"/>
<path d="M1.11277 113.351C1.05667 113.214 1.02126 113.073 1.00733 112.93C0.983221 112.788 0.983221 112.644 1.00733 112.502C1.0641 112.298 1.20198 112.226 1.31553 112.338C1.35533 112.378 1.38308 112.425 1.39664 112.476C1.43941 112.609 1.46656 112.746 1.47774 112.884C1.49802 113.024 1.49802 113.165 1.47774 113.305C1.47774 113.502 1.31553 113.588 1.19387 113.489C1.15456 113.448 1.12686 113.401 1.11277 113.351Z" fill="white"/>
<path d="M1.99682 105.482C2.00142 105.339 2.03147 105.197 2.08604 105.061C2.13048 104.928 2.19591 104.799 2.28069 104.679C2.40235 104.515 2.54834 104.508 2.61323 104.679C2.63005 104.733 2.63005 104.79 2.61323 104.844C2.6054 104.985 2.57541 105.124 2.52401 105.258C2.4788 105.389 2.41625 105.514 2.33747 105.633C2.22392 105.798 2.07793 105.818 2.00493 105.679C1.99 105.614 1.98727 105.548 1.99682 105.482Z" fill="white"/>
<path d="M2.51592 104.054C2.53256 103.911 2.57069 103.77 2.62947 103.633C2.67806 103.503 2.74905 103.379 2.84035 103.265C2.97822 103.114 3.13233 103.114 3.18099 103.265C3.19371 103.319 3.19371 103.375 3.18099 103.429C3.16041 103.568 3.12236 103.705 3.06744 103.837C3.01726 103.967 2.94636 104.091 2.85657 104.206C2.7268 104.357 2.5727 104.364 2.51592 104.206C2.50875 104.156 2.50875 104.105 2.51592 104.054Z" fill="white"/>
<path d="M3.35131 102.186C3.35644 102.098 3.37833 102.012 3.41619 101.929C3.45285 101.854 3.51124 101.786 3.58651 101.732C3.76495 101.614 3.91905 101.732 3.92716 101.916C3.92106 102.002 3.89635 102.087 3.85416 102.166C3.82068 102.242 3.765 102.31 3.69195 102.364C3.52163 102.489 3.35942 102.416 3.35131 102.199V102.186Z" fill="white"/>
<path d="M4.17047 100.673C4.1806 100.586 4.21087 100.501 4.25968 100.423C4.30313 100.348 4.36693 100.283 4.44623 100.232C4.64088 100.127 4.77876 100.232 4.77065 100.449C4.76338 100.532 4.73288 100.613 4.68143 100.686C4.64364 100.758 4.58523 100.821 4.51111 100.87C4.32457 100.975 4.17047 100.87 4.17858 100.673H4.17047Z" fill="white"/>
<path d="M246.336 142.49C246.501 142.343 246.683 142.208 246.879 142.089C247.064 141.967 247.262 141.859 247.471 141.767C247.723 141.674 247.877 141.727 247.828 141.892C247.797 141.971 247.747 142.044 247.682 142.109C247.515 142.261 247.334 142.401 247.139 142.53C246.951 142.645 246.75 142.746 246.539 142.832C246.287 142.924 246.125 142.872 246.182 142.707C246.215 142.628 246.268 142.554 246.336 142.49Z" fill="white"/>
<path d="M248.485 141.102C248.657 140.964 248.839 140.835 249.029 140.714C249.209 140.585 249.405 140.47 249.613 140.372C249.856 140.273 250.018 140.319 249.969 140.49C249.941 140.569 249.894 140.642 249.831 140.707C249.672 140.866 249.492 141.012 249.296 141.141C249.116 141.272 248.917 141.385 248.704 141.477C248.461 141.569 248.299 141.516 248.347 141.352C248.371 141.262 248.418 141.177 248.485 141.102Z" fill="white"/>
<path d="M250.602 139.648C250.755 139.487 250.926 139.337 251.113 139.201C251.288 139.065 251.481 138.946 251.689 138.845C251.924 138.733 252.094 138.779 252.046 138.944C252.02 139.024 251.976 139.1 251.916 139.168C251.758 139.33 251.584 139.482 251.397 139.622C251.218 139.753 251.025 139.872 250.821 139.977C250.578 140.089 250.415 140.036 250.456 139.872C250.486 139.79 250.536 139.714 250.602 139.648Z" fill="white"/>
<path d="M254.195 136.852C254.337 136.679 254.497 136.516 254.673 136.365C254.837 136.216 255.019 136.081 255.217 135.964C255.452 135.832 255.614 135.858 255.59 136.029C255.571 136.114 255.533 136.194 255.476 136.266C255.332 136.44 255.169 136.602 254.99 136.753C254.825 136.903 254.643 137.039 254.446 137.161C254.211 137.293 254.049 137.26 254.073 137.089C254.094 137.004 254.136 136.923 254.195 136.852Z" fill="white"/>
<path d="M256.596 134.661C256.665 134.544 256.749 134.434 256.847 134.332C256.936 134.234 257.042 134.147 257.163 134.075C257.407 133.944 257.545 134.029 257.472 134.266C257.472 134.266 257.472 134.325 257.472 134.358C257.407 134.479 257.325 134.594 257.228 134.7C257.138 134.8 257.025 134.885 256.896 134.95C256.644 135.069 256.507 134.95 256.588 134.746C256.588 134.718 256.591 134.689 256.596 134.661Z" fill="white"/>
<path d="M258.453 132.641C258.51 132.518 258.583 132.401 258.672 132.292C258.754 132.186 258.855 132.091 258.972 132.009C259.207 131.865 259.361 131.93 259.305 132.174V132.259C259.249 132.388 259.172 132.509 259.078 132.621C258.993 132.726 258.892 132.821 258.777 132.904C258.542 133.049 258.396 132.97 258.453 132.733V132.641Z" fill="white"/>
<path d="M224.778 153.471C226.505 152.708 228.233 151.944 229.936 151.148C231.639 150.352 233.359 149.55 235.046 148.707C236.733 147.865 238.428 147.023 240.083 146.122C241.737 145.22 243.392 144.306 245.03 143.352C245.249 143.22 245.476 143.187 245.525 143.286C245.573 143.385 245.436 143.569 245.225 143.701C243.603 144.688 241.98 145.674 240.302 146.556C238.623 147.438 236.952 148.326 235.265 149.188C233.578 150.05 231.85 150.832 230.131 151.609C228.411 152.385 226.668 153.129 224.932 153.859C224.689 153.958 224.462 153.951 224.429 153.859C224.397 153.767 224.551 153.576 224.778 153.471Z" fill="white"/>
<path d="M223.699 154.313C223.545 154.418 223.376 154.508 223.196 154.583C223.024 154.66 222.838 154.715 222.645 154.747C222.385 154.787 222.247 154.688 222.353 154.53C222.392 154.472 222.444 154.421 222.507 154.379C222.66 154.272 222.829 154.182 223.01 154.109C223.183 154.036 223.365 153.978 223.553 153.938C223.813 153.898 223.951 153.997 223.845 154.155C223.807 154.214 223.758 154.267 223.699 154.313Z" fill="white"/>
<path d="M221.704 155.135C221.55 155.244 221.378 155.335 221.193 155.405C221.021 155.476 220.838 155.529 220.65 155.563C220.382 155.602 220.252 155.504 220.358 155.339C220.396 155.285 220.446 155.236 220.504 155.194C220.66 155.088 220.831 154.997 221.015 154.925C221.188 154.856 221.37 154.803 221.558 154.767C221.826 154.727 221.955 154.826 221.85 154.984C221.814 155.041 221.764 155.093 221.704 155.135Z" fill="white"/>
<path d="M219.701 155.945C219.003 156.273 218.29 156.563 217.576 156.839C216.862 157.116 216.132 157.385 215.402 157.609C215.151 157.688 214.948 157.655 214.948 157.537C214.948 157.418 215.078 157.32 215.264 157.234C215.97 156.918 216.684 156.642 217.397 156.359C218.111 156.076 218.825 155.806 219.563 155.576C219.806 155.491 220.009 155.517 220.017 155.635C220.025 155.754 219.887 155.846 219.701 155.945Z" fill="white"/>
<path d="M213.569 158.287C213.48 158.36 213.376 158.42 213.261 158.464C213.154 158.504 213.038 158.524 212.92 158.524C212.645 158.524 212.58 158.346 212.782 158.155C212.867 158.083 212.969 158.024 213.083 157.984C213.189 157.942 213.305 157.92 213.423 157.918C213.699 157.918 213.764 158.096 213.561 158.287H213.569Z" fill="white"/>
<path d="M211.396 159.083C211.308 159.152 211.207 159.207 211.095 159.247C210.986 159.288 210.867 159.308 210.747 159.307C210.471 159.307 210.414 159.122 210.617 158.932C210.706 158.862 210.811 158.806 210.925 158.767C211.032 158.728 211.148 158.707 211.266 158.708C211.55 158.708 211.606 158.886 211.404 159.076L211.396 159.083Z" fill="white"/>
<path fill-rule="evenodd" clip-rule="evenodd" d="M81.6751 177.281C60.3443 173.86 48.584 165.372 42.355 148.898C36.775 134.134 25.85 129.792 17.0663 126.299C8.14466 122.733 3.035 120.318 2.54837 111.838C2.06173 103.285 8.28254 95.7909 21.0486 89.5735C31.4301 84.5207 46.1427 80.3166 64.7889 77.0731C97.6448 71.3689 156.755 65.645 182.287 69.7373C187.218 70.5268 189.643 71.5268 190.811 72.2242C197.77 76.3691 198.8 81.718 199.887 87.3564C200.86 92.4552 201.874 97.7252 207.008 101.831C210.982 104.995 218.362 106.436 226.838 108.147C241.032 110.962 257.115 114.16 260.4 125.503C260.797 126.897 260.318 128.595 258.972 130.549C252.946 139.286 231.064 150.911 201.874 160.879C172.116 171.037 140.558 177.695 117.443 178.695C103.192 179.314 91.4889 178.873 81.6751 177.281Z" stroke="white" stroke-width="0.61"/>
<path opacity="0.2" d="M36.1586 220C41.3736 222.493 62.7612 222.375 91.3104 222.23C137.784 221.993 184.144 208.907 184.144 208.907L94.4573 205.223C94.4573 205.223 20.5376 212.532 36.1586 220Z" fill="#552F5E"/>
<path d="M184.144 154.03V212.282L156.365 223.052V220.105L181.094 210.473V154.997L184.144 154.03Z" fill="#7C4284"/>
<rect x="152.999" y="220.105" width="3.36589" height="2.9409" fill="#3E2344"/>
<path fill-rule="evenodd" clip-rule="evenodd" d="M152.999 220.105L178.523 210.473H181.094L156.365 220.105H152.999Z" fill="#E4BCE8"/>
<path fill-rule="evenodd" clip-rule="evenodd" d="M178.523 210.473V155.346L181.094 154.997V210.473H178.523Z" fill="#E4BCE8"/>
<path d="M94.4573 151.668V205.223L58.2355 215.125V212.414L91.4078 203.558V152.556L94.4573 151.668Z" fill="#7C4284"/>
<rect x="54.8696" y="212.414" width="3.36589" height="2.70405" fill="#3E2344"/>
<path fill-rule="evenodd" clip-rule="evenodd" d="M54.8696 212.414L88.8367 203.558H91.4078L58.2355 212.414H54.8696Z" fill="#E4BCE8"/>
<path fill-rule="evenodd" clip-rule="evenodd" d="M88.8367 203.558V152.879L91.4078 152.556V203.558H88.8367Z" fill="#E4BCE8"/>
<path d="M175.847 148.997L175.668 151.227L175.587 152.287L175.312 155.576C175.182 157.05 161.037 157.208 160.883 155.721L160.55 152.431L160.437 151.366L160.193 148.99L175.847 148.997Z" fill="#CC584E"/>
<ellipse cx="168.028" cy="148.997" rx="7.8267" ry="0.782924" fill="#E57873"/>
<path d="M174.038 148.997C174.038 149.267 171.346 149.484 168.028 149.484C164.711 149.484 162.01 149.267 162.01 148.997C162.01 148.727 164.703 148.517 168.028 148.517C171.354 148.517 174.038 148.734 174.038 148.997Z" fill="#3E2B13"/>
<path d="M175.668 151.24L175.587 152.3C173.07 152.918 170.447 153.207 167.817 153.155C165.354 153.221 162.893 152.983 160.518 152.451L160.404 151.385C161.353 151.681 163.559 152.181 167.785 152.181C170.461 152.256 173.132 151.938 175.668 151.24V151.24Z" fill="#E4BCE8"/>
<path d="M166.074 149.458C166.074 149.458 160.542 139.22 168.02 139.22C175.498 139.22 169.983 149.458 169.983 149.458C169.983 149.458 167.493 149.504 166.074 149.458Z" fill="#71BF9D"/>
<path d="M60.3037 156.846L165.206 161.043L198.013 153.129L99.2263 149.477L60.3037 156.846Z" fill="#E4BCE8"/>
<path d="M198.013 153.129V155.563L165.327 163.583L165.206 161.043L198.013 153.129Z" fill="#7C4284"/>
<path d="M165.206 161.044L60.8715 156.872V158.899L165.327 163.583L165.206 161.044Z" fill="#552F5E"/>
<path d="M150.647 152.188L127.443 156.912L84.7084 155.234L107.045 150.319L150.647 152.188Z" fill="#EFE9DA"/>
<path opacity="0.3" d="M143.518 152.576L126.673 156.01L92.454 154.793L108.683 151.221L143.518 152.576Z" fill="#7C4284"/>
<path d="M84.7084 155.234C84.7075 155.898 85.3504 156.446 86.1683 156.477L127.532 158.142L149.504 153.537C150.181 153.395 150.655 152.9 150.655 152.333V152.188L127.451 156.912L84.7084 155.234Z" fill="#9D68AA"/>
<path d="M150.647 152.188L107.045 150.326L115.01 124.667C115.103 124.386 115.413 124.188 115.772 124.18L159.869 123.95L150.647 152.188Z" fill="#3E2344"/>
<path d="M136.827 125.463C136.722 125.887 136.273 126.197 135.74 126.213C135.507 126.219 135.284 126.136 135.138 125.988C134.991 125.841 134.938 125.647 134.994 125.463C135.108 125.042 135.558 124.737 136.089 124.72C136.32 124.714 136.541 124.797 136.686 124.943C136.831 125.089 136.883 125.281 136.827 125.463Z" fill="white"/>
<path d="M149.552 149.911L109.405 148.576L115.967 127.246L157.014 127.029L149.552 149.911Z" fill="white"/>
<path d="M140.185 130.457L136.657 142.451L135.635 145.977C135.505 146.408 135.022 146.707 134.475 146.694L127.175 146.504L122.779 146.398C122.432 146.393 122.106 146.259 121.894 146.035C121.683 145.811 121.609 145.521 121.693 145.247L126.348 130.115C126.472 129.702 126.927 129.411 127.451 129.411L139.049 129.338C139.396 129.337 139.724 129.462 139.945 129.679C140.165 129.896 140.253 130.181 140.185 130.457Z" fill="#FFD25A"/>
<path d="M136.657 142.451L135.635 145.977C135.505 146.408 135.022 146.707 134.475 146.694L127.175 146.503L123.826 146.082L129.657 137.76L133.258 134.26L136.657 142.451Z" fill="#71BF9D"/>
<path d="M134.475 146.635L127.175 146.444L122.779 146.339C122.432 146.333 122.106 146.2 121.894 145.976C121.683 145.752 121.609 145.462 121.693 145.188L129.154 136.76L129.657 137.701L134.475 146.635Z" fill="#FF8976"/>
<path d="M135.026 133.727C135.026 134.512 134.242 135.148 133.275 135.148C132.307 135.148 131.523 134.512 131.523 133.727C131.523 132.942 132.307 132.306 133.275 132.306C133.739 132.306 134.185 132.455 134.513 132.722C134.842 132.988 135.026 133.35 135.026 133.727Z" fill="#FFB072"/>
<path d="M130.906 136.845C130.91 137.421 130.484 137.942 129.829 138.163C129.173 138.385 128.418 138.264 127.916 137.857C127.414 137.449 127.264 136.837 127.537 136.305C127.811 135.773 128.452 135.428 129.162 135.431C130.124 135.434 130.902 136.065 130.906 136.845Z" fill="#FFB072"/>
<path d="M150.647 152.188C151.156 152.192 151.608 151.924 151.759 151.53L160.364 124.924C160.459 124.64 160.374 124.337 160.137 124.114L159.869 123.904L150.647 152.188Z" fill="#E4BCE8"/>
<path d="M74.2539 221.579C74.2539 222.447 68.9334 222.447 68.9334 221.579V195.867H74.2539V221.579Z" fill="#7C4284"/>
<path d="M57.7002 193.176C57.7002 193.176 59.3629 197.913 71.2773 197.913C83.1917 197.913 85.0653 193.176 85.0653 193.176H57.7002Z" fill="#3E2344"/>
<path d="M53.5638 192.538C53.5638 192.538 47.708 191.064 45.8588 187.044C44.0096 183.024 39.5488 162.945 39.5488 162.945L43.5554 161.043C43.5554 161.043 48.1703 185.386 51.2523 187.321C54.3343 189.255 55.997 188.985 55.997 188.985L53.5638 192.538Z" fill="#7C4284"/>
<path d="M33.2874 137.72C33.2874 137.72 29.2321 140.049 31.9005 153.096C34.9825 168.129 37.5779 169.689 40.7005 169.267C43.823 168.846 33.2874 137.72 33.2874 137.72Z" fill="#7C4284"/>
<path d="M46.8564 185.452C46.8564 185.452 46.4184 190.472 48.8678 192.854C52.5825 196.479 93.2894 194.308 95.4711 193.347C99.8995 191.374 97.9043 183.4 97.9043 183.4L46.8564 185.452Z" fill="#552F5E"/>
<path d="M51.8687 179.031C51.2525 179.044 50.6782 179.287 50.3115 179.689C49.3041 180.756 48.4216 181.897 47.6756 183.097C46.0535 186.051 46.1913 186.058 49.6951 186.117C61.4879 186.34 96.8743 185.531 96.8743 185.531C97.5284 185.469 98.1061 185.156 98.4273 184.69C98.7485 184.223 98.7742 183.66 98.4964 183.176L97.3609 178.294L51.8687 179.031Z" fill="#E4BCE8"/>
<g style="mix-blend-mode:multiply" opacity="0.2">
<path d="M98.3098 182.426C98.3098 183.807 87.7012 184.926 74.6189 184.926C61.5365 184.926 50.9279 183.807 50.9279 182.426C50.9279 181.044 61.5365 179.919 74.6189 179.919C87.7012 179.919 98.3098 181.044 98.3098 182.426Z" fill="#552F5E"/>
</g>
<path d="M31.6653 138.957C33.2387 146.194 38.3322 167.84 38.3322 167.84C38.8918 170.248 41.5764 171.129 44.2853 170.517C54.8291 168.129 44.0988 137.891 43.377 135.911C41.3007 130.266 29.7269 130.187 31.6653 138.957Z" fill="#E4BCE8"/>
<path d="M114.134 218.118C113.701 219.221 113.349 220.343 113.079 221.48C113.079 222.138 114.701 226.171 114.701 226.171C115.354 226.556 116.226 226.592 116.924 226.263L117.735 223.467C117.735 223.467 119.9 225.816 121.668 226.421C123.793 227.151 130.809 227.362 131.831 226.73C131.831 226.73 132.804 224.059 130.063 223.44C123.209 221.822 121.798 218.328 121.798 218.328C121.195 217.065 119.721 216.216 118.052 216.17C116.382 216.124 114.841 216.89 114.134 218.118Z" fill="#3E2344"/>
<path d="M132.52 226.368C132.374 226.368 124.556 226.993 122.431 226.085C120.306 225.177 118.01 222.592 117.337 222.506C116.664 222.421 113.079 221.48 113.079 221.48L113.339 227.77L132.155 230L132.52 226.368Z" fill="#7C4284"/>
<path d="M126.413 222.296L125.44 223.052C124.624 222.784 123.924 222.326 123.428 221.737L124.288 220.875C124.441 220.719 124.72 220.693 124.913 220.815L126.372 221.743C126.473 221.809 126.535 221.907 126.543 222.012C126.551 222.117 126.503 222.22 126.413 222.296Z" fill="#FFBE57"/>
<path d="M112.39 212.756L114.134 218.118C114.134 218.118 120.565 222.066 121.433 217.769L119.503 211.637C118.911 209.651 112.325 210.315 112.39 212.756Z" fill="#FFB072"/>
<path d="M132.609 205.223C132.653 206.311 132.775 207.396 132.974 208.473C133.193 209.045 136.292 212.216 136.292 212.216C136.955 212.404 137.692 212.223 138.117 211.769L137.873 209.052C137.873 209.052 140.712 210.585 142.512 210.67C144.686 210.776 150.996 209.164 151.661 208.341C151.661 208.341 151.483 205.71 148.798 205.848C142.083 206.17 139.471 203.427 139.471 203.427C138.435 202.476 136.804 202.113 135.316 202.503C133.827 202.893 132.765 203.96 132.609 205.223H132.609Z" fill="#3E2344"/>
<path d="M152.148 207.822C152.018 207.868 145.319 210.414 143.072 210.157C140.825 209.901 137.784 208.183 137.159 208.275C136.535 208.368 132.974 208.453 132.974 208.453L135.659 213.98L153.235 211.137L152.148 207.822Z" fill="#7C4284"/>
<path d="M145.132 205.789L144.564 206.71C143.734 206.676 142.934 206.447 142.261 206.052L142.691 205.065C142.771 204.89 143.007 204.797 143.226 204.854L144.848 205.302C144.973 205.327 145.077 205.396 145.132 205.491C145.187 205.585 145.187 205.694 145.132 205.789Z" fill="#FFBE57"/>
<path d="M127.735 199.927L132.642 205.782C132.642 205.782 136.632 206.512 138.473 205.782C140.314 205.052 139.471 203.44 139.471 203.44L135.481 196.992L127.735 199.927Z" fill="#FFB072"/>
<path d="M56.6864 123.963C56.6864 123.963 50.5061 125.055 52.4851 134.957C54.4641 144.859 63.2965 160.997 74.4323 161.971C85.5681 162.945 102.179 157.234 102.179 157.234C105.763 155.05 103.257 149.859 98.8695 150.655C91.2293 151.971 86.5171 152.892 76.7682 152.155C72.9886 151.865 69.4687 137.023 67.9925 132.358C66.5164 127.694 61.3986 123.391 56.6864 123.963Z" fill="#3C8460"/>
<path d="M73.4591 182.235C73.4591 182.235 95.3576 182.406 100.646 180.663C105.934 178.919 111.1 171.11 106.875 170.952C102.649 170.794 73.4591 182.235 73.4591 182.235Z" fill="#F99441"/>
<path d="M119.868 167.498C116.713 162.386 111.757 162.235 108.578 162.491C97.661 163.333 72.1533 166.82 72.1533 166.82L47.2376 164.228C47.2376 164.228 41.7224 174.307 51.6903 181.4C60.3524 187.564 89.81 182.716 106.972 175.281C108.594 184.775 120.995 192.966 128.424 202.335C135.343 201.769 136.851 198.782 136.851 198.782C136.851 198.782 124.621 175.215 119.868 167.498Z" fill="#FFCC5A"/>
<path d="M105.893 147.898C107.042 147.798 108.2 147.798 109.348 147.898C110.03 148.096 111.457 149.655 111.457 149.655C111.457 149.655 109.105 150.023 108.359 149.826C107.613 149.629 105.893 147.898 105.893 147.898Z" fill="#F29B5F"/>
<path d="M96.7445 149.615C96.7445 149.615 101.765 147.549 103.574 147.194C105.382 146.839 105.617 147.793 106.38 147.905C107.185 147.999 107.937 148.288 108.537 148.734C109.292 149.168 110.922 148.905 111.879 149.267C112.75 149.866 113.45 150.611 113.931 151.451C114.142 151.931 113.314 152.023 112.787 151.892C112.26 151.76 111.441 150.681 110.946 150.576C110.451 150.471 108.513 151.135 108.513 151.135C108.513 151.135 106.793 154.681 99.8346 154.254C92.162 153.76 96.7445 149.615 96.7445 149.615Z" fill="#FFB072"/>
<path d="M57.1325 124.489C57.1325 124.489 50.644 124.884 52.5743 133.766C54.5047 142.648 62.8585 157.162 73.3212 158.03C83.7838 158.899 99.3561 153.885 99.3561 153.885C102.714 151.912 100.848 147.675 96.7364 148.346C89.8186 149.612 82.7399 150.209 75.6489 150.122C72.0803 150.122 68.5116 135.615 67.1409 131.463C65.7702 127.312 61.5609 123.996 57.1325 124.489Z" fill="#CC321D"/>
<path d="M101.806 174.353C101.806 174.353 106.85 172.024 109.77 169.281C112.876 166.353 113.177 169.485 104.62 173.314C104.62 173.314 109.843 171.55 111.822 170.748C113.801 169.945 113.25 171.708 101.806 174.353Z" fill="#F99441"/>
<path d="M96.7364 181.393C96.7364 181.393 96.7364 185.235 100.848 192.893C104.961 200.552 111.895 215.401 111.895 215.401C111.895 215.401 115.212 216.059 120.403 213.131C120.403 213.131 113.566 176.715 110.257 173.425C106.161 169.36 96.7364 177.011 96.7364 181.393Z" fill="#F99441"/>
<path d="M73.5158 108.91C73.3617 108.91 71.3503 108.16 70.6285 109.713C70.3382 110.25 70.3707 110.865 70.7167 111.38C71.0626 111.895 71.6829 112.251 72.3966 112.344C74.6513 112.588 73.5158 108.91 73.5158 108.91Z" fill="#E57E55"/>
<path d="M66.7273 109.535C65.7054 112.088 63.2154 116.114 61.7231 118.647C60.2307 121.18 55.4536 124.996 55.4536 124.996C55.4536 124.996 66.5894 133.779 71.0827 133.944C71.8045 132.687 69.712 130.115 69.2578 127.049C68.4873 121.785 74.3918 112.811 74.3918 112.811C74.3918 112.811 69.3551 110.18 66.7273 109.535Z" fill="#FFB072"/>
<path d="M73.8403 147.813C73.8403 148.214 75.8517 165.445 74.6513 166.669C72.0559 169.301 66.3055 169.149 64.9592 166.669C63.6128 164.188 73.8403 147.813 73.8403 147.813Z" fill="#EFE9DA"/>
<path d="M58.9249 121.634C60.3767 122.877 67.8466 127.713 71.0178 130.845C73.8403 133.687 79.6231 139.128 77.8955 144.345C73.3374 158.03 72.7048 163.583 72.0154 175.853C68.2359 177.399 49.3058 174.991 44.4395 166.833C44.4395 166.833 47.3349 160.096 50.1169 153.885C51.9417 149.99 47.8864 139.549 48.1865 135.246C48.6975 127.674 56.6864 122.601 58.3653 121.634C58.525 121.519 58.7653 121.519 58.9249 121.634Z" fill="#DD4026"/>
<path d="M56.4755 127.693C48.8759 133.042 53.6693 147.286 57.2217 153.865C60.028 159.287 65.2593 164.576 72.6967 166.669C73.3942 163.083 75.2028 159.385 75.9409 155.53C67.2869 149.924 60.7174 135.713 56.4755 127.693Z" fill="#CC321D"/>
<path fill-rule="evenodd" clip-rule="evenodd" d="M76.6546 120.048C79.4771 119.917 81.3588 115.351 81.3588 115.351C81.3588 115.351 82.916 115.469 83.0944 114.904C83.2728 114.338 82.0076 111.923 82.4375 111.548C83.4594 110.634 84.7084 109.923 84.7084 105.627C84.7084 102.508 80.8072 101.679 76.6871 101.791C75.2758 102.41 70.5879 109.541 70.1986 114.39C69.8985 117.785 72.3479 120.252 76.6546 120.048Z" fill="#FFB072"/>
<path fill-rule="evenodd" clip-rule="evenodd" d="M74.6919 111.107L76.4437 108.574C76.4437 108.574 82.1617 107.772 84.895 105.851C86.2656 104.884 87.4417 103.837 85.3329 101.739C81.2776 97.7451 69.5498 93.9686 62.4125 101.265C56.3539 107.456 63.8967 114.963 63.8967 114.963C65.4864 113.627 71.3584 113.851 74.6919 111.107Z" fill="#3E2344"/>
<path d="M75.0163 110.745C75.0163 110.745 75.3083 108.015 73.6294 107.864C71.9505 107.712 71.1394 109.107 70.9772 109.982C70.815 110.857 71.0746 113.088 73.0616 113.397C73.9781 113.542 74.7081 113.015 75.0163 110.745Z" fill="#FFB072"/>
<path d="M80.1016 110.18C80.6226 110.115 81.1481 110.077 81.6751 110.068C82.6727 110.127 83.208 110.41 83.727 110.265C83.9622 110.206 84.0271 110.028 84.1326 109.824C83.3873 109.686 82.6313 109.589 81.8697 109.535C81.181 109.48 80.5078 109.725 80.1016 110.18Z" fill="#3E2344"/>
<path d="M72.94 112.384C72.94 111.943 72.94 111.765 73.0049 111.298C73.2887 111.246 73.7592 111.186 74.043 111.107C74.1971 110.292 74.2539 108.357 72.9805 108.89C71.9262 109.331 71.4071 112.265 72.94 112.384Z" fill="#E57E55"/>
<path fill-rule="evenodd" clip-rule="evenodd" d="M81.5291 111.482C81.8085 111.273 82.1536 111.129 82.5267 111.068C82.989 111.068 83.5405 111.121 83.7676 110.982C83.9947 110.844 83.5567 111.482 82.7132 111.423L81.5291 111.482Z" fill="#552F5E"/>
<path fill-rule="evenodd" clip-rule="evenodd" d="M74.5053 108.324C74.8491 109.517 74.8987 110.754 74.6513 111.963C74.2458 113.634 69.6309 115.95 71.1232 119.476C72.6156 123.002 75.6408 121.542 75.8922 120.904C75.8922 120.904 73.0454 122.22 71.9505 119.404C70.8069 116.45 75.1461 114.14 75.8273 112.252C76.2502 110.936 76.4413 109.578 76.3951 108.219L74.5053 108.324Z" fill="#3E2344"/>
<ellipse cx="74.043" cy="112.574" rx="1.03815" ry="0.842137" fill="white"/>
<path fill-rule="evenodd" clip-rule="evenodd" d="M54.6588 98.2978C55.0025 99.4909 55.0521 100.727 54.8048 101.936C54.3992 103.614 49.7843 105.923 51.2767 109.456C52.769 112.989 55.7942 111.522 56.0457 110.877C56.0457 110.877 53.1989 112.193 52.1039 109.377C50.9603 106.43 55.2995 104.114 55.9808 102.232C56.4036 100.916 56.5947 99.5584 56.5485 98.1991L54.6588 98.2978Z" fill="#3E2344"/>
<path d="M113.039 149.017C114.187 148.92 115.345 148.92 116.494 149.017C117.183 149.214 118.602 150.773 118.602 150.773C118.602 150.773 116.259 151.148 115.504 150.951C114.75 150.754 113.039 149.017 113.039 149.017Z" fill="#F29B5F"/>
<path d="M103.89 150.734C103.89 150.734 108.91 148.675 110.719 148.313C112.528 147.951 112.763 148.911 113.533 149.023C114.337 149.121 115.086 149.412 115.683 149.859C116.437 150.293 118.067 150.023 119.024 150.385C119.898 150.985 120.598 151.733 121.076 152.576C121.295 153.05 120.46 153.142 119.941 153.017C119.422 152.892 118.586 151.806 118.092 151.701C117.597 151.596 115.658 152.267 115.658 152.267C115.658 152.267 113.947 155.806 106.98 155.385C99.3074 154.879 103.89 150.734 103.89 150.734Z" fill="#FFB072"/>
<path d="M58.4302 126.417C54.8291 127.253 52.0553 128.503 54.0424 138.404C56.0295 148.306 63.3695 162.011 74.5053 162.984C85.6411 163.958 105.536 156.866 105.536 156.866C109.121 154.675 106.615 149.49 102.227 150.286C94.5871 151.602 86.3143 154.287 76.5573 153.576C72.7778 153.287 69.9877 138.957 68.5522 134.325C67.1166 129.694 63.0289 125.364 58.4302 126.417Z" fill="#FD6141"/>
<path d="M70.7015 100.515C70.304 103.982 66.119 106.495 61.3581 106.133C56.5972 105.772 53.0529 102.673 53.4503 99.2121C53.8477 95.7514 58.0328 93.225 62.8018 93.5869C67.5708 93.9487 71.107 97.0475 70.7015 100.515Z" fill="#3E2344"/>
<path d="M159.674 136.957C159.678 137.152 159.536 137.329 159.315 137.405C159.094 137.482 158.838 137.442 158.667 137.306C158.496 137.169 158.443 136.962 158.535 136.781C158.626 136.601 158.842 136.483 159.082 136.483C159.406 136.483 159.67 136.694 159.674 136.957Z" fill="white"/>
<path d="M162.035 136.957C162.038 137.152 161.896 137.329 161.675 137.405C161.454 137.482 161.198 137.442 161.027 137.306C160.856 137.169 160.804 136.962 160.895 136.781C160.986 136.601 161.202 136.483 161.443 136.483C161.766 136.483 162.03 136.694 162.035 136.957Z" fill="white"/>
<path d="M164.395 136.957C164.398 137.152 164.256 137.329 164.035 137.406C163.814 137.482 163.558 137.442 163.387 137.306C163.216 137.169 163.164 136.962 163.255 136.781C163.346 136.601 163.562 136.483 163.803 136.483C163.959 136.482 164.11 136.531 164.221 136.62C164.332 136.709 164.395 136.83 164.395 136.957Z" fill="white"/>
<path d="M166.763 136.957C166.766 137.152 166.624 137.329 166.403 137.405C166.182 137.482 165.926 137.442 165.755 137.306C165.584 137.169 165.532 136.962 165.623 136.781C165.714 136.601 165.931 136.483 166.171 136.483C166.495 136.483 166.759 136.694 166.763 136.957Z" fill="white"/>
<path d="M169.123 136.957C169.126 137.152 168.984 137.329 168.763 137.405C168.542 137.482 168.286 137.442 168.115 137.306C167.944 137.169 167.892 136.962 167.983 136.781C168.075 136.601 168.291 136.483 168.531 136.483C168.855 136.483 169.119 136.694 169.123 136.957Z" fill="white"/>
<path d="M171.483 136.957C171.483 137.222 171.218 137.437 170.891 137.437C170.564 137.437 170.299 137.222 170.299 136.957C170.299 136.692 170.564 136.477 170.891 136.477C171.218 136.477 171.483 136.692 171.483 136.957Z" fill="white"/>
<path d="M173.844 136.957C173.808 137.199 173.556 137.381 173.256 137.381C172.955 137.381 172.703 137.199 172.668 136.957C172.703 136.715 172.955 136.533 173.256 136.533C173.556 136.533 173.808 136.715 173.844 136.957Z" fill="white"/>
<path d="M176.212 136.957C176.215 137.152 176.073 137.329 175.852 137.405C175.631 137.482 175.375 137.442 175.204 137.306C175.033 137.169 174.981 136.962 175.072 136.781C175.163 136.601 175.38 136.483 175.62 136.483C175.944 136.483 176.207 136.694 176.212 136.957Z" fill="white"/>
<path d="M178.572 136.957C178.575 137.152 178.433 137.329 178.212 137.405C177.991 137.482 177.735 137.442 177.564 137.306C177.393 137.169 177.341 136.962 177.432 136.781C177.523 136.601 177.74 136.483 177.98 136.483C178.304 136.483 178.568 136.694 178.572 136.957Z" fill="white"/>
<path d="M180.9 136.957C180.903 137.152 180.761 137.329 180.54 137.406C180.319 137.482 180.063 137.442 179.892 137.306C179.721 137.169 179.669 136.962 179.76 136.781C179.851 136.601 180.067 136.483 180.308 136.483C180.464 136.482 180.615 136.531 180.726 136.62C180.837 136.709 180.9 136.83 180.9 136.957Z" fill="white"/>
<path d="M183.13 136.391C183.263 136.542 183.277 136.741 183.167 136.903C183.056 137.064 182.841 137.161 182.614 137.15C182.386 137.139 182.186 137.023 182.1 136.852C182.016 136.626 182.125 136.383 182.368 136.253C182.631 136.156 182.943 136.212 183.13 136.391Z" fill="white"/>
<path d="M184.144 134.72C184.374 134.741 184.568 134.869 184.641 135.047C184.713 135.225 184.651 135.422 184.481 135.549C184.312 135.677 184.066 135.713 183.852 135.641C183.58 135.55 183.432 135.31 183.505 135.078C183.579 134.846 183.851 134.694 184.144 134.72Z" fill="white"/>
<path d="M184.144 132.819C184.385 132.816 184.604 132.932 184.698 133.112C184.791 133.292 184.741 133.5 184.571 133.639C184.4 133.777 184.144 133.817 183.922 133.741C183.7 133.665 183.557 133.488 183.56 133.292C183.558 133.166 183.619 133.045 183.729 132.956C183.839 132.866 183.988 132.817 184.144 132.819Z" fill="white"/>
<path d="M184.144 130.884C184.384 130.882 184.603 130.997 184.697 131.176C184.791 131.356 184.742 131.563 184.574 131.702C184.405 131.841 184.15 131.883 183.927 131.809C183.705 131.735 183.56 131.56 183.56 131.365C183.558 131.238 183.618 131.116 183.728 131.026C183.838 130.935 183.988 130.884 184.144 130.884Z" fill="white"/>
<path d="M184.144 128.97C184.384 128.967 184.603 129.083 184.697 129.262C184.791 129.441 184.742 129.649 184.574 129.787C184.405 129.926 184.15 129.968 183.927 129.894C183.705 129.821 183.56 129.645 183.56 129.45C183.558 129.323 183.618 129.201 183.728 129.111C183.838 129.021 183.988 128.97 184.144 128.97Z" fill="white"/>
<ellipse cx="184.144" cy="127.536" rx="0.583961" ry="0.480281" fill="white"/>
<ellipse cx="184.144" cy="125.614" rx="0.583961" ry="0.480281" fill="white"/>
<path d="M184.144 123.22C184.384 123.217 184.603 123.332 184.697 123.512C184.791 123.691 184.742 123.899 184.574 124.037C184.405 124.176 184.15 124.218 183.927 124.144C183.705 124.07 183.56 123.895 183.56 123.7C183.558 123.573 183.618 123.451 183.728 123.361C183.838 123.271 183.988 123.22 184.144 123.22Z" fill="white"/>
<path d="M184.144 121.305C184.384 121.302 184.603 121.418 184.697 121.597C184.791 121.776 184.742 121.984 184.574 122.123C184.405 122.261 184.15 122.304 183.927 122.23C183.705 122.156 183.56 121.98 183.56 121.785C183.558 121.659 183.618 121.536 183.728 121.446C183.838 121.356 183.988 121.305 184.144 121.305Z" fill="white"/>
<path d="M184.144 119.391C184.384 119.388 184.603 119.503 184.697 119.682C184.791 119.862 184.742 120.069 184.574 120.208C184.405 120.347 184.15 120.389 183.927 120.315C183.705 120.241 183.56 120.066 183.56 119.871C183.558 119.744 183.618 119.622 183.728 119.532C183.838 119.441 183.988 119.391 184.144 119.391Z" fill="white"/>
<rect x="107.045" y="24.9199" width="120.401" height="92.5824" rx="7.39" fill="white"/>
<rect x="223.018" y="27.5254" width="87.7335" height="111.942" rx="5.92" transform="rotate(90 223.018 27.5254)" fill="#FFD25A"/>
<g style="mix-blend-mode:overlay" opacity="0.3">
<ellipse rx="35.7333" ry="59.9305" transform="matrix(0.512097 -0.858928 0.930922 0.365218 146.008 52.5799)" fill="white"/>
</g>
<path d="M154.346 63.1846C151.843 59.7744 151.253 55.6602 152.724 51.875C152.86 51.4107 153.159 50.9882 153.583 50.6578C154.042 50.3166 154.747 50.3166 155.205 50.6578C157.528 48.7293 160.479 47.3762 163.713 46.7564C164.347 46.606 165.012 46.559 165.668 46.6182C166.339 46.6765 166.928 47.0057 167.233 47.4932C167.52 47.9975 167.27 48.5953 166.666 48.8551C167.844 48.4165 169.083 48.094 170.356 47.8946C170.824 47.796 171.322 47.8629 171.727 48.0788C172.174 48.4779 172.174 49.0876 171.727 49.4867C171.278 49.8569 170.72 50.1266 170.105 50.2697C170.49 50.1714 170.893 50.1247 171.297 50.1315C171.71 50.1444 172.085 50.3315 172.286 50.6249C172.611 51.1907 171.929 51.796 171.273 52.1184C169.536 52.8617 167.614 53.2756 165.652 53.329C163.697 53.454 161.734 53.4342 159.804 53.7106C159.153 53.7658 158.535 53.9687 158.02 54.2961C157.209 54.9014 157.209 55.9212 157.209 56.8094C157.384 58.0683 157.351 59.3405 157.111 60.5924C156.845 61.8587 155.872 62.9539 154.476 63.5596" fill="#A6613B"/>
<path d="M203.017 78.7115C203.017 78.7115 204.242 73.9877 205.199 73.5008C206.156 73.0139 209.871 70.4283 209.984 70.981C210.098 71.5336 208.192 72.9942 208.468 73.6126C208.743 74.2311 210.747 74.3495 210.747 74.3495C210.747 74.3495 213.001 74.4548 213.61 74.1587C214.218 73.8626 218.119 70.7704 217.819 71.527C217.519 72.2836 215.224 76.2377 213.829 76.7904C212.112 77.3435 210.344 77.7836 208.541 78.1062C208.002 78.8973 207.531 79.7172 207.129 80.5603L203.017 78.7115Z" fill="#F0BFAC"/>
<path d="M171.264 86.2118C171.264 86.2118 185.766 101.239 193.325 98.8636C200.884 96.4885 208.257 79.5273 208.257 79.5273L202.239 76.2772L189.757 87.6921L173.86 70.9744L171.264 86.2118Z" fill="#2A2A59"/>
<path d="M146.56 70.4545C146.56 70.4545 117.11 90.5539 118.002 94.712C118.894 98.87 136.94 115.107 136.94 115.107L142.959 110.232L130.257 95.2514C130.257 95.2514 147.865 84.5866 148.312 82.9615C148.758 81.3365 146.56 70.4545 146.56 70.4545Z" fill="#2A2A59"/>
<path d="M141.401 79.4615C141.401 79.4615 147.079 100.206 146.827 102.094C146.576 103.982 144.532 116.7 144.532 116.7L178.134 114.91L176.033 75.6127C175.693 72.2507 172.895 69.4677 169.164 68.8558C165.619 68.2834 160.38 67.915 152.943 68.4084C148.312 68.7242 144.354 71.5072 142.91 75.4284L141.401 79.4615Z" fill="#2A2A59"/>
<path d="M151.702 68.5202C151.207 68.7176 162.083 87.942 162.083 87.942L166.852 68.5202C166.852 68.5202 155.035 67.211 151.702 68.5202Z" fill="white"/>
<path d="M154.013 69.2177L154.557 61.6122C154.557 61.6122 152.716 61.7832 152.172 60.645C151.629 59.5068 153.251 56.862 155.96 58.7107L155.7 52.3618H168.734C168.734 52.3618 171.102 67.0597 163.057 67.0597V70.1388C163.057 70.1388 157.809 73.4876 154.013 69.2177Z" fill="#F0BFAC"/>
<path d="M138.279 114.055C138.279 114.055 138.814 116.805 140.606 116.805C142.235 116.759 143.859 116.645 145.473 116.463C145.473 116.463 148.174 119.094 148.352 118.259C148.53 117.423 147.687 115.522 147.687 115.522C147.687 115.522 149.066 118.154 149.593 116.89C150.12 115.627 147.792 113.548 147.792 113.548C147.792 113.548 151.913 115.18 152.018 114.496C152.123 113.811 148.393 112.009 148.352 112.009H144.102L142.967 110.259L138.279 114.055Z" fill="#F0BFAC"/>
<path d="M162.813 60.724C162.813 60.724 162.87 60.8226 163.048 60.9016C163.317 61.0175 163.649 60.9745 163.859 60.7963C163.998 60.6784 164.096 60.5333 164.143 60.3753C164.197 60.19 164.214 59.999 164.192 59.8095C164.192 59.395 164.119 58.941 164.078 58.4936C164.005 57.5396 163.949 56.6712 163.916 56.0462C163.916 55.7304 163.916 55.4803 163.916 55.3027C163.897 55.2134 163.897 55.1222 163.916 55.033C163.943 55.1215 163.959 55.2118 163.965 55.3027C163.965 55.4738 164.022 55.7304 164.054 56.0396C164.119 56.6975 164.192 57.5265 164.265 58.4805C164.306 58.9607 164.338 59.4147 164.362 59.8292C164.382 60.0325 164.36 60.237 164.297 60.4345C164.238 60.6086 164.12 60.7659 163.957 60.8884C163.822 60.9949 163.642 61.056 163.454 61.0595C163.314 61.0662 163.174 61.0362 163.057 60.974C162.931 60.9264 162.841 60.8338 162.813 60.724Z" fill="#1B1A51"/>
<path d="M163.689 62.4213C163.523 62.5202 163.327 62.5815 163.121 62.5989C162.623 62.6713 162.109 62.5991 161.67 62.395C161.238 62.181 160.908 61.8537 160.737 61.4673C160.65 61.3131 160.621 61.1412 160.656 60.9739C160.656 60.9739 160.696 61.1647 160.842 61.4344C161.031 61.7843 161.348 62.0784 161.751 62.2766C162.16 62.4687 162.635 62.5494 163.105 62.5068C163.47 62.4739 163.681 62.4213 163.689 62.4213Z" fill="#1B1A51"/>
<path d="M161.021 60.8687C161.021 60.9081 160.737 60.8687 160.469 60.9871C160.202 61.1055 160.104 61.3161 160.064 61.3095C160.023 61.3029 160.064 61.2437 160.064 61.1516C160.123 61.033 160.232 60.9352 160.372 60.8753C160.509 60.8109 160.669 60.7854 160.826 60.8029C160.964 60.816 161.021 60.8555 161.021 60.8687Z" fill="#1B1A51"/>
<path d="M154.565 60.8029C154.714 60.7032 154.828 60.574 154.897 60.4279C154.97 60.2754 154.97 60.1066 154.897 59.9542C154.828 59.7692 154.607 59.6503 154.37 59.6713C154.27 59.6785 154.18 59.725 154.13 59.7958C154.08 59.8665 154.076 59.9527 154.119 60.0265L153.973 60.0726C153.881 59.7285 153.83 59.3783 153.819 59.0265C153.956 59.359 154.059 59.7001 154.127 60.0463L154.208 60.3884L153.989 60.0923C153.915 59.9823 153.913 59.8496 153.985 59.7386C154.057 59.6275 154.192 59.5529 154.346 59.5397C154.504 59.5218 154.664 59.5549 154.792 59.6318C154.904 59.7042 154.991 59.7996 155.043 59.9081C155.13 60.0856 155.13 60.2833 155.043 60.4608C154.991 60.5803 154.891 60.6823 154.759 60.7502C154.63 60.8029 154.565 60.8095 154.565 60.8029Z" fill="#1B1A51"/>
<path d="M161.078 54.5263C161.118 54.704 160.64 54.9277 160.007 55.0264C159.374 55.1251 158.823 55.0658 158.782 54.8816C158.742 54.6974 159.22 54.4803 159.853 54.3816C160.485 54.2829 161.037 54.3619 161.078 54.5263Z" fill="#A6613B"/>
<path d="M167.769 54.4673C167.769 54.6449 167.331 54.7699 166.828 54.7436C166.325 54.7173 165.936 54.5396 165.952 54.3554C165.968 54.1712 166.39 54.0528 166.893 54.0791C167.396 54.1054 167.785 54.283 167.769 54.4673Z" fill="#A6613B"/>
<path d="M164.289 67.0267L163.949 67.086C163.64 67.125 163.328 67.1448 163.016 67.1452C160.918 67.1598 158.891 66.5325 157.339 65.3885C157.107 65.2192 156.89 65.0367 156.69 64.8425C156.612 64.7718 156.544 64.6946 156.487 64.6122C156.487 64.6122 156.819 64.9082 157.42 65.3162C158.199 65.8537 159.085 66.2807 160.039 66.5794C161.006 66.8675 162.027 67.0188 163.057 67.0267C163.803 67.0267 164.281 66.9741 164.289 67.0267Z" fill="#1B1A51"/>
<path d="M144.094 112.009C144.094 112.009 144.654 107.666 145.14 108.219C145.627 108.772 145.732 112.344 145.732 112.344L144.094 112.009Z" fill="#F0BFAC"/>
<path d="M163.421 110.871C163.373 110.871 163.032 105.739 162.667 99.4096C162.302 93.0804 162.043 87.9486 162.091 87.942C162.14 87.9354 162.473 93.0738 162.838 99.403C163.203 105.732 163.462 110.871 163.421 110.871Z" fill="#1B1A51"/>
<path d="M161.702 87.942C161.374 87.812 161.057 87.6648 160.753 87.5012C159.923 87.0512 159.177 86.506 158.539 85.8828C157.574 84.9572 156.843 83.8863 156.39 82.7313C155.824 81.3105 155.704 79.7977 156.041 78.3298L156.106 78.4088L155.765 78.3233C153.966 77.8251 152.419 76.8612 151.361 75.5797C150.507 74.5433 150.016 73.338 149.942 72.0928C149.892 71.2551 150.029 70.417 150.347 69.619C150.458 69.328 150.602 69.046 150.777 68.7769C150.756 68.8542 150.723 68.9293 150.68 69.0005C150.573 69.2148 150.483 69.4346 150.412 69.6585C150.119 70.4513 150.001 71.2798 150.063 72.1059C150.149 73.3321 150.642 74.5166 151.491 75.5337C152.546 76.7651 154.061 77.6879 155.814 78.1654L156.154 78.2509H156.227V78.3101C155.89 79.7552 156.004 81.2458 156.56 82.6458C156.998 83.7874 157.706 84.8488 158.644 85.7709C159.266 86.3998 159.995 86.9536 160.81 87.4157C161.086 87.5868 161.337 87.6855 161.483 87.771C161.562 87.8223 161.636 87.8796 161.702 87.942Z" fill="#1B1A51"/>
<path d="M162.091 87.9421L162.294 87.7973C162.424 87.7052 162.635 87.5737 162.878 87.3894C164.648 86.1031 165.836 84.3728 166.252 82.4748C166.398 81.8231 166.482 81.1632 166.504 80.501V79.9681C166.483 79.7962 166.431 79.6276 166.349 79.4681C166.164 79.1371 165.939 78.8219 165.676 78.5273C165.408 78.2199 165.119 77.9255 164.808 77.6457L164.76 77.5535L164.808 77.5075C165.4 77.0206 165.952 76.5338 166.431 76.0535C166.931 75.6042 167.367 75.1097 167.728 74.5797C168.167 73.6266 168.341 72.6068 168.239 71.5928C168.167 70.9176 167.981 70.2536 167.688 69.619L167.42 69.1059C167.384 69.0481 167.351 68.9888 167.323 68.9282C167.486 69.1375 167.627 69.3575 167.744 69.5861C168.061 70.2175 168.266 70.882 168.353 71.5599C168.475 72.5921 168.308 73.6332 167.866 74.6061C167.502 75.1482 167.061 75.6539 166.552 76.1127C166.044 76.5996 165.503 77.0864 164.93 77.5733V77.5535C165.248 77.8361 165.543 78.1349 165.814 78.4483C166.086 78.7499 166.317 79.0741 166.504 79.4155C166.594 79.5892 166.648 79.7736 166.666 79.9615V80.501C166.646 81.1813 166.556 81.8591 166.398 82.5274C166.14 83.6653 165.605 84.7501 164.825 85.7183C164.292 86.3544 163.653 86.9278 162.927 87.4223C162.663 87.6106 162.384 87.7842 162.091 87.9421Z" fill="#1B1A51"/>
<path d="M164.776 96.686C164.727 96.686 164.662 96.4952 164.63 96.2583C164.598 96.0215 164.63 95.8175 164.63 95.811C164.63 95.8044 164.744 96.0017 164.776 96.2386C164.808 96.4754 164.817 96.6794 164.776 96.686Z" fill="#1B1A51"/>
<path d="M165.749 105.114C165.701 105.114 165.636 104.93 165.603 104.686C165.571 104.443 165.603 104.245 165.603 104.239C165.603 104.232 165.717 104.429 165.749 104.673C165.782 104.916 165.798 105.107 165.749 105.114Z" fill="#1B1A51"/>
<path d="M177.437 93.791C177.388 93.791 177.039 90.758 176.625 87.0145C176.212 83.2709 176.033 80.2313 176.033 80.2247C176.033 80.2182 176.431 83.2578 176.844 87.0013C177.258 90.7449 177.485 93.791 177.437 93.791Z" fill="#1B1A51"/>
<path d="M146.835 84.7908C146.752 84.8685 146.657 84.9371 146.551 84.9947L145.74 85.5276C145.051 85.9684 144.118 86.5869 143.056 87.2843C141.993 87.9817 141.093 88.6001 140.428 89.087L139.617 89.6396C139.525 89.7142 139.422 89.7784 139.309 89.8304C139.389 89.7473 139.479 89.6702 139.576 89.6002L140.331 89.0146C140.98 88.5278 141.896 87.8698 142.934 87.1724C143.972 86.475 144.946 85.8566 145.651 85.4487L146.503 84.9553C146.608 84.8928 146.719 84.8378 146.835 84.7908Z" fill="#1B1A51"/>
<path d="M141.353 108.522C141.28 108.597 141.196 108.663 141.101 108.719L140.379 109.206L137.946 110.778L135.513 112.325L134.759 112.778C134.667 112.836 134.57 112.887 134.467 112.93C134.536 112.857 134.618 112.793 134.71 112.739L135.44 112.246L137.873 110.673L140.306 109.127L141.061 108.673C141.152 108.616 141.25 108.565 141.353 108.522Z" fill="#1B1A51"/>
<path d="M137.013 113.338C137.013 113.338 136.876 113.272 136.803 113.154C136.73 113.035 136.705 112.923 136.754 112.91C136.803 112.897 136.884 112.969 136.957 113.088C137.03 113.206 137.054 113.318 137.013 113.338Z" fill="#1B1A51"/>
<path d="M207.965 81.501C207.848 81.4782 207.734 81.4474 207.624 81.4089L206.724 81.1063C205.913 80.8497 204.899 80.501 203.723 80.1391C202.547 79.7773 201.476 79.4812 200.698 79.2312L199.781 78.9614C199.665 78.9322 199.554 78.8925 199.449 78.843C199.568 78.8531 199.685 78.8752 199.797 78.9088L200.738 79.1391C201.549 79.343 202.612 79.6391 203.788 80.0075C204.964 80.376 206.018 80.7378 206.764 81.0207L207.657 81.3563C207.766 81.3945 207.869 81.4431 207.965 81.501Z" fill="#1B1A51"/>
<path d="M201.914 77.5535C201.955 77.5535 201.809 77.764 201.59 77.968C201.371 78.1719 201.16 78.3232 201.128 78.2969C201.095 78.2706 201.241 78.0864 201.46 77.8824C201.679 77.6785 201.882 77.5535 201.914 77.5535Z" fill="#1B1A51"/>
<path d="M189.546 90.3762C189.457 89.8973 189.427 89.4124 189.456 88.9288C189.427 88.4473 189.457 87.9646 189.546 87.4879C189.624 87.9654 189.651 88.4475 189.627 88.9288C189.651 89.4122 189.624 89.8965 189.546 90.3762Z" fill="#1B1A51"/>
<path d="M191.646 90.804C191.606 90.804 191.281 90.1461 190.77 89.3435C190.259 88.5408 189.765 87.9421 189.805 87.9158C190.261 88.3214 190.638 88.7805 190.924 89.2777C191.262 89.7529 191.505 90.2679 191.646 90.804Z" fill="#1B1A51"/>
<path d="M130.436 95.1924C129.925 95.2027 129.414 95.1718 128.911 95.1003C128.4 95.0671 127.894 94.9899 127.402 94.87C127.913 94.8558 128.425 94.8867 128.927 94.9621C129.439 94.9916 129.946 95.0689 130.436 95.1924Z" fill="#1B1A51"/>
<path d="M130.566 94.7516C130.035 94.5892 129.493 94.4508 128.943 94.3371C128.385 94.269 127.821 94.2272 127.256 94.2121C127.82 94.0925 128.412 94.0925 128.976 94.2121C129.553 94.2804 130.1 94.466 130.566 94.7516Z" fill="#1B1A51"/>
<path d="M153.794 68.9412C153.705 68.6715 153.794 66.6912 153.794 66.6912C153.794 66.6912 159.975 67.0793 160.64 71.3887C160.64 71.3887 161.767 67.8162 163.422 67.6057L163.697 69.961L162.813 72.4809L159.277 73.0664L155.489 72.0532L153.794 68.9412Z" fill="white"/>
<path d="M160.583 72.2178L159.877 73.9744L160.98 75.2639L161.434 73.5073L160.583 72.2178Z" fill="#1B1A51"/>
<path d="M160.68 74.9153L159.464 83.2643L162.237 88.2053L164.289 80.1918L161.134 74.6653L160.68 74.9153Z" fill="#1B1A51"/>
<path d="M160.048 57.6317C159.939 57.2374 159.939 56.8286 160.048 56.4343C160.129 56.6265 160.157 56.8311 160.129 57.033C160.161 57.235 160.134 57.4404 160.048 57.6317Z" fill="#423030"/>
<path d="M166.925 57.3751C166.877 57.3751 166.836 57.1316 166.82 56.8224C166.804 56.5132 166.82 56.2632 166.885 56.2632C166.971 56.4385 167.007 56.6275 166.99 56.8158C166.998 57.158 166.974 57.3751 166.925 57.3751Z" fill="#423030"/>
</svg>
