<svg width="280" height="230" viewBox="0 0 280 230" fill="none" xmlns="http://www.w3.org/2000/svg">
<path d="M105.963 103.504C102.707 105.864 101.463 109.538 104.636 112.32C107.717 115.024 113.027 115.505 116.871 113.43C125.705 108.287 116.498 98.8149 106.979 100.784C106.229 100.948 105.751 101.5 105.855 102.084C105.959 102.667 106.613 103.105 107.394 103.113C110.229 102.974 113.044 103.564 115.378 104.786C117.692 106.373 117.913 109.06 115.875 110.851C110.67 115.665 101.67 108.584 107.124 104.27C107.422 104.041 107.417 103.674 107.114 103.449C106.81 103.225 106.323 103.229 106.025 103.457L105.963 103.504Z" fill="#8AA9FC"/>
<path d="M223.082 129.36C228.501 127.463 233.695 125.223 238.608 122.664C239.366 122.284 239.571 121.515 239.065 120.946C238.56 120.377 237.537 120.224 236.779 120.603C231.623 122.698 226.72 125.127 222.126 127.862C221.211 128.393 221.876 129.782 223.082 129.423V129.36Z" fill="#EDC483"/>
<path d="M26.0827 141.178C25.0485 136.865 23.5247 132.626 21.5279 128.507C21.189 127.929 20.3166 127.64 19.518 127.842C18.7193 128.044 18.259 128.67 18.4575 129.284C19.8138 133.458 21.6577 137.535 23.968 141.467C24.4153 142.244 26.3267 142.122 26.0014 141.162L26.0827 141.178Z" fill="#E8947E"/>
<path d="M42.676 102.812L42.3683 102.617C41.5081 101.842 40.1275 101.495 38.8071 101.723C37.4868 101.951 36.4558 102.713 36.1479 103.69C35.8401 104.667 36.3087 105.688 37.3567 106.324L37.6424 106.568C39.0452 107.588 41.2952 107.588 42.698 106.568C44.0687 105.521 44.0687 103.859 42.698 102.812H42.676Z" fill="#251A51"/>
<path d="M185.716 214.163C185.716 214.163 129.289 223.818 106.63 207.115L114.736 167.11C117.214 155.607 115.744 133.47 127.651 125.615C129.023 124.717 130.548 123.955 132.187 123.349C140.587 120.368 155.413 118.692 169.693 118.692C187.018 118.692 204.868 128.348 209.425 140.72L190.651 173.164L185.716 214.163Z" fill="#BD462B"/>
<path d="M180.204 145.833C180.204 145.833 205.301 181.893 192.878 183.807C151.762 190.123 127.9 195.303 127.9 195.303L125.808 207.188C126.415 208.977 208.981 207.421 218.769 199.176C225.67 193.343 234.851 179.886 215.318 150.749L209.379 140.839L180.204 145.833Z" fill="#F6AEA6"/>
<path d="M132.712 127.291L70.1143 145.372L68.1529 120.869L54.903 116.988C54.903 116.988 35.4977 156.33 59.7857 163.656C84.0737 170.982 111.429 157.421 111.429 157.421L132.712 127.291Z" fill="#F6AEA6"/>
<path d="M140.383 120.964C118.427 126.168 105.33 132.245 74.4108 141.828L90.2795 168.099L117.567 161.571L140.383 120.964Z" fill="#BD462B"/>
<path d="M175.911 140.648L191.856 168.099L227.836 163.236L203.584 132.321L174.904 140.648" fill="#BD462B"/>
<path d="M157.693 159.374C165.348 159.016 172.919 159.374 180.553 159.374C181.225 159.374 181.183 158.607 180.553 158.556C172.953 157.926 165.293 157.926 157.693 158.556C157.127 158.556 157.106 159.306 157.693 159.289V159.374Z" fill="#1A3066"/>
<path d="M191.455 127.779C165.868 129.498 183.362 157.655 189.941 166.185C190.095 166.386 190.439 166.455 190.708 166.34C190.978 166.224 191.071 165.968 190.916 165.767C184.4 157.145 166.947 130.937 191.538 128.244C191.891 128.244 191.829 127.749 191.538 127.779H191.455Z" fill="#1A3066"/>
<path d="M119.775 143.902C116.485 153.395 114.395 163.088 113.534 172.86C113.534 173.25 114.432 173.359 114.517 172.954C116.398 163.285 118.301 153.633 120.438 143.98C120.438 143.684 119.882 143.543 119.775 143.855V143.902Z" fill="#1A3066"/>
<path d="M180.647 92.0001L181.818 79.7641C183.897 79.1878 185.577 78.0077 186.474 76.4922C187.372 74.9766 187.412 73.2542 186.585 71.7162C184.585 68.6366 180.136 66.8885 175.608 67.4032C178.389 65.9811 178.18 62.6057 175.9 60.7617C173.386 59.0495 170.079 58.1359 166.679 58.2145C163.323 58.3191 159.961 58.2355 156.622 57.9645C153.695 57.5582 150.83 56.558 147.861 56.8393C144.892 57.1206 142.09 59.6053 143.679 61.5274C139.497 61.0586 134.813 60.6367 131.133 62.1681C127.453 63.6996 125.446 68.0751 128.687 70.1848C126.601 71.2041 125.956 73.2689 127.223 74.8729C128.583 76.4014 130.853 77.3399 133.308 77.3888C135.702 77.4215 138.088 77.1683 140.375 76.6387" fill="#251A51"/>
<path d="M179.897 84.0163L179.04 92.3853C179.04 92.3853 188.628 93.3426 185.933 99.8277C183.239 106.313 176.596 103.472 176.596 103.472C176.596 103.472 174.967 120.086 151.926 114.821C133.607 110.636 134.735 93.0801 137.053 78.2106C137.462 75.4243 139.433 72.8926 142.487 71.2313C145.54 69.57 149.396 68.9315 153.117 69.4711L166.945 71.463C174.956 72.6003 180.532 78.005 179.897 84.0163Z" fill="#F6AEA6"/>
<path d="M178.74 99.3826L172.395 123.782C171.715 126.413 169.584 128.726 166.498 130.181C163.413 131.637 159.644 132.108 156.069 131.484C149.153 130.276 144.724 125.355 145.96 120.254L149.386 106.268L178.74 99.3826Z" fill="#F6AEA6"/>
<path d="M153.424 99.3107C153.424 99.3107 153.424 99.646 152.842 99.8899C152.26 100.134 150.944 99.6155 150.686 98.7924C150.365 97.9069 150.277 96.9872 150.427 96.0793L150.664 92.8632C150.704 90.0908 151.138 87.3283 151.958 84.6171C152.259 87.3789 152.202 90.1545 151.785 92.9089L151.44 96.125C151.266 96.9588 151.266 97.8062 151.44 98.64C151.613 99.3107 152.303 99.646 152.756 99.585C153.209 99.524 153.338 99.2649 153.424 99.3107Z" fill="#251A51"/>
<path d="M145.754 113.013C146.825 113.35 147.872 113.734 148.889 114.161C151.385 115.027 154.079 115.501 156.813 115.554C159.547 115.596 162.263 115.211 164.801 114.423C165.839 114.024 166.908 113.673 168 113.373C168 113.455 167.089 114.193 165.14 115.013C159.9 116.993 153.744 116.877 148.635 114.702C147.508 114.332 146.518 113.752 145.754 113.013H145.754Z" fill="#251A51"/>
<path d="M150.374 102.736C150.495 102.736 150.979 103.014 151.907 103.337C154.357 104.246 157.31 103.52 158.603 101.689C159.128 101.012 159.249 100.504 159.41 100.519C159.571 100.535 159.692 101.089 159.289 101.936C158.731 103.064 157.529 103.936 156.025 104.305C154.521 104.674 152.878 104.499 151.564 103.83C150.576 103.321 150.273 102.798 150.374 102.736Z" fill="#251A51"/>
<path d="M179.507 100.379C179.507 100.253 180.084 100.19 180.725 99.9059C181.072 99.7533 181.33 99.512 181.452 99.2279C181.452 98.9126 181.452 98.6288 181.11 98.55C180.929 98.4598 180.692 98.4598 180.511 98.55L179.571 98.1873C180.447 96.8314 181.259 95.9012 181.473 95.98C181.687 96.0588 181.302 97.1152 180.554 98.5027L179.593 98.14C180.001 97.6745 180.805 97.4946 181.494 97.7143C181.969 97.8431 182.333 98.1294 182.478 98.4869C182.608 98.7841 182.608 99.1042 182.478 99.4014C182.253 99.8578 181.757 100.213 181.131 100.363C180.02 100.647 179.507 100.473 179.507 100.379Z" fill="#251A51"/>
<path d="M161.863 84.0829C161.863 83.8614 162.922 83.3503 164.408 83.674C165.893 83.9977 166.606 84.9348 166.443 85.0711C166.28 85.2074 165.364 84.7815 164.204 84.5259C163.044 84.2703 161.965 84.3385 161.863 84.0829Z" fill="#251A51"/>
<path d="M141.927 81.6514C141.8 81.4469 143.008 80.7995 144.702 80.9188C146.397 81.038 147.457 81.8388 147.266 82.0262C147.075 82.2136 145.995 81.8899 144.597 81.8047C143.198 81.7195 142.054 81.8899 141.927 81.6514Z" fill="#251A51"/>
<path d="M179.143 92.6211C172.751 87.9373 170.815 80.1309 169.128 73.5423C163.04 76.8043 155.183 77.5716 148.184 75.5876C146.063 77.4811 143.579 79.128 140.813 80.4744C140.087 80.934 139.129 81.1334 138.19 81.0208C137.108 80.7866 136.629 79.8655 136.379 79.038C135.469 76.4129 135.6 73.646 136.754 71.0755C137.923 68.4855 140.515 66.3944 143.874 65.3301C147.578 64.4995 151.534 64.5486 155.2 65.4706C160.789 66.588 166.148 68.2743 171.127 70.4823C176.02 72.6368 180.746 75.4939 182.807 79.4596C184.868 83.4252 184.889 91.1223 179.871 93.1363" fill="#251A51"/>
<path d="M163.639 90.8635C163.317 90.8635 163.11 90.1965 163.179 89.4098C163.248 88.6232 163.593 88.0075 163.916 88.0246C164.238 88.0417 164.468 88.6916 164.376 89.4782C164.284 90.2649 163.985 90.8806 163.639 90.8635Z" fill="#251A51"/>
<path d="M145.232 89.1603C144.91 89.1603 144.702 88.4934 144.771 87.7067C144.84 86.9201 145.186 86.3044 145.508 86.3215C145.83 86.3386 146.037 86.9885 145.968 87.7751C145.899 88.5618 145.577 89.1774 145.232 89.1603Z" fill="#251A51"/>
<path d="M53.6988 117.723C53.6988 117.723 56.5166 105.043 59.8854 105.183C63.2541 105.322 69.9915 105.183 69.9915 105.183C69.9915 105.183 70.5636 93.1378 72.428 95.0445C74.2925 96.9512 74.8857 113.181 67.661 120.963L53.6988 117.723Z" fill="#F6AEA6"/>
<path d="M127.343 195.358C127.343 195.358 97.6579 199.233 98.1991 202.101C98.7026 204.105 99.6005 206.043 100.864 207.852L127.301 207.402L127.343 195.358Z" fill="#F6AEA6"/>
<path d="M159.562 208.754L159.332 205.686L97.9454 202.884L77.3578 161.852L9.97272 164.608L32.9639 208.988L159.562 208.754Z" fill="#383838"/>
<path opacity="0.41" d="M47.5693 183.922C47.7229 185.956 50.0733 187.513 52.8211 187.402C55.5688 187.29 57.6749 185.551 57.5268 183.517C57.3787 181.483 55.0324 179.922 52.2843 180.03C50.9612 180.082 49.7203 180.521 48.8357 181.251C47.9511 181.982 47.4954 182.942 47.5693 183.922Z" fill="white"/>
<path opacity="0.41" d="M45.2712 183.715C45.4818 186.531 48.7348 188.689 52.5395 188.536C56.3443 188.383 59.2621 185.977 59.0589 183.16C58.8557 180.343 55.6083 178.181 51.8032 178.329C49.9711 178.4 48.2527 179.008 47.0272 180.018C45.8016 181.029 45.1698 182.359 45.2712 183.715Z" fill="white"/>
<path d="M0 209.177L264.498 206.716L280 212.722C280 212.722 76.9434 253.863 0 209.177Z" fill="#CD8032"/>
<path d="M206.507 64.6316C205.712 65.783 208.327 95.5784 208.327 95.5784L228.054 94.3492L225.753 102.222L235.376 94.1314L254.685 92.4822L253.514 63.6047L206.507 64.6316Z" fill="#FFBB7D"/>
<path d="M156.624 18.2159C148.693 18.5954 142.559 23.5378 142.687 29.4465C142.687 29.4465 142.895 35.3173 147.187 37.5014C151.478 39.6856 151.353 42.0246 151.353 42.0246H162.478C162.246 40.4076 162.72 38.7779 163.832 37.3775C165.645 35.7045 170.082 32.1728 169.478 26.9835C168.874 21.7942 163.52 17.7048 156.624 18.2159Z" fill="#FFBB7D"/>
<path d="M150.82 44.6067C154.826 44.4533 158.893 44.8111 162.878 44.6067C163.435 44.6067 163.641 43.84 163.001 43.7378C158.965 43.2266 154.857 43.2266 150.82 43.7378C150.222 43.7378 150.18 44.5385 150.82 44.5215V44.6067Z" fill="#6338A1"/>
<path d="M152.366 47.4471C153.994 47.3619 155.602 47.3108 157.23 47.3279C158.859 47.3449 160.487 47.5664 162.095 47.4642C162.679 47.4642 162.867 46.7145 162.241 46.5953C158.937 46.0842 155.545 46.0842 152.241 46.5953C151.698 46.5953 151.823 47.396 152.366 47.379V47.4471Z" fill="#6338A1"/>
<path d="M153.833 49.3697C155.284 49.3697 156.778 49.7786 158.208 49.7445C158.506 49.7246 158.748 49.542 158.789 49.305C158.83 49.068 158.659 48.8401 158.378 48.7564C156.886 48.4976 155.351 48.4343 153.833 48.569C153.595 48.6083 153.425 48.7755 153.425 48.9693C153.425 49.1632 153.595 49.3303 153.833 49.3697Z" fill="#6338A1"/>
<path d="M154.165 42.1411C154.489 39.1555 153.084 35.8606 152.37 32.9369L151.138 33.3082C151.743 33.9888 152.716 35.9843 154.208 35.9225C155.7 35.8606 156.37 33.8651 156.565 33.0607H155.224C155.527 33.9733 155.57 36.1545 157.581 35.9843C159.592 35.8142 160.435 33.9888 160.976 32.9988L159.57 32.7203C158.399 35.8358 158.258 39.1037 159.16 42.2649C159.269 42.4837 159.577 42.6185 159.899 42.5887C160.222 42.559 160.472 42.3727 160.5 42.1411C160.37 39.0473 159.765 36.0308 161.062 32.9988C161.322 32.3491 160.003 32.117 159.657 32.7203C159.462 33.0607 158.359 35.0253 157.322 34.7623C156.99 34.1288 156.765 33.4693 156.651 32.7977C156.573 32.5787 156.297 32.4255 155.981 32.4255C155.665 32.4255 155.389 32.5787 155.311 32.7977C155.159 33.3855 154.813 35.0253 153.819 34.5302C153.257 34.2518 152.738 33.2463 152.392 32.8132C152.233 32.5886 151.858 32.4902 151.534 32.5879C151.209 32.6856 151.046 32.9461 151.159 33.1844C151.808 36.1081 151.981 39.5268 153.624 42.2494C153.775 42.4969 154.23 42.3422 154.251 42.1411H154.165Z" fill="#6338A1"/>
<path d="M114.123 38.5983C120.211 37.1339 126.49 35.8764 132.431 34.1096C132.916 33.9663 132.726 33.4092 132.221 33.5206C126.026 34.6826 119.937 36.4017 113.87 37.882C113.28 38.0252 113.533 38.7415 114.123 38.5983Z" fill="#FFBB7D"/>
<path d="M121.735 24.7003C125.49 24.7658 129.247 24.6691 132.99 24.4107C133.26 24.4107 133.479 24.2276 133.479 24.0018C133.479 23.776 133.26 23.5929 132.99 23.5929C129.236 23.4964 125.479 23.5703 121.735 23.8144C121.443 23.8144 121.205 24.0127 121.205 24.2574C121.205 24.502 121.443 24.7003 121.735 24.7003Z" fill="#FFBB7D"/>
<path d="M140.199 19.7803C136.034 17.0369 131.869 13.6497 127.016 11.4733C126.688 11.2871 126.218 11.3317 125.965 11.5729C125.711 11.8142 125.772 12.1607 126.1 12.3469C129.828 15.4123 135.055 17.7572 139.429 20.3474C139.97 20.6693 140.741 20.1175 140.199 19.7803Z" fill="#FFBB7D"/>
<path d="M149.589 15.7013C149.421 14.7502 148.944 13.8553 148.21 13.1135C147.654 12.1352 146.956 11.2172 146.131 10.3801C145.704 9.99193 144.791 10.3801 145.024 10.9138C145.536 11.8972 146.188 12.8258 146.967 13.6796C147.549 14.4398 148.132 15.4911 149.142 15.8792C149.222 15.9111 149.315 15.9091 149.392 15.8738C149.469 15.8384 149.521 15.7742 149.531 15.7013H149.589Z" fill="#FFBB7D"/>
<path d="M158.509 13.8233C158.873 9.38494 158.766 4.93421 158.187 0.506694C158.187 0.226855 157.857 0 157.45 0C157.043 0 156.714 0.226855 156.714 0.506694C156.415 4.94781 156.576 9.39795 157.197 13.8233C157.256 14.0403 157.532 14.1975 157.853 14.1975C158.174 14.1975 158.449 14.0403 158.509 13.8233Z" fill="#FFBB7D"/>
<path d="M165.154 15.7468C166.76 14.2446 168.192 12.6543 169.437 10.9911C169.638 10.7459 169.518 10.4326 169.169 10.2913C168.82 10.15 168.374 10.2342 168.173 10.4794C166.677 12.0362 165.352 13.6713 164.212 15.3706C164.099 15.5464 164.193 15.7538 164.431 15.8508C164.668 15.9478 164.971 15.9029 165.133 15.7468H165.154Z" fill="#FFBB7D"/>
<path d="M170.864 19.7721C173.695 18.8944 176.361 17.7594 179.129 16.7455C181.907 15.7824 184.544 14.6163 187.002 13.2649C187.196 13.1191 187.234 12.8962 187.094 12.7199C186.955 12.5436 186.672 12.457 186.402 12.5083C183.725 13.3221 181.17 14.3363 178.778 15.5349C175.934 16.644 173.175 17.8666 170.513 19.1971C170.1 19.4089 170.327 20.0142 170.885 19.8478L170.864 19.7721Z" fill="#FFBB7D"/>
<path d="M174.52 25.3117C176.96 25.8613 179.58 25.4713 181.608 24.2572C181.828 24.0738 181.871 23.7968 181.714 23.5758C181.557 23.3548 181.237 23.2422 180.927 23.2986C179.846 23.4584 178.925 23.9057 177.764 24.1134C176.603 24.3211 175.602 24.3052 174.52 24.4809C173.96 24.5768 174.06 25.1839 174.52 25.3117Z" fill="#FFBB7D"/>
<path d="M175.39 32.7953C183.53 34.5283 191.796 35.9013 200.145 36.9075C201.147 37.0027 201.293 35.8119 200.374 35.6055C192.27 33.974 184.045 32.7069 175.745 31.8109C174.91 31.6998 174.534 32.6365 175.39 32.7953Z" fill="#FFBB7D"/>
<path d="M217.096 77.8599L221.338 88.5926L227.234 87.7515L226.661 85.5862L228.315 84.8541L231.475 87.1284L241.443 85.7108L242.737 82.9069L239.895 82.4396L243.564 81.5517L242.758 78.5453L239.598 78.7478L243.946 77.8755L242.991 74.1525L232.875 75.6012C232.875 75.6012 233.511 70.414 230.521 68.7161L228.252 69.0432C228.656 69.8967 228.892 70.7886 228.952 71.6913C228.379 73.5969 227.671 75.4791 226.831 77.3303L223.734 78.4051L222.992 76.8474L217.096 77.8599Z" fill="white"/>
<path d="M13.8085 57.9266L17.1719 87.7455H91.0415L95.1407 98.2477L99.4501 86.7296L113.535 86.1201L107.039 59.4113L13.8085 57.9266Z" fill="#FFBB7D"/>
<path d="M23.605 68.9657C49.0062 68.0952 74.4648 68.3914 99.8074 69.8523C100.711 69.8523 100.732 68.9371 99.8074 68.8799C74.4611 67.455 49.0018 67.2018 23.605 68.1221C22.8273 68.1221 22.8062 68.9943 23.605 68.9657Z" fill="white"/>
<path d="M25.147 74.6448C50.548 73.7674 76.0073 74.0636 101.349 75.5314C102.253 75.5314 102.253 74.6019 101.349 74.559C76.003 73.1341 50.5437 72.8809 25.147 73.8011C24.3481 73.8011 24.3481 74.6591 25.147 74.6448Z" fill="white"/>
<path d="M25.0627 79.3764C42.1167 79.8358 58.9818 78.832 76.0357 80.0739C76.9377 80.0739 76.9377 78.9681 76.0357 78.9171C59.0028 77.9814 42.1167 78.5768 25.0627 78.3727C24.7644 78.4174 24.5479 78.6285 24.5479 78.8746C24.5479 79.1206 24.7644 79.3317 25.0627 79.3764Z" fill="white"/>
</svg>
