<svg width="370" height="230" viewBox="0 0 370 230" fill="none" xmlns="http://www.w3.org/2000/svg">
<path d="M156.555 38.8664C156.776 38.8664 156.955 38.6873 156.955 38.4664C156.955 38.2455 156.776 38.0664 156.555 38.0664C156.335 38.0664 156.156 38.2455 156.156 38.4664C156.156 38.6873 156.335 38.8664 156.555 38.8664Z" fill="#D1D1E8"/>
<path d="M67.6934 20.9199C67.6934 20.9199 76.4287 15.2177 78.3577 15.6579C80.2866 16.0981 88.842 16.7583 88.1324 17.7387C87.4228 18.7191 82.8452 18.599 82.2356 19.8895C81.6259 21.18 83.9546 23.9211 83.9546 23.9211C83.9546 23.9211 86.5832 26.8722 87.7926 27.1723C89.0019 27.4724 98.5567 27.5825 96.9876 28.4028C95.4184 29.2231 86.5832 32.4043 83.9946 31.514C81.0123 30.2142 78.1381 28.6787 75.3993 26.9222C75.1394 26.7221 69.8922 28.923 69.8922 28.923L67.6934 20.9199Z" fill="#F0BFAC"/>
<path d="M0.19989 10.636C9.19503 17.3285 19.3595 24.6413 20.9887 24.6413C23.987 24.6413 68.2031 15.6379 68.2031 15.6379C68.2031 15.6379 76.8684 29.6933 72.091 33.2847C72.091 33.2847 18.5899 47.9403 16.2012 46.1496C15.3317 45.4993 8.52539 43.6386 0.209885 41.5378L0.19989 10.636Z" fill="url(#paint0_linear_893_30522)"/>
<rect width="58.9747" height="42.0114" rx="6.18" transform="matrix(0.937949 0.346773 -0.346443 0.938071 90.2613 0)" fill="#E8E8E8"/>
<path d="M82.1556 21.9204C81.8229 21.2871 81.8534 20.5242 82.2355 19.9196C82.8452 18.6291 87.4327 18.7491 88.1324 17.7688C88.832 16.7884 82.2256 16.2982 79.3271 15.858C79.7469 18.369 80.3865 20.3097 82.1556 21.9204Z" fill="#F0BFAC"/>
<path d="M101.135 22.6006V22.6006L98.6067 23.0207L98.7266 21.6402L101.895 21.14L103.304 21.6302L99.0265 33.8549L97.4273 33.2947L101.135 22.6006Z" fill="black"/>
<path fill-rule="evenodd" clip-rule="evenodd" d="M107.292 36.9261C110.011 37.8465 112.339 36.0858 113.788 31.9242C115.138 28.0627 114.338 25.2016 111.88 24.3413C109.421 23.481 106.782 25.1716 105.423 29.2332C104.064 33.2947 104.903 36.0958 107.292 36.9261ZM107.832 35.6655C106.323 35.1353 105.973 32.9945 107.072 29.8033V29.8433C108.231 26.512 109.941 25.1115 111.35 25.5717C113.099 26.1619 113.179 28.3027 112.099 31.4239C111.02 34.5451 109.531 36.2458 107.832 35.6655Z" fill="black"/>
<path fill-rule="evenodd" clip-rule="evenodd" d="M116.947 40.3074C119.655 41.2378 121.994 39.4671 123.443 35.3055C124.793 31.404 123.993 28.5729 121.534 27.7126C119.076 26.8523 116.437 28.5529 115.078 32.6145C113.719 36.676 114.558 39.4771 116.947 40.3074ZM117.486 39.0469C115.977 38.5267 115.627 36.3759 116.727 33.1947C117.936 29.8634 119.545 28.4528 120.995 28.953C122.754 29.5533 122.834 31.6741 121.754 34.8053C120.675 37.9365 119.186 39.6371 117.486 39.0469Z" fill="black"/>
<path d="M37.9095 133.223C37.9095 133.223 41.5675 123.439 43.3666 122.659C45.1656 121.879 52.4616 117.317 52.4816 118.517C52.5016 119.718 48.7336 122.349 49.0035 123.759C49.2734 125.17 52.7215 125.96 52.7215 125.96C52.7215 125.96 56.5894 126.78 57.7188 126.3C58.8482 125.82 66.634 120.238 65.8544 121.829C65.0748 123.419 59.8576 131.202 57.2391 132.052C54.088 132.79 50.8826 133.271 47.6542 133.493C47.3244 133.493 44.406 138.375 44.406 138.375L37.9095 133.223Z" fill="#F0BFAC"/>
<path d="M0 164.525C0.869334 164.497 1.7263 164.311 2.52863 163.975C4.93733 162.204 35.221 128.711 35.221 128.711C35.221 128.711 50.5327 134.874 48.8136 140.606C48.8136 140.606 14.4422 184.183 11.4538 184.153C10.5743 184.153 6.0967 185.813 0.199892 188.154L0 164.525Z" fill="url(#paint1_linear_893_30522)"/>
<rect width="58.9723" height="42.0131" rx="6.18" transform="matrix(0.960614 -0.277887 0.277413 0.960751 43.6596 102.98)" fill="#E8E8E8"/>
<path d="M50.1729 124.96C49.3333 124.59 49.1234 124.41 49.0035 123.749C48.7337 122.339 52.4916 119.748 52.4816 118.507C52.4716 117.267 46.8447 120.838 44.2561 122.209C45.8189 123.829 47.9279 124.81 50.1729 124.96V124.96Z" fill="#F0BFAC"/>
<path d="M65.5446 126.65L65.2247 125.65L66.1442 123.959C68.363 119.958 69.2925 117.957 68.7328 116.056C68.5938 115.368 68.1495 114.78 67.5253 114.459C66.9011 114.138 66.1649 114.118 65.5246 114.406C64.5676 114.743 63.7558 115.4 63.2258 116.266L62.3263 115.266C63.0542 114.141 64.1547 113.309 65.4346 112.915C66.4028 112.517 67.4952 112.554 68.4341 113.017C69.3729 113.48 70.0678 114.325 70.342 115.336C71.0516 117.617 69.9722 119.978 68.1431 123.339L67.4435 124.56V124.56L72.9605 122.799L73.4003 124.19L65.5446 126.65Z" fill="black"/>
<path fill-rule="evenodd" clip-rule="evenodd" d="M79.2871 122.589C82.0256 121.729 82.8552 118.928 81.5459 114.726C80.3266 110.784 78.0178 108.964 75.5092 109.734C73.0005 110.504 71.9111 113.425 73.2204 117.507C74.5297 121.589 76.8684 123.349 79.2871 122.589ZM78.9773 121.268C77.4481 121.739 75.899 120.228 74.8995 117.007C73.8501 113.635 74.3598 111.515 75.819 111.064C77.5481 110.524 78.9073 112.165 79.8968 115.326C80.8863 118.487 80.6864 120.738 78.9773 121.268Z" fill="black"/>
<path fill-rule="evenodd" clip-rule="evenodd" d="M89.0319 119.558C91.7704 118.687 92.6099 115.886 91.3006 111.685C90.0813 107.743 87.7725 105.922 85.2639 106.693C82.7553 107.463 81.6658 110.374 82.9751 114.466C84.2844 118.557 86.6232 120.308 89.0319 119.558ZM88.732 118.217C87.2029 118.697 85.6437 117.177 84.6442 113.955C83.6048 110.594 84.1045 108.473 85.5737 108.013C87.3028 107.473 88.6621 109.114 89.6515 112.275C90.641 115.436 90.4411 117.687 88.732 118.217Z" fill="black"/>
<path d="M337.088 128.221C337.088 128.221 333.44 118.437 331.631 117.657C329.822 116.877 322.536 112.315 322.516 113.515C322.496 114.716 326.274 117.347 325.994 118.757C325.714 120.168 322.276 120.938 322.276 120.938C322.276 120.938 318.408 121.759 317.278 121.278C316.149 120.798 308.363 115.216 309.143 116.807C309.922 118.397 315.14 126.18 317.758 127.031C320.913 127.768 324.121 128.25 327.353 128.471C327.673 128.471 330.591 133.353 330.591 133.353L337.088 128.221Z" fill="#F0BFAC"/>
<path d="M370 156.562C362.214 148.559 339.776 123.709 339.776 123.709C339.776 123.709 324.465 129.872 326.194 135.604C326.194 135.604 360.555 179.181 363.543 179.151C365.757 179.664 367.918 180.381 370 181.291V156.562Z" fill="url(#paint2_linear_893_30522)"/>
<rect width="58.9723" height="42.0131" rx="6.18" transform="matrix(-0.960614 -0.277887 0.277413 -0.960751 319.684 138.327)" fill="#E8E8E8"/>
<path d="M325.024 120.958C325.864 120.588 325.874 119.408 326.024 118.747C326.304 117.337 322.536 114.746 322.546 113.505C322.556 112.265 328.183 115.836 330.771 117.207C328.902 118.958 327.403 120.718 325.024 120.958Z" fill="#F0BFAC"/>
<path d="M282.407 111.755C283.138 112.452 284.037 112.949 285.016 113.195C287.205 113.695 288.204 112.455 288.434 111.405C288.814 109.624 287.435 108.504 285.746 108.123L284.846 107.953L285.146 106.673L286.095 106.893C287.335 107.183 289.094 106.893 289.394 105.402C289.633 104.402 289.194 103.352 287.625 102.991C286.713 102.811 285.769 102.897 284.906 103.241L284.746 101.901C285.871 101.48 287.097 101.407 288.264 101.691C290.753 102.261 291.542 103.992 291.193 105.532C290.846 106.921 289.623 107.912 288.194 107.963V107.963C289.754 108.567 290.638 110.221 290.273 111.855C289.803 113.856 287.824 115.286 284.796 114.586C283.642 114.341 282.578 113.783 281.718 112.975L282.407 111.755Z" fill="black"/>
<path fill-rule="evenodd" clip-rule="evenodd" d="M295.45 117.047C298.249 117.687 300.368 115.676 301.367 111.385C302.287 107.363 301.217 104.622 298.659 104.032C296.1 103.442 293.691 105.412 292.772 109.594C291.852 113.775 292.992 116.477 295.45 117.047ZM295.85 115.746C294.301 115.386 293.721 113.285 294.471 110.004C295.26 106.563 296.77 104.952 298.259 105.332C300.028 105.742 300.378 107.853 299.638 111.074C298.898 114.296 297.599 116.146 295.85 115.746Z" fill="black"/>
<path fill-rule="evenodd" clip-rule="evenodd" d="M305.415 119.328C308.203 119.968 310.322 117.967 311.322 113.675C312.251 109.654 311.172 106.913 308.613 106.323C306.055 105.732 303.646 107.703 302.726 111.885C301.807 116.066 302.946 118.767 305.415 119.328ZM305.815 118.027C304.256 117.677 303.676 115.576 304.425 112.295C305.215 108.854 306.724 107.273 308.213 107.623C309.982 108.023 310.392 110.124 309.603 113.355C308.813 116.587 307.554 118.427 305.815 118.027Z" fill="black"/>
<path d="M323.375 27.2424C323.375 27.2424 315.759 20.1296 313.79 20.2397C311.821 20.3497 303.266 19.5194 303.796 20.6098C304.326 21.7002 308.863 22.3605 309.253 23.741C309.643 25.1216 306.894 27.3524 306.894 27.3524C306.894 27.3524 303.836 29.8033 302.546 29.9234C301.257 30.0434 291.862 28.4728 293.261 29.5533C294.661 30.6337 302.836 35.2554 305.535 34.8453C308.685 34.0942 311.77 33.0906 314.76 31.8441C315.05 31.6941 319.837 34.7552 319.837 34.7552L323.375 27.2424Z" fill="#F0BFAC"/>
<path d="M370 38.7569C369.613 38.8835 369.207 38.9411 368.801 38.9269C365.862 38.4167 323.825 21.9204 323.825 21.9204C323.825 21.9204 312.831 34.3652 316.919 38.7168C316.919 38.7168 367.012 60.9854 370 60.9453V38.7569Z" fill="url(#paint3_linear_893_30522)"/>
<rect width="58.9699" height="42.0148" rx="6.18" transform="matrix(-0.983605 0.180337 -0.180015 -0.983664 312.32 44.0764)" fill="#E8E8E8"/>
<path d="M309.033 25.9219C309.477 25.2736 309.556 24.4419 309.243 23.7211C308.853 22.3406 304.315 21.7203 303.786 20.5899C303.256 19.4595 309.872 20.1497 312.781 20.2198C311.951 22.6407 311.052 24.6415 309.033 25.9219Z" fill="#F0BFAC"/>
<path d="M271.983 26.0119L267.186 27.1724L267.485 30.5237C267.81 30.3902 268.144 30.2799 268.485 30.1935C269.424 29.938 270.414 29.938 271.353 30.1935C272.666 30.575 273.659 31.6538 273.932 32.9946C274.532 35.4555 273.012 37.7664 270.284 38.4267C269.197 38.7207 268.052 38.7207 266.966 38.4267L267.076 37.0261C268.013 37.2654 268.996 37.2654 269.934 37.0261C270.71 36.8965 271.399 36.4536 271.839 35.8011C272.279 35.1486 272.433 34.3437 272.263 33.5748C271.843 31.9442 270.484 31.0439 267.965 31.6541C267.384 31.8048 266.813 31.9919 266.256 32.2143L265.606 25.9719L271.603 24.5114L271.983 26.0119Z" fill="black"/>
<path fill-rule="evenodd" clip-rule="evenodd" d="M281.138 35.8356C283.907 35.1353 284.906 32.4143 283.907 28.1327C282.947 24.1211 280.768 22.1504 278.21 22.7606C275.651 23.3708 274.362 26.2219 275.411 30.3735C276.461 34.5251 278.679 36.4258 281.138 35.8356ZM280.918 34.4951C279.369 34.8653 277.91 33.2546 277.12 29.9734C276.291 26.5521 276.94 24.4613 278.43 24.1011C280.229 23.681 281.458 25.4116 282.227 28.6229C282.997 31.8341 282.657 34.075 280.918 34.4951Z" fill="black"/>
<path fill-rule="evenodd" clip-rule="evenodd" d="M291.073 33.4349C293.841 32.7346 294.841 30.0135 293.841 25.7319C292.842 21.7204 290.703 19.7496 288.144 20.3599C285.586 20.9701 284.306 23.8212 285.346 27.9728C286.385 32.1244 288.614 34.0251 291.073 33.4349ZM290.853 32.0944C289.304 32.4645 287.844 30.8539 287.055 27.5726C286.225 24.1513 286.845 22.0605 288.364 21.7004C290.153 21.2802 291.372 23.0109 292.152 26.2221C292.932 29.4333 292.592 31.6742 290.853 32.0944Z" fill="black"/>
<path opacity="0.59" d="M159.114 108.954C157.435 109.764 194.985 189.044 194.985 189.044L214.084 110.954C214.084 110.954 209.087 106.953 204.09 105.612C191.806 102.341 167.21 105.032 159.114 108.954Z" fill="white"/>
<path d="M168.639 87.7955C161.286 77.1957 158.809 63.956 161.833 51.4116C162.096 49.8822 162.79 48.4595 163.831 47.31C164.911 46.2596 166.91 45.9295 167.989 46.9299C173.67 40.2628 181.131 35.3528 189.498 32.7745C191.129 32.1666 192.865 31.8879 194.605 31.9541C196.372 32.045 197.98 33.0034 198.902 34.5151C199.76 36.1012 199.245 38.0813 197.723 39.0469C200.785 37.4193 204.029 36.1633 207.388 35.3054C208.594 34.9014 209.916 35.0363 211.016 35.6756C212.365 36.676 212.285 38.8568 211.306 40.2273C210.203 41.5139 208.788 42.4956 207.198 43.0784C208.19 42.6705 209.245 42.4402 210.316 42.3981C211.407 42.3658 212.436 42.9089 213.025 43.8287C214.024 45.6094 212.355 47.6902 210.686 48.8306C206.438 51.7617 201.281 53.0222 196.184 53.8325C191.087 54.6428 185.899 54.8429 180.902 56.0834C179.203 56.3764 177.623 57.1466 176.345 58.3042C174.346 60.425 174.516 63.7163 174.885 66.6074C175.395 70.679 176.035 74.8106 175.455 78.8821C174.875 82.9537 172.817 87.0352 169.199 88.986" fill="#A6613B"/>
<path d="M169.109 107.443L168.839 82.6636C168.839 82.6636 164.031 83.564 162.352 79.9526C160.673 76.3412 164.351 67.4978 171.897 72.9499L169.788 52.4121L204.13 50.0511C204.13 50.0511 213.645 97.2892 192.556 98.7398L193.246 108.744C193.246 108.744 180.033 120.598 169.109 107.443Z" fill="#F0BFAC"/>
<path d="M195.624 98.3796C194.536 98.6703 193.421 98.8513 192.296 98.9198C191.076 99.0235 189.849 99.0235 188.628 98.9198C187.136 98.7597 185.661 98.4684 184.22 98.0495C182.786 97.6059 181.397 97.0263 180.073 96.3188C178.994 95.7416 177.968 95.0722 177.004 94.3181C176.103 93.6134 175.276 92.819 174.536 91.9471L174.716 92.0972L175.205 92.5574C175.804 93.1207 176.434 93.6484 177.094 94.138C178.062 94.886 179.088 95.5551 180.163 96.1387C181.483 96.8242 182.861 97.3933 184.28 97.8394C185.709 98.2564 187.17 98.5509 188.648 98.7197C189.857 98.8432 191.073 98.8699 192.286 98.7998C193.106 98.7585 193.924 98.6716 194.735 98.5397L195.394 98.4296C195.468 98.4017 195.546 98.3848 195.624 98.3796V98.3796Z" fill="#1B1A51"/>
<path d="M182.901 58.414C183.001 58.934 181.902 59.594 180.373 59.884C178.843 60.174 177.574 59.984 177.474 59.464C177.374 58.944 178.474 58.284 180.003 57.994C181.532 57.704 182.801 57.934 182.901 58.414Z" fill="#A6613B"/>
<path d="M201.701 57.1835C201.701 57.7135 200.702 58.0735 199.492 57.9935C198.283 57.9135 197.383 57.4035 197.413 56.8735C197.443 56.3435 198.413 55.9835 199.632 56.0635C200.851 56.1435 201.741 56.6535 201.701 57.1835Z" fill="#A6613B"/>
<path d="M167.519 79.1622C167.879 78.8878 168.153 78.5165 168.309 78.0918C168.475 77.6432 168.475 77.1499 168.309 76.7013C168.137 76.1619 167.613 75.8159 167.05 75.871C166.827 75.9052 166.632 76.0374 166.518 76.2313C166.404 76.4251 166.382 76.6601 166.46 76.8713L166.12 77.0014C165.905 76.0146 165.781 75.0099 165.75 74.0002C166.085 74.9761 166.329 75.9807 166.48 77.0014L166.68 78.0018L166.15 77.1414C165.985 76.8174 165.987 76.4332 166.156 76.111C166.325 75.7887 166.639 75.5687 167 75.5208C167.376 75.477 167.754 75.5771 168.059 75.8009C168.327 76.0091 168.528 76.2906 168.639 76.6112C168.842 77.1288 168.842 77.7043 168.639 78.2219C168.505 78.5657 168.267 78.8593 167.959 79.0622C167.679 79.1622 167.529 79.1822 167.519 79.1622Z" fill="#1B1A51"/>
<path d="M189.977 78.322C190.203 78.4462 190.445 78.5372 190.697 78.5921C191.378 78.6881 192.068 78.508 192.616 78.0919C193.117 77.5112 193.276 76.7096 193.036 75.9811L192.626 73.17C192.356 71.1693 192.136 69.3786 192.016 68.0681C191.893 67.368 191.87 66.654 191.946 65.9473C192.221 66.6178 192.393 67.3261 192.456 68.0481C192.696 69.3486 192.976 71.1493 193.246 73.14C193.365 74.0804 193.485 74.9907 193.605 75.9411C193.836 76.7748 193.595 77.6682 192.976 78.272C192.292 78.7485 191.441 78.9188 190.627 78.7422C190.037 78.5821 189.947 78.322 189.977 78.322Z" fill="#251A51"/>
<path d="M200.172 66.7875C199.702 66.8975 199.122 66.1072 198.882 65.0368C198.643 63.9664 198.823 63.036 199.302 62.896C199.782 62.7559 200.352 63.5762 200.592 64.6466C200.831 65.7171 200.652 66.6774 200.172 66.7875Z" fill="#251A51"/>
<path d="M182.641 68.7283C182.182 68.8683 181.552 68.098 181.262 67.0276C180.972 65.9572 181.102 65.0268 181.562 64.8468C182.022 64.6667 182.651 65.477 182.951 66.5574C183.251 67.6378 183.111 68.6082 182.641 68.7283Z" fill="#251A51"/>
<path d="M166.11 106.953C165.69 106.012 165.111 98.9498 165.111 98.9498C165.111 98.9498 180.383 95.5885 185.1 110.954C185.1 110.954 191.347 101.591 196.094 99.9502L196.154 106.193L195.155 115.836L185.07 119.838L173.226 118.087L166.11 106.953Z" fill="white"/>
<path d="M185.1 110.964L183.101 117.967L186.819 122.609L188.098 115.966L185.1 110.964V110.964Z" fill="#1B1A51"/>
<path d="M185.89 121.268L179.103 145.978L190.707 172.028L196.094 147.979L187.299 120.308L185.89 121.268V121.268Z" fill="#1B1A51"/>
<path d="M159.114 108.954C161.353 108.013 163.602 107.123 165.86 106.223L165.8 106.323C165.521 103.872 165.241 101.421 165.011 98.9599V98.8498H165.121C166.652 98.7698 168.187 98.7698 169.718 98.8498C170.483 98.8865 171.244 98.9734 171.997 99.1099C172.763 99.2061 173.493 99.4877 174.126 99.9302C173.484 99.514 172.749 99.2631 171.987 99.2C171.227 99.0899 170.468 99.0299 169.708 98.9899C168.189 98.9199 166.66 98.9899 165.131 98.9899L165.231 98.8798C165.531 101.331 165.77 103.792 166.01 106.243V106.313H165.94C163.662 107.273 161.393 108.143 159.114 108.954Z" fill="#D8D8D8"/>
<path d="M165.95 106.513L178.104 121.969Z" fill="white"/>
<path d="M165.91 106.513C168.019 109.024 170.028 111.615 172.087 114.166C174.146 116.717 176.085 119.328 178.084 121.969C175.975 119.458 173.966 116.867 171.907 114.316C169.848 111.765 167.909 109.154 165.91 106.513Z" fill="#D8D8D8"/>
<path d="M183.101 117.967L178.104 121.969Z" fill="white"/>
<path d="M183.101 117.957C182.331 118.707 181.502 119.378 180.682 120.058C179.863 120.738 179.003 121.368 178.104 121.959C178.873 121.208 179.703 120.538 180.522 119.858C181.342 119.178 182.202 118.557 183.101 117.957Z" fill="#D8D8D8"/>
<path d="M187.099 83.9437C187.099 83.9437 197.093 83.9437 198.093 82.9437Z" fill="#1B1A51"/>
<path d="M187.299 83.2238C187.359 83.2238 187.179 83.6338 187.299 84.0938C187.419 84.5538 187.779 84.7838 187.739 84.8538C187.699 84.9238 187.609 84.8538 187.459 84.7538C187.259 84.6091 187.115 84.4011 187.049 84.1638C186.971 83.9335 186.971 83.684 187.049 83.4538C187.179 83.2738 187.269 83.2038 187.299 83.2238Z" fill="#1B1A51"/>
<path d="M240.07 134.964C239.85 124.039 236.652 113.185 226.078 110.654L202.091 104.952L189.098 159.973L159.114 108.954L141.234 116.957H141.124C141.124 116.957 140.694 117.167 139.994 117.567L139.125 117.957V118.057C135.996 119.898 129.99 123.909 127.131 128.961C123.133 135.964 132.129 181.982 133.128 187.984C134.058 193.596 139.365 212.313 144.122 218.816L142.123 230H232.075L231.075 214.994L230.076 189.985L237.072 175.979L240.07 134.964Z" fill="#BD462B"/>
<path d="M189.098 160.974C188.334 160.689 187.59 160.355 186.869 159.973C184.875 158.911 183.046 157.563 181.442 155.972C178.994 153.582 177.023 150.747 175.635 147.618C173.879 143.74 173.08 139.496 173.306 135.244L173.466 135.454L172.687 135.294C168.544 134.355 164.826 132.072 162.112 128.801C159.857 126.065 158.358 122.785 157.765 119.288C157.353 116.935 157.353 114.528 157.765 112.175C157.903 111.32 158.121 110.479 158.414 109.664C158.38 109.886 158.333 110.107 158.274 110.324C158.121 110.944 158.001 111.572 157.915 112.205C157.566 114.53 157.607 116.896 158.035 119.208C158.647 122.642 160.146 125.856 162.382 128.531C165.039 131.759 168.686 134.02 172.757 134.964L173.516 135.114H173.686V135.284C173.465 139.474 174.243 143.658 175.955 147.488C177.31 150.585 179.236 153.399 181.632 155.782C183.207 157.355 184.993 158.702 186.939 159.783C187.609 160.203 188.188 160.413 188.548 160.613C188.74 160.719 188.924 160.839 189.098 160.974V160.974Z" fill="#1B1A51"/>
<path d="M188.518 160.733L189.098 160.443C189.488 160.253 190.097 160.023 190.777 159.623C192.824 158.585 194.721 157.272 196.414 155.722C198.952 153.392 201.022 150.597 202.511 147.488C203.412 145.658 204.164 143.758 204.759 141.806C204.899 141.296 205.049 140.806 205.199 140.266C205.295 139.751 205.315 139.225 205.259 138.705C205.128 137.621 204.88 136.554 204.519 135.524C204.167 134.458 203.756 133.413 203.29 132.393L203.21 132.213L203.37 132.112C205.109 131.112 206.768 130.022 208.367 128.951C209.882 127.962 211.28 126.804 212.535 125.5C214.343 123.003 215.587 120.142 216.183 117.117C216.588 115.096 216.723 113.031 216.583 110.974C216.513 110.254 216.463 109.694 216.393 109.314C216.359 109.122 216.339 108.928 216.333 108.734C216.523 109.462 216.653 110.205 216.723 110.954C216.929 113.028 216.835 115.12 216.443 117.167C215.881 120.259 214.638 123.188 212.805 125.74C211.535 127.075 210.117 128.26 208.577 129.271C207.011 130.358 205.346 131.426 203.58 132.473L203.66 132.203C204.145 133.236 204.565 134.298 204.919 135.384C205.286 136.444 205.541 137.541 205.679 138.655C205.737 139.223 205.71 139.796 205.599 140.356L205.149 141.916C204.541 143.888 203.775 145.809 202.86 147.658C201.336 150.797 199.218 153.61 196.624 155.942C194.903 157.48 192.975 158.769 190.897 159.773C190.127 160.148 189.332 160.468 188.518 160.733Z" fill="#1B1A51"/>
<path d="M204.09 208.502C204.723 208.239 205.403 208.11 206.089 208.122C206.774 208.113 207.453 208.242 208.088 208.502C207.454 208.763 206.773 208.889 206.089 208.872C205.404 208.887 204.724 208.761 204.09 208.502H204.09Z" fill="#1B1A51"/>
<path d="M159.004 193.866C159.004 194.867 158.954 195.867 159.004 196.807C159.023 197.285 159.084 197.76 159.184 198.228C159.286 198.701 159.487 199.148 159.774 199.538C159.312 199.27 158.958 198.849 158.774 198.348C158.578 197.868 158.473 197.356 158.464 196.837C158.434 196.329 158.464 195.818 158.554 195.317C158.643 194.816 158.795 194.329 159.004 193.866Z" fill="#1B1A51"/>
<path d="M224.079 210.993C224.079 210.993 222.08 210.993 223.079 211.993C224.079 212.993 231.155 210.663 231.155 210.663L229.076 207.992L224.079 210.993Z" fill="#CC9989"/>
<path d="M206.588 195.497C206.588 195.497 212.585 195.497 214.584 194.496C216.583 193.496 227.577 191.495 229.576 192.496C231.575 193.496 233.574 209.502 231.575 210.503C229.576 211.503 229.576 209.502 228.576 209.502C227.577 209.502 220.581 214.504 207.588 211.503C194.595 208.502 206.588 195.497 206.588 195.497Z" fill="#F0BFAC"/>
<path d="M153.997 193.986H207.628C208.846 196.149 209.637 198.527 209.957 200.989C210.336 203.29 209.957 210.322 207.628 211.883C205.299 213.444 200.632 211.103 196.744 214.214C192.856 217.325 179.643 218.105 179.643 218.105C179.643 218.105 152.777 219.856 143.093 217.785" fill="#BD462B"/>
<path d="M153.997 193.986C162.932 193.926 171.867 193.846 180.812 193.836L207.628 193.776H207.748V193.866C208.635 195.43 209.288 197.115 209.687 198.868C209.918 199.732 210.088 200.611 210.196 201.499C210.256 202.388 210.256 203.281 210.196 204.17C210.141 205.957 209.852 207.73 209.337 209.442C209.09 210.337 208.623 211.156 207.978 211.823C207.243 212.417 206.324 212.736 205.379 212.723C203.631 212.652 201.881 212.712 200.142 212.903C199.294 213.045 198.479 213.336 197.733 213.764C197.343 213.964 197.033 214.244 196.654 214.484C196.287 214.749 195.9 214.984 195.494 215.184C193.873 215.925 192.173 216.479 190.427 216.835C188.698 217.215 186.959 217.505 185.21 217.735C181.702 218.215 178.214 218.386 174.656 218.546C171.098 218.706 167.659 218.826 164.081 218.886C160.503 218.946 157.035 218.946 153.507 218.816C149.981 218.758 146.466 218.424 142.993 217.815C146.473 218.375 149.992 218.666 153.517 218.686C157.035 218.756 160.513 218.686 164.081 218.686C167.649 218.686 171.078 218.466 174.636 218.286C178.194 218.105 181.632 217.925 185.16 217.425C186.899 217.185 188.638 216.895 190.347 216.505C192.072 216.157 193.749 215.606 195.344 214.864C196.114 214.504 196.754 213.864 197.553 213.454C198.339 212.997 199.198 212.682 200.092 212.523C201.853 212.316 203.627 212.243 205.399 212.303C206.227 212.316 207.035 212.044 207.688 211.533C208.258 210.913 208.673 210.165 208.897 209.352C209.408 207.683 209.697 205.955 209.757 204.21C209.822 203.341 209.822 202.468 209.757 201.599C209.65 200.736 209.49 199.881 209.277 199.038C208.893 197.34 208.267 195.706 207.418 194.186L207.598 194.276L180.782 194.216C171.907 194.136 162.912 194.056 153.997 193.986Z" fill="#1B1A51"/>
<path d="M201.371 193.986C202.583 196.87 203.325 199.93 203.57 203.05C203.713 204.623 203.636 206.209 203.34 207.761C203.076 209.33 202.385 210.794 201.341 211.993C202.112 210.666 202.589 209.189 202.74 207.661C202.915 206.147 202.936 204.618 202.8 203.1C202.7 201.579 202.491 200.099 202.241 198.538C201.991 196.977 201.711 195.517 201.371 193.986Z" fill="#1B1A51"/>
<path d="M155.616 147.479C156.366 151.3 157.105 155.121 157.805 158.953L159.854 170.447V170.497L159.494 182.182C159.354 186.077 159.187 189.971 158.994 193.866C158.994 189.965 158.994 186.063 159.104 182.172L159.354 170.477V170.527L157.425 158.973C156.799 155.158 156.196 151.327 155.616 147.479Z" fill="#1B1A51"/>
<path opacity="0.52" d="M209.887 119.748C211.118 118.748 211.417 116.988 210.586 115.636C209.215 113.523 208.044 111.285 207.088 108.954C206.252 105.993 205.585 102.987 205.089 99.9502C205.089 99.9502 204.09 93.9479 202.091 92.9476C200.482 92.1372 194.095 89.9464 192.096 89.9464C190.393 90.5153 188.724 91.1834 187.099 91.9472C184.27 92.9476 182.102 94.9483 179.103 97.9495C177.521 99.7722 176.178 101.789 175.105 103.952C174.496 104.952 174.256 105.082 175.105 105.953V105.953C175.735 106.583 178.354 105.222 180.203 104.132C181.368 103.451 182.836 103.584 183.861 104.462L187.669 107.733C188.591 108.514 189.248 109.563 189.548 110.734L189.997 112.535C190.065 112.787 190.159 113.032 190.277 113.265L196.834 125.51C197.273 126.355 198.068 126.959 199 127.153C199.932 127.346 200.902 127.111 201.641 126.51L209.887 119.748Z" fill="#CC9989"/>
<path d="M209.887 120.748C211.118 119.748 211.417 117.989 210.586 116.637C209.215 114.523 208.044 112.286 207.088 109.954C206.252 106.993 205.585 103.987 205.089 100.951C205.089 100.951 204.09 93.9479 202.091 92.9475C200.482 92.1372 194.095 90.9468 192.096 90.9468C190.393 91.5157 188.724 92.1837 187.099 92.9475C184.27 93.9479 182.102 95.9487 179.103 98.9498C177.525 100.427 176.081 102.041 174.786 103.772C174.148 104.764 174.268 106.063 175.075 106.923V106.923C175.705 107.553 178.324 106.193 180.173 105.102C181.338 104.421 182.806 104.554 183.831 105.432L187.639 108.704C188.561 109.484 189.218 110.533 189.518 111.705L189.967 113.505C190.035 113.758 190.129 114.003 190.247 114.236L196.804 126.48C197.243 127.326 198.038 127.929 198.97 128.123C199.902 128.317 200.872 128.081 201.611 127.481L209.887 120.748Z" fill="#F0BFAC"/>
<path d="M197.333 113.055C196.294 114.365 194.621 114.999 192.976 114.706C191.167 114.386 189.098 113.646 189.098 111.965C189.098 108.964 194.735 104.962 196.624 105.963C198.513 106.963 199.442 108.964 198.972 110.464C198.56 111.406 198.008 112.28 197.333 113.055Z" fill="#CC9989"/>
<path d="M196.094 95.9487C196.094 95.9487 191.097 95.5786 189.098 96.9491C187.099 98.3196 177.874 104.682 178.633 106.953C179.017 108.211 180.234 109.023 181.542 108.894L191.536 102.051L197.983 101.211" fill="#F0BFAC"/>
<path d="M196.094 95.9487C195.023 95.8737 193.947 95.8737 192.876 95.9487C191.811 96.0085 190.762 96.2347 189.767 96.619C189.287 96.8474 188.831 97.1257 188.408 97.4493L187.099 98.3896C186.229 99.0099 185.37 99.6501 184.53 100.31C182.815 101.594 181.223 103.034 179.773 104.612C179.425 105.018 179.132 105.469 178.903 105.953C178.788 106.172 178.726 106.415 178.723 106.663C178.765 106.91 178.853 107.148 178.983 107.363C179.475 108.297 180.483 108.839 181.532 108.734V108.734L191.596 101.931V101.931L198.053 101.151L191.616 102.051V102.051L181.622 108.934V108.934V108.934C180.478 109.051 179.376 108.472 178.823 107.463C178.682 107.211 178.584 106.937 178.534 106.653C178.537 106.365 178.605 106.081 178.733 105.822C178.991 105.339 179.306 104.889 179.673 104.482C181.138 102.901 182.752 101.464 184.49 100.19C185.34 99.5401 186.209 98.8998 187.079 98.2796L188.398 97.3592C188.831 97.0314 189.296 96.7498 189.787 96.5189C190.788 96.1708 191.837 95.9785 192.896 95.9487C193.961 95.8746 195.029 95.8746 196.094 95.9487Z" fill="#BC8271"/>
<path d="M197.093 99.9502C197.093 99.9502 192.876 99.9502 191.097 100.951C189.318 101.951 183.291 105.752 183.671 107.853C183.772 108.991 184.69 109.884 185.83 109.954L194.745 104.952H198.093" fill="#F0BFAC"/>
<path d="M197.093 99.9502C195.442 99.9805 193.799 100.199 192.196 100.6C191.414 100.851 190.675 101.222 190.007 101.701C189.308 102.131 188.628 102.591 187.948 103.071C186.584 103.987 185.358 105.096 184.31 106.363C183.081 107.603 184.22 109.814 185.83 109.844H185.78L194.715 104.842V104.842L198.063 104.902L194.715 104.962V104.962L185.83 109.964V109.964V109.964C184.953 109.901 184.184 109.358 183.831 108.553C183.63 108.162 183.547 107.721 183.591 107.283C183.698 106.861 183.892 106.466 184.16 106.123C185.233 104.844 186.485 103.729 187.878 102.811C188.558 102.341 189.248 101.881 189.957 101.451C190.64 100.969 191.396 100.601 192.196 100.36C193.804 100.013 195.45 99.8754 197.093 99.9502V99.9502Z" fill="#BC8271"/>
<path d="M212.575 118.377C212.575 118.377 236.212 167.276 236.562 176.489C236.562 176.489 232.464 204.37 218.252 198.728C204.04 193.086 203.69 172.718 203.69 172.718L190.207 118.397C190.207 118.397 201.391 118.397 208.897 110.624L212.575 118.377Z" fill="#BD462B"/>
<path fill-rule="evenodd" clip-rule="evenodd" d="M225.868 146.938C221.57 137.385 217.143 127.831 212.575 118.377L208.907 110.564C206.464 113.017 203.532 114.926 200.302 116.166C198.696 116.792 197.041 117.284 195.354 117.637C193.671 117.999 191.958 118.206 190.237 118.257H190.107V118.387L203.4 172.748V172.688C203.519 175.385 203.894 178.065 204.519 180.691C205.128 183.338 206.03 185.908 207.208 188.354C208.383 190.825 209.984 193.07 211.935 194.987C213.903 196.909 216.272 198.371 218.872 199.268C220.196 199.711 221.602 199.858 222.989 199.698C224.375 199.505 225.694 198.984 226.837 198.178C229.022 196.519 230.782 194.366 231.975 191.895C233.216 189.488 234.22 186.965 234.973 184.363C235.755 181.779 236.362 179.145 236.792 176.48C236.67 175.155 236.409 173.847 236.012 172.578C235.653 171.308 235.243 170.057 234.813 168.817C233.954 166.326 233.034 163.875 232.035 161.434C230.076 156.562 227.997 151.74 225.868 146.938ZM190.269 118.462L203.9 172.608V172.668C204.036 175.333 204.425 177.979 205.059 180.571C205.671 183.165 206.573 185.682 207.748 188.074C208.915 190.454 210.469 192.624 212.345 194.496C214.225 196.355 216.491 197.775 218.982 198.658C220.206 199.084 221.511 199.231 222.8 199.088C224.088 198.918 225.317 198.445 226.388 197.708C228.498 196.124 230.209 194.068 231.385 191.705C232.62 189.34 233.624 186.861 234.383 184.303C235.176 181.746 235.797 179.139 236.242 176.5C236.127 175.207 235.88 173.93 235.503 172.688C235.153 171.428 234.753 170.177 234.333 168.937C233.494 166.456 232.574 164.005 231.615 161.564C229.807 156.956 227.857 152.401 225.916 147.865C225.797 147.586 225.677 147.307 225.558 147.028C221.427 137.405 217.099 127.854 212.575 118.377L212.575 118.377L208.877 110.604C206.45 113.09 203.519 115.028 200.282 116.287C198.662 116.934 196.99 117.443 195.284 117.807C193.635 118.172 191.956 118.391 190.269 118.462ZM190.269 118.462L190.237 118.337L190.127 118.467C190.174 118.466 190.221 118.464 190.269 118.462Z" fill="#191951"/>
<path d="M199.092 107.953L198.093 107.583C197.167 107.203 196.124 107.224 195.214 107.643C194.813 107.846 194.435 108.091 194.085 108.374L188.468 113.005C187.501 113.157 186.566 112.586 186.259 111.655C185.59 109.994 190.907 105.012 192.256 103.882C193.605 102.751 200.092 101.951 200.092 101.951" fill="#F0BFAC"/>
<path d="M199.092 107.953C198.593 107.783 198.093 107.563 197.603 107.443C197.093 107.328 196.564 107.328 196.054 107.443C195.056 107.76 194.15 108.317 193.415 109.064L188.568 113.065V113.065V113.065C187.623 113.215 186.696 112.71 186.309 111.835C186.104 111.405 186.104 110.905 186.309 110.474C186.488 110.065 186.709 109.676 186.969 109.314C188.009 107.902 189.18 106.592 190.467 105.402C191.095 104.78 191.763 104.199 192.466 103.662C193.244 103.246 194.079 102.95 194.945 102.781C196.649 102.391 198.374 102.1 200.112 101.911C198.383 102.161 196.664 102.491 194.975 102.911C194.129 103.095 193.312 103.391 192.546 103.792C191.87 104.334 191.226 104.915 190.617 105.532C189.351 106.729 188.2 108.042 187.179 109.454C186.939 109.808 186.732 110.183 186.559 110.574C186.361 110.931 186.339 111.359 186.499 111.735C186.834 112.52 187.653 112.983 188.498 112.865V112.865L193.385 108.864C194.134 108.104 195.068 107.552 196.094 107.263C196.619 107.173 197.157 107.193 197.673 107.323C198.156 107.509 198.63 107.72 199.092 107.953V107.953Z" fill="#BC8271"/>
<defs>
<linearGradient id="paint0_linear_893_30522" x1="-41.3334" y1="-64.3827" x2="-69.5951" y2="76.5805" gradientUnits="userSpaceOnUse">
<stop offset="0.01" stop-color="#DD85C5"/>
<stop offset="1" stop-color="#6F75D5"/>
</linearGradient>
<linearGradient id="paint1_linear_893_30522" x1="-35.6594" y1="69.5107" x2="-51.5835" y2="227.661" gradientUnits="userSpaceOnUse">
<stop offset="0.01" stop-color="#EEFF3F"/>
<stop offset="1" stop-color="#15A6FF"/>
</linearGradient>
<linearGradient id="paint2_linear_893_30522" x1="284.255" y1="80.1807" x2="302.172" y2="232.48" gradientUnits="userSpaceOnUse">
<stop offset="0.01" stop-color="#EEFF3F"/>
<stop offset="1" stop-color="#FFB900"/>
</linearGradient>
<linearGradient id="paint3_linear_893_30522" x1="217.994" y1="4.71904" x2="260.274" y2="141.801" gradientUnits="userSpaceOnUse">
<stop offset="0.01" stop-color="#D42300"/>
<stop offset="1" stop-color="#15A6FF"/>
</linearGradient>
</defs>
</svg>
