<svg width="370" height="235" viewBox="0 0 370 235" fill="none" xmlns="http://www.w3.org/2000/svg">
<path d="M22.7994 104.877C16.4063 95.8657 14.8929 84.99 18.6395 74.9825C18.9961 73.7583 19.7549 72.6429 20.8294 71.7637C21.9711 70.8909 23.7074 70.8693 24.8793 71.7133C30.8165 66.6249 38.3526 63.0602 46.6087 61.4348C48.2293 61.0326 49.9286 60.9041 51.6086 61.0566C53.3154 61.2218 54.8138 62.0876 55.6085 63.3678C56.3452 64.7027 55.7132 66.2889 54.1685 66.9816C57.235 65.8249 60.4541 64.9785 63.7583 64.4604C64.954 64.2038 66.2231 64.3872 67.2482 64.9646C68.4781 65.8555 68.2481 67.6204 67.2482 68.6709C66.0716 69.663 64.6063 70.3787 62.9983 70.7468C63.965 70.4767 64.9798 70.3488 65.9982 70.3686C67.0579 70.3991 68.0198 70.8975 68.5281 71.6796C69.3481 73.1756 67.6182 74.7808 65.9282 75.6212C61.6383 77.7559 56.5685 78.4955 51.5886 78.8233C46.6087 79.151 41.5889 79.1006 36.679 79.8318C35.014 79.9751 33.4322 80.5144 32.1191 81.3866C30.0492 82.9834 29.9992 85.6728 30.1192 88.0344C30.3492 91.3961 30.6892 94.7578 29.8492 98.0187C29.0092 101.28 26.7693 104.49 23.1394 105.868" fill="#A6613B"/>
<path d="M146.996 145.931C146.996 145.931 150.126 133.443 152.556 132.157C154.986 130.871 164.486 124.038 164.766 125.492C165.046 126.946 160.206 130.812 160.906 132.459C161.606 134.107 166.725 134.418 166.725 134.418C166.725 134.418 172.485 134.695 174.035 133.913C175.585 133.132 185.545 124.954 184.765 127.013C183.985 129.072 178.135 139.452 174.585 140.948C171.035 142.444 161.586 144.393 161.096 144.452C160.606 144.511 157.496 150.94 157.496 150.94L146.996 145.931Z" fill="#F0BFAC"/>
<path d="M0 182.582C2.19994 191.18 3.8199 198.29 3.6299 199.878C3.30991 202.4 1.51996 213.082 0 222.015V235L83.4977 230.798L77.9979 136.006C77.1605 127.889 69.9946 121.235 60.4684 119.727C51.4686 118.332 38.049 117.441 19.1095 118.643C11.8064 119.126 4.98578 121.897 0 126.408L0 182.582Z" fill="#2A2A59"/>
<path d="M65.9982 165.766C65.9982 165.766 102.997 205.434 122.297 199.215C141.596 192.995 160.396 148.083 160.396 148.083L144.996 139.477L113.147 169.674L72.588 125.442L65.9982 165.766Z" fill="#2A2A59"/>
<path d="M16.0796 118.987C14.8096 119.5 42.5589 170.338 42.5589 170.338L54.7285 118.987C54.7285 118.987 24.5493 115.533 16.0796 118.987Z" fill="white"/>
<path d="M21.9994 120.836L23.3794 100.717C23.3794 100.717 18.6795 101.187 17.2995 98.1952C15.9196 95.2033 20.0595 88.2025 26.9793 93.0854L26.3093 76.2769H59.5884C59.5884 76.2769 65.6482 115.138 45.1788 115.138V123.274C45.1788 123.274 31.6291 132.123 21.9994 120.836Z" fill="#F0BFAC"/>
<path d="M44.4188 98.4136C44.5779 98.6037 44.7822 98.7639 45.0188 98.8842C45.6874 99.1704 46.5002 99.0542 47.0188 98.5985C47.3771 98.291 47.6294 97.9076 47.7488 97.4891C47.882 96.9989 47.9225 96.494 47.8688 95.9932C47.7888 94.8922 47.6888 93.6988 47.5888 92.4382C47.3988 89.9169 47.2488 87.6309 47.1588 85.9753C47.1588 85.1348 47.0888 84.4709 47.0788 84.0087C47.0406 83.7688 47.0406 83.5257 47.0788 83.2859C47.15 83.5198 47.1935 83.7591 47.2088 84.0003C47.2688 84.4625 47.3388 85.1348 47.4288 85.9585C47.5888 87.6393 47.7888 89.8917 47.9788 92.4213C48.0688 93.6736 48.1488 94.8754 48.2288 95.9764C48.2671 96.5105 48.2064 97.0463 48.0488 97.5648C47.8997 98.0293 47.6023 98.4507 47.1888 98.7834C46.8404 99.0583 46.3863 99.2193 45.9088 99.2372C45.5554 99.2416 45.2081 99.1598 44.9088 99.0019C44.4388 98.6825 44.3988 98.4136 44.4188 98.4136Z" fill="#1B1A51"/>
<path d="M46.649 102.859C46.2282 103.13 45.726 103.296 45.199 103.339C43.9243 103.523 42.6132 103.33 41.489 102.792C40.3796 102.236 39.5374 101.371 39.109 100.347C38.8949 99.9375 38.8188 99.4869 38.889 99.0439C38.959 99.0439 39.009 99.5398 39.379 100.254C40.3277 102.184 42.6935 103.343 45.159 103.086C46.079 103.011 46.629 102.801 46.649 102.859Z" fill="#1B1A51"/>
<path d="M39.829 98.7667C39.829 98.8591 39.119 98.7667 38.429 99.0776C37.739 99.3886 37.499 99.9181 37.429 99.9181C37.359 99.9181 37.359 99.75 37.429 99.5063C37.5908 99.1942 37.8725 98.9367 38.229 98.7751C38.5753 98.6033 38.9807 98.5352 39.379 98.5818C39.689 98.6238 39.839 98.7247 39.829 98.7667Z" fill="#1B1A51"/>
<path d="M23.3594 98.5733C23.7435 98.3198 24.0375 97.9826 24.2094 97.5984C24.3886 97.1917 24.3886 96.7445 24.2094 96.3377C24.0243 95.8529 23.4626 95.5417 22.8594 95.5898C22.6039 95.6143 22.3774 95.7393 22.2491 95.9267C22.1209 96.1141 22.1061 96.3415 22.2094 96.5394L21.8594 96.6487C21.6174 95.7431 21.4801 94.8199 21.4494 93.8921C21.8113 94.7689 22.0757 95.672 22.2394 96.5899L22.4494 97.4807L21.8794 96.6991C21.7049 96.4056 21.7096 96.0593 21.8921 95.7692C22.0746 95.4791 22.4125 95.2808 22.7994 95.2368C23.204 95.1923 23.6133 95.2828 23.9394 95.4889C24.2275 95.6776 24.446 95.9312 24.5694 96.2201C24.783 96.6939 24.783 97.217 24.5694 97.6908C24.4174 97.9988 24.1642 98.2641 23.8394 98.4556C23.5194 98.5733 23.3694 98.5985 23.3594 98.5733Z" fill="#1B1A51"/>
<path d="M39.9991 82.042C40.1091 82.5126 38.8891 83.1093 37.2691 83.3698C35.6491 83.6304 34.2691 83.4623 34.1391 82.9917C34.0091 82.521 35.2491 81.9159 36.8691 81.6554C38.4891 81.3948 39.8691 81.6049 39.9991 82.042Z" fill="#A6613B"/>
<path d="M57.0486 81.8319C57.0486 82.311 55.9386 82.6724 54.6586 82.5631C53.3786 82.4539 52.3786 82.0252 52.4186 81.5462C52.4586 81.0672 53.5286 80.7058 54.8086 80.815C56.0886 80.9243 57.0886 81.3529 57.0486 81.8319Z" fill="#A6613B"/>
<path d="M48.1692 114.962C47.0991 115.14 46.0103 115.228 44.9192 115.222C43.7335 115.226 42.5495 115.147 41.3792 114.987C39.9474 114.776 38.5415 114.455 37.1792 114.029C35.8245 113.589 34.5221 113.043 33.2892 112.398C32.2847 111.866 31.3348 111.265 30.4492 110.6C29.6291 109.994 28.8822 109.321 28.2192 108.591C28.2192 108.591 28.2892 108.591 28.3892 108.717L28.8292 109.121C29.3704 109.61 29.9447 110.073 30.5492 110.507C31.4393 111.155 32.389 111.742 33.3892 112.264C34.6159 112.895 35.9078 113.433 37.2492 113.869C38.6013 114.286 39.9929 114.607 41.4092 114.827C42.5692 114.993 43.7427 115.083 44.9192 115.096C45.7136 115.108 46.5082 115.083 47.2992 115.02L47.9492 114.97L48.1692 114.962Z" fill="#1B1A51"/>
<path d="M45.9989 230.949C45.8789 230.949 44.9989 217.393 44.0889 200.694C43.1789 183.994 42.4889 170.388 42.6089 170.379C42.7289 170.371 43.6089 183.944 44.5189 200.635C45.4289 217.326 46.0689 230.941 45.9989 230.949Z" fill="#1B1A51"/>
<path d="M41.5797 170.337C40.7422 169.995 39.9337 169.605 39.1597 169.169C37.0316 167.98 35.1215 166.536 33.4897 164.883C31.0294 162.435 29.1642 159.606 27.9997 156.554C26.5475 152.801 26.2448 148.801 27.1197 144.923L27.2697 145.133L26.3997 144.906C21.8245 143.599 17.8816 141.073 15.1697 137.712C12.9774 134.968 11.725 131.77 11.5497 128.467C11.4113 126.258 11.7501 124.045 12.5497 121.937C12.8372 121.168 13.2088 120.422 13.6597 119.71C13.6014 119.913 13.5176 120.11 13.4097 120.298C13.1389 120.847 12.9052 121.408 12.7097 121.979C11.9732 124.074 11.6754 126.261 11.8297 128.442C12.05 131.684 13.3114 134.815 15.4797 137.502C18.1503 140.782 22.0076 143.252 26.4797 144.545L27.3397 144.772L27.5297 144.822V144.982C26.664 148.799 26.9528 152.738 28.3697 156.437C29.4907 159.456 31.2973 162.265 33.6897 164.707C35.2882 166.358 37.1489 167.817 39.2197 169.043C39.9297 169.497 40.5597 169.758 40.9497 169.985C41.1706 170.088 41.3812 170.206 41.5797 170.337Z" fill="#1B1A51"/>
<path d="M42.5588 170.337C42.7193 170.197 42.8932 170.068 43.0788 169.951C43.4188 169.707 43.9588 169.371 44.5788 168.867C46.3861 167.511 47.9671 165.956 49.2788 164.244C51.2104 161.699 52.5318 158.861 53.1688 155.89C53.5592 154.141 53.7766 152.367 53.8188 150.587V149.192C53.7675 148.735 53.6325 148.287 53.4188 147.864C52.96 146.976 52.3902 146.131 51.7188 145.343C51.0313 144.533 50.2901 143.756 49.4988 143.015L49.3688 142.889L49.5088 142.763C51.0088 141.486 52.4188 140.2 53.7188 138.922C54.9812 137.744 56.0815 136.45 56.9988 135.065C58.1256 132.545 58.5697 129.846 58.2988 127.165C58.131 125.379 57.6665 123.623 56.9188 121.946C56.6388 121.357 56.4188 120.903 56.2388 120.601C56.1477 120.449 56.0708 120.292 56.0088 120.13C56.4171 120.694 56.7716 121.284 57.0688 121.895C57.8912 123.578 58.4134 125.354 58.6188 127.165C58.944 129.896 58.5198 132.653 57.3788 135.224C56.4376 136.649 55.3034 137.977 53.9988 139.183C52.6988 140.469 51.2888 141.763 49.7788 143.049V142.805C50.5801 143.557 51.3313 144.345 52.0288 145.167C52.7207 145.965 53.3075 146.825 53.7788 147.73C54.0098 148.19 54.1516 148.678 54.1988 149.175V150.596C54.1524 152.393 53.9249 154.184 53.5188 155.949C52.8574 158.945 51.498 161.801 49.5188 164.354C48.1807 166.091 46.5543 167.659 44.6888 169.01C44.0173 169.494 43.3055 169.938 42.5588 170.337Z" fill="#1B1A51"/>
<path d="M49.4087 193.449C49.2887 193.449 49.1287 192.953 49.0387 192.315C48.9487 191.676 48.9787 191.155 49.0987 191.146C49.2187 191.138 49.3887 191.642 49.4687 192.273C49.5487 192.903 49.5287 193.441 49.4087 193.449Z" fill="#1B1A51"/>
<path d="M51.8986 215.737C51.7786 215.737 51.6186 215.242 51.5386 214.603C51.4586 213.964 51.4786 213.443 51.5986 213.426C51.7186 213.409 51.8786 213.922 51.9586 214.561C52.0386 215.199 51.9986 215.721 51.8986 215.737Z" fill="#1B1A51"/>
<path d="M81.7179 185.818C81.5979 185.818 80.7179 177.801 79.7179 167.9C78.7179 158 78.0379 149.957 78.1579 149.949C78.2779 149.94 79.1579 157.966 80.1579 167.875C81.1579 177.784 81.8379 185.818 81.7179 185.818Z" fill="#1B1A51"/>
<path d="M159.626 153.361C159.326 153.303 159.035 153.219 158.756 153.109L156.446 152.319C154.496 151.646 151.806 150.722 148.806 149.797C145.806 148.873 143.066 147.99 141.086 147.394L138.736 146.679C138.443 146.607 138.161 146.505 137.896 146.377C138.201 146.398 138.5 146.455 138.786 146.545L141.186 147.15C143.186 147.688 145.956 148.486 148.956 149.453C151.956 150.419 154.646 151.394 156.566 152.125L158.826 153.025C159.111 153.104 159.38 153.217 159.626 153.361Z" fill="#1B1A51"/>
<path d="M144.196 142.881C144.286 142.948 143.906 143.444 143.346 143.99C142.786 144.536 142.266 144.923 142.176 144.83C142.086 144.738 142.466 144.267 143.016 143.721C143.566 143.175 144.106 142.822 144.196 142.881Z" fill="#1B1A51"/>
<path d="M112.617 176.767C112.399 175.504 112.325 174.226 112.397 172.951C112.325 171.679 112.399 170.404 112.617 169.144C112.829 170.405 112.899 171.679 112.827 172.951C112.899 174.226 112.829 175.503 112.617 176.767Z" fill="#1B1A51"/>
<path d="M117.997 177.893C117.877 177.893 117.057 176.128 115.757 174.035C114.457 171.943 113.197 170.329 113.297 170.27C115.509 172.491 117.114 175.093 117.997 177.893Z" fill="#1B1A51"/>
<path d="M21.3894 120.105C21.1694 119.399 21.3894 114.155 21.3894 114.155C21.3894 114.155 37.1594 115.222 38.8594 126.568C38.8594 126.568 41.7394 117.13 45.9494 116.567L46.6494 122.794L44.4094 129.451L35.4094 131.014L25.7394 128.324L21.3894 120.105Z" fill="white"/>
<path d="M38.709 128.761L36.909 133.409L39.729 136.83L40.889 132.174L38.709 128.761Z" fill="#1B1A51"/>
<path d="M38.959 135.897L35.859 157.975L42.939 171.043L48.169 149.848L40.129 135.233L38.959 135.897Z" fill="#1B1A51"/>
<ellipse cx="37.999" cy="87.8327" rx="1" ry="1.68086" fill="#0D224C"/>
<ellipse cx="53.9986" cy="87.8327" rx="1" ry="1.68086" fill="#0D224C"/>
<path d="M369.74 158.193L358.99 178.128L354.78 216.074C354.78 216.074 306.212 225.016 286.702 209.544L293.702 172.497C295.832 161.841 294.572 141.334 304.822 134.056C306.008 133.219 307.319 132.516 308.722 131.964C315.951 129.199 328.721 127.644 341.001 127.644C352 127.644 363.32 132.543 370 139.729L369.74 158.193Z" fill="#BD462B"/>
<path d="M369.99 149.184L349.991 152.705C349.991 152.705 371.68 186.037 360.94 187.802C325.381 193.643 304.762 198.425 304.762 198.425L302.992 209.409C303.402 210.703 346.891 210.115 369.99 206.173V149.184Z" fill="#F6AEA6"/>
<path d="M309.122 135.535L254.893 152.201L253.193 129.594L241.713 126.013C241.713 126.013 224.904 162.311 245.943 169.068C266.983 175.825 290.682 163.312 290.682 163.312L309.122 135.535Z" fill="#F6AEA6"/>
<path d="M315.821 129.989C296.912 134.787 285.632 140.435 258.993 149.243L272.653 173.481L296.152 167.455L315.821 129.989Z" fill="#BD462B"/>
<path d="M346.711 148.075L360.451 173.481L369.991 172.094V140.78L345.851 148.075" fill="#BD462B"/>
<path d="M330.501 165.404C337.101 165.102 343.621 165.404 350.201 165.404C350.428 165.404 350.611 165.25 350.611 165.06C350.611 164.869 350.428 164.715 350.201 164.715C343.65 164.177 337.052 164.177 330.501 164.715C330.356 164.695 330.211 164.748 330.131 164.852C330.05 164.955 330.05 165.088 330.131 165.192C330.211 165.295 330.356 165.349 330.501 165.329V165.404Z" fill="#1A3066"/>
<path d="M360.051 135.897C337.771 137.494 353.001 163.631 358.731 171.573C358.878 171.756 359.166 171.818 359.401 171.716C359.514 171.668 359.598 171.583 359.632 171.48C359.666 171.378 359.647 171.268 359.581 171.178C353.911 163.169 338.711 138.83 360.131 136.325C360.431 136.325 360.381 135.872 360.131 135.897H360.051Z" fill="#1A3066"/>
<path d="M298.252 150.89C295.481 159.627 293.72 168.569 292.992 177.59C292.992 177.952 293.752 178.053 293.832 177.683C295.422 168.766 297.022 159.866 298.832 150.966C298.832 150.688 298.362 150.562 298.272 150.848L298.252 150.89Z" fill="#1A3066"/>
<path d="M350.451 102.616L351.45 91.3541C353.179 90.8897 354.605 89.8502 355.397 88.478C356.189 87.1059 356.277 85.5209 355.64 84.0928C355.64 84.0928 355.59 84.0003 355.57 83.9499C353.75 81.0551 349.954 79.4414 346.101 79.9242C348.501 78.6216 348.321 75.512 346.351 73.8143C344.124 72.2231 341.272 71.387 338.351 71.4695C335.452 71.5706 332.547 71.4948 329.661 71.2426C327.131 70.8644 324.661 69.9484 322.081 70.2089C319.501 70.4694 317.081 72.7302 318.471 74.5203C314.851 74.0917 310.802 73.6799 307.622 75.1086C304.442 76.5373 302.702 80.5462 305.512 82.4876C304.653 82.9102 304.034 83.6064 303.795 84.4182C303.556 85.2299 303.717 86.0884 304.242 86.799C305.464 88.2228 307.413 89.0792 309.502 89.1101C311.568 89.1426 313.628 88.9103 315.611 88.421" fill="#251A51"/>
<path d="M349.841 95.2956L349.101 103.086C349.101 103.086 357.4 103.977 355.1 110.02C352.8 116.063 347.021 113.382 347.021 113.382C347.021 113.382 345.611 128.854 325.681 123.954C309.822 120.055 310.802 103.708 312.812 89.858C313.502 84.7482 319.281 81.0503 325.711 81.605C326.051 81.605 326.381 81.6722 326.711 81.7227L338.711 83.58C345.571 84.6642 350.391 89.6983 349.841 95.2956Z" fill="#F6AEA6"/>
<path d="M349.101 109.541L343.681 132.316C342.501 137.275 336.501 140.536 330.271 139.603C330.091 139.603 329.901 139.544 329.721 139.502C323.947 138.543 320.122 133.903 321.081 129.022L323.991 115.97L349.101 109.541Z" fill="#F6AEA6"/>
<path d="M327.061 109.801C327.026 110.042 326.844 110.249 326.581 110.348C326.091 110.575 324.991 110.087 324.771 109.314C324.51 108.493 324.436 107.637 324.551 106.793L324.751 103.759C324.784 101.142 325.149 98.536 325.841 95.9847C326.091 98.588 326.041 101.206 325.691 103.801L325.401 106.835C325.261 107.623 325.261 108.425 325.401 109.213C325.551 109.843 326.121 110.163 326.501 110.104C326.881 110.045 326.991 109.759 327.061 109.801Z" fill="#251A51"/>
<path d="M320.591 122.383C321.507 122.676 322.402 123.012 323.271 123.391C325.414 124.149 327.707 124.562 330.031 124.61C332.356 124.645 334.667 124.309 336.841 123.618C337.729 123.267 338.64 122.961 339.571 122.702C338.882 123.315 338.052 123.804 337.131 124.139C332.637 125.871 327.444 125.769 323.051 123.862C322.1 123.544 321.256 123.037 320.591 122.383Z" fill="#251A51"/>
<path d="M324.501 112.995C324.611 112.995 325.041 113.256 325.871 113.55C328.045 114.406 330.636 113.742 331.871 112.012C332.341 111.381 332.451 110.911 332.601 110.919C332.751 110.928 332.851 111.457 332.491 112.247C331.49 114.191 328.854 115.136 326.491 114.399C326.162 114.299 325.847 114.169 325.551 114.012C324.681 113.541 324.411 113.054 324.501 112.995Z" fill="#251A51"/>
<path d="M349.731 110.768C349.731 110.65 350.221 110.591 350.731 110.331C351.02 110.198 351.241 109.979 351.351 109.717C351.351 109.423 351.351 109.171 351.061 109.095C350.905 109.011 350.706 109.011 350.551 109.095L349.761 108.768C350.501 107.532 351.181 106.683 351.361 106.751C351.541 106.818 351.221 107.784 350.591 109.053L349.771 108.726C350.135 108.298 350.8 108.135 351.381 108.331C351.775 108.442 352.083 108.704 352.211 109.037C352.323 109.309 352.323 109.605 352.211 109.877C352.012 110.3 351.596 110.624 351.081 110.76C350.171 111.02 349.731 110.852 349.731 110.768Z" fill="#251A51"/>
<path d="M334.391 95.4217C334.391 95.2369 335.331 94.8082 336.641 95.0772C337.951 95.3461 338.641 96.1445 338.451 96.2538C338.261 96.363 337.451 96.01 336.451 95.7999C335.451 95.5898 334.481 95.6403 334.391 95.4217Z" fill="#251A51"/>
<path d="M317.161 93.2534C317.051 93.0769 318.081 92.5306 319.531 92.6315C320.981 92.7323 321.881 93.4131 321.711 93.5643C321.541 93.7156 320.631 93.4551 319.441 93.3794C318.251 93.3038 317.271 93.4551 317.161 93.2534Z" fill="#251A51"/>
<path d="M349.101 103.086C343.551 98.7751 341.871 91.581 340.401 85.5131C335.04 88.5308 328.293 89.2295 322.221 87.3957C320.363 89.1531 318.206 90.671 315.821 91.9004C315.175 92.3229 314.352 92.5051 313.542 92.4046C312.602 92.1861 312.192 91.3373 311.972 90.5809C311.179 88.1652 311.294 85.6025 312.302 83.244C313.362 80.8152 315.613 78.8866 318.481 77.9493C321.703 77.1864 325.12 77.2331 328.311 78.0837C333.143 79.103 337.793 80.6545 342.141 82.6977C346.391 84.6811 350.491 87.3116 352.28 90.9675C354.07 94.6234 354.09 101.708 349.731 103.574" fill="#251A51"/>
<path d="M335.891 101.775C335.631 101.775 335.471 101.212 335.521 100.548C335.571 99.8844 335.851 99.3718 336.101 99.3886C336.351 99.4054 336.541 99.9433 336.461 100.607C336.381 101.271 336.161 101.775 335.891 101.775Z" fill="#251A51"/>
<path d="M319.891 100.137C319.641 100.137 319.471 99.5819 319.531 98.9179C319.591 98.254 319.851 97.7413 320.111 97.7497C320.371 97.7581 320.521 98.3128 320.471 98.9768C320.421 99.6407 320.161 100.153 319.891 100.137Z" fill="#251A51"/>
<path d="M241.063 126.795C241.063 126.795 243.463 115.029 246.343 115.163C249.223 115.298 254.963 115.163 254.963 115.163C254.963 115.163 255.453 103.994 257.043 105.759C258.633 107.524 259.143 122.568 252.973 129.804L241.063 126.795Z" fill="#F6AEA6"/>
<path d="M304.762 198.425C304.762 198.425 278.982 202.022 279.452 204.686C279.895 206.552 280.678 208.349 281.772 210.014L304.772 209.602L304.762 198.425Z" fill="#F6AEA6"/>
<path d="M332.741 210.661L332.541 207.829L279.453 205.24L261.653 167.354L203.375 169.9L223.254 210.88L332.741 210.661Z" fill="#383838"/>
<path opacity="0.41" d="M235.494 187.945C235.7 189.893 237.733 191.339 240.054 191.189C241.166 191.164 242.221 190.769 242.985 190.089C243.749 189.409 244.159 188.501 244.124 187.566C243.922 185.623 241.898 184.177 239.584 184.322C238.47 184.344 237.414 184.738 236.646 185.416C235.879 186.094 235.464 187.001 235.494 187.936V187.945Z" fill="white"/>
<path opacity="0.41" d="M233.784 188.02C234.065 190.741 236.904 192.763 240.144 192.55C241.695 192.519 243.168 191.97 244.236 191.023C245.305 190.077 245.879 188.811 245.834 187.507C245.558 184.791 242.728 182.769 239.494 182.978C237.938 183.004 236.458 183.551 235.384 184.498C234.311 185.445 233.731 186.713 233.774 188.02H233.784Z" fill="white"/>
<path d="M369.99 225.621C313.242 232.63 234.464 236.395 194.715 211.51L369.99 209.754V225.621Z" fill="#CD8032"/>
<path d="M175.675 42.4999L164.906 30.86C164.906 30.86 165.156 28.7505 172.105 28.9522C179.055 29.1539 189.105 27.5823 195.645 27.4562C200.672 27.4187 205.693 27.7675 210.644 28.4984L199.385 42.4999H175.675Z" fill="#BBBDBF"/>
<path d="M210.455 13.8077C203.655 23.6407 197.045 33.583 193.335 44.0631C187.335 42.5588 181.285 41.0544 175.205 39.55C178.325 28.9354 179.285 18.1779 181.975 6.88257C191.762 8.23324 201.322 10.558 210.455 13.8077Z" fill="#8BC543" stroke="#006738" stroke-width="9.57"/>
<path d="M192.275 19.741C197.665 21.0437 200.405 24.9097 198.555 28.1453C196.509 31.4764 191.96 33.1406 187.665 32.1289C183.405 31.0784 180.375 27.4646 181.025 23.9852C181.675 20.5058 186.875 18.472 192.275 19.741Z" fill="#006738"/>
<path d="M175.205 39.5837L180.045 40.7855C180.385 39.6721 180.184 38.4908 179.486 37.5023C178.788 36.5138 177.651 35.7992 176.325 35.516C175.995 36.8775 175.615 38.2306 175.205 39.5837Z" fill="#006738"/>
<path d="M187.995 24.1029C187.305 23.9852 186.825 24.3466 186.565 25.187C186.305 26.0275 186.475 26.5149 187.095 26.6578C187.45 26.7717 187.851 26.6839 188.095 26.4393C188.537 25.9805 188.923 25.4848 189.245 24.9601C189.62 24.3069 190.233 23.7711 190.995 23.4305C191.731 23.1776 192.552 23.1567 193.305 23.3717C194.207 23.5394 194.932 24.1009 195.205 24.8425C195.456 25.5869 195.399 26.3807 195.045 27.0948C194.175 28.9438 192.735 29.7506 190.715 29.5405C190.865 29.011 191.005 28.4815 191.155 27.9436C192.194 28.109 193.199 27.5446 193.415 26.6746C193.825 25.7501 193.575 25.1702 192.655 24.9433C192.318 24.8496 191.948 24.8931 191.655 25.061C191.149 25.4885 190.724 25.9789 190.395 26.5149C190.007 27.1577 189.419 27.7006 188.695 28.0865C188.11 28.3454 187.429 28.4027 186.795 28.2462C186.07 28.075 185.469 27.6492 185.145 27.078C184.757 26.3566 184.693 25.5416 184.965 24.7836C185.485 22.9431 186.675 22.1615 188.505 22.4809L187.995 24.1029Z" fill="#8BC543"/>
<path d="M185.365 24.0105C185.215 24.5148 185.065 25.019 184.925 25.5149L182.995 25.0863C183.125 24.582 183.255 24.0777 183.375 23.5735L185.365 24.0105Z" fill="#8BC543"/>
<path d="M196.915 26.7838L196.195 28.2378L194.315 27.7587C194.535 27.2713 194.755 26.7838 194.985 26.2964L196.915 26.7838Z" fill="#8BC543"/>
<path d="M193.055 44.0211C193.548 42.682 194.072 41.3485 194.625 40.0206C191.941 39.319 189.088 40.5744 188.245 42.8277L193.055 44.0211Z" fill="#006738"/>
<path d="M209.995 13.6563C207.545 12.8159 205.085 12.0259 202.615 11.3031C201.425 13.5807 203.615 16.2448 207.445 17.455C208.315 16.186 209.175 14.9253 209.995 13.6563Z" fill="#006738"/>
<path d="M181.995 6.91626C181.668 8.3618 181.358 9.79893 181.065 11.2277C185.165 11.8496 188.955 10.5889 189.805 8.19371C187.215 7.69786 184.605 7.26924 181.995 6.91626Z" fill="#006738"/>
<path d="M186.735 34.7764C187.641 35.0085 188.151 35.8137 187.875 36.5749C187.599 37.3361 186.641 37.7651 185.735 37.533C184.81 37.3161 184.262 36.5156 184.505 35.7345C184.64 35.3533 184.955 35.0351 185.376 34.8541C185.797 34.673 186.288 34.645 186.735 34.7764Z" fill="#006738"/>
<path d="M194.555 14.1605C195.875 14.4799 196.635 15.3875 196.285 16.1607C195.683 16.9995 194.452 17.3539 193.365 17.0012C192.115 16.6986 191.365 15.833 191.615 15.0346C191.865 14.2362 193.225 13.8412 194.555 14.1605Z" fill="#006738"/>
<path d="M206.105 8.38693C201.055 18.9343 196.205 29.5741 194.325 40.4241C188.105 39.6593 181.885 38.8945 175.615 38.1381C176.895 27.2125 176.005 16.4971 176.745 5C186.658 5.14013 196.514 6.2772 206.105 8.38693Z" fill="#8BC543" stroke="#006738" stroke-width="9.57"/>
<path d="M189.125 16.4467C194.685 17.0854 198.055 20.5816 196.775 24.0105C195.318 27.5536 191.098 29.7481 186.675 29.2632C182.275 28.7337 178.675 25.5233 178.675 22.0019C178.675 18.4805 183.565 15.8415 189.125 16.4467Z" fill="#006738"/>
<path d="M175.615 38.138L180.615 38.7431C180.76 37.5954 180.354 36.4464 179.487 35.5516C178.619 34.6567 177.362 34.0902 175.995 33.9779C175.925 35.3814 175.795 36.7513 175.615 38.138Z" fill="#006738"/>
<path d="M185.635 21.2791C184.925 21.2791 184.515 21.6656 184.405 22.5229C184.295 23.3801 184.545 23.8424 185.175 23.9096C185.529 23.963 185.887 23.8341 186.085 23.5818C186.447 23.0752 186.742 22.537 186.965 21.9766C187.24 21.2852 187.764 20.6829 188.465 20.2537C189.152 19.9147 189.962 19.7953 190.745 19.9176C191.666 19.9736 192.481 20.4425 192.875 21.1446C193.253 21.8491 193.331 22.6415 193.095 23.3885C192.555 25.3215 191.275 26.2964 189.235 26.3384C189.235 25.7922 189.345 25.2459 189.395 24.6996C190.444 24.7285 191.331 24.0507 191.395 23.17C191.635 22.2035 191.295 21.6572 190.345 21.548C189.984 21.4876 189.611 21.5786 189.345 21.7917C188.911 22.2717 188.573 22.8083 188.345 23.3801C188.067 24.064 187.577 24.6732 186.925 25.145C186.392 25.4721 185.727 25.6081 185.075 25.5232C184.33 25.4445 183.662 25.098 183.245 24.5735C182.737 23.9054 182.535 23.1052 182.675 22.3212C182.875 20.4386 183.925 19.5226 185.785 19.615C185.745 20.1697 185.685 20.7244 185.635 21.2791Z" fill="#8BC543"/>
<path d="M182.995 21.4976L182.815 23.044L180.815 22.8591L180.935 21.3127L182.995 21.4976Z" fill="#8BC543"/>
<path d="M194.925 22.8591C194.765 23.3633 194.605 23.876 194.455 24.3802L192.455 24.1365L192.875 22.6069L194.925 22.8591Z" fill="#8BC543"/>
<path d="M193.995 40.4241C194.255 39.0373 194.545 37.659 194.875 36.2807C192.101 35.907 189.49 37.489 189.035 39.8189L193.995 40.4241Z" fill="#006738"/>
<path d="M205.645 8.29454C203.075 7.74826 200.515 7.26921 197.945 6.849C197.145 9.25262 199.725 11.6226 203.775 12.3538C204.395 11.0091 204.995 9.63922 205.645 8.29454Z" fill="#006738"/>
<path d="M176.745 5C176.665 6.47075 176.605 7.92469 176.555 9.37023C180.725 9.49629 184.265 7.79863 184.695 5.31096C182.065 5.12606 179.415 5.02521 176.745 5Z" fill="#006738"/>
<path d="M186.215 32.0198C186.675 32.0637 187.094 32.2614 187.378 32.5682C187.662 32.875 187.787 33.265 187.725 33.6502C187.587 34.4648 186.689 35.0311 185.72 34.9151C184.751 34.799 184.077 34.0446 184.215 33.23C184.286 32.8453 184.538 32.5006 184.914 32.2732C185.29 32.0457 185.758 31.9544 186.215 32.0198Z" fill="#006738"/>
<path d="M190.425 10.6479C191.795 10.8076 192.705 11.606 192.485 12.4212C192.044 13.3302 190.883 13.8358 189.745 13.6146C188.455 13.4717 187.525 12.7069 187.665 11.8833C187.805 11.0597 189.065 10.4966 190.425 10.6479Z" fill="#006738"/>
<path opacity="0.3" d="M218.994 89.337C218.994 91.1523 203.335 92.6147 186.065 92.6147C168.795 92.6147 156.456 91.1523 156.456 89.337C156.456 87.5217 168.795 86.0677 186.065 86.0677C203.335 86.0677 218.994 87.5301 218.994 89.337Z" fill="#221F1F"/>
<path d="M219.464 64.0065C219.044 64.0065 218.624 64.0065 218.214 64.0065C217.19 59.0256 213.152 54.8528 207.559 52.9942C201.966 51.1355 195.625 51.8595 190.825 54.9047C186.753 48.8605 178.342 45.8852 170.353 47.6626C162.364 49.44 156.806 55.5227 156.826 62.4685C156.826 62.998 156.826 63.5274 156.926 64.0485C156.516 64.0485 156.096 64.0485 155.676 64.0485C145.804 64.2431 137.923 71.0246 137.923 79.3233C137.923 87.622 145.804 94.4035 155.676 94.5981H219.474C226.069 94.7281 232.23 91.8455 235.573 87.066C238.916 82.2865 238.916 76.3601 235.573 71.5806C232.23 66.8011 226.069 63.9185 219.474 64.0485L219.464 64.0065Z" fill="#AAD0E2"/>
<path d="M164.456 94.5561H219.454C225.364 94.5583 230.906 92.1447 234.312 88.0854C237.717 84.026 238.561 78.8282 236.574 74.1505C224.634 93.9342 184.205 92.1777 164.456 94.5561Z" fill="#A5C7DD"/>
<path d="M207.994 105.011V92.1776C195.355 101.162 177.135 104.54 166.815 105.776C167.104 106.12 167.574 106.324 168.075 106.322H206.434C207.296 106.322 207.994 105.735 207.994 105.011Z" fill="#EAB531"/>
<path d="M175.675 42.4999L164.906 30.86C164.906 30.86 165.156 27.2629 172.105 27.4982C179.055 27.7336 186.475 30.2128 192.985 30.4734C198.957 30.6309 204.921 29.9753 210.644 28.532L199.385 42.4999H175.675Z" fill="#E6E6E7"/>
<path d="M213.074 63.8972C209.614 56.7451 204.294 49.2653 199.385 42.4999H175.675C170.686 49.4181 166.153 56.5613 162.096 63.8972C153.916 78.9577 158.586 83.9162 168.175 87.4712C175.295 90.1101 199.875 90.1101 206.994 87.4712C216.594 83.9162 218.994 76.1674 213.074 63.8972Z" fill="#E6E6E7"/>
<path d="M191.865 62.2752C191.715 60.8381 190.145 60.1237 187.135 60.1153C184.125 60.1069 182.605 60.7793 182.595 62.1323C182.557 62.94 183.143 63.6763 184.045 63.9561C185.945 64.5519 187.912 64.9855 189.915 65.2503C192.296 65.5141 194.538 66.3452 196.375 67.6456C197.765 68.7783 198.511 70.3568 198.425 71.9822C198.474 73.98 197.188 75.8327 195.095 76.781C192.803 77.9278 190.173 78.5102 187.505 78.4619C180.619 78.4619 176.702 76.2207 175.755 71.7384L181.465 71.3687C181.872 73.6938 183.902 74.862 187.555 74.8732C190.975 74.8732 192.689 73.9039 192.695 71.9654C192.75 71.1759 192.27 70.428 191.455 70.0324C189.599 69.34 187.637 68.8676 185.625 68.6289C182.565 68.1162 180.345 67.343 178.995 66.3009C177.684 65.3262 176.952 63.9142 176.995 62.4433C177.013 60.7658 177.997 59.1997 179.635 58.2412C181.395 57.0982 183.935 56.5603 187.275 56.5603C193.895 56.5603 197.355 58.4092 197.655 62.1071L191.865 62.2752Z" fill="#E2A540"/>
<rect width="4.15173" height="5.42999" transform="matrix(0.00456862 -0.99999 0.999995 0.0032271 184.775 57.0376)" fill="#E2A540"/>
<rect width="4.15173" height="5.42999" transform="matrix(0.00456862 -0.99999 0.999995 0.0032271 184.684 81.8076)" fill="#E2A540"/>
<path d="M201.575 42.9453C201.503 43.3795 201.046 43.6942 200.525 43.6681H174.205C173.681 43.6988 173.218 43.383 173.145 42.9453V42.357C173.218 41.9194 173.681 41.6036 174.205 41.6343H200.525C201.046 41.6081 201.503 41.9228 201.575 42.357V42.9453Z" fill="#744C29"/>
<path d="M194.275 86.2611C198.655 88.9168 206.465 86.6645 209.365 84.9332C213.365 82.538 215.235 77.7559 214.775 74.3354C214.438 71.2521 213.499 68.2365 211.995 65.41C212.88 68.6388 212.48 72.0225 210.855 75.0413C208.515 79.6553 201.745 80.8319 197.255 81.2521C194.145 81.5547 189.915 83.6305 194.275 86.2611Z" fill="#D0D2D3"/>
<path d="M191.605 41.0039C191.605 41.0039 199.895 38.4827 203.995 34.9361C208.615 30.9356 199.445 41.0039 199.445 41.0039H191.605Z" fill="#D0D2D3"/>
<path d="M168.085 31.7089C168.085 31.7089 168.245 31.8097 168.495 32.003C168.745 32.1963 169.105 32.4652 169.495 32.8434C170.472 33.6927 171.387 34.5908 172.235 35.5328C173.087 36.4687 173.869 37.4483 174.575 38.4659C174.865 38.8861 175.085 39.2475 175.235 39.508C175.385 39.7686 175.455 39.9198 175.455 39.9198L175.045 39.6257C174.795 39.4408 174.435 39.1635 174.045 38.7853C173.062 37.9409 172.147 37.0425 171.305 36.0959C170.465 35.159 169.693 34.1794 168.995 33.1628C168.715 32.7426 168.485 32.3812 168.335 32.1207C168.185 31.8601 168.085 31.7089 168.085 31.7089Z" fill="#F7F7F7"/>
<path d="M176.366 45.1052C176.366 45.1052 176.236 45.4498 175.976 46.0297C175.716 46.6096 175.336 47.4332 174.846 48.4165C173.846 50.3747 172.476 52.938 170.966 55.4509C169.456 57.9638 167.826 60.443 166.516 62.25C165.866 63.1576 165.296 63.9308 164.896 64.4267C164.496 64.9225 164.236 65.2671 164.236 65.2671C164.236 65.2671 164.366 64.9309 164.626 64.351C164.886 63.7711 165.266 62.9391 165.756 61.9642C166.756 59.9976 168.126 57.4427 169.646 54.9214C171.166 52.4001 172.786 49.9377 174.096 48.1224C174.746 47.2147 175.316 46.4415 175.716 45.9541L176.366 45.1052Z" fill="#F7F7F7"/>
<path d="M175.206 82.7312C173.9 86.4372 170.066 89.1169 165.492 89.5208C160.918 89.9246 156.505 87.973 154.311 84.5761C152.117 81.1791 152.574 77.0059 155.469 74.0026C158.364 70.9992 163.127 69.7573 167.536 70.8559C173.555 72.3557 176.989 77.6719 175.206 82.7312Z" fill="#E8AF2E"/>
<path d="M173.236 82.2352C172.161 85.2707 169.015 87.4623 165.267 87.787C161.519 88.1117 157.907 86.5054 156.118 83.718C154.329 80.9306 154.716 77.5119 157.098 75.0579C159.48 72.6039 163.387 71.5987 166.996 72.5115C171.908 73.7542 174.699 78.1027 173.236 82.2352Z" fill="#F9CA35"/>
<path d="M166.996 78.4366C167.142 77.8371 166.602 77.3832 165.376 77.0751C164.146 76.7641 163.436 76.8902 163.236 77.4364C163.131 77.7469 163.262 78.0797 163.566 78.2769C164.255 78.7141 164.996 79.0914 165.776 79.4031C166.711 79.7524 167.508 80.3178 168.076 81.0335C168.477 81.6397 168.554 82.3607 168.286 83.0169C168.015 83.8347 167.224 84.4572 166.236 84.6305C165.135 84.8666 163.978 84.8374 162.896 84.5465C160.086 83.8405 158.816 82.5294 159.066 80.6301L161.446 81.0503C161.276 82.042 161.936 82.7311 163.446 83.1009C164.956 83.4707 165.676 83.2354 165.966 82.437C166.048 82.1391 165.947 81.8264 165.696 81.605C165.033 81.1392 164.3 80.7493 163.516 80.4452C162.57 80.0882 161.753 79.5289 161.146 78.8232C160.746 78.2923 160.647 77.6396 160.876 77.0414C161.124 76.3593 161.75 75.8206 162.556 75.5959C163.657 75.3149 164.837 75.3444 165.916 75.68C168.616 76.3607 169.756 77.4701 169.356 78.9996L166.996 78.4366Z" fill="#C38728"/>
<rect width="1.80043" height="2.28795" transform="matrix(0.338245 -0.941058 0.96925 0.246079 165.454 75.449)" fill="#C38728"/>
<rect width="1.79498" height="2.28178" transform="matrix(0.33638 -0.941727 0.969614 0.244641 161.23 85.6552)" fill="#C38728"/>
<path d="M155.526 77.9744C155.532 77.222 155.77 76.4837 156.216 75.8313C156.99 75.4589 157.864 75.2592 158.756 75.2514C157.862 75.2577 156.983 75.0571 156.216 74.6716C155.751 74.0288 155.512 73.2888 155.526 72.5369C155.537 73.3075 155.279 74.064 154.786 74.7136C154.034 75.0965 153.164 75.2836 152.286 75.2514C153.182 75.2491 154.063 75.4494 154.836 75.8313C155.295 76.4793 155.533 77.2205 155.526 77.9744Z" fill="white"/>
<path d="M157.686 78.3948C157.692 78.1274 157.775 77.8652 157.926 77.63C158.204 77.5003 158.517 77.431 158.836 77.4283C158.515 77.4292 158.201 77.3565 157.926 77.2182C157.763 76.9899 157.68 76.7278 157.686 76.4618C157.688 76.7362 157.594 77.005 157.416 77.235C157.148 77.3712 156.839 77.4384 156.526 77.4283C156.851 77.3521 157.2 77.4284 157.44 77.6283C157.68 77.8281 157.774 78.1207 157.686 78.3948Z" fill="white"/>
<path d="M153.466 80.4367C153.472 80.068 153.589 79.7066 153.806 79.3862C154.188 79.197 154.622 79.0956 155.066 79.092C154.623 79.0951 154.187 78.9963 153.806 78.8063C153.58 78.4891 153.462 78.1255 153.466 77.7557C153.47 78.1358 153.346 78.5091 153.106 78.8315C152.731 79.0168 152.3 79.1073 151.866 79.092C152.315 78.9979 152.791 79.1087 153.118 79.384C153.446 79.6594 153.578 80.0589 153.466 80.4367Z" fill="white"/>
<path d="M207.994 89.6227H202.345V73.915C202.345 67.0502 195.723 61.4851 187.555 61.4851C179.387 61.4851 172.765 67.0502 172.765 73.915V89.6227H167.115V73.915C167.115 64.4277 176.267 56.7367 187.555 56.7367C198.843 56.7367 207.994 64.4277 207.994 73.915V89.6227Z" fill="#72716F"/>
<rect x="158.476" y="82.1681" width="58.1784" height="33.0624" rx="2.19" fill="#F2CB30"/>
<path d="M192.375 94.9005C192.379 92.9953 190.799 91.3467 188.583 90.9434C186.368 90.5402 184.118 91.4918 183.183 93.2274C182.248 94.9631 182.882 97.0117 184.705 98.1445L183.175 107.28H191.995L190.465 98.1445C191.674 97.3765 192.382 96.1744 192.375 94.9005Z" fill="#72716F"/>
<path d="M183.175 107.28C183.175 107.28 190.035 105.07 190.535 98.8254L191.995 107.28H183.175Z" fill="#5C5A5A"/>
</svg>
