<svg width="60" height="60" viewBox="0 0 60 60" fill="none" xmlns="http://www.w3.org/2000/svg">
<path d="M18 31.5C18 31.1022 18.158 30.7206 18.4393 30.4393C18.7206 30.158 19.1022 30 19.5 30C19.8978 30 20.2794 30.158 20.5607 30.4393C20.842 30.7206 21 31.1022 21 31.5C21 31.8978 20.842 32.2794 20.5607 32.5607C20.2794 32.842 19.8978 33 19.5 33C19.1022 33 18.7206 32.842 18.4393 32.5607C18.158 32.2794 18 31.8978 18 31.5ZM19.5 36C19.1022 36 18.7206 36.158 18.4393 36.4393C18.158 36.7206 18 37.1022 18 37.5C18 37.8978 18.158 38.2794 18.4393 38.5607C18.7206 38.842 19.1022 39 19.5 39C19.8978 39 20.2794 38.842 20.5607 38.5607C20.842 38.2794 21 37.8978 21 37.5C21 37.1022 20.842 36.7206 20.5607 36.4393C20.2794 36.158 19.8978 36 19.5 36ZM18 43.5C18 43.1022 18.158 42.7206 18.4393 42.4393C18.7206 42.158 19.1022 42 19.5 42C19.8978 42 20.2794 42.158 20.5607 42.4393C20.842 42.7206 21 43.1022 21 43.5C21 43.8978 20.842 44.2794 20.5607 44.5607C20.2794 44.842 19.8978 45 19.5 45C19.1022 45 18.7206 44.842 18.4393 44.5607C18.158 44.2794 18 43.8978 18 43.5ZM25.5 30C25.1022 30 24.7206 30.158 24.4393 30.4393C24.158 30.7206 24 31.1022 24 31.5C24 31.8978 24.158 32.2794 24.4393 32.5607C24.7206 32.842 25.1022 33 25.5 33H40.5C40.8978 33 41.2794 32.842 41.5607 32.5607C41.842 32.2794 42 31.8978 42 31.5C42 31.1022 41.842 30.7206 41.5607 30.4393C41.2794 30.158 40.8978 30 40.5 30H25.5ZM24 37.5C24 37.1022 24.158 36.7206 24.4393 36.4393C24.7206 36.158 25.1022 36 25.5 36H40.5C40.8978 36 41.2794 36.158 41.5607 36.4393C41.842 36.7206 42 37.1022 42 37.5C42 37.8978 41.842 38.2794 41.5607 38.5607C41.2794 38.842 40.8978 39 40.5 39H25.5C25.1022 39 24.7206 38.842 24.4393 38.5607C24.158 38.2794 24 37.8978 24 37.5ZM25.5 42C25.1022 42 24.7206 42.158 24.4393 42.4393C24.158 42.7206 24 43.1022 24 43.5C24 43.8978 24.158 44.2794 24.4393 44.5607C24.7206 44.842 25.1022 45 25.5 45H40.5C40.8978 45 41.2794 44.842 41.5607 44.5607C41.842 44.2794 42 43.8978 42 43.5C42 43.1022 41.842 42.7206 41.5607 42.4393C41.2794 42.158 40.8978 42 40.5 42H25.5ZM18 6C16.4087 6 14.8826 6.63214 13.7574 7.75736C12.6321 8.88258 12 10.4087 12 12V48C12 49.5913 12.6321 51.1174 13.7574 52.2426C14.8826 53.3679 16.4087 54 18 54H42C43.5913 54 45.1174 53.3679 46.2426 52.2426C47.3679 51.1174 48 49.5913 48 48V22.242C47.999 21.0489 47.5242 19.9051 46.68 19.062L34.938 7.317C34.0944 6.47394 32.9506 6.00025 31.758 6H18ZM15 12C15 11.2044 15.3161 10.4413 15.8787 9.87868C16.4413 9.31607 17.2044 9 18 9H30V19.5C30 20.6935 30.4741 21.8381 31.318 22.682C32.1619 23.5259 33.3065 24 34.5 24H45V48C45 48.7957 44.6839 49.5587 44.1213 50.1213C43.5587 50.6839 42.7956 51 42 51H18C17.2044 51 16.4413 50.6839 15.8787 50.1213C15.3161 49.5587 15 48.7957 15 48V12ZM44.379 21H34.5C34.1022 21 33.7206 20.842 33.4393 20.5607C33.158 20.2794 33 19.8978 33 19.5V9.621L44.379 21Z" fill="#C74A2E"/>
</svg>
