<svg width="60" height="60" viewBox="0 0 60 60" fill="none" xmlns="http://www.w3.org/2000/svg">
<path d="M6 16.5C6 15.3065 6.47411 14.1619 7.31802 13.318C8.16193 12.4741 9.30653 12 10.5 12H49.5C50.6935 12 51.8381 12.4741 52.682 13.318C53.5259 14.1619 54 15.3065 54 16.5V26.718C53.0545 26.3095 52.0292 26.1188 51 26.16V16.5C51 16.1022 50.842 15.7206 50.5607 15.4393C50.2794 15.158 49.8978 15 49.5 15H10.5C10.1022 15 9.72064 15.158 9.43934 15.4393C9.15804 15.7206 9 16.1022 9 16.5V43.5C9 43.8978 9.15804 44.2794 9.43934 44.5607C9.72064 44.842 10.1022 45 10.5 45H18V40.5C18 39.3065 18.4741 38.1619 19.318 37.318C20.1619 36.4741 21.3065 36 22.5 36H37.5C38.6935 36 39.8381 36.4741 40.682 37.318C41.5259 38.1619 42 39.3065 42 40.5V43.722C40.767 43.761 39.786 44.142 39 44.673V40.5C39 40.1022 38.842 39.7206 38.5607 39.4393C38.2794 39.158 37.8978 39 37.5 39H22.5C22.1022 39 21.7206 39.158 21.4393 39.4393C21.158 39.7206 21 40.1022 21 40.5V45H38.559C37.614 45.768 36.984 46.728 36.519 47.43C36.3962 47.6234 36.2681 47.8135 36.135 48H10.5C9.30653 48 8.16193 47.5259 7.31802 46.682C6.47411 45.8381 6 44.6935 6 43.5V16.5ZM30 33C31.9891 33 33.8968 32.2098 35.3033 30.8033C36.7098 29.3968 37.5 27.4891 37.5 25.5C37.5 23.5109 36.7098 21.6032 35.3033 20.1967C33.8968 18.7902 31.9891 18 30 18C28.0109 18 26.1032 18.7902 24.6967 20.1967C23.2902 21.6032 22.5 23.5109 22.5 25.5C22.5 27.4891 23.2902 29.3968 24.6967 30.8033C26.1032 32.2098 28.0109 33 30 33ZM30 30C28.8065 30 27.6619 29.5259 26.818 28.682C25.9741 27.8381 25.5 26.6935 25.5 25.5C25.5 24.3065 25.9741 23.1619 26.818 22.318C27.6619 21.4741 28.8065 21 30 21C31.1935 21 32.3381 21.4741 33.182 22.318C34.0259 23.1619 34.5 24.3065 34.5 25.5C34.5 26.6935 34.0259 27.8381 33.182 28.682C32.3381 29.5259 31.1935 30 30 30ZM47.505 33.795L48.702 30.972C49.263 29.646 50.607 28.926 51.927 29.202L52.209 29.274L53.709 29.754C55.197 30.231 56.334 31.503 56.703 33.102C57.576 36.903 56.529 41.532 53.556 46.986C50.589 52.434 47.34 55.707 43.803 56.811C42.429 57.24 40.953 56.931 39.843 55.998L39.552 55.728L38.412 54.585C37.9331 54.0919 37.6237 53.4591 37.5288 52.7784C37.4338 52.0976 37.5582 51.4043 37.884 50.799L38.052 50.523L39.768 48.003C40.08 47.5273 40.5275 47.1561 41.0527 46.9373C41.5779 46.7186 42.1566 46.6624 42.714 46.776L43.014 46.857L46.185 47.916C47.448 46.956 48.504 45.756 49.347 44.301C50.07 43.056 50.547 41.796 50.766 40.518L50.856 39.876L48.219 37.371C47.7934 36.9562 47.4908 36.4318 47.3447 35.8558C47.1985 35.2797 47.2146 34.6745 47.391 34.107L47.502 33.795H47.505Z" fill="#C74A2E"/>
</svg>
