<svg width="60" height="60" viewBox="0 0 60 60" fill="none" xmlns="http://www.w3.org/2000/svg">
<path d="M7.5 51.465L16.465 42.5H45C46.3261 42.5 47.5979 41.9732 48.5355 41.0355C49.4732 40.0979 50 38.8261 50 37.5V15C50 13.6739 49.4732 12.4021 48.5355 11.4645C47.5979 10.5268 46.3261 10 45 10H12.5C11.1739 10 9.90215 10.5268 8.96447 11.4645C8.02678 12.4021 7.5 13.6739 7.5 15V51.465ZM7.5 55H5V15C5 13.0109 5.79018 11.1032 7.1967 9.6967C8.60322 8.29018 10.5109 7.5 12.5 7.5H45C46.9891 7.5 48.8968 8.29018 50.3033 9.6967C51.7098 11.1032 52.5 13.0109 52.5 15V37.5C52.5 39.4891 51.7098 41.3968 50.3033 42.8033C48.8968 44.2098 46.9891 45 45 45H17.5L7.5 55ZM16.25 22.5C17.2446 22.5 18.1984 22.8951 18.9017 23.5983C19.6049 24.3016 20 25.2554 20 26.25C20 27.2446 19.6049 28.1984 18.9017 28.9017C18.1984 29.6049 17.2446 30 16.25 30C15.2554 30 14.3016 29.6049 13.5983 28.9017C12.8951 28.1984 12.5 27.2446 12.5 26.25C12.5 25.2554 12.8951 24.3016 13.5983 23.5983C14.3016 22.8951 15.2554 22.5 16.25 22.5ZM16.25 25C15.9185 25 15.6005 25.1317 15.3661 25.3661C15.1317 25.6005 15 25.9185 15 26.25C15 26.5815 15.1317 26.8995 15.3661 27.1339C15.6005 27.3683 15.9185 27.5 16.25 27.5C16.5815 27.5 16.8995 27.3683 17.1339 27.1339C17.3683 26.8995 17.5 26.5815 17.5 26.25C17.5 25.9185 17.3683 25.6005 17.1339 25.3661C16.8995 25.1317 16.5815 25 16.25 25ZM28.75 22.5C29.7446 22.5 30.6984 22.8951 31.4017 23.5983C32.1049 24.3016 32.5 25.2554 32.5 26.25C32.5 27.2446 32.1049 28.1984 31.4017 28.9017C30.6984 29.6049 29.7446 30 28.75 30C27.7554 30 26.8016 29.6049 26.0983 28.9017C25.3951 28.1984 25 27.2446 25 26.25C25 25.2554 25.3951 24.3016 26.0983 23.5983C26.8016 22.8951 27.7554 22.5 28.75 22.5ZM28.75 25C28.4185 25 28.1005 25.1317 27.8661 25.3661C27.6317 25.6005 27.5 25.9185 27.5 26.25C27.5 26.5815 27.6317 26.8995 27.8661 27.1339C28.1005 27.3683 28.4185 27.5 28.75 27.5C29.0815 27.5 29.3995 27.3683 29.6339 27.1339C29.8683 26.8995 30 26.5815 30 26.25C30 25.9185 29.8683 25.6005 29.6339 25.3661C29.3995 25.1317 29.0815 25 28.75 25ZM41.25 22.5C42.2446 22.5 43.1984 22.8951 43.9016 23.5983C44.6049 24.3016 45 25.2554 45 26.25C45 27.2446 44.6049 28.1984 43.9016 28.9017C43.1984 29.6049 42.2446 30 41.25 30C40.2554 30 39.3016 29.6049 38.5984 28.9017C37.8951 28.1984 37.5 27.2446 37.5 26.25C37.5 25.2554 37.8951 24.3016 38.5984 23.5983C39.3016 22.8951 40.2554 22.5 41.25 22.5ZM41.25 25C40.9185 25 40.6005 25.1317 40.3661 25.3661C40.1317 25.6005 40 25.9185 40 26.25C40 26.5815 40.1317 26.8995 40.3661 27.1339C40.6005 27.3683 40.9185 27.5 41.25 27.5C41.5815 27.5 41.8995 27.3683 42.1339 27.1339C42.3683 26.8995 42.5 26.5815 42.5 26.25C42.5 25.9185 42.3683 25.6005 42.1339 25.3661C41.8995 25.1317 41.5815 25 41.25 25Z" fill="#C74A2E"/>
</svg>
